%FSLAX45Y45*%
G04 Gerber Fmt 4.5, Leading zero omitted, Abs format (unit mm)*
G04 Created by KiCad (PCBNEW (5.1.5-0-10_14)) date 2020-07-06 12:55:33*
%MOMM*%
%LPD*%
G04 APERTURE LIST*
%TA.AperFunction,Profile*%
%ADD10C,0.050000*%
%TD*%
%ADD11C,0.200000*%
%ADD12C,0.300000*%
G04 APERTURE END LIST*
D10*
X12735156Y-7654288D02*
X12739200Y-11678900D01*
X17077756Y-7332244D02*
X13102356Y-7328200D01*
X12735156Y-7654288D02*
G75*
G02X13102356Y-7328200I346644J-20556D01*
G01*
X17424400Y-11684000D02*
X17424400Y-7670800D01*
X17424400Y-11684000D02*
X17424400Y-11670812D01*
X13085844Y-12017456D02*
X17085844Y-12017456D01*
X13085844Y-12017456D02*
G75*
G02X12739200Y-11678900I-4044J342600D01*
G01*
X17424400Y-11670812D02*
G75*
G02X17085844Y-12017456I-342600J-4044D01*
G01*
X17077756Y-7332244D02*
G75*
G02X17424400Y-7670800I4044J-342600D01*
G01*
X13241800Y-11674856D02*
G75*
G03X13241800Y-11674856I-160000J0D01*
G01*
X17241800Y-11674856D02*
G75*
G03X17241800Y-11674856I-160000J0D01*
G01*
X17241800Y-7674844D02*
G75*
G03X17241800Y-7674844I-160000J0D01*
G01*
D11*
D12*
X13019084Y-12485694D02*
X13019084Y-12185694D01*
X13090513Y-12185694D01*
X13133370Y-12199980D01*
X13161942Y-12228551D01*
X13176227Y-12257123D01*
X13190513Y-12314266D01*
X13190513Y-12357123D01*
X13176227Y-12414266D01*
X13161942Y-12442837D01*
X13133370Y-12471408D01*
X13090513Y-12485694D01*
X13019084Y-12485694D01*
X13319084Y-12485694D02*
X13319084Y-12285694D01*
X13319084Y-12342837D02*
X13333370Y-12314266D01*
X13347656Y-12299980D01*
X13376227Y-12285694D01*
X13404799Y-12285694D01*
X13504799Y-12485694D02*
X13504799Y-12285694D01*
X13504799Y-12185694D02*
X13490513Y-12199980D01*
X13504799Y-12214266D01*
X13519084Y-12199980D01*
X13504799Y-12185694D01*
X13504799Y-12214266D01*
X13690513Y-12485694D02*
X13661942Y-12471408D01*
X13647656Y-12442837D01*
X13647656Y-12185694D01*
X13847656Y-12485694D02*
X13819084Y-12471408D01*
X13804799Y-12442837D01*
X13804799Y-12185694D01*
X14190513Y-12485694D02*
X14190513Y-12185694D01*
X14290513Y-12399980D01*
X14390513Y-12185694D01*
X14390513Y-12485694D01*
X14661942Y-12485694D02*
X14661942Y-12328551D01*
X14647656Y-12299980D01*
X14619084Y-12285694D01*
X14561942Y-12285694D01*
X14533370Y-12299980D01*
X14661942Y-12471408D02*
X14633370Y-12485694D01*
X14561942Y-12485694D01*
X14533370Y-12471408D01*
X14519084Y-12442837D01*
X14519084Y-12414266D01*
X14533370Y-12385694D01*
X14561942Y-12371408D01*
X14633370Y-12371408D01*
X14661942Y-12357123D01*
X14804799Y-12285694D02*
X14804799Y-12585694D01*
X14804799Y-12299980D02*
X14833370Y-12285694D01*
X14890513Y-12285694D01*
X14919084Y-12299980D01*
X14933370Y-12314266D01*
X14947656Y-12342837D01*
X14947656Y-12428551D01*
X14933370Y-12457123D01*
X14919084Y-12471408D01*
X14890513Y-12485694D01*
X14833370Y-12485694D01*
X14804799Y-12471408D01*
X15076227Y-12457123D02*
X15090513Y-12471408D01*
X15076227Y-12485694D01*
X15061942Y-12471408D01*
X15076227Y-12457123D01*
X15076227Y-12485694D01*
X15076227Y-12299980D02*
X15090513Y-12314266D01*
X15076227Y-12328551D01*
X15061942Y-12314266D01*
X15076227Y-12299980D01*
X15076227Y-12328551D01*
M02*
