G04 #@! TF.GenerationSoftware,KiCad,Pcbnew,(5.1.5-0-10_14)*
G04 #@! TF.CreationDate,2020-07-06T12:55:30+02:00*
G04 #@! TF.ProjectId,smartcitizen-adc-8ch,736d6172-7463-4697-9469-7a656e2d6164,rev?*
G04 #@! TF.SameCoordinates,Original*
G04 #@! TF.FileFunction,Paste,Top*
G04 #@! TF.FilePolarity,Positive*
%FSLAX46Y46*%
G04 Gerber Fmt 4.6, Leading zero omitted, Abs format (unit mm)*
G04 Created by KiCad (PCBNEW (5.1.5-0-10_14)) date 2020-07-06 12:55:30*
%MOMM*%
%LPD*%
G04 APERTURE LIST*
%ADD10R,1.905000X1.270000*%
%ADD11R,1.270000X1.905000*%
%ADD12R,0.889000X0.787400*%
%ADD13R,0.250000X1.100000*%
G04 APERTURE END LIST*
D10*
X147066000Y-108153200D03*
X147066000Y-111455200D03*
X162267900Y-108153200D03*
X162267900Y-111455200D03*
D11*
X140144500Y-111112300D03*
X143446500Y-111112300D03*
D10*
X158467425Y-111455200D03*
X158467425Y-108153200D03*
X154666950Y-111455200D03*
X154666950Y-108153200D03*
D11*
X162674300Y-92087700D03*
X159372300Y-92087700D03*
X162636200Y-95097600D03*
X159334200Y-95097600D03*
X142049500Y-95211900D03*
X145351500Y-95211900D03*
X145402300Y-92087700D03*
X142100300Y-92087700D03*
D10*
X154666950Y-101384100D03*
X154666950Y-104686100D03*
X158467425Y-104686100D03*
X158467425Y-101384100D03*
X150866475Y-101384100D03*
X150866475Y-104686100D03*
X162267900Y-104686100D03*
X162267900Y-101384100D03*
D12*
X140855700Y-106006900D03*
X140855700Y-107937300D03*
X142887700Y-106972100D03*
X140855700Y-101473000D03*
X140855700Y-103403400D03*
X142887700Y-102438200D03*
D13*
X148606000Y-92122100D03*
X149106000Y-92122100D03*
X149606000Y-92122100D03*
X150106000Y-92122100D03*
X150606000Y-92122100D03*
X150606000Y-96422100D03*
X150106000Y-96422100D03*
X149606000Y-96422100D03*
X149106000Y-96422100D03*
X148606000Y-96422100D03*
X154270200Y-92160200D03*
X154770200Y-92160200D03*
X155270200Y-92160200D03*
X155770200Y-92160200D03*
X156270200Y-92160200D03*
X156270200Y-96460200D03*
X155770200Y-96460200D03*
X155270200Y-96460200D03*
X154770200Y-96460200D03*
X154270200Y-96460200D03*
D10*
X147066000Y-101384100D03*
X147066000Y-104686100D03*
X150866475Y-108153200D03*
X150866475Y-111455200D03*
M02*
