G04 #@! TF.GenerationSoftware,KiCad,Pcbnew,(5.1.5-0-10_14)*
G04 #@! TF.CreationDate,2020-07-06T12:55:30+02:00*
G04 #@! TF.ProjectId,smartcitizen-adc-8ch,736d6172-7463-4697-9469-7a656e2d6164,rev?*
G04 #@! TF.SameCoordinates,Original*
G04 #@! TF.FileFunction,Soldermask,Bot*
G04 #@! TF.FilePolarity,Negative*
%FSLAX46Y46*%
G04 Gerber Fmt 4.6, Leading zero omitted, Abs format (unit mm)*
G04 Created by KiCad (PCBNEW (5.1.5-0-10_14)) date 2020-07-06 12:55:30*
%MOMM*%
%LPD*%
G04 APERTURE LIST*
%ADD10C,0.100000*%
G04 APERTURE END LIST*
D10*
G36*
X140930912Y-116565664D02*
G01*
X141015495Y-116573995D01*
X141178284Y-116623377D01*
X141178287Y-116623378D01*
X141328307Y-116703565D01*
X141328308Y-116703566D01*
X141328312Y-116703568D01*
X141459812Y-116811487D01*
X141567731Y-116942987D01*
X141567733Y-116942991D01*
X141567734Y-116942992D01*
X141647921Y-117093012D01*
X141647922Y-117093015D01*
X141697304Y-117255804D01*
X141713978Y-117425099D01*
X141697304Y-117594394D01*
X141647922Y-117757183D01*
X141647921Y-117757186D01*
X141567734Y-117907206D01*
X141567731Y-117907211D01*
X141459812Y-118038711D01*
X141328312Y-118146630D01*
X141328308Y-118146632D01*
X141328307Y-118146633D01*
X141178287Y-118226820D01*
X141178284Y-118226821D01*
X141015495Y-118276203D01*
X140930912Y-118284534D01*
X140888621Y-118288699D01*
X139279779Y-118288699D01*
X139237488Y-118284534D01*
X139152905Y-118276203D01*
X138990116Y-118226821D01*
X138990113Y-118226820D01*
X138840093Y-118146633D01*
X138840092Y-118146632D01*
X138840088Y-118146630D01*
X138708588Y-118038711D01*
X138600669Y-117907211D01*
X138600666Y-117907206D01*
X138520479Y-117757186D01*
X138520478Y-117757183D01*
X138471096Y-117594394D01*
X138460747Y-117489319D01*
X138455966Y-117465285D01*
X138446589Y-117442647D01*
X138434864Y-117425099D01*
X138446589Y-117407551D01*
X138455967Y-117384912D01*
X138460747Y-117360879D01*
X138471096Y-117255806D01*
X138471096Y-117255804D01*
X138520478Y-117093015D01*
X138520479Y-117093012D01*
X138600666Y-116942992D01*
X138600667Y-116942991D01*
X138600669Y-116942987D01*
X138708588Y-116811487D01*
X138840088Y-116703568D01*
X138840092Y-116703566D01*
X138840093Y-116703565D01*
X138990113Y-116623378D01*
X138990116Y-116623377D01*
X139152905Y-116573995D01*
X139237488Y-116565664D01*
X139279779Y-116561499D01*
X140888621Y-116561499D01*
X140930912Y-116565664D01*
G37*
G36*
X137435212Y-116565664D02*
G01*
X137519795Y-116573995D01*
X137682584Y-116623377D01*
X137682587Y-116623378D01*
X137832607Y-116703565D01*
X137832608Y-116703566D01*
X137832612Y-116703568D01*
X137964112Y-116811487D01*
X138072031Y-116942987D01*
X138072033Y-116942991D01*
X138072034Y-116942992D01*
X138152221Y-117093012D01*
X138152222Y-117093015D01*
X138201604Y-117255804D01*
X138201604Y-117255806D01*
X138211953Y-117360879D01*
X138216734Y-117384913D01*
X138226111Y-117407551D01*
X138237836Y-117425099D01*
X138226111Y-117442647D01*
X138216733Y-117465286D01*
X138211953Y-117489319D01*
X138201604Y-117594394D01*
X138152222Y-117757183D01*
X138152221Y-117757186D01*
X138072034Y-117907206D01*
X138072031Y-117907211D01*
X137964112Y-118038711D01*
X137832612Y-118146630D01*
X137832608Y-118146632D01*
X137832607Y-118146633D01*
X137682587Y-118226820D01*
X137682584Y-118226821D01*
X137519795Y-118276203D01*
X137435212Y-118284534D01*
X137392921Y-118288699D01*
X135784079Y-118288699D01*
X135741788Y-118284534D01*
X135657205Y-118276203D01*
X135494416Y-118226821D01*
X135494413Y-118226820D01*
X135344393Y-118146633D01*
X135344392Y-118146632D01*
X135344388Y-118146630D01*
X135212888Y-118038711D01*
X135104969Y-117907211D01*
X135104966Y-117907206D01*
X135024779Y-117757186D01*
X135024778Y-117757183D01*
X134975396Y-117594394D01*
X134958722Y-117425099D01*
X134975396Y-117255804D01*
X135024778Y-117093015D01*
X135024779Y-117093012D01*
X135104966Y-116942992D01*
X135104967Y-116942991D01*
X135104969Y-116942987D01*
X135212888Y-116811487D01*
X135344388Y-116703568D01*
X135344392Y-116703566D01*
X135344393Y-116703565D01*
X135494413Y-116623378D01*
X135494416Y-116623377D01*
X135657205Y-116573995D01*
X135741788Y-116565664D01*
X135784079Y-116561499D01*
X137392921Y-116561499D01*
X137435212Y-116565664D01*
G37*
G36*
X140930912Y-114025664D02*
G01*
X141015495Y-114033995D01*
X141178284Y-114083377D01*
X141178287Y-114083378D01*
X141328307Y-114163565D01*
X141328308Y-114163566D01*
X141328312Y-114163568D01*
X141459812Y-114271487D01*
X141567731Y-114402987D01*
X141567733Y-114402991D01*
X141567734Y-114402992D01*
X141647921Y-114553012D01*
X141647922Y-114553015D01*
X141697304Y-114715804D01*
X141713978Y-114885099D01*
X141697304Y-115054394D01*
X141647922Y-115217183D01*
X141647921Y-115217186D01*
X141567734Y-115367206D01*
X141567731Y-115367211D01*
X141459812Y-115498711D01*
X141328312Y-115606630D01*
X141328308Y-115606632D01*
X141328307Y-115606633D01*
X141178287Y-115686820D01*
X141178284Y-115686821D01*
X141015495Y-115736203D01*
X140930912Y-115744534D01*
X140888621Y-115748699D01*
X139279779Y-115748699D01*
X139237488Y-115744534D01*
X139152905Y-115736203D01*
X138990116Y-115686821D01*
X138990113Y-115686820D01*
X138840093Y-115606633D01*
X138840092Y-115606632D01*
X138840088Y-115606630D01*
X138708588Y-115498711D01*
X138600669Y-115367211D01*
X138600666Y-115367206D01*
X138520479Y-115217186D01*
X138520478Y-115217183D01*
X138471096Y-115054394D01*
X138460747Y-114949319D01*
X138455966Y-114925285D01*
X138446589Y-114902647D01*
X138434864Y-114885099D01*
X138446589Y-114867551D01*
X138455967Y-114844912D01*
X138460747Y-114820879D01*
X138471096Y-114715806D01*
X138471096Y-114715804D01*
X138520478Y-114553015D01*
X138520479Y-114553012D01*
X138600666Y-114402992D01*
X138600667Y-114402991D01*
X138600669Y-114402987D01*
X138708588Y-114271487D01*
X138840088Y-114163568D01*
X138840092Y-114163566D01*
X138840093Y-114163565D01*
X138990113Y-114083378D01*
X138990116Y-114083377D01*
X139152905Y-114033995D01*
X139237488Y-114025664D01*
X139279779Y-114021499D01*
X140888621Y-114021499D01*
X140930912Y-114025664D01*
G37*
G36*
X137435212Y-114025664D02*
G01*
X137519795Y-114033995D01*
X137682584Y-114083377D01*
X137682587Y-114083378D01*
X137832607Y-114163565D01*
X137832608Y-114163566D01*
X137832612Y-114163568D01*
X137964112Y-114271487D01*
X138072031Y-114402987D01*
X138072033Y-114402991D01*
X138072034Y-114402992D01*
X138152221Y-114553012D01*
X138152222Y-114553015D01*
X138201604Y-114715804D01*
X138201604Y-114715806D01*
X138211953Y-114820879D01*
X138216734Y-114844913D01*
X138226111Y-114867551D01*
X138237836Y-114885099D01*
X138226111Y-114902647D01*
X138216733Y-114925286D01*
X138211953Y-114949319D01*
X138201604Y-115054394D01*
X138152222Y-115217183D01*
X138152221Y-115217186D01*
X138072034Y-115367206D01*
X138072031Y-115367211D01*
X137964112Y-115498711D01*
X137832612Y-115606630D01*
X137832608Y-115606632D01*
X137832607Y-115606633D01*
X137682587Y-115686820D01*
X137682584Y-115686821D01*
X137519795Y-115736203D01*
X137435212Y-115744534D01*
X137392921Y-115748699D01*
X135784079Y-115748699D01*
X135741788Y-115744534D01*
X135657205Y-115736203D01*
X135494416Y-115686821D01*
X135494413Y-115686820D01*
X135344393Y-115606633D01*
X135344392Y-115606632D01*
X135344388Y-115606630D01*
X135212888Y-115498711D01*
X135104969Y-115367211D01*
X135104966Y-115367206D01*
X135024779Y-115217186D01*
X135024778Y-115217183D01*
X134975396Y-115054394D01*
X134958722Y-114885099D01*
X134975396Y-114715804D01*
X135024778Y-114553015D01*
X135024779Y-114553012D01*
X135104966Y-114402992D01*
X135104967Y-114402991D01*
X135104969Y-114402987D01*
X135212888Y-114271487D01*
X135344388Y-114163568D01*
X135344392Y-114163566D01*
X135344393Y-114163565D01*
X135494413Y-114083378D01*
X135494416Y-114083377D01*
X135657205Y-114033995D01*
X135741788Y-114025664D01*
X135784079Y-114021499D01*
X137392921Y-114021499D01*
X137435212Y-114025664D01*
G37*
G36*
X170345300Y-110759440D02*
G01*
X168973300Y-110759440D01*
X168973300Y-109387440D01*
X170345300Y-109387440D01*
X170345300Y-110759440D01*
G37*
G36*
X132766098Y-109413802D02*
G01*
X132890941Y-109465514D01*
X132890943Y-109465515D01*
X133003299Y-109540589D01*
X133098851Y-109636141D01*
X133173926Y-109748499D01*
X133225638Y-109873342D01*
X133252000Y-110005874D01*
X133252000Y-110141006D01*
X133225638Y-110273538D01*
X133173926Y-110398381D01*
X133173925Y-110398383D01*
X133098851Y-110510739D01*
X133003299Y-110606291D01*
X132890943Y-110681365D01*
X132890942Y-110681366D01*
X132890941Y-110681366D01*
X132766098Y-110733078D01*
X132633566Y-110759440D01*
X132498434Y-110759440D01*
X132365902Y-110733078D01*
X132241059Y-110681366D01*
X132241058Y-110681366D01*
X132241057Y-110681365D01*
X132128701Y-110606291D01*
X132033149Y-110510739D01*
X131958075Y-110398383D01*
X131958074Y-110398381D01*
X131906362Y-110273538D01*
X131880000Y-110141006D01*
X131880000Y-110005874D01*
X131906362Y-109873342D01*
X131958074Y-109748499D01*
X132033149Y-109636141D01*
X132128701Y-109540589D01*
X132241057Y-109465515D01*
X132241059Y-109465514D01*
X132365902Y-109413802D01*
X132498434Y-109387440D01*
X132633566Y-109387440D01*
X132766098Y-109413802D01*
G37*
G36*
X132766098Y-107412282D02*
G01*
X132890941Y-107463994D01*
X132890943Y-107463995D01*
X133003299Y-107539069D01*
X133098851Y-107634621D01*
X133173926Y-107746979D01*
X133225638Y-107871822D01*
X133252000Y-108004354D01*
X133252000Y-108139486D01*
X133225638Y-108272018D01*
X133173926Y-108396861D01*
X133173925Y-108396863D01*
X133098851Y-108509219D01*
X133003299Y-108604771D01*
X132890943Y-108679845D01*
X132890942Y-108679846D01*
X132890941Y-108679846D01*
X132766098Y-108731558D01*
X132633566Y-108757920D01*
X132498434Y-108757920D01*
X132365902Y-108731558D01*
X132241059Y-108679846D01*
X132241058Y-108679846D01*
X132241057Y-108679845D01*
X132128701Y-108604771D01*
X132033149Y-108509219D01*
X131958075Y-108396863D01*
X131958074Y-108396861D01*
X131906362Y-108272018D01*
X131880000Y-108139486D01*
X131880000Y-108004354D01*
X131906362Y-107871822D01*
X131958074Y-107746979D01*
X132033149Y-107634621D01*
X132128701Y-107539069D01*
X132241057Y-107463995D01*
X132241059Y-107463994D01*
X132365902Y-107412282D01*
X132498434Y-107385920D01*
X132633566Y-107385920D01*
X132766098Y-107412282D01*
G37*
G36*
X169859398Y-107412282D02*
G01*
X169984241Y-107463994D01*
X169984243Y-107463995D01*
X170096599Y-107539069D01*
X170192151Y-107634621D01*
X170267226Y-107746979D01*
X170318938Y-107871822D01*
X170345300Y-108004354D01*
X170345300Y-108139486D01*
X170318938Y-108272018D01*
X170267226Y-108396861D01*
X170267225Y-108396863D01*
X170192151Y-108509219D01*
X170096599Y-108604771D01*
X169984243Y-108679845D01*
X169984242Y-108679846D01*
X169984241Y-108679846D01*
X169859398Y-108731558D01*
X169726866Y-108757920D01*
X169591734Y-108757920D01*
X169459202Y-108731558D01*
X169334359Y-108679846D01*
X169334358Y-108679846D01*
X169334357Y-108679845D01*
X169222001Y-108604771D01*
X169126449Y-108509219D01*
X169051375Y-108396863D01*
X169051374Y-108396861D01*
X168999662Y-108272018D01*
X168973300Y-108139486D01*
X168973300Y-108004354D01*
X168999662Y-107871822D01*
X169051374Y-107746979D01*
X169126449Y-107634621D01*
X169222001Y-107539069D01*
X169334357Y-107463995D01*
X169334359Y-107463994D01*
X169459202Y-107412282D01*
X169591734Y-107385920D01*
X169726866Y-107385920D01*
X169859398Y-107412282D01*
G37*
G36*
X169859398Y-105415842D02*
G01*
X169984241Y-105467554D01*
X169984243Y-105467555D01*
X170096599Y-105542629D01*
X170192151Y-105638181D01*
X170267226Y-105750539D01*
X170318938Y-105875382D01*
X170345300Y-106007914D01*
X170345300Y-106143046D01*
X170318938Y-106275578D01*
X170267226Y-106400421D01*
X170267225Y-106400423D01*
X170192151Y-106512779D01*
X170096599Y-106608331D01*
X169984243Y-106683405D01*
X169984242Y-106683406D01*
X169984241Y-106683406D01*
X169859398Y-106735118D01*
X169726866Y-106761480D01*
X169591734Y-106761480D01*
X169459202Y-106735118D01*
X169334359Y-106683406D01*
X169334358Y-106683406D01*
X169334357Y-106683405D01*
X169222001Y-106608331D01*
X169126449Y-106512779D01*
X169051375Y-106400423D01*
X169051374Y-106400421D01*
X168999662Y-106275578D01*
X168973300Y-106143046D01*
X168973300Y-106007914D01*
X168999662Y-105875382D01*
X169051374Y-105750539D01*
X169126449Y-105638181D01*
X169222001Y-105542629D01*
X169334357Y-105467555D01*
X169334359Y-105467554D01*
X169459202Y-105415842D01*
X169591734Y-105389480D01*
X169726866Y-105389480D01*
X169859398Y-105415842D01*
G37*
G36*
X132766098Y-105415842D02*
G01*
X132890941Y-105467554D01*
X132890943Y-105467555D01*
X133003299Y-105542629D01*
X133098851Y-105638181D01*
X133173926Y-105750539D01*
X133225638Y-105875382D01*
X133252000Y-106007914D01*
X133252000Y-106143046D01*
X133225638Y-106275578D01*
X133173926Y-106400421D01*
X133173925Y-106400423D01*
X133098851Y-106512779D01*
X133003299Y-106608331D01*
X132890943Y-106683405D01*
X132890942Y-106683406D01*
X132890941Y-106683406D01*
X132766098Y-106735118D01*
X132633566Y-106761480D01*
X132498434Y-106761480D01*
X132365902Y-106735118D01*
X132241059Y-106683406D01*
X132241058Y-106683406D01*
X132241057Y-106683405D01*
X132128701Y-106608331D01*
X132033149Y-106512779D01*
X131958075Y-106400423D01*
X131958074Y-106400421D01*
X131906362Y-106275578D01*
X131880000Y-106143046D01*
X131880000Y-106007914D01*
X131906362Y-105875382D01*
X131958074Y-105750539D01*
X132033149Y-105638181D01*
X132128701Y-105542629D01*
X132241057Y-105467555D01*
X132241059Y-105467554D01*
X132365902Y-105415842D01*
X132498434Y-105389480D01*
X132633566Y-105389480D01*
X132766098Y-105415842D01*
G37*
G36*
X169859398Y-103414322D02*
G01*
X169984241Y-103466034D01*
X169984243Y-103466035D01*
X170096599Y-103541109D01*
X170192151Y-103636661D01*
X170267226Y-103749019D01*
X170318938Y-103873862D01*
X170345300Y-104006394D01*
X170345300Y-104141526D01*
X170318938Y-104274058D01*
X170267226Y-104398901D01*
X170267225Y-104398903D01*
X170192151Y-104511259D01*
X170096599Y-104606811D01*
X169984243Y-104681885D01*
X169984242Y-104681886D01*
X169984241Y-104681886D01*
X169859398Y-104733598D01*
X169726866Y-104759960D01*
X169591734Y-104759960D01*
X169459202Y-104733598D01*
X169334359Y-104681886D01*
X169334358Y-104681886D01*
X169334357Y-104681885D01*
X169222001Y-104606811D01*
X169126449Y-104511259D01*
X169051375Y-104398903D01*
X169051374Y-104398901D01*
X168999662Y-104274058D01*
X168973300Y-104141526D01*
X168973300Y-104006394D01*
X168999662Y-103873862D01*
X169051374Y-103749019D01*
X169126449Y-103636661D01*
X169222001Y-103541109D01*
X169334357Y-103466035D01*
X169334359Y-103466034D01*
X169459202Y-103414322D01*
X169591734Y-103387960D01*
X169726866Y-103387960D01*
X169859398Y-103414322D01*
G37*
G36*
X133252000Y-104759960D02*
G01*
X131880000Y-104759960D01*
X131880000Y-103387960D01*
X133252000Y-103387960D01*
X133252000Y-104759960D01*
G37*
G36*
X169110300Y-98888600D02*
G01*
X166608300Y-98888600D01*
X166608300Y-96386600D01*
X169110300Y-96386600D01*
X169110300Y-98888600D01*
G37*
G36*
X134730903Y-96434675D02*
G01*
X134958571Y-96528978D01*
X135163466Y-96665885D01*
X135337715Y-96840134D01*
X135474622Y-97045029D01*
X135568925Y-97272697D01*
X135617000Y-97514387D01*
X135617000Y-97760813D01*
X135568925Y-98002503D01*
X135474622Y-98230171D01*
X135337715Y-98435066D01*
X135163466Y-98609315D01*
X134958571Y-98746222D01*
X134958570Y-98746223D01*
X134958569Y-98746223D01*
X134730903Y-98840525D01*
X134489214Y-98888600D01*
X134242786Y-98888600D01*
X134001097Y-98840525D01*
X133773431Y-98746223D01*
X133773430Y-98746223D01*
X133773429Y-98746222D01*
X133568534Y-98609315D01*
X133394285Y-98435066D01*
X133257378Y-98230171D01*
X133163075Y-98002503D01*
X133115000Y-97760813D01*
X133115000Y-97514387D01*
X133163075Y-97272697D01*
X133257378Y-97045029D01*
X133394285Y-96840134D01*
X133568534Y-96665885D01*
X133773429Y-96528978D01*
X134001097Y-96434675D01*
X134242786Y-96386600D01*
X134489214Y-96386600D01*
X134730903Y-96434675D01*
G37*
G36*
X135617000Y-95388600D02*
G01*
X133115000Y-95388600D01*
X133115000Y-92886600D01*
X135617000Y-92886600D01*
X135617000Y-95388600D01*
G37*
G36*
X168224203Y-92934675D02*
G01*
X168451871Y-93028978D01*
X168656766Y-93165885D01*
X168831015Y-93340134D01*
X168967922Y-93545029D01*
X169062225Y-93772697D01*
X169110300Y-94014387D01*
X169110300Y-94260813D01*
X169062225Y-94502503D01*
X168967922Y-94730171D01*
X168831015Y-94935066D01*
X168656766Y-95109315D01*
X168451871Y-95246222D01*
X168451870Y-95246223D01*
X168451869Y-95246223D01*
X168224203Y-95340525D01*
X167982514Y-95388600D01*
X167736086Y-95388600D01*
X167494397Y-95340525D01*
X167266731Y-95246223D01*
X167266730Y-95246223D01*
X167266729Y-95246222D01*
X167061834Y-95109315D01*
X166887585Y-94935066D01*
X166750678Y-94730171D01*
X166656375Y-94502503D01*
X166608300Y-94260813D01*
X166608300Y-94014387D01*
X166656375Y-93772697D01*
X166750678Y-93545029D01*
X166887585Y-93340134D01*
X167061834Y-93165885D01*
X167266729Y-93028978D01*
X167494397Y-92934675D01*
X167736086Y-92886600D01*
X167982514Y-92886600D01*
X168224203Y-92934675D01*
G37*
G36*
X132999406Y-88261859D02*
G01*
X133131528Y-88316586D01*
X133131530Y-88316587D01*
X133250438Y-88396039D01*
X133351561Y-88497162D01*
X133351562Y-88497164D01*
X133431014Y-88616072D01*
X133485741Y-88748194D01*
X133513640Y-88888454D01*
X133513640Y-89031466D01*
X133485741Y-89171726D01*
X133431014Y-89303848D01*
X133431013Y-89303850D01*
X133351561Y-89422758D01*
X133250438Y-89523881D01*
X133131530Y-89603333D01*
X133131529Y-89603334D01*
X133131528Y-89603334D01*
X132999406Y-89658061D01*
X132859146Y-89685960D01*
X132716134Y-89685960D01*
X132575874Y-89658061D01*
X132443752Y-89603334D01*
X132443751Y-89603334D01*
X132443750Y-89603333D01*
X132324842Y-89523881D01*
X132223719Y-89422758D01*
X132144267Y-89303850D01*
X132144266Y-89303848D01*
X132089539Y-89171726D01*
X132061640Y-89031466D01*
X132061640Y-88888454D01*
X132089539Y-88748194D01*
X132144266Y-88616072D01*
X132223718Y-88497164D01*
X132223719Y-88497162D01*
X132324842Y-88396039D01*
X132443750Y-88316587D01*
X132443752Y-88316586D01*
X132575874Y-88261859D01*
X132716134Y-88233960D01*
X132859146Y-88233960D01*
X132999406Y-88261859D01*
G37*
G36*
X134999406Y-88261859D02*
G01*
X135131528Y-88316586D01*
X135131530Y-88316587D01*
X135250438Y-88396039D01*
X135351561Y-88497162D01*
X135351562Y-88497164D01*
X135431014Y-88616072D01*
X135485741Y-88748194D01*
X135513640Y-88888454D01*
X135513640Y-89031466D01*
X135485741Y-89171726D01*
X135431014Y-89303848D01*
X135431013Y-89303850D01*
X135351561Y-89422758D01*
X135250438Y-89523881D01*
X135131530Y-89603333D01*
X135131529Y-89603334D01*
X135131528Y-89603334D01*
X134999406Y-89658061D01*
X134859146Y-89685960D01*
X134716134Y-89685960D01*
X134575874Y-89658061D01*
X134443752Y-89603334D01*
X134443751Y-89603334D01*
X134443750Y-89603333D01*
X134324842Y-89523881D01*
X134223719Y-89422758D01*
X134144267Y-89303850D01*
X134144266Y-89303848D01*
X134089539Y-89171726D01*
X134061640Y-89031466D01*
X134061640Y-88888454D01*
X134089539Y-88748194D01*
X134144266Y-88616072D01*
X134223718Y-88497164D01*
X134223719Y-88497162D01*
X134324842Y-88396039D01*
X134443750Y-88316587D01*
X134443752Y-88316586D01*
X134575874Y-88261859D01*
X134716134Y-88233960D01*
X134859146Y-88233960D01*
X134999406Y-88261859D01*
G37*
G36*
X134999406Y-86261859D02*
G01*
X135131528Y-86316586D01*
X135131530Y-86316587D01*
X135250438Y-86396039D01*
X135351561Y-86497162D01*
X135431013Y-86616070D01*
X135431014Y-86616072D01*
X135485741Y-86748194D01*
X135513640Y-86888454D01*
X135513640Y-87031466D01*
X135485741Y-87171726D01*
X135435776Y-87292351D01*
X135431013Y-87303850D01*
X135351561Y-87422758D01*
X135250438Y-87523881D01*
X135131530Y-87603333D01*
X135131529Y-87603334D01*
X135131528Y-87603334D01*
X134999406Y-87658061D01*
X134859146Y-87685960D01*
X134716134Y-87685960D01*
X134575874Y-87658061D01*
X134443752Y-87603334D01*
X134443751Y-87603334D01*
X134443750Y-87603333D01*
X134324842Y-87523881D01*
X134223719Y-87422758D01*
X134144267Y-87303850D01*
X134139504Y-87292351D01*
X134089539Y-87171726D01*
X134061640Y-87031466D01*
X134061640Y-86888454D01*
X134089539Y-86748194D01*
X134144266Y-86616072D01*
X134144267Y-86616070D01*
X134223719Y-86497162D01*
X134324842Y-86396039D01*
X134443750Y-86316587D01*
X134443752Y-86316586D01*
X134575874Y-86261859D01*
X134716134Y-86233960D01*
X134859146Y-86233960D01*
X134999406Y-86261859D01*
G37*
G36*
X132999406Y-86261859D02*
G01*
X133131528Y-86316586D01*
X133131530Y-86316587D01*
X133250438Y-86396039D01*
X133351561Y-86497162D01*
X133431013Y-86616070D01*
X133431014Y-86616072D01*
X133485741Y-86748194D01*
X133513640Y-86888454D01*
X133513640Y-87031466D01*
X133485741Y-87171726D01*
X133435776Y-87292351D01*
X133431013Y-87303850D01*
X133351561Y-87422758D01*
X133250438Y-87523881D01*
X133131530Y-87603333D01*
X133131529Y-87603334D01*
X133131528Y-87603334D01*
X132999406Y-87658061D01*
X132859146Y-87685960D01*
X132716134Y-87685960D01*
X132575874Y-87658061D01*
X132443752Y-87603334D01*
X132443751Y-87603334D01*
X132443750Y-87603333D01*
X132324842Y-87523881D01*
X132223719Y-87422758D01*
X132144267Y-87303850D01*
X132139504Y-87292351D01*
X132089539Y-87171726D01*
X132061640Y-87031466D01*
X132061640Y-86888454D01*
X132089539Y-86748194D01*
X132144266Y-86616072D01*
X132144267Y-86616070D01*
X132223719Y-86497162D01*
X132324842Y-86396039D01*
X132443750Y-86316587D01*
X132443752Y-86316586D01*
X132575874Y-86261859D01*
X132716134Y-86233960D01*
X132859146Y-86233960D01*
X132999406Y-86261859D01*
G37*
G36*
X142879194Y-84195716D02*
G01*
X142999626Y-84232249D01*
X143041987Y-84245099D01*
X143192007Y-84325286D01*
X143192010Y-84325288D01*
X143192011Y-84325289D01*
X143323512Y-84433208D01*
X143431431Y-84564708D01*
X143431433Y-84564712D01*
X143431434Y-84564713D01*
X143511621Y-84714733D01*
X143511622Y-84714736D01*
X143561004Y-84877525D01*
X143573500Y-85004400D01*
X143573500Y-86613240D01*
X143561004Y-86740115D01*
X143558553Y-86748194D01*
X143511621Y-86902907D01*
X143442905Y-87031466D01*
X143431431Y-87052932D01*
X143323512Y-87184432D01*
X143192012Y-87292351D01*
X143192008Y-87292353D01*
X143192007Y-87292354D01*
X143041987Y-87372541D01*
X143041984Y-87372542D01*
X142879195Y-87421924D01*
X142709900Y-87438598D01*
X142540606Y-87421924D01*
X142377817Y-87372542D01*
X142377814Y-87372541D01*
X142227794Y-87292354D01*
X142227793Y-87292353D01*
X142227789Y-87292351D01*
X142096289Y-87184432D01*
X141988370Y-87052932D01*
X141976896Y-87031466D01*
X141908180Y-86902907D01*
X141861248Y-86748194D01*
X141858797Y-86740115D01*
X141846301Y-86613240D01*
X141846300Y-85004401D01*
X141858796Y-84877526D01*
X141908178Y-84714737D01*
X141908179Y-84714733D01*
X141988366Y-84564713D01*
X141988370Y-84564708D01*
X142096288Y-84433208D01*
X142227788Y-84325289D01*
X142227792Y-84325287D01*
X142227793Y-84325286D01*
X142377813Y-84245099D01*
X142414533Y-84233960D01*
X142540605Y-84195716D01*
X142709900Y-84179042D01*
X142879194Y-84195716D01*
G37*
G36*
X153039194Y-84195716D02*
G01*
X153159626Y-84232249D01*
X153201987Y-84245099D01*
X153352007Y-84325286D01*
X153352010Y-84325288D01*
X153352011Y-84325289D01*
X153483512Y-84433208D01*
X153591431Y-84564708D01*
X153591433Y-84564712D01*
X153591434Y-84564713D01*
X153671621Y-84714733D01*
X153671622Y-84714736D01*
X153721004Y-84877525D01*
X153733500Y-85004400D01*
X153733500Y-86613240D01*
X153721004Y-86740115D01*
X153718553Y-86748194D01*
X153671621Y-86902907D01*
X153602905Y-87031466D01*
X153591431Y-87052932D01*
X153483512Y-87184432D01*
X153352012Y-87292351D01*
X153352008Y-87292353D01*
X153352007Y-87292354D01*
X153201987Y-87372541D01*
X153201984Y-87372542D01*
X153039195Y-87421924D01*
X152869900Y-87438598D01*
X152700606Y-87421924D01*
X152537817Y-87372542D01*
X152537814Y-87372541D01*
X152387794Y-87292354D01*
X152387793Y-87292353D01*
X152387789Y-87292351D01*
X152256289Y-87184432D01*
X152148370Y-87052932D01*
X152136896Y-87031466D01*
X152068180Y-86902907D01*
X152021248Y-86748194D01*
X152018797Y-86740115D01*
X152006301Y-86613240D01*
X152006300Y-85004401D01*
X152018796Y-84877526D01*
X152068178Y-84714737D01*
X152068179Y-84714733D01*
X152148366Y-84564713D01*
X152148370Y-84564708D01*
X152256288Y-84433208D01*
X152387788Y-84325289D01*
X152387792Y-84325287D01*
X152387793Y-84325286D01*
X152537813Y-84245099D01*
X152574533Y-84233960D01*
X152700605Y-84195716D01*
X152869900Y-84179042D01*
X153039194Y-84195716D01*
G37*
G36*
X140339194Y-84195716D02*
G01*
X140459626Y-84232249D01*
X140501987Y-84245099D01*
X140652007Y-84325286D01*
X140652010Y-84325288D01*
X140652011Y-84325289D01*
X140783512Y-84433208D01*
X140891431Y-84564708D01*
X140891433Y-84564712D01*
X140891434Y-84564713D01*
X140971621Y-84714733D01*
X140971622Y-84714736D01*
X141021004Y-84877525D01*
X141033500Y-85004400D01*
X141033500Y-86613240D01*
X141021004Y-86740115D01*
X141018553Y-86748194D01*
X140971621Y-86902907D01*
X140902905Y-87031466D01*
X140891431Y-87052932D01*
X140783512Y-87184432D01*
X140652012Y-87292351D01*
X140652008Y-87292353D01*
X140652007Y-87292354D01*
X140501987Y-87372541D01*
X140501984Y-87372542D01*
X140339195Y-87421924D01*
X140169900Y-87438598D01*
X140000606Y-87421924D01*
X139837817Y-87372542D01*
X139837814Y-87372541D01*
X139687794Y-87292354D01*
X139687793Y-87292353D01*
X139687789Y-87292351D01*
X139556289Y-87184432D01*
X139448370Y-87052932D01*
X139436896Y-87031466D01*
X139368180Y-86902907D01*
X139321248Y-86748194D01*
X139318797Y-86740115D01*
X139306301Y-86613240D01*
X139306300Y-85004401D01*
X139318796Y-84877526D01*
X139368178Y-84714737D01*
X139368179Y-84714733D01*
X139448366Y-84564713D01*
X139448370Y-84564708D01*
X139556288Y-84433208D01*
X139687788Y-84325289D01*
X139687792Y-84325287D01*
X139687793Y-84325286D01*
X139837813Y-84245099D01*
X139874533Y-84233960D01*
X140000605Y-84195716D01*
X140169900Y-84179042D01*
X140339194Y-84195716D01*
G37*
G36*
X145419194Y-84195716D02*
G01*
X145539626Y-84232249D01*
X145581987Y-84245099D01*
X145732007Y-84325286D01*
X145732010Y-84325288D01*
X145732011Y-84325289D01*
X145863512Y-84433208D01*
X145971431Y-84564708D01*
X145971433Y-84564712D01*
X145971434Y-84564713D01*
X146051621Y-84714733D01*
X146051622Y-84714736D01*
X146101004Y-84877525D01*
X146113500Y-85004400D01*
X146113500Y-86613240D01*
X146101004Y-86740115D01*
X146098553Y-86748194D01*
X146051621Y-86902907D01*
X145982905Y-87031466D01*
X145971431Y-87052932D01*
X145863512Y-87184432D01*
X145732012Y-87292351D01*
X145732008Y-87292353D01*
X145732007Y-87292354D01*
X145581987Y-87372541D01*
X145581984Y-87372542D01*
X145419195Y-87421924D01*
X145249900Y-87438598D01*
X145080606Y-87421924D01*
X144917817Y-87372542D01*
X144917814Y-87372541D01*
X144767794Y-87292354D01*
X144767793Y-87292353D01*
X144767789Y-87292351D01*
X144636289Y-87184432D01*
X144528370Y-87052932D01*
X144516896Y-87031466D01*
X144448180Y-86902907D01*
X144401248Y-86748194D01*
X144398797Y-86740115D01*
X144386301Y-86613240D01*
X144386300Y-85004401D01*
X144398796Y-84877526D01*
X144448178Y-84714737D01*
X144448179Y-84714733D01*
X144528366Y-84564713D01*
X144528370Y-84564708D01*
X144636288Y-84433208D01*
X144767788Y-84325289D01*
X144767792Y-84325287D01*
X144767793Y-84325286D01*
X144917813Y-84245099D01*
X144954533Y-84233960D01*
X145080605Y-84195716D01*
X145249900Y-84179042D01*
X145419194Y-84195716D01*
G37*
G36*
X147959194Y-84195716D02*
G01*
X148079626Y-84232249D01*
X148121987Y-84245099D01*
X148272007Y-84325286D01*
X148272010Y-84325288D01*
X148272011Y-84325289D01*
X148403512Y-84433208D01*
X148511431Y-84564708D01*
X148511433Y-84564712D01*
X148511434Y-84564713D01*
X148591621Y-84714733D01*
X148591622Y-84714736D01*
X148641004Y-84877525D01*
X148653500Y-85004400D01*
X148653500Y-86613240D01*
X148641004Y-86740115D01*
X148638553Y-86748194D01*
X148591621Y-86902907D01*
X148522905Y-87031466D01*
X148511431Y-87052932D01*
X148403512Y-87184432D01*
X148272012Y-87292351D01*
X148272008Y-87292353D01*
X148272007Y-87292354D01*
X148121987Y-87372541D01*
X148121984Y-87372542D01*
X147959195Y-87421924D01*
X147789900Y-87438598D01*
X147620606Y-87421924D01*
X147457817Y-87372542D01*
X147457814Y-87372541D01*
X147307794Y-87292354D01*
X147307793Y-87292353D01*
X147307789Y-87292351D01*
X147176289Y-87184432D01*
X147068370Y-87052932D01*
X147056896Y-87031466D01*
X146988180Y-86902907D01*
X146941248Y-86748194D01*
X146938797Y-86740115D01*
X146926301Y-86613240D01*
X146926300Y-85004401D01*
X146938796Y-84877526D01*
X146988178Y-84714737D01*
X146988179Y-84714733D01*
X147068366Y-84564713D01*
X147068370Y-84564708D01*
X147176288Y-84433208D01*
X147307788Y-84325289D01*
X147307792Y-84325287D01*
X147307793Y-84325286D01*
X147457813Y-84245099D01*
X147494533Y-84233960D01*
X147620605Y-84195716D01*
X147789900Y-84179042D01*
X147959194Y-84195716D01*
G37*
G36*
X150499194Y-84195716D02*
G01*
X150619626Y-84232249D01*
X150661987Y-84245099D01*
X150812007Y-84325286D01*
X150812010Y-84325288D01*
X150812011Y-84325289D01*
X150943512Y-84433208D01*
X151051431Y-84564708D01*
X151051433Y-84564712D01*
X151051434Y-84564713D01*
X151131621Y-84714733D01*
X151131622Y-84714736D01*
X151181004Y-84877525D01*
X151193500Y-85004400D01*
X151193500Y-86613240D01*
X151181004Y-86740115D01*
X151178553Y-86748194D01*
X151131621Y-86902907D01*
X151062905Y-87031466D01*
X151051431Y-87052932D01*
X150943512Y-87184432D01*
X150812012Y-87292351D01*
X150812008Y-87292353D01*
X150812007Y-87292354D01*
X150661987Y-87372541D01*
X150661984Y-87372542D01*
X150499195Y-87421924D01*
X150329900Y-87438598D01*
X150160606Y-87421924D01*
X149997817Y-87372542D01*
X149997814Y-87372541D01*
X149847794Y-87292354D01*
X149847793Y-87292353D01*
X149847789Y-87292351D01*
X149716289Y-87184432D01*
X149608370Y-87052932D01*
X149596896Y-87031466D01*
X149528180Y-86902907D01*
X149481248Y-86748194D01*
X149478797Y-86740115D01*
X149466301Y-86613240D01*
X149466300Y-85004401D01*
X149478796Y-84877526D01*
X149528178Y-84714737D01*
X149528179Y-84714733D01*
X149608366Y-84564713D01*
X149608370Y-84564708D01*
X149716288Y-84433208D01*
X149847788Y-84325289D01*
X149847792Y-84325287D01*
X149847793Y-84325286D01*
X149997813Y-84245099D01*
X150034533Y-84233960D01*
X150160605Y-84195716D01*
X150329900Y-84179042D01*
X150499194Y-84195716D01*
G37*
G36*
X158037914Y-84195716D02*
G01*
X158158346Y-84232249D01*
X158200707Y-84245099D01*
X158350727Y-84325286D01*
X158350730Y-84325288D01*
X158350731Y-84325289D01*
X158482232Y-84433208D01*
X158590151Y-84564708D01*
X158590153Y-84564712D01*
X158590154Y-84564713D01*
X158670341Y-84714733D01*
X158670342Y-84714736D01*
X158719724Y-84877525D01*
X158732220Y-85004400D01*
X158732220Y-86613240D01*
X158719724Y-86740115D01*
X158717273Y-86748194D01*
X158670341Y-86902907D01*
X158601625Y-87031466D01*
X158590151Y-87052932D01*
X158482232Y-87184432D01*
X158350732Y-87292351D01*
X158350728Y-87292353D01*
X158350727Y-87292354D01*
X158200707Y-87372541D01*
X158200704Y-87372542D01*
X158037915Y-87421924D01*
X157868620Y-87438598D01*
X157699326Y-87421924D01*
X157536537Y-87372542D01*
X157536534Y-87372541D01*
X157386514Y-87292354D01*
X157386513Y-87292353D01*
X157386509Y-87292351D01*
X157255009Y-87184432D01*
X157147090Y-87052932D01*
X157135616Y-87031466D01*
X157066900Y-86902907D01*
X157019968Y-86748194D01*
X157017517Y-86740115D01*
X157005021Y-86613240D01*
X157005020Y-85004401D01*
X157017516Y-84877526D01*
X157066898Y-84714737D01*
X157066899Y-84714733D01*
X157147086Y-84564713D01*
X157147090Y-84564708D01*
X157255008Y-84433208D01*
X157386508Y-84325289D01*
X157386512Y-84325287D01*
X157386513Y-84325286D01*
X157536533Y-84245099D01*
X157573253Y-84233960D01*
X157699325Y-84195716D01*
X157868620Y-84179042D01*
X158037914Y-84195716D01*
G37*
G36*
X170737914Y-84195716D02*
G01*
X170858346Y-84232249D01*
X170900707Y-84245099D01*
X171050727Y-84325286D01*
X171050730Y-84325288D01*
X171050731Y-84325289D01*
X171182232Y-84433208D01*
X171290151Y-84564708D01*
X171290153Y-84564712D01*
X171290154Y-84564713D01*
X171370341Y-84714733D01*
X171370342Y-84714736D01*
X171419724Y-84877525D01*
X171432220Y-85004400D01*
X171432220Y-86613240D01*
X171419724Y-86740115D01*
X171417273Y-86748194D01*
X171370341Y-86902907D01*
X171301625Y-87031466D01*
X171290151Y-87052932D01*
X171182232Y-87184432D01*
X171050732Y-87292351D01*
X171050728Y-87292353D01*
X171050727Y-87292354D01*
X170900707Y-87372541D01*
X170900704Y-87372542D01*
X170737915Y-87421924D01*
X170568620Y-87438598D01*
X170399326Y-87421924D01*
X170236537Y-87372542D01*
X170236534Y-87372541D01*
X170086514Y-87292354D01*
X170086513Y-87292353D01*
X170086509Y-87292351D01*
X169955009Y-87184432D01*
X169847090Y-87052932D01*
X169835616Y-87031466D01*
X169766900Y-86902907D01*
X169719968Y-86748194D01*
X169717517Y-86740115D01*
X169705021Y-86613240D01*
X169705020Y-85004401D01*
X169717516Y-84877526D01*
X169766898Y-84714737D01*
X169766899Y-84714733D01*
X169847086Y-84564713D01*
X169847090Y-84564708D01*
X169955008Y-84433208D01*
X170086508Y-84325289D01*
X170086512Y-84325287D01*
X170086513Y-84325286D01*
X170236533Y-84245099D01*
X170273253Y-84233960D01*
X170399325Y-84195716D01*
X170568620Y-84179042D01*
X170737914Y-84195716D01*
G37*
G36*
X168197914Y-84195716D02*
G01*
X168318346Y-84232249D01*
X168360707Y-84245099D01*
X168510727Y-84325286D01*
X168510730Y-84325288D01*
X168510731Y-84325289D01*
X168642232Y-84433208D01*
X168750151Y-84564708D01*
X168750153Y-84564712D01*
X168750154Y-84564713D01*
X168830341Y-84714733D01*
X168830342Y-84714736D01*
X168879724Y-84877525D01*
X168892220Y-85004400D01*
X168892220Y-86613240D01*
X168879724Y-86740115D01*
X168877273Y-86748194D01*
X168830341Y-86902907D01*
X168761625Y-87031466D01*
X168750151Y-87052932D01*
X168642232Y-87184432D01*
X168510732Y-87292351D01*
X168510728Y-87292353D01*
X168510727Y-87292354D01*
X168360707Y-87372541D01*
X168360704Y-87372542D01*
X168197915Y-87421924D01*
X168028620Y-87438598D01*
X167859326Y-87421924D01*
X167696537Y-87372542D01*
X167696534Y-87372541D01*
X167546514Y-87292354D01*
X167546513Y-87292353D01*
X167546509Y-87292351D01*
X167415009Y-87184432D01*
X167307090Y-87052932D01*
X167295616Y-87031466D01*
X167226900Y-86902907D01*
X167179968Y-86748194D01*
X167177517Y-86740115D01*
X167165021Y-86613240D01*
X167165020Y-85004401D01*
X167177516Y-84877526D01*
X167226898Y-84714737D01*
X167226899Y-84714733D01*
X167307086Y-84564713D01*
X167307090Y-84564708D01*
X167415008Y-84433208D01*
X167546508Y-84325289D01*
X167546512Y-84325287D01*
X167546513Y-84325286D01*
X167696533Y-84245099D01*
X167733253Y-84233960D01*
X167859325Y-84195716D01*
X168028620Y-84179042D01*
X168197914Y-84195716D01*
G37*
G36*
X165657914Y-84195716D02*
G01*
X165778346Y-84232249D01*
X165820707Y-84245099D01*
X165970727Y-84325286D01*
X165970730Y-84325288D01*
X165970731Y-84325289D01*
X166102232Y-84433208D01*
X166210151Y-84564708D01*
X166210153Y-84564712D01*
X166210154Y-84564713D01*
X166290341Y-84714733D01*
X166290342Y-84714736D01*
X166339724Y-84877525D01*
X166352220Y-85004400D01*
X166352220Y-86613240D01*
X166339724Y-86740115D01*
X166337273Y-86748194D01*
X166290341Y-86902907D01*
X166221625Y-87031466D01*
X166210151Y-87052932D01*
X166102232Y-87184432D01*
X165970732Y-87292351D01*
X165970728Y-87292353D01*
X165970727Y-87292354D01*
X165820707Y-87372541D01*
X165820704Y-87372542D01*
X165657915Y-87421924D01*
X165488620Y-87438598D01*
X165319326Y-87421924D01*
X165156537Y-87372542D01*
X165156534Y-87372541D01*
X165006514Y-87292354D01*
X165006513Y-87292353D01*
X165006509Y-87292351D01*
X164875009Y-87184432D01*
X164767090Y-87052932D01*
X164755616Y-87031466D01*
X164686900Y-86902907D01*
X164639968Y-86748194D01*
X164637517Y-86740115D01*
X164625021Y-86613240D01*
X164625020Y-85004401D01*
X164637516Y-84877526D01*
X164686898Y-84714737D01*
X164686899Y-84714733D01*
X164767086Y-84564713D01*
X164767090Y-84564708D01*
X164875008Y-84433208D01*
X165006508Y-84325289D01*
X165006512Y-84325287D01*
X165006513Y-84325286D01*
X165156533Y-84245099D01*
X165193253Y-84233960D01*
X165319325Y-84195716D01*
X165488620Y-84179042D01*
X165657914Y-84195716D01*
G37*
G36*
X163117914Y-84195716D02*
G01*
X163238346Y-84232249D01*
X163280707Y-84245099D01*
X163430727Y-84325286D01*
X163430730Y-84325288D01*
X163430731Y-84325289D01*
X163562232Y-84433208D01*
X163670151Y-84564708D01*
X163670153Y-84564712D01*
X163670154Y-84564713D01*
X163750341Y-84714733D01*
X163750342Y-84714736D01*
X163799724Y-84877525D01*
X163812220Y-85004400D01*
X163812220Y-86613240D01*
X163799724Y-86740115D01*
X163797273Y-86748194D01*
X163750341Y-86902907D01*
X163681625Y-87031466D01*
X163670151Y-87052932D01*
X163562232Y-87184432D01*
X163430732Y-87292351D01*
X163430728Y-87292353D01*
X163430727Y-87292354D01*
X163280707Y-87372541D01*
X163280704Y-87372542D01*
X163117915Y-87421924D01*
X162948620Y-87438598D01*
X162779326Y-87421924D01*
X162616537Y-87372542D01*
X162616534Y-87372541D01*
X162466514Y-87292354D01*
X162466513Y-87292353D01*
X162466509Y-87292351D01*
X162335009Y-87184432D01*
X162227090Y-87052932D01*
X162215616Y-87031466D01*
X162146900Y-86902907D01*
X162099968Y-86748194D01*
X162097517Y-86740115D01*
X162085021Y-86613240D01*
X162085020Y-85004401D01*
X162097516Y-84877526D01*
X162146898Y-84714737D01*
X162146899Y-84714733D01*
X162227086Y-84564713D01*
X162227090Y-84564708D01*
X162335008Y-84433208D01*
X162466508Y-84325289D01*
X162466512Y-84325287D01*
X162466513Y-84325286D01*
X162616533Y-84245099D01*
X162653253Y-84233960D01*
X162779325Y-84195716D01*
X162948620Y-84179042D01*
X163117914Y-84195716D01*
G37*
G36*
X160577914Y-84195716D02*
G01*
X160698346Y-84232249D01*
X160740707Y-84245099D01*
X160890727Y-84325286D01*
X160890730Y-84325288D01*
X160890731Y-84325289D01*
X161022232Y-84433208D01*
X161130151Y-84564708D01*
X161130153Y-84564712D01*
X161130154Y-84564713D01*
X161210341Y-84714733D01*
X161210342Y-84714736D01*
X161259724Y-84877525D01*
X161272220Y-85004400D01*
X161272220Y-86613240D01*
X161259724Y-86740115D01*
X161257273Y-86748194D01*
X161210341Y-86902907D01*
X161141625Y-87031466D01*
X161130151Y-87052932D01*
X161022232Y-87184432D01*
X160890732Y-87292351D01*
X160890728Y-87292353D01*
X160890727Y-87292354D01*
X160740707Y-87372541D01*
X160740704Y-87372542D01*
X160577915Y-87421924D01*
X160408620Y-87438598D01*
X160239326Y-87421924D01*
X160076537Y-87372542D01*
X160076534Y-87372541D01*
X159926514Y-87292354D01*
X159926513Y-87292353D01*
X159926509Y-87292351D01*
X159795009Y-87184432D01*
X159687090Y-87052932D01*
X159675616Y-87031466D01*
X159606900Y-86902907D01*
X159559968Y-86748194D01*
X159557517Y-86740115D01*
X159545021Y-86613240D01*
X159545020Y-85004401D01*
X159557516Y-84877526D01*
X159606898Y-84714737D01*
X159606899Y-84714733D01*
X159687086Y-84564713D01*
X159687090Y-84564708D01*
X159795008Y-84433208D01*
X159926508Y-84325289D01*
X159926512Y-84325287D01*
X159926513Y-84325286D01*
X160076533Y-84245099D01*
X160113253Y-84233960D01*
X160239325Y-84195716D01*
X160408620Y-84179042D01*
X160577914Y-84195716D01*
G37*
G36*
X132999406Y-84261859D02*
G01*
X133131528Y-84316586D01*
X133131530Y-84316587D01*
X133250438Y-84396039D01*
X133351561Y-84497162D01*
X133396697Y-84564713D01*
X133431014Y-84616072D01*
X133485741Y-84748194D01*
X133513640Y-84888454D01*
X133513640Y-85031466D01*
X133485741Y-85171726D01*
X133431014Y-85303848D01*
X133431013Y-85303850D01*
X133351561Y-85422758D01*
X133250438Y-85523881D01*
X133131530Y-85603333D01*
X133131529Y-85603334D01*
X133131528Y-85603334D01*
X132999406Y-85658061D01*
X132859146Y-85685960D01*
X132716134Y-85685960D01*
X132575874Y-85658061D01*
X132443752Y-85603334D01*
X132443751Y-85603334D01*
X132443750Y-85603333D01*
X132324842Y-85523881D01*
X132223719Y-85422758D01*
X132144267Y-85303850D01*
X132144266Y-85303848D01*
X132089539Y-85171726D01*
X132061640Y-85031466D01*
X132061640Y-84888454D01*
X132089539Y-84748194D01*
X132144266Y-84616072D01*
X132178583Y-84564713D01*
X132223719Y-84497162D01*
X132324842Y-84396039D01*
X132443750Y-84316587D01*
X132443752Y-84316586D01*
X132575874Y-84261859D01*
X132716134Y-84233960D01*
X132859146Y-84233960D01*
X132999406Y-84261859D01*
G37*
G36*
X134999406Y-84261859D02*
G01*
X135131528Y-84316586D01*
X135131530Y-84316587D01*
X135250438Y-84396039D01*
X135351561Y-84497162D01*
X135396697Y-84564713D01*
X135431014Y-84616072D01*
X135485741Y-84748194D01*
X135513640Y-84888454D01*
X135513640Y-85031466D01*
X135485741Y-85171726D01*
X135431014Y-85303848D01*
X135431013Y-85303850D01*
X135351561Y-85422758D01*
X135250438Y-85523881D01*
X135131530Y-85603333D01*
X135131529Y-85603334D01*
X135131528Y-85603334D01*
X134999406Y-85658061D01*
X134859146Y-85685960D01*
X134716134Y-85685960D01*
X134575874Y-85658061D01*
X134443752Y-85603334D01*
X134443751Y-85603334D01*
X134443750Y-85603333D01*
X134324842Y-85523881D01*
X134223719Y-85422758D01*
X134144267Y-85303850D01*
X134144266Y-85303848D01*
X134089539Y-85171726D01*
X134061640Y-85031466D01*
X134061640Y-84888454D01*
X134089539Y-84748194D01*
X134144266Y-84616072D01*
X134178583Y-84564713D01*
X134223719Y-84497162D01*
X134324842Y-84396039D01*
X134443750Y-84316587D01*
X134443752Y-84316586D01*
X134575874Y-84261859D01*
X134716134Y-84233960D01*
X134859146Y-84233960D01*
X134999406Y-84261859D01*
G37*
G36*
X132999406Y-82261859D02*
G01*
X133131528Y-82316586D01*
X133131530Y-82316587D01*
X133250438Y-82396039D01*
X133351561Y-82497162D01*
X133431013Y-82616070D01*
X133431014Y-82616072D01*
X133485741Y-82748194D01*
X133513640Y-82888454D01*
X133513640Y-83031466D01*
X133485741Y-83171726D01*
X133431014Y-83303848D01*
X133431013Y-83303850D01*
X133351561Y-83422758D01*
X133250438Y-83523881D01*
X133131530Y-83603333D01*
X133131529Y-83603334D01*
X133131528Y-83603334D01*
X132999406Y-83658061D01*
X132859146Y-83685960D01*
X132716134Y-83685960D01*
X132575874Y-83658061D01*
X132443752Y-83603334D01*
X132443751Y-83603334D01*
X132443750Y-83603333D01*
X132324842Y-83523881D01*
X132223719Y-83422758D01*
X132144267Y-83303850D01*
X132144266Y-83303848D01*
X132089539Y-83171726D01*
X132061640Y-83031466D01*
X132061640Y-82888454D01*
X132089539Y-82748194D01*
X132144266Y-82616072D01*
X132144267Y-82616070D01*
X132223719Y-82497162D01*
X132324842Y-82396039D01*
X132443750Y-82316587D01*
X132443752Y-82316586D01*
X132575874Y-82261859D01*
X132716134Y-82233960D01*
X132859146Y-82233960D01*
X132999406Y-82261859D01*
G37*
G36*
X134999406Y-82261859D02*
G01*
X135131528Y-82316586D01*
X135131530Y-82316587D01*
X135250438Y-82396039D01*
X135351561Y-82497162D01*
X135431013Y-82616070D01*
X135431014Y-82616072D01*
X135485741Y-82748194D01*
X135513640Y-82888454D01*
X135513640Y-83031466D01*
X135485741Y-83171726D01*
X135431014Y-83303848D01*
X135431013Y-83303850D01*
X135351561Y-83422758D01*
X135250438Y-83523881D01*
X135131530Y-83603333D01*
X135131529Y-83603334D01*
X135131528Y-83603334D01*
X134999406Y-83658061D01*
X134859146Y-83685960D01*
X134716134Y-83685960D01*
X134575874Y-83658061D01*
X134443752Y-83603334D01*
X134443751Y-83603334D01*
X134443750Y-83603333D01*
X134324842Y-83523881D01*
X134223719Y-83422758D01*
X134144267Y-83303850D01*
X134144266Y-83303848D01*
X134089539Y-83171726D01*
X134061640Y-83031466D01*
X134061640Y-82888454D01*
X134089539Y-82748194D01*
X134144266Y-82616072D01*
X134144267Y-82616070D01*
X134223719Y-82497162D01*
X134324842Y-82396039D01*
X134443750Y-82316587D01*
X134443752Y-82316586D01*
X134575874Y-82261859D01*
X134716134Y-82233960D01*
X134859146Y-82233960D01*
X134999406Y-82261859D01*
G37*
G36*
X160577914Y-79484016D02*
G01*
X160698346Y-79520549D01*
X160740707Y-79533399D01*
X160890727Y-79613586D01*
X160890730Y-79613588D01*
X160890731Y-79613589D01*
X161022232Y-79721508D01*
X161130151Y-79853008D01*
X161130153Y-79853012D01*
X161130154Y-79853013D01*
X161210341Y-80003033D01*
X161210342Y-80003036D01*
X161259724Y-80165825D01*
X161272220Y-80292700D01*
X161272220Y-81901540D01*
X161259724Y-82028415D01*
X161210342Y-82191204D01*
X161210341Y-82191207D01*
X161143324Y-82316587D01*
X161130151Y-82341232D01*
X161022232Y-82472732D01*
X160890732Y-82580651D01*
X160890728Y-82580653D01*
X160890727Y-82580654D01*
X160740707Y-82660841D01*
X160740704Y-82660842D01*
X160577915Y-82710224D01*
X160408620Y-82726898D01*
X160239326Y-82710224D01*
X160076537Y-82660842D01*
X160076534Y-82660841D01*
X159926514Y-82580654D01*
X159926513Y-82580653D01*
X159926509Y-82580651D01*
X159795009Y-82472732D01*
X159687090Y-82341232D01*
X159673917Y-82316587D01*
X159606900Y-82191207D01*
X159606899Y-82191204D01*
X159557517Y-82028415D01*
X159545021Y-81901540D01*
X159545020Y-80292701D01*
X159557516Y-80165826D01*
X159606898Y-80003037D01*
X159606899Y-80003033D01*
X159687086Y-79853013D01*
X159687090Y-79853008D01*
X159795008Y-79721508D01*
X159926508Y-79613589D01*
X159926512Y-79613587D01*
X159926513Y-79613586D01*
X160076533Y-79533399D01*
X160076536Y-79533398D01*
X160239325Y-79484016D01*
X160408620Y-79467342D01*
X160577914Y-79484016D01*
G37*
G36*
X158037914Y-79484016D02*
G01*
X158158346Y-79520549D01*
X158200707Y-79533399D01*
X158350727Y-79613586D01*
X158350730Y-79613588D01*
X158350731Y-79613589D01*
X158482232Y-79721508D01*
X158590151Y-79853008D01*
X158590153Y-79853012D01*
X158590154Y-79853013D01*
X158670341Y-80003033D01*
X158670342Y-80003036D01*
X158719724Y-80165825D01*
X158732220Y-80292700D01*
X158732220Y-81901540D01*
X158719724Y-82028415D01*
X158670342Y-82191204D01*
X158670341Y-82191207D01*
X158603324Y-82316587D01*
X158590151Y-82341232D01*
X158482232Y-82472732D01*
X158350732Y-82580651D01*
X158350728Y-82580653D01*
X158350727Y-82580654D01*
X158200707Y-82660841D01*
X158200704Y-82660842D01*
X158037915Y-82710224D01*
X157868620Y-82726898D01*
X157699326Y-82710224D01*
X157536537Y-82660842D01*
X157536534Y-82660841D01*
X157386514Y-82580654D01*
X157386513Y-82580653D01*
X157386509Y-82580651D01*
X157255009Y-82472732D01*
X157147090Y-82341232D01*
X157133917Y-82316587D01*
X157066900Y-82191207D01*
X157066899Y-82191204D01*
X157017517Y-82028415D01*
X157005021Y-81901540D01*
X157005020Y-80292701D01*
X157017516Y-80165826D01*
X157066898Y-80003037D01*
X157066899Y-80003033D01*
X157147086Y-79853013D01*
X157147090Y-79853008D01*
X157255008Y-79721508D01*
X157386508Y-79613589D01*
X157386512Y-79613587D01*
X157386513Y-79613586D01*
X157536533Y-79533399D01*
X157536536Y-79533398D01*
X157699325Y-79484016D01*
X157868620Y-79467342D01*
X158037914Y-79484016D01*
G37*
G36*
X145419194Y-79484016D02*
G01*
X145539626Y-79520549D01*
X145581987Y-79533399D01*
X145732007Y-79613586D01*
X145732010Y-79613588D01*
X145732011Y-79613589D01*
X145863512Y-79721508D01*
X145971431Y-79853008D01*
X145971433Y-79853012D01*
X145971434Y-79853013D01*
X146051621Y-80003033D01*
X146051622Y-80003036D01*
X146101004Y-80165825D01*
X146113500Y-80292700D01*
X146113500Y-81901540D01*
X146101004Y-82028415D01*
X146051622Y-82191204D01*
X146051621Y-82191207D01*
X145984604Y-82316587D01*
X145971431Y-82341232D01*
X145863512Y-82472732D01*
X145732012Y-82580651D01*
X145732008Y-82580653D01*
X145732007Y-82580654D01*
X145581987Y-82660841D01*
X145581984Y-82660842D01*
X145419195Y-82710224D01*
X145249900Y-82726898D01*
X145080606Y-82710224D01*
X144917817Y-82660842D01*
X144917814Y-82660841D01*
X144767794Y-82580654D01*
X144767793Y-82580653D01*
X144767789Y-82580651D01*
X144636289Y-82472732D01*
X144528370Y-82341232D01*
X144515197Y-82316587D01*
X144448180Y-82191207D01*
X144448179Y-82191204D01*
X144398797Y-82028415D01*
X144386301Y-81901540D01*
X144386300Y-80292701D01*
X144398796Y-80165826D01*
X144448178Y-80003037D01*
X144448179Y-80003033D01*
X144528366Y-79853013D01*
X144528370Y-79853008D01*
X144636288Y-79721508D01*
X144767788Y-79613589D01*
X144767792Y-79613587D01*
X144767793Y-79613586D01*
X144917813Y-79533399D01*
X144917816Y-79533398D01*
X145080605Y-79484016D01*
X145249900Y-79467342D01*
X145419194Y-79484016D01*
G37*
G36*
X142879194Y-79484016D02*
G01*
X142999626Y-79520549D01*
X143041987Y-79533399D01*
X143192007Y-79613586D01*
X143192010Y-79613588D01*
X143192011Y-79613589D01*
X143323512Y-79721508D01*
X143431431Y-79853008D01*
X143431433Y-79853012D01*
X143431434Y-79853013D01*
X143511621Y-80003033D01*
X143511622Y-80003036D01*
X143561004Y-80165825D01*
X143573500Y-80292700D01*
X143573500Y-81901540D01*
X143561004Y-82028415D01*
X143511622Y-82191204D01*
X143511621Y-82191207D01*
X143444604Y-82316587D01*
X143431431Y-82341232D01*
X143323512Y-82472732D01*
X143192012Y-82580651D01*
X143192008Y-82580653D01*
X143192007Y-82580654D01*
X143041987Y-82660841D01*
X143041984Y-82660842D01*
X142879195Y-82710224D01*
X142709900Y-82726898D01*
X142540606Y-82710224D01*
X142377817Y-82660842D01*
X142377814Y-82660841D01*
X142227794Y-82580654D01*
X142227793Y-82580653D01*
X142227789Y-82580651D01*
X142096289Y-82472732D01*
X141988370Y-82341232D01*
X141975197Y-82316587D01*
X141908180Y-82191207D01*
X141908179Y-82191204D01*
X141858797Y-82028415D01*
X141846301Y-81901540D01*
X141846300Y-80292701D01*
X141858796Y-80165826D01*
X141908178Y-80003037D01*
X141908179Y-80003033D01*
X141988366Y-79853013D01*
X141988370Y-79853008D01*
X142096288Y-79721508D01*
X142227788Y-79613589D01*
X142227792Y-79613587D01*
X142227793Y-79613586D01*
X142377813Y-79533399D01*
X142377816Y-79533398D01*
X142540605Y-79484016D01*
X142709900Y-79467342D01*
X142879194Y-79484016D01*
G37*
G36*
X140339194Y-79484016D02*
G01*
X140459626Y-79520549D01*
X140501987Y-79533399D01*
X140652007Y-79613586D01*
X140652010Y-79613588D01*
X140652011Y-79613589D01*
X140783512Y-79721508D01*
X140891431Y-79853008D01*
X140891433Y-79853012D01*
X140891434Y-79853013D01*
X140971621Y-80003033D01*
X140971622Y-80003036D01*
X141021004Y-80165825D01*
X141033500Y-80292700D01*
X141033500Y-81901540D01*
X141021004Y-82028415D01*
X140971622Y-82191204D01*
X140971621Y-82191207D01*
X140904604Y-82316587D01*
X140891431Y-82341232D01*
X140783512Y-82472732D01*
X140652012Y-82580651D01*
X140652008Y-82580653D01*
X140652007Y-82580654D01*
X140501987Y-82660841D01*
X140501984Y-82660842D01*
X140339195Y-82710224D01*
X140169900Y-82726898D01*
X140000606Y-82710224D01*
X139837817Y-82660842D01*
X139837814Y-82660841D01*
X139687794Y-82580654D01*
X139687793Y-82580653D01*
X139687789Y-82580651D01*
X139556289Y-82472732D01*
X139448370Y-82341232D01*
X139435197Y-82316587D01*
X139368180Y-82191207D01*
X139368179Y-82191204D01*
X139318797Y-82028415D01*
X139306301Y-81901540D01*
X139306300Y-80292701D01*
X139318796Y-80165826D01*
X139368178Y-80003037D01*
X139368179Y-80003033D01*
X139448366Y-79853013D01*
X139448370Y-79853008D01*
X139556288Y-79721508D01*
X139687788Y-79613589D01*
X139687792Y-79613587D01*
X139687793Y-79613586D01*
X139837813Y-79533399D01*
X139837816Y-79533398D01*
X140000605Y-79484016D01*
X140169900Y-79467342D01*
X140339194Y-79484016D01*
G37*
G36*
X163117914Y-79484016D02*
G01*
X163238346Y-79520549D01*
X163280707Y-79533399D01*
X163430727Y-79613586D01*
X163430730Y-79613588D01*
X163430731Y-79613589D01*
X163562232Y-79721508D01*
X163670151Y-79853008D01*
X163670153Y-79853012D01*
X163670154Y-79853013D01*
X163750341Y-80003033D01*
X163750342Y-80003036D01*
X163799724Y-80165825D01*
X163812220Y-80292700D01*
X163812220Y-81901540D01*
X163799724Y-82028415D01*
X163750342Y-82191204D01*
X163750341Y-82191207D01*
X163683324Y-82316587D01*
X163670151Y-82341232D01*
X163562232Y-82472732D01*
X163430732Y-82580651D01*
X163430728Y-82580653D01*
X163430727Y-82580654D01*
X163280707Y-82660841D01*
X163280704Y-82660842D01*
X163117915Y-82710224D01*
X162948620Y-82726898D01*
X162779326Y-82710224D01*
X162616537Y-82660842D01*
X162616534Y-82660841D01*
X162466514Y-82580654D01*
X162466513Y-82580653D01*
X162466509Y-82580651D01*
X162335009Y-82472732D01*
X162227090Y-82341232D01*
X162213917Y-82316587D01*
X162146900Y-82191207D01*
X162146899Y-82191204D01*
X162097517Y-82028415D01*
X162085021Y-81901540D01*
X162085020Y-80292701D01*
X162097516Y-80165826D01*
X162146898Y-80003037D01*
X162146899Y-80003033D01*
X162227086Y-79853013D01*
X162227090Y-79853008D01*
X162335008Y-79721508D01*
X162466508Y-79613589D01*
X162466512Y-79613587D01*
X162466513Y-79613586D01*
X162616533Y-79533399D01*
X162616536Y-79533398D01*
X162779325Y-79484016D01*
X162948620Y-79467342D01*
X163117914Y-79484016D01*
G37*
G36*
X153039194Y-79484016D02*
G01*
X153159626Y-79520549D01*
X153201987Y-79533399D01*
X153352007Y-79613586D01*
X153352010Y-79613588D01*
X153352011Y-79613589D01*
X153483512Y-79721508D01*
X153591431Y-79853008D01*
X153591433Y-79853012D01*
X153591434Y-79853013D01*
X153671621Y-80003033D01*
X153671622Y-80003036D01*
X153721004Y-80165825D01*
X153733500Y-80292700D01*
X153733500Y-81901540D01*
X153721004Y-82028415D01*
X153671622Y-82191204D01*
X153671621Y-82191207D01*
X153604604Y-82316587D01*
X153591431Y-82341232D01*
X153483512Y-82472732D01*
X153352012Y-82580651D01*
X153352008Y-82580653D01*
X153352007Y-82580654D01*
X153201987Y-82660841D01*
X153201984Y-82660842D01*
X153039195Y-82710224D01*
X152869900Y-82726898D01*
X152700606Y-82710224D01*
X152537817Y-82660842D01*
X152537814Y-82660841D01*
X152387794Y-82580654D01*
X152387793Y-82580653D01*
X152387789Y-82580651D01*
X152256289Y-82472732D01*
X152148370Y-82341232D01*
X152135197Y-82316587D01*
X152068180Y-82191207D01*
X152068179Y-82191204D01*
X152018797Y-82028415D01*
X152006301Y-81901540D01*
X152006300Y-80292701D01*
X152018796Y-80165826D01*
X152068178Y-80003037D01*
X152068179Y-80003033D01*
X152148366Y-79853013D01*
X152148370Y-79853008D01*
X152256288Y-79721508D01*
X152387788Y-79613589D01*
X152387792Y-79613587D01*
X152387793Y-79613586D01*
X152537813Y-79533399D01*
X152537816Y-79533398D01*
X152700605Y-79484016D01*
X152869900Y-79467342D01*
X153039194Y-79484016D01*
G37*
G36*
X168197914Y-79484016D02*
G01*
X168318346Y-79520549D01*
X168360707Y-79533399D01*
X168510727Y-79613586D01*
X168510730Y-79613588D01*
X168510731Y-79613589D01*
X168642232Y-79721508D01*
X168750151Y-79853008D01*
X168750153Y-79853012D01*
X168750154Y-79853013D01*
X168830341Y-80003033D01*
X168830342Y-80003036D01*
X168879724Y-80165825D01*
X168892220Y-80292700D01*
X168892220Y-81901540D01*
X168879724Y-82028415D01*
X168830342Y-82191204D01*
X168830341Y-82191207D01*
X168763324Y-82316587D01*
X168750151Y-82341232D01*
X168642232Y-82472732D01*
X168510732Y-82580651D01*
X168510728Y-82580653D01*
X168510727Y-82580654D01*
X168360707Y-82660841D01*
X168360704Y-82660842D01*
X168197915Y-82710224D01*
X168028620Y-82726898D01*
X167859326Y-82710224D01*
X167696537Y-82660842D01*
X167696534Y-82660841D01*
X167546514Y-82580654D01*
X167546513Y-82580653D01*
X167546509Y-82580651D01*
X167415009Y-82472732D01*
X167307090Y-82341232D01*
X167293917Y-82316587D01*
X167226900Y-82191207D01*
X167226899Y-82191204D01*
X167177517Y-82028415D01*
X167165021Y-81901540D01*
X167165020Y-80292701D01*
X167177516Y-80165826D01*
X167226898Y-80003037D01*
X167226899Y-80003033D01*
X167307086Y-79853013D01*
X167307090Y-79853008D01*
X167415008Y-79721508D01*
X167546508Y-79613589D01*
X167546512Y-79613587D01*
X167546513Y-79613586D01*
X167696533Y-79533399D01*
X167696536Y-79533398D01*
X167859325Y-79484016D01*
X168028620Y-79467342D01*
X168197914Y-79484016D01*
G37*
G36*
X170737914Y-79484016D02*
G01*
X170858346Y-79520549D01*
X170900707Y-79533399D01*
X171050727Y-79613586D01*
X171050730Y-79613588D01*
X171050731Y-79613589D01*
X171182232Y-79721508D01*
X171290151Y-79853008D01*
X171290153Y-79853012D01*
X171290154Y-79853013D01*
X171370341Y-80003033D01*
X171370342Y-80003036D01*
X171419724Y-80165825D01*
X171432220Y-80292700D01*
X171432220Y-81901540D01*
X171419724Y-82028415D01*
X171370342Y-82191204D01*
X171370341Y-82191207D01*
X171303324Y-82316587D01*
X171290151Y-82341232D01*
X171182232Y-82472732D01*
X171050732Y-82580651D01*
X171050728Y-82580653D01*
X171050727Y-82580654D01*
X170900707Y-82660841D01*
X170900704Y-82660842D01*
X170737915Y-82710224D01*
X170568620Y-82726898D01*
X170399326Y-82710224D01*
X170236537Y-82660842D01*
X170236534Y-82660841D01*
X170086514Y-82580654D01*
X170086513Y-82580653D01*
X170086509Y-82580651D01*
X169955009Y-82472732D01*
X169847090Y-82341232D01*
X169833917Y-82316587D01*
X169766900Y-82191207D01*
X169766899Y-82191204D01*
X169717517Y-82028415D01*
X169705021Y-81901540D01*
X169705020Y-80292701D01*
X169717516Y-80165826D01*
X169766898Y-80003037D01*
X169766899Y-80003033D01*
X169847086Y-79853013D01*
X169847090Y-79853008D01*
X169955008Y-79721508D01*
X170086508Y-79613589D01*
X170086512Y-79613587D01*
X170086513Y-79613586D01*
X170236533Y-79533399D01*
X170236536Y-79533398D01*
X170399325Y-79484016D01*
X170568620Y-79467342D01*
X170737914Y-79484016D01*
G37*
G36*
X147959194Y-79484016D02*
G01*
X148079626Y-79520549D01*
X148121987Y-79533399D01*
X148272007Y-79613586D01*
X148272010Y-79613588D01*
X148272011Y-79613589D01*
X148403512Y-79721508D01*
X148511431Y-79853008D01*
X148511433Y-79853012D01*
X148511434Y-79853013D01*
X148591621Y-80003033D01*
X148591622Y-80003036D01*
X148641004Y-80165825D01*
X148653500Y-80292700D01*
X148653500Y-81901540D01*
X148641004Y-82028415D01*
X148591622Y-82191204D01*
X148591621Y-82191207D01*
X148524604Y-82316587D01*
X148511431Y-82341232D01*
X148403512Y-82472732D01*
X148272012Y-82580651D01*
X148272008Y-82580653D01*
X148272007Y-82580654D01*
X148121987Y-82660841D01*
X148121984Y-82660842D01*
X147959195Y-82710224D01*
X147789900Y-82726898D01*
X147620606Y-82710224D01*
X147457817Y-82660842D01*
X147457814Y-82660841D01*
X147307794Y-82580654D01*
X147307793Y-82580653D01*
X147307789Y-82580651D01*
X147176289Y-82472732D01*
X147068370Y-82341232D01*
X147055197Y-82316587D01*
X146988180Y-82191207D01*
X146988179Y-82191204D01*
X146938797Y-82028415D01*
X146926301Y-81901540D01*
X146926300Y-80292701D01*
X146938796Y-80165826D01*
X146988178Y-80003037D01*
X146988179Y-80003033D01*
X147068366Y-79853013D01*
X147068370Y-79853008D01*
X147176288Y-79721508D01*
X147307788Y-79613589D01*
X147307792Y-79613587D01*
X147307793Y-79613586D01*
X147457813Y-79533399D01*
X147457816Y-79533398D01*
X147620605Y-79484016D01*
X147789900Y-79467342D01*
X147959194Y-79484016D01*
G37*
G36*
X150499194Y-79484016D02*
G01*
X150619626Y-79520549D01*
X150661987Y-79533399D01*
X150812007Y-79613586D01*
X150812010Y-79613588D01*
X150812011Y-79613589D01*
X150943512Y-79721508D01*
X151051431Y-79853008D01*
X151051433Y-79853012D01*
X151051434Y-79853013D01*
X151131621Y-80003033D01*
X151131622Y-80003036D01*
X151181004Y-80165825D01*
X151193500Y-80292700D01*
X151193500Y-81901540D01*
X151181004Y-82028415D01*
X151131622Y-82191204D01*
X151131621Y-82191207D01*
X151064604Y-82316587D01*
X151051431Y-82341232D01*
X150943512Y-82472732D01*
X150812012Y-82580651D01*
X150812008Y-82580653D01*
X150812007Y-82580654D01*
X150661987Y-82660841D01*
X150661984Y-82660842D01*
X150499195Y-82710224D01*
X150329900Y-82726898D01*
X150160606Y-82710224D01*
X149997817Y-82660842D01*
X149997814Y-82660841D01*
X149847794Y-82580654D01*
X149847793Y-82580653D01*
X149847789Y-82580651D01*
X149716289Y-82472732D01*
X149608370Y-82341232D01*
X149595197Y-82316587D01*
X149528180Y-82191207D01*
X149528179Y-82191204D01*
X149478797Y-82028415D01*
X149466301Y-81901540D01*
X149466300Y-80292701D01*
X149478796Y-80165826D01*
X149528178Y-80003037D01*
X149528179Y-80003033D01*
X149608366Y-79853013D01*
X149608370Y-79853008D01*
X149716288Y-79721508D01*
X149847788Y-79613589D01*
X149847792Y-79613587D01*
X149847793Y-79613586D01*
X149997813Y-79533399D01*
X149997816Y-79533398D01*
X150160605Y-79484016D01*
X150329900Y-79467342D01*
X150499194Y-79484016D01*
G37*
G36*
X165657914Y-79484016D02*
G01*
X165778346Y-79520549D01*
X165820707Y-79533399D01*
X165970727Y-79613586D01*
X165970730Y-79613588D01*
X165970731Y-79613589D01*
X166102232Y-79721508D01*
X166210151Y-79853008D01*
X166210153Y-79853012D01*
X166210154Y-79853013D01*
X166290341Y-80003033D01*
X166290342Y-80003036D01*
X166339724Y-80165825D01*
X166352220Y-80292700D01*
X166352220Y-81901540D01*
X166339724Y-82028415D01*
X166290342Y-82191204D01*
X166290341Y-82191207D01*
X166223324Y-82316587D01*
X166210151Y-82341232D01*
X166102232Y-82472732D01*
X165970732Y-82580651D01*
X165970728Y-82580653D01*
X165970727Y-82580654D01*
X165820707Y-82660841D01*
X165820704Y-82660842D01*
X165657915Y-82710224D01*
X165488620Y-82726898D01*
X165319326Y-82710224D01*
X165156537Y-82660842D01*
X165156534Y-82660841D01*
X165006514Y-82580654D01*
X165006513Y-82580653D01*
X165006509Y-82580651D01*
X164875009Y-82472732D01*
X164767090Y-82341232D01*
X164753917Y-82316587D01*
X164686900Y-82191207D01*
X164686899Y-82191204D01*
X164637517Y-82028415D01*
X164625021Y-81901540D01*
X164625020Y-80292701D01*
X164637516Y-80165826D01*
X164686898Y-80003037D01*
X164686899Y-80003033D01*
X164767086Y-79853013D01*
X164767090Y-79853008D01*
X164875008Y-79721508D01*
X165006508Y-79613589D01*
X165006512Y-79613587D01*
X165006513Y-79613586D01*
X165156533Y-79533399D01*
X165156536Y-79533398D01*
X165319325Y-79484016D01*
X165488620Y-79467342D01*
X165657914Y-79484016D01*
G37*
G36*
X132999406Y-80261859D02*
G01*
X133131528Y-80316586D01*
X133131530Y-80316587D01*
X133250438Y-80396039D01*
X133351561Y-80497162D01*
X133351562Y-80497164D01*
X133431014Y-80616072D01*
X133485741Y-80748194D01*
X133513640Y-80888454D01*
X133513640Y-81031466D01*
X133485741Y-81171726D01*
X133431014Y-81303848D01*
X133431013Y-81303850D01*
X133351561Y-81422758D01*
X133250438Y-81523881D01*
X133131530Y-81603333D01*
X133131529Y-81603334D01*
X133131528Y-81603334D01*
X132999406Y-81658061D01*
X132859146Y-81685960D01*
X132716134Y-81685960D01*
X132575874Y-81658061D01*
X132443752Y-81603334D01*
X132443751Y-81603334D01*
X132443750Y-81603333D01*
X132324842Y-81523881D01*
X132223719Y-81422758D01*
X132144267Y-81303850D01*
X132144266Y-81303848D01*
X132089539Y-81171726D01*
X132061640Y-81031466D01*
X132061640Y-80888454D01*
X132089539Y-80748194D01*
X132144266Y-80616072D01*
X132223718Y-80497164D01*
X132223719Y-80497162D01*
X132324842Y-80396039D01*
X132443750Y-80316587D01*
X132443752Y-80316586D01*
X132575874Y-80261859D01*
X132716134Y-80233960D01*
X132859146Y-80233960D01*
X132999406Y-80261859D01*
G37*
G36*
X135513640Y-81685960D02*
G01*
X134061640Y-81685960D01*
X134061640Y-80233960D01*
X135513640Y-80233960D01*
X135513640Y-81685960D01*
G37*
M02*
