M48
; DRILL file {KiCad (5.1.5-0-10_14)} date 2020 July 06, Monday 12:55:32
; FORMAT={3:3/ absolute / metric / keep zeros}
; #@! TF.CreationDate,2020-07-06T12:55:32+02:00
; #@! TF.GenerationSoftware,Kicad,Pcbnew,(5.1.5-0-10_14)
; #@! TF.FileFunction,Plated,1,2,PTH
FMAT,2
METRIC
T1C0.400
T2C0.798
T3C0.800
T4C1.016
T5C1.200
%
G90
G05
T1
X130155Y080929
X130348Y087914
X137617Y112916
X137681Y105016
X138087Y102146
X138227Y086324
X140858Y100035
X142862Y108077
X142939Y103696
X148890Y108885
X148920Y111455
X149533Y098545
X150007Y088843
X150231Y106218
X150301Y090494
X150635Y098468
X151948Y092034
X152069Y097332
X152540Y094259
X152551Y077645
X154437Y080005
X154667Y098347
X155695Y089663
X155758Y083287
X155931Y097907
X156657Y094844
X157678Y096596
X158115Y103099
X158159Y100040
X158661Y098641
X160409Y089136
X161773Y109817
X163792Y106426
X163919Y104686
X164173Y101473
X164531Y090736
X165044Y113010
X166919Y089068
T2
X132566Y104074
X132566Y106075
X132566Y108072
X132566Y110073
X169659Y104074
X169659Y106075
X169659Y108072
X169659Y110073
T3
X132788Y080960
X132788Y082960
X132788Y084960
X132788Y086960
X132788Y088960
X134788Y080960
X134788Y082960
X134788Y084960
X134788Y086960
X134788Y088960
T4
X140084Y114885
X140084Y117425
X140170Y081097
X142710Y081097
X145250Y081097
X147790Y081097
X150330Y081097
X152870Y081097
X140170Y085809
X142710Y085809
X145250Y085809
X147790Y085809
X150330Y085809
X152870Y085809
X157869Y085809
X160409Y085809
X162949Y085809
X165489Y085809
X168029Y085809
X170569Y085809
X136589Y114885
X136589Y117425
X157869Y081097
X160409Y081097
X162949Y081097
X165489Y081097
X168029Y081097
X170569Y081097
T5
X134366Y094138
X134366Y097638
X167859Y094138
X167859Y097638
T0
M30
