G04 #@! TF.GenerationSoftware,KiCad,Pcbnew,(5.1.5-0-10_14)*
G04 #@! TF.CreationDate,2020-07-06T12:55:30+02:00*
G04 #@! TF.ProjectId,smartcitizen-adc-8ch,736d6172-7463-4697-9469-7a656e2d6164,rev?*
G04 #@! TF.SameCoordinates,Original*
G04 #@! TF.FileFunction,Legend,Top*
G04 #@! TF.FilePolarity,Positive*
%FSLAX46Y46*%
G04 Gerber Fmt 4.6, Leading zero omitted, Abs format (unit mm)*
G04 Created by KiCad (PCBNEW (5.1.5-0-10_14)) date 2020-07-06 12:55:30*
%MOMM*%
%LPD*%
G04 APERTURE LIST*
%ADD10C,0.120000*%
%ADD11C,0.100000*%
%ADD12C,0.127000*%
%ADD13C,0.152400*%
%ADD14C,0.066040*%
%ADD15C,0.150000*%
G04 APERTURE END LIST*
D10*
X137908095Y-98053333D02*
X138289047Y-98053333D01*
X137831904Y-98281904D02*
X138098571Y-97481904D01*
X138365238Y-98281904D01*
X138631904Y-98281904D02*
X138631904Y-97481904D01*
X138822380Y-97481904D01*
X138936666Y-97520000D01*
X139012857Y-97596190D01*
X139050952Y-97672380D01*
X139089047Y-97824761D01*
X139089047Y-97939047D01*
X139050952Y-98091428D01*
X139012857Y-98167619D01*
X138936666Y-98243809D01*
X138822380Y-98281904D01*
X138631904Y-98281904D01*
X139431904Y-98281904D02*
X139431904Y-97481904D01*
X139622380Y-97481904D01*
X139736666Y-97520000D01*
X139812857Y-97596190D01*
X139850952Y-97672380D01*
X139889047Y-97824761D01*
X139889047Y-97939047D01*
X139850952Y-98091428D01*
X139812857Y-98167619D01*
X139736666Y-98243809D01*
X139622380Y-98281904D01*
X139431904Y-98281904D01*
X140689047Y-98281904D02*
X140422380Y-97900952D01*
X140231904Y-98281904D02*
X140231904Y-97481904D01*
X140536666Y-97481904D01*
X140612857Y-97520000D01*
X140650952Y-97558095D01*
X140689047Y-97634285D01*
X140689047Y-97748571D01*
X140650952Y-97824761D01*
X140612857Y-97862857D01*
X140536666Y-97900952D01*
X140231904Y-97900952D01*
X140993809Y-97558095D02*
X141031904Y-97520000D01*
X141108095Y-97481904D01*
X141298571Y-97481904D01*
X141374761Y-97520000D01*
X141412857Y-97558095D01*
X141450952Y-97634285D01*
X141450952Y-97710476D01*
X141412857Y-97824761D01*
X140955714Y-98281904D01*
X141450952Y-98281904D01*
X141793809Y-98205714D02*
X141831904Y-98243809D01*
X141793809Y-98281904D01*
X141755714Y-98243809D01*
X141793809Y-98205714D01*
X141793809Y-98281904D01*
X141793809Y-97786666D02*
X141831904Y-97824761D01*
X141793809Y-97862857D01*
X141755714Y-97824761D01*
X141793809Y-97786666D01*
X141793809Y-97862857D01*
X138079523Y-99373333D02*
X138460476Y-99373333D01*
X138003333Y-99601904D02*
X138270000Y-98801904D01*
X138536666Y-99601904D01*
X139146190Y-99068571D02*
X139146190Y-99601904D01*
X138955714Y-98763809D02*
X138765238Y-99335238D01*
X139260476Y-99335238D01*
X139565238Y-99297142D02*
X140174761Y-99297142D01*
X140517619Y-99373333D02*
X140898571Y-99373333D01*
X140441428Y-99601904D02*
X140708095Y-98801904D01*
X140974761Y-99601904D01*
X141165238Y-98801904D02*
X141698571Y-98801904D01*
X141355714Y-99601904D01*
X155118095Y-98053333D02*
X155499047Y-98053333D01*
X155041904Y-98281904D02*
X155308571Y-97481904D01*
X155575238Y-98281904D01*
X155841904Y-98281904D02*
X155841904Y-97481904D01*
X156032380Y-97481904D01*
X156146666Y-97520000D01*
X156222857Y-97596190D01*
X156260952Y-97672380D01*
X156299047Y-97824761D01*
X156299047Y-97939047D01*
X156260952Y-98091428D01*
X156222857Y-98167619D01*
X156146666Y-98243809D01*
X156032380Y-98281904D01*
X155841904Y-98281904D01*
X156641904Y-98281904D02*
X156641904Y-97481904D01*
X156832380Y-97481904D01*
X156946666Y-97520000D01*
X157022857Y-97596190D01*
X157060952Y-97672380D01*
X157099047Y-97824761D01*
X157099047Y-97939047D01*
X157060952Y-98091428D01*
X157022857Y-98167619D01*
X156946666Y-98243809D01*
X156832380Y-98281904D01*
X156641904Y-98281904D01*
X157899047Y-98281904D02*
X157632380Y-97900952D01*
X157441904Y-98281904D02*
X157441904Y-97481904D01*
X157746666Y-97481904D01*
X157822857Y-97520000D01*
X157860952Y-97558095D01*
X157899047Y-97634285D01*
X157899047Y-97748571D01*
X157860952Y-97824761D01*
X157822857Y-97862857D01*
X157746666Y-97900952D01*
X157441904Y-97900952D01*
X158660952Y-98281904D02*
X158203809Y-98281904D01*
X158432380Y-98281904D02*
X158432380Y-97481904D01*
X158356190Y-97596190D01*
X158280000Y-97672380D01*
X158203809Y-97710476D01*
X159003809Y-98205714D02*
X159041904Y-98243809D01*
X159003809Y-98281904D01*
X158965714Y-98243809D01*
X159003809Y-98205714D01*
X159003809Y-98281904D01*
X159003809Y-97786666D02*
X159041904Y-97824761D01*
X159003809Y-97862857D01*
X158965714Y-97824761D01*
X159003809Y-97786666D01*
X159003809Y-97862857D01*
X155289523Y-99373333D02*
X155670476Y-99373333D01*
X155213333Y-99601904D02*
X155480000Y-98801904D01*
X155746666Y-99601904D01*
X156165714Y-98801904D02*
X156241904Y-98801904D01*
X156318095Y-98840000D01*
X156356190Y-98878095D01*
X156394285Y-98954285D01*
X156432380Y-99106666D01*
X156432380Y-99297142D01*
X156394285Y-99449523D01*
X156356190Y-99525714D01*
X156318095Y-99563809D01*
X156241904Y-99601904D01*
X156165714Y-99601904D01*
X156089523Y-99563809D01*
X156051428Y-99525714D01*
X156013333Y-99449523D01*
X155975238Y-99297142D01*
X155975238Y-99106666D01*
X156013333Y-98954285D01*
X156051428Y-98878095D01*
X156089523Y-98840000D01*
X156165714Y-98801904D01*
X156775238Y-99297142D02*
X157384761Y-99297142D01*
X157727619Y-99373333D02*
X158108571Y-99373333D01*
X157651428Y-99601904D02*
X157918095Y-98801904D01*
X158184761Y-99601904D01*
X158375238Y-98801904D02*
X158870476Y-98801904D01*
X158603809Y-99106666D01*
X158718095Y-99106666D01*
X158794285Y-99144761D01*
X158832380Y-99182857D01*
X158870476Y-99259047D01*
X158870476Y-99449523D01*
X158832380Y-99525714D01*
X158794285Y-99563809D01*
X158718095Y-99601904D01*
X158489523Y-99601904D01*
X158413333Y-99563809D01*
X158375238Y-99525714D01*
D11*
X129794000Y-85725000D02*
X131445000Y-85725000D01*
X129159000Y-85090000D02*
X129159000Y-82677000D01*
X129159000Y-85090000D02*
X129794000Y-85725000D01*
X129794000Y-86233000D02*
X131445000Y-86233000D01*
X129159000Y-86868000D02*
X129159000Y-89154000D01*
X129159000Y-86868000D02*
X129794000Y-86233000D01*
X127958904Y-84930333D02*
X127958904Y-84863666D01*
X127997000Y-84797000D01*
X128035095Y-84763666D01*
X128111285Y-84730333D01*
X128263666Y-84697000D01*
X128454142Y-84697000D01*
X128606523Y-84730333D01*
X128682714Y-84763666D01*
X128720809Y-84797000D01*
X128758904Y-84863666D01*
X128758904Y-84930333D01*
X128720809Y-84997000D01*
X128682714Y-85030333D01*
X128606523Y-85063666D01*
X128454142Y-85097000D01*
X128263666Y-85097000D01*
X128111285Y-85063666D01*
X128035095Y-85030333D01*
X127997000Y-84997000D01*
X127958904Y-84930333D01*
X128758904Y-84463666D02*
X128225571Y-84097000D01*
X128225571Y-84463666D02*
X128758904Y-84097000D01*
X128225571Y-83530333D02*
X128758904Y-83530333D01*
X127920809Y-83697000D02*
X128492238Y-83863666D01*
X128492238Y-83430333D01*
X128301761Y-83063666D02*
X128263666Y-83130333D01*
X128225571Y-83163666D01*
X128149380Y-83197000D01*
X128111285Y-83197000D01*
X128035095Y-83163666D01*
X127997000Y-83130333D01*
X127958904Y-83063666D01*
X127958904Y-82930333D01*
X127997000Y-82863666D01*
X128035095Y-82830333D01*
X128111285Y-82797000D01*
X128149380Y-82797000D01*
X128225571Y-82830333D01*
X128263666Y-82863666D01*
X128301761Y-82930333D01*
X128301761Y-83063666D01*
X128339857Y-83130333D01*
X128377952Y-83163666D01*
X128454142Y-83197000D01*
X128606523Y-83197000D01*
X128682714Y-83163666D01*
X128720809Y-83130333D01*
X128758904Y-83063666D01*
X128758904Y-82930333D01*
X128720809Y-82863666D01*
X128682714Y-82830333D01*
X128606523Y-82797000D01*
X128454142Y-82797000D01*
X128377952Y-82830333D01*
X128339857Y-82863666D01*
X128301761Y-82930333D01*
X128085904Y-88867333D02*
X128085904Y-88800666D01*
X128124000Y-88734000D01*
X128162095Y-88700666D01*
X128238285Y-88667333D01*
X128390666Y-88634000D01*
X128581142Y-88634000D01*
X128733523Y-88667333D01*
X128809714Y-88700666D01*
X128847809Y-88734000D01*
X128885904Y-88800666D01*
X128885904Y-88867333D01*
X128847809Y-88934000D01*
X128809714Y-88967333D01*
X128733523Y-89000666D01*
X128581142Y-89034000D01*
X128390666Y-89034000D01*
X128238285Y-89000666D01*
X128162095Y-88967333D01*
X128124000Y-88934000D01*
X128085904Y-88867333D01*
X128885904Y-88400666D02*
X128352571Y-88034000D01*
X128352571Y-88400666D02*
X128885904Y-88034000D01*
X128352571Y-87467333D02*
X128885904Y-87467333D01*
X128047809Y-87634000D02*
X128619238Y-87800666D01*
X128619238Y-87367333D01*
X128885904Y-87067333D02*
X128885904Y-86934000D01*
X128847809Y-86867333D01*
X128809714Y-86834000D01*
X128695428Y-86767333D01*
X128543047Y-86734000D01*
X128238285Y-86734000D01*
X128162095Y-86767333D01*
X128124000Y-86800666D01*
X128085904Y-86867333D01*
X128085904Y-87000666D01*
X128124000Y-87067333D01*
X128162095Y-87100666D01*
X128238285Y-87134000D01*
X128428761Y-87134000D01*
X128504952Y-87100666D01*
X128543047Y-87067333D01*
X128581142Y-87000666D01*
X128581142Y-86867333D01*
X128543047Y-86800666D01*
X128504952Y-86767333D01*
X128428761Y-86734000D01*
X145541904Y-99932857D02*
X145541904Y-99856666D01*
X145580000Y-99780476D01*
X145618095Y-99742380D01*
X145694285Y-99704285D01*
X145846666Y-99666190D01*
X146037142Y-99666190D01*
X146189523Y-99704285D01*
X146265714Y-99742380D01*
X146303809Y-99780476D01*
X146341904Y-99856666D01*
X146341904Y-99932857D01*
X146303809Y-100009047D01*
X146265714Y-100047142D01*
X146189523Y-100085238D01*
X146037142Y-100123333D01*
X145846666Y-100123333D01*
X145694285Y-100085238D01*
X145618095Y-100047142D01*
X145580000Y-100009047D01*
X145541904Y-99932857D01*
X146341904Y-99399523D02*
X145808571Y-98980476D01*
X145808571Y-99399523D02*
X146341904Y-98980476D01*
X145808571Y-98332857D02*
X146341904Y-98332857D01*
X145503809Y-98523333D02*
X146075238Y-98713809D01*
X146075238Y-98218571D01*
X145922857Y-97647142D02*
X145960952Y-97532857D01*
X145999047Y-97494761D01*
X146075238Y-97456666D01*
X146189523Y-97456666D01*
X146265714Y-97494761D01*
X146303809Y-97532857D01*
X146341904Y-97609047D01*
X146341904Y-97913809D01*
X145541904Y-97913809D01*
X145541904Y-97647142D01*
X145580000Y-97570952D01*
X145618095Y-97532857D01*
X145694285Y-97494761D01*
X145770476Y-97494761D01*
X145846666Y-97532857D01*
X145884761Y-97570952D01*
X145922857Y-97647142D01*
X145922857Y-97913809D01*
X162781904Y-99655714D02*
X162781904Y-99579523D01*
X162820000Y-99503333D01*
X162858095Y-99465238D01*
X162934285Y-99427142D01*
X163086666Y-99389047D01*
X163277142Y-99389047D01*
X163429523Y-99427142D01*
X163505714Y-99465238D01*
X163543809Y-99503333D01*
X163581904Y-99579523D01*
X163581904Y-99655714D01*
X163543809Y-99731904D01*
X163505714Y-99770000D01*
X163429523Y-99808095D01*
X163277142Y-99846190D01*
X163086666Y-99846190D01*
X162934285Y-99808095D01*
X162858095Y-99770000D01*
X162820000Y-99731904D01*
X162781904Y-99655714D01*
X163581904Y-99122380D02*
X163048571Y-98703333D01*
X163048571Y-99122380D02*
X163581904Y-98703333D01*
X163048571Y-98055714D02*
X163581904Y-98055714D01*
X162743809Y-98246190D02*
X163315238Y-98436666D01*
X163315238Y-97941428D01*
X163353333Y-97674761D02*
X163353333Y-97293809D01*
X163581904Y-97750952D02*
X162781904Y-97484285D01*
X163581904Y-97217619D01*
X154051000Y-76454000D02*
X154051000Y-78105000D01*
X153416000Y-75819000D02*
X154051000Y-76454000D01*
X153416000Y-75819000D02*
X141986000Y-75819000D01*
X156591000Y-76454000D02*
X156591000Y-78105000D01*
X157226000Y-75819000D02*
X156591000Y-76454000D01*
X157226000Y-75819000D02*
X168656000Y-75819000D01*
X142144666Y-75291904D02*
X142144666Y-74491904D01*
X142311333Y-74491904D01*
X142411333Y-74530000D01*
X142478000Y-74606190D01*
X142511333Y-74682380D01*
X142544666Y-74834761D01*
X142544666Y-74949047D01*
X142511333Y-75101428D01*
X142478000Y-75177619D01*
X142411333Y-75253809D01*
X142311333Y-75291904D01*
X142144666Y-75291904D01*
X142844666Y-74872857D02*
X143078000Y-74872857D01*
X143178000Y-75291904D02*
X142844666Y-75291904D01*
X142844666Y-74491904D01*
X143178000Y-74491904D01*
X143711333Y-74872857D02*
X143478000Y-74872857D01*
X143478000Y-75291904D02*
X143478000Y-74491904D01*
X143811333Y-74491904D01*
X144044666Y-75063333D02*
X144378000Y-75063333D01*
X143978000Y-75291904D02*
X144211333Y-74491904D01*
X144444666Y-75291904D01*
X144678000Y-74491904D02*
X144678000Y-75139523D01*
X144711333Y-75215714D01*
X144744666Y-75253809D01*
X144811333Y-75291904D01*
X144944666Y-75291904D01*
X145011333Y-75253809D01*
X145044666Y-75215714D01*
X145078000Y-75139523D01*
X145078000Y-74491904D01*
X145744666Y-75291904D02*
X145411333Y-75291904D01*
X145411333Y-74491904D01*
X145878000Y-74491904D02*
X146278000Y-74491904D01*
X146078000Y-75291904D02*
X146078000Y-74491904D01*
X147011333Y-75063333D02*
X147344666Y-75063333D01*
X146944666Y-75291904D02*
X147178000Y-74491904D01*
X147411333Y-75291904D01*
X147644666Y-75291904D02*
X147644666Y-74491904D01*
X147811333Y-74491904D01*
X147911333Y-74530000D01*
X147978000Y-74606190D01*
X148011333Y-74682380D01*
X148044666Y-74834761D01*
X148044666Y-74949047D01*
X148011333Y-75101428D01*
X147978000Y-75177619D01*
X147911333Y-75253809D01*
X147811333Y-75291904D01*
X147644666Y-75291904D01*
X148344666Y-75291904D02*
X148344666Y-74491904D01*
X148511333Y-74491904D01*
X148611333Y-74530000D01*
X148678000Y-74606190D01*
X148711333Y-74682380D01*
X148744666Y-74834761D01*
X148744666Y-74949047D01*
X148711333Y-75101428D01*
X148678000Y-75177619D01*
X148611333Y-75253809D01*
X148511333Y-75291904D01*
X148344666Y-75291904D01*
X149444666Y-75291904D02*
X149211333Y-74910952D01*
X149044666Y-75291904D02*
X149044666Y-74491904D01*
X149311333Y-74491904D01*
X149378000Y-74530000D01*
X149411333Y-74568095D01*
X149444666Y-74644285D01*
X149444666Y-74758571D01*
X149411333Y-74834761D01*
X149378000Y-74872857D01*
X149311333Y-74910952D01*
X149044666Y-74910952D01*
X149711333Y-74568095D02*
X149744666Y-74530000D01*
X149811333Y-74491904D01*
X149978000Y-74491904D01*
X150044666Y-74530000D01*
X150078000Y-74568095D01*
X150111333Y-74644285D01*
X150111333Y-74720476D01*
X150078000Y-74834761D01*
X149678000Y-75291904D01*
X150111333Y-75291904D01*
X150411333Y-75215714D02*
X150444666Y-75253809D01*
X150411333Y-75291904D01*
X150378000Y-75253809D01*
X150411333Y-75215714D01*
X150411333Y-75291904D01*
X150411333Y-74796666D02*
X150444666Y-74834761D01*
X150411333Y-74872857D01*
X150378000Y-74834761D01*
X150411333Y-74796666D01*
X150411333Y-74872857D01*
X151411333Y-74491904D02*
X151478000Y-74491904D01*
X151544666Y-74530000D01*
X151578000Y-74568095D01*
X151611333Y-74644285D01*
X151644666Y-74796666D01*
X151644666Y-74987142D01*
X151611333Y-75139523D01*
X151578000Y-75215714D01*
X151544666Y-75253809D01*
X151478000Y-75291904D01*
X151411333Y-75291904D01*
X151344666Y-75253809D01*
X151311333Y-75215714D01*
X151278000Y-75139523D01*
X151244666Y-74987142D01*
X151244666Y-74796666D01*
X151278000Y-74644285D01*
X151311333Y-74568095D01*
X151344666Y-74530000D01*
X151411333Y-74491904D01*
X151878000Y-75291904D02*
X152244666Y-74758571D01*
X151878000Y-74758571D02*
X152244666Y-75291904D01*
X152811333Y-74758571D02*
X152811333Y-75291904D01*
X152644666Y-74453809D02*
X152478000Y-75025238D01*
X152911333Y-75025238D01*
X153211333Y-75291904D02*
X153344666Y-75291904D01*
X153411333Y-75253809D01*
X153444666Y-75215714D01*
X153511333Y-75101428D01*
X153544666Y-74949047D01*
X153544666Y-74644285D01*
X153511333Y-74568095D01*
X153478000Y-74530000D01*
X153411333Y-74491904D01*
X153278000Y-74491904D01*
X153211333Y-74530000D01*
X153178000Y-74568095D01*
X153144666Y-74644285D01*
X153144666Y-74834761D01*
X153178000Y-74910952D01*
X153211333Y-74949047D01*
X153278000Y-74987142D01*
X153411333Y-74987142D01*
X153478000Y-74949047D01*
X153511333Y-74910952D01*
X153544666Y-74834761D01*
X157257666Y-75291904D02*
X157257666Y-74491904D01*
X157424333Y-74491904D01*
X157524333Y-74530000D01*
X157591000Y-74606190D01*
X157624333Y-74682380D01*
X157657666Y-74834761D01*
X157657666Y-74949047D01*
X157624333Y-75101428D01*
X157591000Y-75177619D01*
X157524333Y-75253809D01*
X157424333Y-75291904D01*
X157257666Y-75291904D01*
X157957666Y-74872857D02*
X158191000Y-74872857D01*
X158291000Y-75291904D02*
X157957666Y-75291904D01*
X157957666Y-74491904D01*
X158291000Y-74491904D01*
X158824333Y-74872857D02*
X158591000Y-74872857D01*
X158591000Y-75291904D02*
X158591000Y-74491904D01*
X158924333Y-74491904D01*
X159157666Y-75063333D02*
X159491000Y-75063333D01*
X159091000Y-75291904D02*
X159324333Y-74491904D01*
X159557666Y-75291904D01*
X159791000Y-74491904D02*
X159791000Y-75139523D01*
X159824333Y-75215714D01*
X159857666Y-75253809D01*
X159924333Y-75291904D01*
X160057666Y-75291904D01*
X160124333Y-75253809D01*
X160157666Y-75215714D01*
X160191000Y-75139523D01*
X160191000Y-74491904D01*
X160857666Y-75291904D02*
X160524333Y-75291904D01*
X160524333Y-74491904D01*
X160991000Y-74491904D02*
X161391000Y-74491904D01*
X161191000Y-75291904D02*
X161191000Y-74491904D01*
X162124333Y-75063333D02*
X162457666Y-75063333D01*
X162057666Y-75291904D02*
X162291000Y-74491904D01*
X162524333Y-75291904D01*
X162757666Y-75291904D02*
X162757666Y-74491904D01*
X162924333Y-74491904D01*
X163024333Y-74530000D01*
X163091000Y-74606190D01*
X163124333Y-74682380D01*
X163157666Y-74834761D01*
X163157666Y-74949047D01*
X163124333Y-75101428D01*
X163091000Y-75177619D01*
X163024333Y-75253809D01*
X162924333Y-75291904D01*
X162757666Y-75291904D01*
X163457666Y-75291904D02*
X163457666Y-74491904D01*
X163624333Y-74491904D01*
X163724333Y-74530000D01*
X163791000Y-74606190D01*
X163824333Y-74682380D01*
X163857666Y-74834761D01*
X163857666Y-74949047D01*
X163824333Y-75101428D01*
X163791000Y-75177619D01*
X163724333Y-75253809D01*
X163624333Y-75291904D01*
X163457666Y-75291904D01*
X164557666Y-75291904D02*
X164324333Y-74910952D01*
X164157666Y-75291904D02*
X164157666Y-74491904D01*
X164424333Y-74491904D01*
X164491000Y-74530000D01*
X164524333Y-74568095D01*
X164557666Y-74644285D01*
X164557666Y-74758571D01*
X164524333Y-74834761D01*
X164491000Y-74872857D01*
X164424333Y-74910952D01*
X164157666Y-74910952D01*
X165224333Y-75291904D02*
X164824333Y-75291904D01*
X165024333Y-75291904D02*
X165024333Y-74491904D01*
X164957666Y-74606190D01*
X164891000Y-74682380D01*
X164824333Y-74720476D01*
X165524333Y-75215714D02*
X165557666Y-75253809D01*
X165524333Y-75291904D01*
X165491000Y-75253809D01*
X165524333Y-75215714D01*
X165524333Y-75291904D01*
X165524333Y-74796666D02*
X165557666Y-74834761D01*
X165524333Y-74872857D01*
X165491000Y-74834761D01*
X165524333Y-74796666D01*
X165524333Y-74872857D01*
X166524333Y-74491904D02*
X166591000Y-74491904D01*
X166657666Y-74530000D01*
X166691000Y-74568095D01*
X166724333Y-74644285D01*
X166757666Y-74796666D01*
X166757666Y-74987142D01*
X166724333Y-75139523D01*
X166691000Y-75215714D01*
X166657666Y-75253809D01*
X166591000Y-75291904D01*
X166524333Y-75291904D01*
X166457666Y-75253809D01*
X166424333Y-75215714D01*
X166391000Y-75139523D01*
X166357666Y-74987142D01*
X166357666Y-74796666D01*
X166391000Y-74644285D01*
X166424333Y-74568095D01*
X166457666Y-74530000D01*
X166524333Y-74491904D01*
X166991000Y-75291904D02*
X167357666Y-74758571D01*
X166991000Y-74758571D02*
X167357666Y-75291904D01*
X167924333Y-74758571D02*
X167924333Y-75291904D01*
X167757666Y-74453809D02*
X167591000Y-75025238D01*
X168024333Y-75025238D01*
X168391000Y-74834761D02*
X168324333Y-74796666D01*
X168291000Y-74758571D01*
X168257666Y-74682380D01*
X168257666Y-74644285D01*
X168291000Y-74568095D01*
X168324333Y-74530000D01*
X168391000Y-74491904D01*
X168524333Y-74491904D01*
X168591000Y-74530000D01*
X168624333Y-74568095D01*
X168657666Y-74644285D01*
X168657666Y-74682380D01*
X168624333Y-74758571D01*
X168591000Y-74796666D01*
X168524333Y-74834761D01*
X168391000Y-74834761D01*
X168324333Y-74872857D01*
X168291000Y-74910952D01*
X168257666Y-74987142D01*
X168257666Y-75139523D01*
X168291000Y-75215714D01*
X168324333Y-75253809D01*
X168391000Y-75291904D01*
X168524333Y-75291904D01*
X168591000Y-75253809D01*
X168624333Y-75215714D01*
X168657666Y-75139523D01*
X168657666Y-74987142D01*
X168624333Y-74910952D01*
X168591000Y-74872857D01*
X168524333Y-74834761D01*
X142181650Y-83592653D02*
X142562602Y-83592653D01*
X142105459Y-83821224D02*
X142372126Y-83021224D01*
X142638793Y-83821224D01*
X143286412Y-83021224D02*
X142905459Y-83021224D01*
X142867364Y-83402177D01*
X142905459Y-83364081D01*
X142981650Y-83325986D01*
X143172126Y-83325986D01*
X143248317Y-83364081D01*
X143286412Y-83402177D01*
X143324507Y-83478367D01*
X143324507Y-83668843D01*
X143286412Y-83745034D01*
X143248317Y-83783129D01*
X143172126Y-83821224D01*
X142981650Y-83821224D01*
X142905459Y-83783129D01*
X142867364Y-83745034D01*
X142181650Y-78880953D02*
X142562602Y-78880953D01*
X142105459Y-79109524D02*
X142372126Y-78309524D01*
X142638793Y-79109524D01*
X142829269Y-78309524D02*
X143362602Y-78309524D01*
X143019745Y-79109524D01*
X147261650Y-78880953D02*
X147642602Y-78880953D01*
X147185459Y-79109524D02*
X147452126Y-78309524D01*
X147718793Y-79109524D01*
X148328317Y-78309524D02*
X148175936Y-78309524D01*
X148099745Y-78347620D01*
X148061650Y-78385715D01*
X147985459Y-78500000D01*
X147947364Y-78652381D01*
X147947364Y-78957143D01*
X147985459Y-79033334D01*
X148023555Y-79071429D01*
X148099745Y-79109524D01*
X148252126Y-79109524D01*
X148328317Y-79071429D01*
X148366412Y-79033334D01*
X148404507Y-78957143D01*
X148404507Y-78766667D01*
X148366412Y-78690477D01*
X148328317Y-78652381D01*
X148252126Y-78614286D01*
X148099745Y-78614286D01*
X148023555Y-78652381D01*
X147985459Y-78690477D01*
X147947364Y-78766667D01*
X147261650Y-83592653D02*
X147642602Y-83592653D01*
X147185459Y-83821224D02*
X147452126Y-83021224D01*
X147718793Y-83821224D01*
X148328317Y-83287891D02*
X148328317Y-83821224D01*
X148137840Y-82983129D02*
X147947364Y-83554558D01*
X148442602Y-83554558D01*
X159880370Y-83592653D02*
X160261322Y-83592653D01*
X159804179Y-83821224D02*
X160070846Y-83021224D01*
X160337513Y-83821224D01*
X161023227Y-83821224D02*
X160566084Y-83821224D01*
X160794656Y-83821224D02*
X160794656Y-83021224D01*
X160718465Y-83135510D01*
X160642275Y-83211700D01*
X160566084Y-83249796D01*
X159880370Y-78880953D02*
X160261322Y-78880953D01*
X159804179Y-79109524D02*
X160070846Y-78309524D01*
X160337513Y-79109524D01*
X160527989Y-78309524D02*
X161023227Y-78309524D01*
X160756560Y-78614286D01*
X160870846Y-78614286D01*
X160947037Y-78652381D01*
X160985132Y-78690477D01*
X161023227Y-78766667D01*
X161023227Y-78957143D01*
X160985132Y-79033334D01*
X160947037Y-79071429D01*
X160870846Y-79109524D01*
X160642275Y-79109524D01*
X160566084Y-79071429D01*
X160527989Y-79033334D01*
X164960370Y-78880953D02*
X165341322Y-78880953D01*
X164884179Y-79109524D02*
X165150846Y-78309524D01*
X165417513Y-79109524D01*
X165646084Y-78385715D02*
X165684179Y-78347620D01*
X165760370Y-78309524D01*
X165950846Y-78309524D01*
X166027037Y-78347620D01*
X166065132Y-78385715D01*
X166103227Y-78461905D01*
X166103227Y-78538096D01*
X166065132Y-78652381D01*
X165607989Y-79109524D01*
X166103227Y-79109524D01*
X164960370Y-83592653D02*
X165341322Y-83592653D01*
X164884179Y-83821224D02*
X165150846Y-83021224D01*
X165417513Y-83821224D01*
X165836560Y-83021224D02*
X165912751Y-83021224D01*
X165988941Y-83059320D01*
X166027037Y-83097415D01*
X166065132Y-83173605D01*
X166103227Y-83325986D01*
X166103227Y-83516462D01*
X166065132Y-83668843D01*
X166027037Y-83745034D01*
X165988941Y-83783129D01*
X165912751Y-83821224D01*
X165836560Y-83821224D01*
X165760370Y-83783129D01*
X165722275Y-83745034D01*
X165684179Y-83668843D01*
X165646084Y-83516462D01*
X165646084Y-83325986D01*
X165684179Y-83173605D01*
X165722275Y-83097415D01*
X165760370Y-83059320D01*
X165836560Y-83021224D01*
X166198761Y-91509857D02*
X166465428Y-91509857D01*
X166579714Y-91928904D02*
X166198761Y-91928904D01*
X166198761Y-91128904D01*
X166579714Y-91128904D01*
X166846380Y-91128904D02*
X167379714Y-91928904D01*
X167379714Y-91128904D02*
X166846380Y-91928904D01*
X167570190Y-91128904D02*
X168027333Y-91128904D01*
X167798761Y-91928904D02*
X167798761Y-91128904D01*
X168294000Y-91624142D02*
X168903523Y-91624142D01*
X169170190Y-91128904D02*
X169436857Y-91928904D01*
X169703523Y-91128904D01*
X132670761Y-100399857D02*
X132937428Y-100399857D01*
X133051714Y-100818904D02*
X132670761Y-100818904D01*
X132670761Y-100018904D01*
X133051714Y-100018904D01*
X133318380Y-100018904D02*
X133851714Y-100818904D01*
X133851714Y-100018904D02*
X133318380Y-100818904D01*
X134042190Y-100018904D02*
X134499333Y-100018904D01*
X134270761Y-100818904D02*
X134270761Y-100018904D01*
X134766000Y-100514142D02*
X135375523Y-100514142D01*
X135642190Y-100018904D02*
X135908857Y-100818904D01*
X136175523Y-100018904D01*
X149815761Y-115512857D02*
X150082428Y-115512857D01*
X150196714Y-115931904D02*
X149815761Y-115931904D01*
X149815761Y-115131904D01*
X150196714Y-115131904D01*
X150463380Y-115131904D02*
X150996714Y-115931904D01*
X150996714Y-115131904D02*
X150463380Y-115931904D01*
X151187190Y-115131904D02*
X151644333Y-115131904D01*
X151415761Y-115931904D02*
X151415761Y-115131904D01*
X151911000Y-115627142D02*
X152520523Y-115627142D01*
X152787190Y-115131904D02*
X153053857Y-115931904D01*
X153320523Y-115131904D01*
X145567523Y-117544904D02*
X146062761Y-117544904D01*
X145796095Y-117849666D01*
X145910380Y-117849666D01*
X145986571Y-117887761D01*
X146024666Y-117925857D01*
X146062761Y-118002047D01*
X146062761Y-118192523D01*
X146024666Y-118268714D01*
X145986571Y-118306809D01*
X145910380Y-118344904D01*
X145681809Y-118344904D01*
X145605619Y-118306809D01*
X145567523Y-118268714D01*
X146291333Y-117544904D02*
X146558000Y-118344904D01*
X146824666Y-117544904D01*
X147015142Y-117544904D02*
X147510380Y-117544904D01*
X147243714Y-117849666D01*
X147358000Y-117849666D01*
X147434190Y-117887761D01*
X147472285Y-117925857D01*
X147510380Y-118002047D01*
X147510380Y-118192523D01*
X147472285Y-118268714D01*
X147434190Y-118306809D01*
X147358000Y-118344904D01*
X147129428Y-118344904D01*
X147053238Y-118306809D01*
X147015142Y-118268714D01*
X142621076Y-116998800D02*
X142544885Y-116960704D01*
X142430600Y-116960704D01*
X142316314Y-116998800D01*
X142240123Y-117074990D01*
X142202028Y-117151180D01*
X142163933Y-117303561D01*
X142163933Y-117417847D01*
X142202028Y-117570228D01*
X142240123Y-117646419D01*
X142316314Y-117722609D01*
X142430600Y-117760704D01*
X142506790Y-117760704D01*
X142621076Y-117722609D01*
X142659171Y-117684514D01*
X142659171Y-117417847D01*
X142506790Y-117417847D01*
X143002028Y-117760704D02*
X143002028Y-116960704D01*
X143459171Y-117760704D01*
X143459171Y-116960704D01*
X143840123Y-117760704D02*
X143840123Y-116960704D01*
X144030600Y-116960704D01*
X144144885Y-116998800D01*
X144221076Y-117074990D01*
X144259171Y-117151180D01*
X144297266Y-117303561D01*
X144297266Y-117417847D01*
X144259171Y-117570228D01*
X144221076Y-117646419D01*
X144144885Y-117722609D01*
X144030600Y-117760704D01*
X143840123Y-117760704D01*
X136734761Y-112845857D02*
X137001428Y-112845857D01*
X137115714Y-113264904D02*
X136734761Y-113264904D01*
X136734761Y-112464904D01*
X137115714Y-112464904D01*
X137382380Y-112464904D02*
X137915714Y-113264904D01*
X137915714Y-112464904D02*
X137382380Y-113264904D01*
X138106190Y-112464904D02*
X138563333Y-112464904D01*
X138334761Y-113264904D02*
X138334761Y-112464904D01*
X138830000Y-112960142D02*
X139439523Y-112960142D01*
X139706190Y-112464904D02*
X139972857Y-113264904D01*
X140239523Y-112464904D01*
X170606720Y-83058000D02*
X170606720Y-83693000D01*
X168066720Y-83058000D02*
X168066720Y-83693000D01*
X162986720Y-83058000D02*
X162986720Y-83693000D01*
X157906720Y-83058000D02*
X157906720Y-83693000D01*
X140208000Y-83058000D02*
X140208000Y-83693000D01*
X145288000Y-83058000D02*
X145288000Y-83693000D01*
X152908000Y-83058000D02*
X152908000Y-83693000D01*
X150368000Y-83058000D02*
X150368000Y-83693000D01*
X167621000Y-78551963D02*
X167582904Y-78628154D01*
X167582904Y-78742440D01*
X167621000Y-78856725D01*
X167697190Y-78932916D01*
X167773380Y-78971011D01*
X167925761Y-79009106D01*
X168040047Y-79009106D01*
X168192428Y-78971011D01*
X168268619Y-78932916D01*
X168344809Y-78856725D01*
X168382904Y-78742440D01*
X168382904Y-78666249D01*
X168344809Y-78551963D01*
X168306714Y-78513868D01*
X168040047Y-78513868D01*
X168040047Y-78666249D01*
X168382904Y-78171011D02*
X167582904Y-78171011D01*
X168382904Y-77713868D01*
X167582904Y-77713868D01*
X168382904Y-77332916D02*
X167582904Y-77332916D01*
X167582904Y-77142440D01*
X167621000Y-77028154D01*
X167697190Y-76951963D01*
X167773380Y-76913868D01*
X167925761Y-76875773D01*
X168040047Y-76875773D01*
X168192428Y-76913868D01*
X168268619Y-76951963D01*
X168344809Y-77028154D01*
X168382904Y-77142440D01*
X168382904Y-77332916D01*
X162541000Y-78551963D02*
X162502904Y-78628154D01*
X162502904Y-78742440D01*
X162541000Y-78856725D01*
X162617190Y-78932916D01*
X162693380Y-78971011D01*
X162845761Y-79009106D01*
X162960047Y-79009106D01*
X163112428Y-78971011D01*
X163188619Y-78932916D01*
X163264809Y-78856725D01*
X163302904Y-78742440D01*
X163302904Y-78666249D01*
X163264809Y-78551963D01*
X163226714Y-78513868D01*
X162960047Y-78513868D01*
X162960047Y-78666249D01*
X163302904Y-78171011D02*
X162502904Y-78171011D01*
X163302904Y-77713868D01*
X162502904Y-77713868D01*
X163302904Y-77332916D02*
X162502904Y-77332916D01*
X162502904Y-77142440D01*
X162541000Y-77028154D01*
X162617190Y-76951963D01*
X162693380Y-76913868D01*
X162845761Y-76875773D01*
X162960047Y-76875773D01*
X163112428Y-76913868D01*
X163188619Y-76951963D01*
X163264809Y-77028154D01*
X163302904Y-77142440D01*
X163302904Y-77332916D01*
X157461000Y-78551963D02*
X157422904Y-78628154D01*
X157422904Y-78742440D01*
X157461000Y-78856725D01*
X157537190Y-78932916D01*
X157613380Y-78971011D01*
X157765761Y-79009106D01*
X157880047Y-79009106D01*
X158032428Y-78971011D01*
X158108619Y-78932916D01*
X158184809Y-78856725D01*
X158222904Y-78742440D01*
X158222904Y-78666249D01*
X158184809Y-78551963D01*
X158146714Y-78513868D01*
X157880047Y-78513868D01*
X157880047Y-78666249D01*
X158222904Y-78171011D02*
X157422904Y-78171011D01*
X158222904Y-77713868D01*
X157422904Y-77713868D01*
X158222904Y-77332916D02*
X157422904Y-77332916D01*
X157422904Y-77142440D01*
X157461000Y-77028154D01*
X157537190Y-76951963D01*
X157613380Y-76913868D01*
X157765761Y-76875773D01*
X157880047Y-76875773D01*
X158032428Y-76913868D01*
X158108619Y-76951963D01*
X158184809Y-77028154D01*
X158222904Y-77142440D01*
X158222904Y-77332916D01*
X149968000Y-78551963D02*
X149929904Y-78628154D01*
X149929904Y-78742440D01*
X149968000Y-78856725D01*
X150044190Y-78932916D01*
X150120380Y-78971011D01*
X150272761Y-79009106D01*
X150387047Y-79009106D01*
X150539428Y-78971011D01*
X150615619Y-78932916D01*
X150691809Y-78856725D01*
X150729904Y-78742440D01*
X150729904Y-78666249D01*
X150691809Y-78551963D01*
X150653714Y-78513868D01*
X150387047Y-78513868D01*
X150387047Y-78666249D01*
X150729904Y-78171011D02*
X149929904Y-78171011D01*
X150729904Y-77713868D01*
X149929904Y-77713868D01*
X150729904Y-77332916D02*
X149929904Y-77332916D01*
X149929904Y-77142440D01*
X149968000Y-77028154D01*
X150044190Y-76951963D01*
X150120380Y-76913868D01*
X150272761Y-76875773D01*
X150387047Y-76875773D01*
X150539428Y-76913868D01*
X150615619Y-76951963D01*
X150691809Y-77028154D01*
X150729904Y-77142440D01*
X150729904Y-77332916D01*
X144857520Y-78658643D02*
X144819424Y-78734834D01*
X144819424Y-78849120D01*
X144857520Y-78963405D01*
X144933710Y-79039596D01*
X145009900Y-79077691D01*
X145162281Y-79115786D01*
X145276567Y-79115786D01*
X145428948Y-79077691D01*
X145505139Y-79039596D01*
X145581329Y-78963405D01*
X145619424Y-78849120D01*
X145619424Y-78772929D01*
X145581329Y-78658643D01*
X145543234Y-78620548D01*
X145276567Y-78620548D01*
X145276567Y-78772929D01*
X145619424Y-78277691D02*
X144819424Y-78277691D01*
X145619424Y-77820548D01*
X144819424Y-77820548D01*
X145619424Y-77439596D02*
X144819424Y-77439596D01*
X144819424Y-77249120D01*
X144857520Y-77134834D01*
X144933710Y-77058643D01*
X145009900Y-77020548D01*
X145162281Y-76982453D01*
X145276567Y-76982453D01*
X145428948Y-77020548D01*
X145505139Y-77058643D01*
X145581329Y-77134834D01*
X145619424Y-77249120D01*
X145619424Y-77439596D01*
X139762280Y-78612923D02*
X139724184Y-78689114D01*
X139724184Y-78803400D01*
X139762280Y-78917685D01*
X139838470Y-78993876D01*
X139914660Y-79031971D01*
X140067041Y-79070066D01*
X140181327Y-79070066D01*
X140333708Y-79031971D01*
X140409899Y-78993876D01*
X140486089Y-78917685D01*
X140524184Y-78803400D01*
X140524184Y-78727209D01*
X140486089Y-78612923D01*
X140447994Y-78574828D01*
X140181327Y-78574828D01*
X140181327Y-78727209D01*
X140524184Y-78231971D02*
X139724184Y-78231971D01*
X140524184Y-77774828D01*
X139724184Y-77774828D01*
X140524184Y-77393876D02*
X139724184Y-77393876D01*
X139724184Y-77203400D01*
X139762280Y-77089114D01*
X139838470Y-77012923D01*
X139914660Y-76974828D01*
X140067041Y-76936733D01*
X140181327Y-76936733D01*
X140333708Y-76974828D01*
X140409899Y-77012923D01*
X140486089Y-77089114D01*
X140524184Y-77203400D01*
X140524184Y-77393876D01*
X132365800Y-78612923D02*
X132327704Y-78689114D01*
X132327704Y-78803400D01*
X132365800Y-78917685D01*
X132441990Y-78993876D01*
X132518180Y-79031971D01*
X132670561Y-79070066D01*
X132784847Y-79070066D01*
X132937228Y-79031971D01*
X133013419Y-78993876D01*
X133089609Y-78917685D01*
X133127704Y-78803400D01*
X133127704Y-78727209D01*
X133089609Y-78612923D01*
X133051514Y-78574828D01*
X132784847Y-78574828D01*
X132784847Y-78727209D01*
X133127704Y-78231971D02*
X132327704Y-78231971D01*
X133127704Y-77774828D01*
X132327704Y-77774828D01*
X133127704Y-77393876D02*
X132327704Y-77393876D01*
X132327704Y-77203400D01*
X132365800Y-77089114D01*
X132441990Y-77012923D01*
X132518180Y-76974828D01*
X132670561Y-76936733D01*
X132784847Y-76936733D01*
X132937228Y-76974828D01*
X133013419Y-77012923D01*
X133089609Y-77089114D01*
X133127704Y-77203400D01*
X133127704Y-77393876D01*
X130147131Y-83084653D02*
X130528083Y-83084653D01*
X130070940Y-83313224D02*
X130337607Y-82513224D01*
X130604274Y-83313224D01*
X131289988Y-83313224D02*
X130832845Y-83313224D01*
X131061417Y-83313224D02*
X131061417Y-82513224D01*
X130985226Y-82627510D01*
X130909036Y-82703700D01*
X130832845Y-82741796D01*
X130147131Y-85084479D02*
X130528083Y-85084479D01*
X130070940Y-85313050D02*
X130337607Y-84513050D01*
X130604274Y-85313050D01*
X130794750Y-84513050D02*
X131289988Y-84513050D01*
X131023321Y-84817812D01*
X131137607Y-84817812D01*
X131213798Y-84855907D01*
X131251893Y-84894003D01*
X131289988Y-84970193D01*
X131289988Y-85160669D01*
X131251893Y-85236860D01*
X131213798Y-85274955D01*
X131137607Y-85313050D01*
X130909036Y-85313050D01*
X130832845Y-85274955D01*
X130794750Y-85236860D01*
X130147131Y-87084305D02*
X130528083Y-87084305D01*
X130070940Y-87312876D02*
X130337607Y-86512876D01*
X130604274Y-87312876D01*
X131251893Y-86512876D02*
X130870940Y-86512876D01*
X130832845Y-86893829D01*
X130870940Y-86855733D01*
X130947131Y-86817638D01*
X131137607Y-86817638D01*
X131213798Y-86855733D01*
X131251893Y-86893829D01*
X131289988Y-86970019D01*
X131289988Y-87160495D01*
X131251893Y-87236686D01*
X131213798Y-87274781D01*
X131137607Y-87312876D01*
X130947131Y-87312876D01*
X130870940Y-87274781D01*
X130832845Y-87236686D01*
X130147131Y-89084133D02*
X130528083Y-89084133D01*
X130070940Y-89312704D02*
X130337607Y-88512704D01*
X130604274Y-89312704D01*
X130794750Y-88512704D02*
X131328083Y-88512704D01*
X130985226Y-89312704D01*
X136385370Y-89084133D02*
X136766322Y-89084133D01*
X136309179Y-89312704D02*
X136575846Y-88512704D01*
X136842513Y-89312704D01*
X137452037Y-88512704D02*
X137299656Y-88512704D01*
X137223465Y-88550800D01*
X137185370Y-88588895D01*
X137109179Y-88703180D01*
X137071084Y-88855561D01*
X137071084Y-89160323D01*
X137109179Y-89236514D01*
X137147275Y-89274609D01*
X137223465Y-89312704D01*
X137375846Y-89312704D01*
X137452037Y-89274609D01*
X137490132Y-89236514D01*
X137528227Y-89160323D01*
X137528227Y-88969847D01*
X137490132Y-88893657D01*
X137452037Y-88855561D01*
X137375846Y-88817466D01*
X137223465Y-88817466D01*
X137147275Y-88855561D01*
X137109179Y-88893657D01*
X137071084Y-88969847D01*
X136385370Y-87084305D02*
X136766322Y-87084305D01*
X136309179Y-87312876D02*
X136575846Y-86512876D01*
X136842513Y-87312876D01*
X137452037Y-86779543D02*
X137452037Y-87312876D01*
X137261560Y-86474781D02*
X137071084Y-87046210D01*
X137566322Y-87046210D01*
X136385370Y-85084479D02*
X136766322Y-85084479D01*
X136309179Y-85313050D02*
X136575846Y-84513050D01*
X136842513Y-85313050D01*
X137071084Y-84589241D02*
X137109179Y-84551146D01*
X137185370Y-84513050D01*
X137375846Y-84513050D01*
X137452037Y-84551146D01*
X137490132Y-84589241D01*
X137528227Y-84665431D01*
X137528227Y-84741622D01*
X137490132Y-84855907D01*
X137032989Y-85313050D01*
X137528227Y-85313050D01*
X136385370Y-83084653D02*
X136766322Y-83084653D01*
X136309179Y-83313224D02*
X136575846Y-82513224D01*
X136842513Y-83313224D01*
X137261560Y-82513224D02*
X137337751Y-82513224D01*
X137413941Y-82551320D01*
X137452037Y-82589415D01*
X137490132Y-82665605D01*
X137528227Y-82817986D01*
X137528227Y-83008462D01*
X137490132Y-83160843D01*
X137452037Y-83237034D01*
X137413941Y-83275129D01*
X137337751Y-83313224D01*
X137261560Y-83313224D01*
X137185370Y-83275129D01*
X137147275Y-83237034D01*
X137109179Y-83160843D01*
X137071084Y-83008462D01*
X137071084Y-82817986D01*
X137109179Y-82665605D01*
X137147275Y-82589415D01*
X137185370Y-82551320D01*
X137261560Y-82513224D01*
X134674664Y-78922746D02*
X135474664Y-78656080D01*
X134674664Y-78389413D01*
X135398474Y-77665603D02*
X135436569Y-77703699D01*
X135474664Y-77817984D01*
X135474664Y-77894175D01*
X135436569Y-78008460D01*
X135360379Y-78084651D01*
X135284188Y-78122746D01*
X135131807Y-78160841D01*
X135017521Y-78160841D01*
X134865140Y-78122746D01*
X134788950Y-78084651D01*
X134712760Y-78008460D01*
X134674664Y-77894175D01*
X134674664Y-77817984D01*
X134712760Y-77703699D01*
X134750855Y-77665603D01*
X135398474Y-76865603D02*
X135436569Y-76903699D01*
X135474664Y-77017984D01*
X135474664Y-77094175D01*
X135436569Y-77208460D01*
X135360379Y-77284651D01*
X135284188Y-77322746D01*
X135131807Y-77360841D01*
X135017521Y-77360841D01*
X134865140Y-77322746D01*
X134788950Y-77284651D01*
X134712760Y-77208460D01*
X134674664Y-77094175D01*
X134674664Y-77017984D01*
X134712760Y-76903699D01*
X134750855Y-76865603D01*
X172342864Y-82107906D02*
X173142864Y-81841240D01*
X172342864Y-81574573D01*
X173066674Y-80850763D02*
X173104769Y-80888859D01*
X173142864Y-81003144D01*
X173142864Y-81079335D01*
X173104769Y-81193620D01*
X173028579Y-81269811D01*
X172952388Y-81307906D01*
X172800007Y-81346001D01*
X172685721Y-81346001D01*
X172533340Y-81307906D01*
X172457150Y-81269811D01*
X172380960Y-81193620D01*
X172342864Y-81079335D01*
X172342864Y-81003144D01*
X172380960Y-80888859D01*
X172419055Y-80850763D01*
X173066674Y-80050763D02*
X173104769Y-80088859D01*
X173142864Y-80203144D01*
X173142864Y-80279335D01*
X173104769Y-80393620D01*
X173028579Y-80469811D01*
X172952388Y-80507906D01*
X172800007Y-80546001D01*
X172685721Y-80546001D01*
X172533340Y-80507906D01*
X172457150Y-80469811D01*
X172380960Y-80393620D01*
X172342864Y-80279335D01*
X172342864Y-80203144D01*
X172380960Y-80088859D01*
X172419055Y-80050763D01*
X152439424Y-78861786D02*
X153239424Y-78595120D01*
X152439424Y-78328453D01*
X153163234Y-77604643D02*
X153201329Y-77642739D01*
X153239424Y-77757024D01*
X153239424Y-77833215D01*
X153201329Y-77947500D01*
X153125139Y-78023691D01*
X153048948Y-78061786D01*
X152896567Y-78099881D01*
X152782281Y-78099881D01*
X152629900Y-78061786D01*
X152553710Y-78023691D01*
X152477520Y-77947500D01*
X152439424Y-77833215D01*
X152439424Y-77757024D01*
X152477520Y-77642739D01*
X152515615Y-77604643D01*
X153163234Y-76804643D02*
X153201329Y-76842739D01*
X153239424Y-76957024D01*
X153239424Y-77033215D01*
X153201329Y-77147500D01*
X153125139Y-77223691D01*
X153048948Y-77261786D01*
X152896567Y-77299881D01*
X152782281Y-77299881D01*
X152629900Y-77261786D01*
X152553710Y-77223691D01*
X152477520Y-77147500D01*
X152439424Y-77033215D01*
X152439424Y-76957024D01*
X152477520Y-76842739D01*
X152515615Y-76804643D01*
D12*
X148082000Y-111836200D02*
X146050000Y-111836200D01*
X148082000Y-107772200D02*
X148082000Y-111836200D01*
X146050000Y-107772200D02*
X148082000Y-107772200D01*
X146050000Y-111836200D02*
X146050000Y-107772200D01*
X163283900Y-111836200D02*
X161251900Y-111836200D01*
X163283900Y-107772200D02*
X163283900Y-111836200D01*
X161251900Y-107772200D02*
X163283900Y-107772200D01*
X161251900Y-111836200D02*
X161251900Y-107772200D01*
X143827500Y-110096300D02*
X143827500Y-112128300D01*
X139763500Y-110096300D02*
X143827500Y-110096300D01*
X139763500Y-112128300D02*
X139763500Y-110096300D01*
X143827500Y-112128300D02*
X139763500Y-112128300D01*
X157451425Y-107772200D02*
X159483425Y-107772200D01*
X157451425Y-111836200D02*
X157451425Y-107772200D01*
X159483425Y-111836200D02*
X157451425Y-111836200D01*
X159483425Y-107772200D02*
X159483425Y-111836200D01*
X153650950Y-107772200D02*
X155682950Y-107772200D01*
X153650950Y-111836200D02*
X153650950Y-107772200D01*
X155682950Y-111836200D02*
X153650950Y-111836200D01*
X155682950Y-107772200D02*
X155682950Y-111836200D01*
D13*
X140804900Y-87078820D02*
X139534900Y-87078820D01*
X138899900Y-86443820D02*
X139534900Y-87078820D01*
X139534900Y-84538820D02*
X138899900Y-85173820D01*
X138899900Y-85173820D02*
X138899900Y-86443820D01*
X142074900Y-87078820D02*
X141439900Y-86443820D01*
X143344900Y-87078820D02*
X142074900Y-87078820D01*
X143979900Y-86443820D02*
X143344900Y-87078820D01*
X143979900Y-85173820D02*
X143979900Y-86443820D01*
X143344900Y-84538820D02*
X143979900Y-85173820D01*
X142074900Y-84538820D02*
X143344900Y-84538820D01*
X141439900Y-85173820D02*
X142074900Y-84538820D01*
X141439900Y-86443820D02*
X140804900Y-87078820D01*
X141439900Y-85173820D02*
X141439900Y-86443820D01*
X140804900Y-84538820D02*
X141439900Y-85173820D01*
X139534900Y-84538820D02*
X140804900Y-84538820D01*
X148424900Y-87078820D02*
X147154900Y-87078820D01*
X146519900Y-86443820D02*
X147154900Y-87078820D01*
X147154900Y-84538820D02*
X146519900Y-85173820D01*
X144614900Y-87078820D02*
X143979900Y-86443820D01*
X145884900Y-87078820D02*
X144614900Y-87078820D01*
X146519900Y-86443820D02*
X145884900Y-87078820D01*
X146519900Y-85173820D02*
X146519900Y-86443820D01*
X145884900Y-84538820D02*
X146519900Y-85173820D01*
X144614900Y-84538820D02*
X145884900Y-84538820D01*
X143979900Y-85173820D02*
X144614900Y-84538820D01*
X149694900Y-87078820D02*
X149059900Y-86443820D01*
X150964900Y-87078820D02*
X149694900Y-87078820D01*
X151599900Y-86443820D02*
X150964900Y-87078820D01*
X151599900Y-85173820D02*
X151599900Y-86443820D01*
X150964900Y-84538820D02*
X151599900Y-85173820D01*
X149694900Y-84538820D02*
X150964900Y-84538820D01*
X149059900Y-85173820D02*
X149694900Y-84538820D01*
X149059900Y-86443820D02*
X148424900Y-87078820D01*
X149059900Y-85173820D02*
X149059900Y-86443820D01*
X148424900Y-84538820D02*
X149059900Y-85173820D01*
X147154900Y-84538820D02*
X148424900Y-84538820D01*
X152234900Y-87078820D02*
X151599900Y-86443820D01*
X153504900Y-87078820D02*
X152234900Y-87078820D01*
X154139900Y-86443820D02*
X153504900Y-87078820D01*
X154139900Y-85173820D02*
X154139900Y-86443820D01*
X153504900Y-84538820D02*
X154139900Y-85173820D01*
X152234900Y-84538820D02*
X153504900Y-84538820D01*
X151599900Y-85173820D02*
X152234900Y-84538820D01*
X158503620Y-87078820D02*
X157233620Y-87078820D01*
X156598620Y-86443820D02*
X157233620Y-87078820D01*
X157233620Y-84538820D02*
X156598620Y-85173820D01*
X156598620Y-85173820D02*
X156598620Y-86443820D01*
X159773620Y-87078820D02*
X159138620Y-86443820D01*
X161043620Y-87078820D02*
X159773620Y-87078820D01*
X161678620Y-86443820D02*
X161043620Y-87078820D01*
X161678620Y-85173820D02*
X161678620Y-86443820D01*
X161043620Y-84538820D02*
X161678620Y-85173820D01*
X159773620Y-84538820D02*
X161043620Y-84538820D01*
X159138620Y-85173820D02*
X159773620Y-84538820D01*
X159138620Y-86443820D02*
X158503620Y-87078820D01*
X159138620Y-85173820D02*
X159138620Y-86443820D01*
X158503620Y-84538820D02*
X159138620Y-85173820D01*
X157233620Y-84538820D02*
X158503620Y-84538820D01*
X166123620Y-87078820D02*
X164853620Y-87078820D01*
X164218620Y-86443820D02*
X164853620Y-87078820D01*
X164853620Y-84538820D02*
X164218620Y-85173820D01*
X162313620Y-87078820D02*
X161678620Y-86443820D01*
X163583620Y-87078820D02*
X162313620Y-87078820D01*
X164218620Y-86443820D02*
X163583620Y-87078820D01*
X164218620Y-85173820D02*
X164218620Y-86443820D01*
X163583620Y-84538820D02*
X164218620Y-85173820D01*
X162313620Y-84538820D02*
X163583620Y-84538820D01*
X161678620Y-85173820D02*
X162313620Y-84538820D01*
X167393620Y-87078820D02*
X166758620Y-86443820D01*
X168663620Y-87078820D02*
X167393620Y-87078820D01*
X169298620Y-86443820D02*
X168663620Y-87078820D01*
X169298620Y-85173820D02*
X169298620Y-86443820D01*
X168663620Y-84538820D02*
X169298620Y-85173820D01*
X167393620Y-84538820D02*
X168663620Y-84538820D01*
X166758620Y-85173820D02*
X167393620Y-84538820D01*
X166758620Y-86443820D02*
X166123620Y-87078820D01*
X166758620Y-85173820D02*
X166758620Y-86443820D01*
X166123620Y-84538820D02*
X166758620Y-85173820D01*
X164853620Y-84538820D02*
X166123620Y-84538820D01*
X169933620Y-87078820D02*
X169298620Y-86443820D01*
X171203620Y-87078820D02*
X169933620Y-87078820D01*
X171838620Y-86443820D02*
X171203620Y-87078820D01*
X171838620Y-85173820D02*
X171838620Y-86443820D01*
X171203620Y-84538820D02*
X171838620Y-85173820D01*
X169933620Y-84538820D02*
X171203620Y-84538820D01*
X169298620Y-85173820D02*
X169933620Y-84538820D01*
X140804900Y-82367120D02*
X139534900Y-82367120D01*
X138899900Y-81732120D02*
X139534900Y-82367120D01*
X139534900Y-79827120D02*
X138899900Y-80462120D01*
X138899900Y-80462120D02*
X138899900Y-81732120D01*
X142074900Y-82367120D02*
X141439900Y-81732120D01*
X143344900Y-82367120D02*
X142074900Y-82367120D01*
X143979900Y-81732120D02*
X143344900Y-82367120D01*
X143979900Y-80462120D02*
X143979900Y-81732120D01*
X143344900Y-79827120D02*
X143979900Y-80462120D01*
X142074900Y-79827120D02*
X143344900Y-79827120D01*
X141439900Y-80462120D02*
X142074900Y-79827120D01*
X141439900Y-81732120D02*
X140804900Y-82367120D01*
X141439900Y-80462120D02*
X141439900Y-81732120D01*
X140804900Y-79827120D02*
X141439900Y-80462120D01*
X139534900Y-79827120D02*
X140804900Y-79827120D01*
X148424900Y-82367120D02*
X147154900Y-82367120D01*
X146519900Y-81732120D02*
X147154900Y-82367120D01*
X147154900Y-79827120D02*
X146519900Y-80462120D01*
X144614900Y-82367120D02*
X143979900Y-81732120D01*
X145884900Y-82367120D02*
X144614900Y-82367120D01*
X146519900Y-81732120D02*
X145884900Y-82367120D01*
X146519900Y-80462120D02*
X146519900Y-81732120D01*
X145884900Y-79827120D02*
X146519900Y-80462120D01*
X144614900Y-79827120D02*
X145884900Y-79827120D01*
X143979900Y-80462120D02*
X144614900Y-79827120D01*
X149694900Y-82367120D02*
X149059900Y-81732120D01*
X150964900Y-82367120D02*
X149694900Y-82367120D01*
X151599900Y-81732120D02*
X150964900Y-82367120D01*
X151599900Y-80462120D02*
X151599900Y-81732120D01*
X150964900Y-79827120D02*
X151599900Y-80462120D01*
X149694900Y-79827120D02*
X150964900Y-79827120D01*
X149059900Y-80462120D02*
X149694900Y-79827120D01*
X149059900Y-81732120D02*
X148424900Y-82367120D01*
X149059900Y-80462120D02*
X149059900Y-81732120D01*
X148424900Y-79827120D02*
X149059900Y-80462120D01*
X147154900Y-79827120D02*
X148424900Y-79827120D01*
X152234900Y-82367120D02*
X151599900Y-81732120D01*
X153504900Y-82367120D02*
X152234900Y-82367120D01*
X154139900Y-81732120D02*
X153504900Y-82367120D01*
X154139900Y-80462120D02*
X154139900Y-81732120D01*
X153504900Y-79827120D02*
X154139900Y-80462120D01*
X152234900Y-79827120D02*
X153504900Y-79827120D01*
X151599900Y-80462120D02*
X152234900Y-79827120D01*
X158503620Y-82367120D02*
X157233620Y-82367120D01*
X156598620Y-81732120D02*
X157233620Y-82367120D01*
X157233620Y-79827120D02*
X156598620Y-80462120D01*
X156598620Y-80462120D02*
X156598620Y-81732120D01*
X159773620Y-82367120D02*
X159138620Y-81732120D01*
X161043620Y-82367120D02*
X159773620Y-82367120D01*
X161678620Y-81732120D02*
X161043620Y-82367120D01*
X161678620Y-80462120D02*
X161678620Y-81732120D01*
X161043620Y-79827120D02*
X161678620Y-80462120D01*
X159773620Y-79827120D02*
X161043620Y-79827120D01*
X159138620Y-80462120D02*
X159773620Y-79827120D01*
X159138620Y-81732120D02*
X158503620Y-82367120D01*
X159138620Y-80462120D02*
X159138620Y-81732120D01*
X158503620Y-79827120D02*
X159138620Y-80462120D01*
X157233620Y-79827120D02*
X158503620Y-79827120D01*
X166123620Y-82367120D02*
X164853620Y-82367120D01*
X164218620Y-81732120D02*
X164853620Y-82367120D01*
X164853620Y-79827120D02*
X164218620Y-80462120D01*
X162313620Y-82367120D02*
X161678620Y-81732120D01*
X163583620Y-82367120D02*
X162313620Y-82367120D01*
X164218620Y-81732120D02*
X163583620Y-82367120D01*
X164218620Y-80462120D02*
X164218620Y-81732120D01*
X163583620Y-79827120D02*
X164218620Y-80462120D01*
X162313620Y-79827120D02*
X163583620Y-79827120D01*
X161678620Y-80462120D02*
X162313620Y-79827120D01*
X167393620Y-82367120D02*
X166758620Y-81732120D01*
X168663620Y-82367120D02*
X167393620Y-82367120D01*
X169298620Y-81732120D02*
X168663620Y-82367120D01*
X169298620Y-80462120D02*
X169298620Y-81732120D01*
X168663620Y-79827120D02*
X169298620Y-80462120D01*
X167393620Y-79827120D02*
X168663620Y-79827120D01*
X166758620Y-80462120D02*
X167393620Y-79827120D01*
X166758620Y-81732120D02*
X166123620Y-82367120D01*
X166758620Y-80462120D02*
X166758620Y-81732120D01*
X166123620Y-79827120D02*
X166758620Y-80462120D01*
X164853620Y-79827120D02*
X166123620Y-79827120D01*
X169933620Y-82367120D02*
X169298620Y-81732120D01*
X171203620Y-82367120D02*
X169933620Y-82367120D01*
X171838620Y-81732120D02*
X171203620Y-82367120D01*
X171838620Y-80462120D02*
X171838620Y-81732120D01*
X171203620Y-79827120D02*
X171838620Y-80462120D01*
X169933620Y-79827120D02*
X171203620Y-79827120D01*
X169298620Y-80462120D02*
X169933620Y-79827120D01*
X137858500Y-116790099D02*
X137858500Y-118060099D01*
X137223500Y-118695099D02*
X137858500Y-118060099D01*
X135318500Y-118060099D02*
X135953500Y-118695099D01*
X135953500Y-118695099D02*
X137223500Y-118695099D01*
X137858500Y-115520099D02*
X137223500Y-116155099D01*
X137858500Y-114250099D02*
X137858500Y-115520099D01*
X137223500Y-113615099D02*
X137858500Y-114250099D01*
X135953500Y-113615099D02*
X137223500Y-113615099D01*
X135318500Y-114250099D02*
X135953500Y-113615099D01*
X135318500Y-115520099D02*
X135318500Y-114250099D01*
X135953500Y-116155099D02*
X135318500Y-115520099D01*
X137223500Y-116155099D02*
X137858500Y-116790099D01*
X135953500Y-116155099D02*
X137223500Y-116155099D01*
X135318500Y-116790099D02*
X135953500Y-116155099D01*
X135318500Y-118060099D02*
X135318500Y-116790099D01*
X141354200Y-116790099D02*
X141354200Y-118060099D01*
X140719200Y-118695099D02*
X141354200Y-118060099D01*
X138814200Y-118060099D02*
X139449200Y-118695099D01*
X139449200Y-118695099D02*
X140719200Y-118695099D01*
X141354200Y-115520099D02*
X140719200Y-116155099D01*
X141354200Y-114250099D02*
X141354200Y-115520099D01*
X140719200Y-113615099D02*
X141354200Y-114250099D01*
X139449200Y-113615099D02*
X140719200Y-113615099D01*
X138814200Y-114250099D02*
X139449200Y-113615099D01*
X138814200Y-115520099D02*
X138814200Y-114250099D01*
X139449200Y-116155099D02*
X138814200Y-115520099D01*
X140719200Y-116155099D02*
X141354200Y-116790099D01*
X139449200Y-116155099D02*
X140719200Y-116155099D01*
X138814200Y-116790099D02*
X139449200Y-116155099D01*
X138814200Y-118060099D02*
X138814200Y-116790099D01*
D12*
X158991300Y-93103700D02*
X158991300Y-91071700D01*
X163055300Y-93103700D02*
X158991300Y-93103700D01*
X163055300Y-91071700D02*
X163055300Y-93103700D01*
X158991300Y-91071700D02*
X163055300Y-91071700D01*
X158953200Y-96113600D02*
X158953200Y-94081600D01*
X163017200Y-96113600D02*
X158953200Y-96113600D01*
X163017200Y-94081600D02*
X163017200Y-96113600D01*
X158953200Y-94081600D02*
X163017200Y-94081600D01*
X145732500Y-94195900D02*
X145732500Y-96227900D01*
X141668500Y-94195900D02*
X145732500Y-94195900D01*
X141668500Y-96227900D02*
X141668500Y-94195900D01*
X145732500Y-96227900D02*
X141668500Y-96227900D01*
X141719300Y-93103700D02*
X141719300Y-91071700D01*
X145783300Y-93103700D02*
X141719300Y-93103700D01*
X145783300Y-91071700D02*
X145783300Y-93103700D01*
X141719300Y-91071700D02*
X145783300Y-91071700D01*
X155682950Y-105067100D02*
X153650950Y-105067100D01*
X155682950Y-101003100D02*
X155682950Y-105067100D01*
X153650950Y-101003100D02*
X155682950Y-101003100D01*
X153650950Y-105067100D02*
X153650950Y-101003100D01*
X157451425Y-101003100D02*
X159483425Y-101003100D01*
X157451425Y-105067100D02*
X157451425Y-101003100D01*
X159483425Y-105067100D02*
X157451425Y-105067100D01*
X159483425Y-101003100D02*
X159483425Y-105067100D01*
X151882475Y-105067100D02*
X149850475Y-105067100D01*
X151882475Y-101003100D02*
X151882475Y-105067100D01*
X149850475Y-101003100D02*
X151882475Y-101003100D01*
X149850475Y-105067100D02*
X149850475Y-101003100D01*
X161251900Y-101003100D02*
X163283900Y-101003100D01*
X161251900Y-105067100D02*
X161251900Y-101003100D01*
X163283900Y-105067100D02*
X161251900Y-105067100D01*
X163283900Y-101003100D02*
X163283900Y-105067100D01*
D13*
X142252700Y-108419900D02*
X141490700Y-108419900D01*
X142252700Y-105524300D02*
X142252700Y-108419900D01*
X141490700Y-105524300D02*
X142252700Y-105524300D01*
X141490700Y-108419900D02*
X141490700Y-105524300D01*
D14*
X142811500Y-107175300D02*
X142303500Y-107175300D01*
X142303500Y-107175300D02*
X142303500Y-106794300D01*
X142811500Y-106794300D02*
X142303500Y-106794300D01*
X142811500Y-107175300D02*
X142811500Y-106794300D01*
X141439900Y-108140500D02*
X140931900Y-108140500D01*
X140931900Y-108140500D02*
X140931900Y-107759500D01*
X141439900Y-107759500D02*
X140931900Y-107759500D01*
X141439900Y-108140500D02*
X141439900Y-107759500D01*
X141439900Y-106210100D02*
X140931900Y-106210100D01*
X140931900Y-106210100D02*
X140931900Y-105829100D01*
X141439900Y-105829100D02*
X140931900Y-105829100D01*
X141439900Y-106210100D02*
X141439900Y-105829100D01*
D13*
X142252700Y-103886000D02*
X141490700Y-103886000D01*
X142252700Y-100990400D02*
X142252700Y-103886000D01*
X141490700Y-100990400D02*
X142252700Y-100990400D01*
X141490700Y-103886000D02*
X141490700Y-100990400D01*
D14*
X142811500Y-102641400D02*
X142303500Y-102641400D01*
X142303500Y-102641400D02*
X142303500Y-102260400D01*
X142811500Y-102260400D02*
X142303500Y-102260400D01*
X142811500Y-102641400D02*
X142811500Y-102260400D01*
X141439900Y-103606600D02*
X140931900Y-103606600D01*
X140931900Y-103606600D02*
X140931900Y-103225600D01*
X141439900Y-103225600D02*
X140931900Y-103225600D01*
X141439900Y-103606600D02*
X141439900Y-103225600D01*
X141439900Y-101676200D02*
X140931900Y-101676200D01*
X140931900Y-101676200D02*
X140931900Y-101295200D01*
X141439900Y-101295200D02*
X140931900Y-101295200D01*
X141439900Y-101676200D02*
X141439900Y-101295200D01*
D12*
X129616000Y-102072840D02*
X129616000Y-103873700D01*
X129616000Y-103898700D02*
X130407000Y-103898700D01*
X130407000Y-103898700D02*
X130407000Y-105295700D01*
X130407000Y-105295700D02*
X129616000Y-105295700D01*
X129616000Y-105292700D02*
X129616000Y-108848700D01*
X129616000Y-108848700D02*
X130407000Y-108848700D01*
X130407000Y-108851700D02*
X130407000Y-110248700D01*
X130407000Y-110248700D02*
X129616000Y-110248700D01*
X129616000Y-110248700D02*
X129616000Y-112073700D01*
X134765640Y-102074980D02*
X134765640Y-112072420D01*
X129616000Y-112073700D02*
X134765640Y-112073700D01*
X134765640Y-102074980D02*
X129616000Y-102074980D01*
X133564220Y-102074980D02*
X131567780Y-102074980D01*
D10*
X144273500Y-99958400D02*
X142873500Y-99958400D01*
X142173500Y-99258400D02*
X142173500Y-98658400D01*
X142873500Y-97958400D02*
X144273500Y-97958400D01*
X144973500Y-98658400D02*
X144973500Y-99258400D01*
X144973500Y-99258400D02*
G75*
G02X144273500Y-99958400I-700000J0D01*
G01*
X144273500Y-97958400D02*
G75*
G02X144973500Y-98658400I0J-700000D01*
G01*
X142173500Y-98658400D02*
G75*
G02X142873500Y-97958400I700000J0D01*
G01*
X142873500Y-99958400D02*
G75*
G02X142173500Y-99258400I0J700000D01*
G01*
X161609000Y-99640900D02*
X160209000Y-99640900D01*
X159509000Y-98940900D02*
X159509000Y-98340900D01*
X160209000Y-97640900D02*
X161609000Y-97640900D01*
X162309000Y-98340900D02*
X162309000Y-98940900D01*
X162309000Y-98940900D02*
G75*
G02X161609000Y-99640900I-700000J0D01*
G01*
X161609000Y-97640900D02*
G75*
G02X162309000Y-98340900I0J-700000D01*
G01*
X159509000Y-98340900D02*
G75*
G02X160209000Y-97640900I700000J0D01*
G01*
X160209000Y-99640900D02*
G75*
G02X159509000Y-98940900I0J700000D01*
G01*
X145079500Y-115231900D02*
G75*
G02X145779500Y-114531900I700000J0D01*
G01*
X145779500Y-116531900D02*
G75*
G02X145079500Y-115831900I0J700000D01*
G01*
X149179500Y-115831900D02*
G75*
G02X148479500Y-116531900I-700000J0D01*
G01*
X148479500Y-114531900D02*
G75*
G02X149179500Y-115231900I0J-700000D01*
G01*
X145729500Y-114531900D02*
X148529500Y-114531900D01*
X149179500Y-115231900D02*
X149179500Y-115831900D01*
X148529500Y-116531900D02*
X145729500Y-116531900D01*
X145079500Y-115831900D02*
X145079500Y-115231900D01*
X145929500Y-116731900D02*
X145629500Y-117031900D01*
X145629500Y-117031900D02*
X146229500Y-117031900D01*
X145929500Y-116731900D02*
X146229500Y-117031900D01*
D15*
X148156000Y-95897100D02*
X148156000Y-96972100D01*
X151231000Y-95897100D02*
X151231000Y-92647100D01*
X147981000Y-95897100D02*
X147981000Y-92647100D01*
X151231000Y-95897100D02*
X150956000Y-95897100D01*
X151231000Y-92647100D02*
X150956000Y-92647100D01*
X147981000Y-92647100D02*
X148256000Y-92647100D01*
X147981000Y-95897100D02*
X148156000Y-95897100D01*
X153820200Y-95935200D02*
X153820200Y-97010200D01*
X156895200Y-95935200D02*
X156895200Y-92685200D01*
X153645200Y-95935200D02*
X153645200Y-92685200D01*
X156895200Y-95935200D02*
X156620200Y-95935200D01*
X156895200Y-92685200D02*
X156620200Y-92685200D01*
X153645200Y-92685200D02*
X153920200Y-92685200D01*
X153645200Y-95935200D02*
X153820200Y-95935200D01*
D10*
X134787640Y-79899960D02*
X135847640Y-79899960D01*
X135847640Y-79899960D02*
X135847640Y-80959960D01*
X133787640Y-79899960D02*
X133787640Y-81959960D01*
X133787640Y-81959960D02*
X135847640Y-81959960D01*
X135847640Y-81959960D02*
X135847640Y-90019960D01*
X131727640Y-90019960D02*
X135847640Y-90019960D01*
X131727640Y-79899960D02*
X131727640Y-90019960D01*
X131727640Y-79899960D02*
X133787640Y-79899960D01*
X172659300Y-99687600D02*
X172659300Y-99287600D01*
X172019300Y-99687600D02*
X172659300Y-99687600D01*
X168800300Y-95282600D02*
X168928300Y-95411600D01*
X166584300Y-93067600D02*
X166678300Y-93161600D01*
X169040300Y-95112600D02*
X169133300Y-95206600D01*
X166790300Y-92862600D02*
X166918300Y-92991600D01*
X164699300Y-92327600D02*
X172419300Y-92327600D01*
X164699300Y-99447600D02*
X172419300Y-99447600D01*
X172419300Y-99447600D02*
X172419300Y-92327600D01*
X164699300Y-99447600D02*
X164699300Y-92327600D01*
X170859300Y-99447600D02*
X170859300Y-92327600D01*
X171959300Y-99447600D02*
X171959300Y-92327600D01*
X169539300Y-94137600D02*
G75*
G03X169539300Y-94137600I-1680000J0D01*
G01*
X169539399Y-97608926D02*
G75*
G02X169299300Y-98503600I-1680099J-28674D01*
G01*
X168749194Y-99062958D02*
G75*
G02X166993300Y-99077600I-889894J1425358D01*
G01*
X166433942Y-98527494D02*
G75*
G02X166419300Y-96771600I1425358J889894D01*
G01*
X166969107Y-96212095D02*
G75*
G02X168750300Y-96212600I890193J-1425505D01*
G01*
X169284021Y-96747336D02*
G75*
G02X169539300Y-97637600I-1424721J-890264D01*
G01*
X129566000Y-92087600D02*
X129566000Y-92487600D01*
X130206000Y-92087600D02*
X129566000Y-92087600D01*
X133425000Y-96492600D02*
X133297000Y-96363600D01*
X135641000Y-98707600D02*
X135547000Y-98613600D01*
X133185000Y-96662600D02*
X133092000Y-96568600D01*
X135435000Y-98912600D02*
X135307000Y-98783600D01*
X137526000Y-99447600D02*
X129806000Y-99447600D01*
X137526000Y-92327600D02*
X129806000Y-92327600D01*
X129806000Y-92327600D02*
X129806000Y-99447600D01*
X137526000Y-92327600D02*
X137526000Y-99447600D01*
X131366000Y-92327600D02*
X131366000Y-99447600D01*
X130266000Y-92327600D02*
X130266000Y-99447600D01*
X136046000Y-97637600D02*
G75*
G03X136046000Y-97637600I-1680000J0D01*
G01*
X132685901Y-94166274D02*
G75*
G02X132926000Y-93271600I1680099J28674D01*
G01*
X133476106Y-92712242D02*
G75*
G02X135232000Y-92697600I889894J-1425358D01*
G01*
X135791358Y-93247706D02*
G75*
G02X135806000Y-95003600I-1425358J-889894D01*
G01*
X135256193Y-95563105D02*
G75*
G02X133475000Y-95562600I-890193J1425505D01*
G01*
X132941279Y-95027864D02*
G75*
G02X132686000Y-94137600I1424721J890264D01*
G01*
D12*
X172609300Y-112074560D02*
X172609300Y-110273700D01*
X172609300Y-110248700D02*
X171818300Y-110248700D01*
X171818300Y-110248700D02*
X171818300Y-108851700D01*
X171818300Y-108851700D02*
X172609300Y-108851700D01*
X172609300Y-108854700D02*
X172609300Y-105298700D01*
X172609300Y-105298700D02*
X171818300Y-105298700D01*
X171818300Y-105295700D02*
X171818300Y-103898700D01*
X171818300Y-103898700D02*
X172609300Y-103898700D01*
X172609300Y-103898700D02*
X172609300Y-102073700D01*
X167459660Y-112072420D02*
X167459660Y-102074980D01*
X172609300Y-102073700D02*
X167459660Y-102073700D01*
X167459660Y-112072420D02*
X172609300Y-112072420D01*
X168661080Y-112072420D02*
X170657520Y-112072420D01*
X148082000Y-105067100D02*
X146050000Y-105067100D01*
X148082000Y-101003100D02*
X148082000Y-105067100D01*
X146050000Y-101003100D02*
X148082000Y-101003100D01*
X146050000Y-105067100D02*
X146050000Y-101003100D01*
X151882475Y-111836200D02*
X149850475Y-111836200D01*
X151882475Y-107772200D02*
X151882475Y-111836200D01*
X149850475Y-107772200D02*
X151882475Y-107772200D01*
X149850475Y-111836200D02*
X149850475Y-107772200D01*
D13*
X146871266Y-113438577D02*
X146822885Y-113486958D01*
X146677742Y-113535339D01*
X146580980Y-113535339D01*
X146435838Y-113486958D01*
X146339076Y-113390196D01*
X146290695Y-113293434D01*
X146242314Y-113099910D01*
X146242314Y-112954767D01*
X146290695Y-112761243D01*
X146339076Y-112664481D01*
X146435838Y-112567720D01*
X146580980Y-112519339D01*
X146677742Y-112519339D01*
X146822885Y-112567720D01*
X146871266Y-112616100D01*
X147838885Y-113535339D02*
X147258314Y-113535339D01*
X147548600Y-113535339D02*
X147548600Y-112519339D01*
X147451838Y-112664481D01*
X147355076Y-112761243D01*
X147258314Y-112809624D01*
X149389979Y-109443761D02*
X149389979Y-110024333D01*
X149389979Y-109734047D02*
X148373979Y-109734047D01*
X148519121Y-109830809D01*
X148615883Y-109927571D01*
X148664264Y-110024333D01*
X148712645Y-108572904D02*
X149389979Y-108572904D01*
X148712645Y-109008333D02*
X149244836Y-109008333D01*
X149341598Y-108959952D01*
X149389979Y-108863190D01*
X149389979Y-108718047D01*
X149341598Y-108621285D01*
X149293217Y-108572904D01*
X148857788Y-107750428D02*
X148857788Y-108089095D01*
X149389979Y-108089095D02*
X148373979Y-108089095D01*
X148373979Y-107605285D01*
X162111266Y-113438577D02*
X162062885Y-113486958D01*
X161917742Y-113535339D01*
X161820980Y-113535339D01*
X161675838Y-113486958D01*
X161579076Y-113390196D01*
X161530695Y-113293434D01*
X161482314Y-113099910D01*
X161482314Y-112954767D01*
X161530695Y-112761243D01*
X161579076Y-112664481D01*
X161675838Y-112567720D01*
X161820980Y-112519339D01*
X161917742Y-112519339D01*
X162062885Y-112567720D01*
X162111266Y-112616100D01*
X162498314Y-112616100D02*
X162546695Y-112567720D01*
X162643457Y-112519339D01*
X162885361Y-112519339D01*
X162982123Y-112567720D01*
X163030504Y-112616100D01*
X163078885Y-112712862D01*
X163078885Y-112809624D01*
X163030504Y-112954767D01*
X162449933Y-113535339D01*
X163078885Y-113535339D01*
X164655379Y-109443761D02*
X164655379Y-110024333D01*
X164655379Y-109734047D02*
X163639379Y-109734047D01*
X163784521Y-109830809D01*
X163881283Y-109927571D01*
X163929664Y-110024333D01*
X163978045Y-108572904D02*
X164655379Y-108572904D01*
X163978045Y-109008333D02*
X164510236Y-109008333D01*
X164606998Y-108959952D01*
X164655379Y-108863190D01*
X164655379Y-108718047D01*
X164606998Y-108621285D01*
X164558617Y-108572904D01*
X164123188Y-107750428D02*
X164123188Y-108089095D01*
X164655379Y-108089095D02*
X163639379Y-108089095D01*
X163639379Y-107605285D01*
X138980817Y-111304493D02*
X139029198Y-111352874D01*
X139077579Y-111498017D01*
X139077579Y-111594779D01*
X139029198Y-111739921D01*
X138932436Y-111836683D01*
X138835674Y-111885064D01*
X138642150Y-111933445D01*
X138497007Y-111933445D01*
X138303483Y-111885064D01*
X138206721Y-111836683D01*
X138109960Y-111739921D01*
X138061579Y-111594779D01*
X138061579Y-111498017D01*
X138109960Y-111352874D01*
X138158340Y-111304493D01*
X138061579Y-110965826D02*
X138061579Y-110336874D01*
X138448626Y-110675540D01*
X138448626Y-110530398D01*
X138497007Y-110433636D01*
X138545388Y-110385255D01*
X138642150Y-110336874D01*
X138884055Y-110336874D01*
X138980817Y-110385255D01*
X139029198Y-110433636D01*
X139077579Y-110530398D01*
X139077579Y-110820683D01*
X139029198Y-110917445D01*
X138980817Y-110965826D01*
X140043988Y-109811699D02*
X139463417Y-109811699D01*
X139753702Y-109811699D02*
X139753702Y-108795699D01*
X139656940Y-108940841D01*
X139560179Y-109037603D01*
X139463417Y-109085984D01*
X140672940Y-108795699D02*
X140769702Y-108795699D01*
X140866464Y-108844080D01*
X140914845Y-108892460D01*
X140963226Y-108989222D01*
X141011607Y-109182746D01*
X141011607Y-109424651D01*
X140963226Y-109618175D01*
X140914845Y-109714937D01*
X140866464Y-109763318D01*
X140769702Y-109811699D01*
X140672940Y-109811699D01*
X140576179Y-109763318D01*
X140527798Y-109714937D01*
X140479417Y-109618175D01*
X140431036Y-109424651D01*
X140431036Y-109182746D01*
X140479417Y-108989222D01*
X140527798Y-108892460D01*
X140576179Y-108844080D01*
X140672940Y-108795699D01*
X141447036Y-109134365D02*
X141447036Y-109811699D01*
X141447036Y-109231127D02*
X141495417Y-109182746D01*
X141592179Y-109134365D01*
X141737321Y-109134365D01*
X141834083Y-109182746D01*
X141882464Y-109279508D01*
X141882464Y-109811699D01*
X142704940Y-109279508D02*
X142366274Y-109279508D01*
X142366274Y-109811699D02*
X142366274Y-108795699D01*
X142850083Y-108795699D01*
X158280946Y-113397937D02*
X158232565Y-113446318D01*
X158087422Y-113494699D01*
X157990660Y-113494699D01*
X157845518Y-113446318D01*
X157748756Y-113349556D01*
X157700375Y-113252794D01*
X157651994Y-113059270D01*
X157651994Y-112914127D01*
X157700375Y-112720603D01*
X157748756Y-112623841D01*
X157845518Y-112527080D01*
X157990660Y-112478699D01*
X158087422Y-112478699D01*
X158232565Y-112527080D01*
X158280946Y-112575460D01*
X159151803Y-112817365D02*
X159151803Y-113494699D01*
X158909899Y-112430318D02*
X158667994Y-113156032D01*
X159296946Y-113156032D01*
X159823029Y-111233857D02*
X159823029Y-111137095D01*
X159871410Y-111040334D01*
X159919790Y-110991953D01*
X160016552Y-110943572D01*
X160210076Y-110895191D01*
X160451981Y-110895191D01*
X160645505Y-110943572D01*
X160742267Y-110991953D01*
X160790648Y-111040334D01*
X160839029Y-111137095D01*
X160839029Y-111233857D01*
X160790648Y-111330619D01*
X160742267Y-111379000D01*
X160645505Y-111427381D01*
X160451981Y-111475762D01*
X160210076Y-111475762D01*
X160016552Y-111427381D01*
X159919790Y-111379000D01*
X159871410Y-111330619D01*
X159823029Y-111233857D01*
X160742267Y-110459762D02*
X160790648Y-110411381D01*
X160839029Y-110459762D01*
X160790648Y-110508143D01*
X160742267Y-110459762D01*
X160839029Y-110459762D01*
X160839029Y-109443762D02*
X160839029Y-110024334D01*
X160839029Y-109734048D02*
X159823029Y-109734048D01*
X159968171Y-109830810D01*
X160064933Y-109927572D01*
X160113314Y-110024334D01*
X160161695Y-108572905D02*
X160839029Y-108572905D01*
X160161695Y-109008334D02*
X160693886Y-109008334D01*
X160790648Y-108959953D01*
X160839029Y-108863191D01*
X160839029Y-108718048D01*
X160790648Y-108621286D01*
X160742267Y-108572905D01*
X160306838Y-107750429D02*
X160306838Y-108089095D01*
X160839029Y-108089095D02*
X159823029Y-108089095D01*
X159823029Y-107605286D01*
X154491266Y-113438577D02*
X154442885Y-113486958D01*
X154297742Y-113535339D01*
X154200980Y-113535339D01*
X154055838Y-113486958D01*
X153959076Y-113390196D01*
X153910695Y-113293434D01*
X153862314Y-113099910D01*
X153862314Y-112954767D01*
X153910695Y-112761243D01*
X153959076Y-112664481D01*
X154055838Y-112567720D01*
X154200980Y-112519339D01*
X154297742Y-112519339D01*
X154442885Y-112567720D01*
X154491266Y-112616100D01*
X155410504Y-112519339D02*
X154926695Y-112519339D01*
X154878314Y-113003148D01*
X154926695Y-112954767D01*
X155023457Y-112906386D01*
X155265361Y-112906386D01*
X155362123Y-112954767D01*
X155410504Y-113003148D01*
X155458885Y-113099910D01*
X155458885Y-113341815D01*
X155410504Y-113438577D01*
X155362123Y-113486958D01*
X155265361Y-113535339D01*
X155023457Y-113535339D01*
X154926695Y-113486958D01*
X154878314Y-113438577D01*
X157022679Y-109443761D02*
X157022679Y-110024333D01*
X157022679Y-109734047D02*
X156006679Y-109734047D01*
X156151821Y-109830809D01*
X156248583Y-109927571D01*
X156296964Y-110024333D01*
X156345345Y-108572904D02*
X157022679Y-108572904D01*
X156345345Y-109008333D02*
X156877536Y-109008333D01*
X156974298Y-108959952D01*
X157022679Y-108863190D01*
X157022679Y-108718047D01*
X156974298Y-108621285D01*
X156925917Y-108572904D01*
X156490488Y-107750428D02*
X156490488Y-108089095D01*
X157022679Y-108089095D02*
X156006679Y-108089095D01*
X156006679Y-107605285D01*
X158406979Y-92254493D02*
X157923169Y-92593160D01*
X158406979Y-92835064D02*
X157390979Y-92835064D01*
X157390979Y-92448017D01*
X157439360Y-92351255D01*
X157487740Y-92302874D01*
X157584502Y-92254493D01*
X157729645Y-92254493D01*
X157826407Y-92302874D01*
X157874788Y-92351255D01*
X157923169Y-92448017D01*
X157923169Y-92835064D01*
X158406979Y-91286874D02*
X158406979Y-91867445D01*
X158406979Y-91577160D02*
X157390979Y-91577160D01*
X157536121Y-91673921D01*
X157632883Y-91770683D01*
X157681264Y-91867445D01*
X157886158Y-90436579D02*
X157305586Y-90436579D01*
X157595872Y-90436579D02*
X157595872Y-89420579D01*
X157499110Y-89565721D01*
X157402348Y-89662483D01*
X157305586Y-89710864D01*
X158515110Y-89420579D02*
X158611872Y-89420579D01*
X158708634Y-89468960D01*
X158757015Y-89517340D01*
X158805396Y-89614102D01*
X158853777Y-89807626D01*
X158853777Y-90049531D01*
X158805396Y-90243055D01*
X158757015Y-90339817D01*
X158708634Y-90388198D01*
X158611872Y-90436579D01*
X158515110Y-90436579D01*
X158418348Y-90388198D01*
X158369967Y-90339817D01*
X158321586Y-90243055D01*
X158273205Y-90049531D01*
X158273205Y-89807626D01*
X158321586Y-89614102D01*
X158369967Y-89517340D01*
X158418348Y-89468960D01*
X158515110Y-89420579D01*
X159289205Y-90436579D02*
X159289205Y-89420579D01*
X159385967Y-90049531D02*
X159676253Y-90436579D01*
X159676253Y-89759245D02*
X159289205Y-90146293D01*
X160063300Y-90436579D02*
X160305205Y-90436579D01*
X160305205Y-90243055D01*
X160208443Y-90194674D01*
X160111681Y-90097912D01*
X160063300Y-89952769D01*
X160063300Y-89710864D01*
X160111681Y-89565721D01*
X160208443Y-89468960D01*
X160353586Y-89420579D01*
X160547110Y-89420579D01*
X160692253Y-89468960D01*
X160789015Y-89565721D01*
X160837396Y-89710864D01*
X160837396Y-89952769D01*
X160789015Y-90097912D01*
X160692253Y-90194674D01*
X160595491Y-90243055D01*
X160595491Y-90436579D01*
X160837396Y-90436579D01*
X162337205Y-90823626D02*
X162288824Y-90775245D01*
X162192062Y-90630102D01*
X162143681Y-90533340D01*
X162095300Y-90388198D01*
X162046920Y-90146293D01*
X162046920Y-89952769D01*
X162095300Y-89710864D01*
X162143681Y-89565721D01*
X162192062Y-89468960D01*
X162288824Y-89323817D01*
X162337205Y-89275436D01*
X162627491Y-90436579D02*
X163159681Y-89759245D01*
X162627491Y-89759245D02*
X163159681Y-90436579D01*
X163498348Y-89517340D02*
X163546729Y-89468960D01*
X163643491Y-89420579D01*
X163885396Y-89420579D01*
X163982158Y-89468960D01*
X164030539Y-89517340D01*
X164078920Y-89614102D01*
X164078920Y-89710864D01*
X164030539Y-89856007D01*
X163449967Y-90436579D01*
X164078920Y-90436579D01*
X164417586Y-90823626D02*
X164465967Y-90775245D01*
X164562729Y-90630102D01*
X164611110Y-90533340D01*
X164659491Y-90388198D01*
X164707872Y-90146293D01*
X164707872Y-89952769D01*
X164659491Y-89710864D01*
X164611110Y-89565721D01*
X164562729Y-89468960D01*
X164465967Y-89323817D01*
X164417586Y-89275436D01*
X158406979Y-95307573D02*
X157923169Y-95646240D01*
X158406979Y-95888144D02*
X157390979Y-95888144D01*
X157390979Y-95501097D01*
X157439360Y-95404335D01*
X157487740Y-95355954D01*
X157584502Y-95307573D01*
X157729645Y-95307573D01*
X157826407Y-95355954D01*
X157874788Y-95404335D01*
X157923169Y-95501097D01*
X157923169Y-95888144D01*
X157487740Y-94920525D02*
X157439360Y-94872144D01*
X157390979Y-94775382D01*
X157390979Y-94533478D01*
X157439360Y-94436716D01*
X157487740Y-94388335D01*
X157584502Y-94339954D01*
X157681264Y-94339954D01*
X157826407Y-94388335D01*
X158406979Y-94968906D01*
X158406979Y-94339954D01*
X141140059Y-95388853D02*
X140656249Y-95727520D01*
X141140059Y-95969424D02*
X140124059Y-95969424D01*
X140124059Y-95582377D01*
X140172440Y-95485615D01*
X140220820Y-95437234D01*
X140317582Y-95388853D01*
X140462725Y-95388853D01*
X140559487Y-95437234D01*
X140607868Y-95485615D01*
X140656249Y-95582377D01*
X140656249Y-95969424D01*
X140124059Y-95050186D02*
X140124059Y-94421234D01*
X140511106Y-94759900D01*
X140511106Y-94614758D01*
X140559487Y-94517996D01*
X140607868Y-94469615D01*
X140704630Y-94421234D01*
X140946535Y-94421234D01*
X141043297Y-94469615D01*
X141091678Y-94517996D01*
X141140059Y-94614758D01*
X141140059Y-94905043D01*
X141091678Y-95001805D01*
X141043297Y-95050186D01*
X141140059Y-92254493D02*
X140656249Y-92593160D01*
X141140059Y-92835064D02*
X140124059Y-92835064D01*
X140124059Y-92448017D01*
X140172440Y-92351255D01*
X140220820Y-92302874D01*
X140317582Y-92254493D01*
X140462725Y-92254493D01*
X140559487Y-92302874D01*
X140607868Y-92351255D01*
X140656249Y-92448017D01*
X140656249Y-92835064D01*
X140462725Y-91383636D02*
X141140059Y-91383636D01*
X140075678Y-91625540D02*
X140801392Y-91867445D01*
X140801392Y-91238493D01*
X140690358Y-90436579D02*
X140109786Y-90436579D01*
X140400072Y-90436579D02*
X140400072Y-89420579D01*
X140303310Y-89565721D01*
X140206548Y-89662483D01*
X140109786Y-89710864D01*
X141319310Y-89420579D02*
X141416072Y-89420579D01*
X141512834Y-89468960D01*
X141561215Y-89517340D01*
X141609596Y-89614102D01*
X141657977Y-89807626D01*
X141657977Y-90049531D01*
X141609596Y-90243055D01*
X141561215Y-90339817D01*
X141512834Y-90388198D01*
X141416072Y-90436579D01*
X141319310Y-90436579D01*
X141222548Y-90388198D01*
X141174167Y-90339817D01*
X141125786Y-90243055D01*
X141077405Y-90049531D01*
X141077405Y-89807626D01*
X141125786Y-89614102D01*
X141174167Y-89517340D01*
X141222548Y-89468960D01*
X141319310Y-89420579D01*
X142093405Y-90436579D02*
X142093405Y-89420579D01*
X142190167Y-90049531D02*
X142480453Y-90436579D01*
X142480453Y-89759245D02*
X142093405Y-90146293D01*
X142867500Y-90436579D02*
X143109405Y-90436579D01*
X143109405Y-90243055D01*
X143012643Y-90194674D01*
X142915881Y-90097912D01*
X142867500Y-89952769D01*
X142867500Y-89710864D01*
X142915881Y-89565721D01*
X143012643Y-89468960D01*
X143157786Y-89420579D01*
X143351310Y-89420579D01*
X143496453Y-89468960D01*
X143593215Y-89565721D01*
X143641596Y-89710864D01*
X143641596Y-89952769D01*
X143593215Y-90097912D01*
X143496453Y-90194674D01*
X143399691Y-90243055D01*
X143399691Y-90436579D01*
X143641596Y-90436579D01*
X145141405Y-90823626D02*
X145093024Y-90775245D01*
X144996262Y-90630102D01*
X144947881Y-90533340D01*
X144899500Y-90388198D01*
X144851120Y-90146293D01*
X144851120Y-89952769D01*
X144899500Y-89710864D01*
X144947881Y-89565721D01*
X144996262Y-89468960D01*
X145093024Y-89323817D01*
X145141405Y-89275436D01*
X145431691Y-90436579D02*
X145963881Y-89759245D01*
X145431691Y-89759245D02*
X145963881Y-90436579D01*
X146302548Y-89517340D02*
X146350929Y-89468960D01*
X146447691Y-89420579D01*
X146689596Y-89420579D01*
X146786358Y-89468960D01*
X146834739Y-89517340D01*
X146883120Y-89614102D01*
X146883120Y-89710864D01*
X146834739Y-89856007D01*
X146254167Y-90436579D01*
X146883120Y-90436579D01*
X147221786Y-90823626D02*
X147270167Y-90775245D01*
X147366929Y-90630102D01*
X147415310Y-90533340D01*
X147463691Y-90388198D01*
X147512072Y-90146293D01*
X147512072Y-89952769D01*
X147463691Y-89710864D01*
X147415310Y-89565721D01*
X147366929Y-89468960D01*
X147270167Y-89323817D01*
X147221786Y-89275436D01*
X154536986Y-106616379D02*
X154198320Y-106132569D01*
X153956415Y-106616379D02*
X153956415Y-105600379D01*
X154343462Y-105600379D01*
X154440224Y-105648760D01*
X154488605Y-105697140D01*
X154536986Y-105793902D01*
X154536986Y-105939045D01*
X154488605Y-106035807D01*
X154440224Y-106084188D01*
X154343462Y-106132569D01*
X153956415Y-106132569D01*
X155456224Y-105600379D02*
X154972415Y-105600379D01*
X154924034Y-106084188D01*
X154972415Y-106035807D01*
X155069177Y-105987426D01*
X155311081Y-105987426D01*
X155407843Y-106035807D01*
X155456224Y-106084188D01*
X155504605Y-106180950D01*
X155504605Y-106422855D01*
X155456224Y-106519617D01*
X155407843Y-106567998D01*
X155311081Y-106616379D01*
X155069177Y-106616379D01*
X154972415Y-106567998D01*
X154924034Y-106519617D01*
X156949019Y-104029933D02*
X156949019Y-104610504D01*
X156949019Y-104320219D02*
X155933019Y-104320219D01*
X156078161Y-104416980D01*
X156174923Y-104513742D01*
X156223304Y-104610504D01*
X155933019Y-103400980D02*
X155933019Y-103304219D01*
X155981400Y-103207457D01*
X156029780Y-103159076D01*
X156126542Y-103110695D01*
X156320066Y-103062314D01*
X156561971Y-103062314D01*
X156755495Y-103110695D01*
X156852257Y-103159076D01*
X156900638Y-103207457D01*
X156949019Y-103304219D01*
X156949019Y-103400980D01*
X156900638Y-103497742D01*
X156852257Y-103546123D01*
X156755495Y-103594504D01*
X156561971Y-103642885D01*
X156320066Y-103642885D01*
X156126542Y-103594504D01*
X156029780Y-103546123D01*
X155981400Y-103497742D01*
X155933019Y-103400980D01*
X156949019Y-102626885D02*
X155933019Y-102626885D01*
X156561971Y-102530123D02*
X156949019Y-102239838D01*
X156271685Y-102239838D02*
X156658733Y-102626885D01*
X156949019Y-101852790D02*
X156949019Y-101610885D01*
X156755495Y-101610885D01*
X156707114Y-101707647D01*
X156610352Y-101804409D01*
X156465209Y-101852790D01*
X156223304Y-101852790D01*
X156078161Y-101804409D01*
X155981400Y-101707647D01*
X155933019Y-101562504D01*
X155933019Y-101368980D01*
X155981400Y-101223838D01*
X156078161Y-101127076D01*
X156223304Y-101078695D01*
X156465209Y-101078695D01*
X156610352Y-101127076D01*
X156707114Y-101223838D01*
X156755495Y-101320600D01*
X156949019Y-101320600D01*
X156949019Y-101078695D01*
X158280946Y-106702739D02*
X157942280Y-106218929D01*
X157700375Y-106702739D02*
X157700375Y-105686739D01*
X158087422Y-105686739D01*
X158184184Y-105735120D01*
X158232565Y-105783500D01*
X158280946Y-105880262D01*
X158280946Y-106025405D01*
X158232565Y-106122167D01*
X158184184Y-106170548D01*
X158087422Y-106218929D01*
X157700375Y-106218929D01*
X159151803Y-105686739D02*
X158958280Y-105686739D01*
X158861518Y-105735120D01*
X158813137Y-105783500D01*
X158716375Y-105928643D01*
X158667994Y-106122167D01*
X158667994Y-106509215D01*
X158716375Y-106605977D01*
X158764756Y-106654358D01*
X158861518Y-106702739D01*
X159055041Y-106702739D01*
X159151803Y-106654358D01*
X159200184Y-106605977D01*
X159248565Y-106509215D01*
X159248565Y-106267310D01*
X159200184Y-106170548D01*
X159151803Y-106122167D01*
X159055041Y-106073786D01*
X158861518Y-106073786D01*
X158764756Y-106122167D01*
X158716375Y-106170548D01*
X158667994Y-106267310D01*
X160779339Y-104075653D02*
X160779339Y-104656224D01*
X160779339Y-104365939D02*
X159763339Y-104365939D01*
X159908481Y-104462700D01*
X160005243Y-104559462D01*
X160053624Y-104656224D01*
X159763339Y-103446700D02*
X159763339Y-103349939D01*
X159811720Y-103253177D01*
X159860100Y-103204796D01*
X159956862Y-103156415D01*
X160150386Y-103108034D01*
X160392291Y-103108034D01*
X160585815Y-103156415D01*
X160682577Y-103204796D01*
X160730958Y-103253177D01*
X160779339Y-103349939D01*
X160779339Y-103446700D01*
X160730958Y-103543462D01*
X160682577Y-103591843D01*
X160585815Y-103640224D01*
X160392291Y-103688605D01*
X160150386Y-103688605D01*
X159956862Y-103640224D01*
X159860100Y-103591843D01*
X159811720Y-103543462D01*
X159763339Y-103446700D01*
X160779339Y-102672605D02*
X159763339Y-102672605D01*
X160392291Y-102575843D02*
X160779339Y-102285558D01*
X160102005Y-102285558D02*
X160489053Y-102672605D01*
X160779339Y-101898510D02*
X160779339Y-101656605D01*
X160585815Y-101656605D01*
X160537434Y-101753367D01*
X160440672Y-101850129D01*
X160295529Y-101898510D01*
X160053624Y-101898510D01*
X159908481Y-101850129D01*
X159811720Y-101753367D01*
X159763339Y-101608224D01*
X159763339Y-101414700D01*
X159811720Y-101269558D01*
X159908481Y-101172796D01*
X160053624Y-101124415D01*
X160295529Y-101124415D01*
X160440672Y-101172796D01*
X160537434Y-101269558D01*
X160585815Y-101366320D01*
X160779339Y-101366320D01*
X160779339Y-101124415D01*
X150793026Y-106702739D02*
X150454360Y-106218929D01*
X150212455Y-106702739D02*
X150212455Y-105686739D01*
X150599502Y-105686739D01*
X150696264Y-105735120D01*
X150744645Y-105783500D01*
X150793026Y-105880262D01*
X150793026Y-106025405D01*
X150744645Y-106122167D01*
X150696264Y-106170548D01*
X150599502Y-106218929D01*
X150212455Y-106218929D01*
X151131693Y-105686739D02*
X151809026Y-105686739D01*
X151373598Y-106702739D01*
X153118699Y-104029933D02*
X153118699Y-104610504D01*
X153118699Y-104320219D02*
X152102699Y-104320219D01*
X152247841Y-104416980D01*
X152344603Y-104513742D01*
X152392984Y-104610504D01*
X152102699Y-103400980D02*
X152102699Y-103304219D01*
X152151080Y-103207457D01*
X152199460Y-103159076D01*
X152296222Y-103110695D01*
X152489746Y-103062314D01*
X152731651Y-103062314D01*
X152925175Y-103110695D01*
X153021937Y-103159076D01*
X153070318Y-103207457D01*
X153118699Y-103304219D01*
X153118699Y-103400980D01*
X153070318Y-103497742D01*
X153021937Y-103546123D01*
X152925175Y-103594504D01*
X152731651Y-103642885D01*
X152489746Y-103642885D01*
X152296222Y-103594504D01*
X152199460Y-103546123D01*
X152151080Y-103497742D01*
X152102699Y-103400980D01*
X153118699Y-102626885D02*
X152102699Y-102626885D01*
X152731651Y-102530123D02*
X153118699Y-102239838D01*
X152441365Y-102239838D02*
X152828413Y-102626885D01*
X153118699Y-101852790D02*
X153118699Y-101610885D01*
X152925175Y-101610885D01*
X152876794Y-101707647D01*
X152780032Y-101804409D01*
X152634889Y-101852790D01*
X152392984Y-101852790D01*
X152247841Y-101804409D01*
X152151080Y-101707647D01*
X152102699Y-101562504D01*
X152102699Y-101368980D01*
X152151080Y-101223838D01*
X152247841Y-101127076D01*
X152392984Y-101078695D01*
X152634889Y-101078695D01*
X152780032Y-101127076D01*
X152876794Y-101223838D01*
X152925175Y-101320600D01*
X153118699Y-101320600D01*
X153118699Y-101078695D01*
X162111266Y-106616379D02*
X161772600Y-106132569D01*
X161530695Y-106616379D02*
X161530695Y-105600379D01*
X161917742Y-105600379D01*
X162014504Y-105648760D01*
X162062885Y-105697140D01*
X162111266Y-105793902D01*
X162111266Y-105939045D01*
X162062885Y-106035807D01*
X162014504Y-106084188D01*
X161917742Y-106132569D01*
X161530695Y-106132569D01*
X162691838Y-106035807D02*
X162595076Y-105987426D01*
X162546695Y-105939045D01*
X162498314Y-105842283D01*
X162498314Y-105793902D01*
X162546695Y-105697140D01*
X162595076Y-105648760D01*
X162691838Y-105600379D01*
X162885361Y-105600379D01*
X162982123Y-105648760D01*
X163030504Y-105697140D01*
X163078885Y-105793902D01*
X163078885Y-105842283D01*
X163030504Y-105939045D01*
X162982123Y-105987426D01*
X162885361Y-106035807D01*
X162691838Y-106035807D01*
X162595076Y-106084188D01*
X162546695Y-106132569D01*
X162498314Y-106229331D01*
X162498314Y-106422855D01*
X162546695Y-106519617D01*
X162595076Y-106567998D01*
X162691838Y-106616379D01*
X162885361Y-106616379D01*
X162982123Y-106567998D01*
X163030504Y-106519617D01*
X163078885Y-106422855D01*
X163078885Y-106229331D01*
X163030504Y-106132569D01*
X162982123Y-106084188D01*
X162885361Y-106035807D01*
X164569019Y-103989293D02*
X164569019Y-104569864D01*
X164569019Y-104279579D02*
X163553019Y-104279579D01*
X163698161Y-104376340D01*
X163794923Y-104473102D01*
X163843304Y-104569864D01*
X163553019Y-103360340D02*
X163553019Y-103263579D01*
X163601400Y-103166817D01*
X163649780Y-103118436D01*
X163746542Y-103070055D01*
X163940066Y-103021674D01*
X164181971Y-103021674D01*
X164375495Y-103070055D01*
X164472257Y-103118436D01*
X164520638Y-103166817D01*
X164569019Y-103263579D01*
X164569019Y-103360340D01*
X164520638Y-103457102D01*
X164472257Y-103505483D01*
X164375495Y-103553864D01*
X164181971Y-103602245D01*
X163940066Y-103602245D01*
X163746542Y-103553864D01*
X163649780Y-103505483D01*
X163601400Y-103457102D01*
X163553019Y-103360340D01*
X164569019Y-102586245D02*
X163553019Y-102586245D01*
X164181971Y-102489483D02*
X164569019Y-102199198D01*
X163891685Y-102199198D02*
X164278733Y-102586245D01*
X164569019Y-101812150D02*
X164569019Y-101570245D01*
X164375495Y-101570245D01*
X164327114Y-101667007D01*
X164230352Y-101763769D01*
X164085209Y-101812150D01*
X163843304Y-101812150D01*
X163698161Y-101763769D01*
X163601400Y-101667007D01*
X163553019Y-101521864D01*
X163553019Y-101328340D01*
X163601400Y-101183198D01*
X163698161Y-101086436D01*
X163843304Y-101038055D01*
X164085209Y-101038055D01*
X164230352Y-101086436D01*
X164327114Y-101183198D01*
X164375495Y-101279960D01*
X164569019Y-101279960D01*
X164569019Y-101038055D01*
D15*
X146508380Y-95034004D02*
X147317904Y-95034004D01*
X147413142Y-94986385D01*
X147460761Y-94938766D01*
X147508380Y-94843528D01*
X147508380Y-94653052D01*
X147460761Y-94557814D01*
X147413142Y-94510195D01*
X147317904Y-94462576D01*
X146508380Y-94462576D01*
X146603619Y-94034004D02*
X146556000Y-93986385D01*
X146508380Y-93891147D01*
X146508380Y-93653052D01*
X146556000Y-93557814D01*
X146603619Y-93510195D01*
X146698857Y-93462576D01*
X146794095Y-93462576D01*
X146936952Y-93510195D01*
X147508380Y-94081623D01*
X147508380Y-93462576D01*
X152172580Y-95072104D02*
X152982104Y-95072104D01*
X153077342Y-95024485D01*
X153124961Y-94976866D01*
X153172580Y-94881628D01*
X153172580Y-94691152D01*
X153124961Y-94595914D01*
X153077342Y-94548295D01*
X152982104Y-94500676D01*
X152172580Y-94500676D01*
X153172580Y-93500676D02*
X153172580Y-94072104D01*
X153172580Y-93786390D02*
X152172580Y-93786390D01*
X152315438Y-93881628D01*
X152410676Y-93976866D01*
X152458295Y-94072104D01*
D13*
X146239653Y-106124828D02*
X145900986Y-106124828D01*
X145900986Y-106657019D02*
X145900986Y-105641019D01*
X146384796Y-105641019D01*
X147110510Y-106124828D02*
X147255653Y-106173209D01*
X147304034Y-106221590D01*
X147352415Y-106318352D01*
X147352415Y-106463495D01*
X147304034Y-106560257D01*
X147255653Y-106608638D01*
X147158891Y-106657019D01*
X146771843Y-106657019D01*
X146771843Y-105641019D01*
X147110510Y-105641019D01*
X147207272Y-105689400D01*
X147255653Y-105737780D01*
X147304034Y-105834542D01*
X147304034Y-105931304D01*
X147255653Y-106028066D01*
X147207272Y-106076447D01*
X147110510Y-106124828D01*
X146771843Y-106124828D01*
X147739462Y-105737780D02*
X147787843Y-105689400D01*
X147884605Y-105641019D01*
X148126510Y-105641019D01*
X148223272Y-105689400D01*
X148271653Y-105737780D01*
X148320034Y-105834542D01*
X148320034Y-105931304D01*
X148271653Y-106076447D01*
X147691081Y-106657019D01*
X148320034Y-106657019D01*
X149374739Y-104444558D02*
X149374739Y-105025129D01*
X149374739Y-104734843D02*
X148358739Y-104734843D01*
X148503881Y-104831605D01*
X148600643Y-104928367D01*
X148649024Y-105025129D01*
X149277977Y-104009129D02*
X149326358Y-103960748D01*
X149374739Y-104009129D01*
X149326358Y-104057510D01*
X149277977Y-104009129D01*
X149374739Y-104009129D01*
X148358739Y-103041510D02*
X148358739Y-103525320D01*
X148842548Y-103573700D01*
X148794167Y-103525320D01*
X148745786Y-103428558D01*
X148745786Y-103186653D01*
X148794167Y-103089891D01*
X148842548Y-103041510D01*
X148939310Y-102993129D01*
X149181215Y-102993129D01*
X149277977Y-103041510D01*
X149326358Y-103089891D01*
X149374739Y-103186653D01*
X149374739Y-103428558D01*
X149326358Y-103525320D01*
X149277977Y-103573700D01*
X149374739Y-102557700D02*
X148358739Y-102557700D01*
X148987691Y-102460939D02*
X149374739Y-102170653D01*
X148697405Y-102170653D02*
X149084453Y-102557700D01*
X149374739Y-101783605D02*
X149374739Y-101541700D01*
X149181215Y-101541700D01*
X149132834Y-101638462D01*
X149036072Y-101735224D01*
X148890929Y-101783605D01*
X148649024Y-101783605D01*
X148503881Y-101735224D01*
X148407120Y-101638462D01*
X148358739Y-101493320D01*
X148358739Y-101299796D01*
X148407120Y-101154653D01*
X148503881Y-101057891D01*
X148649024Y-101009510D01*
X148890929Y-101009510D01*
X149036072Y-101057891D01*
X149132834Y-101154653D01*
X149181215Y-101251415D01*
X149374739Y-101251415D01*
X149374739Y-101009510D01*
X150024253Y-113003148D02*
X149685586Y-113003148D01*
X149685586Y-113535339D02*
X149685586Y-112519339D01*
X150169396Y-112519339D01*
X150895110Y-113003148D02*
X151040253Y-113051529D01*
X151088634Y-113099910D01*
X151137015Y-113196672D01*
X151137015Y-113341815D01*
X151088634Y-113438577D01*
X151040253Y-113486958D01*
X150943491Y-113535339D01*
X150556443Y-113535339D01*
X150556443Y-112519339D01*
X150895110Y-112519339D01*
X150991872Y-112567720D01*
X151040253Y-112616100D01*
X151088634Y-112712862D01*
X151088634Y-112809624D01*
X151040253Y-112906386D01*
X150991872Y-112954767D01*
X150895110Y-113003148D01*
X150556443Y-113003148D01*
X152104634Y-113535339D02*
X151524062Y-113535339D01*
X151814348Y-113535339D02*
X151814348Y-112519339D01*
X151717586Y-112664481D01*
X151620824Y-112761243D01*
X151524062Y-112809624D01*
X153206329Y-111088715D02*
X153206329Y-111669286D01*
X153206329Y-111379000D02*
X152190329Y-111379000D01*
X152335471Y-111475762D01*
X152432233Y-111572524D01*
X152480614Y-111669286D01*
X153109567Y-110653286D02*
X153157948Y-110604905D01*
X153206329Y-110653286D01*
X153157948Y-110701667D01*
X153109567Y-110653286D01*
X153206329Y-110653286D01*
X152190329Y-109685667D02*
X152190329Y-110169477D01*
X152674138Y-110217857D01*
X152625757Y-110169477D01*
X152577376Y-110072715D01*
X152577376Y-109830810D01*
X152625757Y-109734048D01*
X152674138Y-109685667D01*
X152770900Y-109637286D01*
X153012805Y-109637286D01*
X153109567Y-109685667D01*
X153157948Y-109734048D01*
X153206329Y-109830810D01*
X153206329Y-110072715D01*
X153157948Y-110169477D01*
X153109567Y-110217857D01*
X153206329Y-109201857D02*
X152190329Y-109201857D01*
X152819281Y-109105096D02*
X153206329Y-108814810D01*
X152528995Y-108814810D02*
X152916043Y-109201857D01*
X153206329Y-108427762D02*
X153206329Y-108185857D01*
X153012805Y-108185857D01*
X152964424Y-108282619D01*
X152867662Y-108379381D01*
X152722519Y-108427762D01*
X152480614Y-108427762D01*
X152335471Y-108379381D01*
X152238710Y-108282619D01*
X152190329Y-108137477D01*
X152190329Y-107943953D01*
X152238710Y-107798810D01*
X152335471Y-107702048D01*
X152480614Y-107653667D01*
X152722519Y-107653667D01*
X152867662Y-107702048D01*
X152964424Y-107798810D01*
X153012805Y-107895572D01*
X153206329Y-107895572D01*
X153206329Y-107653667D01*
M02*
