M48
; DRILL file {KiCad (5.1.5-0-10_14)} date 2020 December 02, Wednesday 09:36:50
; FORMAT={-:-/ absolute / metric / decimal}
; #@! TF.CreationDate,2020-12-02T09:36:50+01:00
; #@! TF.GenerationSoftware,Kicad,Pcbnew,(5.1.5-0-10_14)
FMAT,2
METRIC
T1C0.400
T2C1.016
T3C1.200
T4C2.000
%
G90
G05
T1
X141.65Y-74.35
X146.16Y-105.34
X146.2Y-94.2
X147.7Y-75.043
X147.879Y-87.935
X148.026Y-76.824
X149.86Y-97.688
X150.012Y-92.151
X152.248Y-78.842
X153.111Y-97.688
X153.213Y-93.218
X153.365Y-79.807
X155.753Y-88.29
X156.058Y-103.581
X156.566Y-93.929
X156.667Y-97.688
X156.769Y-81.432
X157.074Y-89.002
X157.988Y-84.734
X158.949Y-85.238
X159.586Y-88.775
X160.122Y-80.467
X161.36Y-76.6
X163.399Y-71.301
X165.06Y-75.91
X167.55Y-73.5
X172.5Y-92.3
T2
X162.662Y-81.178
X162.662Y-83.718
X162.662Y-86.258
X162.662Y-88.798
X162.662Y-91.338
X162.662Y-93.878
X162.662Y-96.418
X162.662Y-98.958
X162.662Y-101.498
X162.662Y-104.038
X149.657Y-74.524
X152.197Y-74.524
X154.737Y-74.524
X157.277Y-74.524
X159.817Y-74.524
X162.357Y-74.524
X149.657Y-62.33
X152.197Y-62.33
X154.737Y-62.33
X157.277Y-62.33
X159.817Y-62.33
X162.357Y-62.33
T3
X169.9Y-86.3
X169.9Y-89.8
X142.8Y-86.5
X142.8Y-90.0
T4
X150.212Y-81.178
X150.212Y-104.038
T0
M30
