G04 #@! TF.GenerationSoftware,KiCad,Pcbnew,(5.1.5-0-10_14)*
G04 #@! TF.CreationDate,2020-12-02T09:36:47+01:00*
G04 #@! TF.ProjectId,smartcitizen-adc-4-ch,736d6172-7463-4697-9469-7a656e2d6164,rev?*
G04 #@! TF.SameCoordinates,Original*
G04 #@! TF.FileFunction,Copper,L2,Bot*
G04 #@! TF.FilePolarity,Positive*
%FSLAX46Y46*%
G04 Gerber Fmt 4.6, Leading zero omitted, Abs format (unit mm)*
G04 Created by KiCad (PCBNEW (5.1.5-0-10_14)) date 2020-12-02 09:36:47*
%MOMM*%
%LPD*%
G04 APERTURE LIST*
%ADD10C,2.400000*%
%ADD11R,2.400000X2.400000*%
%ADD12R,1.905000X1.270000*%
%ADD13R,1.270000X1.905000*%
%ADD14O,1.524000X3.048000*%
%ADD15R,0.250000X1.100000*%
%ADD16O,3.048000X1.524000*%
%ADD17C,3.048000*%
%ADD18C,0.800000*%
%ADD19C,0.800000*%
%ADD20C,0.250000*%
%ADD21C,0.400000*%
G04 APERTURE END LIST*
D10*
X169900000Y-86300000D03*
D11*
X169900000Y-89800000D03*
D10*
X142800000Y-90000000D03*
D11*
X142800000Y-86500000D03*
D12*
X154076400Y-83540600D03*
X154076400Y-86842600D03*
D13*
X158191200Y-93929200D03*
X154889200Y-93929200D03*
X155067000Y-80010000D03*
X158369000Y-80010000D03*
D14*
X162356800Y-62330000D03*
X159816800Y-62330000D03*
X157276800Y-62330000D03*
X154736800Y-62330000D03*
X152196800Y-62330000D03*
X149656800Y-62330000D03*
X149656800Y-74523600D03*
X152196800Y-74523600D03*
X154736800Y-74523600D03*
X157276800Y-74523600D03*
X159816800Y-74523600D03*
X162356800Y-74523600D03*
D15*
X157394400Y-87189200D03*
X157894400Y-87189200D03*
X158394400Y-87189200D03*
X158894400Y-87189200D03*
X159394400Y-87189200D03*
X159394400Y-82889200D03*
X158894400Y-82889200D03*
X158394400Y-82889200D03*
X157894400Y-82889200D03*
X157394400Y-82889200D03*
D16*
X162661600Y-104038400D03*
X162661600Y-101498400D03*
X162661600Y-98958400D03*
X162661600Y-96418400D03*
X162661600Y-93878400D03*
X162661600Y-91338400D03*
X162661600Y-88798400D03*
X162661600Y-86258400D03*
X162661600Y-83718400D03*
X162661600Y-81178400D03*
D17*
X150211600Y-104038400D03*
X150211600Y-81178400D03*
D13*
X158216600Y-97688400D03*
X154914600Y-97688400D03*
X155016200Y-90576400D03*
X158318200Y-90576400D03*
D18*
X146160000Y-105340000D03*
X172500000Y-92300000D03*
X163398959Y-71301041D03*
X153365200Y-79806800D03*
X150012400Y-92151200D03*
X147700000Y-75042840D03*
X147878800Y-87934800D03*
X152247600Y-78841600D03*
X148026041Y-76823959D03*
X156667200Y-97688400D03*
X146200000Y-94200000D03*
X167550000Y-73500000D03*
X141650000Y-74350000D03*
X158949192Y-85238392D03*
X165060000Y-75910000D03*
X157988000Y-84734400D03*
X160121600Y-80467200D03*
X161360000Y-76600000D03*
X155752800Y-88290400D03*
X153212800Y-93218000D03*
X156057600Y-103581200D03*
X159585713Y-88775487D03*
X149860000Y-97688400D03*
X153111200Y-97688400D03*
X157073600Y-89001600D03*
X156768800Y-81432400D03*
X156565600Y-93929200D03*
D19*
X146160000Y-105340000D02*
X148720000Y-107900000D01*
X148720000Y-107900000D02*
X163600000Y-107900000D01*
X163600000Y-107900000D02*
X169900000Y-101600000D01*
X169900000Y-101600000D02*
X169900000Y-95100000D01*
X172500000Y-92500000D02*
X172500000Y-92300000D01*
X169900000Y-95100000D02*
X172500000Y-92500000D01*
D20*
X156163900Y-85957600D02*
X155278900Y-86842600D01*
X158012802Y-85957600D02*
X156163900Y-85957600D01*
X158394401Y-86339199D02*
X158012802Y-85957600D01*
X155278900Y-86842600D02*
X154076400Y-86842600D01*
X158394400Y-87189200D02*
X158394401Y-86339199D01*
X154914600Y-87680800D02*
X154076400Y-86842600D01*
X154914600Y-90424000D02*
X154914600Y-87680800D01*
D21*
X154914600Y-90424000D02*
X154914600Y-93929200D01*
X160737600Y-104038400D02*
X159112000Y-102412800D01*
X162661600Y-104038400D02*
X160737600Y-104038400D01*
X159112000Y-102412800D02*
X153873200Y-102412800D01*
X153873200Y-102412800D02*
X151739600Y-100279200D01*
X151739600Y-96043800D02*
X153854200Y-93929200D01*
X153854200Y-93929200D02*
X154889200Y-93929200D01*
X151739600Y-100279200D02*
X151739600Y-96043800D01*
D19*
X167000010Y-99918873D02*
X167000010Y-74900010D01*
X162880483Y-104038400D02*
X167000010Y-99918873D01*
X162661600Y-104038400D02*
X162880483Y-104038400D01*
X167000010Y-74900010D02*
X163900000Y-71800000D01*
X163897918Y-71800000D02*
X163398959Y-71301041D01*
X163900000Y-71800000D02*
X163897918Y-71800000D01*
D21*
X150012400Y-85218374D02*
X150012400Y-92151200D01*
X153365200Y-81865574D02*
X150012400Y-85218374D01*
X153365200Y-79806800D02*
X153365200Y-81865574D01*
X153365200Y-78701198D02*
X153365200Y-79806800D01*
X152655601Y-77991599D02*
X153365200Y-78701198D01*
X150648759Y-77991599D02*
X152655601Y-77991599D01*
X147700000Y-75042840D02*
X150648759Y-77991599D01*
X147878800Y-87934800D02*
X147878800Y-80589678D01*
X150043682Y-78841600D02*
X148026041Y-76823959D01*
X152247600Y-78841600D02*
X150043682Y-78841600D01*
X149626878Y-78841600D02*
X152247600Y-78841600D01*
X147878800Y-80589678D02*
X149626878Y-78841600D01*
X154736800Y-79679800D02*
X155067000Y-80010000D01*
X154736800Y-74523600D02*
X154736800Y-79679800D01*
D20*
X158394400Y-80035400D02*
X158369000Y-80010000D01*
X158394400Y-82889200D02*
X158394400Y-80035400D01*
D21*
X154076400Y-81000600D02*
X155067000Y-80010000D01*
X154076400Y-83540600D02*
X154076400Y-81000600D01*
X158216600Y-98977400D02*
X158216600Y-97688400D01*
X160737600Y-101498400D02*
X158216600Y-98977400D01*
X162661600Y-101498400D02*
X160737600Y-101498400D01*
X158216600Y-97688400D02*
X156667200Y-97688400D01*
D19*
X152196800Y-69659600D02*
X152196800Y-62330000D01*
X149656800Y-72199600D02*
X152196800Y-69659600D01*
X149656800Y-74523600D02*
X149656800Y-72199600D01*
X142800000Y-86500000D02*
X142800000Y-75500000D01*
X144800000Y-86500000D02*
X142800000Y-86500000D01*
X146200000Y-87900000D02*
X144800000Y-86500000D01*
X146200000Y-94200000D02*
X146200000Y-87900000D01*
X142800000Y-75500000D02*
X141650000Y-74350000D01*
X171900000Y-89800000D02*
X169900000Y-89800000D01*
X172900000Y-84800000D02*
X172900000Y-88800000D01*
X168923970Y-80823970D02*
X172900000Y-84800000D01*
X172900000Y-88800000D02*
X171900000Y-89800000D01*
X168923970Y-74873970D02*
X168923970Y-80823970D01*
X167550000Y-73500000D02*
X168923970Y-74873970D01*
D20*
X159410400Y-84777184D02*
X158949192Y-85238392D01*
X159410400Y-82905200D02*
X159410400Y-84777184D01*
X159394400Y-82889200D02*
X159410400Y-82905200D01*
D21*
X164585600Y-86258400D02*
X165180000Y-85664000D01*
X162661600Y-86258400D02*
X164585600Y-86258400D01*
X165180000Y-76030000D02*
X165060000Y-75910000D01*
X165180000Y-85664000D02*
X165180000Y-76030000D01*
D20*
X158894400Y-83828000D02*
X157988000Y-84734400D01*
X158894400Y-82889200D02*
X158894400Y-83828000D01*
D21*
X166150000Y-87234000D02*
X166150000Y-75667200D01*
X154736800Y-64254000D02*
X154736800Y-62330000D01*
X166150000Y-75667200D02*
X154736800Y-64254000D01*
X164585600Y-88798400D02*
X166150000Y-87234000D01*
X162661600Y-88798400D02*
X164585600Y-88798400D01*
X157276800Y-76403200D02*
X157276800Y-74523600D01*
X160121600Y-79248000D02*
X157276800Y-76403200D01*
D20*
X160887600Y-83718400D02*
X162661600Y-83718400D01*
X160477200Y-84226400D02*
X160887600Y-83718400D01*
X160477200Y-86512400D02*
X160477200Y-84226400D01*
X159769400Y-87189200D02*
X160477200Y-86512400D01*
X159394400Y-87189200D02*
X159769400Y-87189200D01*
D21*
X160121600Y-79248000D02*
X160121600Y-80467200D01*
X152209500Y-74422000D02*
X152590500Y-74422000D01*
X163385500Y-81089500D02*
X162623500Y-81089500D01*
D20*
X158894400Y-86389200D02*
X158894400Y-87189200D01*
X159910410Y-85373190D02*
X158894400Y-86389200D01*
X159910410Y-83929590D02*
X159910410Y-85373190D01*
X162661600Y-81178400D02*
X159910410Y-83929590D01*
D21*
X162661600Y-81178400D02*
X162661600Y-77897990D01*
X162661600Y-77897990D02*
X161360000Y-76600000D01*
D20*
X157394400Y-87189200D02*
X156854000Y-87189200D01*
X156854000Y-87189200D02*
X155752800Y-88290400D01*
D21*
X151089590Y-95341210D02*
X153212800Y-93218000D01*
X154122348Y-103581200D02*
X156057600Y-103581200D01*
X151089590Y-100548442D02*
X154122348Y-103581200D01*
X151089590Y-95341210D02*
X151089590Y-100548442D01*
D20*
X158680687Y-88775487D02*
X159585713Y-88775487D01*
X157894400Y-87989200D02*
X158680687Y-88775487D01*
X157894400Y-87189200D02*
X157894400Y-87989200D01*
D21*
X160737600Y-93878400D02*
X158807200Y-95808800D01*
X162661600Y-93878400D02*
X160737600Y-93878400D01*
X154914600Y-96335900D02*
X154914600Y-97688400D01*
X155441700Y-95808800D02*
X154914600Y-96335900D01*
X158807200Y-95808800D02*
X155441700Y-95808800D01*
D20*
X153111200Y-97688400D02*
X154914600Y-97688400D01*
X149860000Y-95757614D02*
X149860000Y-97688400D01*
X152044400Y-93573214D02*
X149860000Y-95757614D01*
X152044400Y-85242400D02*
X152044400Y-93573214D01*
X155041600Y-85242400D02*
X152044400Y-85242400D01*
X157019400Y-82889200D02*
X155041600Y-85242400D01*
X157394400Y-82889200D02*
X157019400Y-82889200D01*
D21*
X160737600Y-91338400D02*
X158242000Y-90576400D01*
X162661600Y-91338400D02*
X160737600Y-91338400D01*
D20*
X157073600Y-90216800D02*
X157073600Y-89001600D01*
X157433200Y-90576400D02*
X157073600Y-90216800D01*
X158318200Y-90576400D02*
X157433200Y-90576400D01*
X157894400Y-81992315D02*
X157894400Y-82889200D01*
X157334485Y-81432400D02*
X157894400Y-81992315D01*
X156768800Y-81432400D02*
X157334485Y-81432400D01*
D21*
X158191200Y-93929200D02*
X156565600Y-93929200D01*
M02*
