G04 #@! TF.GenerationSoftware,KiCad,Pcbnew,(5.1.5-0-10_14)*
G04 #@! TF.CreationDate,2020-12-02T11:51:34+01:00*
G04 #@! TF.ProjectId,smartcitizen-adc-4-ch,736d6172-7463-4697-9469-7a656e2d6164,rev?*
G04 #@! TF.SameCoordinates,Original*
G04 #@! TF.FileFunction,Legend,Bot*
G04 #@! TF.FilePolarity,Positive*
%FSLAX46Y46*%
G04 Gerber Fmt 4.6, Leading zero omitted, Abs format (unit mm)*
G04 Created by KiCad (PCBNEW (5.1.5-0-10_14)) date 2020-12-02 11:51:34*
%MOMM*%
%LPD*%
G04 APERTURE LIST*
%ADD10C,0.200000*%
%ADD11C,0.010000*%
%ADD12C,0.127000*%
%ADD13C,0.150000*%
%ADD14C,0.066040*%
%ADD15C,0.152400*%
%ADD16C,0.120000*%
G04 APERTURE END LIST*
D10*
X153101428Y-113060714D02*
X153230000Y-113017857D01*
X153444285Y-113017857D01*
X153530000Y-113060714D01*
X153572857Y-113103571D01*
X153615714Y-113189285D01*
X153615714Y-113275000D01*
X153572857Y-113360714D01*
X153530000Y-113403571D01*
X153444285Y-113446428D01*
X153272857Y-113489285D01*
X153187142Y-113532142D01*
X153144285Y-113575000D01*
X153101428Y-113660714D01*
X153101428Y-113746428D01*
X153144285Y-113832142D01*
X153187142Y-113875000D01*
X153272857Y-113917857D01*
X153487142Y-113917857D01*
X153615714Y-113875000D01*
X154001428Y-113017857D02*
X154001428Y-113617857D01*
X154001428Y-113532142D02*
X154044285Y-113575000D01*
X154130000Y-113617857D01*
X154258571Y-113617857D01*
X154344285Y-113575000D01*
X154387142Y-113489285D01*
X154387142Y-113017857D01*
X154387142Y-113489285D02*
X154430000Y-113575000D01*
X154515714Y-113617857D01*
X154644285Y-113617857D01*
X154730000Y-113575000D01*
X154772857Y-113489285D01*
X154772857Y-113017857D01*
X155587142Y-113017857D02*
X155587142Y-113489285D01*
X155544285Y-113575000D01*
X155458571Y-113617857D01*
X155287142Y-113617857D01*
X155201428Y-113575000D01*
X155587142Y-113060714D02*
X155501428Y-113017857D01*
X155287142Y-113017857D01*
X155201428Y-113060714D01*
X155158571Y-113146428D01*
X155158571Y-113232142D01*
X155201428Y-113317857D01*
X155287142Y-113360714D01*
X155501428Y-113360714D01*
X155587142Y-113403571D01*
X156015714Y-113017857D02*
X156015714Y-113617857D01*
X156015714Y-113446428D02*
X156058571Y-113532142D01*
X156101428Y-113575000D01*
X156187142Y-113617857D01*
X156272857Y-113617857D01*
X156444285Y-113617857D02*
X156787142Y-113617857D01*
X156572857Y-113917857D02*
X156572857Y-113146428D01*
X156615714Y-113060714D01*
X156701428Y-113017857D01*
X156787142Y-113017857D01*
X157601428Y-113103571D02*
X157558571Y-113060714D01*
X157430000Y-113017857D01*
X157344285Y-113017857D01*
X157215714Y-113060714D01*
X157130000Y-113146428D01*
X157087142Y-113232142D01*
X157044285Y-113403571D01*
X157044285Y-113532142D01*
X157087142Y-113703571D01*
X157130000Y-113789285D01*
X157215714Y-113875000D01*
X157344285Y-113917857D01*
X157430000Y-113917857D01*
X157558571Y-113875000D01*
X157601428Y-113832142D01*
X157987142Y-113017857D02*
X157987142Y-113617857D01*
X157987142Y-113917857D02*
X157944285Y-113875000D01*
X157987142Y-113832142D01*
X158030000Y-113875000D01*
X157987142Y-113917857D01*
X157987142Y-113832142D01*
X158287142Y-113617857D02*
X158630000Y-113617857D01*
X158415714Y-113917857D02*
X158415714Y-113146428D01*
X158458571Y-113060714D01*
X158544285Y-113017857D01*
X158630000Y-113017857D01*
X158930000Y-113017857D02*
X158930000Y-113617857D01*
X158930000Y-113917857D02*
X158887142Y-113875000D01*
X158930000Y-113832142D01*
X158972857Y-113875000D01*
X158930000Y-113917857D01*
X158930000Y-113832142D01*
X159272857Y-113617857D02*
X159744285Y-113617857D01*
X159272857Y-113017857D01*
X159744285Y-113017857D01*
X160430000Y-113060714D02*
X160344285Y-113017857D01*
X160172857Y-113017857D01*
X160087142Y-113060714D01*
X160044285Y-113146428D01*
X160044285Y-113489285D01*
X160087142Y-113575000D01*
X160172857Y-113617857D01*
X160344285Y-113617857D01*
X160430000Y-113575000D01*
X160472857Y-113489285D01*
X160472857Y-113403571D01*
X160044285Y-113317857D01*
X160858571Y-113617857D02*
X160858571Y-113017857D01*
X160858571Y-113532142D02*
X160901428Y-113575000D01*
X160987142Y-113617857D01*
X161115714Y-113617857D01*
X161201428Y-113575000D01*
X161244285Y-113489285D01*
X161244285Y-113017857D01*
X162315714Y-113275000D02*
X162744285Y-113275000D01*
X162230000Y-113017857D02*
X162530000Y-113917857D01*
X162830000Y-113017857D01*
X163087142Y-113060714D02*
X163215714Y-113017857D01*
X163430000Y-113017857D01*
X163515714Y-113060714D01*
X163558571Y-113103571D01*
X163601428Y-113189285D01*
X163601428Y-113275000D01*
X163558571Y-113360714D01*
X163515714Y-113403571D01*
X163430000Y-113446428D01*
X163258571Y-113489285D01*
X163172857Y-113532142D01*
X163130000Y-113575000D01*
X163087142Y-113660714D01*
X163087142Y-113746428D01*
X163130000Y-113832142D01*
X163172857Y-113875000D01*
X163258571Y-113917857D01*
X163472857Y-113917857D01*
X163601428Y-113875000D01*
X164287142Y-113489285D02*
X164415714Y-113446428D01*
X164458571Y-113403571D01*
X164501428Y-113317857D01*
X164501428Y-113189285D01*
X164458571Y-113103571D01*
X164415714Y-113060714D01*
X164330000Y-113017857D01*
X163987142Y-113017857D01*
X163987142Y-113917857D01*
X164287142Y-113917857D01*
X164372857Y-113875000D01*
X164415714Y-113832142D01*
X164458571Y-113746428D01*
X164458571Y-113660714D01*
X164415714Y-113575000D01*
X164372857Y-113532142D01*
X164287142Y-113489285D01*
X163987142Y-113489285D01*
X153530000Y-112067857D02*
X153530000Y-111467857D01*
X153315714Y-112410714D02*
X153101428Y-111767857D01*
X153658571Y-111767857D01*
X154001428Y-111810714D02*
X154687142Y-111810714D01*
X155501428Y-111510714D02*
X155415714Y-111467857D01*
X155244285Y-111467857D01*
X155158571Y-111510714D01*
X155115714Y-111553571D01*
X155072857Y-111639285D01*
X155072857Y-111896428D01*
X155115714Y-111982142D01*
X155158571Y-112025000D01*
X155244285Y-112067857D01*
X155415714Y-112067857D01*
X155501428Y-112025000D01*
X155887142Y-111467857D02*
X155887142Y-112367857D01*
X156272857Y-111467857D02*
X156272857Y-111939285D01*
X156230000Y-112025000D01*
X156144285Y-112067857D01*
X156015714Y-112067857D01*
X155930000Y-112025000D01*
X155887142Y-111982142D01*
X157387142Y-111467857D02*
X157387142Y-112367857D01*
X157772857Y-112282142D02*
X157815714Y-112325000D01*
X157901428Y-112367857D01*
X158115714Y-112367857D01*
X158201428Y-112325000D01*
X158244285Y-112282142D01*
X158287142Y-112196428D01*
X158287142Y-112110714D01*
X158244285Y-111982142D01*
X157730000Y-111467857D01*
X158287142Y-111467857D01*
X159187142Y-111553571D02*
X159144285Y-111510714D01*
X159015714Y-111467857D01*
X158930000Y-111467857D01*
X158801428Y-111510714D01*
X158715714Y-111596428D01*
X158672857Y-111682142D01*
X158630000Y-111853571D01*
X158630000Y-111982142D01*
X158672857Y-112153571D01*
X158715714Y-112239285D01*
X158801428Y-112325000D01*
X158930000Y-112367857D01*
X159015714Y-112367857D01*
X159144285Y-112325000D01*
X159187142Y-112282142D01*
X153144285Y-109917857D02*
X153144285Y-110817857D01*
X153530000Y-110732142D02*
X153572857Y-110775000D01*
X153658571Y-110817857D01*
X153872857Y-110817857D01*
X153958571Y-110775000D01*
X154001428Y-110732142D01*
X154044285Y-110646428D01*
X154044285Y-110560714D01*
X154001428Y-110432142D01*
X153487142Y-109917857D01*
X154044285Y-109917857D01*
X154944285Y-110003571D02*
X154901428Y-109960714D01*
X154772857Y-109917857D01*
X154687142Y-109917857D01*
X154558571Y-109960714D01*
X154472857Y-110046428D01*
X154430000Y-110132142D01*
X154387142Y-110303571D01*
X154387142Y-110432142D01*
X154430000Y-110603571D01*
X154472857Y-110689285D01*
X154558571Y-110775000D01*
X154687142Y-110817857D01*
X154772857Y-110817857D01*
X154901428Y-110775000D01*
X154944285Y-110732142D01*
X155330000Y-110003571D02*
X155372857Y-109960714D01*
X155330000Y-109917857D01*
X155287142Y-109960714D01*
X155330000Y-110003571D01*
X155330000Y-109917857D01*
X155330000Y-110475000D02*
X155372857Y-110432142D01*
X155330000Y-110389285D01*
X155287142Y-110432142D01*
X155330000Y-110475000D01*
X155330000Y-110389285D01*
X156358571Y-110817857D02*
X156915714Y-110817857D01*
X156615714Y-110475000D01*
X156744285Y-110475000D01*
X156830000Y-110432142D01*
X156872857Y-110389285D01*
X156915714Y-110303571D01*
X156915714Y-110089285D01*
X156872857Y-110003571D01*
X156830000Y-109960714D01*
X156744285Y-109917857D01*
X156487142Y-109917857D01*
X156401428Y-109960714D01*
X156358571Y-110003571D01*
X157301428Y-110003571D02*
X157344285Y-109960714D01*
X157301428Y-109917857D01*
X157258571Y-109960714D01*
X157301428Y-110003571D01*
X157301428Y-109917857D01*
X157644285Y-110817857D02*
X158201428Y-110817857D01*
X157901428Y-110475000D01*
X158030000Y-110475000D01*
X158115714Y-110432142D01*
X158158571Y-110389285D01*
X158201428Y-110303571D01*
X158201428Y-110089285D01*
X158158571Y-110003571D01*
X158115714Y-109960714D01*
X158030000Y-109917857D01*
X157772857Y-109917857D01*
X157687142Y-109960714D01*
X157644285Y-110003571D01*
X158458571Y-110817857D02*
X158758571Y-109917857D01*
X159058571Y-110817857D01*
X159915714Y-110517857D02*
X160258571Y-110517857D01*
X160044285Y-110817857D02*
X160044285Y-110046428D01*
X160087142Y-109960714D01*
X160172857Y-109917857D01*
X160258571Y-109917857D01*
X160687142Y-109917857D02*
X160601428Y-109960714D01*
X160558571Y-110003571D01*
X160515714Y-110089285D01*
X160515714Y-110346428D01*
X160558571Y-110432142D01*
X160601428Y-110475000D01*
X160687142Y-110517857D01*
X160815714Y-110517857D01*
X160901428Y-110475000D01*
X160944285Y-110432142D01*
X160987142Y-110346428D01*
X160987142Y-110089285D01*
X160944285Y-110003571D01*
X160901428Y-109960714D01*
X160815714Y-109917857D01*
X160687142Y-109917857D01*
X162058571Y-110389285D02*
X162358571Y-110389285D01*
X162487142Y-109917857D02*
X162058571Y-109917857D01*
X162058571Y-110817857D01*
X162487142Y-110817857D01*
X162787142Y-110817857D02*
X163387142Y-109917857D01*
X163387142Y-110817857D02*
X162787142Y-109917857D01*
X163601428Y-110817857D02*
X164115714Y-110817857D01*
X163858571Y-109917857D02*
X163858571Y-110817857D01*
X164415714Y-110260714D02*
X165101428Y-110260714D01*
X165401428Y-110817857D02*
X165701428Y-109917857D01*
X166001428Y-110817857D01*
X153144285Y-108839285D02*
X153444285Y-108839285D01*
X153572857Y-108367857D02*
X153144285Y-108367857D01*
X153144285Y-109267857D01*
X153572857Y-109267857D01*
X153872857Y-109267857D02*
X154472857Y-108367857D01*
X154472857Y-109267857D02*
X153872857Y-108367857D01*
X154687142Y-109267857D02*
X155201428Y-109267857D01*
X154944285Y-108367857D02*
X154944285Y-109267857D01*
X155501428Y-108710714D02*
X156187142Y-108710714D01*
X156487142Y-109267857D02*
X156787142Y-108367857D01*
X157087142Y-109267857D01*
X157387142Y-108453571D02*
X157430000Y-108410714D01*
X157387142Y-108367857D01*
X157344285Y-108410714D01*
X157387142Y-108453571D01*
X157387142Y-108367857D01*
X157387142Y-108925000D02*
X157430000Y-108882142D01*
X157387142Y-108839285D01*
X157344285Y-108882142D01*
X157387142Y-108925000D01*
X157387142Y-108839285D01*
X158501428Y-108367857D02*
X158501428Y-109267857D01*
X158887142Y-109182142D02*
X158930000Y-109225000D01*
X159015714Y-109267857D01*
X159230000Y-109267857D01*
X159315714Y-109225000D01*
X159358571Y-109182142D01*
X159401428Y-109096428D01*
X159401428Y-109010714D01*
X159358571Y-108882142D01*
X158844285Y-108367857D01*
X159401428Y-108367857D01*
X160301428Y-108453571D02*
X160258571Y-108410714D01*
X160130000Y-108367857D01*
X160044285Y-108367857D01*
X159915714Y-108410714D01*
X159830000Y-108496428D01*
X159787142Y-108582142D01*
X159744285Y-108753571D01*
X159744285Y-108882142D01*
X159787142Y-109053571D01*
X159830000Y-109139285D01*
X159915714Y-109225000D01*
X160044285Y-109267857D01*
X160130000Y-109267857D01*
X160258571Y-109225000D01*
X160301428Y-109182142D01*
X160687142Y-108710714D02*
X161372857Y-108710714D01*
X161672857Y-109267857D02*
X161972857Y-108367857D01*
X162272857Y-109267857D01*
X163130000Y-108967857D02*
X163472857Y-108967857D01*
X163258571Y-109267857D02*
X163258571Y-108496428D01*
X163301428Y-108410714D01*
X163387142Y-108367857D01*
X163472857Y-108367857D01*
X163901428Y-108367857D02*
X163815714Y-108410714D01*
X163772857Y-108453571D01*
X163730000Y-108539285D01*
X163730000Y-108796428D01*
X163772857Y-108882142D01*
X163815714Y-108925000D01*
X163901428Y-108967857D01*
X164030000Y-108967857D01*
X164115714Y-108925000D01*
X164158571Y-108882142D01*
X164201428Y-108796428D01*
X164201428Y-108539285D01*
X164158571Y-108453571D01*
X164115714Y-108410714D01*
X164030000Y-108367857D01*
X163901428Y-108367857D01*
X165701428Y-109267857D02*
X165272857Y-109267857D01*
X165230000Y-108839285D01*
X165272857Y-108882142D01*
X165358571Y-108925000D01*
X165572857Y-108925000D01*
X165658571Y-108882142D01*
X165701428Y-108839285D01*
X165744285Y-108753571D01*
X165744285Y-108539285D01*
X165701428Y-108453571D01*
X165658571Y-108410714D01*
X165572857Y-108367857D01*
X165358571Y-108367857D01*
X165272857Y-108410714D01*
X165230000Y-108453571D01*
X166130000Y-108453571D02*
X166172857Y-108410714D01*
X166130000Y-108367857D01*
X166087142Y-108410714D01*
X166130000Y-108453571D01*
X166130000Y-108367857D01*
X166987142Y-109267857D02*
X166558571Y-109267857D01*
X166515714Y-108839285D01*
X166558571Y-108882142D01*
X166644285Y-108925000D01*
X166858571Y-108925000D01*
X166944285Y-108882142D01*
X166987142Y-108839285D01*
X167030000Y-108753571D01*
X167030000Y-108539285D01*
X166987142Y-108453571D01*
X166944285Y-108410714D01*
X166858571Y-108367857D01*
X166644285Y-108367857D01*
X166558571Y-108410714D01*
X166515714Y-108453571D01*
X167287142Y-109267857D02*
X167587142Y-108367857D01*
X167887142Y-109267857D01*
X161786190Y-55991904D02*
X161710000Y-55991904D01*
X161633809Y-56030000D01*
X161595714Y-56068095D01*
X161557619Y-56144285D01*
X161519523Y-56296666D01*
X161519523Y-56487142D01*
X161557619Y-56639523D01*
X161595714Y-56715714D01*
X161633809Y-56753809D01*
X161710000Y-56791904D01*
X161786190Y-56791904D01*
X161862380Y-56753809D01*
X161900476Y-56715714D01*
X161938571Y-56639523D01*
X161976666Y-56487142D01*
X161976666Y-56296666D01*
X161938571Y-56144285D01*
X161900476Y-56068095D01*
X161862380Y-56030000D01*
X161786190Y-55991904D01*
X161214761Y-56068095D02*
X161176666Y-56030000D01*
X161100476Y-55991904D01*
X160910000Y-55991904D01*
X160833809Y-56030000D01*
X160795714Y-56068095D01*
X160757619Y-56144285D01*
X160757619Y-56220476D01*
X160795714Y-56334761D01*
X161252857Y-56791904D01*
X160757619Y-56791904D01*
X159843333Y-55953809D02*
X160529047Y-56982380D01*
X159157619Y-56791904D02*
X159614761Y-56791904D01*
X159386190Y-56791904D02*
X159386190Y-55991904D01*
X159462380Y-56106190D01*
X159538571Y-56182380D01*
X159614761Y-56220476D01*
X158852857Y-56068095D02*
X158814761Y-56030000D01*
X158738571Y-55991904D01*
X158548095Y-55991904D01*
X158471904Y-56030000D01*
X158433809Y-56068095D01*
X158395714Y-56144285D01*
X158395714Y-56220476D01*
X158433809Y-56334761D01*
X158890952Y-56791904D01*
X158395714Y-56791904D01*
X157481428Y-55953809D02*
X158167142Y-56982380D01*
X157252857Y-56068095D02*
X157214761Y-56030000D01*
X157138571Y-55991904D01*
X156948095Y-55991904D01*
X156871904Y-56030000D01*
X156833809Y-56068095D01*
X156795714Y-56144285D01*
X156795714Y-56220476D01*
X156833809Y-56334761D01*
X157290952Y-56791904D01*
X156795714Y-56791904D01*
X156300476Y-55991904D02*
X156224285Y-55991904D01*
X156148095Y-56030000D01*
X156110000Y-56068095D01*
X156071904Y-56144285D01*
X156033809Y-56296666D01*
X156033809Y-56487142D01*
X156071904Y-56639523D01*
X156110000Y-56715714D01*
X156148095Y-56753809D01*
X156224285Y-56791904D01*
X156300476Y-56791904D01*
X156376666Y-56753809D01*
X156414761Y-56715714D01*
X156452857Y-56639523D01*
X156490952Y-56487142D01*
X156490952Y-56296666D01*
X156452857Y-56144285D01*
X156414761Y-56068095D01*
X156376666Y-56030000D01*
X156300476Y-55991904D01*
X155729047Y-56068095D02*
X155690952Y-56030000D01*
X155614761Y-55991904D01*
X155424285Y-55991904D01*
X155348095Y-56030000D01*
X155310000Y-56068095D01*
X155271904Y-56144285D01*
X155271904Y-56220476D01*
X155310000Y-56334761D01*
X155767142Y-56791904D01*
X155271904Y-56791904D01*
X154776666Y-55991904D02*
X154700476Y-55991904D01*
X154624285Y-56030000D01*
X154586190Y-56068095D01*
X154548095Y-56144285D01*
X154510000Y-56296666D01*
X154510000Y-56487142D01*
X154548095Y-56639523D01*
X154586190Y-56715714D01*
X154624285Y-56753809D01*
X154700476Y-56791904D01*
X154776666Y-56791904D01*
X154852857Y-56753809D01*
X154890952Y-56715714D01*
X154929047Y-56639523D01*
X154967142Y-56487142D01*
X154967142Y-56296666D01*
X154929047Y-56144285D01*
X154890952Y-56068095D01*
X154852857Y-56030000D01*
X154776666Y-55991904D01*
X154167142Y-56487142D02*
X153557619Y-56487142D01*
X153214761Y-56753809D02*
X153100476Y-56791904D01*
X152910000Y-56791904D01*
X152833809Y-56753809D01*
X152795714Y-56715714D01*
X152757619Y-56639523D01*
X152757619Y-56563333D01*
X152795714Y-56487142D01*
X152833809Y-56449047D01*
X152910000Y-56410952D01*
X153062380Y-56372857D01*
X153138571Y-56334761D01*
X153176666Y-56296666D01*
X153214761Y-56220476D01*
X153214761Y-56144285D01*
X153176666Y-56068095D01*
X153138571Y-56030000D01*
X153062380Y-55991904D01*
X152871904Y-55991904D01*
X152757619Y-56030000D01*
X152414761Y-56791904D02*
X152414761Y-55991904D01*
X152148095Y-56563333D01*
X151881428Y-55991904D01*
X151881428Y-56791904D01*
X151500476Y-56791904D02*
X151500476Y-55991904D01*
X151310000Y-55991904D01*
X151195714Y-56030000D01*
X151119523Y-56106190D01*
X151081428Y-56182380D01*
X151043333Y-56334761D01*
X151043333Y-56449047D01*
X151081428Y-56601428D01*
X151119523Y-56677619D01*
X151195714Y-56753809D01*
X151310000Y-56791904D01*
X151500476Y-56791904D01*
D11*
G36*
X149827669Y-111723423D02*
G01*
X149862492Y-111721923D01*
X149893173Y-111719315D01*
X149916870Y-111715628D01*
X149917394Y-111715512D01*
X149989322Y-111694467D01*
X150056140Y-111664822D01*
X150117360Y-111626958D01*
X150172497Y-111581254D01*
X150221063Y-111528090D01*
X150262572Y-111467847D01*
X150283099Y-111430060D01*
X150295440Y-111404587D01*
X150305566Y-111381887D01*
X150313709Y-111360561D01*
X150320104Y-111339207D01*
X150324984Y-111316424D01*
X150328583Y-111290811D01*
X150331136Y-111260966D01*
X150332875Y-111225489D01*
X150334034Y-111182978D01*
X150334848Y-111132032D01*
X150335011Y-111118910D01*
X150337049Y-110950000D01*
X149980720Y-110950000D01*
X149980720Y-111097130D01*
X149980675Y-111140143D01*
X149980490Y-111174315D01*
X149980085Y-111200963D01*
X149979379Y-111221407D01*
X149978293Y-111236964D01*
X149976748Y-111248953D01*
X149974664Y-111258692D01*
X149971961Y-111267499D01*
X149970129Y-111272566D01*
X149954523Y-111302398D01*
X149931294Y-111331434D01*
X149902832Y-111357164D01*
X149871528Y-111377074D01*
X149869872Y-111377901D01*
X149852235Y-111386084D01*
X149837672Y-111391039D01*
X149822383Y-111393557D01*
X149802568Y-111394432D01*
X149790326Y-111394500D01*
X149766238Y-111394050D01*
X149748439Y-111392214D01*
X149733081Y-111388262D01*
X149716314Y-111381466D01*
X149712635Y-111379785D01*
X149682626Y-111361606D01*
X149653892Y-111336435D01*
X149629172Y-111307138D01*
X149611210Y-111276576D01*
X149609102Y-111271651D01*
X149597180Y-111242100D01*
X149597180Y-109971886D01*
X149613779Y-109938167D01*
X149635740Y-109902975D01*
X149663654Y-109873127D01*
X149695666Y-109850306D01*
X149724818Y-109837653D01*
X149769483Y-109828854D01*
X149813647Y-109829686D01*
X149855998Y-109839776D01*
X149895221Y-109858751D01*
X149930003Y-109886240D01*
X149942124Y-109899239D01*
X149951877Y-109911056D01*
X149959835Y-109922253D01*
X149966180Y-109933989D01*
X149971093Y-109947423D01*
X149974758Y-109963712D01*
X149977356Y-109984016D01*
X149979068Y-110009493D01*
X149980078Y-110041301D01*
X149980565Y-110080600D01*
X149980714Y-110128548D01*
X149980720Y-110145011D01*
X149980720Y-110315000D01*
X150336320Y-110315000D01*
X150336320Y-110132786D01*
X150336192Y-110076847D01*
X150335734Y-110029804D01*
X150334833Y-109990395D01*
X150333376Y-109957359D01*
X150331251Y-109929434D01*
X150328345Y-109905358D01*
X150324546Y-109883870D01*
X150319740Y-109863708D01*
X150313814Y-109843609D01*
X150309268Y-109829860D01*
X150282943Y-109767957D01*
X150247774Y-109709125D01*
X150204889Y-109654495D01*
X150155419Y-109605196D01*
X150100491Y-109562356D01*
X150041233Y-109527104D01*
X149980720Y-109501240D01*
X149935390Y-109488604D01*
X149883992Y-109479478D01*
X149830113Y-109474205D01*
X149777336Y-109473128D01*
X149729249Y-109476589D01*
X149726492Y-109476962D01*
X149656182Y-109491845D01*
X149588903Y-109516298D01*
X149525167Y-109550049D01*
X149465484Y-109592826D01*
X149410364Y-109644356D01*
X149408216Y-109646645D01*
X149367794Y-109695058D01*
X149335233Y-109745953D01*
X149309299Y-109801583D01*
X149288760Y-109864198D01*
X149288428Y-109865420D01*
X149286843Y-109871359D01*
X149285416Y-109877238D01*
X149284138Y-109883599D01*
X149282999Y-109890988D01*
X149281989Y-109899948D01*
X149281099Y-109911023D01*
X149280318Y-109924757D01*
X149279638Y-109941694D01*
X149279048Y-109962378D01*
X149278538Y-109987351D01*
X149278100Y-110017160D01*
X149277722Y-110052346D01*
X149277396Y-110093455D01*
X149277112Y-110141030D01*
X149276859Y-110195615D01*
X149276629Y-110257753D01*
X149276411Y-110327989D01*
X149276196Y-110406867D01*
X149275974Y-110494930D01*
X149275786Y-110571540D01*
X149275554Y-110681947D01*
X149275420Y-110782385D01*
X149275386Y-110873045D01*
X149275453Y-110954117D01*
X149275622Y-111025792D01*
X149275894Y-111088260D01*
X149276270Y-111141713D01*
X149276750Y-111186341D01*
X149277337Y-111222334D01*
X149278031Y-111249883D01*
X149278833Y-111269179D01*
X149279717Y-111280200D01*
X149293276Y-111346802D01*
X149316042Y-111410358D01*
X149347338Y-111470169D01*
X149386485Y-111525537D01*
X149432804Y-111575760D01*
X149485619Y-111620141D01*
X149544249Y-111657978D01*
X149608019Y-111688573D01*
X149676248Y-111711225D01*
X149703860Y-111717743D01*
X149726800Y-111720974D01*
X149756979Y-111722978D01*
X149791549Y-111723784D01*
X149827669Y-111723423D01*
G37*
X149827669Y-111723423D02*
X149862492Y-111721923D01*
X149893173Y-111719315D01*
X149916870Y-111715628D01*
X149917394Y-111715512D01*
X149989322Y-111694467D01*
X150056140Y-111664822D01*
X150117360Y-111626958D01*
X150172497Y-111581254D01*
X150221063Y-111528090D01*
X150262572Y-111467847D01*
X150283099Y-111430060D01*
X150295440Y-111404587D01*
X150305566Y-111381887D01*
X150313709Y-111360561D01*
X150320104Y-111339207D01*
X150324984Y-111316424D01*
X150328583Y-111290811D01*
X150331136Y-111260966D01*
X150332875Y-111225489D01*
X150334034Y-111182978D01*
X150334848Y-111132032D01*
X150335011Y-111118910D01*
X150337049Y-110950000D01*
X149980720Y-110950000D01*
X149980720Y-111097130D01*
X149980675Y-111140143D01*
X149980490Y-111174315D01*
X149980085Y-111200963D01*
X149979379Y-111221407D01*
X149978293Y-111236964D01*
X149976748Y-111248953D01*
X149974664Y-111258692D01*
X149971961Y-111267499D01*
X149970129Y-111272566D01*
X149954523Y-111302398D01*
X149931294Y-111331434D01*
X149902832Y-111357164D01*
X149871528Y-111377074D01*
X149869872Y-111377901D01*
X149852235Y-111386084D01*
X149837672Y-111391039D01*
X149822383Y-111393557D01*
X149802568Y-111394432D01*
X149790326Y-111394500D01*
X149766238Y-111394050D01*
X149748439Y-111392214D01*
X149733081Y-111388262D01*
X149716314Y-111381466D01*
X149712635Y-111379785D01*
X149682626Y-111361606D01*
X149653892Y-111336435D01*
X149629172Y-111307138D01*
X149611210Y-111276576D01*
X149609102Y-111271651D01*
X149597180Y-111242100D01*
X149597180Y-109971886D01*
X149613779Y-109938167D01*
X149635740Y-109902975D01*
X149663654Y-109873127D01*
X149695666Y-109850306D01*
X149724818Y-109837653D01*
X149769483Y-109828854D01*
X149813647Y-109829686D01*
X149855998Y-109839776D01*
X149895221Y-109858751D01*
X149930003Y-109886240D01*
X149942124Y-109899239D01*
X149951877Y-109911056D01*
X149959835Y-109922253D01*
X149966180Y-109933989D01*
X149971093Y-109947423D01*
X149974758Y-109963712D01*
X149977356Y-109984016D01*
X149979068Y-110009493D01*
X149980078Y-110041301D01*
X149980565Y-110080600D01*
X149980714Y-110128548D01*
X149980720Y-110145011D01*
X149980720Y-110315000D01*
X150336320Y-110315000D01*
X150336320Y-110132786D01*
X150336192Y-110076847D01*
X150335734Y-110029804D01*
X150334833Y-109990395D01*
X150333376Y-109957359D01*
X150331251Y-109929434D01*
X150328345Y-109905358D01*
X150324546Y-109883870D01*
X150319740Y-109863708D01*
X150313814Y-109843609D01*
X150309268Y-109829860D01*
X150282943Y-109767957D01*
X150247774Y-109709125D01*
X150204889Y-109654495D01*
X150155419Y-109605196D01*
X150100491Y-109562356D01*
X150041233Y-109527104D01*
X149980720Y-109501240D01*
X149935390Y-109488604D01*
X149883992Y-109479478D01*
X149830113Y-109474205D01*
X149777336Y-109473128D01*
X149729249Y-109476589D01*
X149726492Y-109476962D01*
X149656182Y-109491845D01*
X149588903Y-109516298D01*
X149525167Y-109550049D01*
X149465484Y-109592826D01*
X149410364Y-109644356D01*
X149408216Y-109646645D01*
X149367794Y-109695058D01*
X149335233Y-109745953D01*
X149309299Y-109801583D01*
X149288760Y-109864198D01*
X149288428Y-109865420D01*
X149286843Y-109871359D01*
X149285416Y-109877238D01*
X149284138Y-109883599D01*
X149282999Y-109890988D01*
X149281989Y-109899948D01*
X149281099Y-109911023D01*
X149280318Y-109924757D01*
X149279638Y-109941694D01*
X149279048Y-109962378D01*
X149278538Y-109987351D01*
X149278100Y-110017160D01*
X149277722Y-110052346D01*
X149277396Y-110093455D01*
X149277112Y-110141030D01*
X149276859Y-110195615D01*
X149276629Y-110257753D01*
X149276411Y-110327989D01*
X149276196Y-110406867D01*
X149275974Y-110494930D01*
X149275786Y-110571540D01*
X149275554Y-110681947D01*
X149275420Y-110782385D01*
X149275386Y-110873045D01*
X149275453Y-110954117D01*
X149275622Y-111025792D01*
X149275894Y-111088260D01*
X149276270Y-111141713D01*
X149276750Y-111186341D01*
X149277337Y-111222334D01*
X149278031Y-111249883D01*
X149278833Y-111269179D01*
X149279717Y-111280200D01*
X149293276Y-111346802D01*
X149316042Y-111410358D01*
X149347338Y-111470169D01*
X149386485Y-111525537D01*
X149432804Y-111575760D01*
X149485619Y-111620141D01*
X149544249Y-111657978D01*
X149608019Y-111688573D01*
X149676248Y-111711225D01*
X149703860Y-111717743D01*
X149726800Y-111720974D01*
X149756979Y-111722978D01*
X149791549Y-111723784D01*
X149827669Y-111723423D01*
G36*
X148561957Y-111748215D02*
G01*
X148630711Y-111737007D01*
X148696231Y-111718715D01*
X148732193Y-111704792D01*
X148770759Y-111686878D01*
X148802748Y-111668803D01*
X148831529Y-111648322D01*
X148860468Y-111623190D01*
X148873793Y-111610400D01*
X148919877Y-111559356D01*
X148957166Y-111504864D01*
X148986641Y-111445275D01*
X149007355Y-111385729D01*
X149012785Y-111365187D01*
X149018338Y-111341118D01*
X149023646Y-111315557D01*
X149028338Y-111290541D01*
X149032045Y-111268105D01*
X149034399Y-111250284D01*
X149035029Y-111239115D01*
X149034438Y-111236466D01*
X149028925Y-111234891D01*
X149014874Y-111231853D01*
X148993761Y-111227620D01*
X148967060Y-111222462D01*
X148936245Y-111216646D01*
X148902792Y-111210442D01*
X148868173Y-111204119D01*
X148833865Y-111197944D01*
X148801340Y-111192187D01*
X148772074Y-111187117D01*
X148747541Y-111183002D01*
X148729215Y-111180111D01*
X148718572Y-111178713D01*
X148717070Y-111178625D01*
X148708116Y-111181207D01*
X148705640Y-111190626D01*
X148705640Y-111190649D01*
X148703783Y-111207254D01*
X148698773Y-111230403D01*
X148691447Y-111257295D01*
X148682643Y-111285131D01*
X148673200Y-111311112D01*
X148663955Y-111332437D01*
X148662096Y-111336101D01*
X148636944Y-111375419D01*
X148607687Y-111405443D01*
X148574315Y-111426179D01*
X148536819Y-111437633D01*
X148495188Y-111439810D01*
X148471346Y-111437188D01*
X148438462Y-111429284D01*
X148411766Y-111416327D01*
X148387818Y-111396518D01*
X148381922Y-111390354D01*
X148358749Y-111360544D01*
X148341799Y-111327465D01*
X148330583Y-111289563D01*
X148324614Y-111245288D01*
X148323288Y-111204000D01*
X148326686Y-111149411D01*
X148336926Y-111097389D01*
X148354574Y-111046436D01*
X148380195Y-110995056D01*
X148414354Y-110941748D01*
X148430557Y-110919520D01*
X148454856Y-110888755D01*
X148480873Y-110859130D01*
X148510077Y-110829181D01*
X148543937Y-110797446D01*
X148583921Y-110762463D01*
X148611660Y-110739140D01*
X148647607Y-110709008D01*
X148677579Y-110683177D01*
X148703638Y-110659733D01*
X148727844Y-110636758D01*
X148752257Y-110612338D01*
X148778938Y-110584556D01*
X148786317Y-110576741D01*
X148848174Y-110507399D01*
X148900832Y-110440289D01*
X148944775Y-110374563D01*
X148980486Y-110309373D01*
X149008448Y-110243872D01*
X149029144Y-110177211D01*
X149038712Y-110134020D01*
X149042912Y-110101450D01*
X149044948Y-110062015D01*
X149044909Y-110018755D01*
X149042884Y-109974713D01*
X149038963Y-109932930D01*
X149033236Y-109896447D01*
X149031479Y-109888280D01*
X149012374Y-109822650D01*
X148986361Y-109760134D01*
X148954259Y-109701952D01*
X148916889Y-109649326D01*
X148875068Y-109603474D01*
X148829615Y-109565617D01*
X148803572Y-109548767D01*
X148741571Y-109518199D01*
X148673854Y-109495127D01*
X148601835Y-109479808D01*
X148526923Y-109472494D01*
X148450532Y-109473443D01*
X148409009Y-109477499D01*
X148335238Y-109491482D01*
X148267316Y-109513759D01*
X148205182Y-109544360D01*
X148148772Y-109583314D01*
X148101651Y-109626796D01*
X148053030Y-109685332D01*
X148011684Y-109750822D01*
X147977714Y-109823024D01*
X147951221Y-109901697D01*
X147932305Y-109986601D01*
X147923285Y-110052912D01*
X147921268Y-110074290D01*
X147919955Y-110091496D01*
X147919500Y-110102299D01*
X147919739Y-110104834D01*
X147924916Y-110105502D01*
X147938740Y-110106728D01*
X147959721Y-110108405D01*
X147986370Y-110110431D01*
X148017194Y-110112698D01*
X148050704Y-110115105D01*
X148085409Y-110117544D01*
X148119818Y-110119913D01*
X148152441Y-110122106D01*
X148181788Y-110124019D01*
X148206366Y-110125547D01*
X148224687Y-110126586D01*
X148235260Y-110127030D01*
X148236125Y-110127039D01*
X148241053Y-110126054D01*
X148244840Y-110121927D01*
X148248144Y-110112901D01*
X148251620Y-110097219D01*
X148255612Y-110074970D01*
X148264727Y-110031115D01*
X148276640Y-109987755D01*
X148290430Y-109947757D01*
X148305175Y-109913987D01*
X148310698Y-109903627D01*
X148329114Y-109876822D01*
X148353062Y-109849896D01*
X148379512Y-109825870D01*
X148405430Y-109807766D01*
X148408729Y-109805937D01*
X148446395Y-109791394D01*
X148486676Y-109785973D01*
X148527687Y-109789687D01*
X148567543Y-109802548D01*
X148572402Y-109804825D01*
X148595094Y-109818766D01*
X148619310Y-109838367D01*
X148642188Y-109860886D01*
X148660865Y-109883581D01*
X148670023Y-109898331D01*
X148681993Y-109929499D01*
X148690313Y-109967282D01*
X148694728Y-110008720D01*
X148694982Y-110050851D01*
X148690822Y-110090715D01*
X148687852Y-110105412D01*
X148672340Y-110153276D01*
X148648507Y-110202490D01*
X148617551Y-110250851D01*
X148589956Y-110285724D01*
X148582339Y-110293701D01*
X148568100Y-110307791D01*
X148548073Y-110327200D01*
X148523087Y-110351136D01*
X148493974Y-110378805D01*
X148461566Y-110409413D01*
X148426694Y-110442168D01*
X148393011Y-110473647D01*
X148355475Y-110508831D01*
X148318755Y-110543609D01*
X148283830Y-110577029D01*
X148251683Y-110608135D01*
X148223294Y-110635976D01*
X148199644Y-110659595D01*
X148181713Y-110678041D01*
X148172240Y-110688325D01*
X148123249Y-110746513D01*
X148082199Y-110800972D01*
X148048300Y-110853174D01*
X148020763Y-110904588D01*
X147998800Y-110956685D01*
X147981621Y-111010937D01*
X147968618Y-111067873D01*
X147964603Y-111090224D01*
X147961813Y-111110070D01*
X147960115Y-111129875D01*
X147959374Y-111152101D01*
X147959456Y-111179212D01*
X147960227Y-111213670D01*
X147960378Y-111219069D01*
X147962524Y-111269098D01*
X147966138Y-111311404D01*
X147971637Y-111348372D01*
X147979439Y-111382384D01*
X147989964Y-111415825D01*
X147999234Y-111440314D01*
X148028999Y-111502134D01*
X148066490Y-111559131D01*
X148110714Y-111610201D01*
X148160679Y-111654243D01*
X148215395Y-111690155D01*
X148231735Y-111698755D01*
X148290061Y-111722642D01*
X148354019Y-111739554D01*
X148421837Y-111749467D01*
X148491741Y-111752361D01*
X148561957Y-111748215D01*
G37*
X148561957Y-111748215D02*
X148630711Y-111737007D01*
X148696231Y-111718715D01*
X148732193Y-111704792D01*
X148770759Y-111686878D01*
X148802748Y-111668803D01*
X148831529Y-111648322D01*
X148860468Y-111623190D01*
X148873793Y-111610400D01*
X148919877Y-111559356D01*
X148957166Y-111504864D01*
X148986641Y-111445275D01*
X149007355Y-111385729D01*
X149012785Y-111365187D01*
X149018338Y-111341118D01*
X149023646Y-111315557D01*
X149028338Y-111290541D01*
X149032045Y-111268105D01*
X149034399Y-111250284D01*
X149035029Y-111239115D01*
X149034438Y-111236466D01*
X149028925Y-111234891D01*
X149014874Y-111231853D01*
X148993761Y-111227620D01*
X148967060Y-111222462D01*
X148936245Y-111216646D01*
X148902792Y-111210442D01*
X148868173Y-111204119D01*
X148833865Y-111197944D01*
X148801340Y-111192187D01*
X148772074Y-111187117D01*
X148747541Y-111183002D01*
X148729215Y-111180111D01*
X148718572Y-111178713D01*
X148717070Y-111178625D01*
X148708116Y-111181207D01*
X148705640Y-111190626D01*
X148705640Y-111190649D01*
X148703783Y-111207254D01*
X148698773Y-111230403D01*
X148691447Y-111257295D01*
X148682643Y-111285131D01*
X148673200Y-111311112D01*
X148663955Y-111332437D01*
X148662096Y-111336101D01*
X148636944Y-111375419D01*
X148607687Y-111405443D01*
X148574315Y-111426179D01*
X148536819Y-111437633D01*
X148495188Y-111439810D01*
X148471346Y-111437188D01*
X148438462Y-111429284D01*
X148411766Y-111416327D01*
X148387818Y-111396518D01*
X148381922Y-111390354D01*
X148358749Y-111360544D01*
X148341799Y-111327465D01*
X148330583Y-111289563D01*
X148324614Y-111245288D01*
X148323288Y-111204000D01*
X148326686Y-111149411D01*
X148336926Y-111097389D01*
X148354574Y-111046436D01*
X148380195Y-110995056D01*
X148414354Y-110941748D01*
X148430557Y-110919520D01*
X148454856Y-110888755D01*
X148480873Y-110859130D01*
X148510077Y-110829181D01*
X148543937Y-110797446D01*
X148583921Y-110762463D01*
X148611660Y-110739140D01*
X148647607Y-110709008D01*
X148677579Y-110683177D01*
X148703638Y-110659733D01*
X148727844Y-110636758D01*
X148752257Y-110612338D01*
X148778938Y-110584556D01*
X148786317Y-110576741D01*
X148848174Y-110507399D01*
X148900832Y-110440289D01*
X148944775Y-110374563D01*
X148980486Y-110309373D01*
X149008448Y-110243872D01*
X149029144Y-110177211D01*
X149038712Y-110134020D01*
X149042912Y-110101450D01*
X149044948Y-110062015D01*
X149044909Y-110018755D01*
X149042884Y-109974713D01*
X149038963Y-109932930D01*
X149033236Y-109896447D01*
X149031479Y-109888280D01*
X149012374Y-109822650D01*
X148986361Y-109760134D01*
X148954259Y-109701952D01*
X148916889Y-109649326D01*
X148875068Y-109603474D01*
X148829615Y-109565617D01*
X148803572Y-109548767D01*
X148741571Y-109518199D01*
X148673854Y-109495127D01*
X148601835Y-109479808D01*
X148526923Y-109472494D01*
X148450532Y-109473443D01*
X148409009Y-109477499D01*
X148335238Y-109491482D01*
X148267316Y-109513759D01*
X148205182Y-109544360D01*
X148148772Y-109583314D01*
X148101651Y-109626796D01*
X148053030Y-109685332D01*
X148011684Y-109750822D01*
X147977714Y-109823024D01*
X147951221Y-109901697D01*
X147932305Y-109986601D01*
X147923285Y-110052912D01*
X147921268Y-110074290D01*
X147919955Y-110091496D01*
X147919500Y-110102299D01*
X147919739Y-110104834D01*
X147924916Y-110105502D01*
X147938740Y-110106728D01*
X147959721Y-110108405D01*
X147986370Y-110110431D01*
X148017194Y-110112698D01*
X148050704Y-110115105D01*
X148085409Y-110117544D01*
X148119818Y-110119913D01*
X148152441Y-110122106D01*
X148181788Y-110124019D01*
X148206366Y-110125547D01*
X148224687Y-110126586D01*
X148235260Y-110127030D01*
X148236125Y-110127039D01*
X148241053Y-110126054D01*
X148244840Y-110121927D01*
X148248144Y-110112901D01*
X148251620Y-110097219D01*
X148255612Y-110074970D01*
X148264727Y-110031115D01*
X148276640Y-109987755D01*
X148290430Y-109947757D01*
X148305175Y-109913987D01*
X148310698Y-109903627D01*
X148329114Y-109876822D01*
X148353062Y-109849896D01*
X148379512Y-109825870D01*
X148405430Y-109807766D01*
X148408729Y-109805937D01*
X148446395Y-109791394D01*
X148486676Y-109785973D01*
X148527687Y-109789687D01*
X148567543Y-109802548D01*
X148572402Y-109804825D01*
X148595094Y-109818766D01*
X148619310Y-109838367D01*
X148642188Y-109860886D01*
X148660865Y-109883581D01*
X148670023Y-109898331D01*
X148681993Y-109929499D01*
X148690313Y-109967282D01*
X148694728Y-110008720D01*
X148694982Y-110050851D01*
X148690822Y-110090715D01*
X148687852Y-110105412D01*
X148672340Y-110153276D01*
X148648507Y-110202490D01*
X148617551Y-110250851D01*
X148589956Y-110285724D01*
X148582339Y-110293701D01*
X148568100Y-110307791D01*
X148548073Y-110327200D01*
X148523087Y-110351136D01*
X148493974Y-110378805D01*
X148461566Y-110409413D01*
X148426694Y-110442168D01*
X148393011Y-110473647D01*
X148355475Y-110508831D01*
X148318755Y-110543609D01*
X148283830Y-110577029D01*
X148251683Y-110608135D01*
X148223294Y-110635976D01*
X148199644Y-110659595D01*
X148181713Y-110678041D01*
X148172240Y-110688325D01*
X148123249Y-110746513D01*
X148082199Y-110800972D01*
X148048300Y-110853174D01*
X148020763Y-110904588D01*
X147998800Y-110956685D01*
X147981621Y-111010937D01*
X147968618Y-111067873D01*
X147964603Y-111090224D01*
X147961813Y-111110070D01*
X147960115Y-111129875D01*
X147959374Y-111152101D01*
X147959456Y-111179212D01*
X147960227Y-111213670D01*
X147960378Y-111219069D01*
X147962524Y-111269098D01*
X147966138Y-111311404D01*
X147971637Y-111348372D01*
X147979439Y-111382384D01*
X147989964Y-111415825D01*
X147999234Y-111440314D01*
X148028999Y-111502134D01*
X148066490Y-111559131D01*
X148110714Y-111610201D01*
X148160679Y-111654243D01*
X148215395Y-111690155D01*
X148231735Y-111698755D01*
X148290061Y-111722642D01*
X148354019Y-111739554D01*
X148421837Y-111749467D01*
X148491741Y-111752361D01*
X148561957Y-111748215D01*
G36*
X148256536Y-114210296D02*
G01*
X148257708Y-114210179D01*
X148265330Y-114208031D01*
X148281745Y-114202363D01*
X148306316Y-114193427D01*
X148338403Y-114181473D01*
X148377368Y-114166754D01*
X148422573Y-114149519D01*
X148473379Y-114130021D01*
X148529148Y-114108511D01*
X148589241Y-114085240D01*
X148653020Y-114060459D01*
X148719845Y-114034419D01*
X148789080Y-114007372D01*
X148860085Y-113979569D01*
X148932221Y-113951261D01*
X149004851Y-113922700D01*
X149077335Y-113894136D01*
X149149035Y-113865822D01*
X149219314Y-113838007D01*
X149287531Y-113810944D01*
X149353049Y-113784884D01*
X149415229Y-113760077D01*
X149473433Y-113736776D01*
X149527023Y-113715231D01*
X149575359Y-113695694D01*
X149617803Y-113678416D01*
X149653716Y-113663647D01*
X149682461Y-113651641D01*
X149703399Y-113642647D01*
X149715891Y-113636917D01*
X149719094Y-113635129D01*
X149736992Y-113615485D01*
X149748292Y-113590472D01*
X149752418Y-113562905D01*
X149748792Y-113535598D01*
X149742600Y-113520405D01*
X149738534Y-113514129D01*
X149729002Y-113500142D01*
X149714401Y-113479008D01*
X149695131Y-113451293D01*
X149671591Y-113417562D01*
X149644180Y-113378380D01*
X149613295Y-113334312D01*
X149579337Y-113285924D01*
X149542704Y-113233781D01*
X149503794Y-113178448D01*
X149463007Y-113120490D01*
X149420740Y-113060472D01*
X149377394Y-112998959D01*
X149333367Y-112936517D01*
X149289057Y-112873711D01*
X149244864Y-112811107D01*
X149201185Y-112749268D01*
X149158421Y-112688761D01*
X149116969Y-112630150D01*
X149077228Y-112574002D01*
X149039598Y-112520880D01*
X149004477Y-112471350D01*
X148972264Y-112425978D01*
X148943357Y-112385329D01*
X148918156Y-112349967D01*
X148897059Y-112320458D01*
X148880465Y-112297368D01*
X148868773Y-112281260D01*
X148862381Y-112272702D01*
X148861464Y-112271588D01*
X148843061Y-112256435D01*
X148822804Y-112247251D01*
X148810423Y-112245400D01*
X148796512Y-112249866D01*
X148782139Y-112261627D01*
X148769707Y-112278234D01*
X148762484Y-112294265D01*
X148759978Y-112302406D01*
X148754795Y-112319420D01*
X148747193Y-112344451D01*
X148737431Y-112376647D01*
X148725768Y-112415151D01*
X148712462Y-112459110D01*
X148697772Y-112507671D01*
X148681957Y-112559977D01*
X148665276Y-112615176D01*
X148656514Y-112644180D01*
X148639645Y-112699960D01*
X148623614Y-112752848D01*
X148608664Y-112802046D01*
X148595039Y-112846756D01*
X148582985Y-112886180D01*
X148572745Y-112919518D01*
X148564563Y-112945975D01*
X148558685Y-112964750D01*
X148555354Y-112975046D01*
X148554690Y-112976813D01*
X148548742Y-112976903D01*
X148534504Y-112974300D01*
X148513373Y-112969382D01*
X148486741Y-112962531D01*
X148456004Y-112954128D01*
X148422557Y-112944553D01*
X148387794Y-112934187D01*
X148353110Y-112923410D01*
X148322100Y-112913337D01*
X148173765Y-112858794D01*
X148030799Y-112795654D01*
X147892913Y-112723762D01*
X147759822Y-112642962D01*
X147631237Y-112553096D01*
X147565341Y-112502158D01*
X147447709Y-112401687D01*
X147337054Y-112294063D01*
X147233680Y-112179759D01*
X147137893Y-112059247D01*
X147049996Y-111932998D01*
X146970295Y-111801485D01*
X146899094Y-111665179D01*
X146836697Y-111524553D01*
X146783411Y-111380078D01*
X146739538Y-111232226D01*
X146735535Y-111216700D01*
X146701826Y-111063772D01*
X146678208Y-110910114D01*
X146664664Y-110756042D01*
X146661180Y-110601874D01*
X146667740Y-110447928D01*
X146684328Y-110294520D01*
X146710929Y-110141967D01*
X146747527Y-109990586D01*
X146794107Y-109840696D01*
X146804204Y-109812080D01*
X146861443Y-109667685D01*
X146927303Y-109528346D01*
X147001436Y-109394343D01*
X147083494Y-109265960D01*
X147173128Y-109143479D01*
X147269991Y-109027181D01*
X147373734Y-108917348D01*
X147484009Y-108814264D01*
X147600469Y-108718209D01*
X147722764Y-108629466D01*
X147850547Y-108548317D01*
X147983470Y-108475045D01*
X148121185Y-108409930D01*
X148263343Y-108353256D01*
X148409597Y-108305304D01*
X148559598Y-108266357D01*
X148712998Y-108236696D01*
X148756440Y-108230104D01*
X148896341Y-108214484D01*
X149039349Y-108206880D01*
X149182903Y-108207314D01*
X149324443Y-108215804D01*
X149409220Y-108225015D01*
X149563491Y-108249888D01*
X149716114Y-108284625D01*
X149866421Y-108328982D01*
X150013746Y-108382710D01*
X150157424Y-108445564D01*
X150296789Y-108517295D01*
X150431174Y-108597658D01*
X150452753Y-108611685D01*
X150575675Y-108698182D01*
X150693516Y-108792483D01*
X150805308Y-108893685D01*
X150910082Y-109000882D01*
X151006869Y-109113169D01*
X151053327Y-109172746D01*
X151143629Y-109300924D01*
X151225056Y-109433498D01*
X151297493Y-109570041D01*
X151360823Y-109710123D01*
X151414930Y-109853317D01*
X151459700Y-109999196D01*
X151495017Y-110147332D01*
X151520765Y-110297296D01*
X151536828Y-110448661D01*
X151543091Y-110600998D01*
X151539438Y-110753881D01*
X151525753Y-110906881D01*
X151524551Y-110916529D01*
X151499956Y-111070478D01*
X151465585Y-111222185D01*
X151421657Y-111371149D01*
X151368389Y-111516872D01*
X151306000Y-111658854D01*
X151234709Y-111796597D01*
X151154734Y-111929599D01*
X151066293Y-112057363D01*
X150974772Y-112173265D01*
X150960073Y-112191592D01*
X150949507Y-112206488D01*
X150944070Y-112216453D01*
X150943888Y-112219729D01*
X150951795Y-112226436D01*
X150966487Y-112238174D01*
X150987075Y-112254275D01*
X151012673Y-112274068D01*
X151042392Y-112296883D01*
X151075344Y-112322050D01*
X151110643Y-112348900D01*
X151147400Y-112376761D01*
X151184728Y-112404965D01*
X151221738Y-112432841D01*
X151257543Y-112459719D01*
X151291256Y-112484930D01*
X151321989Y-112507803D01*
X151348854Y-112527668D01*
X151370963Y-112543856D01*
X151387428Y-112555697D01*
X151397363Y-112562519D01*
X151399981Y-112563947D01*
X151406051Y-112559043D01*
X151417335Y-112547183D01*
X151432896Y-112529496D01*
X151451794Y-112507113D01*
X151473092Y-112481162D01*
X151495851Y-112452773D01*
X151519132Y-112423075D01*
X151541997Y-112393197D01*
X151543371Y-112391376D01*
X151643576Y-112250094D01*
X151735173Y-112103664D01*
X151817982Y-111952520D01*
X151891820Y-111797095D01*
X151956507Y-111637823D01*
X152011861Y-111475138D01*
X152057701Y-111309473D01*
X152093844Y-111141261D01*
X152111681Y-111033313D01*
X152122257Y-110954411D01*
X152130251Y-110879059D01*
X152135877Y-110804156D01*
X152139350Y-110726601D01*
X152140884Y-110643293D01*
X152141004Y-110609640D01*
X152137251Y-110451607D01*
X152125800Y-110298762D01*
X152106365Y-110149341D01*
X152078659Y-110001584D01*
X152042396Y-109853726D01*
X151997288Y-109704005D01*
X151990165Y-109682540D01*
X151930049Y-109519095D01*
X151861124Y-109360497D01*
X151783653Y-109207026D01*
X151697899Y-109058958D01*
X151604127Y-108916571D01*
X151502600Y-108780144D01*
X151393582Y-108649953D01*
X151277338Y-108526276D01*
X151154130Y-108409391D01*
X151024223Y-108299576D01*
X150887881Y-108197108D01*
X150745367Y-108102265D01*
X150596946Y-108015325D01*
X150442881Y-107936565D01*
X150283436Y-107866264D01*
X150252500Y-107853863D01*
X150091613Y-107795375D01*
X149929556Y-107746499D01*
X149765363Y-107707010D01*
X149598066Y-107676686D01*
X149426699Y-107655303D01*
X149373660Y-107650541D01*
X149347884Y-107648882D01*
X149314476Y-107647416D01*
X149275133Y-107646161D01*
X149231556Y-107645134D01*
X149185444Y-107644350D01*
X149138497Y-107643827D01*
X149092413Y-107643581D01*
X149048893Y-107643629D01*
X149009636Y-107643987D01*
X148976342Y-107644673D01*
X148950709Y-107645703D01*
X148941860Y-107646305D01*
X148846365Y-107654963D01*
X148758897Y-107664616D01*
X148677342Y-107675600D01*
X148599587Y-107688251D01*
X148523521Y-107702902D01*
X148447029Y-107719890D01*
X148390680Y-107733713D01*
X148220237Y-107782209D01*
X148053797Y-107840019D01*
X147891574Y-107907033D01*
X147733782Y-107983141D01*
X147580638Y-108068232D01*
X147432357Y-108162196D01*
X147289153Y-108264922D01*
X147171480Y-108359132D01*
X147140994Y-108385709D01*
X147105515Y-108418204D01*
X147066500Y-108455157D01*
X147025408Y-108495106D01*
X146983696Y-108536593D01*
X146942824Y-108578155D01*
X146904248Y-108618331D01*
X146869428Y-108655662D01*
X146839821Y-108688686D01*
X146824038Y-108707180D01*
X146713695Y-108847668D01*
X146612608Y-108992258D01*
X146520824Y-109140832D01*
X146438391Y-109293272D01*
X146365357Y-109449460D01*
X146301769Y-109609280D01*
X146247675Y-109772613D01*
X146203123Y-109939341D01*
X146168161Y-110109347D01*
X146142835Y-110282513D01*
X146129762Y-110420246D01*
X146127886Y-110454690D01*
X146126606Y-110496860D01*
X146125896Y-110544947D01*
X146125728Y-110597140D01*
X146126076Y-110651626D01*
X146126914Y-110706596D01*
X146128215Y-110760239D01*
X146129952Y-110810744D01*
X146132098Y-110856299D01*
X146134628Y-110895095D01*
X146137134Y-110922060D01*
X146157129Y-111071637D01*
X146182639Y-111214411D01*
X146214140Y-111352403D01*
X146252107Y-111487632D01*
X146297014Y-111622118D01*
X146310427Y-111658660D01*
X146376027Y-111819838D01*
X146450199Y-111975766D01*
X146532668Y-112126195D01*
X146623162Y-112270875D01*
X146721409Y-112409558D01*
X146827134Y-112541993D01*
X146940066Y-112667933D01*
X147059931Y-112787127D01*
X147186455Y-112899327D01*
X147319367Y-113004283D01*
X147458393Y-113101746D01*
X147603259Y-113191466D01*
X147753694Y-113273195D01*
X147909424Y-113346683D01*
X148070175Y-113411682D01*
X148235676Y-113467941D01*
X148319188Y-113492455D01*
X148345738Y-113500111D01*
X148368401Y-113507147D01*
X148385558Y-113513020D01*
X148395595Y-113517187D01*
X148397531Y-113518753D01*
X148395941Y-113524233D01*
X148391618Y-113538590D01*
X148384815Y-113560994D01*
X148375786Y-113590613D01*
X148364786Y-113626613D01*
X148352069Y-113668163D01*
X148337889Y-113714430D01*
X148322501Y-113764584D01*
X148306159Y-113817790D01*
X148302281Y-113830410D01*
X148281955Y-113896625D01*
X148264486Y-113953851D01*
X148249717Y-114002801D01*
X148237489Y-114044188D01*
X148227647Y-114078726D01*
X148220033Y-114107128D01*
X148214489Y-114130108D01*
X148210858Y-114148378D01*
X148208982Y-114162653D01*
X148208705Y-114173645D01*
X148209869Y-114182068D01*
X148212317Y-114188635D01*
X148215891Y-114194059D01*
X148220434Y-114199054D01*
X148220878Y-114199501D01*
X148230704Y-114207640D01*
X148241075Y-114210799D01*
X148256536Y-114210296D01*
G37*
X148256536Y-114210296D02*
X148257708Y-114210179D01*
X148265330Y-114208031D01*
X148281745Y-114202363D01*
X148306316Y-114193427D01*
X148338403Y-114181473D01*
X148377368Y-114166754D01*
X148422573Y-114149519D01*
X148473379Y-114130021D01*
X148529148Y-114108511D01*
X148589241Y-114085240D01*
X148653020Y-114060459D01*
X148719845Y-114034419D01*
X148789080Y-114007372D01*
X148860085Y-113979569D01*
X148932221Y-113951261D01*
X149004851Y-113922700D01*
X149077335Y-113894136D01*
X149149035Y-113865822D01*
X149219314Y-113838007D01*
X149287531Y-113810944D01*
X149353049Y-113784884D01*
X149415229Y-113760077D01*
X149473433Y-113736776D01*
X149527023Y-113715231D01*
X149575359Y-113695694D01*
X149617803Y-113678416D01*
X149653716Y-113663647D01*
X149682461Y-113651641D01*
X149703399Y-113642647D01*
X149715891Y-113636917D01*
X149719094Y-113635129D01*
X149736992Y-113615485D01*
X149748292Y-113590472D01*
X149752418Y-113562905D01*
X149748792Y-113535598D01*
X149742600Y-113520405D01*
X149738534Y-113514129D01*
X149729002Y-113500142D01*
X149714401Y-113479008D01*
X149695131Y-113451293D01*
X149671591Y-113417562D01*
X149644180Y-113378380D01*
X149613295Y-113334312D01*
X149579337Y-113285924D01*
X149542704Y-113233781D01*
X149503794Y-113178448D01*
X149463007Y-113120490D01*
X149420740Y-113060472D01*
X149377394Y-112998959D01*
X149333367Y-112936517D01*
X149289057Y-112873711D01*
X149244864Y-112811107D01*
X149201185Y-112749268D01*
X149158421Y-112688761D01*
X149116969Y-112630150D01*
X149077228Y-112574002D01*
X149039598Y-112520880D01*
X149004477Y-112471350D01*
X148972264Y-112425978D01*
X148943357Y-112385329D01*
X148918156Y-112349967D01*
X148897059Y-112320458D01*
X148880465Y-112297368D01*
X148868773Y-112281260D01*
X148862381Y-112272702D01*
X148861464Y-112271588D01*
X148843061Y-112256435D01*
X148822804Y-112247251D01*
X148810423Y-112245400D01*
X148796512Y-112249866D01*
X148782139Y-112261627D01*
X148769707Y-112278234D01*
X148762484Y-112294265D01*
X148759978Y-112302406D01*
X148754795Y-112319420D01*
X148747193Y-112344451D01*
X148737431Y-112376647D01*
X148725768Y-112415151D01*
X148712462Y-112459110D01*
X148697772Y-112507671D01*
X148681957Y-112559977D01*
X148665276Y-112615176D01*
X148656514Y-112644180D01*
X148639645Y-112699960D01*
X148623614Y-112752848D01*
X148608664Y-112802046D01*
X148595039Y-112846756D01*
X148582985Y-112886180D01*
X148572745Y-112919518D01*
X148564563Y-112945975D01*
X148558685Y-112964750D01*
X148555354Y-112975046D01*
X148554690Y-112976813D01*
X148548742Y-112976903D01*
X148534504Y-112974300D01*
X148513373Y-112969382D01*
X148486741Y-112962531D01*
X148456004Y-112954128D01*
X148422557Y-112944553D01*
X148387794Y-112934187D01*
X148353110Y-112923410D01*
X148322100Y-112913337D01*
X148173765Y-112858794D01*
X148030799Y-112795654D01*
X147892913Y-112723762D01*
X147759822Y-112642962D01*
X147631237Y-112553096D01*
X147565341Y-112502158D01*
X147447709Y-112401687D01*
X147337054Y-112294063D01*
X147233680Y-112179759D01*
X147137893Y-112059247D01*
X147049996Y-111932998D01*
X146970295Y-111801485D01*
X146899094Y-111665179D01*
X146836697Y-111524553D01*
X146783411Y-111380078D01*
X146739538Y-111232226D01*
X146735535Y-111216700D01*
X146701826Y-111063772D01*
X146678208Y-110910114D01*
X146664664Y-110756042D01*
X146661180Y-110601874D01*
X146667740Y-110447928D01*
X146684328Y-110294520D01*
X146710929Y-110141967D01*
X146747527Y-109990586D01*
X146794107Y-109840696D01*
X146804204Y-109812080D01*
X146861443Y-109667685D01*
X146927303Y-109528346D01*
X147001436Y-109394343D01*
X147083494Y-109265960D01*
X147173128Y-109143479D01*
X147269991Y-109027181D01*
X147373734Y-108917348D01*
X147484009Y-108814264D01*
X147600469Y-108718209D01*
X147722764Y-108629466D01*
X147850547Y-108548317D01*
X147983470Y-108475045D01*
X148121185Y-108409930D01*
X148263343Y-108353256D01*
X148409597Y-108305304D01*
X148559598Y-108266357D01*
X148712998Y-108236696D01*
X148756440Y-108230104D01*
X148896341Y-108214484D01*
X149039349Y-108206880D01*
X149182903Y-108207314D01*
X149324443Y-108215804D01*
X149409220Y-108225015D01*
X149563491Y-108249888D01*
X149716114Y-108284625D01*
X149866421Y-108328982D01*
X150013746Y-108382710D01*
X150157424Y-108445564D01*
X150296789Y-108517295D01*
X150431174Y-108597658D01*
X150452753Y-108611685D01*
X150575675Y-108698182D01*
X150693516Y-108792483D01*
X150805308Y-108893685D01*
X150910082Y-109000882D01*
X151006869Y-109113169D01*
X151053327Y-109172746D01*
X151143629Y-109300924D01*
X151225056Y-109433498D01*
X151297493Y-109570041D01*
X151360823Y-109710123D01*
X151414930Y-109853317D01*
X151459700Y-109999196D01*
X151495017Y-110147332D01*
X151520765Y-110297296D01*
X151536828Y-110448661D01*
X151543091Y-110600998D01*
X151539438Y-110753881D01*
X151525753Y-110906881D01*
X151524551Y-110916529D01*
X151499956Y-111070478D01*
X151465585Y-111222185D01*
X151421657Y-111371149D01*
X151368389Y-111516872D01*
X151306000Y-111658854D01*
X151234709Y-111796597D01*
X151154734Y-111929599D01*
X151066293Y-112057363D01*
X150974772Y-112173265D01*
X150960073Y-112191592D01*
X150949507Y-112206488D01*
X150944070Y-112216453D01*
X150943888Y-112219729D01*
X150951795Y-112226436D01*
X150966487Y-112238174D01*
X150987075Y-112254275D01*
X151012673Y-112274068D01*
X151042392Y-112296883D01*
X151075344Y-112322050D01*
X151110643Y-112348900D01*
X151147400Y-112376761D01*
X151184728Y-112404965D01*
X151221738Y-112432841D01*
X151257543Y-112459719D01*
X151291256Y-112484930D01*
X151321989Y-112507803D01*
X151348854Y-112527668D01*
X151370963Y-112543856D01*
X151387428Y-112555697D01*
X151397363Y-112562519D01*
X151399981Y-112563947D01*
X151406051Y-112559043D01*
X151417335Y-112547183D01*
X151432896Y-112529496D01*
X151451794Y-112507113D01*
X151473092Y-112481162D01*
X151495851Y-112452773D01*
X151519132Y-112423075D01*
X151541997Y-112393197D01*
X151543371Y-112391376D01*
X151643576Y-112250094D01*
X151735173Y-112103664D01*
X151817982Y-111952520D01*
X151891820Y-111797095D01*
X151956507Y-111637823D01*
X152011861Y-111475138D01*
X152057701Y-111309473D01*
X152093844Y-111141261D01*
X152111681Y-111033313D01*
X152122257Y-110954411D01*
X152130251Y-110879059D01*
X152135877Y-110804156D01*
X152139350Y-110726601D01*
X152140884Y-110643293D01*
X152141004Y-110609640D01*
X152137251Y-110451607D01*
X152125800Y-110298762D01*
X152106365Y-110149341D01*
X152078659Y-110001584D01*
X152042396Y-109853726D01*
X151997288Y-109704005D01*
X151990165Y-109682540D01*
X151930049Y-109519095D01*
X151861124Y-109360497D01*
X151783653Y-109207026D01*
X151697899Y-109058958D01*
X151604127Y-108916571D01*
X151502600Y-108780144D01*
X151393582Y-108649953D01*
X151277338Y-108526276D01*
X151154130Y-108409391D01*
X151024223Y-108299576D01*
X150887881Y-108197108D01*
X150745367Y-108102265D01*
X150596946Y-108015325D01*
X150442881Y-107936565D01*
X150283436Y-107866264D01*
X150252500Y-107853863D01*
X150091613Y-107795375D01*
X149929556Y-107746499D01*
X149765363Y-107707010D01*
X149598066Y-107676686D01*
X149426699Y-107655303D01*
X149373660Y-107650541D01*
X149347884Y-107648882D01*
X149314476Y-107647416D01*
X149275133Y-107646161D01*
X149231556Y-107645134D01*
X149185444Y-107644350D01*
X149138497Y-107643827D01*
X149092413Y-107643581D01*
X149048893Y-107643629D01*
X149009636Y-107643987D01*
X148976342Y-107644673D01*
X148950709Y-107645703D01*
X148941860Y-107646305D01*
X148846365Y-107654963D01*
X148758897Y-107664616D01*
X148677342Y-107675600D01*
X148599587Y-107688251D01*
X148523521Y-107702902D01*
X148447029Y-107719890D01*
X148390680Y-107733713D01*
X148220237Y-107782209D01*
X148053797Y-107840019D01*
X147891574Y-107907033D01*
X147733782Y-107983141D01*
X147580638Y-108068232D01*
X147432357Y-108162196D01*
X147289153Y-108264922D01*
X147171480Y-108359132D01*
X147140994Y-108385709D01*
X147105515Y-108418204D01*
X147066500Y-108455157D01*
X147025408Y-108495106D01*
X146983696Y-108536593D01*
X146942824Y-108578155D01*
X146904248Y-108618331D01*
X146869428Y-108655662D01*
X146839821Y-108688686D01*
X146824038Y-108707180D01*
X146713695Y-108847668D01*
X146612608Y-108992258D01*
X146520824Y-109140832D01*
X146438391Y-109293272D01*
X146365357Y-109449460D01*
X146301769Y-109609280D01*
X146247675Y-109772613D01*
X146203123Y-109939341D01*
X146168161Y-110109347D01*
X146142835Y-110282513D01*
X146129762Y-110420246D01*
X146127886Y-110454690D01*
X146126606Y-110496860D01*
X146125896Y-110544947D01*
X146125728Y-110597140D01*
X146126076Y-110651626D01*
X146126914Y-110706596D01*
X146128215Y-110760239D01*
X146129952Y-110810744D01*
X146132098Y-110856299D01*
X146134628Y-110895095D01*
X146137134Y-110922060D01*
X146157129Y-111071637D01*
X146182639Y-111214411D01*
X146214140Y-111352403D01*
X146252107Y-111487632D01*
X146297014Y-111622118D01*
X146310427Y-111658660D01*
X146376027Y-111819838D01*
X146450199Y-111975766D01*
X146532668Y-112126195D01*
X146623162Y-112270875D01*
X146721409Y-112409558D01*
X146827134Y-112541993D01*
X146940066Y-112667933D01*
X147059931Y-112787127D01*
X147186455Y-112899327D01*
X147319367Y-113004283D01*
X147458393Y-113101746D01*
X147603259Y-113191466D01*
X147753694Y-113273195D01*
X147909424Y-113346683D01*
X148070175Y-113411682D01*
X148235676Y-113467941D01*
X148319188Y-113492455D01*
X148345738Y-113500111D01*
X148368401Y-113507147D01*
X148385558Y-113513020D01*
X148395595Y-113517187D01*
X148397531Y-113518753D01*
X148395941Y-113524233D01*
X148391618Y-113538590D01*
X148384815Y-113560994D01*
X148375786Y-113590613D01*
X148364786Y-113626613D01*
X148352069Y-113668163D01*
X148337889Y-113714430D01*
X148322501Y-113764584D01*
X148306159Y-113817790D01*
X148302281Y-113830410D01*
X148281955Y-113896625D01*
X148264486Y-113953851D01*
X148249717Y-114002801D01*
X148237489Y-114044188D01*
X148227647Y-114078726D01*
X148220033Y-114107128D01*
X148214489Y-114130108D01*
X148210858Y-114148378D01*
X148208982Y-114162653D01*
X148208705Y-114173645D01*
X148209869Y-114182068D01*
X148212317Y-114188635D01*
X148215891Y-114194059D01*
X148220434Y-114199054D01*
X148220878Y-114199501D01*
X148230704Y-114207640D01*
X148241075Y-114210799D01*
X148256536Y-114210296D01*
D12*
X153060400Y-87223600D02*
X155092400Y-87223600D01*
X153060400Y-83159600D02*
X153060400Y-87223600D01*
X155092400Y-83159600D02*
X153060400Y-83159600D01*
X155092400Y-87223600D02*
X155092400Y-83159600D01*
X154508200Y-92913200D02*
X154508200Y-94945200D01*
X158572200Y-92913200D02*
X154508200Y-92913200D01*
X158572200Y-94945200D02*
X158572200Y-92913200D01*
X154508200Y-94945200D02*
X158572200Y-94945200D01*
X158750000Y-81026000D02*
X158750000Y-78994000D01*
X154686000Y-81026000D02*
X158750000Y-81026000D01*
X154686000Y-78994000D02*
X154686000Y-81026000D01*
X158750000Y-78994000D02*
X154686000Y-78994000D01*
D13*
X156944400Y-83414200D02*
X156944400Y-82339200D01*
X160019400Y-83414200D02*
X160019400Y-86664200D01*
X156769400Y-83414200D02*
X156769400Y-86664200D01*
X160019400Y-83414200D02*
X159744400Y-83414200D01*
X160019400Y-86664200D02*
X159744400Y-86664200D01*
X156769400Y-86664200D02*
X157044400Y-86664200D01*
X156769400Y-83414200D02*
X156944400Y-83414200D01*
D12*
X148996400Y-84226400D02*
X148996400Y-88290400D01*
X148996400Y-88290400D02*
X151028400Y-88290400D01*
X151028400Y-88290400D02*
X151028400Y-84226400D01*
X151028400Y-84226400D02*
X148996400Y-84226400D01*
X151028400Y-90170000D02*
X148996400Y-90170000D01*
X151028400Y-94234000D02*
X151028400Y-90170000D01*
X148996400Y-94234000D02*
X151028400Y-94234000D01*
X148996400Y-90170000D02*
X148996400Y-94234000D01*
X153263600Y-107238800D02*
X155295600Y-107238800D01*
X153263600Y-103174800D02*
X153263600Y-107238800D01*
X155295600Y-103174800D02*
X153263600Y-103174800D01*
X155295600Y-107238800D02*
X155295600Y-103174800D01*
X159156400Y-107238800D02*
X159156400Y-103174800D01*
X159156400Y-103174800D02*
X157124400Y-103174800D01*
X157124400Y-103174800D02*
X157124400Y-107238800D01*
X157124400Y-107238800D02*
X159156400Y-107238800D01*
X154533600Y-96672400D02*
X154533600Y-98704400D01*
X158597600Y-96672400D02*
X154533600Y-96672400D01*
X158597600Y-98704400D02*
X158597600Y-96672400D01*
X154533600Y-98704400D02*
X158597600Y-98704400D01*
X154635200Y-91592400D02*
X158699200Y-91592400D01*
X158699200Y-91592400D02*
X158699200Y-89560400D01*
X158699200Y-89560400D02*
X154635200Y-89560400D01*
X154635200Y-89560400D02*
X154635200Y-91592400D01*
D14*
X144412600Y-79218200D02*
X144031600Y-79218200D01*
X144031600Y-79218200D02*
X144031600Y-78710200D01*
X144412600Y-78710200D02*
X144031600Y-78710200D01*
X144412600Y-79218200D02*
X144412600Y-78710200D01*
X146343000Y-79218200D02*
X145962000Y-79218200D01*
X145962000Y-79218200D02*
X145962000Y-78710200D01*
X146343000Y-78710200D02*
X145962000Y-78710200D01*
X146343000Y-79218200D02*
X146343000Y-78710200D01*
X145377800Y-80589800D02*
X144996800Y-80589800D01*
X144996800Y-80589800D02*
X144996800Y-80081800D01*
X145377800Y-80081800D02*
X144996800Y-80081800D01*
X145377800Y-80589800D02*
X145377800Y-80081800D01*
D15*
X146622400Y-79269000D02*
X143726800Y-79269000D01*
X143726800Y-79269000D02*
X143726800Y-80031000D01*
X143726800Y-80031000D02*
X146622400Y-80031000D01*
X146622400Y-80031000D02*
X146622400Y-79269000D01*
X146622400Y-101781000D02*
X146622400Y-101019000D01*
X143726800Y-101781000D02*
X146622400Y-101781000D01*
X143726800Y-101019000D02*
X143726800Y-101781000D01*
X146622400Y-101019000D02*
X143726800Y-101019000D01*
D14*
X145377800Y-102339800D02*
X145377800Y-101831800D01*
X145377800Y-101831800D02*
X144996800Y-101831800D01*
X144996800Y-102339800D02*
X144996800Y-101831800D01*
X145377800Y-102339800D02*
X144996800Y-102339800D01*
X146343000Y-100968200D02*
X146343000Y-100460200D01*
X146343000Y-100460200D02*
X145962000Y-100460200D01*
X145962000Y-100968200D02*
X145962000Y-100460200D01*
X146343000Y-100968200D02*
X145962000Y-100968200D01*
X144412600Y-100968200D02*
X144412600Y-100460200D01*
X144412600Y-100460200D02*
X144031600Y-100460200D01*
X144031600Y-100968200D02*
X144031600Y-100460200D01*
X144412600Y-100968200D02*
X144031600Y-100968200D01*
D16*
X152711114Y-83601733D02*
X152749209Y-83568400D01*
X152787304Y-83468400D01*
X152787304Y-83401733D01*
X152749209Y-83301733D01*
X152673019Y-83235066D01*
X152596828Y-83201733D01*
X152444447Y-83168400D01*
X152330161Y-83168400D01*
X152177780Y-83201733D01*
X152101590Y-83235066D01*
X152025400Y-83301733D01*
X151987304Y-83401733D01*
X151987304Y-83468400D01*
X152025400Y-83568400D01*
X152063495Y-83601733D01*
X152253971Y-84201733D02*
X152787304Y-84201733D01*
X151949209Y-84035066D02*
X152520638Y-83868400D01*
X152520638Y-84301733D01*
X152685704Y-86222733D02*
X152685704Y-85822733D01*
X152685704Y-86022733D02*
X151885704Y-86022733D01*
X151999990Y-85956066D01*
X152076180Y-85889400D01*
X152114276Y-85822733D01*
X152152371Y-86822733D02*
X152685704Y-86822733D01*
X152152371Y-86522733D02*
X152571419Y-86522733D01*
X152647609Y-86556066D01*
X152685704Y-86622733D01*
X152685704Y-86722733D01*
X152647609Y-86789400D01*
X152609514Y-86822733D01*
X152266657Y-87389400D02*
X152266657Y-87156066D01*
X152685704Y-87156066D02*
X151885704Y-87156066D01*
X151885704Y-87489400D01*
X159658057Y-93396666D02*
X159658057Y-93163333D01*
X160077104Y-93163333D02*
X159277104Y-93163333D01*
X159277104Y-93496666D01*
X159658057Y-93996666D02*
X159696152Y-94096666D01*
X159734247Y-94130000D01*
X159810438Y-94163333D01*
X159924723Y-94163333D01*
X160000914Y-94130000D01*
X160039009Y-94096666D01*
X160077104Y-94030000D01*
X160077104Y-93763333D01*
X159277104Y-93763333D01*
X159277104Y-93996666D01*
X159315200Y-94063333D01*
X159353295Y-94096666D01*
X159429485Y-94130000D01*
X159505676Y-94130000D01*
X159581866Y-94096666D01*
X159619961Y-94063333D01*
X159658057Y-93996666D01*
X159658057Y-93763333D01*
X160077104Y-94830000D02*
X160077104Y-94430000D01*
X160077104Y-94630000D02*
X159277104Y-94630000D01*
X159391390Y-94563333D01*
X159467580Y-94496666D01*
X159505676Y-94430000D01*
X153803304Y-92653800D02*
X153803304Y-92253800D01*
X153803304Y-92453800D02*
X153003304Y-92453800D01*
X153117590Y-92387133D01*
X153193780Y-92320466D01*
X153231876Y-92253800D01*
X153727114Y-92953800D02*
X153765209Y-92987133D01*
X153803304Y-92953800D01*
X153765209Y-92920466D01*
X153727114Y-92953800D01*
X153803304Y-92953800D01*
X153003304Y-93620466D02*
X153003304Y-93287133D01*
X153384257Y-93253800D01*
X153346161Y-93287133D01*
X153308066Y-93353800D01*
X153308066Y-93520466D01*
X153346161Y-93587133D01*
X153384257Y-93620466D01*
X153460447Y-93653800D01*
X153650923Y-93653800D01*
X153727114Y-93620466D01*
X153765209Y-93587133D01*
X153803304Y-93520466D01*
X153803304Y-93353800D01*
X153765209Y-93287133D01*
X153727114Y-93253800D01*
X153803304Y-94487133D02*
X153003304Y-94487133D01*
X153498542Y-94553800D02*
X153803304Y-94753800D01*
X153269971Y-94753800D02*
X153574733Y-94487133D01*
X153803304Y-95020466D02*
X153803304Y-95187133D01*
X153650923Y-95187133D01*
X153612828Y-95120466D01*
X153536638Y-95053800D01*
X153422352Y-95020466D01*
X153231876Y-95020466D01*
X153117590Y-95053800D01*
X153041400Y-95120466D01*
X153003304Y-95220466D01*
X153003304Y-95353800D01*
X153041400Y-95453800D01*
X153117590Y-95520466D01*
X153231876Y-95553800D01*
X153422352Y-95553800D01*
X153536638Y-95520466D01*
X153612828Y-95453800D01*
X153650923Y-95387133D01*
X153803304Y-95387133D01*
X153803304Y-95553800D01*
X158444333Y-78149457D02*
X158677666Y-78149457D01*
X158677666Y-78568504D02*
X158677666Y-77768504D01*
X158344333Y-77768504D01*
X157844333Y-78149457D02*
X157744333Y-78187552D01*
X157711000Y-78225647D01*
X157677666Y-78301838D01*
X157677666Y-78416123D01*
X157711000Y-78492314D01*
X157744333Y-78530409D01*
X157811000Y-78568504D01*
X158077666Y-78568504D01*
X158077666Y-77768504D01*
X157844333Y-77768504D01*
X157777666Y-77806600D01*
X157744333Y-77844695D01*
X157711000Y-77920885D01*
X157711000Y-77997076D01*
X157744333Y-78073266D01*
X157777666Y-78111361D01*
X157844333Y-78149457D01*
X158077666Y-78149457D01*
X157411000Y-77844695D02*
X157377666Y-77806600D01*
X157311000Y-77768504D01*
X157144333Y-77768504D01*
X157077666Y-77806600D01*
X157044333Y-77844695D01*
X157011000Y-77920885D01*
X157011000Y-77997076D01*
X157044333Y-78111361D01*
X157444333Y-78568504D01*
X157011000Y-78568504D01*
X153981104Y-78709200D02*
X153981104Y-78309200D01*
X153981104Y-78509200D02*
X153181104Y-78509200D01*
X153295390Y-78442533D01*
X153371580Y-78375866D01*
X153409676Y-78309200D01*
X153904914Y-79009200D02*
X153943009Y-79042533D01*
X153981104Y-79009200D01*
X153943009Y-78975866D01*
X153904914Y-79009200D01*
X153981104Y-79009200D01*
X153181104Y-79675866D02*
X153181104Y-79342533D01*
X153562057Y-79309200D01*
X153523961Y-79342533D01*
X153485866Y-79409200D01*
X153485866Y-79575866D01*
X153523961Y-79642533D01*
X153562057Y-79675866D01*
X153638247Y-79709200D01*
X153828723Y-79709200D01*
X153904914Y-79675866D01*
X153943009Y-79642533D01*
X153981104Y-79575866D01*
X153981104Y-79409200D01*
X153943009Y-79342533D01*
X153904914Y-79309200D01*
X153981104Y-80542533D02*
X153181104Y-80542533D01*
X153676342Y-80609200D02*
X153981104Y-80809200D01*
X153447771Y-80809200D02*
X153752533Y-80542533D01*
X153981104Y-81075866D02*
X153981104Y-81242533D01*
X153828723Y-81242533D01*
X153790628Y-81175866D01*
X153714438Y-81109200D01*
X153600152Y-81075866D01*
X153409676Y-81075866D01*
X153295390Y-81109200D01*
X153219200Y-81175866D01*
X153181104Y-81275866D01*
X153181104Y-81409200D01*
X153219200Y-81509200D01*
X153295390Y-81575866D01*
X153409676Y-81609200D01*
X153600152Y-81609200D01*
X153714438Y-81575866D01*
X153790628Y-81509200D01*
X153828723Y-81442533D01*
X153981104Y-81442533D01*
X153981104Y-81609200D01*
X159988304Y-81483266D02*
X160635923Y-81483266D01*
X160712114Y-81516600D01*
X160750209Y-81549933D01*
X160788304Y-81616600D01*
X160788304Y-81749933D01*
X160750209Y-81816600D01*
X160712114Y-81849933D01*
X160635923Y-81883266D01*
X159988304Y-81883266D01*
X160788304Y-82583266D02*
X160788304Y-82183266D01*
X160788304Y-82383266D02*
X159988304Y-82383266D01*
X160102590Y-82316600D01*
X160178780Y-82249933D01*
X160216876Y-82183266D01*
X148552304Y-87742733D02*
X148171352Y-87509400D01*
X148552304Y-87342733D02*
X147752304Y-87342733D01*
X147752304Y-87609400D01*
X147790400Y-87676066D01*
X147828495Y-87709400D01*
X147904685Y-87742733D01*
X148018971Y-87742733D01*
X148095161Y-87709400D01*
X148133257Y-87676066D01*
X148171352Y-87609400D01*
X148171352Y-87342733D01*
X148552304Y-88409400D02*
X148552304Y-88009400D01*
X148552304Y-88209400D02*
X147752304Y-88209400D01*
X147866590Y-88142733D01*
X147942780Y-88076066D01*
X147980876Y-88009400D01*
X148552304Y-84420133D02*
X148552304Y-84020133D01*
X148552304Y-84220133D02*
X147752304Y-84220133D01*
X147866590Y-84153466D01*
X147942780Y-84086800D01*
X147980876Y-84020133D01*
X147752304Y-84853466D02*
X147752304Y-84920133D01*
X147790400Y-84986800D01*
X147828495Y-85020133D01*
X147904685Y-85053466D01*
X148057066Y-85086800D01*
X148247542Y-85086800D01*
X148399923Y-85053466D01*
X148476114Y-85020133D01*
X148514209Y-84986800D01*
X148552304Y-84920133D01*
X148552304Y-84853466D01*
X148514209Y-84786800D01*
X148476114Y-84753466D01*
X148399923Y-84720133D01*
X148247542Y-84686800D01*
X148057066Y-84686800D01*
X147904685Y-84720133D01*
X147828495Y-84753466D01*
X147790400Y-84786800D01*
X147752304Y-84853466D01*
X148552304Y-85386800D02*
X147752304Y-85386800D01*
X148247542Y-85453466D02*
X148552304Y-85653466D01*
X148018971Y-85653466D02*
X148323733Y-85386800D01*
X148552304Y-93737133D02*
X148171352Y-93503800D01*
X148552304Y-93337133D02*
X147752304Y-93337133D01*
X147752304Y-93603800D01*
X147790400Y-93670466D01*
X147828495Y-93703800D01*
X147904685Y-93737133D01*
X148018971Y-93737133D01*
X148095161Y-93703800D01*
X148133257Y-93670466D01*
X148171352Y-93603800D01*
X148171352Y-93337133D01*
X147828495Y-94003800D02*
X147790400Y-94037133D01*
X147752304Y-94103800D01*
X147752304Y-94270466D01*
X147790400Y-94337133D01*
X147828495Y-94370466D01*
X147904685Y-94403800D01*
X147980876Y-94403800D01*
X148095161Y-94370466D01*
X148552304Y-93970466D01*
X148552304Y-94403800D01*
X148552304Y-90414533D02*
X148552304Y-90014533D01*
X148552304Y-90214533D02*
X147752304Y-90214533D01*
X147866590Y-90147866D01*
X147942780Y-90081200D01*
X147980876Y-90014533D01*
X147752304Y-90847866D02*
X147752304Y-90914533D01*
X147790400Y-90981200D01*
X147828495Y-91014533D01*
X147904685Y-91047866D01*
X148057066Y-91081200D01*
X148247542Y-91081200D01*
X148399923Y-91047866D01*
X148476114Y-91014533D01*
X148514209Y-90981200D01*
X148552304Y-90914533D01*
X148552304Y-90847866D01*
X148514209Y-90781200D01*
X148476114Y-90747866D01*
X148399923Y-90714533D01*
X148247542Y-90681200D01*
X148057066Y-90681200D01*
X147904685Y-90714533D01*
X147828495Y-90747866D01*
X147790400Y-90781200D01*
X147752304Y-90847866D01*
X148552304Y-91381200D02*
X147752304Y-91381200D01*
X148247542Y-91447866D02*
X148552304Y-91647866D01*
X148018971Y-91647866D02*
X148323733Y-91381200D01*
X156419504Y-105090133D02*
X156038552Y-104856800D01*
X156419504Y-104690133D02*
X155619504Y-104690133D01*
X155619504Y-104956800D01*
X155657600Y-105023466D01*
X155695695Y-105056800D01*
X155771885Y-105090133D01*
X155886171Y-105090133D01*
X155962361Y-105056800D01*
X156000457Y-105023466D01*
X156038552Y-104956800D01*
X156038552Y-104690133D01*
X155619504Y-105323466D02*
X155619504Y-105756800D01*
X155924266Y-105523466D01*
X155924266Y-105623466D01*
X155962361Y-105690133D01*
X156000457Y-105723466D01*
X156076647Y-105756800D01*
X156267123Y-105756800D01*
X156343314Y-105723466D01*
X156381409Y-105690133D01*
X156419504Y-105623466D01*
X156419504Y-105423466D01*
X156381409Y-105356800D01*
X156343314Y-105323466D01*
X154696266Y-102317504D02*
X155096266Y-102317504D01*
X154896266Y-102317504D02*
X154896266Y-101517504D01*
X154962933Y-101631790D01*
X155029600Y-101707980D01*
X155096266Y-101746076D01*
X154262933Y-101517504D02*
X154196266Y-101517504D01*
X154129600Y-101555600D01*
X154096266Y-101593695D01*
X154062933Y-101669885D01*
X154029600Y-101822266D01*
X154029600Y-102012742D01*
X154062933Y-102165123D01*
X154096266Y-102241314D01*
X154129600Y-102279409D01*
X154196266Y-102317504D01*
X154262933Y-102317504D01*
X154329600Y-102279409D01*
X154362933Y-102241314D01*
X154396266Y-102165123D01*
X154429600Y-102012742D01*
X154429600Y-101822266D01*
X154396266Y-101669885D01*
X154362933Y-101593695D01*
X154329600Y-101555600D01*
X154262933Y-101517504D01*
X153729600Y-102317504D02*
X153729600Y-101517504D01*
X153662933Y-102012742D02*
X153462933Y-102317504D01*
X153462933Y-101784171D02*
X153729600Y-102088933D01*
X160280304Y-105090133D02*
X159899352Y-104856800D01*
X160280304Y-104690133D02*
X159480304Y-104690133D01*
X159480304Y-104956800D01*
X159518400Y-105023466D01*
X159556495Y-105056800D01*
X159632685Y-105090133D01*
X159746971Y-105090133D01*
X159823161Y-105056800D01*
X159861257Y-105023466D01*
X159899352Y-104956800D01*
X159899352Y-104690133D01*
X159746971Y-105690133D02*
X160280304Y-105690133D01*
X159442209Y-105523466D02*
X160013638Y-105356800D01*
X160013638Y-105790133D01*
X158684066Y-102317504D02*
X159084066Y-102317504D01*
X158884066Y-102317504D02*
X158884066Y-101517504D01*
X158950733Y-101631790D01*
X159017400Y-101707980D01*
X159084066Y-101746076D01*
X158250733Y-101517504D02*
X158184066Y-101517504D01*
X158117400Y-101555600D01*
X158084066Y-101593695D01*
X158050733Y-101669885D01*
X158017400Y-101822266D01*
X158017400Y-102012742D01*
X158050733Y-102165123D01*
X158084066Y-102241314D01*
X158117400Y-102279409D01*
X158184066Y-102317504D01*
X158250733Y-102317504D01*
X158317400Y-102279409D01*
X158350733Y-102241314D01*
X158384066Y-102165123D01*
X158417400Y-102012742D01*
X158417400Y-101822266D01*
X158384066Y-101669885D01*
X158350733Y-101593695D01*
X158317400Y-101555600D01*
X158250733Y-101517504D01*
X157717400Y-102317504D02*
X157717400Y-101517504D01*
X157650733Y-102012742D02*
X157450733Y-102317504D01*
X157450733Y-101784171D02*
X157717400Y-102088933D01*
X160077104Y-97571733D02*
X159696152Y-97338400D01*
X160077104Y-97171733D02*
X159277104Y-97171733D01*
X159277104Y-97438400D01*
X159315200Y-97505066D01*
X159353295Y-97538400D01*
X159429485Y-97571733D01*
X159543771Y-97571733D01*
X159619961Y-97538400D01*
X159658057Y-97505066D01*
X159696152Y-97438400D01*
X159696152Y-97171733D01*
X159277104Y-98205066D02*
X159277104Y-97871733D01*
X159658057Y-97838400D01*
X159619961Y-97871733D01*
X159581866Y-97938400D01*
X159581866Y-98105066D01*
X159619961Y-98171733D01*
X159658057Y-98205066D01*
X159734247Y-98238400D01*
X159924723Y-98238400D01*
X160000914Y-98205066D01*
X160039009Y-98171733D01*
X160077104Y-98105066D01*
X160077104Y-97938400D01*
X160039009Y-97871733D01*
X160000914Y-97838400D01*
X153803304Y-97195533D02*
X153803304Y-96795533D01*
X153803304Y-96995533D02*
X153003304Y-96995533D01*
X153117590Y-96928866D01*
X153193780Y-96862200D01*
X153231876Y-96795533D01*
X153003304Y-97628866D02*
X153003304Y-97695533D01*
X153041400Y-97762200D01*
X153079495Y-97795533D01*
X153155685Y-97828866D01*
X153308066Y-97862200D01*
X153498542Y-97862200D01*
X153650923Y-97828866D01*
X153727114Y-97795533D01*
X153765209Y-97762200D01*
X153803304Y-97695533D01*
X153803304Y-97628866D01*
X153765209Y-97562200D01*
X153727114Y-97528866D01*
X153650923Y-97495533D01*
X153498542Y-97462200D01*
X153308066Y-97462200D01*
X153155685Y-97495533D01*
X153079495Y-97528866D01*
X153041400Y-97562200D01*
X153003304Y-97628866D01*
X153803304Y-98162200D02*
X153003304Y-98162200D01*
X153498542Y-98228866D02*
X153803304Y-98428866D01*
X153269971Y-98428866D02*
X153574733Y-98162200D01*
X160077104Y-90485133D02*
X159696152Y-90251800D01*
X160077104Y-90085133D02*
X159277104Y-90085133D01*
X159277104Y-90351800D01*
X159315200Y-90418466D01*
X159353295Y-90451800D01*
X159429485Y-90485133D01*
X159543771Y-90485133D01*
X159619961Y-90451800D01*
X159658057Y-90418466D01*
X159696152Y-90351800D01*
X159696152Y-90085133D01*
X159277104Y-91085133D02*
X159277104Y-90951800D01*
X159315200Y-90885133D01*
X159353295Y-90851800D01*
X159467580Y-90785133D01*
X159619961Y-90751800D01*
X159924723Y-90751800D01*
X160000914Y-90785133D01*
X160039009Y-90818466D01*
X160077104Y-90885133D01*
X160077104Y-91018466D01*
X160039009Y-91085133D01*
X160000914Y-91118466D01*
X159924723Y-91151800D01*
X159734247Y-91151800D01*
X159658057Y-91118466D01*
X159619961Y-91085133D01*
X159581866Y-91018466D01*
X159581866Y-90885133D01*
X159619961Y-90818466D01*
X159658057Y-90785133D01*
X159734247Y-90751800D01*
X153803304Y-90185133D02*
X153803304Y-89785133D01*
X153803304Y-89985133D02*
X153003304Y-89985133D01*
X153117590Y-89918466D01*
X153193780Y-89851800D01*
X153231876Y-89785133D01*
X153003304Y-90618466D02*
X153003304Y-90685133D01*
X153041400Y-90751800D01*
X153079495Y-90785133D01*
X153155685Y-90818466D01*
X153308066Y-90851800D01*
X153498542Y-90851800D01*
X153650923Y-90818466D01*
X153727114Y-90785133D01*
X153765209Y-90751800D01*
X153803304Y-90685133D01*
X153803304Y-90618466D01*
X153765209Y-90551800D01*
X153727114Y-90518466D01*
X153650923Y-90485133D01*
X153498542Y-90451800D01*
X153308066Y-90451800D01*
X153155685Y-90485133D01*
X153079495Y-90518466D01*
X153041400Y-90551800D01*
X153003304Y-90618466D01*
X153803304Y-91151800D02*
X153003304Y-91151800D01*
X153498542Y-91218466D02*
X153803304Y-91418466D01*
X153269971Y-91418466D02*
X153574733Y-91151800D01*
M02*
