G04 #@! TF.GenerationSoftware,KiCad,Pcbnew,(5.1.5-0-10_14)*
G04 #@! TF.CreationDate,2020-12-02T11:51:34+01:00*
G04 #@! TF.ProjectId,smartcitizen-adc-4-ch,736d6172-7463-4697-9469-7a656e2d6164,rev?*
G04 #@! TF.SameCoordinates,Original*
G04 #@! TF.FileFunction,Copper,L2,Bot*
G04 #@! TF.FilePolarity,Positive*
%FSLAX46Y46*%
G04 Gerber Fmt 4.6, Leading zero omitted, Abs format (unit mm)*
G04 Created by KiCad (PCBNEW (5.1.5-0-10_14)) date 2020-12-02 11:51:34*
%MOMM*%
%LPD*%
G04 APERTURE LIST*
%ADD10O,3.048000X1.524000*%
%ADD11C,3.048000*%
%ADD12C,2.400000*%
%ADD13R,2.400000X2.400000*%
%ADD14R,1.905000X1.270000*%
%ADD15R,1.270000X1.905000*%
%ADD16O,1.524000X3.048000*%
%ADD17R,0.250000X1.100000*%
%ADD18R,0.787400X0.889000*%
%ADD19C,0.800000*%
%ADD20C,0.800000*%
%ADD21C,0.250000*%
%ADD22C,0.400000*%
G04 APERTURE END LIST*
D10*
X162661600Y-104038400D03*
X162661600Y-101498400D03*
X162661600Y-98958400D03*
X162661600Y-96418400D03*
X162661600Y-93878400D03*
X162661600Y-91338400D03*
X162661600Y-88798400D03*
X162661600Y-86258400D03*
X162661600Y-83718400D03*
X162661600Y-81178400D03*
D11*
X150211600Y-104038400D03*
X150211600Y-81178400D03*
D12*
X169900000Y-86300000D03*
D13*
X169900000Y-89800000D03*
D12*
X142800000Y-90000000D03*
D13*
X142800000Y-86500000D03*
D14*
X154076400Y-83540600D03*
X154076400Y-86842600D03*
D15*
X158191200Y-93929200D03*
X154889200Y-93929200D03*
X155067000Y-80010000D03*
X158369000Y-80010000D03*
D16*
X162356800Y-62330000D03*
X159816800Y-62330000D03*
X157276800Y-62330000D03*
X154736800Y-62330000D03*
X152196800Y-62330000D03*
X149656800Y-62330000D03*
X149656800Y-74523600D03*
X152196800Y-74523600D03*
X154736800Y-74523600D03*
X157276800Y-74523600D03*
X159816800Y-74523600D03*
X162356800Y-74523600D03*
D17*
X157394400Y-87189200D03*
X157894400Y-87189200D03*
X158394400Y-87189200D03*
X158894400Y-87189200D03*
X159394400Y-87189200D03*
X159394400Y-82889200D03*
X158894400Y-82889200D03*
X158394400Y-82889200D03*
X157894400Y-82889200D03*
X157394400Y-82889200D03*
D14*
X150012400Y-84607400D03*
X150012400Y-87909400D03*
X150012400Y-93853000D03*
X150012400Y-90551000D03*
X154279600Y-103555800D03*
X154279600Y-106857800D03*
X158140400Y-106857800D03*
X158140400Y-103555800D03*
D15*
X158216600Y-97688400D03*
X154914600Y-97688400D03*
X155016200Y-90576400D03*
X158318200Y-90576400D03*
D18*
X145174600Y-80666000D03*
X146139800Y-78634000D03*
X144209400Y-78634000D03*
X144209400Y-100384000D03*
X146139800Y-100384000D03*
X145174600Y-102416000D03*
D19*
X172500000Y-92300000D03*
X146160000Y-105340000D03*
X163398959Y-71301041D03*
X145925000Y-75925000D03*
X144600000Y-94450000D03*
X151587200Y-84607400D03*
X148050000Y-90650000D03*
X153365200Y-79806800D03*
X147700000Y-75042840D03*
X152247600Y-78841600D03*
X148026041Y-76823959D03*
X156667200Y-97688400D03*
X167550000Y-73500000D03*
X141650000Y-74350000D03*
X146200000Y-92950000D03*
X158949192Y-85238392D03*
X165060000Y-75910000D03*
X157988000Y-84734400D03*
X160121600Y-80467200D03*
X161360000Y-76600000D03*
X155752800Y-88290400D03*
X153212800Y-93218000D03*
X158400000Y-102300000D03*
X159585713Y-88775487D03*
X154300000Y-102050000D03*
X149860000Y-97688400D03*
X153111200Y-97688400D03*
X157073600Y-89001600D03*
X156768800Y-81432400D03*
X156565600Y-93929200D03*
D20*
X148820000Y-108950000D02*
X163700000Y-108950000D01*
X146160000Y-105340000D02*
X148800000Y-108950000D01*
X169900000Y-95100000D02*
X172500000Y-92500000D01*
X169900000Y-101600000D02*
X169900000Y-95100000D01*
X172500000Y-92500000D02*
X172500000Y-92300000D01*
X163700000Y-108950000D02*
X169900000Y-101600000D01*
D21*
X156163900Y-85957600D02*
X155278900Y-86842600D01*
X158012802Y-85957600D02*
X156163900Y-85957600D01*
X158394401Y-86339199D02*
X158012802Y-85957600D01*
X155278900Y-86842600D02*
X154076400Y-86842600D01*
X158394400Y-87189200D02*
X158394401Y-86339199D01*
X154914600Y-87680800D02*
X154076400Y-86842600D01*
X154914600Y-90424000D02*
X154914600Y-87680800D01*
D22*
X161004200Y-106857800D02*
X158140400Y-106857800D01*
X158140400Y-106857800D02*
X154279600Y-106857800D01*
X162661600Y-104038400D02*
X162661600Y-105200400D01*
X162661600Y-105200400D02*
X161004200Y-106857800D01*
X154914600Y-90424000D02*
X154914600Y-93929200D01*
D20*
X167000010Y-99918873D02*
X167000010Y-74900010D01*
X162880483Y-104038400D02*
X167000010Y-99918873D01*
X162661600Y-104038400D02*
X162880483Y-104038400D01*
X167000010Y-74900010D02*
X163900000Y-71800000D01*
X163897918Y-71800000D02*
X163398959Y-71301041D01*
X163900000Y-71800000D02*
X163897918Y-71800000D01*
D22*
X153854200Y-93929200D02*
X154889200Y-93929200D01*
X152200000Y-97600000D02*
X153854200Y-93929200D01*
X152200000Y-100100000D02*
X152200000Y-97600000D01*
X160737600Y-103379598D02*
X157450000Y-100100000D01*
X160737600Y-104038400D02*
X160737600Y-103379598D01*
X157450000Y-100100000D02*
X152200000Y-100100000D01*
X162661600Y-104038400D02*
X160737600Y-104038400D01*
X144209400Y-77640600D02*
X145925000Y-75925000D01*
X144209400Y-78634000D02*
X144209400Y-77640600D01*
D21*
X144600000Y-99993400D02*
X144209400Y-100384000D01*
X144600000Y-94450000D02*
X144600000Y-99993400D01*
D22*
X150012400Y-84607400D02*
X151587200Y-84607400D01*
X149913400Y-90650000D02*
X150012400Y-90551000D01*
X148050000Y-90650000D02*
X149913400Y-90650000D01*
X153365200Y-78701198D02*
X153365200Y-79806800D01*
X152655601Y-77991599D02*
X153365200Y-78701198D01*
X150648759Y-77991599D02*
X152655601Y-77991599D01*
X147700000Y-75042840D02*
X150648759Y-77991599D01*
D21*
X153365200Y-82034800D02*
X153365200Y-79806800D01*
X152748899Y-85001101D02*
X152748899Y-82651101D01*
X151937789Y-85812211D02*
X152748899Y-85001101D01*
X152748899Y-82651101D02*
X153365200Y-82034800D01*
X150012400Y-93853000D02*
X150012400Y-92151200D01*
X151937789Y-91812211D02*
X151937789Y-85812211D01*
X151598800Y-92151200D02*
X151937789Y-91812211D01*
X150012400Y-92151200D02*
X151598800Y-92151200D01*
D22*
X146139800Y-95660200D02*
X147947000Y-93853000D01*
X147947000Y-93853000D02*
X150012400Y-93853000D01*
X146139800Y-100384000D02*
X146139800Y-95660200D01*
X147878800Y-87934800D02*
X147878800Y-80589678D01*
X150043682Y-78841600D02*
X148026041Y-76823959D01*
X152247600Y-78841600D02*
X150043682Y-78841600D01*
X149626878Y-78841600D02*
X152247600Y-78841600D01*
X147878800Y-80589678D02*
X149626878Y-78841600D01*
X146216000Y-78634000D02*
X148026041Y-76823959D01*
X146139800Y-78634000D02*
X146216000Y-78634000D01*
X148634500Y-87934800D02*
X147878800Y-87934800D01*
X148659900Y-87909400D02*
X148634500Y-87934800D01*
X150012400Y-87909400D02*
X148659900Y-87909400D01*
X154736800Y-79679800D02*
X155067000Y-80010000D01*
X154736800Y-74523600D02*
X154736800Y-79679800D01*
D21*
X158394400Y-80035400D02*
X158369000Y-80010000D01*
X158394400Y-82889200D02*
X158394400Y-80035400D01*
D22*
X154076400Y-81000600D02*
X155067000Y-80010000D01*
X154076400Y-83540600D02*
X154076400Y-81000600D01*
X158216600Y-98977400D02*
X158216600Y-97688400D01*
X160737600Y-101498400D02*
X158216600Y-98977400D01*
X162661600Y-101498400D02*
X160737600Y-101498400D01*
X158216600Y-97688400D02*
X156667200Y-97688400D01*
D20*
X152196800Y-69659600D02*
X152196800Y-62330000D01*
X149656800Y-72199600D02*
X152196800Y-69659600D01*
X149656800Y-74523600D02*
X149656800Y-72199600D01*
X142800000Y-86500000D02*
X142800000Y-75500000D01*
X142800000Y-75500000D02*
X141650000Y-74350000D01*
X171900000Y-89800000D02*
X169900000Y-89800000D01*
X172900000Y-84800000D02*
X172900000Y-88800000D01*
X168923970Y-80823970D02*
X172900000Y-84800000D01*
X172900000Y-88800000D02*
X171900000Y-89800000D01*
X168923970Y-74873970D02*
X168923970Y-80823970D01*
X167550000Y-73500000D02*
X168923970Y-74873970D01*
X144800000Y-86500000D02*
X142800000Y-86500000D01*
X146200000Y-92950000D02*
X146200000Y-87900000D01*
X146200000Y-87900000D02*
X144800000Y-86500000D01*
D21*
X159410400Y-84777184D02*
X158949192Y-85238392D01*
X159410400Y-82905200D02*
X159410400Y-84777184D01*
X159394400Y-82889200D02*
X159410400Y-82905200D01*
D22*
X164585600Y-86258400D02*
X165180000Y-85664000D01*
X162661600Y-86258400D02*
X164585600Y-86258400D01*
X165180000Y-76030000D02*
X165060000Y-75910000D01*
X165180000Y-85664000D02*
X165180000Y-76030000D01*
D21*
X158894400Y-83828000D02*
X157988000Y-84734400D01*
X158894400Y-82889200D02*
X158894400Y-83828000D01*
D22*
X166150000Y-87234000D02*
X166150000Y-75667200D01*
X154736800Y-64254000D02*
X154736800Y-62330000D01*
X166150000Y-75667200D02*
X154736800Y-64254000D01*
X164585600Y-88798400D02*
X166150000Y-87234000D01*
X162661600Y-88798400D02*
X164585600Y-88798400D01*
X157276800Y-76403200D02*
X157276800Y-74523600D01*
X160121600Y-79248000D02*
X157276800Y-76403200D01*
D21*
X160887600Y-83718400D02*
X162661600Y-83718400D01*
X160477200Y-84226400D02*
X160887600Y-83718400D01*
X160477200Y-86512400D02*
X160477200Y-84226400D01*
X159769400Y-87189200D02*
X160477200Y-86512400D01*
X159394400Y-87189200D02*
X159769400Y-87189200D01*
D22*
X160121600Y-79248000D02*
X160121600Y-80467200D01*
X152209500Y-74422000D02*
X152590500Y-74422000D01*
X163385500Y-81089500D02*
X162623500Y-81089500D01*
D21*
X158894400Y-86389200D02*
X158894400Y-87189200D01*
X159910410Y-85373190D02*
X158894400Y-86389200D01*
X159910410Y-83929590D02*
X159910410Y-85373190D01*
X162661600Y-81178400D02*
X159910410Y-83929590D01*
D22*
X162661600Y-81178400D02*
X162661600Y-77897990D01*
X162661600Y-77897990D02*
X161360000Y-76600000D01*
D21*
X157394400Y-87189200D02*
X156854000Y-87189200D01*
X156854000Y-87189200D02*
X155752800Y-88290400D01*
X145174600Y-103110500D02*
X145174600Y-102416000D01*
D22*
X151159121Y-106012401D02*
X148076501Y-106012401D01*
X148076501Y-106012401D02*
X145174600Y-103110500D01*
X151821522Y-105350000D02*
X151159121Y-106012401D01*
X157381200Y-105350000D02*
X151821522Y-105350000D01*
X158140400Y-104590800D02*
X157381200Y-105350000D01*
X158140400Y-103555800D02*
X158140400Y-104590800D01*
X158140400Y-102559600D02*
X158400000Y-102300000D01*
X158140400Y-103555800D02*
X158140400Y-102559600D01*
X157029210Y-100929210D02*
X158400000Y-102300000D01*
X152200000Y-100929210D02*
X157029210Y-100929210D01*
X151550000Y-100450000D02*
X152200000Y-100929210D01*
X151550000Y-96900000D02*
X151550000Y-100450000D01*
X153212800Y-93218000D02*
X151550000Y-96900000D01*
D21*
X158680687Y-88775487D02*
X159585713Y-88775487D01*
X157894400Y-87989200D02*
X158680687Y-88775487D01*
X157894400Y-87189200D02*
X157894400Y-87989200D01*
D22*
X154699999Y-102449999D02*
X154699999Y-103553157D01*
X154699999Y-103553157D02*
X154697356Y-103555800D01*
X154300000Y-102050000D02*
X154699999Y-102449999D01*
X150892799Y-101521499D02*
X152927100Y-103555800D01*
X145296099Y-101188501D02*
X145629097Y-101521499D01*
X145296099Y-95584649D02*
X145296099Y-101188501D01*
X147199999Y-93680749D02*
X145296099Y-95584649D01*
X147199999Y-83535899D02*
X147199999Y-93680749D01*
X145174600Y-81510500D02*
X147199999Y-83535899D01*
X152927100Y-103555800D02*
X154279600Y-103555800D01*
X145629097Y-101521499D02*
X150892799Y-101521499D01*
X145174600Y-80666000D02*
X145174600Y-81510500D01*
X160737600Y-93878400D02*
X158807200Y-95808800D01*
X162661600Y-93878400D02*
X160737600Y-93878400D01*
X154914600Y-96335900D02*
X154914600Y-97688400D01*
X155441700Y-95808800D02*
X154914600Y-96335900D01*
X158807200Y-95808800D02*
X155441700Y-95808800D01*
D21*
X153111200Y-97688400D02*
X154914600Y-97688400D01*
X150550000Y-97700000D02*
X149860000Y-97688400D01*
X152437799Y-86218699D02*
X152437799Y-93500000D01*
X155041600Y-85242400D02*
X153414098Y-85242400D01*
X153414098Y-85242400D02*
X152437799Y-86218699D01*
X152437799Y-93500000D02*
X150550000Y-97700000D01*
X157019400Y-82889200D02*
X155041600Y-85242400D01*
X157394400Y-82889200D02*
X157019400Y-82889200D01*
D22*
X160737600Y-91338400D02*
X158242000Y-90576400D01*
X162661600Y-91338400D02*
X160737600Y-91338400D01*
D21*
X156768800Y-81432400D02*
X157334485Y-81432400D01*
X157334485Y-81432400D02*
X157894400Y-81992315D01*
X157894400Y-81992315D02*
X157894400Y-82889200D01*
X158318200Y-90576400D02*
X157433200Y-90576400D01*
X157433200Y-90576400D02*
X157073600Y-90216800D01*
X157073600Y-90216800D02*
X157073600Y-89001600D01*
D22*
X158191200Y-93929200D02*
X156565600Y-93929200D01*
M02*
