G04 #@! TF.GenerationSoftware,KiCad,Pcbnew,(5.1.5-0-10_14)*
G04 #@! TF.CreationDate,2020-12-02T11:51:34+01:00*
G04 #@! TF.ProjectId,smartcitizen-adc-4-ch,736d6172-7463-4697-9469-7a656e2d6164,rev?*
G04 #@! TF.SameCoordinates,Original*
G04 #@! TF.FileFunction,Legend,Top*
G04 #@! TF.FilePolarity,Positive*
%FSLAX46Y46*%
G04 Gerber Fmt 4.6, Leading zero omitted, Abs format (unit mm)*
G04 Created by KiCad (PCBNEW (5.1.5-0-10_14)) date 2020-12-02 11:51:34*
%MOMM*%
%LPD*%
G04 APERTURE LIST*
%ADD10C,0.120000*%
%ADD11C,0.150000*%
%ADD12C,0.127000*%
%ADD13C,0.152400*%
G04 APERTURE END LIST*
D10*
X170711904Y-92950000D02*
X170807142Y-92997619D01*
X170950000Y-92997619D01*
X171092857Y-92950000D01*
X171188095Y-92854761D01*
X171235714Y-92759523D01*
X171283333Y-92569047D01*
X171283333Y-92426190D01*
X171235714Y-92235714D01*
X171188095Y-92140476D01*
X171092857Y-92045238D01*
X170950000Y-91997619D01*
X170854761Y-91997619D01*
X170711904Y-92045238D01*
X170664285Y-92092857D01*
X170664285Y-92426190D01*
X170854761Y-92426190D01*
X170235714Y-91997619D02*
X170235714Y-92997619D01*
X169664285Y-91997619D01*
X169664285Y-92997619D01*
X169188095Y-91997619D02*
X169188095Y-92997619D01*
X168950000Y-92997619D01*
X168807142Y-92950000D01*
X168711904Y-92854761D01*
X168664285Y-92759523D01*
X168616666Y-92569047D01*
X168616666Y-92426190D01*
X168664285Y-92235714D01*
X168711904Y-92140476D01*
X168807142Y-92045238D01*
X168950000Y-91997619D01*
X169188095Y-91997619D01*
X167900000Y-97400000D02*
X174250000Y-97400000D01*
X143973809Y-94911904D02*
X144240476Y-95711904D01*
X144507142Y-94911904D01*
X145230952Y-95635714D02*
X145192856Y-95673809D01*
X145078571Y-95711904D01*
X145002380Y-95711904D01*
X144888095Y-95673809D01*
X144811904Y-95597619D01*
X144773809Y-95521428D01*
X144735714Y-95369047D01*
X144735714Y-95254761D01*
X144773809Y-95102380D01*
X144811904Y-95026190D01*
X144888095Y-94950000D01*
X145002380Y-94911904D01*
X145078571Y-94911904D01*
X145192856Y-94950000D01*
X145230952Y-94988095D01*
X146030952Y-95635714D02*
X145992856Y-95673809D01*
X145878571Y-95711904D01*
X145802380Y-95711904D01*
X145688095Y-95673809D01*
X145611904Y-95597619D01*
X145573809Y-95521428D01*
X145535714Y-95369047D01*
X145535714Y-95254761D01*
X145573809Y-95102380D01*
X145611904Y-95026190D01*
X145688095Y-94950000D01*
X145802380Y-94911904D01*
X145878571Y-94911904D01*
X145992856Y-94950000D01*
X146030952Y-94988095D01*
X149269500Y-71907333D02*
X149231404Y-71983524D01*
X149231404Y-72097810D01*
X149269500Y-72212095D01*
X149345690Y-72288286D01*
X149421880Y-72326381D01*
X149574261Y-72364476D01*
X149688547Y-72364476D01*
X149840928Y-72326381D01*
X149917119Y-72288286D01*
X149993309Y-72212095D01*
X150031404Y-72097810D01*
X150031404Y-72021619D01*
X149993309Y-71907333D01*
X149955214Y-71869238D01*
X149688547Y-71869238D01*
X149688547Y-72021619D01*
X150031404Y-71526381D02*
X149231404Y-71526381D01*
X150031404Y-71069238D01*
X149231404Y-71069238D01*
X150031404Y-70688286D02*
X149231404Y-70688286D01*
X149231404Y-70497810D01*
X149269500Y-70383524D01*
X149345690Y-70307333D01*
X149421880Y-70269238D01*
X149574261Y-70231143D01*
X149688547Y-70231143D01*
X149840928Y-70269238D01*
X149917119Y-70307333D01*
X149993309Y-70383524D01*
X150031404Y-70497810D01*
X150031404Y-70688286D01*
X152342833Y-72364476D02*
X152342833Y-71983524D01*
X152571404Y-72440667D02*
X151771404Y-72174000D01*
X152571404Y-71907333D01*
X151771404Y-71716857D02*
X151771404Y-71221619D01*
X152076166Y-71488286D01*
X152076166Y-71374000D01*
X152114261Y-71297809D01*
X152152357Y-71259714D01*
X152228547Y-71221619D01*
X152419023Y-71221619D01*
X152495214Y-71259714D01*
X152533309Y-71297809D01*
X152571404Y-71374000D01*
X152571404Y-71602571D01*
X152533309Y-71678762D01*
X152495214Y-71716857D01*
X154349500Y-71907333D02*
X154311404Y-71983524D01*
X154311404Y-72097810D01*
X154349500Y-72212095D01*
X154425690Y-72288286D01*
X154501880Y-72326381D01*
X154654261Y-72364476D01*
X154768547Y-72364476D01*
X154920928Y-72326381D01*
X154997119Y-72288286D01*
X155073309Y-72212095D01*
X155111404Y-72097810D01*
X155111404Y-72021619D01*
X155073309Y-71907333D01*
X155035214Y-71869238D01*
X154768547Y-71869238D01*
X154768547Y-72021619D01*
X155111404Y-71526381D02*
X154311404Y-71526381D01*
X155111404Y-71069238D01*
X154311404Y-71069238D01*
X155111404Y-70688286D02*
X154311404Y-70688286D01*
X154311404Y-70497810D01*
X154349500Y-70383524D01*
X154425690Y-70307333D01*
X154501880Y-70269238D01*
X154654261Y-70231143D01*
X154768547Y-70231143D01*
X154920928Y-70269238D01*
X154997119Y-70307333D01*
X155073309Y-70383524D01*
X155111404Y-70497810D01*
X155111404Y-70688286D01*
X157422833Y-72364476D02*
X157422833Y-71983524D01*
X157651404Y-72440667D02*
X156851404Y-72174000D01*
X157651404Y-71907333D01*
X156927595Y-71678762D02*
X156889500Y-71640667D01*
X156851404Y-71564476D01*
X156851404Y-71374000D01*
X156889500Y-71297809D01*
X156927595Y-71259714D01*
X157003785Y-71221619D01*
X157079976Y-71221619D01*
X157194261Y-71259714D01*
X157651404Y-71716857D01*
X157651404Y-71221619D01*
X159429500Y-71907333D02*
X159391404Y-71983524D01*
X159391404Y-72097810D01*
X159429500Y-72212095D01*
X159505690Y-72288286D01*
X159581880Y-72326381D01*
X159734261Y-72364476D01*
X159848547Y-72364476D01*
X160000928Y-72326381D01*
X160077119Y-72288286D01*
X160153309Y-72212095D01*
X160191404Y-72097810D01*
X160191404Y-72021619D01*
X160153309Y-71907333D01*
X160115214Y-71869238D01*
X159848547Y-71869238D01*
X159848547Y-72021619D01*
X160191404Y-71526381D02*
X159391404Y-71526381D01*
X160191404Y-71069238D01*
X159391404Y-71069238D01*
X160191404Y-70688286D02*
X159391404Y-70688286D01*
X159391404Y-70497810D01*
X159429500Y-70383524D01*
X159505690Y-70307333D01*
X159581880Y-70269238D01*
X159734261Y-70231143D01*
X159848547Y-70231143D01*
X160000928Y-70269238D01*
X160077119Y-70307333D01*
X160153309Y-70383524D01*
X160191404Y-70497810D01*
X160191404Y-70688286D01*
X161931404Y-72440666D02*
X162731404Y-72174000D01*
X161931404Y-71907333D01*
X162655214Y-71183523D02*
X162693309Y-71221619D01*
X162731404Y-71335904D01*
X162731404Y-71412095D01*
X162693309Y-71526380D01*
X162617119Y-71602571D01*
X162540928Y-71640666D01*
X162388547Y-71678761D01*
X162274261Y-71678761D01*
X162121880Y-71640666D01*
X162045690Y-71602571D01*
X161969500Y-71526380D01*
X161931404Y-71412095D01*
X161931404Y-71335904D01*
X161969500Y-71221619D01*
X162007595Y-71183523D01*
X162655214Y-70383523D02*
X162693309Y-70421619D01*
X162731404Y-70535904D01*
X162731404Y-70612095D01*
X162693309Y-70726380D01*
X162617119Y-70802571D01*
X162540928Y-70840666D01*
X162388547Y-70878761D01*
X162274261Y-70878761D01*
X162121880Y-70840666D01*
X162045690Y-70802571D01*
X161969500Y-70726380D01*
X161931404Y-70612095D01*
X161931404Y-70535904D01*
X161969500Y-70421619D01*
X162007595Y-70383523D01*
X161896000Y-66169123D02*
X161857904Y-66245314D01*
X161857904Y-66359600D01*
X161896000Y-66473885D01*
X161972190Y-66550076D01*
X162048380Y-66588171D01*
X162200761Y-66626266D01*
X162315047Y-66626266D01*
X162467428Y-66588171D01*
X162543619Y-66550076D01*
X162619809Y-66473885D01*
X162657904Y-66359600D01*
X162657904Y-66283409D01*
X162619809Y-66169123D01*
X162581714Y-66131028D01*
X162315047Y-66131028D01*
X162315047Y-66283409D01*
X162657904Y-65788171D02*
X161857904Y-65788171D01*
X162657904Y-65331028D01*
X161857904Y-65331028D01*
X162657904Y-64950076D02*
X161857904Y-64950076D01*
X161857904Y-64759600D01*
X161896000Y-64645314D01*
X161972190Y-64569123D01*
X162048380Y-64531028D01*
X162200761Y-64492933D01*
X162315047Y-64492933D01*
X162467428Y-64531028D01*
X162543619Y-64569123D01*
X162619809Y-64645314D01*
X162657904Y-64759600D01*
X162657904Y-64950076D01*
X159940133Y-65635790D02*
X159940133Y-65254838D01*
X160168704Y-65711981D02*
X159368704Y-65445314D01*
X160168704Y-65178647D01*
X160168704Y-64492933D02*
X160168704Y-64950076D01*
X160168704Y-64721504D02*
X159368704Y-64721504D01*
X159482990Y-64797695D01*
X159559180Y-64873885D01*
X159597276Y-64950076D01*
X156917600Y-66169123D02*
X156879504Y-66245314D01*
X156879504Y-66359600D01*
X156917600Y-66473885D01*
X156993790Y-66550076D01*
X157069980Y-66588171D01*
X157222361Y-66626266D01*
X157336647Y-66626266D01*
X157489028Y-66588171D01*
X157565219Y-66550076D01*
X157641409Y-66473885D01*
X157679504Y-66359600D01*
X157679504Y-66283409D01*
X157641409Y-66169123D01*
X157603314Y-66131028D01*
X157336647Y-66131028D01*
X157336647Y-66283409D01*
X157679504Y-65788171D02*
X156879504Y-65788171D01*
X157679504Y-65331028D01*
X156879504Y-65331028D01*
X157679504Y-64950076D02*
X156879504Y-64950076D01*
X156879504Y-64759600D01*
X156917600Y-64645314D01*
X156993790Y-64569123D01*
X157069980Y-64531028D01*
X157222361Y-64492933D01*
X157336647Y-64492933D01*
X157489028Y-64531028D01*
X157565219Y-64569123D01*
X157641409Y-64645314D01*
X157679504Y-64759600D01*
X157679504Y-64950076D01*
X154961733Y-65635790D02*
X154961733Y-65254838D01*
X155190304Y-65711981D02*
X154390304Y-65445314D01*
X155190304Y-65178647D01*
X154390304Y-64759600D02*
X154390304Y-64683409D01*
X154428400Y-64607219D01*
X154466495Y-64569123D01*
X154542685Y-64531028D01*
X154695066Y-64492933D01*
X154885542Y-64492933D01*
X155037923Y-64531028D01*
X155114114Y-64569123D01*
X155152209Y-64607219D01*
X155190304Y-64683409D01*
X155190304Y-64759600D01*
X155152209Y-64835790D01*
X155114114Y-64873885D01*
X155037923Y-64911981D01*
X154885542Y-64950076D01*
X154695066Y-64950076D01*
X154542685Y-64911981D01*
X154466495Y-64873885D01*
X154428400Y-64835790D01*
X154390304Y-64759600D01*
X151939200Y-66169123D02*
X151901104Y-66245314D01*
X151901104Y-66359600D01*
X151939200Y-66473885D01*
X152015390Y-66550076D01*
X152091580Y-66588171D01*
X152243961Y-66626266D01*
X152358247Y-66626266D01*
X152510628Y-66588171D01*
X152586819Y-66550076D01*
X152663009Y-66473885D01*
X152701104Y-66359600D01*
X152701104Y-66283409D01*
X152663009Y-66169123D01*
X152624914Y-66131028D01*
X152358247Y-66131028D01*
X152358247Y-66283409D01*
X152701104Y-65788171D02*
X151901104Y-65788171D01*
X152701104Y-65331028D01*
X151901104Y-65331028D01*
X152701104Y-64950076D02*
X151901104Y-64950076D01*
X151901104Y-64759600D01*
X151939200Y-64645314D01*
X152015390Y-64569123D01*
X152091580Y-64531028D01*
X152243961Y-64492933D01*
X152358247Y-64492933D01*
X152510628Y-64531028D01*
X152586819Y-64569123D01*
X152663009Y-64645314D01*
X152701104Y-64759600D01*
X152701104Y-64950076D01*
X171704142Y-101650856D02*
X171780333Y-101650856D01*
X171856523Y-101688952D01*
X171894619Y-101727047D01*
X171932714Y-101803237D01*
X171970809Y-101955618D01*
X171970809Y-102146094D01*
X171932714Y-102298475D01*
X171894619Y-102374666D01*
X171856523Y-102412761D01*
X171780333Y-102450856D01*
X171704142Y-102450856D01*
X171627952Y-102412761D01*
X171589857Y-102374666D01*
X171551761Y-102298475D01*
X171513666Y-102146094D01*
X171513666Y-101955618D01*
X171551761Y-101803237D01*
X171589857Y-101727047D01*
X171627952Y-101688952D01*
X171704142Y-101650856D01*
X172237476Y-102450856D02*
X172656523Y-101917523D01*
X172237476Y-101917523D02*
X172656523Y-102450856D01*
X173304142Y-101917523D02*
X173304142Y-102450856D01*
X173113666Y-101612761D02*
X172923190Y-102184190D01*
X173418428Y-102184190D01*
X173989857Y-102031809D02*
X174104142Y-102069904D01*
X174142238Y-102107999D01*
X174180333Y-102184190D01*
X174180333Y-102298475D01*
X174142238Y-102374666D01*
X174104142Y-102412761D01*
X174027952Y-102450856D01*
X173723190Y-102450856D01*
X173723190Y-101650856D01*
X173989857Y-101650856D01*
X174066047Y-101688952D01*
X174104142Y-101727047D01*
X174142238Y-101803237D01*
X174142238Y-101879428D01*
X174104142Y-101955618D01*
X174066047Y-101993713D01*
X173989857Y-102031809D01*
X173723190Y-102031809D01*
X171761285Y-98558404D02*
X171837476Y-98558404D01*
X171913666Y-98596500D01*
X171951761Y-98634595D01*
X171989857Y-98710785D01*
X172027952Y-98863166D01*
X172027952Y-99053642D01*
X171989857Y-99206023D01*
X171951761Y-99282214D01*
X171913666Y-99320309D01*
X171837476Y-99358404D01*
X171761285Y-99358404D01*
X171685095Y-99320309D01*
X171647000Y-99282214D01*
X171608904Y-99206023D01*
X171570809Y-99053642D01*
X171570809Y-98863166D01*
X171608904Y-98710785D01*
X171647000Y-98634595D01*
X171685095Y-98596500D01*
X171761285Y-98558404D01*
X172294619Y-99358404D02*
X172713666Y-98825071D01*
X172294619Y-98825071D02*
X172713666Y-99358404D01*
X173361285Y-98825071D02*
X173361285Y-99358404D01*
X173170809Y-98520309D02*
X172980333Y-99091738D01*
X173475571Y-99091738D01*
X173742238Y-99129833D02*
X174123190Y-99129833D01*
X173666047Y-99358404D02*
X173932714Y-98558404D01*
X174199380Y-99358404D01*
X166509523Y-95601904D02*
X166509523Y-94801904D01*
X166700000Y-94801904D01*
X166814285Y-94840000D01*
X166890476Y-94916190D01*
X166928571Y-94992380D01*
X166966666Y-95144761D01*
X166966666Y-95259047D01*
X166928571Y-95411428D01*
X166890476Y-95487619D01*
X166814285Y-95563809D01*
X166700000Y-95601904D01*
X166509523Y-95601904D01*
X167614285Y-95563809D02*
X167538095Y-95601904D01*
X167385714Y-95601904D01*
X167309523Y-95563809D01*
X167271428Y-95487619D01*
X167271428Y-95182857D01*
X167309523Y-95106666D01*
X167385714Y-95068571D01*
X167538095Y-95068571D01*
X167614285Y-95106666D01*
X167652380Y-95182857D01*
X167652380Y-95259047D01*
X167271428Y-95335238D01*
X167880952Y-95068571D02*
X168185714Y-95068571D01*
X167995238Y-95601904D02*
X167995238Y-94916190D01*
X168033333Y-94840000D01*
X168109523Y-94801904D01*
X168185714Y-94801904D01*
X168795238Y-95601904D02*
X168795238Y-95182857D01*
X168757142Y-95106666D01*
X168680952Y-95068571D01*
X168528571Y-95068571D01*
X168452380Y-95106666D01*
X168795238Y-95563809D02*
X168719047Y-95601904D01*
X168528571Y-95601904D01*
X168452380Y-95563809D01*
X168414285Y-95487619D01*
X168414285Y-95411428D01*
X168452380Y-95335238D01*
X168528571Y-95297142D01*
X168719047Y-95297142D01*
X168795238Y-95259047D01*
X169519047Y-95068571D02*
X169519047Y-95601904D01*
X169176190Y-95068571D02*
X169176190Y-95487619D01*
X169214285Y-95563809D01*
X169290476Y-95601904D01*
X169404761Y-95601904D01*
X169480952Y-95563809D01*
X169519047Y-95525714D01*
X170014285Y-95601904D02*
X169938095Y-95563809D01*
X169900000Y-95487619D01*
X169900000Y-94801904D01*
X170204761Y-95068571D02*
X170509523Y-95068571D01*
X170319047Y-94801904D02*
X170319047Y-95487619D01*
X170357142Y-95563809D01*
X170433333Y-95601904D01*
X170509523Y-95601904D01*
X171347619Y-95373333D02*
X171728571Y-95373333D01*
X171271428Y-95601904D02*
X171538095Y-94801904D01*
X171804761Y-95601904D01*
X172071428Y-95601904D02*
X172071428Y-94801904D01*
X172261904Y-94801904D01*
X172376190Y-94840000D01*
X172452380Y-94916190D01*
X172490476Y-94992380D01*
X172528571Y-95144761D01*
X172528571Y-95259047D01*
X172490476Y-95411428D01*
X172452380Y-95487619D01*
X172376190Y-95563809D01*
X172261904Y-95601904D01*
X172071428Y-95601904D01*
X172871428Y-95601904D02*
X172871428Y-94801904D01*
X173061904Y-94801904D01*
X173176190Y-94840000D01*
X173252380Y-94916190D01*
X173290476Y-94992380D01*
X173328571Y-95144761D01*
X173328571Y-95259047D01*
X173290476Y-95411428D01*
X173252380Y-95487619D01*
X173176190Y-95563809D01*
X173061904Y-95601904D01*
X172871428Y-95601904D01*
X174128571Y-95601904D02*
X173861904Y-95220952D01*
X173671428Y-95601904D02*
X173671428Y-94801904D01*
X173976190Y-94801904D01*
X174052380Y-94840000D01*
X174090476Y-94878095D01*
X174128571Y-94954285D01*
X174128571Y-95068571D01*
X174090476Y-95144761D01*
X174052380Y-95182857D01*
X173976190Y-95220952D01*
X173671428Y-95220952D01*
X169176190Y-96121904D02*
X169252380Y-96121904D01*
X169328571Y-96160000D01*
X169366666Y-96198095D01*
X169404761Y-96274285D01*
X169442857Y-96426666D01*
X169442857Y-96617142D01*
X169404761Y-96769523D01*
X169366666Y-96845714D01*
X169328571Y-96883809D01*
X169252380Y-96921904D01*
X169176190Y-96921904D01*
X169100000Y-96883809D01*
X169061904Y-96845714D01*
X169023809Y-96769523D01*
X168985714Y-96617142D01*
X168985714Y-96426666D01*
X169023809Y-96274285D01*
X169061904Y-96198095D01*
X169100000Y-96160000D01*
X169176190Y-96121904D01*
X169709523Y-96921904D02*
X170128571Y-96388571D01*
X169709523Y-96388571D02*
X170128571Y-96921904D01*
X170776190Y-96388571D02*
X170776190Y-96921904D01*
X170585714Y-96083809D02*
X170395238Y-96655238D01*
X170890476Y-96655238D01*
X171309523Y-96464761D02*
X171233333Y-96426666D01*
X171195238Y-96388571D01*
X171157142Y-96312380D01*
X171157142Y-96274285D01*
X171195238Y-96198095D01*
X171233333Y-96160000D01*
X171309523Y-96121904D01*
X171461904Y-96121904D01*
X171538095Y-96160000D01*
X171576190Y-96198095D01*
X171614285Y-96274285D01*
X171614285Y-96312380D01*
X171576190Y-96388571D01*
X171538095Y-96426666D01*
X171461904Y-96464761D01*
X171309523Y-96464761D01*
X171233333Y-96502857D01*
X171195238Y-96540952D01*
X171157142Y-96617142D01*
X171157142Y-96769523D01*
X171195238Y-96845714D01*
X171233333Y-96883809D01*
X171309523Y-96921904D01*
X171461904Y-96921904D01*
X171538095Y-96883809D01*
X171576190Y-96845714D01*
X171614285Y-96769523D01*
X171614285Y-96617142D01*
X171576190Y-96540952D01*
X171538095Y-96502857D01*
X171461904Y-96464761D01*
X171723190Y-104857604D02*
X171799380Y-104857604D01*
X171875571Y-104895700D01*
X171913666Y-104933795D01*
X171951761Y-105009985D01*
X171989857Y-105162366D01*
X171989857Y-105352842D01*
X171951761Y-105505223D01*
X171913666Y-105581414D01*
X171875571Y-105619509D01*
X171799380Y-105657604D01*
X171723190Y-105657604D01*
X171647000Y-105619509D01*
X171608904Y-105581414D01*
X171570809Y-105505223D01*
X171532714Y-105352842D01*
X171532714Y-105162366D01*
X171570809Y-105009985D01*
X171608904Y-104933795D01*
X171647000Y-104895700D01*
X171723190Y-104857604D01*
X172256523Y-105657604D02*
X172675571Y-105124271D01*
X172256523Y-105124271D02*
X172675571Y-105657604D01*
X173323190Y-105124271D02*
X173323190Y-105657604D01*
X173132714Y-104819509D02*
X172942238Y-105390938D01*
X173437476Y-105390938D01*
X173780333Y-105657604D02*
X173932714Y-105657604D01*
X174008904Y-105619509D01*
X174047000Y-105581414D01*
X174123190Y-105467128D01*
X174161285Y-105314747D01*
X174161285Y-105009985D01*
X174123190Y-104933795D01*
X174085095Y-104895700D01*
X174008904Y-104857604D01*
X173856523Y-104857604D01*
X173780333Y-104895700D01*
X173742238Y-104933795D01*
X173704142Y-105009985D01*
X173704142Y-105200461D01*
X173742238Y-105276652D01*
X173780333Y-105314747D01*
X173856523Y-105352842D01*
X174008904Y-105352842D01*
X174085095Y-105314747D01*
X174123190Y-105276652D01*
X174161285Y-105200461D01*
X159740904Y-77920833D02*
X160121857Y-77920833D01*
X159664714Y-78149404D02*
X159931380Y-77349404D01*
X160198047Y-78149404D01*
X160464714Y-78149404D02*
X160464714Y-77349404D01*
X160655190Y-77349404D01*
X160769476Y-77387500D01*
X160845666Y-77463690D01*
X160883761Y-77539880D01*
X160921857Y-77692261D01*
X160921857Y-77806547D01*
X160883761Y-77958928D01*
X160845666Y-78035119D01*
X160769476Y-78111309D01*
X160655190Y-78149404D01*
X160464714Y-78149404D01*
X161226619Y-78111309D02*
X161340904Y-78149404D01*
X161531380Y-78149404D01*
X161607571Y-78111309D01*
X161645666Y-78073214D01*
X161683761Y-77997023D01*
X161683761Y-77920833D01*
X161645666Y-77844642D01*
X161607571Y-77806547D01*
X161531380Y-77768452D01*
X161379000Y-77730357D01*
X161302809Y-77692261D01*
X161264714Y-77654166D01*
X161226619Y-77577976D01*
X161226619Y-77501785D01*
X161264714Y-77425595D01*
X161302809Y-77387500D01*
X161379000Y-77349404D01*
X161569476Y-77349404D01*
X161683761Y-77387500D01*
X162445666Y-78149404D02*
X161988523Y-78149404D01*
X162217095Y-78149404D02*
X162217095Y-77349404D01*
X162140904Y-77463690D01*
X162064714Y-77539880D01*
X161988523Y-77577976D01*
X162712333Y-78149404D02*
X163131380Y-77616071D01*
X162712333Y-77616071D02*
X163131380Y-78149404D01*
X163855190Y-78149404D02*
X163398047Y-78149404D01*
X163626619Y-78149404D02*
X163626619Y-77349404D01*
X163550428Y-77463690D01*
X163474238Y-77539880D01*
X163398047Y-77577976D01*
X164579000Y-77349404D02*
X164198047Y-77349404D01*
X164159952Y-77730357D01*
X164198047Y-77692261D01*
X164274238Y-77654166D01*
X164464714Y-77654166D01*
X164540904Y-77692261D01*
X164579000Y-77730357D01*
X164617095Y-77806547D01*
X164617095Y-77997023D01*
X164579000Y-78073214D01*
X164540904Y-78111309D01*
X164464714Y-78149404D01*
X164274238Y-78149404D01*
X164198047Y-78111309D01*
X164159952Y-78073214D01*
X142038095Y-83050000D02*
X141942857Y-83002380D01*
X141800000Y-83002380D01*
X141657142Y-83050000D01*
X141561904Y-83145238D01*
X141514285Y-83240476D01*
X141466666Y-83430952D01*
X141466666Y-83573809D01*
X141514285Y-83764285D01*
X141561904Y-83859523D01*
X141657142Y-83954761D01*
X141800000Y-84002380D01*
X141895238Y-84002380D01*
X142038095Y-83954761D01*
X142085714Y-83907142D01*
X142085714Y-83573809D01*
X141895238Y-83573809D01*
X142514285Y-84002380D02*
X142514285Y-83002380D01*
X143085714Y-84002380D01*
X143085714Y-83002380D01*
X143561904Y-84002380D02*
X143561904Y-83002380D01*
X143800000Y-83002380D01*
X143942857Y-83050000D01*
X144038095Y-83145238D01*
X144085714Y-83240476D01*
X144133333Y-83430952D01*
X144133333Y-83573809D01*
X144085714Y-83764285D01*
X144038095Y-83859523D01*
X143942857Y-83954761D01*
X143800000Y-84002380D01*
X143561904Y-84002380D01*
X159734304Y-105054266D02*
X160534304Y-104787600D01*
X159734304Y-104520933D01*
X160458114Y-103797123D02*
X160496209Y-103835219D01*
X160534304Y-103949504D01*
X160534304Y-104025695D01*
X160496209Y-104139980D01*
X160420019Y-104216171D01*
X160343828Y-104254266D01*
X160191447Y-104292361D01*
X160077161Y-104292361D01*
X159924780Y-104254266D01*
X159848590Y-104216171D01*
X159772400Y-104139980D01*
X159734304Y-104025695D01*
X159734304Y-103949504D01*
X159772400Y-103835219D01*
X159810495Y-103797123D01*
X160458114Y-102997123D02*
X160496209Y-103035219D01*
X160534304Y-103149504D01*
X160534304Y-103225695D01*
X160496209Y-103339980D01*
X160420019Y-103416171D01*
X160343828Y-103454266D01*
X160191447Y-103492361D01*
X160077161Y-103492361D01*
X159924780Y-103454266D01*
X159848590Y-103416171D01*
X159772400Y-103339980D01*
X159734304Y-103225695D01*
X159734304Y-103149504D01*
X159772400Y-103035219D01*
X159810495Y-102997123D01*
X140371428Y-97371428D02*
X140971428Y-97171428D01*
X140371428Y-96971428D01*
X140914285Y-96428571D02*
X140942857Y-96457142D01*
X140971428Y-96542857D01*
X140971428Y-96600000D01*
X140942857Y-96685714D01*
X140885714Y-96742857D01*
X140828571Y-96771428D01*
X140714285Y-96800000D01*
X140628571Y-96800000D01*
X140514285Y-96771428D01*
X140457142Y-96742857D01*
X140400000Y-96685714D01*
X140371428Y-96600000D01*
X140371428Y-96542857D01*
X140400000Y-96457142D01*
X140428571Y-96428571D01*
X140914285Y-95828571D02*
X140942857Y-95857142D01*
X140971428Y-95942857D01*
X140971428Y-96000000D01*
X140942857Y-96085714D01*
X140885714Y-96142857D01*
X140828571Y-96171428D01*
X140714285Y-96200000D01*
X140628571Y-96200000D01*
X140514285Y-96171428D01*
X140457142Y-96142857D01*
X140400000Y-96085714D01*
X140371428Y-96000000D01*
X140371428Y-95942857D01*
X140400000Y-95857142D01*
X140428571Y-95828571D01*
X140742857Y-95571428D02*
X140742857Y-95114285D01*
X140942857Y-94857142D02*
X140971428Y-94771428D01*
X140971428Y-94628571D01*
X140942857Y-94571428D01*
X140914285Y-94542857D01*
X140857142Y-94514285D01*
X140800000Y-94514285D01*
X140742857Y-94542857D01*
X140714285Y-94571428D01*
X140685714Y-94628571D01*
X140657142Y-94742857D01*
X140628571Y-94800000D01*
X140600000Y-94828571D01*
X140542857Y-94857142D01*
X140485714Y-94857142D01*
X140428571Y-94828571D01*
X140400000Y-94800000D01*
X140371428Y-94742857D01*
X140371428Y-94600000D01*
X140400000Y-94514285D01*
X140657142Y-94257142D02*
X140657142Y-94057142D01*
X140971428Y-93971428D02*
X140971428Y-94257142D01*
X140371428Y-94257142D01*
X140371428Y-93971428D01*
X140971428Y-93428571D02*
X140971428Y-93714285D01*
X140371428Y-93714285D01*
X144088095Y-96692857D02*
X144354761Y-96692857D01*
X144469047Y-97111904D02*
X144088095Y-97111904D01*
X144088095Y-96311904D01*
X144469047Y-96311904D01*
X144735714Y-96311904D02*
X145269047Y-97111904D01*
X145269047Y-96311904D02*
X144735714Y-97111904D01*
X145459523Y-96311904D02*
X145916666Y-96311904D01*
X145688095Y-97111904D02*
X145688095Y-96311904D01*
X146069047Y-96311904D02*
X146335714Y-97111904D01*
X146602380Y-96311904D01*
X144011904Y-93611904D02*
X144507142Y-93611904D01*
X144240476Y-93916666D01*
X144354761Y-93916666D01*
X144430952Y-93954761D01*
X144469047Y-93992857D01*
X144507142Y-94069047D01*
X144507142Y-94259523D01*
X144469047Y-94335714D01*
X144430952Y-94373809D01*
X144354761Y-94411904D01*
X144126190Y-94411904D01*
X144050000Y-94373809D01*
X144011904Y-94335714D01*
X144735714Y-93611904D02*
X145002381Y-94411904D01*
X145269047Y-93611904D01*
X145459523Y-93611904D02*
X145954761Y-93611904D01*
X145688095Y-93916666D01*
X145802381Y-93916666D01*
X145878571Y-93954761D01*
X145916666Y-93992857D01*
X145954761Y-94069047D01*
X145954761Y-94259523D01*
X145916666Y-94335714D01*
X145878571Y-94373809D01*
X145802381Y-94411904D01*
X145573809Y-94411904D01*
X145497619Y-94373809D01*
X145459523Y-94335714D01*
X149411904Y-66550075D02*
X150211904Y-66283409D01*
X149411904Y-66016742D01*
X150135714Y-65292932D02*
X150173809Y-65331028D01*
X150211904Y-65445313D01*
X150211904Y-65521504D01*
X150173809Y-65635789D01*
X150097619Y-65711980D01*
X150021428Y-65750075D01*
X149869047Y-65788170D01*
X149754761Y-65788170D01*
X149602380Y-65750075D01*
X149526190Y-65711980D01*
X149450000Y-65635789D01*
X149411904Y-65521504D01*
X149411904Y-65445313D01*
X149450000Y-65331028D01*
X149488095Y-65292932D01*
X150135714Y-64492932D02*
X150173809Y-64531028D01*
X150211904Y-64645313D01*
X150211904Y-64721504D01*
X150173809Y-64835789D01*
X150097619Y-64911980D01*
X150021428Y-64950075D01*
X149869047Y-64988170D01*
X149754761Y-64988170D01*
X149602380Y-64950075D01*
X149526190Y-64911980D01*
X149450000Y-64835789D01*
X149411904Y-64721504D01*
X149411904Y-64645313D01*
X149450000Y-64531028D01*
X149488095Y-64492932D01*
X140100000Y-101790476D02*
X140138095Y-101714285D01*
X140138095Y-101600000D01*
X140100000Y-101485714D01*
X140023809Y-101409523D01*
X139947619Y-101371428D01*
X139795238Y-101333333D01*
X139680952Y-101333333D01*
X139528571Y-101371428D01*
X139452380Y-101409523D01*
X139376190Y-101485714D01*
X139338095Y-101600000D01*
X139338095Y-101676190D01*
X139376190Y-101790476D01*
X139414285Y-101828571D01*
X139680952Y-101828571D01*
X139680952Y-101676190D01*
X139338095Y-102171428D02*
X140138095Y-102171428D01*
X139338095Y-102628571D01*
X140138095Y-102628571D01*
X139338095Y-103009523D02*
X140138095Y-103009523D01*
X140138095Y-103200000D01*
X140100000Y-103314285D01*
X140023809Y-103390476D01*
X139947619Y-103428571D01*
X139795238Y-103466666D01*
X139680952Y-103466666D01*
X139528571Y-103428571D01*
X139452380Y-103390476D01*
X139376190Y-103314285D01*
X139338095Y-103200000D01*
X139338095Y-103009523D01*
X145457142Y-101400000D02*
X145457142Y-101666666D01*
X145038095Y-101780952D02*
X145038095Y-101400000D01*
X145838095Y-101400000D01*
X145838095Y-101780952D01*
X145838095Y-102047619D02*
X145038095Y-102580952D01*
X145838095Y-102580952D02*
X145038095Y-102047619D01*
X145838095Y-102771428D02*
X145838095Y-103228571D01*
X145038095Y-103000000D02*
X145838095Y-103000000D01*
X145838095Y-103380952D02*
X145038095Y-103647619D01*
X145838095Y-103914285D01*
D11*
X164695240Y-106578400D02*
X147423240Y-106578400D01*
X147423240Y-106578400D02*
X147423240Y-78638400D01*
X147423240Y-78638400D02*
X164695240Y-78638400D01*
X164693600Y-106578400D02*
X164693600Y-78638400D01*
D12*
X137100760Y-65301480D02*
X137100760Y-62700520D01*
X138101520Y-72098520D02*
X138101520Y-65301480D01*
X137100760Y-72098520D02*
X138101520Y-72098520D01*
X137100760Y-74798540D02*
X137100760Y-72098520D01*
X138101520Y-65301480D02*
X137100760Y-65301480D01*
X140837100Y-62601460D02*
X146300000Y-62601460D01*
X146300000Y-74752820D02*
X146300000Y-73700000D01*
X140837100Y-74798540D02*
X146300640Y-74798540D01*
X146300000Y-62645500D02*
X146300000Y-63700000D01*
X144802040Y-63700000D02*
X146300000Y-63700000D01*
X144802040Y-73700000D02*
X146300000Y-73700000D01*
X144802040Y-73700000D02*
X144802040Y-63700000D01*
D10*
X174700000Y-91850000D02*
X174700000Y-91450000D01*
X174060000Y-91850000D02*
X174700000Y-91850000D01*
X170841000Y-87445000D02*
X170969000Y-87574000D01*
X168625000Y-85230000D02*
X168719000Y-85324000D01*
X171081000Y-87275000D02*
X171174000Y-87369000D01*
X168831000Y-85025000D02*
X168959000Y-85154000D01*
X166740000Y-84490000D02*
X174460000Y-84490000D01*
X166740000Y-91610000D02*
X174460000Y-91610000D01*
X174460000Y-91610000D02*
X174460000Y-84490000D01*
X166740000Y-91610000D02*
X166740000Y-84490000D01*
X172900000Y-91610000D02*
X172900000Y-84490000D01*
X174000000Y-91610000D02*
X174000000Y-84490000D01*
X171580000Y-86300000D02*
G75*
G03X171580000Y-86300000I-1680000J0D01*
G01*
X171580099Y-89771326D02*
G75*
G02X171340000Y-90666000I-1680099J-28674D01*
G01*
X170789894Y-91225358D02*
G75*
G02X169034000Y-91240000I-889894J1425358D01*
G01*
X168474642Y-90689894D02*
G75*
G02X168460000Y-88934000I1425358J889894D01*
G01*
X169009807Y-88374495D02*
G75*
G02X170791000Y-88375000I890193J-1425505D01*
G01*
X171324721Y-88909736D02*
G75*
G02X171580000Y-89800000I-1424721J-890264D01*
G01*
X138000000Y-84450000D02*
X138000000Y-84850000D01*
X138640000Y-84450000D02*
X138000000Y-84450000D01*
X141859000Y-88855000D02*
X141731000Y-88726000D01*
X144075000Y-91070000D02*
X143981000Y-90976000D01*
X141619000Y-89025000D02*
X141526000Y-88931000D01*
X143869000Y-91275000D02*
X143741000Y-91146000D01*
X145960000Y-91810000D02*
X138240000Y-91810000D01*
X145960000Y-84690000D02*
X138240000Y-84690000D01*
X138240000Y-84690000D02*
X138240000Y-91810000D01*
X145960000Y-84690000D02*
X145960000Y-91810000D01*
X139800000Y-84690000D02*
X139800000Y-91810000D01*
X138700000Y-84690000D02*
X138700000Y-91810000D01*
X144480000Y-90000000D02*
G75*
G03X144480000Y-90000000I-1680000J0D01*
G01*
X141119901Y-86528674D02*
G75*
G02X141360000Y-85634000I1680099J28674D01*
G01*
X141910106Y-85074642D02*
G75*
G02X143666000Y-85060000I889894J-1425358D01*
G01*
X144225358Y-85610106D02*
G75*
G02X144240000Y-87366000I-1425358J-889894D01*
G01*
X143690193Y-87925505D02*
G75*
G02X141909000Y-87925000I-890193J1425505D01*
G01*
X141375279Y-87390264D02*
G75*
G02X141120000Y-86500000I1424721J890264D01*
G01*
X142800000Y-93350000D02*
G75*
G02X143500000Y-94050000I0J-700000D01*
G01*
X141500000Y-94050000D02*
G75*
G02X142200000Y-93350000I700000J0D01*
G01*
X142200000Y-97450000D02*
G75*
G02X141500000Y-96750000I0J700000D01*
G01*
X143500000Y-96750000D02*
G75*
G02X142800000Y-97450000I-700000J0D01*
G01*
X143500000Y-94000000D02*
X143500000Y-96800000D01*
X142800000Y-97450000D02*
X142200000Y-97450000D01*
X141500000Y-96800000D02*
X141500000Y-94000000D01*
X142200000Y-93350000D02*
X142800000Y-93350000D01*
D12*
X159004000Y-99974400D02*
X156972000Y-99974400D01*
X159004000Y-95910400D02*
X159004000Y-99974400D01*
X156972000Y-95910400D02*
X159004000Y-95910400D01*
X156972000Y-99974400D02*
X156972000Y-95910400D01*
X151028400Y-99974400D02*
X148996400Y-99974400D01*
X151028400Y-95910400D02*
X151028400Y-99974400D01*
X148996400Y-95910400D02*
X151028400Y-95910400D01*
X148996400Y-99974400D02*
X148996400Y-95910400D01*
X155041600Y-99974400D02*
X153009600Y-99974400D01*
X155041600Y-95910400D02*
X155041600Y-99974400D01*
X153009600Y-95910400D02*
X155041600Y-95910400D01*
X153009600Y-99974400D02*
X153009600Y-95910400D01*
D13*
X150291800Y-63600000D02*
X149021800Y-63600000D01*
X148386800Y-62965000D02*
X149021800Y-63600000D01*
X149021800Y-61060000D02*
X148386800Y-61695000D01*
X148386800Y-61695000D02*
X148386800Y-62965000D01*
X151561800Y-63600000D02*
X150926800Y-62965000D01*
X152831800Y-63600000D02*
X151561800Y-63600000D01*
X153466800Y-62965000D02*
X152831800Y-63600000D01*
X153466800Y-61695000D02*
X153466800Y-62965000D01*
X152831800Y-61060000D02*
X153466800Y-61695000D01*
X151561800Y-61060000D02*
X152831800Y-61060000D01*
X150926800Y-61695000D02*
X151561800Y-61060000D01*
X150926800Y-62965000D02*
X150291800Y-63600000D01*
X150926800Y-61695000D02*
X150926800Y-62965000D01*
X150291800Y-61060000D02*
X150926800Y-61695000D01*
X149021800Y-61060000D02*
X150291800Y-61060000D01*
X157911800Y-63600000D02*
X156641800Y-63600000D01*
X156006800Y-62965000D02*
X156641800Y-63600000D01*
X156641800Y-61060000D02*
X156006800Y-61695000D01*
X154101800Y-63600000D02*
X153466800Y-62965000D01*
X155371800Y-63600000D02*
X154101800Y-63600000D01*
X156006800Y-62965000D02*
X155371800Y-63600000D01*
X156006800Y-61695000D02*
X156006800Y-62965000D01*
X155371800Y-61060000D02*
X156006800Y-61695000D01*
X154101800Y-61060000D02*
X155371800Y-61060000D01*
X153466800Y-61695000D02*
X154101800Y-61060000D01*
X159181800Y-63600000D02*
X158546800Y-62965000D01*
X160451800Y-63600000D02*
X159181800Y-63600000D01*
X161086800Y-62965000D02*
X160451800Y-63600000D01*
X161086800Y-61695000D02*
X161086800Y-62965000D01*
X160451800Y-61060000D02*
X161086800Y-61695000D01*
X159181800Y-61060000D02*
X160451800Y-61060000D01*
X158546800Y-61695000D02*
X159181800Y-61060000D01*
X158546800Y-62965000D02*
X157911800Y-63600000D01*
X158546800Y-61695000D02*
X158546800Y-62965000D01*
X157911800Y-61060000D02*
X158546800Y-61695000D01*
X156641800Y-61060000D02*
X157911800Y-61060000D01*
X161721800Y-63600000D02*
X161086800Y-62965000D01*
X162991800Y-63600000D02*
X161721800Y-63600000D01*
X163626800Y-62965000D02*
X162991800Y-63600000D01*
X163626800Y-61695000D02*
X163626800Y-62965000D01*
X162991800Y-61060000D02*
X163626800Y-61695000D01*
X161721800Y-61060000D02*
X162991800Y-61060000D01*
X161086800Y-61695000D02*
X161721800Y-61060000D01*
X161721800Y-73253600D02*
X162991800Y-73253600D01*
X163626800Y-73888600D02*
X162991800Y-73253600D01*
X162991800Y-75793600D02*
X163626800Y-75158600D01*
X163626800Y-75158600D02*
X163626800Y-73888600D01*
X160451800Y-73253600D02*
X161086800Y-73888600D01*
X159181800Y-73253600D02*
X160451800Y-73253600D01*
X158546800Y-73888600D02*
X159181800Y-73253600D01*
X158546800Y-75158600D02*
X158546800Y-73888600D01*
X159181800Y-75793600D02*
X158546800Y-75158600D01*
X160451800Y-75793600D02*
X159181800Y-75793600D01*
X161086800Y-75158600D02*
X160451800Y-75793600D01*
X161086800Y-73888600D02*
X161721800Y-73253600D01*
X161086800Y-75158600D02*
X161086800Y-73888600D01*
X161721800Y-75793600D02*
X161086800Y-75158600D01*
X162991800Y-75793600D02*
X161721800Y-75793600D01*
X154101800Y-73253600D02*
X155371800Y-73253600D01*
X156006800Y-73888600D02*
X155371800Y-73253600D01*
X155371800Y-75793600D02*
X156006800Y-75158600D01*
X157911800Y-73253600D02*
X158546800Y-73888600D01*
X156641800Y-73253600D02*
X157911800Y-73253600D01*
X156006800Y-73888600D02*
X156641800Y-73253600D01*
X156006800Y-75158600D02*
X156006800Y-73888600D01*
X156641800Y-75793600D02*
X156006800Y-75158600D01*
X157911800Y-75793600D02*
X156641800Y-75793600D01*
X158546800Y-75158600D02*
X157911800Y-75793600D01*
X152831800Y-73253600D02*
X153466800Y-73888600D01*
X151561800Y-73253600D02*
X152831800Y-73253600D01*
X150926800Y-73888600D02*
X151561800Y-73253600D01*
X150926800Y-75158600D02*
X150926800Y-73888600D01*
X151561800Y-75793600D02*
X150926800Y-75158600D01*
X152831800Y-75793600D02*
X151561800Y-75793600D01*
X153466800Y-75158600D02*
X152831800Y-75793600D01*
X153466800Y-73888600D02*
X154101800Y-73253600D01*
X153466800Y-75158600D02*
X153466800Y-73888600D01*
X154101800Y-75793600D02*
X153466800Y-75158600D01*
X155371800Y-75793600D02*
X154101800Y-75793600D01*
X150291800Y-73253600D02*
X150926800Y-73888600D01*
X149021800Y-73253600D02*
X150291800Y-73253600D01*
X148386800Y-73888600D02*
X149021800Y-73253600D01*
X148386800Y-75158600D02*
X148386800Y-73888600D01*
X149021800Y-75793600D02*
X148386800Y-75158600D01*
X150291800Y-75793600D02*
X149021800Y-75793600D01*
X150926800Y-75158600D02*
X150291800Y-75793600D01*
D10*
X170295800Y-106321100D02*
X168895800Y-106321100D01*
X168195800Y-105621100D02*
X168195800Y-105021100D01*
X168895800Y-104321100D02*
X170295800Y-104321100D01*
X170995800Y-105021100D02*
X170995800Y-105621100D01*
X170995800Y-105621100D02*
G75*
G02X170295800Y-106321100I-700000J0D01*
G01*
X170295800Y-104321100D02*
G75*
G02X170995800Y-105021100I0J-700000D01*
G01*
X168195800Y-105021100D02*
G75*
G02X168895800Y-104321100I700000J0D01*
G01*
X168895800Y-106321100D02*
G75*
G02X168195800Y-105621100I0J700000D01*
G01*
X170270400Y-103158800D02*
X168870400Y-103158800D01*
X168170400Y-102458800D02*
X168170400Y-101858800D01*
X168870400Y-101158800D02*
X170270400Y-101158800D01*
X170970400Y-101858800D02*
X170970400Y-102458800D01*
X170970400Y-102458800D02*
G75*
G02X170270400Y-103158800I-700000J0D01*
G01*
X170270400Y-101158800D02*
G75*
G02X170970400Y-101858800I0J-700000D01*
G01*
X168170400Y-101858800D02*
G75*
G02X168870400Y-101158800I700000J0D01*
G01*
X168870400Y-103158800D02*
G75*
G02X168170400Y-102458800I0J700000D01*
G01*
X170270400Y-100009200D02*
X168870400Y-100009200D01*
X168170400Y-99309200D02*
X168170400Y-98709200D01*
X168870400Y-98009200D02*
X170270400Y-98009200D01*
X170970400Y-98709200D02*
X170970400Y-99309200D01*
X170970400Y-99309200D02*
G75*
G02X170270400Y-100009200I-700000J0D01*
G01*
X170270400Y-98009200D02*
G75*
G02X170970400Y-98709200I0J-700000D01*
G01*
X168170400Y-98709200D02*
G75*
G02X168870400Y-98009200I700000J0D01*
G01*
X168870400Y-100009200D02*
G75*
G02X168170400Y-99309200I0J700000D01*
G01*
D12*
X167697960Y-63700000D02*
X167697960Y-73700000D01*
X167697960Y-63700000D02*
X166200000Y-63700000D01*
X167697960Y-73700000D02*
X166200000Y-73700000D01*
X166200000Y-74754500D02*
X166200000Y-73700000D01*
X171662900Y-62601460D02*
X166199360Y-62601460D01*
X166200000Y-62647180D02*
X166200000Y-63700000D01*
X171662900Y-74798540D02*
X166200000Y-74798540D01*
X174398480Y-72098520D02*
X175399240Y-72098520D01*
X175399240Y-62601460D02*
X175399240Y-65301480D01*
X175399240Y-65301480D02*
X174398480Y-65301480D01*
X174398480Y-65301480D02*
X174398480Y-72098520D01*
X175399240Y-72098520D02*
X175399240Y-74699480D01*
D10*
X160044914Y-99736266D02*
X160083009Y-99769600D01*
X160121104Y-99869600D01*
X160121104Y-99936266D01*
X160083009Y-100036266D01*
X160006819Y-100102933D01*
X159930628Y-100136266D01*
X159778247Y-100169600D01*
X159663961Y-100169600D01*
X159511580Y-100136266D01*
X159435390Y-100102933D01*
X159359200Y-100036266D01*
X159321104Y-99936266D01*
X159321104Y-99869600D01*
X159359200Y-99769600D01*
X159397295Y-99736266D01*
X160121104Y-99069600D02*
X160121104Y-99469600D01*
X160121104Y-99269600D02*
X159321104Y-99269600D01*
X159435390Y-99336266D01*
X159511580Y-99402933D01*
X159549676Y-99469600D01*
X159968704Y-96981934D02*
X159968704Y-97381934D01*
X159968704Y-97181934D02*
X159168704Y-97181934D01*
X159282990Y-97248600D01*
X159359180Y-97315267D01*
X159397276Y-97381934D01*
X159168704Y-96548600D02*
X159168704Y-96481934D01*
X159206800Y-96415267D01*
X159244895Y-96381934D01*
X159321085Y-96348600D01*
X159473466Y-96315267D01*
X159663942Y-96315267D01*
X159816323Y-96348600D01*
X159892514Y-96381934D01*
X159930609Y-96415267D01*
X159968704Y-96481934D01*
X159968704Y-96548600D01*
X159930609Y-96615267D01*
X159892514Y-96648600D01*
X159816323Y-96681934D01*
X159663942Y-96715267D01*
X159473466Y-96715267D01*
X159321085Y-96681934D01*
X159244895Y-96648600D01*
X159206800Y-96615267D01*
X159168704Y-96548600D01*
X159435371Y-96015267D02*
X159968704Y-96015267D01*
X159511561Y-96015267D02*
X159473466Y-95981934D01*
X159435371Y-95915267D01*
X159435371Y-95815267D01*
X159473466Y-95748600D01*
X159549657Y-95715267D01*
X159968704Y-95715267D01*
X152069314Y-99736266D02*
X152107409Y-99769600D01*
X152145504Y-99869600D01*
X152145504Y-99936266D01*
X152107409Y-100036266D01*
X152031219Y-100102933D01*
X151955028Y-100136266D01*
X151802647Y-100169600D01*
X151688361Y-100169600D01*
X151535980Y-100136266D01*
X151459790Y-100102933D01*
X151383600Y-100036266D01*
X151345504Y-99936266D01*
X151345504Y-99869600D01*
X151383600Y-99769600D01*
X151421695Y-99736266D01*
X151421695Y-99469600D02*
X151383600Y-99436266D01*
X151345504Y-99369600D01*
X151345504Y-99202933D01*
X151383600Y-99136266D01*
X151421695Y-99102933D01*
X151497885Y-99069600D01*
X151574076Y-99069600D01*
X151688361Y-99102933D01*
X152145504Y-99502933D01*
X152145504Y-99069600D01*
X152170904Y-97481933D02*
X152170904Y-97881933D01*
X152170904Y-97681933D02*
X151370904Y-97681933D01*
X151485190Y-97748600D01*
X151561380Y-97815266D01*
X151599476Y-97881933D01*
X151370904Y-97048600D02*
X151370904Y-96981933D01*
X151409000Y-96915266D01*
X151447095Y-96881933D01*
X151523285Y-96848600D01*
X151675666Y-96815266D01*
X151866142Y-96815266D01*
X152018523Y-96848600D01*
X152094714Y-96881933D01*
X152132809Y-96915266D01*
X152170904Y-96981933D01*
X152170904Y-97048600D01*
X152132809Y-97115266D01*
X152094714Y-97148600D01*
X152018523Y-97181933D01*
X151866142Y-97215266D01*
X151675666Y-97215266D01*
X151523285Y-97181933D01*
X151447095Y-97148600D01*
X151409000Y-97115266D01*
X151370904Y-97048600D01*
X151370904Y-96381933D02*
X151370904Y-96315266D01*
X151409000Y-96248600D01*
X151447095Y-96215266D01*
X151523285Y-96181933D01*
X151675666Y-96148600D01*
X151866142Y-96148600D01*
X152018523Y-96181933D01*
X152094714Y-96215266D01*
X152132809Y-96248600D01*
X152170904Y-96315266D01*
X152170904Y-96381933D01*
X152132809Y-96448600D01*
X152094714Y-96481933D01*
X152018523Y-96515266D01*
X151866142Y-96548600D01*
X151675666Y-96548600D01*
X151523285Y-96515266D01*
X151447095Y-96481933D01*
X151409000Y-96448600D01*
X151370904Y-96381933D01*
X151637571Y-95848600D02*
X152170904Y-95848600D01*
X151713761Y-95848600D02*
X151675666Y-95815266D01*
X151637571Y-95748600D01*
X151637571Y-95648600D01*
X151675666Y-95581933D01*
X151751857Y-95548600D01*
X152170904Y-95548600D01*
X156082514Y-99736266D02*
X156120609Y-99769600D01*
X156158704Y-99869600D01*
X156158704Y-99936266D01*
X156120609Y-100036266D01*
X156044419Y-100102933D01*
X155968228Y-100136266D01*
X155815847Y-100169600D01*
X155701561Y-100169600D01*
X155549180Y-100136266D01*
X155472990Y-100102933D01*
X155396800Y-100036266D01*
X155358704Y-99936266D01*
X155358704Y-99869600D01*
X155396800Y-99769600D01*
X155434895Y-99736266D01*
X155358704Y-99502933D02*
X155358704Y-99069600D01*
X155663466Y-99302933D01*
X155663466Y-99202933D01*
X155701561Y-99136266D01*
X155739657Y-99102933D01*
X155815847Y-99069600D01*
X156006323Y-99069600D01*
X156082514Y-99102933D01*
X156120609Y-99136266D01*
X156158704Y-99202933D01*
X156158704Y-99402933D01*
X156120609Y-99469600D01*
X156082514Y-99502933D01*
X156057104Y-96915266D02*
X156057104Y-97315266D01*
X156057104Y-97115266D02*
X155257104Y-97115266D01*
X155371390Y-97181933D01*
X155447580Y-97248600D01*
X155485676Y-97315266D01*
X155523771Y-96315266D02*
X156057104Y-96315266D01*
X155523771Y-96615266D02*
X155942819Y-96615266D01*
X156019009Y-96581933D01*
X156057104Y-96515266D01*
X156057104Y-96415266D01*
X156019009Y-96348600D01*
X155980914Y-96315266D01*
X155638057Y-95748600D02*
X155638057Y-95981933D01*
X156057104Y-95981933D02*
X155257104Y-95981933D01*
X155257104Y-95648600D01*
M02*
