G04 #@! TF.GenerationSoftware,KiCad,Pcbnew,(5.1.5-0-10_14)*
G04 #@! TF.CreationDate,2020-12-02T11:51:34+01:00*
G04 #@! TF.ProjectId,smartcitizen-adc-4-ch,736d6172-7463-4697-9469-7a656e2d6164,rev?*
G04 #@! TF.SameCoordinates,Original*
G04 #@! TF.FileFunction,Soldermask,Top*
G04 #@! TF.FilePolarity,Negative*
%FSLAX46Y46*%
G04 Gerber Fmt 4.6, Leading zero omitted, Abs format (unit mm)*
G04 Created by KiCad (PCBNEW (5.1.5-0-10_14)) date 2020-12-02 11:51:34*
%MOMM*%
%LPD*%
G04 APERTURE LIST*
%ADD10C,0.100000*%
G04 APERTURE END LIST*
D10*
G36*
X144556000Y-106661000D02*
G01*
X143184000Y-106661000D01*
X143184000Y-104019000D01*
X144556000Y-104019000D01*
X144556000Y-106661000D01*
G37*
G36*
X142016000Y-106661000D02*
G01*
X140644000Y-106661000D01*
X140644000Y-104019000D01*
X142016000Y-104019000D01*
X142016000Y-106661000D01*
G37*
G36*
X169455799Y-104520837D02*
G01*
X169465408Y-104523752D01*
X169474272Y-104528490D01*
X169482037Y-104534863D01*
X169492248Y-104547306D01*
X169499178Y-104557675D01*
X169516505Y-104575002D01*
X169536880Y-104588615D01*
X169559520Y-104597991D01*
X169583553Y-104602771D01*
X169608057Y-104602770D01*
X169632090Y-104597988D01*
X169654729Y-104588610D01*
X169675102Y-104574995D01*
X169692429Y-104557668D01*
X169699358Y-104547298D01*
X169709563Y-104534863D01*
X169717328Y-104528490D01*
X169726192Y-104523752D01*
X169735801Y-104520837D01*
X169751940Y-104519248D01*
X170239661Y-104519248D01*
X170257999Y-104521054D01*
X170270250Y-104521656D01*
X170288669Y-104521656D01*
X170310949Y-104523850D01*
X170395033Y-104540576D01*
X170416460Y-104547076D01*
X170495658Y-104579880D01*
X170501103Y-104582791D01*
X170501109Y-104582793D01*
X170509969Y-104587529D01*
X170509973Y-104587532D01*
X170515414Y-104590440D01*
X170586699Y-104638071D01*
X170604004Y-104652272D01*
X170664628Y-104712896D01*
X170678829Y-104730201D01*
X170726460Y-104801486D01*
X170729368Y-104806927D01*
X170729371Y-104806931D01*
X170734107Y-104815791D01*
X170734109Y-104815797D01*
X170737020Y-104821242D01*
X170769824Y-104900440D01*
X170776324Y-104921867D01*
X170793050Y-105005951D01*
X170795244Y-105028231D01*
X170795244Y-105046650D01*
X170795846Y-105058901D01*
X170797652Y-105077239D01*
X170797652Y-105564962D01*
X170795846Y-105583299D01*
X170795244Y-105595550D01*
X170795244Y-105613969D01*
X170793050Y-105636249D01*
X170776324Y-105720333D01*
X170769824Y-105741760D01*
X170737020Y-105820958D01*
X170734109Y-105826403D01*
X170734107Y-105826409D01*
X170729371Y-105835269D01*
X170729368Y-105835273D01*
X170726460Y-105840714D01*
X170678829Y-105911999D01*
X170664628Y-105929304D01*
X170604004Y-105989928D01*
X170586699Y-106004129D01*
X170515414Y-106051760D01*
X170509973Y-106054668D01*
X170509969Y-106054671D01*
X170501109Y-106059407D01*
X170501103Y-106059409D01*
X170495658Y-106062320D01*
X170416460Y-106095124D01*
X170395033Y-106101624D01*
X170310949Y-106118350D01*
X170288669Y-106120544D01*
X170270250Y-106120544D01*
X170257999Y-106121146D01*
X170239662Y-106122952D01*
X169751940Y-106122952D01*
X169735801Y-106121363D01*
X169726192Y-106118448D01*
X169717328Y-106113710D01*
X169709563Y-106107337D01*
X169699352Y-106094894D01*
X169692422Y-106084525D01*
X169675095Y-106067198D01*
X169654720Y-106053585D01*
X169632080Y-106044209D01*
X169608047Y-106039429D01*
X169583543Y-106039430D01*
X169559510Y-106044212D01*
X169536871Y-106053590D01*
X169516498Y-106067205D01*
X169499171Y-106084532D01*
X169492242Y-106094902D01*
X169482037Y-106107337D01*
X169474272Y-106113710D01*
X169465408Y-106118448D01*
X169455799Y-106121363D01*
X169439660Y-106122952D01*
X168951938Y-106122952D01*
X168933601Y-106121146D01*
X168921350Y-106120544D01*
X168902931Y-106120544D01*
X168880651Y-106118350D01*
X168796567Y-106101624D01*
X168775140Y-106095124D01*
X168695942Y-106062320D01*
X168690497Y-106059409D01*
X168690491Y-106059407D01*
X168681631Y-106054671D01*
X168681627Y-106054668D01*
X168676186Y-106051760D01*
X168604901Y-106004129D01*
X168587596Y-105989928D01*
X168526972Y-105929304D01*
X168512771Y-105911999D01*
X168465140Y-105840714D01*
X168462232Y-105835273D01*
X168462229Y-105835269D01*
X168457493Y-105826409D01*
X168457491Y-105826403D01*
X168454580Y-105820958D01*
X168421776Y-105741760D01*
X168415276Y-105720333D01*
X168398550Y-105636249D01*
X168396356Y-105613969D01*
X168396356Y-105595550D01*
X168395754Y-105583299D01*
X168393948Y-105564962D01*
X168393948Y-105077239D01*
X168395754Y-105058901D01*
X168396356Y-105046650D01*
X168396356Y-105028231D01*
X168398550Y-105005951D01*
X168415276Y-104921867D01*
X168421776Y-104900440D01*
X168454580Y-104821242D01*
X168457491Y-104815797D01*
X168457493Y-104815791D01*
X168462229Y-104806931D01*
X168462232Y-104806927D01*
X168465140Y-104801486D01*
X168512771Y-104730201D01*
X168526972Y-104712896D01*
X168587596Y-104652272D01*
X168604901Y-104638071D01*
X168676186Y-104590440D01*
X168681627Y-104587532D01*
X168681631Y-104587529D01*
X168690491Y-104582793D01*
X168690497Y-104582791D01*
X168695942Y-104579880D01*
X168775140Y-104547076D01*
X168796567Y-104540576D01*
X168880651Y-104523850D01*
X168902931Y-104521656D01*
X168921350Y-104521656D01*
X168933601Y-104521054D01*
X168951939Y-104519248D01*
X169439660Y-104519248D01*
X169455799Y-104520837D01*
G37*
G36*
X150419758Y-102473949D02*
G01*
X150671011Y-102523926D01*
X150753352Y-102558033D01*
X150957641Y-102642652D01*
X151043239Y-102699847D01*
X151215604Y-102815017D01*
X151434983Y-103034396D01*
X151550153Y-103206761D01*
X151607348Y-103292359D01*
X151676896Y-103460263D01*
X151726074Y-103578989D01*
X151786600Y-103883276D01*
X151786600Y-104193524D01*
X151726074Y-104497811D01*
X151687706Y-104590440D01*
X151607348Y-104784441D01*
X151582758Y-104821242D01*
X151434983Y-105042404D01*
X151215604Y-105261783D01*
X151043239Y-105376953D01*
X150957641Y-105434148D01*
X150789737Y-105503696D01*
X150671011Y-105552874D01*
X150579382Y-105571100D01*
X150366725Y-105613400D01*
X150056475Y-105613400D01*
X149843818Y-105571100D01*
X149752189Y-105552874D01*
X149633463Y-105503696D01*
X149465559Y-105434148D01*
X149379961Y-105376953D01*
X149207596Y-105261783D01*
X148988217Y-105042404D01*
X148840442Y-104821242D01*
X148815852Y-104784441D01*
X148735494Y-104590440D01*
X148697126Y-104497811D01*
X148636600Y-104193524D01*
X148636600Y-103883276D01*
X148697126Y-103578989D01*
X148746304Y-103460263D01*
X148815852Y-103292359D01*
X148873047Y-103206761D01*
X148988217Y-103034396D01*
X149207596Y-102815017D01*
X149379961Y-102699847D01*
X149465559Y-102642652D01*
X149669848Y-102558033D01*
X149752189Y-102523926D01*
X150003442Y-102473949D01*
X150056475Y-102463400D01*
X150366725Y-102463400D01*
X150419758Y-102473949D01*
G37*
G36*
X163503347Y-103229321D02*
G01*
X163582976Y-103237164D01*
X163736227Y-103283652D01*
X163736230Y-103283653D01*
X163877463Y-103359144D01*
X164001259Y-103460741D01*
X164102856Y-103584537D01*
X164178347Y-103725770D01*
X164178348Y-103725773D01*
X164224836Y-103879024D01*
X164240533Y-104038400D01*
X164224836Y-104197776D01*
X164178348Y-104351027D01*
X164178347Y-104351030D01*
X164102856Y-104492263D01*
X164001259Y-104616059D01*
X163877463Y-104717656D01*
X163736230Y-104793147D01*
X163736227Y-104793148D01*
X163582976Y-104839636D01*
X163503347Y-104847479D01*
X163463534Y-104851400D01*
X161859666Y-104851400D01*
X161819853Y-104847479D01*
X161740224Y-104839636D01*
X161586973Y-104793148D01*
X161586970Y-104793147D01*
X161445737Y-104717656D01*
X161321941Y-104616059D01*
X161220344Y-104492263D01*
X161144853Y-104351030D01*
X161144852Y-104351027D01*
X161098364Y-104197776D01*
X161082667Y-104038400D01*
X161098364Y-103879024D01*
X161144852Y-103725773D01*
X161144853Y-103725770D01*
X161220344Y-103584537D01*
X161321941Y-103460741D01*
X161445737Y-103359144D01*
X161586970Y-103283653D01*
X161586973Y-103283652D01*
X161740224Y-103237164D01*
X161819853Y-103229321D01*
X161859666Y-103225400D01*
X163463534Y-103225400D01*
X163503347Y-103229321D01*
G37*
G36*
X169430399Y-101358537D02*
G01*
X169440008Y-101361452D01*
X169448872Y-101366190D01*
X169456637Y-101372563D01*
X169466848Y-101385006D01*
X169473778Y-101395375D01*
X169491105Y-101412702D01*
X169511480Y-101426315D01*
X169534120Y-101435691D01*
X169558153Y-101440471D01*
X169582657Y-101440470D01*
X169606690Y-101435688D01*
X169629329Y-101426310D01*
X169649702Y-101412695D01*
X169667029Y-101395368D01*
X169673958Y-101384998D01*
X169684163Y-101372563D01*
X169691928Y-101366190D01*
X169700792Y-101361452D01*
X169710401Y-101358537D01*
X169726540Y-101356948D01*
X170214261Y-101356948D01*
X170232599Y-101358754D01*
X170244850Y-101359356D01*
X170263269Y-101359356D01*
X170285549Y-101361550D01*
X170369633Y-101378276D01*
X170391060Y-101384776D01*
X170470258Y-101417580D01*
X170475703Y-101420491D01*
X170475709Y-101420493D01*
X170484569Y-101425229D01*
X170484573Y-101425232D01*
X170490014Y-101428140D01*
X170561299Y-101475771D01*
X170578604Y-101489972D01*
X170639228Y-101550596D01*
X170653429Y-101567901D01*
X170701060Y-101639186D01*
X170703968Y-101644627D01*
X170703971Y-101644631D01*
X170708707Y-101653491D01*
X170708709Y-101653497D01*
X170711620Y-101658942D01*
X170744424Y-101738140D01*
X170750924Y-101759567D01*
X170767650Y-101843651D01*
X170769844Y-101865931D01*
X170769844Y-101884350D01*
X170770446Y-101896601D01*
X170772252Y-101914939D01*
X170772252Y-102402662D01*
X170770446Y-102420999D01*
X170769844Y-102433250D01*
X170769844Y-102451669D01*
X170767650Y-102473949D01*
X170750924Y-102558033D01*
X170744424Y-102579460D01*
X170711620Y-102658658D01*
X170708709Y-102664103D01*
X170708707Y-102664109D01*
X170703971Y-102672969D01*
X170703968Y-102672973D01*
X170701060Y-102678414D01*
X170653429Y-102749699D01*
X170639228Y-102767004D01*
X170578604Y-102827628D01*
X170561299Y-102841829D01*
X170490014Y-102889460D01*
X170484573Y-102892368D01*
X170484569Y-102892371D01*
X170475709Y-102897107D01*
X170475703Y-102897109D01*
X170470258Y-102900020D01*
X170391060Y-102932824D01*
X170369633Y-102939324D01*
X170285549Y-102956050D01*
X170263269Y-102958244D01*
X170244850Y-102958244D01*
X170232599Y-102958846D01*
X170214262Y-102960652D01*
X169726540Y-102960652D01*
X169710401Y-102959063D01*
X169700792Y-102956148D01*
X169691928Y-102951410D01*
X169684163Y-102945037D01*
X169673952Y-102932594D01*
X169667022Y-102922225D01*
X169649695Y-102904898D01*
X169629320Y-102891285D01*
X169606680Y-102881909D01*
X169582647Y-102877129D01*
X169558143Y-102877130D01*
X169534110Y-102881912D01*
X169511471Y-102891290D01*
X169491098Y-102904905D01*
X169473771Y-102922232D01*
X169466842Y-102932602D01*
X169456637Y-102945037D01*
X169448872Y-102951410D01*
X169440008Y-102956148D01*
X169430399Y-102959063D01*
X169414260Y-102960652D01*
X168926538Y-102960652D01*
X168908201Y-102958846D01*
X168895950Y-102958244D01*
X168877531Y-102958244D01*
X168855251Y-102956050D01*
X168771167Y-102939324D01*
X168749740Y-102932824D01*
X168670542Y-102900020D01*
X168665097Y-102897109D01*
X168665091Y-102897107D01*
X168656231Y-102892371D01*
X168656227Y-102892368D01*
X168650786Y-102889460D01*
X168579501Y-102841829D01*
X168562196Y-102827628D01*
X168501572Y-102767004D01*
X168487371Y-102749699D01*
X168439740Y-102678414D01*
X168436832Y-102672973D01*
X168436829Y-102672969D01*
X168432093Y-102664109D01*
X168432091Y-102664103D01*
X168429180Y-102658658D01*
X168396376Y-102579460D01*
X168389876Y-102558033D01*
X168373150Y-102473949D01*
X168370956Y-102451669D01*
X168370956Y-102433250D01*
X168370354Y-102420999D01*
X168368548Y-102402662D01*
X168368548Y-101914939D01*
X168370354Y-101896601D01*
X168370956Y-101884350D01*
X168370956Y-101865931D01*
X168373150Y-101843651D01*
X168389876Y-101759567D01*
X168396376Y-101738140D01*
X168429180Y-101658942D01*
X168432091Y-101653497D01*
X168432093Y-101653491D01*
X168436829Y-101644631D01*
X168436832Y-101644627D01*
X168439740Y-101639186D01*
X168487371Y-101567901D01*
X168501572Y-101550596D01*
X168562196Y-101489972D01*
X168579501Y-101475771D01*
X168650786Y-101428140D01*
X168656227Y-101425232D01*
X168656231Y-101425229D01*
X168665091Y-101420493D01*
X168665097Y-101420491D01*
X168670542Y-101417580D01*
X168749740Y-101384776D01*
X168771167Y-101378276D01*
X168855251Y-101361550D01*
X168877531Y-101359356D01*
X168895950Y-101359356D01*
X168908201Y-101358754D01*
X168926539Y-101356948D01*
X169414260Y-101356948D01*
X169430399Y-101358537D01*
G37*
G36*
X163503347Y-100689321D02*
G01*
X163582976Y-100697164D01*
X163736227Y-100743652D01*
X163736230Y-100743653D01*
X163877463Y-100819144D01*
X164001259Y-100920741D01*
X164102856Y-101044537D01*
X164178347Y-101185770D01*
X164178348Y-101185773D01*
X164224836Y-101339024D01*
X164240533Y-101498400D01*
X164224836Y-101657776D01*
X164224482Y-101658942D01*
X164178347Y-101811030D01*
X164102856Y-101952263D01*
X164001259Y-102076059D01*
X163877463Y-102177656D01*
X163736230Y-102253147D01*
X163736227Y-102253148D01*
X163582976Y-102299636D01*
X163503347Y-102307479D01*
X163463534Y-102311400D01*
X161859666Y-102311400D01*
X161819853Y-102307479D01*
X161740224Y-102299636D01*
X161586973Y-102253148D01*
X161586970Y-102253147D01*
X161445737Y-102177656D01*
X161321941Y-102076059D01*
X161220344Y-101952263D01*
X161144853Y-101811030D01*
X161098718Y-101658942D01*
X161098364Y-101657776D01*
X161082667Y-101498400D01*
X161098364Y-101339024D01*
X161144852Y-101185773D01*
X161144853Y-101185770D01*
X161220344Y-101044537D01*
X161321941Y-100920741D01*
X161445737Y-100819144D01*
X161586970Y-100743653D01*
X161586973Y-100743652D01*
X161740224Y-100697164D01*
X161819853Y-100689321D01*
X161859666Y-100685400D01*
X163463534Y-100685400D01*
X163503347Y-100689321D01*
G37*
G36*
X144556000Y-101202540D02*
G01*
X143184000Y-101202540D01*
X143184000Y-98560540D01*
X144556000Y-98560540D01*
X144556000Y-101202540D01*
G37*
G36*
X142016000Y-101202540D02*
G01*
X140644000Y-101202540D01*
X140644000Y-98560540D01*
X142016000Y-98560540D01*
X142016000Y-101202540D01*
G37*
G36*
X158991500Y-100279400D02*
G01*
X156984500Y-100279400D01*
X156984500Y-98907400D01*
X158991500Y-98907400D01*
X158991500Y-100279400D01*
G37*
G36*
X155029100Y-100279400D02*
G01*
X153022100Y-100279400D01*
X153022100Y-98907400D01*
X155029100Y-98907400D01*
X155029100Y-100279400D01*
G37*
G36*
X151015900Y-100279400D02*
G01*
X149008900Y-100279400D01*
X149008900Y-98907400D01*
X151015900Y-98907400D01*
X151015900Y-100279400D01*
G37*
G36*
X169430399Y-98208937D02*
G01*
X169440008Y-98211852D01*
X169448872Y-98216590D01*
X169456637Y-98222963D01*
X169466848Y-98235406D01*
X169473778Y-98245775D01*
X169491105Y-98263102D01*
X169511480Y-98276715D01*
X169534120Y-98286091D01*
X169558153Y-98290871D01*
X169582657Y-98290870D01*
X169606690Y-98286088D01*
X169629329Y-98276710D01*
X169649702Y-98263095D01*
X169667029Y-98245768D01*
X169673958Y-98235398D01*
X169684163Y-98222963D01*
X169691928Y-98216590D01*
X169700792Y-98211852D01*
X169710401Y-98208937D01*
X169726540Y-98207348D01*
X170214261Y-98207348D01*
X170232599Y-98209154D01*
X170244850Y-98209756D01*
X170263269Y-98209756D01*
X170285549Y-98211950D01*
X170369633Y-98228676D01*
X170391060Y-98235176D01*
X170470258Y-98267980D01*
X170475703Y-98270891D01*
X170475709Y-98270893D01*
X170484569Y-98275629D01*
X170484573Y-98275632D01*
X170490014Y-98278540D01*
X170561299Y-98326171D01*
X170578604Y-98340372D01*
X170639228Y-98400996D01*
X170653429Y-98418301D01*
X170701060Y-98489586D01*
X170703968Y-98495027D01*
X170703971Y-98495031D01*
X170708707Y-98503891D01*
X170708709Y-98503897D01*
X170711620Y-98509342D01*
X170744424Y-98588540D01*
X170750924Y-98609967D01*
X170767650Y-98694051D01*
X170769844Y-98716331D01*
X170769844Y-98734750D01*
X170770446Y-98747001D01*
X170772252Y-98765339D01*
X170772252Y-99253062D01*
X170770446Y-99271399D01*
X170769844Y-99283650D01*
X170769844Y-99302069D01*
X170767650Y-99324349D01*
X170750924Y-99408433D01*
X170744424Y-99429860D01*
X170711620Y-99509058D01*
X170708709Y-99514503D01*
X170708707Y-99514509D01*
X170703971Y-99523369D01*
X170703968Y-99523373D01*
X170701060Y-99528814D01*
X170653429Y-99600099D01*
X170639228Y-99617404D01*
X170578604Y-99678028D01*
X170561299Y-99692229D01*
X170490014Y-99739860D01*
X170484573Y-99742768D01*
X170484569Y-99742771D01*
X170475709Y-99747507D01*
X170475703Y-99747509D01*
X170470258Y-99750420D01*
X170391060Y-99783224D01*
X170369633Y-99789724D01*
X170285549Y-99806450D01*
X170263269Y-99808644D01*
X170244850Y-99808644D01*
X170232599Y-99809246D01*
X170214262Y-99811052D01*
X169726540Y-99811052D01*
X169710401Y-99809463D01*
X169700792Y-99806548D01*
X169691928Y-99801810D01*
X169684163Y-99795437D01*
X169673952Y-99782994D01*
X169667022Y-99772625D01*
X169649695Y-99755298D01*
X169629320Y-99741685D01*
X169606680Y-99732309D01*
X169582647Y-99727529D01*
X169558143Y-99727530D01*
X169534110Y-99732312D01*
X169511471Y-99741690D01*
X169491098Y-99755305D01*
X169473771Y-99772632D01*
X169466842Y-99783002D01*
X169456637Y-99795437D01*
X169448872Y-99801810D01*
X169440008Y-99806548D01*
X169430399Y-99809463D01*
X169414260Y-99811052D01*
X168926538Y-99811052D01*
X168908201Y-99809246D01*
X168895950Y-99808644D01*
X168877531Y-99808644D01*
X168855251Y-99806450D01*
X168771167Y-99789724D01*
X168749740Y-99783224D01*
X168670542Y-99750420D01*
X168665097Y-99747509D01*
X168665091Y-99747507D01*
X168656231Y-99742771D01*
X168656227Y-99742768D01*
X168650786Y-99739860D01*
X168579501Y-99692229D01*
X168562196Y-99678028D01*
X168501572Y-99617404D01*
X168487371Y-99600099D01*
X168439740Y-99528814D01*
X168436832Y-99523373D01*
X168436829Y-99523369D01*
X168432093Y-99514509D01*
X168432091Y-99514503D01*
X168429180Y-99509058D01*
X168396376Y-99429860D01*
X168389876Y-99408433D01*
X168373150Y-99324349D01*
X168370956Y-99302069D01*
X168370956Y-99283650D01*
X168370354Y-99271399D01*
X168368548Y-99253062D01*
X168368548Y-98765339D01*
X168370354Y-98747001D01*
X168370956Y-98734750D01*
X168370956Y-98716331D01*
X168373150Y-98694051D01*
X168389876Y-98609967D01*
X168396376Y-98588540D01*
X168429180Y-98509342D01*
X168432091Y-98503897D01*
X168432093Y-98503891D01*
X168436829Y-98495031D01*
X168436832Y-98495027D01*
X168439740Y-98489586D01*
X168487371Y-98418301D01*
X168501572Y-98400996D01*
X168562196Y-98340372D01*
X168579501Y-98326171D01*
X168650786Y-98278540D01*
X168656227Y-98275632D01*
X168656231Y-98275629D01*
X168665091Y-98270893D01*
X168665097Y-98270891D01*
X168670542Y-98267980D01*
X168749740Y-98235176D01*
X168771167Y-98228676D01*
X168855251Y-98211950D01*
X168877531Y-98209756D01*
X168895950Y-98209756D01*
X168908201Y-98209154D01*
X168926539Y-98207348D01*
X169414260Y-98207348D01*
X169430399Y-98208937D01*
G37*
G36*
X163503347Y-98149321D02*
G01*
X163582976Y-98157164D01*
X163736227Y-98203652D01*
X163736230Y-98203653D01*
X163877463Y-98279144D01*
X164001259Y-98380741D01*
X164102856Y-98504537D01*
X164178347Y-98645770D01*
X164178348Y-98645773D01*
X164224836Y-98799024D01*
X164240533Y-98958400D01*
X164224836Y-99117776D01*
X164181936Y-99259200D01*
X164178347Y-99271030D01*
X164102856Y-99412263D01*
X164001259Y-99536059D01*
X163877463Y-99637656D01*
X163736230Y-99713147D01*
X163736227Y-99713148D01*
X163582976Y-99759636D01*
X163503347Y-99767479D01*
X163463534Y-99771400D01*
X161859666Y-99771400D01*
X161819853Y-99767479D01*
X161740224Y-99759636D01*
X161586973Y-99713148D01*
X161586970Y-99713147D01*
X161445737Y-99637656D01*
X161321941Y-99536059D01*
X161220344Y-99412263D01*
X161144853Y-99271030D01*
X161141264Y-99259200D01*
X161098364Y-99117776D01*
X161082667Y-98958400D01*
X161098364Y-98799024D01*
X161144852Y-98645773D01*
X161144853Y-98645770D01*
X161220344Y-98504537D01*
X161321941Y-98380741D01*
X161445737Y-98279144D01*
X161586970Y-98203653D01*
X161586973Y-98203652D01*
X161740224Y-98157164D01*
X161819853Y-98149321D01*
X161859666Y-98145400D01*
X163463534Y-98145400D01*
X163503347Y-98149321D01*
G37*
G36*
X142762199Y-93549954D02*
G01*
X142774450Y-93550556D01*
X142792869Y-93550556D01*
X142815149Y-93552750D01*
X142899233Y-93569476D01*
X142920660Y-93575976D01*
X142999858Y-93608780D01*
X143005303Y-93611691D01*
X143005309Y-93611693D01*
X143014169Y-93616429D01*
X143014173Y-93616432D01*
X143019614Y-93619340D01*
X143090899Y-93666971D01*
X143108204Y-93681172D01*
X143168828Y-93741796D01*
X143183029Y-93759101D01*
X143230660Y-93830386D01*
X143233568Y-93835827D01*
X143233571Y-93835831D01*
X143238307Y-93844691D01*
X143238309Y-93844697D01*
X143241220Y-93850142D01*
X143274024Y-93929340D01*
X143280524Y-93950767D01*
X143297250Y-94034851D01*
X143299444Y-94057131D01*
X143299444Y-94075550D01*
X143300046Y-94087801D01*
X143301852Y-94106139D01*
X143301852Y-94643860D01*
X143300263Y-94659999D01*
X143295855Y-94674528D01*
X143290394Y-94687711D01*
X143285612Y-94711745D01*
X143285611Y-94736249D01*
X143290391Y-94760282D01*
X143299768Y-94782921D01*
X143301000Y-94784765D01*
X143301000Y-96016050D01*
X143294525Y-96028164D01*
X143287412Y-96051613D01*
X143285010Y-96075999D01*
X143287412Y-96100385D01*
X143294525Y-96123834D01*
X143296848Y-96128746D01*
X143300263Y-96140001D01*
X143301852Y-96156140D01*
X143301852Y-96693862D01*
X143300046Y-96712199D01*
X143299444Y-96724450D01*
X143299444Y-96742869D01*
X143297250Y-96765149D01*
X143280524Y-96849233D01*
X143274024Y-96870660D01*
X143241220Y-96949858D01*
X143238309Y-96955303D01*
X143238307Y-96955309D01*
X143233571Y-96964169D01*
X143233568Y-96964173D01*
X143230660Y-96969614D01*
X143183029Y-97040899D01*
X143168828Y-97058204D01*
X143108204Y-97118828D01*
X143090899Y-97133029D01*
X143019614Y-97180660D01*
X143014173Y-97183568D01*
X143014169Y-97183571D01*
X143005309Y-97188307D01*
X143005303Y-97188309D01*
X142999858Y-97191220D01*
X142920660Y-97224024D01*
X142899233Y-97230524D01*
X142815149Y-97247250D01*
X142792869Y-97249444D01*
X142774450Y-97249444D01*
X142762199Y-97250046D01*
X142743862Y-97251852D01*
X142256138Y-97251852D01*
X142237801Y-97250046D01*
X142225550Y-97249444D01*
X142207131Y-97249444D01*
X142184851Y-97247250D01*
X142100767Y-97230524D01*
X142079340Y-97224024D01*
X142000142Y-97191220D01*
X141994697Y-97188309D01*
X141994691Y-97188307D01*
X141985831Y-97183571D01*
X141985827Y-97183568D01*
X141980386Y-97180660D01*
X141909101Y-97133029D01*
X141891796Y-97118828D01*
X141831172Y-97058204D01*
X141816971Y-97040899D01*
X141769340Y-96969614D01*
X141766432Y-96964173D01*
X141766429Y-96964169D01*
X141761693Y-96955309D01*
X141761691Y-96955303D01*
X141758780Y-96949858D01*
X141725976Y-96870660D01*
X141719476Y-96849233D01*
X141702750Y-96765149D01*
X141700556Y-96742869D01*
X141700556Y-96724450D01*
X141699954Y-96712199D01*
X141698148Y-96693862D01*
X141698148Y-96156140D01*
X141699737Y-96140001D01*
X141704145Y-96125472D01*
X141709606Y-96112289D01*
X141714388Y-96088255D01*
X141714389Y-96063751D01*
X141709609Y-96039718D01*
X141700232Y-96017079D01*
X141699000Y-96015235D01*
X141699000Y-94783950D01*
X141705475Y-94771836D01*
X141712588Y-94748387D01*
X141714990Y-94724001D01*
X141712588Y-94699615D01*
X141705475Y-94676166D01*
X141703152Y-94671254D01*
X141699737Y-94659999D01*
X141698148Y-94643860D01*
X141698148Y-94106139D01*
X141699954Y-94087801D01*
X141700556Y-94075550D01*
X141700556Y-94057131D01*
X141702750Y-94034851D01*
X141719476Y-93950767D01*
X141725976Y-93929340D01*
X141758780Y-93850142D01*
X141761691Y-93844697D01*
X141761693Y-93844691D01*
X141766429Y-93835831D01*
X141766432Y-93835827D01*
X141769340Y-93830386D01*
X141816971Y-93759101D01*
X141831172Y-93741796D01*
X141891796Y-93681172D01*
X141909101Y-93666971D01*
X141980386Y-93619340D01*
X141985827Y-93616432D01*
X141985831Y-93616429D01*
X141994691Y-93611693D01*
X141994697Y-93611691D01*
X142000142Y-93608780D01*
X142079340Y-93575976D01*
X142100767Y-93569476D01*
X142184851Y-93552750D01*
X142207131Y-93550556D01*
X142225550Y-93550556D01*
X142237801Y-93549954D01*
X142256139Y-93548148D01*
X142743861Y-93548148D01*
X142762199Y-93549954D01*
G37*
G36*
X163503347Y-95609321D02*
G01*
X163582976Y-95617164D01*
X163736227Y-95663652D01*
X163736230Y-95663653D01*
X163877463Y-95739144D01*
X164001259Y-95840741D01*
X164102856Y-95964537D01*
X164178347Y-96105770D01*
X164178348Y-96105773D01*
X164224836Y-96259024D01*
X164240533Y-96418400D01*
X164224836Y-96577776D01*
X164189622Y-96693862D01*
X164178347Y-96731030D01*
X164102856Y-96872263D01*
X164001259Y-96996059D01*
X163877463Y-97097656D01*
X163736230Y-97173147D01*
X163736227Y-97173148D01*
X163582976Y-97219636D01*
X163503347Y-97227479D01*
X163463534Y-97231400D01*
X161859666Y-97231400D01*
X161819853Y-97227479D01*
X161740224Y-97219636D01*
X161586973Y-97173148D01*
X161586970Y-97173147D01*
X161445737Y-97097656D01*
X161321941Y-96996059D01*
X161220344Y-96872263D01*
X161144853Y-96731030D01*
X161133578Y-96693862D01*
X161098364Y-96577776D01*
X161082667Y-96418400D01*
X161098364Y-96259024D01*
X161144852Y-96105773D01*
X161144853Y-96105770D01*
X161220344Y-95964537D01*
X161321941Y-95840741D01*
X161445737Y-95739144D01*
X161586970Y-95663653D01*
X161586973Y-95663652D01*
X161740224Y-95617164D01*
X161819853Y-95609321D01*
X161859666Y-95605400D01*
X163463534Y-95605400D01*
X163503347Y-95609321D01*
G37*
G36*
X151015900Y-96977400D02*
G01*
X149008900Y-96977400D01*
X149008900Y-95605400D01*
X151015900Y-95605400D01*
X151015900Y-96977400D01*
G37*
G36*
X158991500Y-96977400D02*
G01*
X156984500Y-96977400D01*
X156984500Y-95605400D01*
X158991500Y-95605400D01*
X158991500Y-96977400D01*
G37*
G36*
X155029100Y-96977400D02*
G01*
X153022100Y-96977400D01*
X153022100Y-95605400D01*
X155029100Y-95605400D01*
X155029100Y-96977400D01*
G37*
G36*
X163503347Y-93069321D02*
G01*
X163582976Y-93077164D01*
X163736227Y-93123652D01*
X163736230Y-93123653D01*
X163877463Y-93199144D01*
X164001259Y-93300741D01*
X164102856Y-93424537D01*
X164178347Y-93565770D01*
X164178348Y-93565773D01*
X164224836Y-93719024D01*
X164240533Y-93878400D01*
X164224836Y-94037776D01*
X164204098Y-94106139D01*
X164178347Y-94191030D01*
X164102856Y-94332263D01*
X164001259Y-94456059D01*
X163877463Y-94557656D01*
X163736230Y-94633147D01*
X163736227Y-94633148D01*
X163582976Y-94679636D01*
X163515954Y-94686237D01*
X163463534Y-94691400D01*
X161859666Y-94691400D01*
X161807246Y-94686237D01*
X161740224Y-94679636D01*
X161586973Y-94633148D01*
X161586970Y-94633147D01*
X161445737Y-94557656D01*
X161321941Y-94456059D01*
X161220344Y-94332263D01*
X161144853Y-94191030D01*
X161119102Y-94106139D01*
X161098364Y-94037776D01*
X161082667Y-93878400D01*
X161098364Y-93719024D01*
X161144852Y-93565773D01*
X161144853Y-93565770D01*
X161220344Y-93424537D01*
X161321941Y-93300741D01*
X161445737Y-93199144D01*
X161586970Y-93123653D01*
X161586973Y-93123652D01*
X161740224Y-93077164D01*
X161819853Y-93069321D01*
X161859666Y-93065400D01*
X163463534Y-93065400D01*
X163503347Y-93069321D01*
G37*
G36*
X163503347Y-90529321D02*
G01*
X163582976Y-90537164D01*
X163736227Y-90583652D01*
X163736230Y-90583653D01*
X163877463Y-90659144D01*
X164001259Y-90760741D01*
X164102856Y-90884537D01*
X164178347Y-91025770D01*
X164178348Y-91025773D01*
X164224836Y-91179024D01*
X164240533Y-91338400D01*
X164224836Y-91497776D01*
X164178348Y-91651027D01*
X164178347Y-91651030D01*
X164102856Y-91792263D01*
X164001259Y-91916059D01*
X163877463Y-92017656D01*
X163736230Y-92093147D01*
X163736227Y-92093148D01*
X163582976Y-92139636D01*
X163503347Y-92147479D01*
X163463534Y-92151400D01*
X161859666Y-92151400D01*
X161819853Y-92147479D01*
X161740224Y-92139636D01*
X161586973Y-92093148D01*
X161586970Y-92093147D01*
X161445737Y-92017656D01*
X161321941Y-91916059D01*
X161220344Y-91792263D01*
X161144853Y-91651030D01*
X161144852Y-91651027D01*
X161098364Y-91497776D01*
X161082667Y-91338400D01*
X161098364Y-91179024D01*
X161144852Y-91025773D01*
X161144853Y-91025770D01*
X161220344Y-90884537D01*
X161321941Y-90760741D01*
X161445737Y-90659144D01*
X161586970Y-90583653D01*
X161586973Y-90583652D01*
X161740224Y-90537164D01*
X161819853Y-90529321D01*
X161859666Y-90525400D01*
X163463534Y-90525400D01*
X163503347Y-90529321D01*
G37*
G36*
X143164903Y-88797075D02*
G01*
X143392571Y-88891378D01*
X143597466Y-89028285D01*
X143771715Y-89202534D01*
X143887661Y-89376059D01*
X143908623Y-89407431D01*
X144002925Y-89635097D01*
X144051000Y-89876786D01*
X144051000Y-90123214D01*
X144002925Y-90364903D01*
X143912317Y-90583652D01*
X143908622Y-90592571D01*
X143771715Y-90797466D01*
X143597466Y-90971715D01*
X143392571Y-91108622D01*
X143392570Y-91108623D01*
X143392569Y-91108623D01*
X143164903Y-91202925D01*
X142923214Y-91251000D01*
X142676786Y-91251000D01*
X142435097Y-91202925D01*
X142207431Y-91108623D01*
X142207430Y-91108623D01*
X142207429Y-91108622D01*
X142002534Y-90971715D01*
X141828285Y-90797466D01*
X141691378Y-90592571D01*
X141687684Y-90583652D01*
X141597075Y-90364903D01*
X141549000Y-90123214D01*
X141549000Y-89876786D01*
X141597075Y-89635097D01*
X141691377Y-89407431D01*
X141712339Y-89376059D01*
X141828285Y-89202534D01*
X142002534Y-89028285D01*
X142207429Y-88891378D01*
X142435097Y-88797075D01*
X142676786Y-88749000D01*
X142923214Y-88749000D01*
X143164903Y-88797075D01*
G37*
G36*
X171151000Y-91051000D02*
G01*
X168649000Y-91051000D01*
X168649000Y-88549000D01*
X171151000Y-88549000D01*
X171151000Y-91051000D01*
G37*
G36*
X163503347Y-87989321D02*
G01*
X163582976Y-87997164D01*
X163736227Y-88043652D01*
X163736230Y-88043653D01*
X163877463Y-88119144D01*
X164001259Y-88220741D01*
X164102856Y-88344537D01*
X164178347Y-88485770D01*
X164178348Y-88485773D01*
X164224836Y-88639024D01*
X164240533Y-88798400D01*
X164224836Y-88957776D01*
X164203447Y-89028285D01*
X164178347Y-89111030D01*
X164102856Y-89252263D01*
X164001259Y-89376059D01*
X163877463Y-89477656D01*
X163736230Y-89553147D01*
X163736227Y-89553148D01*
X163582976Y-89599636D01*
X163503347Y-89607479D01*
X163463534Y-89611400D01*
X161859666Y-89611400D01*
X161819853Y-89607479D01*
X161740224Y-89599636D01*
X161586973Y-89553148D01*
X161586970Y-89553147D01*
X161445737Y-89477656D01*
X161321941Y-89376059D01*
X161220344Y-89252263D01*
X161144853Y-89111030D01*
X161119753Y-89028285D01*
X161098364Y-88957776D01*
X161082667Y-88798400D01*
X161098364Y-88639024D01*
X161144852Y-88485773D01*
X161144853Y-88485770D01*
X161220344Y-88344537D01*
X161321941Y-88220741D01*
X161445737Y-88119144D01*
X161586970Y-88043653D01*
X161586973Y-88043652D01*
X161740224Y-87997164D01*
X161819853Y-87989321D01*
X161859666Y-87985400D01*
X163463534Y-87985400D01*
X163503347Y-87989321D01*
G37*
G36*
X144051000Y-87751000D02*
G01*
X141549000Y-87751000D01*
X141549000Y-85249000D01*
X144051000Y-85249000D01*
X144051000Y-87751000D01*
G37*
G36*
X170264903Y-85097075D02*
G01*
X170492571Y-85191378D01*
X170697466Y-85328285D01*
X170871715Y-85502534D01*
X171008622Y-85707429D01*
X171008623Y-85707431D01*
X171102925Y-85935097D01*
X171151000Y-86176786D01*
X171151000Y-86423214D01*
X171102925Y-86664903D01*
X171083308Y-86712264D01*
X171008622Y-86892571D01*
X170871715Y-87097466D01*
X170697466Y-87271715D01*
X170492571Y-87408622D01*
X170492570Y-87408623D01*
X170492569Y-87408623D01*
X170264903Y-87502925D01*
X170023214Y-87551000D01*
X169776786Y-87551000D01*
X169535097Y-87502925D01*
X169307431Y-87408623D01*
X169307430Y-87408623D01*
X169307429Y-87408622D01*
X169102534Y-87271715D01*
X168928285Y-87097466D01*
X168791378Y-86892571D01*
X168716693Y-86712264D01*
X168697075Y-86664903D01*
X168649000Y-86423214D01*
X168649000Y-86176786D01*
X168697075Y-85935097D01*
X168791377Y-85707431D01*
X168791378Y-85707429D01*
X168928285Y-85502534D01*
X169102534Y-85328285D01*
X169307429Y-85191378D01*
X169535097Y-85097075D01*
X169776786Y-85049000D01*
X170023214Y-85049000D01*
X170264903Y-85097075D01*
G37*
G36*
X163503347Y-85449321D02*
G01*
X163582976Y-85457164D01*
X163732541Y-85502534D01*
X163736230Y-85503653D01*
X163877463Y-85579144D01*
X164001259Y-85680741D01*
X164102856Y-85804537D01*
X164178347Y-85945770D01*
X164178348Y-85945773D01*
X164224836Y-86099024D01*
X164240533Y-86258400D01*
X164224836Y-86417776D01*
X164223186Y-86423214D01*
X164178347Y-86571030D01*
X164102856Y-86712263D01*
X164001259Y-86836059D01*
X163877463Y-86937656D01*
X163736230Y-87013147D01*
X163736227Y-87013148D01*
X163582976Y-87059636D01*
X163503347Y-87067479D01*
X163463534Y-87071400D01*
X161859666Y-87071400D01*
X161819853Y-87067479D01*
X161740224Y-87059636D01*
X161586973Y-87013148D01*
X161586970Y-87013147D01*
X161445737Y-86937656D01*
X161321941Y-86836059D01*
X161220344Y-86712263D01*
X161144853Y-86571030D01*
X161100014Y-86423214D01*
X161098364Y-86417776D01*
X161082667Y-86258400D01*
X161098364Y-86099024D01*
X161144852Y-85945773D01*
X161144853Y-85945770D01*
X161220344Y-85804537D01*
X161321941Y-85680741D01*
X161445737Y-85579144D01*
X161586970Y-85503653D01*
X161590659Y-85502534D01*
X161740224Y-85457164D01*
X161819853Y-85449321D01*
X161859666Y-85445400D01*
X163463534Y-85445400D01*
X163503347Y-85449321D01*
G37*
G36*
X163503347Y-82909321D02*
G01*
X163582976Y-82917164D01*
X163736227Y-82963652D01*
X163736230Y-82963653D01*
X163877463Y-83039144D01*
X164001259Y-83140741D01*
X164102856Y-83264537D01*
X164178347Y-83405770D01*
X164178348Y-83405773D01*
X164224836Y-83559024D01*
X164240533Y-83718400D01*
X164224836Y-83877776D01*
X164178348Y-84031027D01*
X164178347Y-84031030D01*
X164102856Y-84172263D01*
X164001259Y-84296059D01*
X163877463Y-84397656D01*
X163736230Y-84473147D01*
X163736227Y-84473148D01*
X163582976Y-84519636D01*
X163503347Y-84527479D01*
X163463534Y-84531400D01*
X161859666Y-84531400D01*
X161819853Y-84527479D01*
X161740224Y-84519636D01*
X161586973Y-84473148D01*
X161586970Y-84473147D01*
X161445737Y-84397656D01*
X161321941Y-84296059D01*
X161220344Y-84172263D01*
X161144853Y-84031030D01*
X161144852Y-84031027D01*
X161098364Y-83877776D01*
X161082667Y-83718400D01*
X161098364Y-83559024D01*
X161144852Y-83405773D01*
X161144853Y-83405770D01*
X161220344Y-83264537D01*
X161321941Y-83140741D01*
X161445737Y-83039144D01*
X161586970Y-82963653D01*
X161586973Y-82963652D01*
X161740224Y-82917164D01*
X161819853Y-82909321D01*
X161859666Y-82905400D01*
X163463534Y-82905400D01*
X163503347Y-82909321D01*
G37*
G36*
X150518867Y-79633663D02*
G01*
X150671011Y-79663926D01*
X150789737Y-79713104D01*
X150957641Y-79782652D01*
X150957642Y-79782653D01*
X151215604Y-79955017D01*
X151434983Y-80174396D01*
X151550153Y-80346761D01*
X151607348Y-80432359D01*
X151676896Y-80600263D01*
X151726074Y-80718989D01*
X151786600Y-81023276D01*
X151786600Y-81333524D01*
X151727178Y-81632263D01*
X151726074Y-81637810D01*
X151607348Y-81924441D01*
X151607347Y-81924442D01*
X151434983Y-82182404D01*
X151215604Y-82401783D01*
X151043239Y-82516953D01*
X150957641Y-82574148D01*
X150789737Y-82643696D01*
X150671011Y-82692874D01*
X150518867Y-82723137D01*
X150366725Y-82753400D01*
X150056475Y-82753400D01*
X149904333Y-82723137D01*
X149752189Y-82692874D01*
X149633463Y-82643696D01*
X149465559Y-82574148D01*
X149379961Y-82516953D01*
X149207596Y-82401783D01*
X148988217Y-82182404D01*
X148815853Y-81924442D01*
X148815852Y-81924441D01*
X148697126Y-81637810D01*
X148696023Y-81632263D01*
X148636600Y-81333524D01*
X148636600Y-81023276D01*
X148697126Y-80718989D01*
X148746304Y-80600263D01*
X148815852Y-80432359D01*
X148873047Y-80346761D01*
X148988217Y-80174396D01*
X149207596Y-79955017D01*
X149465558Y-79782653D01*
X149465559Y-79782652D01*
X149633463Y-79713104D01*
X149752189Y-79663926D01*
X150056475Y-79603400D01*
X150366725Y-79603400D01*
X150518867Y-79633663D01*
G37*
G36*
X163503347Y-80369321D02*
G01*
X163582976Y-80377164D01*
X163736227Y-80423652D01*
X163736230Y-80423653D01*
X163877463Y-80499144D01*
X164001259Y-80600741D01*
X164102856Y-80724537D01*
X164178347Y-80865770D01*
X164178348Y-80865773D01*
X164224836Y-81019024D01*
X164240533Y-81178400D01*
X164224836Y-81337776D01*
X164178348Y-81491027D01*
X164178347Y-81491030D01*
X164102856Y-81632263D01*
X164001259Y-81756059D01*
X163877463Y-81857656D01*
X163736230Y-81933147D01*
X163736227Y-81933148D01*
X163582976Y-81979636D01*
X163503347Y-81987479D01*
X163463534Y-81991400D01*
X161859666Y-81991400D01*
X161819853Y-81987479D01*
X161740224Y-81979636D01*
X161586973Y-81933148D01*
X161586970Y-81933147D01*
X161445737Y-81857656D01*
X161321941Y-81756059D01*
X161220344Y-81632263D01*
X161144853Y-81491030D01*
X161144852Y-81491027D01*
X161098364Y-81337776D01*
X161082667Y-81178400D01*
X161098364Y-81019024D01*
X161144852Y-80865773D01*
X161144853Y-80865770D01*
X161220344Y-80724537D01*
X161321941Y-80600741D01*
X161445737Y-80499144D01*
X161586970Y-80423653D01*
X161586973Y-80423652D01*
X161740224Y-80377164D01*
X161819853Y-80369321D01*
X161859666Y-80365400D01*
X163463534Y-80365400D01*
X163503347Y-80369321D01*
G37*
G36*
X159986095Y-72910496D02*
G01*
X160148884Y-72959878D01*
X160148887Y-72959879D01*
X160298907Y-73040066D01*
X160298908Y-73040067D01*
X160298912Y-73040069D01*
X160430412Y-73147988D01*
X160538331Y-73279488D01*
X160538333Y-73279492D01*
X160538334Y-73279493D01*
X160618521Y-73429513D01*
X160618522Y-73429516D01*
X160667904Y-73592305D01*
X160680400Y-73719180D01*
X160680400Y-75328020D01*
X160667904Y-75454895D01*
X160618522Y-75617683D01*
X160618521Y-75617687D01*
X160538334Y-75767707D01*
X160538331Y-75767712D01*
X160430412Y-75899212D01*
X160298911Y-76007131D01*
X160298907Y-76007134D01*
X160148887Y-76087321D01*
X160106526Y-76100171D01*
X159986094Y-76136704D01*
X159816800Y-76153378D01*
X159647505Y-76136704D01*
X159484716Y-76087322D01*
X159484713Y-76087321D01*
X159334693Y-76007134D01*
X159334692Y-76007133D01*
X159334688Y-76007131D01*
X159203188Y-75899212D01*
X159095269Y-75767711D01*
X159095268Y-75767710D01*
X159095266Y-75767707D01*
X159015079Y-75617687D01*
X159002229Y-75575326D01*
X158965696Y-75454894D01*
X158953200Y-75328019D01*
X158953201Y-73719180D01*
X158965697Y-73592305D01*
X159015079Y-73429516D01*
X159015080Y-73429513D01*
X159095267Y-73279493D01*
X159095268Y-73279492D01*
X159095270Y-73279488D01*
X159203189Y-73147988D01*
X159334689Y-73040069D01*
X159334693Y-73040067D01*
X159334694Y-73040066D01*
X159484714Y-72959879D01*
X159484717Y-72959878D01*
X159647506Y-72910496D01*
X159816800Y-72893822D01*
X159986095Y-72910496D01*
G37*
G36*
X149826095Y-72910496D02*
G01*
X149988884Y-72959878D01*
X149988887Y-72959879D01*
X150138907Y-73040066D01*
X150138908Y-73040067D01*
X150138912Y-73040069D01*
X150270412Y-73147988D01*
X150378331Y-73279488D01*
X150378333Y-73279492D01*
X150378334Y-73279493D01*
X150458521Y-73429513D01*
X150458522Y-73429516D01*
X150507904Y-73592305D01*
X150520400Y-73719180D01*
X150520400Y-75328020D01*
X150507904Y-75454895D01*
X150458522Y-75617683D01*
X150458521Y-75617687D01*
X150378334Y-75767707D01*
X150378331Y-75767712D01*
X150270412Y-75899212D01*
X150138911Y-76007131D01*
X150138907Y-76007134D01*
X149988887Y-76087321D01*
X149946526Y-76100171D01*
X149826094Y-76136704D01*
X149656800Y-76153378D01*
X149487505Y-76136704D01*
X149324716Y-76087322D01*
X149324713Y-76087321D01*
X149174693Y-76007134D01*
X149174692Y-76007133D01*
X149174688Y-76007131D01*
X149043188Y-75899212D01*
X148935269Y-75767711D01*
X148935268Y-75767710D01*
X148935266Y-75767707D01*
X148855079Y-75617687D01*
X148842229Y-75575326D01*
X148805696Y-75454894D01*
X148793200Y-75328019D01*
X148793201Y-73719180D01*
X148805697Y-73592305D01*
X148855079Y-73429516D01*
X148855080Y-73429513D01*
X148935267Y-73279493D01*
X148935268Y-73279492D01*
X148935270Y-73279488D01*
X149043189Y-73147988D01*
X149174689Y-73040069D01*
X149174693Y-73040067D01*
X149174694Y-73040066D01*
X149324714Y-72959879D01*
X149324717Y-72959878D01*
X149487506Y-72910496D01*
X149656800Y-72893822D01*
X149826095Y-72910496D01*
G37*
G36*
X152366095Y-72910496D02*
G01*
X152528884Y-72959878D01*
X152528887Y-72959879D01*
X152678907Y-73040066D01*
X152678908Y-73040067D01*
X152678912Y-73040069D01*
X152810412Y-73147988D01*
X152918331Y-73279488D01*
X152918333Y-73279492D01*
X152918334Y-73279493D01*
X152998521Y-73429513D01*
X152998522Y-73429516D01*
X153047904Y-73592305D01*
X153060400Y-73719180D01*
X153060400Y-75328020D01*
X153047904Y-75454895D01*
X152998522Y-75617683D01*
X152998521Y-75617687D01*
X152918334Y-75767707D01*
X152918331Y-75767712D01*
X152810412Y-75899212D01*
X152678911Y-76007131D01*
X152678907Y-76007134D01*
X152528887Y-76087321D01*
X152486526Y-76100171D01*
X152366094Y-76136704D01*
X152196800Y-76153378D01*
X152027505Y-76136704D01*
X151864716Y-76087322D01*
X151864713Y-76087321D01*
X151714693Y-76007134D01*
X151714692Y-76007133D01*
X151714688Y-76007131D01*
X151583188Y-75899212D01*
X151475269Y-75767711D01*
X151475268Y-75767710D01*
X151475266Y-75767707D01*
X151395079Y-75617687D01*
X151382229Y-75575326D01*
X151345696Y-75454894D01*
X151333200Y-75328019D01*
X151333201Y-73719180D01*
X151345697Y-73592305D01*
X151395079Y-73429516D01*
X151395080Y-73429513D01*
X151475267Y-73279493D01*
X151475268Y-73279492D01*
X151475270Y-73279488D01*
X151583189Y-73147988D01*
X151714689Y-73040069D01*
X151714693Y-73040067D01*
X151714694Y-73040066D01*
X151864714Y-72959879D01*
X151864717Y-72959878D01*
X152027506Y-72910496D01*
X152196800Y-72893822D01*
X152366095Y-72910496D01*
G37*
G36*
X154906095Y-72910496D02*
G01*
X155068884Y-72959878D01*
X155068887Y-72959879D01*
X155218907Y-73040066D01*
X155218908Y-73040067D01*
X155218912Y-73040069D01*
X155350412Y-73147988D01*
X155458331Y-73279488D01*
X155458333Y-73279492D01*
X155458334Y-73279493D01*
X155538521Y-73429513D01*
X155538522Y-73429516D01*
X155587904Y-73592305D01*
X155600400Y-73719180D01*
X155600400Y-75328020D01*
X155587904Y-75454895D01*
X155538522Y-75617683D01*
X155538521Y-75617687D01*
X155458334Y-75767707D01*
X155458331Y-75767712D01*
X155350412Y-75899212D01*
X155218911Y-76007131D01*
X155218907Y-76007134D01*
X155068887Y-76087321D01*
X155026526Y-76100171D01*
X154906094Y-76136704D01*
X154736800Y-76153378D01*
X154567505Y-76136704D01*
X154404716Y-76087322D01*
X154404713Y-76087321D01*
X154254693Y-76007134D01*
X154254692Y-76007133D01*
X154254688Y-76007131D01*
X154123188Y-75899212D01*
X154015269Y-75767711D01*
X154015268Y-75767710D01*
X154015266Y-75767707D01*
X153935079Y-75617687D01*
X153922229Y-75575326D01*
X153885696Y-75454894D01*
X153873200Y-75328019D01*
X153873201Y-73719180D01*
X153885697Y-73592305D01*
X153935079Y-73429516D01*
X153935080Y-73429513D01*
X154015267Y-73279493D01*
X154015268Y-73279492D01*
X154015270Y-73279488D01*
X154123189Y-73147988D01*
X154254689Y-73040069D01*
X154254693Y-73040067D01*
X154254694Y-73040066D01*
X154404714Y-72959879D01*
X154404717Y-72959878D01*
X154567506Y-72910496D01*
X154736800Y-72893822D01*
X154906095Y-72910496D01*
G37*
G36*
X157446095Y-72910496D02*
G01*
X157608884Y-72959878D01*
X157608887Y-72959879D01*
X157758907Y-73040066D01*
X157758908Y-73040067D01*
X157758912Y-73040069D01*
X157890412Y-73147988D01*
X157998331Y-73279488D01*
X157998333Y-73279492D01*
X157998334Y-73279493D01*
X158078521Y-73429513D01*
X158078522Y-73429516D01*
X158127904Y-73592305D01*
X158140400Y-73719180D01*
X158140400Y-75328020D01*
X158127904Y-75454895D01*
X158078522Y-75617683D01*
X158078521Y-75617687D01*
X157998334Y-75767707D01*
X157998331Y-75767712D01*
X157890412Y-75899212D01*
X157758911Y-76007131D01*
X157758907Y-76007134D01*
X157608887Y-76087321D01*
X157566526Y-76100171D01*
X157446094Y-76136704D01*
X157276800Y-76153378D01*
X157107505Y-76136704D01*
X156944716Y-76087322D01*
X156944713Y-76087321D01*
X156794693Y-76007134D01*
X156794692Y-76007133D01*
X156794688Y-76007131D01*
X156663188Y-75899212D01*
X156555269Y-75767711D01*
X156555268Y-75767710D01*
X156555266Y-75767707D01*
X156475079Y-75617687D01*
X156462229Y-75575326D01*
X156425696Y-75454894D01*
X156413200Y-75328019D01*
X156413201Y-73719180D01*
X156425697Y-73592305D01*
X156475079Y-73429516D01*
X156475080Y-73429513D01*
X156555267Y-73279493D01*
X156555268Y-73279492D01*
X156555270Y-73279488D01*
X156663189Y-73147988D01*
X156794689Y-73040069D01*
X156794693Y-73040067D01*
X156794694Y-73040066D01*
X156944714Y-72959879D01*
X156944717Y-72959878D01*
X157107506Y-72910496D01*
X157276800Y-72893822D01*
X157446095Y-72910496D01*
G37*
G36*
X162526095Y-72910496D02*
G01*
X162688884Y-72959878D01*
X162688887Y-72959879D01*
X162838907Y-73040066D01*
X162838908Y-73040067D01*
X162838912Y-73040069D01*
X162970412Y-73147988D01*
X163078331Y-73279488D01*
X163078333Y-73279492D01*
X163078334Y-73279493D01*
X163158521Y-73429513D01*
X163158522Y-73429516D01*
X163207904Y-73592305D01*
X163220400Y-73719180D01*
X163220400Y-75328020D01*
X163207904Y-75454895D01*
X163158522Y-75617683D01*
X163158521Y-75617687D01*
X163078334Y-75767707D01*
X163078331Y-75767712D01*
X162970412Y-75899212D01*
X162838911Y-76007131D01*
X162838907Y-76007134D01*
X162688887Y-76087321D01*
X162646526Y-76100171D01*
X162526094Y-76136704D01*
X162356800Y-76153378D01*
X162187505Y-76136704D01*
X162024716Y-76087322D01*
X162024713Y-76087321D01*
X161874693Y-76007134D01*
X161874692Y-76007133D01*
X161874688Y-76007131D01*
X161743188Y-75899212D01*
X161635269Y-75767711D01*
X161635268Y-75767710D01*
X161635266Y-75767707D01*
X161555079Y-75617687D01*
X161542229Y-75575326D01*
X161505696Y-75454894D01*
X161493200Y-75328019D01*
X161493201Y-73719180D01*
X161505697Y-73592305D01*
X161555079Y-73429516D01*
X161555080Y-73429513D01*
X161635267Y-73279493D01*
X161635268Y-73279492D01*
X161635270Y-73279488D01*
X161743189Y-73147988D01*
X161874689Y-73040069D01*
X161874693Y-73040067D01*
X161874694Y-73040066D01*
X162024714Y-72959879D01*
X162024717Y-72959878D01*
X162187506Y-72910496D01*
X162356800Y-72893822D01*
X162526095Y-72910496D01*
G37*
G36*
X175149250Y-74898500D02*
G01*
X172047510Y-74898500D01*
X172047510Y-73296500D01*
X175149250Y-73296500D01*
X175149250Y-74898500D01*
G37*
G36*
X140452490Y-74898500D02*
G01*
X137350750Y-74898500D01*
X137350750Y-73296500D01*
X140452490Y-73296500D01*
X140452490Y-74898500D01*
G37*
G36*
X167520360Y-72254930D02*
G01*
X164680240Y-72254930D01*
X164680240Y-71144550D01*
X167520360Y-71144550D01*
X167520360Y-72254930D01*
G37*
G36*
X147819760Y-72254930D02*
G01*
X144979640Y-72254930D01*
X144979640Y-71144550D01*
X147819760Y-71144550D01*
X147819760Y-72254930D01*
G37*
G36*
X147819760Y-70253410D02*
G01*
X144979640Y-70253410D01*
X144979640Y-69143030D01*
X147819760Y-69143030D01*
X147819760Y-70253410D01*
G37*
G36*
X167520360Y-70253410D02*
G01*
X164680240Y-70253410D01*
X164680240Y-69143030D01*
X167520360Y-69143030D01*
X167520360Y-70253410D01*
G37*
G36*
X147819760Y-68256970D02*
G01*
X144979640Y-68256970D01*
X144979640Y-67146590D01*
X147819760Y-67146590D01*
X147819760Y-68256970D01*
G37*
G36*
X167520360Y-68256970D02*
G01*
X164680240Y-68256970D01*
X164680240Y-67146590D01*
X167520360Y-67146590D01*
X167520360Y-68256970D01*
G37*
G36*
X147819760Y-66255450D02*
G01*
X144979640Y-66255450D01*
X144979640Y-65145070D01*
X147819760Y-65145070D01*
X147819760Y-66255450D01*
G37*
G36*
X167520360Y-66255450D02*
G01*
X164680240Y-66255450D01*
X164680240Y-65145070D01*
X167520360Y-65145070D01*
X167520360Y-66255450D01*
G37*
G36*
X175149250Y-64103500D02*
G01*
X172047510Y-64103500D01*
X172047510Y-62501500D01*
X175149250Y-62501500D01*
X175149250Y-64103500D01*
G37*
G36*
X140452490Y-64103500D02*
G01*
X137350750Y-64103500D01*
X137350750Y-62501500D01*
X140452490Y-62501500D01*
X140452490Y-64103500D01*
G37*
G36*
X149826094Y-60716896D02*
G01*
X149946526Y-60753429D01*
X149988887Y-60766279D01*
X150138907Y-60846466D01*
X150138910Y-60846468D01*
X150138911Y-60846469D01*
X150270412Y-60954388D01*
X150378331Y-61085888D01*
X150378333Y-61085892D01*
X150378334Y-61085893D01*
X150458521Y-61235913D01*
X150458522Y-61235916D01*
X150507904Y-61398705D01*
X150520400Y-61525580D01*
X150520400Y-63134420D01*
X150507904Y-63261295D01*
X150458522Y-63424084D01*
X150458521Y-63424087D01*
X150378334Y-63574107D01*
X150378331Y-63574112D01*
X150270412Y-63705612D01*
X150138912Y-63813531D01*
X150138908Y-63813533D01*
X150138907Y-63813534D01*
X149988887Y-63893721D01*
X149988884Y-63893722D01*
X149826095Y-63943104D01*
X149656800Y-63959778D01*
X149487506Y-63943104D01*
X149324717Y-63893722D01*
X149324714Y-63893721D01*
X149174694Y-63813534D01*
X149174693Y-63813533D01*
X149174689Y-63813531D01*
X149043189Y-63705612D01*
X148935270Y-63574112D01*
X148935267Y-63574107D01*
X148855080Y-63424087D01*
X148855079Y-63424084D01*
X148805697Y-63261295D01*
X148793201Y-63134420D01*
X148793200Y-61525581D01*
X148805696Y-61398706D01*
X148855078Y-61235917D01*
X148855079Y-61235913D01*
X148935266Y-61085893D01*
X148935270Y-61085888D01*
X149043188Y-60954388D01*
X149174688Y-60846469D01*
X149174692Y-60846467D01*
X149174693Y-60846466D01*
X149324713Y-60766279D01*
X149324716Y-60766278D01*
X149487505Y-60716896D01*
X149656800Y-60700222D01*
X149826094Y-60716896D01*
G37*
G36*
X152366094Y-60716896D02*
G01*
X152486526Y-60753429D01*
X152528887Y-60766279D01*
X152678907Y-60846466D01*
X152678910Y-60846468D01*
X152678911Y-60846469D01*
X152810412Y-60954388D01*
X152918331Y-61085888D01*
X152918333Y-61085892D01*
X152918334Y-61085893D01*
X152998521Y-61235913D01*
X152998522Y-61235916D01*
X153047904Y-61398705D01*
X153060400Y-61525580D01*
X153060400Y-63134420D01*
X153047904Y-63261295D01*
X152998522Y-63424084D01*
X152998521Y-63424087D01*
X152918334Y-63574107D01*
X152918331Y-63574112D01*
X152810412Y-63705612D01*
X152678912Y-63813531D01*
X152678908Y-63813533D01*
X152678907Y-63813534D01*
X152528887Y-63893721D01*
X152528884Y-63893722D01*
X152366095Y-63943104D01*
X152196800Y-63959778D01*
X152027506Y-63943104D01*
X151864717Y-63893722D01*
X151864714Y-63893721D01*
X151714694Y-63813534D01*
X151714693Y-63813533D01*
X151714689Y-63813531D01*
X151583189Y-63705612D01*
X151475270Y-63574112D01*
X151475267Y-63574107D01*
X151395080Y-63424087D01*
X151395079Y-63424084D01*
X151345697Y-63261295D01*
X151333201Y-63134420D01*
X151333200Y-61525581D01*
X151345696Y-61398706D01*
X151395078Y-61235917D01*
X151395079Y-61235913D01*
X151475266Y-61085893D01*
X151475270Y-61085888D01*
X151583188Y-60954388D01*
X151714688Y-60846469D01*
X151714692Y-60846467D01*
X151714693Y-60846466D01*
X151864713Y-60766279D01*
X151864716Y-60766278D01*
X152027505Y-60716896D01*
X152196800Y-60700222D01*
X152366094Y-60716896D01*
G37*
G36*
X154906094Y-60716896D02*
G01*
X155026526Y-60753429D01*
X155068887Y-60766279D01*
X155218907Y-60846466D01*
X155218910Y-60846468D01*
X155218911Y-60846469D01*
X155350412Y-60954388D01*
X155458331Y-61085888D01*
X155458333Y-61085892D01*
X155458334Y-61085893D01*
X155538521Y-61235913D01*
X155538522Y-61235916D01*
X155587904Y-61398705D01*
X155600400Y-61525580D01*
X155600400Y-63134420D01*
X155587904Y-63261295D01*
X155538522Y-63424084D01*
X155538521Y-63424087D01*
X155458334Y-63574107D01*
X155458331Y-63574112D01*
X155350412Y-63705612D01*
X155218912Y-63813531D01*
X155218908Y-63813533D01*
X155218907Y-63813534D01*
X155068887Y-63893721D01*
X155068884Y-63893722D01*
X154906095Y-63943104D01*
X154736800Y-63959778D01*
X154567506Y-63943104D01*
X154404717Y-63893722D01*
X154404714Y-63893721D01*
X154254694Y-63813534D01*
X154254693Y-63813533D01*
X154254689Y-63813531D01*
X154123189Y-63705612D01*
X154015270Y-63574112D01*
X154015267Y-63574107D01*
X153935080Y-63424087D01*
X153935079Y-63424084D01*
X153885697Y-63261295D01*
X153873201Y-63134420D01*
X153873200Y-61525581D01*
X153885696Y-61398706D01*
X153935078Y-61235917D01*
X153935079Y-61235913D01*
X154015266Y-61085893D01*
X154015270Y-61085888D01*
X154123188Y-60954388D01*
X154254688Y-60846469D01*
X154254692Y-60846467D01*
X154254693Y-60846466D01*
X154404713Y-60766279D01*
X154404716Y-60766278D01*
X154567505Y-60716896D01*
X154736800Y-60700222D01*
X154906094Y-60716896D01*
G37*
G36*
X157446094Y-60716896D02*
G01*
X157566526Y-60753429D01*
X157608887Y-60766279D01*
X157758907Y-60846466D01*
X157758910Y-60846468D01*
X157758911Y-60846469D01*
X157890412Y-60954388D01*
X157998331Y-61085888D01*
X157998333Y-61085892D01*
X157998334Y-61085893D01*
X158078521Y-61235913D01*
X158078522Y-61235916D01*
X158127904Y-61398705D01*
X158140400Y-61525580D01*
X158140400Y-63134420D01*
X158127904Y-63261295D01*
X158078522Y-63424084D01*
X158078521Y-63424087D01*
X157998334Y-63574107D01*
X157998331Y-63574112D01*
X157890412Y-63705612D01*
X157758912Y-63813531D01*
X157758908Y-63813533D01*
X157758907Y-63813534D01*
X157608887Y-63893721D01*
X157608884Y-63893722D01*
X157446095Y-63943104D01*
X157276800Y-63959778D01*
X157107506Y-63943104D01*
X156944717Y-63893722D01*
X156944714Y-63893721D01*
X156794694Y-63813534D01*
X156794693Y-63813533D01*
X156794689Y-63813531D01*
X156663189Y-63705612D01*
X156555270Y-63574112D01*
X156555267Y-63574107D01*
X156475080Y-63424087D01*
X156475079Y-63424084D01*
X156425697Y-63261295D01*
X156413201Y-63134420D01*
X156413200Y-61525581D01*
X156425696Y-61398706D01*
X156475078Y-61235917D01*
X156475079Y-61235913D01*
X156555266Y-61085893D01*
X156555270Y-61085888D01*
X156663188Y-60954388D01*
X156794688Y-60846469D01*
X156794692Y-60846467D01*
X156794693Y-60846466D01*
X156944713Y-60766279D01*
X156944716Y-60766278D01*
X157107505Y-60716896D01*
X157276800Y-60700222D01*
X157446094Y-60716896D01*
G37*
G36*
X159986094Y-60716896D02*
G01*
X160106526Y-60753429D01*
X160148887Y-60766279D01*
X160298907Y-60846466D01*
X160298910Y-60846468D01*
X160298911Y-60846469D01*
X160430412Y-60954388D01*
X160538331Y-61085888D01*
X160538333Y-61085892D01*
X160538334Y-61085893D01*
X160618521Y-61235913D01*
X160618522Y-61235916D01*
X160667904Y-61398705D01*
X160680400Y-61525580D01*
X160680400Y-63134420D01*
X160667904Y-63261295D01*
X160618522Y-63424084D01*
X160618521Y-63424087D01*
X160538334Y-63574107D01*
X160538331Y-63574112D01*
X160430412Y-63705612D01*
X160298912Y-63813531D01*
X160298908Y-63813533D01*
X160298907Y-63813534D01*
X160148887Y-63893721D01*
X160148884Y-63893722D01*
X159986095Y-63943104D01*
X159816800Y-63959778D01*
X159647506Y-63943104D01*
X159484717Y-63893722D01*
X159484714Y-63893721D01*
X159334694Y-63813534D01*
X159334693Y-63813533D01*
X159334689Y-63813531D01*
X159203189Y-63705612D01*
X159095270Y-63574112D01*
X159095267Y-63574107D01*
X159015080Y-63424087D01*
X159015079Y-63424084D01*
X158965697Y-63261295D01*
X158953201Y-63134420D01*
X158953200Y-61525581D01*
X158965696Y-61398706D01*
X159015078Y-61235917D01*
X159015079Y-61235913D01*
X159095266Y-61085893D01*
X159095270Y-61085888D01*
X159203188Y-60954388D01*
X159334688Y-60846469D01*
X159334692Y-60846467D01*
X159334693Y-60846466D01*
X159484713Y-60766279D01*
X159484716Y-60766278D01*
X159647505Y-60716896D01*
X159816800Y-60700222D01*
X159986094Y-60716896D01*
G37*
G36*
X162526094Y-60716896D02*
G01*
X162646526Y-60753429D01*
X162688887Y-60766279D01*
X162838907Y-60846466D01*
X162838910Y-60846468D01*
X162838911Y-60846469D01*
X162970412Y-60954388D01*
X163078331Y-61085888D01*
X163078333Y-61085892D01*
X163078334Y-61085893D01*
X163158521Y-61235913D01*
X163158522Y-61235916D01*
X163207904Y-61398705D01*
X163220400Y-61525580D01*
X163220400Y-63134420D01*
X163207904Y-63261295D01*
X163158522Y-63424084D01*
X163158521Y-63424087D01*
X163078334Y-63574107D01*
X163078331Y-63574112D01*
X162970412Y-63705612D01*
X162838912Y-63813531D01*
X162838908Y-63813533D01*
X162838907Y-63813534D01*
X162688887Y-63893721D01*
X162688884Y-63893722D01*
X162526095Y-63943104D01*
X162356800Y-63959778D01*
X162187506Y-63943104D01*
X162024717Y-63893722D01*
X162024714Y-63893721D01*
X161874694Y-63813534D01*
X161874693Y-63813533D01*
X161874689Y-63813531D01*
X161743189Y-63705612D01*
X161635270Y-63574112D01*
X161635267Y-63574107D01*
X161555080Y-63424087D01*
X161555079Y-63424084D01*
X161505697Y-63261295D01*
X161493201Y-63134420D01*
X161493200Y-61525581D01*
X161505696Y-61398706D01*
X161555078Y-61235917D01*
X161555079Y-61235913D01*
X161635266Y-61085893D01*
X161635270Y-61085888D01*
X161743188Y-60954388D01*
X161874688Y-60846469D01*
X161874692Y-60846467D01*
X161874693Y-60846466D01*
X162024713Y-60766279D01*
X162024716Y-60766278D01*
X162187505Y-60716896D01*
X162356800Y-60700222D01*
X162526094Y-60716896D01*
G37*
M02*
