%FSLAX45Y45*%
G04 Gerber Fmt 4.5, Leading zero omitted, Abs format (unit mm)*
G04 Created by KiCad (PCBNEW (5.1.5-0-10_14)) date 2020-07-06 12:54:50*
%MOMM*%
%LPD*%
G04 APERTURE LIST*
%TA.AperFunction,Profile*%
%ADD10C,0.050000*%
%TD*%
%ADD11C,0.200000*%
%ADD12C,0.300000*%
G04 APERTURE END LIST*
D10*
X13738880Y-7020560D02*
X13738860Y-11461750D01*
X17195800Y-6753860D02*
X14005580Y-6753860D01*
X17462500Y-11460480D02*
X17462500Y-7020560D01*
X14005560Y-11728450D02*
X17195800Y-11727180D01*
X17195800Y-6753860D02*
G75*
G02X17462500Y-7020560I0J-266700D01*
G01*
X17462500Y-11460480D02*
G75*
G02X17195800Y-11727180I-266700J0D01*
G01*
X14005560Y-11728450D02*
G75*
G02X13738860Y-11461750I0J266700D01*
G01*
X13738880Y-7020560D02*
G75*
G02X14005580Y-6753860I266700J0D01*
G01*
X14165560Y-11461750D02*
G75*
G03X14165560Y-11461750I-160000J0D01*
G01*
X17355800Y-11460480D02*
G75*
G03X17355800Y-11460480I-160000J0D01*
G01*
X14165580Y-7020560D02*
G75*
G03X14165580Y-7020560I-160000J0D01*
G01*
X17355800Y-7020560D02*
G75*
G03X17355800Y-7020560I-160000J0D01*
G01*
D11*
X14546900Y-10576880D02*
X14586900Y-10616880D01*
X14586900Y-10576880D02*
X14546900Y-10616880D01*
X14737400Y-9169720D02*
X14777400Y-9209720D01*
X14777400Y-9169720D02*
X14737400Y-9209720D01*
X14767880Y-8773480D02*
X14807880Y-8813480D01*
X14807880Y-8773480D02*
X14767880Y-8813480D01*
X14832281Y-7877761D02*
X14872281Y-7917761D01*
X14872281Y-7877761D02*
X14832281Y-7917761D01*
X14966000Y-9748840D02*
X15006000Y-9788840D01*
X15006000Y-9748840D02*
X14966000Y-9788840D01*
X14981240Y-9195120D02*
X15021240Y-9235120D01*
X15021240Y-9195120D02*
X14981240Y-9235120D01*
X15204760Y-7864160D02*
X15244760Y-7904160D01*
X15244760Y-7864160D02*
X15204760Y-7904160D01*
X15291120Y-9748840D02*
X15331120Y-9788840D01*
X15331120Y-9748840D02*
X15291120Y-9788840D01*
X15301280Y-9301800D02*
X15341280Y-9341800D01*
X15341280Y-9301800D02*
X15301280Y-9341800D01*
X15316520Y-7960680D02*
X15356520Y-8000680D01*
X15356520Y-7960680D02*
X15316520Y-8000680D01*
X15555280Y-8809040D02*
X15595280Y-8849040D01*
X15595280Y-8809040D02*
X15555280Y-8849040D01*
X15585760Y-10338120D02*
X15625760Y-10378120D01*
X15625760Y-10338120D02*
X15585760Y-10378120D01*
X15636560Y-9372920D02*
X15676560Y-9412920D01*
X15676560Y-9372920D02*
X15636560Y-9412920D01*
X15646720Y-9748840D02*
X15686720Y-9788840D01*
X15686720Y-9748840D02*
X15646720Y-9788840D01*
X15656880Y-8123240D02*
X15696880Y-8163240D01*
X15696880Y-8123240D02*
X15656880Y-8163240D01*
X15687360Y-8880160D02*
X15727360Y-8920160D01*
X15727360Y-8880160D02*
X15687360Y-8920160D01*
X15778800Y-8453440D02*
X15818800Y-8493440D01*
X15818800Y-8453440D02*
X15778800Y-8493440D01*
X15874919Y-8503839D02*
X15914919Y-8543839D01*
X15914919Y-8503839D02*
X15874919Y-8543839D01*
X15938571Y-8857549D02*
X15978571Y-8897549D01*
X15978571Y-8857549D02*
X15938571Y-8897549D01*
X15992160Y-8026720D02*
X16032160Y-8066720D01*
X16032160Y-8026720D02*
X15992160Y-8066720D01*
X16525560Y-7549200D02*
X16565560Y-7589200D01*
X16565560Y-7549200D02*
X16525560Y-7589200D01*
X16697640Y-10356530D02*
X16737640Y-10396530D01*
X16737640Y-10356530D02*
X16697640Y-10396530D01*
X17073118Y-8793226D02*
G75*
G03X17073118Y-8793226I-39878J0D01*
G01*
X17073118Y-8993378D02*
G75*
G03X17073118Y-8993378I-39878J0D01*
G01*
X17073118Y-9193022D02*
G75*
G03X17073118Y-9193022I-39878J0D01*
G01*
X17073118Y-9393174D02*
G75*
G03X17073118Y-9393174I-39878J0D01*
G01*
X14258798Y-8793226D02*
G75*
G03X14258798Y-8793226I-39878J0D01*
G01*
X14258798Y-8993378D02*
G75*
G03X14258798Y-8993378I-39878J0D01*
G01*
X14258798Y-9193022D02*
G75*
G03X14258798Y-9193022I-39878J0D01*
G01*
X14258798Y-9393174D02*
G75*
G03X14258798Y-9393174I-39878J0D01*
G01*
X14122400Y-10368280D02*
X14122400Y-10469880D01*
X14071600Y-10419080D02*
X14173200Y-10419080D01*
X14376400Y-10368280D02*
X14376400Y-10469880D01*
X14325600Y-10419080D02*
X14427200Y-10419080D01*
X14965680Y-7401560D02*
X14965680Y-7503160D01*
X14914880Y-7452360D02*
X15016480Y-7452360D01*
X15219680Y-7401560D02*
X15219680Y-7503160D01*
X15168880Y-7452360D02*
X15270480Y-7452360D01*
X15473680Y-7401560D02*
X15473680Y-7503160D01*
X15422880Y-7452360D02*
X15524480Y-7452360D01*
X15727680Y-7401560D02*
X15727680Y-7503160D01*
X15676880Y-7452360D02*
X15778480Y-7452360D01*
X15981680Y-7401560D02*
X15981680Y-7503160D01*
X15930880Y-7452360D02*
X16032480Y-7452360D01*
X16235680Y-7401560D02*
X16235680Y-7503160D01*
X16184880Y-7452360D02*
X16286480Y-7452360D01*
X14965680Y-10982960D02*
X14965680Y-11084560D01*
X14914880Y-11033760D02*
X15016480Y-11033760D01*
X15219680Y-10982960D02*
X15219680Y-11084560D01*
X15168880Y-11033760D02*
X15270480Y-11033760D01*
X15473680Y-10982960D02*
X15473680Y-11084560D01*
X15422880Y-11033760D02*
X15524480Y-11033760D01*
X15727680Y-10982960D02*
X15727680Y-11084560D01*
X15676880Y-11033760D02*
X15778480Y-11033760D01*
X15981680Y-10982960D02*
X15981680Y-11084560D01*
X15930880Y-11033760D02*
X16032480Y-11033760D01*
X16235680Y-10982960D02*
X16235680Y-11084560D01*
X16184880Y-11033760D02*
X16286480Y-11033760D01*
X14122400Y-9972040D02*
X14122400Y-10073640D01*
X14071600Y-10022840D02*
X14173200Y-10022840D01*
X14376400Y-9972040D02*
X14376400Y-10073640D01*
X14325600Y-10022840D02*
X14427200Y-10022840D01*
X16266160Y-8067040D02*
X16266160Y-8168640D01*
X16215360Y-8117840D02*
X16316960Y-8117840D01*
X16266160Y-8321040D02*
X16266160Y-8422640D01*
X16215360Y-8371840D02*
X16316960Y-8371840D01*
X16266160Y-8575040D02*
X16266160Y-8676640D01*
X16215360Y-8625840D02*
X16316960Y-8625840D01*
X16266160Y-8829040D02*
X16266160Y-8930640D01*
X16215360Y-8879840D02*
X16316960Y-8879840D01*
X16266160Y-9083040D02*
X16266160Y-9184640D01*
X16215360Y-9133840D02*
X16316960Y-9133840D01*
X16266160Y-9337040D02*
X16266160Y-9438640D01*
X16215360Y-9387840D02*
X16316960Y-9387840D01*
X16266160Y-9591040D02*
X16266160Y-9692640D01*
X16215360Y-9641840D02*
X16316960Y-9641840D01*
X16266160Y-9845040D02*
X16266160Y-9946640D01*
X16215360Y-9895840D02*
X16316960Y-9895840D01*
X16266160Y-10099040D02*
X16266160Y-10200640D01*
X16215360Y-10149840D02*
X16316960Y-10149840D01*
X16266160Y-10353040D02*
X16266160Y-10454640D01*
X16215360Y-10403840D02*
X16316960Y-10403840D01*
X14336277Y-7844037D02*
X14336277Y-7759183D01*
X14251423Y-7759183D01*
X14251423Y-7844037D01*
X14336277Y-7844037D01*
X14336277Y-8194037D02*
X14336277Y-8109183D01*
X14251423Y-8109183D01*
X14251423Y-8194037D01*
X14336277Y-8194037D01*
X16976607Y-7844037D02*
X16976607Y-7759183D01*
X16891753Y-7759183D01*
X16891753Y-7844037D01*
X16976607Y-7844037D01*
X16976607Y-8194037D02*
X16976607Y-8109183D01*
X16891753Y-8109183D01*
X16891753Y-8194037D01*
X16976607Y-8194037D01*
X15021160Y-8217840D02*
X15121160Y-8117840D01*
X15021160Y-8017840D01*
X14921160Y-8117840D01*
X15021160Y-8217840D01*
X15021160Y-10503840D02*
X15121160Y-10403840D01*
X15021160Y-10303840D01*
X14921160Y-10403840D01*
X15021160Y-10503840D01*
D12*
X14022788Y-12196664D02*
X14022788Y-11896664D01*
X14094217Y-11896664D01*
X14137074Y-11910950D01*
X14165646Y-11939521D01*
X14179931Y-11968093D01*
X14194217Y-12025236D01*
X14194217Y-12068093D01*
X14179931Y-12125236D01*
X14165646Y-12153807D01*
X14137074Y-12182379D01*
X14094217Y-12196664D01*
X14022788Y-12196664D01*
X14322788Y-12196664D02*
X14322788Y-11996664D01*
X14322788Y-12053807D02*
X14337074Y-12025236D01*
X14351360Y-12010950D01*
X14379931Y-11996664D01*
X14408503Y-11996664D01*
X14508503Y-12196664D02*
X14508503Y-11996664D01*
X14508503Y-11896664D02*
X14494217Y-11910950D01*
X14508503Y-11925236D01*
X14522788Y-11910950D01*
X14508503Y-11896664D01*
X14508503Y-11925236D01*
X14694217Y-12196664D02*
X14665646Y-12182379D01*
X14651360Y-12153807D01*
X14651360Y-11896664D01*
X14851360Y-12196664D02*
X14822788Y-12182379D01*
X14808503Y-12153807D01*
X14808503Y-11896664D01*
X15194217Y-12196664D02*
X15194217Y-11896664D01*
X15294217Y-12110950D01*
X15394217Y-11896664D01*
X15394217Y-12196664D01*
X15665646Y-12196664D02*
X15665646Y-12039521D01*
X15651360Y-12010950D01*
X15622788Y-11996664D01*
X15565646Y-11996664D01*
X15537074Y-12010950D01*
X15665646Y-12182379D02*
X15637074Y-12196664D01*
X15565646Y-12196664D01*
X15537074Y-12182379D01*
X15522788Y-12153807D01*
X15522788Y-12125236D01*
X15537074Y-12096664D01*
X15565646Y-12082379D01*
X15637074Y-12082379D01*
X15665646Y-12068093D01*
X15808503Y-11996664D02*
X15808503Y-12296664D01*
X15808503Y-12010950D02*
X15837074Y-11996664D01*
X15894217Y-11996664D01*
X15922788Y-12010950D01*
X15937074Y-12025236D01*
X15951360Y-12053807D01*
X15951360Y-12139521D01*
X15937074Y-12168093D01*
X15922788Y-12182379D01*
X15894217Y-12196664D01*
X15837074Y-12196664D01*
X15808503Y-12182379D01*
X16079931Y-12168093D02*
X16094217Y-12182379D01*
X16079931Y-12196664D01*
X16065646Y-12182379D01*
X16079931Y-12168093D01*
X16079931Y-12196664D01*
X16079931Y-12010950D02*
X16094217Y-12025236D01*
X16079931Y-12039521D01*
X16065646Y-12025236D01*
X16079931Y-12010950D01*
X16079931Y-12039521D01*
X13696360Y-12670950D02*
X13736360Y-12710950D01*
X13736360Y-12670950D02*
X13696360Y-12710950D01*
X14079931Y-12526664D02*
X14108503Y-12526664D01*
X14137074Y-12540950D01*
X14151360Y-12555236D01*
X14165646Y-12583807D01*
X14179931Y-12640950D01*
X14179931Y-12712379D01*
X14165646Y-12769521D01*
X14151360Y-12798093D01*
X14137074Y-12812379D01*
X14108503Y-12826664D01*
X14079931Y-12826664D01*
X14051360Y-12812379D01*
X14037074Y-12798093D01*
X14022788Y-12769521D01*
X14008503Y-12712379D01*
X14008503Y-12640950D01*
X14022788Y-12583807D01*
X14037074Y-12555236D01*
X14051360Y-12540950D01*
X14079931Y-12526664D01*
X14308503Y-12798093D02*
X14322788Y-12812379D01*
X14308503Y-12826664D01*
X14294217Y-12812379D01*
X14308503Y-12798093D01*
X14308503Y-12826664D01*
X14579931Y-12626664D02*
X14579931Y-12826664D01*
X14508503Y-12512379D02*
X14437074Y-12726664D01*
X14622788Y-12726664D01*
X14794217Y-12526664D02*
X14822788Y-12526664D01*
X14851360Y-12540950D01*
X14865646Y-12555236D01*
X14879931Y-12583807D01*
X14894217Y-12640950D01*
X14894217Y-12712379D01*
X14879931Y-12769521D01*
X14865646Y-12798093D01*
X14851360Y-12812379D01*
X14822788Y-12826664D01*
X14794217Y-12826664D01*
X14765646Y-12812379D01*
X14751360Y-12798093D01*
X14737074Y-12769521D01*
X14722788Y-12712379D01*
X14722788Y-12640950D01*
X14737074Y-12583807D01*
X14751360Y-12555236D01*
X14765646Y-12540950D01*
X14794217Y-12526664D01*
X15022788Y-12826664D02*
X15022788Y-12626664D01*
X15022788Y-12655236D02*
X15037074Y-12640950D01*
X15065646Y-12626664D01*
X15108503Y-12626664D01*
X15137074Y-12640950D01*
X15151360Y-12669521D01*
X15151360Y-12826664D01*
X15151360Y-12669521D02*
X15165646Y-12640950D01*
X15194217Y-12626664D01*
X15237074Y-12626664D01*
X15265646Y-12640950D01*
X15279931Y-12669521D01*
X15279931Y-12826664D01*
X15422788Y-12826664D02*
X15422788Y-12626664D01*
X15422788Y-12655236D02*
X15437074Y-12640950D01*
X15465646Y-12626664D01*
X15508503Y-12626664D01*
X15537074Y-12640950D01*
X15551360Y-12669521D01*
X15551360Y-12826664D01*
X15551360Y-12669521D02*
X15565646Y-12640950D01*
X15594217Y-12626664D01*
X15637074Y-12626664D01*
X15665646Y-12640950D01*
X15679931Y-12669521D01*
X15679931Y-12826664D01*
X16265646Y-12512379D02*
X16008503Y-12898093D01*
X16651360Y-12526664D02*
X16679931Y-12526664D01*
X16708503Y-12540950D01*
X16722788Y-12555236D01*
X16737074Y-12583807D01*
X16751360Y-12640950D01*
X16751360Y-12712379D01*
X16737074Y-12769521D01*
X16722788Y-12798093D01*
X16708503Y-12812379D01*
X16679931Y-12826664D01*
X16651360Y-12826664D01*
X16622788Y-12812379D01*
X16608503Y-12798093D01*
X16594217Y-12769521D01*
X16579931Y-12712379D01*
X16579931Y-12640950D01*
X16594217Y-12583807D01*
X16608503Y-12555236D01*
X16622788Y-12540950D01*
X16651360Y-12526664D01*
X16879931Y-12798093D02*
X16894217Y-12812379D01*
X16879931Y-12826664D01*
X16865646Y-12812379D01*
X16879931Y-12798093D01*
X16879931Y-12826664D01*
X17079931Y-12526664D02*
X17108503Y-12526664D01*
X17137074Y-12540950D01*
X17151360Y-12555236D01*
X17165646Y-12583807D01*
X17179931Y-12640950D01*
X17179931Y-12712379D01*
X17165646Y-12769521D01*
X17151360Y-12798093D01*
X17137074Y-12812379D01*
X17108503Y-12826664D01*
X17079931Y-12826664D01*
X17051360Y-12812379D01*
X17037074Y-12798093D01*
X17022788Y-12769521D01*
X17008503Y-12712379D01*
X17008503Y-12640950D01*
X17022788Y-12583807D01*
X17037074Y-12555236D01*
X17051360Y-12540950D01*
X17079931Y-12526664D01*
X17465646Y-12826664D02*
X17294217Y-12826664D01*
X17379931Y-12826664D02*
X17379931Y-12526664D01*
X17351360Y-12569521D01*
X17322788Y-12598093D01*
X17294217Y-12612379D01*
X17722788Y-12526664D02*
X17665646Y-12526664D01*
X17637074Y-12540950D01*
X17622788Y-12555236D01*
X17594217Y-12598093D01*
X17579931Y-12655236D01*
X17579931Y-12769521D01*
X17594217Y-12798093D01*
X17608503Y-12812379D01*
X17637074Y-12826664D01*
X17694217Y-12826664D01*
X17722788Y-12812379D01*
X17737074Y-12798093D01*
X17751360Y-12769521D01*
X17751360Y-12698093D01*
X17737074Y-12669521D01*
X17722788Y-12655236D01*
X17694217Y-12640950D01*
X17637074Y-12640950D01*
X17608503Y-12655236D01*
X17594217Y-12669521D01*
X17579931Y-12698093D01*
X17865646Y-12526664D02*
X17865646Y-12583807D01*
X17979931Y-12526664D02*
X17979931Y-12583807D01*
X18422788Y-12940950D02*
X18408503Y-12926664D01*
X18379931Y-12883807D01*
X18365646Y-12855236D01*
X18351360Y-12812379D01*
X18337074Y-12740950D01*
X18337074Y-12683807D01*
X18351360Y-12612379D01*
X18365646Y-12569521D01*
X18379931Y-12540950D01*
X18408503Y-12498093D01*
X18422788Y-12483807D01*
X18522788Y-12555236D02*
X18537074Y-12540950D01*
X18565646Y-12526664D01*
X18637074Y-12526664D01*
X18665646Y-12540950D01*
X18679931Y-12555236D01*
X18694217Y-12583807D01*
X18694217Y-12612379D01*
X18679931Y-12655236D01*
X18508503Y-12826664D01*
X18694217Y-12826664D01*
X18808503Y-12555236D02*
X18822788Y-12540950D01*
X18851360Y-12526664D01*
X18922788Y-12526664D01*
X18951360Y-12540950D01*
X18965646Y-12555236D01*
X18979931Y-12583807D01*
X18979931Y-12612379D01*
X18965646Y-12655236D01*
X18794217Y-12826664D01*
X18979931Y-12826664D01*
X19337074Y-12826664D02*
X19337074Y-12526664D01*
X19465646Y-12826664D02*
X19465646Y-12669521D01*
X19451360Y-12640950D01*
X19422788Y-12626664D01*
X19379931Y-12626664D01*
X19351360Y-12640950D01*
X19337074Y-12655236D01*
X19651360Y-12826664D02*
X19622788Y-12812379D01*
X19608503Y-12798093D01*
X19594217Y-12769521D01*
X19594217Y-12683807D01*
X19608503Y-12655236D01*
X19622788Y-12640950D01*
X19651360Y-12626664D01*
X19694217Y-12626664D01*
X19722788Y-12640950D01*
X19737074Y-12655236D01*
X19751360Y-12683807D01*
X19751360Y-12769521D01*
X19737074Y-12798093D01*
X19722788Y-12812379D01*
X19694217Y-12826664D01*
X19651360Y-12826664D01*
X19922788Y-12826664D02*
X19894217Y-12812379D01*
X19879931Y-12783807D01*
X19879931Y-12526664D01*
X20151360Y-12812379D02*
X20122788Y-12826664D01*
X20065646Y-12826664D01*
X20037074Y-12812379D01*
X20022788Y-12783807D01*
X20022788Y-12669521D01*
X20037074Y-12640950D01*
X20065646Y-12626664D01*
X20122788Y-12626664D01*
X20151360Y-12640950D01*
X20165646Y-12669521D01*
X20165646Y-12698093D01*
X20022788Y-12726664D01*
X20279931Y-12812379D02*
X20308503Y-12826664D01*
X20365646Y-12826664D01*
X20394217Y-12812379D01*
X20408503Y-12783807D01*
X20408503Y-12769521D01*
X20394217Y-12740950D01*
X20365646Y-12726664D01*
X20322788Y-12726664D01*
X20294217Y-12712379D01*
X20279931Y-12683807D01*
X20279931Y-12669521D01*
X20294217Y-12640950D01*
X20322788Y-12626664D01*
X20365646Y-12626664D01*
X20394217Y-12640950D01*
X20508503Y-12940950D02*
X20522788Y-12926664D01*
X20551360Y-12883807D01*
X20565646Y-12855236D01*
X20579931Y-12812379D01*
X20594217Y-12740950D01*
X20594217Y-12683807D01*
X20579931Y-12612379D01*
X20565646Y-12569521D01*
X20551360Y-12540950D01*
X20522788Y-12498093D01*
X20508503Y-12483807D01*
X13736360Y-13086950D02*
G75*
G03X13736360Y-13086950I-39878J0D01*
G01*
X14079931Y-12922664D02*
X14108503Y-12922664D01*
X14137074Y-12936950D01*
X14151360Y-12951236D01*
X14165646Y-12979807D01*
X14179931Y-13036950D01*
X14179931Y-13108379D01*
X14165646Y-13165521D01*
X14151360Y-13194093D01*
X14137074Y-13208379D01*
X14108503Y-13222664D01*
X14079931Y-13222664D01*
X14051360Y-13208379D01*
X14037074Y-13194093D01*
X14022788Y-13165521D01*
X14008503Y-13108379D01*
X14008503Y-13036950D01*
X14022788Y-12979807D01*
X14037074Y-12951236D01*
X14051360Y-12936950D01*
X14079931Y-12922664D01*
X14308503Y-13194093D02*
X14322788Y-13208379D01*
X14308503Y-13222664D01*
X14294217Y-13208379D01*
X14308503Y-13194093D01*
X14308503Y-13222664D01*
X14494217Y-13051236D02*
X14465646Y-13036950D01*
X14451360Y-13022664D01*
X14437074Y-12994093D01*
X14437074Y-12979807D01*
X14451360Y-12951236D01*
X14465646Y-12936950D01*
X14494217Y-12922664D01*
X14551360Y-12922664D01*
X14579931Y-12936950D01*
X14594217Y-12951236D01*
X14608503Y-12979807D01*
X14608503Y-12994093D01*
X14594217Y-13022664D01*
X14579931Y-13036950D01*
X14551360Y-13051236D01*
X14494217Y-13051236D01*
X14465646Y-13065521D01*
X14451360Y-13079807D01*
X14437074Y-13108379D01*
X14437074Y-13165521D01*
X14451360Y-13194093D01*
X14465646Y-13208379D01*
X14494217Y-13222664D01*
X14551360Y-13222664D01*
X14579931Y-13208379D01*
X14594217Y-13194093D01*
X14608503Y-13165521D01*
X14608503Y-13108379D01*
X14594217Y-13079807D01*
X14579931Y-13065521D01*
X14551360Y-13051236D01*
X14794217Y-12922664D02*
X14822788Y-12922664D01*
X14851360Y-12936950D01*
X14865646Y-12951236D01*
X14879931Y-12979807D01*
X14894217Y-13036950D01*
X14894217Y-13108379D01*
X14879931Y-13165521D01*
X14865646Y-13194093D01*
X14851360Y-13208379D01*
X14822788Y-13222664D01*
X14794217Y-13222664D01*
X14765646Y-13208379D01*
X14751360Y-13194093D01*
X14737074Y-13165521D01*
X14722788Y-13108379D01*
X14722788Y-13036950D01*
X14737074Y-12979807D01*
X14751360Y-12951236D01*
X14765646Y-12936950D01*
X14794217Y-12922664D01*
X15022788Y-13222664D02*
X15022788Y-13022664D01*
X15022788Y-13051236D02*
X15037074Y-13036950D01*
X15065646Y-13022664D01*
X15108503Y-13022664D01*
X15137074Y-13036950D01*
X15151360Y-13065521D01*
X15151360Y-13222664D01*
X15151360Y-13065521D02*
X15165646Y-13036950D01*
X15194217Y-13022664D01*
X15237074Y-13022664D01*
X15265646Y-13036950D01*
X15279931Y-13065521D01*
X15279931Y-13222664D01*
X15422788Y-13222664D02*
X15422788Y-13022664D01*
X15422788Y-13051236D02*
X15437074Y-13036950D01*
X15465646Y-13022664D01*
X15508503Y-13022664D01*
X15537074Y-13036950D01*
X15551360Y-13065521D01*
X15551360Y-13222664D01*
X15551360Y-13065521D02*
X15565646Y-13036950D01*
X15594217Y-13022664D01*
X15637074Y-13022664D01*
X15665646Y-13036950D01*
X15679931Y-13065521D01*
X15679931Y-13222664D01*
X16265646Y-12908379D02*
X16008503Y-13294093D01*
X16651360Y-12922664D02*
X16679931Y-12922664D01*
X16708503Y-12936950D01*
X16722788Y-12951236D01*
X16737074Y-12979807D01*
X16751360Y-13036950D01*
X16751360Y-13108379D01*
X16737074Y-13165521D01*
X16722788Y-13194093D01*
X16708503Y-13208379D01*
X16679931Y-13222664D01*
X16651360Y-13222664D01*
X16622788Y-13208379D01*
X16608503Y-13194093D01*
X16594217Y-13165521D01*
X16579931Y-13108379D01*
X16579931Y-13036950D01*
X16594217Y-12979807D01*
X16608503Y-12951236D01*
X16622788Y-12936950D01*
X16651360Y-12922664D01*
X16879931Y-13194093D02*
X16894217Y-13208379D01*
X16879931Y-13222664D01*
X16865646Y-13208379D01*
X16879931Y-13194093D01*
X16879931Y-13222664D01*
X17079931Y-12922664D02*
X17108503Y-12922664D01*
X17137074Y-12936950D01*
X17151360Y-12951236D01*
X17165646Y-12979807D01*
X17179931Y-13036950D01*
X17179931Y-13108379D01*
X17165646Y-13165521D01*
X17151360Y-13194093D01*
X17137074Y-13208379D01*
X17108503Y-13222664D01*
X17079931Y-13222664D01*
X17051360Y-13208379D01*
X17037074Y-13194093D01*
X17022788Y-13165521D01*
X17008503Y-13108379D01*
X17008503Y-13036950D01*
X17022788Y-12979807D01*
X17037074Y-12951236D01*
X17051360Y-12936950D01*
X17079931Y-12922664D01*
X17279931Y-12922664D02*
X17465646Y-12922664D01*
X17365646Y-13036950D01*
X17408503Y-13036950D01*
X17437074Y-13051236D01*
X17451360Y-13065521D01*
X17465646Y-13094093D01*
X17465646Y-13165521D01*
X17451360Y-13194093D01*
X17437074Y-13208379D01*
X17408503Y-13222664D01*
X17322788Y-13222664D01*
X17294217Y-13208379D01*
X17279931Y-13194093D01*
X17751360Y-13222664D02*
X17579931Y-13222664D01*
X17665646Y-13222664D02*
X17665646Y-12922664D01*
X17637074Y-12965521D01*
X17608503Y-12994093D01*
X17579931Y-13008379D01*
X17865646Y-12922664D02*
X17865646Y-12979807D01*
X17979931Y-12922664D02*
X17979931Y-12979807D01*
X18422788Y-13336950D02*
X18408503Y-13322664D01*
X18379931Y-13279807D01*
X18365646Y-13251236D01*
X18351360Y-13208379D01*
X18337074Y-13136950D01*
X18337074Y-13079807D01*
X18351360Y-13008379D01*
X18365646Y-12965521D01*
X18379931Y-12936950D01*
X18408503Y-12894093D01*
X18422788Y-12879807D01*
X18579931Y-13051236D02*
X18551360Y-13036950D01*
X18537074Y-13022664D01*
X18522788Y-12994093D01*
X18522788Y-12979807D01*
X18537074Y-12951236D01*
X18551360Y-12936950D01*
X18579931Y-12922664D01*
X18637074Y-12922664D01*
X18665646Y-12936950D01*
X18679931Y-12951236D01*
X18694217Y-12979807D01*
X18694217Y-12994093D01*
X18679931Y-13022664D01*
X18665646Y-13036950D01*
X18637074Y-13051236D01*
X18579931Y-13051236D01*
X18551360Y-13065521D01*
X18537074Y-13079807D01*
X18522788Y-13108379D01*
X18522788Y-13165521D01*
X18537074Y-13194093D01*
X18551360Y-13208379D01*
X18579931Y-13222664D01*
X18637074Y-13222664D01*
X18665646Y-13208379D01*
X18679931Y-13194093D01*
X18694217Y-13165521D01*
X18694217Y-13108379D01*
X18679931Y-13079807D01*
X18665646Y-13065521D01*
X18637074Y-13051236D01*
X19051360Y-13222664D02*
X19051360Y-12922664D01*
X19179931Y-13222664D02*
X19179931Y-13065521D01*
X19165646Y-13036950D01*
X19137074Y-13022664D01*
X19094217Y-13022664D01*
X19065646Y-13036950D01*
X19051360Y-13051236D01*
X19365646Y-13222664D02*
X19337074Y-13208379D01*
X19322788Y-13194093D01*
X19308503Y-13165521D01*
X19308503Y-13079807D01*
X19322788Y-13051236D01*
X19337074Y-13036950D01*
X19365646Y-13022664D01*
X19408503Y-13022664D01*
X19437074Y-13036950D01*
X19451360Y-13051236D01*
X19465646Y-13079807D01*
X19465646Y-13165521D01*
X19451360Y-13194093D01*
X19437074Y-13208379D01*
X19408503Y-13222664D01*
X19365646Y-13222664D01*
X19637074Y-13222664D02*
X19608503Y-13208379D01*
X19594217Y-13179807D01*
X19594217Y-12922664D01*
X19865646Y-13208379D02*
X19837074Y-13222664D01*
X19779931Y-13222664D01*
X19751360Y-13208379D01*
X19737074Y-13179807D01*
X19737074Y-13065521D01*
X19751360Y-13036950D01*
X19779931Y-13022664D01*
X19837074Y-13022664D01*
X19865646Y-13036950D01*
X19879931Y-13065521D01*
X19879931Y-13094093D01*
X19737074Y-13122664D01*
X19994217Y-13208379D02*
X20022788Y-13222664D01*
X20079931Y-13222664D01*
X20108503Y-13208379D01*
X20122788Y-13179807D01*
X20122788Y-13165521D01*
X20108503Y-13136950D01*
X20079931Y-13122664D01*
X20037074Y-13122664D01*
X20008503Y-13108379D01*
X19994217Y-13079807D01*
X19994217Y-13065521D01*
X20008503Y-13036950D01*
X20037074Y-13022664D01*
X20079931Y-13022664D01*
X20108503Y-13036950D01*
X20222788Y-13336950D02*
X20237074Y-13322664D01*
X20265646Y-13279807D01*
X20279931Y-13251236D01*
X20294217Y-13208379D01*
X20308503Y-13136950D01*
X20308503Y-13079807D01*
X20294217Y-13008379D01*
X20279931Y-12965521D01*
X20265646Y-12936950D01*
X20237074Y-12894093D01*
X20222788Y-12879807D01*
X13685560Y-13432150D02*
X13685560Y-13533750D01*
X13634760Y-13482950D02*
X13736360Y-13482950D01*
X14179931Y-13618664D02*
X14008503Y-13618664D01*
X14094217Y-13618664D02*
X14094217Y-13318664D01*
X14065646Y-13361521D01*
X14037074Y-13390093D01*
X14008503Y-13404379D01*
X14308503Y-13590093D02*
X14322788Y-13604379D01*
X14308503Y-13618664D01*
X14294217Y-13604379D01*
X14308503Y-13590093D01*
X14308503Y-13618664D01*
X14508503Y-13318664D02*
X14537074Y-13318664D01*
X14565646Y-13332950D01*
X14579931Y-13347236D01*
X14594217Y-13375807D01*
X14608503Y-13432950D01*
X14608503Y-13504379D01*
X14594217Y-13561521D01*
X14579931Y-13590093D01*
X14565646Y-13604379D01*
X14537074Y-13618664D01*
X14508503Y-13618664D01*
X14479931Y-13604379D01*
X14465646Y-13590093D01*
X14451360Y-13561521D01*
X14437074Y-13504379D01*
X14437074Y-13432950D01*
X14451360Y-13375807D01*
X14465646Y-13347236D01*
X14479931Y-13332950D01*
X14508503Y-13318664D01*
X14722788Y-13347236D02*
X14737074Y-13332950D01*
X14765646Y-13318664D01*
X14837074Y-13318664D01*
X14865646Y-13332950D01*
X14879931Y-13347236D01*
X14894217Y-13375807D01*
X14894217Y-13404379D01*
X14879931Y-13447236D01*
X14708503Y-13618664D01*
X14894217Y-13618664D01*
X15022788Y-13618664D02*
X15022788Y-13418664D01*
X15022788Y-13447236D02*
X15037074Y-13432950D01*
X15065646Y-13418664D01*
X15108503Y-13418664D01*
X15137074Y-13432950D01*
X15151360Y-13461521D01*
X15151360Y-13618664D01*
X15151360Y-13461521D02*
X15165646Y-13432950D01*
X15194217Y-13418664D01*
X15237074Y-13418664D01*
X15265646Y-13432950D01*
X15279931Y-13461521D01*
X15279931Y-13618664D01*
X15422788Y-13618664D02*
X15422788Y-13418664D01*
X15422788Y-13447236D02*
X15437074Y-13432950D01*
X15465646Y-13418664D01*
X15508503Y-13418664D01*
X15537074Y-13432950D01*
X15551360Y-13461521D01*
X15551360Y-13618664D01*
X15551360Y-13461521D02*
X15565646Y-13432950D01*
X15594217Y-13418664D01*
X15637074Y-13418664D01*
X15665646Y-13432950D01*
X15679931Y-13461521D01*
X15679931Y-13618664D01*
X16265646Y-13304379D02*
X16008503Y-13690093D01*
X16651360Y-13318664D02*
X16679931Y-13318664D01*
X16708503Y-13332950D01*
X16722788Y-13347236D01*
X16737074Y-13375807D01*
X16751360Y-13432950D01*
X16751360Y-13504379D01*
X16737074Y-13561521D01*
X16722788Y-13590093D01*
X16708503Y-13604379D01*
X16679931Y-13618664D01*
X16651360Y-13618664D01*
X16622788Y-13604379D01*
X16608503Y-13590093D01*
X16594217Y-13561521D01*
X16579931Y-13504379D01*
X16579931Y-13432950D01*
X16594217Y-13375807D01*
X16608503Y-13347236D01*
X16622788Y-13332950D01*
X16651360Y-13318664D01*
X16879931Y-13590093D02*
X16894217Y-13604379D01*
X16879931Y-13618664D01*
X16865646Y-13604379D01*
X16879931Y-13590093D01*
X16879931Y-13618664D01*
X17079931Y-13318664D02*
X17108503Y-13318664D01*
X17137074Y-13332950D01*
X17151360Y-13347236D01*
X17165646Y-13375807D01*
X17179931Y-13432950D01*
X17179931Y-13504379D01*
X17165646Y-13561521D01*
X17151360Y-13590093D01*
X17137074Y-13604379D01*
X17108503Y-13618664D01*
X17079931Y-13618664D01*
X17051360Y-13604379D01*
X17037074Y-13590093D01*
X17022788Y-13561521D01*
X17008503Y-13504379D01*
X17008503Y-13432950D01*
X17022788Y-13375807D01*
X17037074Y-13347236D01*
X17051360Y-13332950D01*
X17079931Y-13318664D01*
X17437074Y-13418664D02*
X17437074Y-13618664D01*
X17365646Y-13304379D02*
X17294217Y-13518664D01*
X17479931Y-13518664D01*
X17651360Y-13318664D02*
X17679931Y-13318664D01*
X17708503Y-13332950D01*
X17722788Y-13347236D01*
X17737074Y-13375807D01*
X17751360Y-13432950D01*
X17751360Y-13504379D01*
X17737074Y-13561521D01*
X17722788Y-13590093D01*
X17708503Y-13604379D01*
X17679931Y-13618664D01*
X17651360Y-13618664D01*
X17622788Y-13604379D01*
X17608503Y-13590093D01*
X17594217Y-13561521D01*
X17579931Y-13504379D01*
X17579931Y-13432950D01*
X17594217Y-13375807D01*
X17608503Y-13347236D01*
X17622788Y-13332950D01*
X17651360Y-13318664D01*
X17865646Y-13318664D02*
X17865646Y-13375807D01*
X17979931Y-13318664D02*
X17979931Y-13375807D01*
X18422788Y-13732950D02*
X18408503Y-13718664D01*
X18379931Y-13675807D01*
X18365646Y-13647236D01*
X18351360Y-13604379D01*
X18337074Y-13532950D01*
X18337074Y-13475807D01*
X18351360Y-13404379D01*
X18365646Y-13361521D01*
X18379931Y-13332950D01*
X18408503Y-13290093D01*
X18422788Y-13275807D01*
X18522788Y-13347236D02*
X18537074Y-13332950D01*
X18565646Y-13318664D01*
X18637074Y-13318664D01*
X18665646Y-13332950D01*
X18679931Y-13347236D01*
X18694217Y-13375807D01*
X18694217Y-13404379D01*
X18679931Y-13447236D01*
X18508503Y-13618664D01*
X18694217Y-13618664D01*
X18951360Y-13318664D02*
X18894217Y-13318664D01*
X18865646Y-13332950D01*
X18851360Y-13347236D01*
X18822788Y-13390093D01*
X18808503Y-13447236D01*
X18808503Y-13561521D01*
X18822788Y-13590093D01*
X18837074Y-13604379D01*
X18865646Y-13618664D01*
X18922788Y-13618664D01*
X18951360Y-13604379D01*
X18965646Y-13590093D01*
X18979931Y-13561521D01*
X18979931Y-13490093D01*
X18965646Y-13461521D01*
X18951360Y-13447236D01*
X18922788Y-13432950D01*
X18865646Y-13432950D01*
X18837074Y-13447236D01*
X18822788Y-13461521D01*
X18808503Y-13490093D01*
X19337074Y-13618664D02*
X19337074Y-13318664D01*
X19465646Y-13618664D02*
X19465646Y-13461521D01*
X19451360Y-13432950D01*
X19422788Y-13418664D01*
X19379931Y-13418664D01*
X19351360Y-13432950D01*
X19337074Y-13447236D01*
X19651360Y-13618664D02*
X19622788Y-13604379D01*
X19608503Y-13590093D01*
X19594217Y-13561521D01*
X19594217Y-13475807D01*
X19608503Y-13447236D01*
X19622788Y-13432950D01*
X19651360Y-13418664D01*
X19694217Y-13418664D01*
X19722788Y-13432950D01*
X19737074Y-13447236D01*
X19751360Y-13475807D01*
X19751360Y-13561521D01*
X19737074Y-13590093D01*
X19722788Y-13604379D01*
X19694217Y-13618664D01*
X19651360Y-13618664D01*
X19922788Y-13618664D02*
X19894217Y-13604379D01*
X19879931Y-13575807D01*
X19879931Y-13318664D01*
X20151360Y-13604379D02*
X20122788Y-13618664D01*
X20065646Y-13618664D01*
X20037074Y-13604379D01*
X20022788Y-13575807D01*
X20022788Y-13461521D01*
X20037074Y-13432950D01*
X20065646Y-13418664D01*
X20122788Y-13418664D01*
X20151360Y-13432950D01*
X20165646Y-13461521D01*
X20165646Y-13490093D01*
X20022788Y-13518664D01*
X20279931Y-13604379D02*
X20308503Y-13618664D01*
X20365646Y-13618664D01*
X20394217Y-13604379D01*
X20408503Y-13575807D01*
X20408503Y-13561521D01*
X20394217Y-13532950D01*
X20365646Y-13518664D01*
X20322788Y-13518664D01*
X20294217Y-13504379D01*
X20279931Y-13475807D01*
X20279931Y-13461521D01*
X20294217Y-13432950D01*
X20322788Y-13418664D01*
X20365646Y-13418664D01*
X20394217Y-13432950D01*
X20508503Y-13732950D02*
X20522788Y-13718664D01*
X20551360Y-13675807D01*
X20565646Y-13647236D01*
X20579931Y-13604379D01*
X20594217Y-13532950D01*
X20594217Y-13475807D01*
X20579931Y-13404379D01*
X20565646Y-13361521D01*
X20551360Y-13332950D01*
X20522788Y-13290093D01*
X20508503Y-13275807D01*
X13718787Y-13921377D02*
X13718787Y-13836523D01*
X13633933Y-13836523D01*
X13633933Y-13921377D01*
X13718787Y-13921377D01*
X14179931Y-14014664D02*
X14008503Y-14014664D01*
X14094217Y-14014664D02*
X14094217Y-13714664D01*
X14065646Y-13757521D01*
X14037074Y-13786093D01*
X14008503Y-13800379D01*
X14308503Y-13986093D02*
X14322788Y-14000379D01*
X14308503Y-14014664D01*
X14294217Y-14000379D01*
X14308503Y-13986093D01*
X14308503Y-14014664D01*
X14437074Y-13743236D02*
X14451360Y-13728950D01*
X14479931Y-13714664D01*
X14551360Y-13714664D01*
X14579931Y-13728950D01*
X14594217Y-13743236D01*
X14608503Y-13771807D01*
X14608503Y-13800379D01*
X14594217Y-13843236D01*
X14422788Y-14014664D01*
X14608503Y-14014664D01*
X14794217Y-13714664D02*
X14822788Y-13714664D01*
X14851360Y-13728950D01*
X14865646Y-13743236D01*
X14879931Y-13771807D01*
X14894217Y-13828950D01*
X14894217Y-13900379D01*
X14879931Y-13957521D01*
X14865646Y-13986093D01*
X14851360Y-14000379D01*
X14822788Y-14014664D01*
X14794217Y-14014664D01*
X14765646Y-14000379D01*
X14751360Y-13986093D01*
X14737074Y-13957521D01*
X14722788Y-13900379D01*
X14722788Y-13828950D01*
X14737074Y-13771807D01*
X14751360Y-13743236D01*
X14765646Y-13728950D01*
X14794217Y-13714664D01*
X15022788Y-14014664D02*
X15022788Y-13814664D01*
X15022788Y-13843236D02*
X15037074Y-13828950D01*
X15065646Y-13814664D01*
X15108503Y-13814664D01*
X15137074Y-13828950D01*
X15151360Y-13857521D01*
X15151360Y-14014664D01*
X15151360Y-13857521D02*
X15165646Y-13828950D01*
X15194217Y-13814664D01*
X15237074Y-13814664D01*
X15265646Y-13828950D01*
X15279931Y-13857521D01*
X15279931Y-14014664D01*
X15422788Y-14014664D02*
X15422788Y-13814664D01*
X15422788Y-13843236D02*
X15437074Y-13828950D01*
X15465646Y-13814664D01*
X15508503Y-13814664D01*
X15537074Y-13828950D01*
X15551360Y-13857521D01*
X15551360Y-14014664D01*
X15551360Y-13857521D02*
X15565646Y-13828950D01*
X15594217Y-13814664D01*
X15637074Y-13814664D01*
X15665646Y-13828950D01*
X15679931Y-13857521D01*
X15679931Y-14014664D01*
X16265646Y-13700379D02*
X16008503Y-14086093D01*
X16651360Y-13714664D02*
X16679931Y-13714664D01*
X16708503Y-13728950D01*
X16722788Y-13743236D01*
X16737074Y-13771807D01*
X16751360Y-13828950D01*
X16751360Y-13900379D01*
X16737074Y-13957521D01*
X16722788Y-13986093D01*
X16708503Y-14000379D01*
X16679931Y-14014664D01*
X16651360Y-14014664D01*
X16622788Y-14000379D01*
X16608503Y-13986093D01*
X16594217Y-13957521D01*
X16579931Y-13900379D01*
X16579931Y-13828950D01*
X16594217Y-13771807D01*
X16608503Y-13743236D01*
X16622788Y-13728950D01*
X16651360Y-13714664D01*
X16879931Y-13986093D02*
X16894217Y-14000379D01*
X16879931Y-14014664D01*
X16865646Y-14000379D01*
X16879931Y-13986093D01*
X16879931Y-14014664D01*
X17079931Y-13714664D02*
X17108503Y-13714664D01*
X17137074Y-13728950D01*
X17151360Y-13743236D01*
X17165646Y-13771807D01*
X17179931Y-13828950D01*
X17179931Y-13900379D01*
X17165646Y-13957521D01*
X17151360Y-13986093D01*
X17137074Y-14000379D01*
X17108503Y-14014664D01*
X17079931Y-14014664D01*
X17051360Y-14000379D01*
X17037074Y-13986093D01*
X17022788Y-13957521D01*
X17008503Y-13900379D01*
X17008503Y-13828950D01*
X17022788Y-13771807D01*
X17037074Y-13743236D01*
X17051360Y-13728950D01*
X17079931Y-13714664D01*
X17437074Y-13814664D02*
X17437074Y-14014664D01*
X17365646Y-13700379D02*
X17294217Y-13914664D01*
X17479931Y-13914664D01*
X17565646Y-13714664D02*
X17765646Y-13714664D01*
X17637074Y-14014664D01*
X17865646Y-13714664D02*
X17865646Y-13771807D01*
X17979931Y-13714664D02*
X17979931Y-13771807D01*
X18422788Y-14128950D02*
X18408503Y-14114664D01*
X18379931Y-14071807D01*
X18365646Y-14043236D01*
X18351360Y-14000379D01*
X18337074Y-13928950D01*
X18337074Y-13871807D01*
X18351360Y-13800379D01*
X18365646Y-13757521D01*
X18379931Y-13728950D01*
X18408503Y-13686093D01*
X18422788Y-13671807D01*
X18665646Y-13814664D02*
X18665646Y-14014664D01*
X18594217Y-13700379D02*
X18522788Y-13914664D01*
X18708503Y-13914664D01*
X19051360Y-14014664D02*
X19051360Y-13714664D01*
X19179931Y-14014664D02*
X19179931Y-13857521D01*
X19165646Y-13828950D01*
X19137074Y-13814664D01*
X19094217Y-13814664D01*
X19065646Y-13828950D01*
X19051360Y-13843236D01*
X19365646Y-14014664D02*
X19337074Y-14000379D01*
X19322788Y-13986093D01*
X19308503Y-13957521D01*
X19308503Y-13871807D01*
X19322788Y-13843236D01*
X19337074Y-13828950D01*
X19365646Y-13814664D01*
X19408503Y-13814664D01*
X19437074Y-13828950D01*
X19451360Y-13843236D01*
X19465646Y-13871807D01*
X19465646Y-13957521D01*
X19451360Y-13986093D01*
X19437074Y-14000379D01*
X19408503Y-14014664D01*
X19365646Y-14014664D01*
X19637074Y-14014664D02*
X19608503Y-14000379D01*
X19594217Y-13971807D01*
X19594217Y-13714664D01*
X19865646Y-14000379D02*
X19837074Y-14014664D01*
X19779931Y-14014664D01*
X19751360Y-14000379D01*
X19737074Y-13971807D01*
X19737074Y-13857521D01*
X19751360Y-13828950D01*
X19779931Y-13814664D01*
X19837074Y-13814664D01*
X19865646Y-13828950D01*
X19879931Y-13857521D01*
X19879931Y-13886093D01*
X19737074Y-13914664D01*
X19994217Y-14000379D02*
X20022788Y-14014664D01*
X20079931Y-14014664D01*
X20108503Y-14000379D01*
X20122788Y-13971807D01*
X20122788Y-13957521D01*
X20108503Y-13928950D01*
X20079931Y-13914664D01*
X20037074Y-13914664D01*
X20008503Y-13900379D01*
X19994217Y-13871807D01*
X19994217Y-13857521D01*
X20008503Y-13828950D01*
X20037074Y-13814664D01*
X20079931Y-13814664D01*
X20108503Y-13828950D01*
X20222788Y-14128950D02*
X20237074Y-14114664D01*
X20265646Y-14071807D01*
X20279931Y-14043236D01*
X20294217Y-14000379D01*
X20308503Y-13928950D01*
X20308503Y-13871807D01*
X20294217Y-13800379D01*
X20279931Y-13757521D01*
X20265646Y-13728950D01*
X20237074Y-13686093D01*
X20222788Y-13671807D01*
X13636360Y-14374950D02*
X13736360Y-14274950D01*
X13636360Y-14174950D01*
X13536360Y-14274950D01*
X13636360Y-14374950D01*
X14008503Y-14139236D02*
X14022788Y-14124950D01*
X14051360Y-14110664D01*
X14122788Y-14110664D01*
X14151360Y-14124950D01*
X14165646Y-14139236D01*
X14179931Y-14167807D01*
X14179931Y-14196379D01*
X14165646Y-14239236D01*
X13994217Y-14410664D01*
X14179931Y-14410664D01*
X14308503Y-14382093D02*
X14322788Y-14396379D01*
X14308503Y-14410664D01*
X14294217Y-14396379D01*
X14308503Y-14382093D01*
X14308503Y-14410664D01*
X14508503Y-14110664D02*
X14537074Y-14110664D01*
X14565646Y-14124950D01*
X14579931Y-14139236D01*
X14594217Y-14167807D01*
X14608503Y-14224950D01*
X14608503Y-14296379D01*
X14594217Y-14353521D01*
X14579931Y-14382093D01*
X14565646Y-14396379D01*
X14537074Y-14410664D01*
X14508503Y-14410664D01*
X14479931Y-14396379D01*
X14465646Y-14382093D01*
X14451360Y-14353521D01*
X14437074Y-14296379D01*
X14437074Y-14224950D01*
X14451360Y-14167807D01*
X14465646Y-14139236D01*
X14479931Y-14124950D01*
X14508503Y-14110664D01*
X14794217Y-14110664D02*
X14822788Y-14110664D01*
X14851360Y-14124950D01*
X14865646Y-14139236D01*
X14879931Y-14167807D01*
X14894217Y-14224950D01*
X14894217Y-14296379D01*
X14879931Y-14353521D01*
X14865646Y-14382093D01*
X14851360Y-14396379D01*
X14822788Y-14410664D01*
X14794217Y-14410664D01*
X14765646Y-14396379D01*
X14751360Y-14382093D01*
X14737074Y-14353521D01*
X14722788Y-14296379D01*
X14722788Y-14224950D01*
X14737074Y-14167807D01*
X14751360Y-14139236D01*
X14765646Y-14124950D01*
X14794217Y-14110664D01*
X15022788Y-14410664D02*
X15022788Y-14210664D01*
X15022788Y-14239236D02*
X15037074Y-14224950D01*
X15065646Y-14210664D01*
X15108503Y-14210664D01*
X15137074Y-14224950D01*
X15151360Y-14253521D01*
X15151360Y-14410664D01*
X15151360Y-14253521D02*
X15165646Y-14224950D01*
X15194217Y-14210664D01*
X15237074Y-14210664D01*
X15265646Y-14224950D01*
X15279931Y-14253521D01*
X15279931Y-14410664D01*
X15422788Y-14410664D02*
X15422788Y-14210664D01*
X15422788Y-14239236D02*
X15437074Y-14224950D01*
X15465646Y-14210664D01*
X15508503Y-14210664D01*
X15537074Y-14224950D01*
X15551360Y-14253521D01*
X15551360Y-14410664D01*
X15551360Y-14253521D02*
X15565646Y-14224950D01*
X15594217Y-14210664D01*
X15637074Y-14210664D01*
X15665646Y-14224950D01*
X15679931Y-14253521D01*
X15679931Y-14410664D01*
X16265646Y-14096379D02*
X16008503Y-14482093D01*
X16651360Y-14110664D02*
X16679931Y-14110664D01*
X16708503Y-14124950D01*
X16722788Y-14139236D01*
X16737074Y-14167807D01*
X16751360Y-14224950D01*
X16751360Y-14296379D01*
X16737074Y-14353521D01*
X16722788Y-14382093D01*
X16708503Y-14396379D01*
X16679931Y-14410664D01*
X16651360Y-14410664D01*
X16622788Y-14396379D01*
X16608503Y-14382093D01*
X16594217Y-14353521D01*
X16579931Y-14296379D01*
X16579931Y-14224950D01*
X16594217Y-14167807D01*
X16608503Y-14139236D01*
X16622788Y-14124950D01*
X16651360Y-14110664D01*
X16879931Y-14382093D02*
X16894217Y-14396379D01*
X16879931Y-14410664D01*
X16865646Y-14396379D01*
X16879931Y-14382093D01*
X16879931Y-14410664D01*
X17079931Y-14110664D02*
X17108503Y-14110664D01*
X17137074Y-14124950D01*
X17151360Y-14139236D01*
X17165646Y-14167807D01*
X17179931Y-14224950D01*
X17179931Y-14296379D01*
X17165646Y-14353521D01*
X17151360Y-14382093D01*
X17137074Y-14396379D01*
X17108503Y-14410664D01*
X17079931Y-14410664D01*
X17051360Y-14396379D01*
X17037074Y-14382093D01*
X17022788Y-14353521D01*
X17008503Y-14296379D01*
X17008503Y-14224950D01*
X17022788Y-14167807D01*
X17037074Y-14139236D01*
X17051360Y-14124950D01*
X17079931Y-14110664D01*
X17279931Y-14110664D02*
X17479931Y-14110664D01*
X17351360Y-14410664D01*
X17608503Y-14410664D02*
X17665646Y-14410664D01*
X17694217Y-14396379D01*
X17708503Y-14382093D01*
X17737074Y-14339236D01*
X17751360Y-14282093D01*
X17751360Y-14167807D01*
X17737074Y-14139236D01*
X17722788Y-14124950D01*
X17694217Y-14110664D01*
X17637074Y-14110664D01*
X17608503Y-14124950D01*
X17594217Y-14139236D01*
X17579931Y-14167807D01*
X17579931Y-14239236D01*
X17594217Y-14267807D01*
X17608503Y-14282093D01*
X17637074Y-14296379D01*
X17694217Y-14296379D01*
X17722788Y-14282093D01*
X17737074Y-14267807D01*
X17751360Y-14239236D01*
X17865646Y-14110664D02*
X17865646Y-14167807D01*
X17979931Y-14110664D02*
X17979931Y-14167807D01*
X18422788Y-14524950D02*
X18408503Y-14510664D01*
X18379931Y-14467807D01*
X18365646Y-14439236D01*
X18351360Y-14396379D01*
X18337074Y-14324950D01*
X18337074Y-14267807D01*
X18351360Y-14196379D01*
X18365646Y-14153521D01*
X18379931Y-14124950D01*
X18408503Y-14082093D01*
X18422788Y-14067807D01*
X18522788Y-14139236D02*
X18537074Y-14124950D01*
X18565646Y-14110664D01*
X18637074Y-14110664D01*
X18665646Y-14124950D01*
X18679931Y-14139236D01*
X18694217Y-14167807D01*
X18694217Y-14196379D01*
X18679931Y-14239236D01*
X18508503Y-14410664D01*
X18694217Y-14410664D01*
X19051360Y-14410664D02*
X19051360Y-14110664D01*
X19179931Y-14410664D02*
X19179931Y-14253521D01*
X19165646Y-14224950D01*
X19137074Y-14210664D01*
X19094217Y-14210664D01*
X19065646Y-14224950D01*
X19051360Y-14239236D01*
X19365646Y-14410664D02*
X19337074Y-14396379D01*
X19322788Y-14382093D01*
X19308503Y-14353521D01*
X19308503Y-14267807D01*
X19322788Y-14239236D01*
X19337074Y-14224950D01*
X19365646Y-14210664D01*
X19408503Y-14210664D01*
X19437074Y-14224950D01*
X19451360Y-14239236D01*
X19465646Y-14267807D01*
X19465646Y-14353521D01*
X19451360Y-14382093D01*
X19437074Y-14396379D01*
X19408503Y-14410664D01*
X19365646Y-14410664D01*
X19637074Y-14410664D02*
X19608503Y-14396379D01*
X19594217Y-14367807D01*
X19594217Y-14110664D01*
X19865646Y-14396379D02*
X19837074Y-14410664D01*
X19779931Y-14410664D01*
X19751360Y-14396379D01*
X19737074Y-14367807D01*
X19737074Y-14253521D01*
X19751360Y-14224950D01*
X19779931Y-14210664D01*
X19837074Y-14210664D01*
X19865646Y-14224950D01*
X19879931Y-14253521D01*
X19879931Y-14282093D01*
X19737074Y-14310664D01*
X19994217Y-14396379D02*
X20022788Y-14410664D01*
X20079931Y-14410664D01*
X20108503Y-14396379D01*
X20122788Y-14367807D01*
X20122788Y-14353521D01*
X20108503Y-14324950D01*
X20079931Y-14310664D01*
X20037074Y-14310664D01*
X20008503Y-14296379D01*
X19994217Y-14267807D01*
X19994217Y-14253521D01*
X20008503Y-14224950D01*
X20037074Y-14210664D01*
X20079931Y-14210664D01*
X20108503Y-14224950D01*
X20222788Y-14524950D02*
X20237074Y-14510664D01*
X20265646Y-14467807D01*
X20279931Y-14439236D01*
X20294217Y-14396379D01*
X20308503Y-14324950D01*
X20308503Y-14267807D01*
X20294217Y-14196379D01*
X20279931Y-14153521D01*
X20265646Y-14124950D01*
X20237074Y-14082093D01*
X20222788Y-14067807D01*
M02*
