%FSLAX45Y45*%
G04 Gerber Fmt 4.5, Leading zero omitted, Abs format (unit mm)*
G04 Created by KiCad (PCBNEW (5.1.5-0-10_14)) date 2020-07-07 18:08:07*
%MOMM*%
%LPD*%
G04 APERTURE LIST*
%TA.AperFunction,Profile*%
%ADD10C,0.050000*%
%TD*%
%ADD11C,0.200000*%
%ADD12C,0.300000*%
G04 APERTURE END LIST*
D10*
X17567004Y-11079339D02*
G75*
G02X17210000Y-11446000I-362004J-4661D01*
G01*
X14009661Y-11446004D02*
G75*
G02X13643000Y-11089000I-4661J362004D01*
G01*
X17200339Y-5449996D02*
G75*
G02X17567000Y-5807000I4661J-362004D01*
G01*
X13642996Y-5816661D02*
G75*
G02X14000000Y-5450000I362004J4661D01*
G01*
X13643000Y-11089000D02*
X13642996Y-5816661D01*
X17567004Y-11079339D02*
X17567000Y-5807000D01*
X17200339Y-5449996D02*
X14000000Y-5450000D01*
X17365000Y-7884000D02*
G75*
G03X17365000Y-7884000I-160000J0D01*
G01*
X14165000Y-7884000D02*
G75*
G03X14165000Y-7884000I-160000J0D01*
G01*
X14009661Y-11446004D02*
X17210000Y-11446000D01*
X14165000Y-11084000D02*
G75*
G03X14165000Y-11084000I-160000J0D01*
G01*
X17365000Y-11084000D02*
G75*
G03X17365000Y-11084000I-160000J0D01*
G01*
X14165000Y-5812000D02*
G75*
G03X14165000Y-5812000I-160000J0D01*
G01*
X17365000Y-5812000D02*
G75*
G03X17365000Y-5812000I-160000J0D01*
G01*
D11*
D12*
X13926894Y-11914249D02*
X13926894Y-11614249D01*
X13998323Y-11614249D01*
X14041180Y-11628534D01*
X14069751Y-11657106D01*
X14084037Y-11685677D01*
X14098323Y-11742820D01*
X14098323Y-11785677D01*
X14084037Y-11842820D01*
X14069751Y-11871392D01*
X14041180Y-11899963D01*
X13998323Y-11914249D01*
X13926894Y-11914249D01*
X14226894Y-11914249D02*
X14226894Y-11714249D01*
X14226894Y-11771392D02*
X14241180Y-11742820D01*
X14255465Y-11728534D01*
X14284037Y-11714249D01*
X14312608Y-11714249D01*
X14412608Y-11914249D02*
X14412608Y-11714249D01*
X14412608Y-11614249D02*
X14398323Y-11628534D01*
X14412608Y-11642820D01*
X14426894Y-11628534D01*
X14412608Y-11614249D01*
X14412608Y-11642820D01*
X14598323Y-11914249D02*
X14569751Y-11899963D01*
X14555465Y-11871392D01*
X14555465Y-11614249D01*
X14755465Y-11914249D02*
X14726894Y-11899963D01*
X14712608Y-11871392D01*
X14712608Y-11614249D01*
X15098323Y-11914249D02*
X15098323Y-11614249D01*
X15198323Y-11828534D01*
X15298323Y-11614249D01*
X15298323Y-11914249D01*
X15569751Y-11914249D02*
X15569751Y-11757106D01*
X15555465Y-11728534D01*
X15526894Y-11714249D01*
X15469751Y-11714249D01*
X15441180Y-11728534D01*
X15569751Y-11899963D02*
X15541180Y-11914249D01*
X15469751Y-11914249D01*
X15441180Y-11899963D01*
X15426894Y-11871392D01*
X15426894Y-11842820D01*
X15441180Y-11814249D01*
X15469751Y-11799963D01*
X15541180Y-11799963D01*
X15569751Y-11785677D01*
X15712608Y-11714249D02*
X15712608Y-12014249D01*
X15712608Y-11728534D02*
X15741180Y-11714249D01*
X15798323Y-11714249D01*
X15826894Y-11728534D01*
X15841180Y-11742820D01*
X15855465Y-11771392D01*
X15855465Y-11857106D01*
X15841180Y-11885677D01*
X15826894Y-11899963D01*
X15798323Y-11914249D01*
X15741180Y-11914249D01*
X15712608Y-11899963D01*
X15984037Y-11885677D02*
X15998323Y-11899963D01*
X15984037Y-11914249D01*
X15969751Y-11899963D01*
X15984037Y-11885677D01*
X15984037Y-11914249D01*
X15984037Y-11728534D02*
X15998323Y-11742820D01*
X15984037Y-11757106D01*
X15969751Y-11742820D01*
X15984037Y-11728534D01*
X15984037Y-11757106D01*
M02*
