G04 #@! TF.GenerationSoftware,KiCad,Pcbnew,(5.1.5-0-10_14)*
G04 #@! TF.CreationDate,2020-07-07T09:51:05+02:00*
G04 #@! TF.ProjectId,smartcitizen-adc-4-ch,736d6172-7463-4697-9469-7a656e2d6164,rev?*
G04 #@! TF.SameCoordinates,Original*
G04 #@! TF.FileFunction,Legend,Top*
G04 #@! TF.FilePolarity,Positive*
%FSLAX46Y46*%
G04 Gerber Fmt 4.6, Leading zero omitted, Abs format (unit mm)*
G04 Created by KiCad (PCBNEW (5.1.5-0-10_14)) date 2020-07-07 09:51:05*
%MOMM*%
%LPD*%
G04 APERTURE LIST*
%ADD10C,0.120000*%
%ADD11C,0.127000*%
%ADD12C,0.152400*%
%ADD13C,0.150000*%
%ADD14C,0.066040*%
G04 APERTURE END LIST*
D10*
X145801428Y-108579904D02*
X146068095Y-109379904D01*
X146334761Y-108579904D01*
X147058571Y-109303714D02*
X147020475Y-109341809D01*
X146906190Y-109379904D01*
X146829999Y-109379904D01*
X146715714Y-109341809D01*
X146639523Y-109265619D01*
X146601428Y-109189428D01*
X146563333Y-109037047D01*
X146563333Y-108922761D01*
X146601428Y-108770380D01*
X146639523Y-108694190D01*
X146715714Y-108618000D01*
X146829999Y-108579904D01*
X146906190Y-108579904D01*
X147020475Y-108618000D01*
X147058571Y-108656095D01*
X147858571Y-109303714D02*
X147820475Y-109341809D01*
X147706190Y-109379904D01*
X147629999Y-109379904D01*
X147515714Y-109341809D01*
X147439523Y-109265619D01*
X147401428Y-109189428D01*
X147363333Y-109037047D01*
X147363333Y-108922761D01*
X147401428Y-108770380D01*
X147439523Y-108694190D01*
X147515714Y-108618000D01*
X147629999Y-108579904D01*
X147706190Y-108579904D01*
X147820475Y-108618000D01*
X147858571Y-108656095D01*
X149269500Y-71907333D02*
X149231404Y-71983524D01*
X149231404Y-72097810D01*
X149269500Y-72212095D01*
X149345690Y-72288286D01*
X149421880Y-72326381D01*
X149574261Y-72364476D01*
X149688547Y-72364476D01*
X149840928Y-72326381D01*
X149917119Y-72288286D01*
X149993309Y-72212095D01*
X150031404Y-72097810D01*
X150031404Y-72021619D01*
X149993309Y-71907333D01*
X149955214Y-71869238D01*
X149688547Y-71869238D01*
X149688547Y-72021619D01*
X150031404Y-71526381D02*
X149231404Y-71526381D01*
X150031404Y-71069238D01*
X149231404Y-71069238D01*
X150031404Y-70688286D02*
X149231404Y-70688286D01*
X149231404Y-70497810D01*
X149269500Y-70383524D01*
X149345690Y-70307333D01*
X149421880Y-70269238D01*
X149574261Y-70231143D01*
X149688547Y-70231143D01*
X149840928Y-70269238D01*
X149917119Y-70307333D01*
X149993309Y-70383524D01*
X150031404Y-70497810D01*
X150031404Y-70688286D01*
X152342833Y-72364476D02*
X152342833Y-71983524D01*
X152571404Y-72440667D02*
X151771404Y-72174000D01*
X152571404Y-71907333D01*
X151771404Y-71716857D02*
X151771404Y-71221619D01*
X152076166Y-71488286D01*
X152076166Y-71374000D01*
X152114261Y-71297809D01*
X152152357Y-71259714D01*
X152228547Y-71221619D01*
X152419023Y-71221619D01*
X152495214Y-71259714D01*
X152533309Y-71297809D01*
X152571404Y-71374000D01*
X152571404Y-71602571D01*
X152533309Y-71678762D01*
X152495214Y-71716857D01*
X154349500Y-71907333D02*
X154311404Y-71983524D01*
X154311404Y-72097810D01*
X154349500Y-72212095D01*
X154425690Y-72288286D01*
X154501880Y-72326381D01*
X154654261Y-72364476D01*
X154768547Y-72364476D01*
X154920928Y-72326381D01*
X154997119Y-72288286D01*
X155073309Y-72212095D01*
X155111404Y-72097810D01*
X155111404Y-72021619D01*
X155073309Y-71907333D01*
X155035214Y-71869238D01*
X154768547Y-71869238D01*
X154768547Y-72021619D01*
X155111404Y-71526381D02*
X154311404Y-71526381D01*
X155111404Y-71069238D01*
X154311404Y-71069238D01*
X155111404Y-70688286D02*
X154311404Y-70688286D01*
X154311404Y-70497810D01*
X154349500Y-70383524D01*
X154425690Y-70307333D01*
X154501880Y-70269238D01*
X154654261Y-70231143D01*
X154768547Y-70231143D01*
X154920928Y-70269238D01*
X154997119Y-70307333D01*
X155073309Y-70383524D01*
X155111404Y-70497810D01*
X155111404Y-70688286D01*
X157422833Y-72364476D02*
X157422833Y-71983524D01*
X157651404Y-72440667D02*
X156851404Y-72174000D01*
X157651404Y-71907333D01*
X156927595Y-71678762D02*
X156889500Y-71640667D01*
X156851404Y-71564476D01*
X156851404Y-71374000D01*
X156889500Y-71297809D01*
X156927595Y-71259714D01*
X157003785Y-71221619D01*
X157079976Y-71221619D01*
X157194261Y-71259714D01*
X157651404Y-71716857D01*
X157651404Y-71221619D01*
X159429500Y-71907333D02*
X159391404Y-71983524D01*
X159391404Y-72097810D01*
X159429500Y-72212095D01*
X159505690Y-72288286D01*
X159581880Y-72326381D01*
X159734261Y-72364476D01*
X159848547Y-72364476D01*
X160000928Y-72326381D01*
X160077119Y-72288286D01*
X160153309Y-72212095D01*
X160191404Y-72097810D01*
X160191404Y-72021619D01*
X160153309Y-71907333D01*
X160115214Y-71869238D01*
X159848547Y-71869238D01*
X159848547Y-72021619D01*
X160191404Y-71526381D02*
X159391404Y-71526381D01*
X160191404Y-71069238D01*
X159391404Y-71069238D01*
X160191404Y-70688286D02*
X159391404Y-70688286D01*
X159391404Y-70497810D01*
X159429500Y-70383524D01*
X159505690Y-70307333D01*
X159581880Y-70269238D01*
X159734261Y-70231143D01*
X159848547Y-70231143D01*
X160000928Y-70269238D01*
X160077119Y-70307333D01*
X160153309Y-70383524D01*
X160191404Y-70497810D01*
X160191404Y-70688286D01*
X161931404Y-72440666D02*
X162731404Y-72174000D01*
X161931404Y-71907333D01*
X162655214Y-71183523D02*
X162693309Y-71221619D01*
X162731404Y-71335904D01*
X162731404Y-71412095D01*
X162693309Y-71526380D01*
X162617119Y-71602571D01*
X162540928Y-71640666D01*
X162388547Y-71678761D01*
X162274261Y-71678761D01*
X162121880Y-71640666D01*
X162045690Y-71602571D01*
X161969500Y-71526380D01*
X161931404Y-71412095D01*
X161931404Y-71335904D01*
X161969500Y-71221619D01*
X162007595Y-71183523D01*
X162655214Y-70383523D02*
X162693309Y-70421619D01*
X162731404Y-70535904D01*
X162731404Y-70612095D01*
X162693309Y-70726380D01*
X162617119Y-70802571D01*
X162540928Y-70840666D01*
X162388547Y-70878761D01*
X162274261Y-70878761D01*
X162121880Y-70840666D01*
X162045690Y-70802571D01*
X161969500Y-70726380D01*
X161931404Y-70612095D01*
X161931404Y-70535904D01*
X161969500Y-70421619D01*
X162007595Y-70383523D01*
X161896000Y-66169123D02*
X161857904Y-66245314D01*
X161857904Y-66359600D01*
X161896000Y-66473885D01*
X161972190Y-66550076D01*
X162048380Y-66588171D01*
X162200761Y-66626266D01*
X162315047Y-66626266D01*
X162467428Y-66588171D01*
X162543619Y-66550076D01*
X162619809Y-66473885D01*
X162657904Y-66359600D01*
X162657904Y-66283409D01*
X162619809Y-66169123D01*
X162581714Y-66131028D01*
X162315047Y-66131028D01*
X162315047Y-66283409D01*
X162657904Y-65788171D02*
X161857904Y-65788171D01*
X162657904Y-65331028D01*
X161857904Y-65331028D01*
X162657904Y-64950076D02*
X161857904Y-64950076D01*
X161857904Y-64759600D01*
X161896000Y-64645314D01*
X161972190Y-64569123D01*
X162048380Y-64531028D01*
X162200761Y-64492933D01*
X162315047Y-64492933D01*
X162467428Y-64531028D01*
X162543619Y-64569123D01*
X162619809Y-64645314D01*
X162657904Y-64759600D01*
X162657904Y-64950076D01*
X159940133Y-65635790D02*
X159940133Y-65254838D01*
X160168704Y-65711981D02*
X159368704Y-65445314D01*
X160168704Y-65178647D01*
X160168704Y-64492933D02*
X160168704Y-64950076D01*
X160168704Y-64721504D02*
X159368704Y-64721504D01*
X159482990Y-64797695D01*
X159559180Y-64873885D01*
X159597276Y-64950076D01*
X156917600Y-66169123D02*
X156879504Y-66245314D01*
X156879504Y-66359600D01*
X156917600Y-66473885D01*
X156993790Y-66550076D01*
X157069980Y-66588171D01*
X157222361Y-66626266D01*
X157336647Y-66626266D01*
X157489028Y-66588171D01*
X157565219Y-66550076D01*
X157641409Y-66473885D01*
X157679504Y-66359600D01*
X157679504Y-66283409D01*
X157641409Y-66169123D01*
X157603314Y-66131028D01*
X157336647Y-66131028D01*
X157336647Y-66283409D01*
X157679504Y-65788171D02*
X156879504Y-65788171D01*
X157679504Y-65331028D01*
X156879504Y-65331028D01*
X157679504Y-64950076D02*
X156879504Y-64950076D01*
X156879504Y-64759600D01*
X156917600Y-64645314D01*
X156993790Y-64569123D01*
X157069980Y-64531028D01*
X157222361Y-64492933D01*
X157336647Y-64492933D01*
X157489028Y-64531028D01*
X157565219Y-64569123D01*
X157641409Y-64645314D01*
X157679504Y-64759600D01*
X157679504Y-64950076D01*
X154961733Y-65635790D02*
X154961733Y-65254838D01*
X155190304Y-65711981D02*
X154390304Y-65445314D01*
X155190304Y-65178647D01*
X154390304Y-64759600D02*
X154390304Y-64683409D01*
X154428400Y-64607219D01*
X154466495Y-64569123D01*
X154542685Y-64531028D01*
X154695066Y-64492933D01*
X154885542Y-64492933D01*
X155037923Y-64531028D01*
X155114114Y-64569123D01*
X155152209Y-64607219D01*
X155190304Y-64683409D01*
X155190304Y-64759600D01*
X155152209Y-64835790D01*
X155114114Y-64873885D01*
X155037923Y-64911981D01*
X154885542Y-64950076D01*
X154695066Y-64950076D01*
X154542685Y-64911981D01*
X154466495Y-64873885D01*
X154428400Y-64835790D01*
X154390304Y-64759600D01*
X151939200Y-66169123D02*
X151901104Y-66245314D01*
X151901104Y-66359600D01*
X151939200Y-66473885D01*
X152015390Y-66550076D01*
X152091580Y-66588171D01*
X152243961Y-66626266D01*
X152358247Y-66626266D01*
X152510628Y-66588171D01*
X152586819Y-66550076D01*
X152663009Y-66473885D01*
X152701104Y-66359600D01*
X152701104Y-66283409D01*
X152663009Y-66169123D01*
X152624914Y-66131028D01*
X152358247Y-66131028D01*
X152358247Y-66283409D01*
X152701104Y-65788171D02*
X151901104Y-65788171D01*
X152701104Y-65331028D01*
X151901104Y-65331028D01*
X152701104Y-64950076D02*
X151901104Y-64950076D01*
X151901104Y-64759600D01*
X151939200Y-64645314D01*
X152015390Y-64569123D01*
X152091580Y-64531028D01*
X152243961Y-64492933D01*
X152358247Y-64492933D01*
X152510628Y-64531028D01*
X152586819Y-64569123D01*
X152663009Y-64645314D01*
X152701104Y-64759600D01*
X152701104Y-64950076D01*
X171704142Y-101650856D02*
X171780333Y-101650856D01*
X171856523Y-101688952D01*
X171894619Y-101727047D01*
X171932714Y-101803237D01*
X171970809Y-101955618D01*
X171970809Y-102146094D01*
X171932714Y-102298475D01*
X171894619Y-102374666D01*
X171856523Y-102412761D01*
X171780333Y-102450856D01*
X171704142Y-102450856D01*
X171627952Y-102412761D01*
X171589857Y-102374666D01*
X171551761Y-102298475D01*
X171513666Y-102146094D01*
X171513666Y-101955618D01*
X171551761Y-101803237D01*
X171589857Y-101727047D01*
X171627952Y-101688952D01*
X171704142Y-101650856D01*
X172237476Y-102450856D02*
X172656523Y-101917523D01*
X172237476Y-101917523D02*
X172656523Y-102450856D01*
X173304142Y-101917523D02*
X173304142Y-102450856D01*
X173113666Y-101612761D02*
X172923190Y-102184190D01*
X173418428Y-102184190D01*
X173989857Y-102031809D02*
X174104142Y-102069904D01*
X174142238Y-102107999D01*
X174180333Y-102184190D01*
X174180333Y-102298475D01*
X174142238Y-102374666D01*
X174104142Y-102412761D01*
X174027952Y-102450856D01*
X173723190Y-102450856D01*
X173723190Y-101650856D01*
X173989857Y-101650856D01*
X174066047Y-101688952D01*
X174104142Y-101727047D01*
X174142238Y-101803237D01*
X174142238Y-101879428D01*
X174104142Y-101955618D01*
X174066047Y-101993713D01*
X173989857Y-102031809D01*
X173723190Y-102031809D01*
X171761285Y-98558404D02*
X171837476Y-98558404D01*
X171913666Y-98596500D01*
X171951761Y-98634595D01*
X171989857Y-98710785D01*
X172027952Y-98863166D01*
X172027952Y-99053642D01*
X171989857Y-99206023D01*
X171951761Y-99282214D01*
X171913666Y-99320309D01*
X171837476Y-99358404D01*
X171761285Y-99358404D01*
X171685095Y-99320309D01*
X171647000Y-99282214D01*
X171608904Y-99206023D01*
X171570809Y-99053642D01*
X171570809Y-98863166D01*
X171608904Y-98710785D01*
X171647000Y-98634595D01*
X171685095Y-98596500D01*
X171761285Y-98558404D01*
X172294619Y-99358404D02*
X172713666Y-98825071D01*
X172294619Y-98825071D02*
X172713666Y-99358404D01*
X173361285Y-98825071D02*
X173361285Y-99358404D01*
X173170809Y-98520309D02*
X172980333Y-99091738D01*
X173475571Y-99091738D01*
X173742238Y-99129833D02*
X174123190Y-99129833D01*
X173666047Y-99358404D02*
X173932714Y-98558404D01*
X174199380Y-99358404D01*
X166241904Y-105820476D02*
X165441904Y-105820476D01*
X165441904Y-105630000D01*
X165480000Y-105515714D01*
X165556190Y-105439523D01*
X165632380Y-105401428D01*
X165784761Y-105363333D01*
X165899047Y-105363333D01*
X166051428Y-105401428D01*
X166127619Y-105439523D01*
X166203809Y-105515714D01*
X166241904Y-105630000D01*
X166241904Y-105820476D01*
X166203809Y-104715714D02*
X166241904Y-104791904D01*
X166241904Y-104944285D01*
X166203809Y-105020476D01*
X166127619Y-105058571D01*
X165822857Y-105058571D01*
X165746666Y-105020476D01*
X165708571Y-104944285D01*
X165708571Y-104791904D01*
X165746666Y-104715714D01*
X165822857Y-104677619D01*
X165899047Y-104677619D01*
X165975238Y-105058571D01*
X165708571Y-104449047D02*
X165708571Y-104144285D01*
X166241904Y-104334761D02*
X165556190Y-104334761D01*
X165480000Y-104296666D01*
X165441904Y-104220476D01*
X165441904Y-104144285D01*
X166241904Y-103534761D02*
X165822857Y-103534761D01*
X165746666Y-103572857D01*
X165708571Y-103649047D01*
X165708571Y-103801428D01*
X165746666Y-103877619D01*
X166203809Y-103534761D02*
X166241904Y-103610952D01*
X166241904Y-103801428D01*
X166203809Y-103877619D01*
X166127619Y-103915714D01*
X166051428Y-103915714D01*
X165975238Y-103877619D01*
X165937142Y-103801428D01*
X165937142Y-103610952D01*
X165899047Y-103534761D01*
X165708571Y-102810952D02*
X166241904Y-102810952D01*
X165708571Y-103153809D02*
X166127619Y-103153809D01*
X166203809Y-103115714D01*
X166241904Y-103039523D01*
X166241904Y-102925238D01*
X166203809Y-102849047D01*
X166165714Y-102810952D01*
X166241904Y-102315714D02*
X166203809Y-102391904D01*
X166127619Y-102430000D01*
X165441904Y-102430000D01*
X165708571Y-102125238D02*
X165708571Y-101820476D01*
X165441904Y-102010952D02*
X166127619Y-102010952D01*
X166203809Y-101972857D01*
X166241904Y-101896666D01*
X166241904Y-101820476D01*
X166013333Y-100982380D02*
X166013333Y-100601428D01*
X166241904Y-101058571D02*
X165441904Y-100791904D01*
X166241904Y-100525238D01*
X166241904Y-100258571D02*
X165441904Y-100258571D01*
X165441904Y-100068095D01*
X165480000Y-99953809D01*
X165556190Y-99877619D01*
X165632380Y-99839523D01*
X165784761Y-99801428D01*
X165899047Y-99801428D01*
X166051428Y-99839523D01*
X166127619Y-99877619D01*
X166203809Y-99953809D01*
X166241904Y-100068095D01*
X166241904Y-100258571D01*
X166241904Y-99458571D02*
X165441904Y-99458571D01*
X165441904Y-99268095D01*
X165480000Y-99153809D01*
X165556190Y-99077619D01*
X165632380Y-99039523D01*
X165784761Y-99001428D01*
X165899047Y-99001428D01*
X166051428Y-99039523D01*
X166127619Y-99077619D01*
X166203809Y-99153809D01*
X166241904Y-99268095D01*
X166241904Y-99458571D01*
X166241904Y-98201428D02*
X165860952Y-98468095D01*
X166241904Y-98658571D02*
X165441904Y-98658571D01*
X165441904Y-98353809D01*
X165480000Y-98277619D01*
X165518095Y-98239523D01*
X165594285Y-98201428D01*
X165708571Y-98201428D01*
X165784761Y-98239523D01*
X165822857Y-98277619D01*
X165860952Y-98353809D01*
X165860952Y-98658571D01*
X166761904Y-103153809D02*
X166761904Y-103077619D01*
X166800000Y-103001428D01*
X166838095Y-102963333D01*
X166914285Y-102925238D01*
X167066666Y-102887142D01*
X167257142Y-102887142D01*
X167409523Y-102925238D01*
X167485714Y-102963333D01*
X167523809Y-103001428D01*
X167561904Y-103077619D01*
X167561904Y-103153809D01*
X167523809Y-103230000D01*
X167485714Y-103268095D01*
X167409523Y-103306190D01*
X167257142Y-103344285D01*
X167066666Y-103344285D01*
X166914285Y-103306190D01*
X166838095Y-103268095D01*
X166800000Y-103230000D01*
X166761904Y-103153809D01*
X167561904Y-102620476D02*
X167028571Y-102201428D01*
X167028571Y-102620476D02*
X167561904Y-102201428D01*
X167028571Y-101553809D02*
X167561904Y-101553809D01*
X166723809Y-101744285D02*
X167295238Y-101934761D01*
X167295238Y-101439523D01*
X167104761Y-101020476D02*
X167066666Y-101096666D01*
X167028571Y-101134761D01*
X166952380Y-101172857D01*
X166914285Y-101172857D01*
X166838095Y-101134761D01*
X166800000Y-101096666D01*
X166761904Y-101020476D01*
X166761904Y-100868095D01*
X166800000Y-100791904D01*
X166838095Y-100753809D01*
X166914285Y-100715714D01*
X166952380Y-100715714D01*
X167028571Y-100753809D01*
X167066666Y-100791904D01*
X167104761Y-100868095D01*
X167104761Y-101020476D01*
X167142857Y-101096666D01*
X167180952Y-101134761D01*
X167257142Y-101172857D01*
X167409523Y-101172857D01*
X167485714Y-101134761D01*
X167523809Y-101096666D01*
X167561904Y-101020476D01*
X167561904Y-100868095D01*
X167523809Y-100791904D01*
X167485714Y-100753809D01*
X167409523Y-100715714D01*
X167257142Y-100715714D01*
X167180952Y-100753809D01*
X167142857Y-100791904D01*
X167104761Y-100868095D01*
X171723190Y-104857604D02*
X171799380Y-104857604D01*
X171875571Y-104895700D01*
X171913666Y-104933795D01*
X171951761Y-105009985D01*
X171989857Y-105162366D01*
X171989857Y-105352842D01*
X171951761Y-105505223D01*
X171913666Y-105581414D01*
X171875571Y-105619509D01*
X171799380Y-105657604D01*
X171723190Y-105657604D01*
X171647000Y-105619509D01*
X171608904Y-105581414D01*
X171570809Y-105505223D01*
X171532714Y-105352842D01*
X171532714Y-105162366D01*
X171570809Y-105009985D01*
X171608904Y-104933795D01*
X171647000Y-104895700D01*
X171723190Y-104857604D01*
X172256523Y-105657604D02*
X172675571Y-105124271D01*
X172256523Y-105124271D02*
X172675571Y-105657604D01*
X173323190Y-105124271D02*
X173323190Y-105657604D01*
X173132714Y-104819509D02*
X172942238Y-105390938D01*
X173437476Y-105390938D01*
X173780333Y-105657604D02*
X173932714Y-105657604D01*
X174008904Y-105619509D01*
X174047000Y-105581414D01*
X174123190Y-105467128D01*
X174161285Y-105314747D01*
X174161285Y-105009985D01*
X174123190Y-104933795D01*
X174085095Y-104895700D01*
X174008904Y-104857604D01*
X173856523Y-104857604D01*
X173780333Y-104895700D01*
X173742238Y-104933795D01*
X173704142Y-105009985D01*
X173704142Y-105200461D01*
X173742238Y-105276652D01*
X173780333Y-105314747D01*
X173856523Y-105352842D01*
X174008904Y-105352842D01*
X174085095Y-105314747D01*
X174123190Y-105276652D01*
X174161285Y-105200461D01*
X159740904Y-77920833D02*
X160121857Y-77920833D01*
X159664714Y-78149404D02*
X159931380Y-77349404D01*
X160198047Y-78149404D01*
X160464714Y-78149404D02*
X160464714Y-77349404D01*
X160655190Y-77349404D01*
X160769476Y-77387500D01*
X160845666Y-77463690D01*
X160883761Y-77539880D01*
X160921857Y-77692261D01*
X160921857Y-77806547D01*
X160883761Y-77958928D01*
X160845666Y-78035119D01*
X160769476Y-78111309D01*
X160655190Y-78149404D01*
X160464714Y-78149404D01*
X161226619Y-78111309D02*
X161340904Y-78149404D01*
X161531380Y-78149404D01*
X161607571Y-78111309D01*
X161645666Y-78073214D01*
X161683761Y-77997023D01*
X161683761Y-77920833D01*
X161645666Y-77844642D01*
X161607571Y-77806547D01*
X161531380Y-77768452D01*
X161379000Y-77730357D01*
X161302809Y-77692261D01*
X161264714Y-77654166D01*
X161226619Y-77577976D01*
X161226619Y-77501785D01*
X161264714Y-77425595D01*
X161302809Y-77387500D01*
X161379000Y-77349404D01*
X161569476Y-77349404D01*
X161683761Y-77387500D01*
X162445666Y-78149404D02*
X161988523Y-78149404D01*
X162217095Y-78149404D02*
X162217095Y-77349404D01*
X162140904Y-77463690D01*
X162064714Y-77539880D01*
X161988523Y-77577976D01*
X162712333Y-78149404D02*
X163131380Y-77616071D01*
X162712333Y-77616071D02*
X163131380Y-78149404D01*
X163855190Y-78149404D02*
X163398047Y-78149404D01*
X163626619Y-78149404D02*
X163626619Y-77349404D01*
X163550428Y-77463690D01*
X163474238Y-77539880D01*
X163398047Y-77577976D01*
X164579000Y-77349404D02*
X164198047Y-77349404D01*
X164159952Y-77730357D01*
X164198047Y-77692261D01*
X164274238Y-77654166D01*
X164464714Y-77654166D01*
X164540904Y-77692261D01*
X164579000Y-77730357D01*
X164617095Y-77806547D01*
X164617095Y-77997023D01*
X164579000Y-78073214D01*
X164540904Y-78111309D01*
X164464714Y-78149404D01*
X164274238Y-78149404D01*
X164198047Y-78111309D01*
X164159952Y-78073214D01*
X167904761Y-63142857D02*
X168171428Y-63142857D01*
X168285714Y-63561904D02*
X167904761Y-63561904D01*
X167904761Y-62761904D01*
X168285714Y-62761904D01*
X168552380Y-62761904D02*
X169085714Y-63561904D01*
X169085714Y-62761904D02*
X168552380Y-63561904D01*
X169276190Y-62761904D02*
X169733333Y-62761904D01*
X169504761Y-63561904D02*
X169504761Y-62761904D01*
X170000000Y-63257142D02*
X170609523Y-63257142D01*
X170876190Y-62761904D02*
X171142857Y-63561904D01*
X171409523Y-62761904D01*
X144195238Y-72757142D02*
X143928571Y-72757142D01*
X143814285Y-72338095D02*
X144195238Y-72338095D01*
X144195238Y-73138095D01*
X143814285Y-73138095D01*
X143547619Y-73138095D02*
X143014285Y-72338095D01*
X143014285Y-73138095D02*
X143547619Y-72338095D01*
X142823809Y-73138095D02*
X142366666Y-73138095D01*
X142595238Y-72338095D02*
X142595238Y-73138095D01*
X142100000Y-72642857D02*
X141490476Y-72642857D01*
X141223809Y-73138095D02*
X140957142Y-72338095D01*
X140690476Y-73138095D01*
X159734304Y-105054266D02*
X160534304Y-104787600D01*
X159734304Y-104520933D01*
X160458114Y-103797123D02*
X160496209Y-103835219D01*
X160534304Y-103949504D01*
X160534304Y-104025695D01*
X160496209Y-104139980D01*
X160420019Y-104216171D01*
X160343828Y-104254266D01*
X160191447Y-104292361D01*
X160077161Y-104292361D01*
X159924780Y-104254266D01*
X159848590Y-104216171D01*
X159772400Y-104139980D01*
X159734304Y-104025695D01*
X159734304Y-103949504D01*
X159772400Y-103835219D01*
X159810495Y-103797123D01*
X160458114Y-102997123D02*
X160496209Y-103035219D01*
X160534304Y-103149504D01*
X160534304Y-103225695D01*
X160496209Y-103339980D01*
X160420019Y-103416171D01*
X160343828Y-103454266D01*
X160191447Y-103492361D01*
X160077161Y-103492361D01*
X159924780Y-103454266D01*
X159848590Y-103416171D01*
X159772400Y-103339980D01*
X159734304Y-103225695D01*
X159734304Y-103149504D01*
X159772400Y-103035219D01*
X159810495Y-102997123D01*
X143331428Y-111591904D02*
X143598095Y-112391904D01*
X143864761Y-111591904D01*
X144588571Y-112315714D02*
X144550476Y-112353809D01*
X144436190Y-112391904D01*
X144360000Y-112391904D01*
X144245714Y-112353809D01*
X144169523Y-112277619D01*
X144131428Y-112201428D01*
X144093333Y-112049047D01*
X144093333Y-111934761D01*
X144131428Y-111782380D01*
X144169523Y-111706190D01*
X144245714Y-111630000D01*
X144360000Y-111591904D01*
X144436190Y-111591904D01*
X144550476Y-111630000D01*
X144588571Y-111668095D01*
X145388571Y-112315714D02*
X145350476Y-112353809D01*
X145236190Y-112391904D01*
X145160000Y-112391904D01*
X145045714Y-112353809D01*
X144969523Y-112277619D01*
X144931428Y-112201428D01*
X144893333Y-112049047D01*
X144893333Y-111934761D01*
X144931428Y-111782380D01*
X144969523Y-111706190D01*
X145045714Y-111630000D01*
X145160000Y-111591904D01*
X145236190Y-111591904D01*
X145350476Y-111630000D01*
X145388571Y-111668095D01*
X145731428Y-112087142D02*
X146340952Y-112087142D01*
X146683809Y-112353809D02*
X146798095Y-112391904D01*
X146988571Y-112391904D01*
X147064761Y-112353809D01*
X147102857Y-112315714D01*
X147140952Y-112239523D01*
X147140952Y-112163333D01*
X147102857Y-112087142D01*
X147064761Y-112049047D01*
X146988571Y-112010952D01*
X146836190Y-111972857D01*
X146760000Y-111934761D01*
X146721904Y-111896666D01*
X146683809Y-111820476D01*
X146683809Y-111744285D01*
X146721904Y-111668095D01*
X146760000Y-111630000D01*
X146836190Y-111591904D01*
X147026666Y-111591904D01*
X147140952Y-111630000D01*
X147483809Y-111972857D02*
X147750476Y-111972857D01*
X147864761Y-112391904D02*
X147483809Y-112391904D01*
X147483809Y-111591904D01*
X147864761Y-111591904D01*
X148588571Y-112391904D02*
X148207619Y-112391904D01*
X148207619Y-111591904D01*
X145915713Y-110188857D02*
X146182380Y-110188857D01*
X146296666Y-110607904D02*
X145915713Y-110607904D01*
X145915713Y-109807904D01*
X146296666Y-109807904D01*
X146563332Y-109807904D02*
X147096666Y-110607904D01*
X147096666Y-109807904D02*
X146563332Y-110607904D01*
X147287142Y-109807904D02*
X147744285Y-109807904D01*
X147515713Y-110607904D02*
X147515713Y-109807904D01*
X148010952Y-110303142D02*
X148620475Y-110303142D01*
X148887142Y-109807904D02*
X149153809Y-110607904D01*
X149420475Y-109807904D01*
X145839523Y-107351904D02*
X146334761Y-107351904D01*
X146068095Y-107656666D01*
X146182380Y-107656666D01*
X146258571Y-107694761D01*
X146296666Y-107732857D01*
X146334761Y-107809047D01*
X146334761Y-107999523D01*
X146296666Y-108075714D01*
X146258571Y-108113809D01*
X146182380Y-108151904D01*
X145953809Y-108151904D01*
X145877619Y-108113809D01*
X145839523Y-108075714D01*
X146563333Y-107351904D02*
X146830000Y-108151904D01*
X147096666Y-107351904D01*
X147287142Y-107351904D02*
X147782380Y-107351904D01*
X147515714Y-107656666D01*
X147630000Y-107656666D01*
X147706190Y-107694761D01*
X147744285Y-107732857D01*
X147782380Y-107809047D01*
X147782380Y-107999523D01*
X147744285Y-108075714D01*
X147706190Y-108113809D01*
X147630000Y-108151904D01*
X147401428Y-108151904D01*
X147325238Y-108113809D01*
X147287142Y-108075714D01*
X149411904Y-66550075D02*
X150211904Y-66283409D01*
X149411904Y-66016742D01*
X150135714Y-65292932D02*
X150173809Y-65331028D01*
X150211904Y-65445313D01*
X150211904Y-65521504D01*
X150173809Y-65635789D01*
X150097619Y-65711980D01*
X150021428Y-65750075D01*
X149869047Y-65788170D01*
X149754761Y-65788170D01*
X149602380Y-65750075D01*
X149526190Y-65711980D01*
X149450000Y-65635789D01*
X149411904Y-65521504D01*
X149411904Y-65445313D01*
X149450000Y-65331028D01*
X149488095Y-65292932D01*
X150135714Y-64492932D02*
X150173809Y-64531028D01*
X150211904Y-64645313D01*
X150211904Y-64721504D01*
X150173809Y-64835789D01*
X150097619Y-64911980D01*
X150021428Y-64950075D01*
X149869047Y-64988170D01*
X149754761Y-64988170D01*
X149602380Y-64950075D01*
X149526190Y-64911980D01*
X149450000Y-64835789D01*
X149411904Y-64721504D01*
X149411904Y-64645313D01*
X149450000Y-64531028D01*
X149488095Y-64492932D01*
X140000000Y-101190476D02*
X140038095Y-101114285D01*
X140038095Y-101000000D01*
X140000000Y-100885714D01*
X139923809Y-100809523D01*
X139847619Y-100771428D01*
X139695238Y-100733333D01*
X139580952Y-100733333D01*
X139428571Y-100771428D01*
X139352380Y-100809523D01*
X139276190Y-100885714D01*
X139238095Y-101000000D01*
X139238095Y-101076190D01*
X139276190Y-101190476D01*
X139314285Y-101228571D01*
X139580952Y-101228571D01*
X139580952Y-101076190D01*
X139238095Y-101571428D02*
X140038095Y-101571428D01*
X139238095Y-102028571D01*
X140038095Y-102028571D01*
X139238095Y-102409523D02*
X140038095Y-102409523D01*
X140038095Y-102600000D01*
X140000000Y-102714285D01*
X139923809Y-102790476D01*
X139847619Y-102828571D01*
X139695238Y-102866666D01*
X139580952Y-102866666D01*
X139428571Y-102828571D01*
X139352380Y-102790476D01*
X139276190Y-102714285D01*
X139238095Y-102600000D01*
X139238095Y-102409523D01*
X145357142Y-100304761D02*
X145357142Y-100571428D01*
X144938095Y-100685714D02*
X144938095Y-100304761D01*
X145738095Y-100304761D01*
X145738095Y-100685714D01*
X145738095Y-100952380D02*
X144938095Y-101485714D01*
X145738095Y-101485714D02*
X144938095Y-100952380D01*
X145738095Y-101676190D02*
X145738095Y-102133333D01*
X144938095Y-101904761D02*
X145738095Y-101904761D01*
X145242857Y-102400000D02*
X145242857Y-103009523D01*
X145738095Y-103276190D02*
X144938095Y-103542857D01*
X145738095Y-103809523D01*
X174390000Y-71870000D02*
X174390000Y-71470000D01*
X173750000Y-71870000D02*
X174390000Y-71870000D01*
X170531000Y-67465000D02*
X170659000Y-67594000D01*
X168315000Y-65250000D02*
X168409000Y-65344000D01*
X170771000Y-67295000D02*
X170864000Y-67389000D01*
X168521000Y-65045000D02*
X168649000Y-65174000D01*
X166430000Y-64510000D02*
X174150000Y-64510000D01*
X166430000Y-71630000D02*
X174150000Y-71630000D01*
X174150000Y-71630000D02*
X174150000Y-64510000D01*
X166430000Y-71630000D02*
X166430000Y-64510000D01*
X172590000Y-71630000D02*
X172590000Y-64510000D01*
X173690000Y-71630000D02*
X173690000Y-64510000D01*
X171270000Y-66320000D02*
G75*
G03X171270000Y-66320000I-1680000J0D01*
G01*
X171270099Y-69791326D02*
G75*
G02X171030000Y-70686000I-1680099J-28674D01*
G01*
X170479894Y-71245358D02*
G75*
G02X168724000Y-71260000I-889894J1425358D01*
G01*
X168164642Y-70709894D02*
G75*
G02X168150000Y-68954000I1425358J889894D01*
G01*
X168699807Y-68394495D02*
G75*
G02X170481000Y-68395000I890193J-1425505D01*
G01*
X171014721Y-68929736D02*
G75*
G02X171270000Y-69820000I-1424721J-890264D01*
G01*
X137740000Y-64270000D02*
X137740000Y-64670000D01*
X138380000Y-64270000D02*
X137740000Y-64270000D01*
X141599000Y-68675000D02*
X141471000Y-68546000D01*
X143815000Y-70890000D02*
X143721000Y-70796000D01*
X141359000Y-68845000D02*
X141266000Y-68751000D01*
X143609000Y-71095000D02*
X143481000Y-70966000D01*
X145700000Y-71630000D02*
X137980000Y-71630000D01*
X145700000Y-64510000D02*
X137980000Y-64510000D01*
X137980000Y-64510000D02*
X137980000Y-71630000D01*
X145700000Y-64510000D02*
X145700000Y-71630000D01*
X139540000Y-64510000D02*
X139540000Y-71630000D01*
X138440000Y-64510000D02*
X138440000Y-71630000D01*
X144220000Y-69820000D02*
G75*
G03X144220000Y-69820000I-1680000J0D01*
G01*
X140859901Y-66348674D02*
G75*
G02X141100000Y-65454000I1680099J28674D01*
G01*
X141650106Y-64894642D02*
G75*
G02X143406000Y-64880000I889894J-1425358D01*
G01*
X143965358Y-65430106D02*
G75*
G02X143980000Y-67186000I-1425358J-889894D01*
G01*
X143430193Y-67745505D02*
G75*
G02X141649000Y-67745000I-890193J1425505D01*
G01*
X141115279Y-67210264D02*
G75*
G02X140860000Y-66320000I1424721J890264D01*
G01*
X144673600Y-106916000D02*
G75*
G02X145373600Y-107616000I0J-700000D01*
G01*
X143373600Y-107616000D02*
G75*
G02X144073600Y-106916000I700000J0D01*
G01*
X144073600Y-111016000D02*
G75*
G02X143373600Y-110316000I0J700000D01*
G01*
X145373600Y-110316000D02*
G75*
G02X144673600Y-111016000I-700000J0D01*
G01*
X145373600Y-107566000D02*
X145373600Y-110366000D01*
X144673600Y-111016000D02*
X144073600Y-111016000D01*
X143373600Y-110366000D02*
X143373600Y-107566000D01*
X144073600Y-106916000D02*
X144673600Y-106916000D01*
D11*
X159004000Y-99974400D02*
X156972000Y-99974400D01*
X159004000Y-95910400D02*
X159004000Y-99974400D01*
X156972000Y-95910400D02*
X159004000Y-95910400D01*
X156972000Y-99974400D02*
X156972000Y-95910400D01*
X151028400Y-99974400D02*
X148996400Y-99974400D01*
X151028400Y-95910400D02*
X151028400Y-99974400D01*
X148996400Y-95910400D02*
X151028400Y-95910400D01*
X148996400Y-99974400D02*
X148996400Y-95910400D01*
X155041600Y-99974400D02*
X153009600Y-99974400D01*
X155041600Y-95910400D02*
X155041600Y-99974400D01*
X153009600Y-95910400D02*
X155041600Y-95910400D01*
X153009600Y-99974400D02*
X153009600Y-95910400D01*
X173282400Y-95932860D02*
X173282400Y-94132000D01*
X173282400Y-94107000D02*
X172491400Y-94107000D01*
X172491400Y-94107000D02*
X172491400Y-92710000D01*
X172491400Y-92710000D02*
X173282400Y-92710000D01*
X173282400Y-92713000D02*
X173282400Y-89157000D01*
X173282400Y-89157000D02*
X172491400Y-89157000D01*
X172491400Y-89154000D02*
X172491400Y-87757000D01*
X172491400Y-87757000D02*
X173282400Y-87757000D01*
X173282400Y-87757000D02*
X173282400Y-85932000D01*
X168132760Y-95930720D02*
X168132760Y-85933280D01*
X173282400Y-85932000D02*
X168132760Y-85932000D01*
X168132760Y-95930720D02*
X173282400Y-95930720D01*
X169334180Y-95930720D02*
X171330620Y-95930720D01*
X139239200Y-85931140D02*
X139239200Y-87732000D01*
X139239200Y-87757000D02*
X140030200Y-87757000D01*
X140030200Y-87757000D02*
X140030200Y-89154000D01*
X140030200Y-89154000D02*
X139239200Y-89154000D01*
X139239200Y-89151000D02*
X139239200Y-92707000D01*
X139239200Y-92707000D02*
X140030200Y-92707000D01*
X140030200Y-92710000D02*
X140030200Y-94107000D01*
X140030200Y-94107000D02*
X139239200Y-94107000D01*
X139239200Y-94107000D02*
X139239200Y-95932000D01*
X144388840Y-85933280D02*
X144388840Y-95930720D01*
X139239200Y-95932000D02*
X144388840Y-95932000D01*
X144388840Y-85933280D02*
X139239200Y-85933280D01*
X143187420Y-85933280D02*
X141190980Y-85933280D01*
D12*
X150291800Y-63600000D02*
X149021800Y-63600000D01*
X148386800Y-62965000D02*
X149021800Y-63600000D01*
X149021800Y-61060000D02*
X148386800Y-61695000D01*
X148386800Y-61695000D02*
X148386800Y-62965000D01*
X151561800Y-63600000D02*
X150926800Y-62965000D01*
X152831800Y-63600000D02*
X151561800Y-63600000D01*
X153466800Y-62965000D02*
X152831800Y-63600000D01*
X153466800Y-61695000D02*
X153466800Y-62965000D01*
X152831800Y-61060000D02*
X153466800Y-61695000D01*
X151561800Y-61060000D02*
X152831800Y-61060000D01*
X150926800Y-61695000D02*
X151561800Y-61060000D01*
X150926800Y-62965000D02*
X150291800Y-63600000D01*
X150926800Y-61695000D02*
X150926800Y-62965000D01*
X150291800Y-61060000D02*
X150926800Y-61695000D01*
X149021800Y-61060000D02*
X150291800Y-61060000D01*
X157911800Y-63600000D02*
X156641800Y-63600000D01*
X156006800Y-62965000D02*
X156641800Y-63600000D01*
X156641800Y-61060000D02*
X156006800Y-61695000D01*
X154101800Y-63600000D02*
X153466800Y-62965000D01*
X155371800Y-63600000D02*
X154101800Y-63600000D01*
X156006800Y-62965000D02*
X155371800Y-63600000D01*
X156006800Y-61695000D02*
X156006800Y-62965000D01*
X155371800Y-61060000D02*
X156006800Y-61695000D01*
X154101800Y-61060000D02*
X155371800Y-61060000D01*
X153466800Y-61695000D02*
X154101800Y-61060000D01*
X159181800Y-63600000D02*
X158546800Y-62965000D01*
X160451800Y-63600000D02*
X159181800Y-63600000D01*
X161086800Y-62965000D02*
X160451800Y-63600000D01*
X161086800Y-61695000D02*
X161086800Y-62965000D01*
X160451800Y-61060000D02*
X161086800Y-61695000D01*
X159181800Y-61060000D02*
X160451800Y-61060000D01*
X158546800Y-61695000D02*
X159181800Y-61060000D01*
X158546800Y-62965000D02*
X157911800Y-63600000D01*
X158546800Y-61695000D02*
X158546800Y-62965000D01*
X157911800Y-61060000D02*
X158546800Y-61695000D01*
X156641800Y-61060000D02*
X157911800Y-61060000D01*
X161721800Y-63600000D02*
X161086800Y-62965000D01*
X162991800Y-63600000D02*
X161721800Y-63600000D01*
X163626800Y-62965000D02*
X162991800Y-63600000D01*
X163626800Y-61695000D02*
X163626800Y-62965000D01*
X162991800Y-61060000D02*
X163626800Y-61695000D01*
X161721800Y-61060000D02*
X162991800Y-61060000D01*
X161086800Y-61695000D02*
X161721800Y-61060000D01*
X161721800Y-73253600D02*
X162991800Y-73253600D01*
X163626800Y-73888600D02*
X162991800Y-73253600D01*
X162991800Y-75793600D02*
X163626800Y-75158600D01*
X163626800Y-75158600D02*
X163626800Y-73888600D01*
X160451800Y-73253600D02*
X161086800Y-73888600D01*
X159181800Y-73253600D02*
X160451800Y-73253600D01*
X158546800Y-73888600D02*
X159181800Y-73253600D01*
X158546800Y-75158600D02*
X158546800Y-73888600D01*
X159181800Y-75793600D02*
X158546800Y-75158600D01*
X160451800Y-75793600D02*
X159181800Y-75793600D01*
X161086800Y-75158600D02*
X160451800Y-75793600D01*
X161086800Y-73888600D02*
X161721800Y-73253600D01*
X161086800Y-75158600D02*
X161086800Y-73888600D01*
X161721800Y-75793600D02*
X161086800Y-75158600D01*
X162991800Y-75793600D02*
X161721800Y-75793600D01*
X154101800Y-73253600D02*
X155371800Y-73253600D01*
X156006800Y-73888600D02*
X155371800Y-73253600D01*
X155371800Y-75793600D02*
X156006800Y-75158600D01*
X157911800Y-73253600D02*
X158546800Y-73888600D01*
X156641800Y-73253600D02*
X157911800Y-73253600D01*
X156006800Y-73888600D02*
X156641800Y-73253600D01*
X156006800Y-75158600D02*
X156006800Y-73888600D01*
X156641800Y-75793600D02*
X156006800Y-75158600D01*
X157911800Y-75793600D02*
X156641800Y-75793600D01*
X158546800Y-75158600D02*
X157911800Y-75793600D01*
X152831800Y-73253600D02*
X153466800Y-73888600D01*
X151561800Y-73253600D02*
X152831800Y-73253600D01*
X150926800Y-73888600D02*
X151561800Y-73253600D01*
X150926800Y-75158600D02*
X150926800Y-73888600D01*
X151561800Y-75793600D02*
X150926800Y-75158600D01*
X152831800Y-75793600D02*
X151561800Y-75793600D01*
X153466800Y-75158600D02*
X152831800Y-75793600D01*
X153466800Y-73888600D02*
X154101800Y-73253600D01*
X153466800Y-75158600D02*
X153466800Y-73888600D01*
X154101800Y-75793600D02*
X153466800Y-75158600D01*
X155371800Y-75793600D02*
X154101800Y-75793600D01*
X150291800Y-73253600D02*
X150926800Y-73888600D01*
X149021800Y-73253600D02*
X150291800Y-73253600D01*
X148386800Y-73888600D02*
X149021800Y-73253600D01*
X148386800Y-75158600D02*
X148386800Y-73888600D01*
X149021800Y-75793600D02*
X148386800Y-75158600D01*
X150291800Y-75793600D02*
X149021800Y-75793600D01*
X150926800Y-75158600D02*
X150291800Y-75793600D01*
D10*
X170295800Y-106321100D02*
X168895800Y-106321100D01*
X168195800Y-105621100D02*
X168195800Y-105021100D01*
X168895800Y-104321100D02*
X170295800Y-104321100D01*
X170995800Y-105021100D02*
X170995800Y-105621100D01*
X170995800Y-105621100D02*
G75*
G02X170295800Y-106321100I-700000J0D01*
G01*
X170295800Y-104321100D02*
G75*
G02X170995800Y-105021100I0J-700000D01*
G01*
X168195800Y-105021100D02*
G75*
G02X168895800Y-104321100I700000J0D01*
G01*
X168895800Y-106321100D02*
G75*
G02X168195800Y-105621100I0J700000D01*
G01*
X170270400Y-103158800D02*
X168870400Y-103158800D01*
X168170400Y-102458800D02*
X168170400Y-101858800D01*
X168870400Y-101158800D02*
X170270400Y-101158800D01*
X170970400Y-101858800D02*
X170970400Y-102458800D01*
X170970400Y-102458800D02*
G75*
G02X170270400Y-103158800I-700000J0D01*
G01*
X170270400Y-101158800D02*
G75*
G02X170970400Y-101858800I0J-700000D01*
G01*
X168170400Y-101858800D02*
G75*
G02X168870400Y-101158800I700000J0D01*
G01*
X168870400Y-103158800D02*
G75*
G02X168170400Y-102458800I0J700000D01*
G01*
X170270400Y-100009200D02*
X168870400Y-100009200D01*
X168170400Y-99309200D02*
X168170400Y-98709200D01*
X168870400Y-98009200D02*
X170270400Y-98009200D01*
X170970400Y-98709200D02*
X170970400Y-99309200D01*
X170970400Y-99309200D02*
G75*
G02X170270400Y-100009200I-700000J0D01*
G01*
X170270400Y-98009200D02*
G75*
G02X170970400Y-98709200I0J-700000D01*
G01*
X168170400Y-98709200D02*
G75*
G02X168870400Y-98009200I700000J0D01*
G01*
X168870400Y-100009200D02*
G75*
G02X168170400Y-99309200I0J700000D01*
G01*
D13*
X164695240Y-106578400D02*
X147423240Y-106578400D01*
X147423240Y-106578400D02*
X147423240Y-78638400D01*
X147423240Y-78638400D02*
X164695240Y-78638400D01*
X164693600Y-106578400D02*
X164693600Y-78638400D01*
D11*
X151028400Y-84226400D02*
X151028400Y-88290400D01*
X151028400Y-88290400D02*
X148996400Y-88290400D01*
X148996400Y-88290400D02*
X148996400Y-84226400D01*
X148996400Y-84226400D02*
X151028400Y-84226400D01*
X148996400Y-90170000D02*
X151028400Y-90170000D01*
X148996400Y-94234000D02*
X148996400Y-90170000D01*
X151028400Y-94234000D02*
X148996400Y-94234000D01*
X151028400Y-90170000D02*
X151028400Y-94234000D01*
X155295600Y-107238800D02*
X153263600Y-107238800D01*
X155295600Y-103174800D02*
X155295600Y-107238800D01*
X153263600Y-103174800D02*
X155295600Y-103174800D01*
X153263600Y-107238800D02*
X153263600Y-103174800D01*
X157124400Y-107238800D02*
X157124400Y-103174800D01*
X157124400Y-103174800D02*
X159156400Y-103174800D01*
X159156400Y-103174800D02*
X159156400Y-107238800D01*
X159156400Y-107238800D02*
X157124400Y-107238800D01*
D14*
X153949400Y-83032600D02*
X153949400Y-82651600D01*
X153949400Y-82651600D02*
X153441400Y-82651600D01*
X153441400Y-83032600D02*
X153441400Y-82651600D01*
X153949400Y-83032600D02*
X153441400Y-83032600D01*
X153949400Y-84963000D02*
X153949400Y-84582000D01*
X153949400Y-84582000D02*
X153441400Y-84582000D01*
X153441400Y-84963000D02*
X153441400Y-84582000D01*
X153949400Y-84963000D02*
X153441400Y-84963000D01*
X155321000Y-83997800D02*
X155321000Y-83616800D01*
X155321000Y-83616800D02*
X154813000Y-83616800D01*
X154813000Y-83997800D02*
X154813000Y-83616800D01*
X155321000Y-83997800D02*
X154813000Y-83997800D01*
D12*
X154000200Y-85242400D02*
X154000200Y-82346800D01*
X154000200Y-82346800D02*
X154762200Y-82346800D01*
X154762200Y-82346800D02*
X154762200Y-85242400D01*
X154762200Y-85242400D02*
X154000200Y-85242400D01*
X154711400Y-91236800D02*
X153949400Y-91236800D01*
X154711400Y-88341200D02*
X154711400Y-91236800D01*
X153949400Y-88341200D02*
X154711400Y-88341200D01*
X153949400Y-91236800D02*
X153949400Y-88341200D01*
D14*
X155270200Y-89992200D02*
X154762200Y-89992200D01*
X154762200Y-89992200D02*
X154762200Y-89611200D01*
X155270200Y-89611200D02*
X154762200Y-89611200D01*
X155270200Y-89992200D02*
X155270200Y-89611200D01*
X153898600Y-90957400D02*
X153390600Y-90957400D01*
X153390600Y-90957400D02*
X153390600Y-90576400D01*
X153898600Y-90576400D02*
X153390600Y-90576400D01*
X153898600Y-90957400D02*
X153898600Y-90576400D01*
X153898600Y-89027000D02*
X153390600Y-89027000D01*
X153390600Y-89027000D02*
X153390600Y-88646000D01*
X153898600Y-88646000D02*
X153390600Y-88646000D01*
X153898600Y-89027000D02*
X153898600Y-88646000D01*
D10*
X156444914Y-99786266D02*
X156483009Y-99819600D01*
X156521104Y-99919600D01*
X156521104Y-99986266D01*
X156483009Y-100086266D01*
X156406819Y-100152933D01*
X156330628Y-100186266D01*
X156178247Y-100219600D01*
X156063961Y-100219600D01*
X155911580Y-100186266D01*
X155835390Y-100152933D01*
X155759200Y-100086266D01*
X155721104Y-99986266D01*
X155721104Y-99919600D01*
X155759200Y-99819600D01*
X155797295Y-99786266D01*
X156521104Y-99119600D02*
X156521104Y-99519600D01*
X156521104Y-99319600D02*
X155721104Y-99319600D01*
X155835390Y-99386266D01*
X155911580Y-99452933D01*
X155949676Y-99519600D01*
X156368704Y-97031934D02*
X156368704Y-97431934D01*
X156368704Y-97231934D02*
X155568704Y-97231934D01*
X155682990Y-97298600D01*
X155759180Y-97365267D01*
X155797276Y-97431934D01*
X155568704Y-96598600D02*
X155568704Y-96531934D01*
X155606800Y-96465267D01*
X155644895Y-96431934D01*
X155721085Y-96398600D01*
X155873466Y-96365267D01*
X156063942Y-96365267D01*
X156216323Y-96398600D01*
X156292514Y-96431934D01*
X156330609Y-96465267D01*
X156368704Y-96531934D01*
X156368704Y-96598600D01*
X156330609Y-96665267D01*
X156292514Y-96698600D01*
X156216323Y-96731934D01*
X156063942Y-96765267D01*
X155873466Y-96765267D01*
X155721085Y-96731934D01*
X155644895Y-96698600D01*
X155606800Y-96665267D01*
X155568704Y-96598600D01*
X155835371Y-96065267D02*
X156368704Y-96065267D01*
X155911561Y-96065267D02*
X155873466Y-96031934D01*
X155835371Y-95965267D01*
X155835371Y-95865267D01*
X155873466Y-95798600D01*
X155949657Y-95765267D01*
X156368704Y-95765267D01*
X148469314Y-99786266D02*
X148507409Y-99819600D01*
X148545504Y-99919600D01*
X148545504Y-99986266D01*
X148507409Y-100086266D01*
X148431219Y-100152933D01*
X148355028Y-100186266D01*
X148202647Y-100219600D01*
X148088361Y-100219600D01*
X147935980Y-100186266D01*
X147859790Y-100152933D01*
X147783600Y-100086266D01*
X147745504Y-99986266D01*
X147745504Y-99919600D01*
X147783600Y-99819600D01*
X147821695Y-99786266D01*
X147821695Y-99519600D02*
X147783600Y-99486266D01*
X147745504Y-99419600D01*
X147745504Y-99252933D01*
X147783600Y-99186266D01*
X147821695Y-99152933D01*
X147897885Y-99119600D01*
X147974076Y-99119600D01*
X148088361Y-99152933D01*
X148545504Y-99552933D01*
X148545504Y-99119600D01*
X148570904Y-97531933D02*
X148570904Y-97931933D01*
X148570904Y-97731933D02*
X147770904Y-97731933D01*
X147885190Y-97798600D01*
X147961380Y-97865266D01*
X147999476Y-97931933D01*
X147770904Y-97098600D02*
X147770904Y-97031933D01*
X147809000Y-96965266D01*
X147847095Y-96931933D01*
X147923285Y-96898600D01*
X148075666Y-96865266D01*
X148266142Y-96865266D01*
X148418523Y-96898600D01*
X148494714Y-96931933D01*
X148532809Y-96965266D01*
X148570904Y-97031933D01*
X148570904Y-97098600D01*
X148532809Y-97165266D01*
X148494714Y-97198600D01*
X148418523Y-97231933D01*
X148266142Y-97265266D01*
X148075666Y-97265266D01*
X147923285Y-97231933D01*
X147847095Y-97198600D01*
X147809000Y-97165266D01*
X147770904Y-97098600D01*
X147770904Y-96431933D02*
X147770904Y-96365266D01*
X147809000Y-96298600D01*
X147847095Y-96265266D01*
X147923285Y-96231933D01*
X148075666Y-96198600D01*
X148266142Y-96198600D01*
X148418523Y-96231933D01*
X148494714Y-96265266D01*
X148532809Y-96298600D01*
X148570904Y-96365266D01*
X148570904Y-96431933D01*
X148532809Y-96498600D01*
X148494714Y-96531933D01*
X148418523Y-96565266D01*
X148266142Y-96598600D01*
X148075666Y-96598600D01*
X147923285Y-96565266D01*
X147847095Y-96531933D01*
X147809000Y-96498600D01*
X147770904Y-96431933D01*
X148037571Y-95898600D02*
X148570904Y-95898600D01*
X148113761Y-95898600D02*
X148075666Y-95865266D01*
X148037571Y-95798600D01*
X148037571Y-95698600D01*
X148075666Y-95631933D01*
X148151857Y-95598600D01*
X148570904Y-95598600D01*
X152482514Y-99786266D02*
X152520609Y-99819600D01*
X152558704Y-99919600D01*
X152558704Y-99986266D01*
X152520609Y-100086266D01*
X152444419Y-100152933D01*
X152368228Y-100186266D01*
X152215847Y-100219600D01*
X152101561Y-100219600D01*
X151949180Y-100186266D01*
X151872990Y-100152933D01*
X151796800Y-100086266D01*
X151758704Y-99986266D01*
X151758704Y-99919600D01*
X151796800Y-99819600D01*
X151834895Y-99786266D01*
X151758704Y-99552933D02*
X151758704Y-99119600D01*
X152063466Y-99352933D01*
X152063466Y-99252933D01*
X152101561Y-99186266D01*
X152139657Y-99152933D01*
X152215847Y-99119600D01*
X152406323Y-99119600D01*
X152482514Y-99152933D01*
X152520609Y-99186266D01*
X152558704Y-99252933D01*
X152558704Y-99452933D01*
X152520609Y-99519600D01*
X152482514Y-99552933D01*
X152457104Y-96965266D02*
X152457104Y-97365266D01*
X152457104Y-97165266D02*
X151657104Y-97165266D01*
X151771390Y-97231933D01*
X151847580Y-97298600D01*
X151885676Y-97365266D01*
X151923771Y-96365266D02*
X152457104Y-96365266D01*
X151923771Y-96665266D02*
X152342819Y-96665266D01*
X152419009Y-96631933D01*
X152457104Y-96565266D01*
X152457104Y-96465266D01*
X152419009Y-96398600D01*
X152380914Y-96365266D01*
X152038057Y-95798600D02*
X152038057Y-96031933D01*
X152457104Y-96031933D02*
X151657104Y-96031933D01*
X151657104Y-95698600D01*
X148596304Y-88026066D02*
X148215352Y-88259400D01*
X148596304Y-88426066D02*
X147796304Y-88426066D01*
X147796304Y-88159400D01*
X147834400Y-88092733D01*
X147872495Y-88059400D01*
X147948685Y-88026066D01*
X148062971Y-88026066D01*
X148139161Y-88059400D01*
X148177257Y-88092733D01*
X148215352Y-88159400D01*
X148215352Y-88426066D01*
X148596304Y-87359400D02*
X148596304Y-87759400D01*
X148596304Y-87559400D02*
X147796304Y-87559400D01*
X147910590Y-87626066D01*
X147986780Y-87692733D01*
X148024876Y-87759400D01*
X148596304Y-85303466D02*
X148596304Y-85703466D01*
X148596304Y-85503466D02*
X147796304Y-85503466D01*
X147910590Y-85570133D01*
X147986780Y-85636800D01*
X148024876Y-85703466D01*
X147796304Y-84870133D02*
X147796304Y-84803466D01*
X147834400Y-84736800D01*
X147872495Y-84703466D01*
X147948685Y-84670133D01*
X148101066Y-84636800D01*
X148291542Y-84636800D01*
X148443923Y-84670133D01*
X148520114Y-84703466D01*
X148558209Y-84736800D01*
X148596304Y-84803466D01*
X148596304Y-84870133D01*
X148558209Y-84936800D01*
X148520114Y-84970133D01*
X148443923Y-85003466D01*
X148291542Y-85036800D01*
X148101066Y-85036800D01*
X147948685Y-85003466D01*
X147872495Y-84970133D01*
X147834400Y-84936800D01*
X147796304Y-84870133D01*
X148596304Y-84336800D02*
X147796304Y-84336800D01*
X148291542Y-84270133D02*
X148596304Y-84070133D01*
X148062971Y-84070133D02*
X148367733Y-84336800D01*
X148596304Y-94020466D02*
X148215352Y-94253800D01*
X148596304Y-94420466D02*
X147796304Y-94420466D01*
X147796304Y-94153800D01*
X147834400Y-94087133D01*
X147872495Y-94053800D01*
X147948685Y-94020466D01*
X148062971Y-94020466D01*
X148139161Y-94053800D01*
X148177257Y-94087133D01*
X148215352Y-94153800D01*
X148215352Y-94420466D01*
X147872495Y-93753800D02*
X147834400Y-93720466D01*
X147796304Y-93653800D01*
X147796304Y-93487133D01*
X147834400Y-93420466D01*
X147872495Y-93387133D01*
X147948685Y-93353800D01*
X148024876Y-93353800D01*
X148139161Y-93387133D01*
X148596304Y-93787133D01*
X148596304Y-93353800D01*
X148596304Y-91297866D02*
X148596304Y-91697866D01*
X148596304Y-91497866D02*
X147796304Y-91497866D01*
X147910590Y-91564533D01*
X147986780Y-91631200D01*
X148024876Y-91697866D01*
X147796304Y-90864533D02*
X147796304Y-90797866D01*
X147834400Y-90731200D01*
X147872495Y-90697866D01*
X147948685Y-90664533D01*
X148101066Y-90631200D01*
X148291542Y-90631200D01*
X148443923Y-90664533D01*
X148520114Y-90697866D01*
X148558209Y-90731200D01*
X148596304Y-90797866D01*
X148596304Y-90864533D01*
X148558209Y-90931200D01*
X148520114Y-90964533D01*
X148443923Y-90997866D01*
X148291542Y-91031200D01*
X148101066Y-91031200D01*
X147948685Y-90997866D01*
X147872495Y-90964533D01*
X147834400Y-90931200D01*
X147796304Y-90864533D01*
X148596304Y-90331200D02*
X147796304Y-90331200D01*
X148291542Y-90264533D02*
X148596304Y-90064533D01*
X148062971Y-90064533D02*
X148367733Y-90331200D01*
X152863504Y-105323466D02*
X152482552Y-105556800D01*
X152863504Y-105723466D02*
X152063504Y-105723466D01*
X152063504Y-105456800D01*
X152101600Y-105390133D01*
X152139695Y-105356800D01*
X152215885Y-105323466D01*
X152330171Y-105323466D01*
X152406361Y-105356800D01*
X152444457Y-105390133D01*
X152482552Y-105456800D01*
X152482552Y-105723466D01*
X152063504Y-105090133D02*
X152063504Y-104656800D01*
X152368266Y-104890133D01*
X152368266Y-104790133D01*
X152406361Y-104723466D01*
X152444457Y-104690133D01*
X152520647Y-104656800D01*
X152711123Y-104656800D01*
X152787314Y-104690133D01*
X152825409Y-104723466D01*
X152863504Y-104790133D01*
X152863504Y-104990133D01*
X152825409Y-105056800D01*
X152787314Y-105090133D01*
X153862933Y-102317504D02*
X153462933Y-102317504D01*
X153662933Y-102317504D02*
X153662933Y-101517504D01*
X153596266Y-101631790D01*
X153529600Y-101707980D01*
X153462933Y-101746076D01*
X154296266Y-101517504D02*
X154362933Y-101517504D01*
X154429600Y-101555600D01*
X154462933Y-101593695D01*
X154496266Y-101669885D01*
X154529600Y-101822266D01*
X154529600Y-102012742D01*
X154496266Y-102165123D01*
X154462933Y-102241314D01*
X154429600Y-102279409D01*
X154362933Y-102317504D01*
X154296266Y-102317504D01*
X154229600Y-102279409D01*
X154196266Y-102241314D01*
X154162933Y-102165123D01*
X154129600Y-102012742D01*
X154129600Y-101822266D01*
X154162933Y-101669885D01*
X154196266Y-101593695D01*
X154229600Y-101555600D01*
X154296266Y-101517504D01*
X154829600Y-102317504D02*
X154829600Y-101517504D01*
X154896266Y-102012742D02*
X155096266Y-102317504D01*
X155096266Y-101784171D02*
X154829600Y-102088933D01*
X156724304Y-105323466D02*
X156343352Y-105556800D01*
X156724304Y-105723466D02*
X155924304Y-105723466D01*
X155924304Y-105456800D01*
X155962400Y-105390133D01*
X156000495Y-105356800D01*
X156076685Y-105323466D01*
X156190971Y-105323466D01*
X156267161Y-105356800D01*
X156305257Y-105390133D01*
X156343352Y-105456800D01*
X156343352Y-105723466D01*
X156190971Y-104723466D02*
X156724304Y-104723466D01*
X155886209Y-104890133D02*
X156457638Y-105056800D01*
X156457638Y-104623466D01*
X157596733Y-102317504D02*
X157196733Y-102317504D01*
X157396733Y-102317504D02*
X157396733Y-101517504D01*
X157330066Y-101631790D01*
X157263400Y-101707980D01*
X157196733Y-101746076D01*
X158030066Y-101517504D02*
X158096733Y-101517504D01*
X158163400Y-101555600D01*
X158196733Y-101593695D01*
X158230066Y-101669885D01*
X158263400Y-101822266D01*
X158263400Y-102012742D01*
X158230066Y-102165123D01*
X158196733Y-102241314D01*
X158163400Y-102279409D01*
X158096733Y-102317504D01*
X158030066Y-102317504D01*
X157963400Y-102279409D01*
X157930066Y-102241314D01*
X157896733Y-102165123D01*
X157863400Y-102012742D01*
X157863400Y-101822266D01*
X157896733Y-101669885D01*
X157930066Y-101593695D01*
X157963400Y-101555600D01*
X158030066Y-101517504D01*
X158563400Y-102317504D02*
X158563400Y-101517504D01*
X158630066Y-102012742D02*
X158830066Y-102317504D01*
X158830066Y-101784171D02*
X158563400Y-102088933D01*
M02*
