%FSLAX45Y45*%
G04 Gerber Fmt 4.5, Leading zero omitted, Abs format (unit mm)*
G04 Created by KiCad (PCBNEW (5.1.5-0-10_14)) date 2020-07-07 09:51:08*
%MOMM*%
%LPD*%
G04 APERTURE LIST*
%TA.AperFunction,Profile*%
%ADD10C,0.050000*%
%TD*%
%ADD11C,0.200000*%
%ADD12C,0.300000*%
G04 APERTURE END LIST*
D10*
X17205000Y-5545300D02*
X14005000Y-5545300D01*
X17365000Y-7884000D02*
G75*
G03X17365000Y-7884000I-160000J0D01*
G01*
X14165000Y-7884000D02*
G75*
G03X14165000Y-7884000I-160000J0D01*
G01*
X13738300Y-5812000D02*
X13738300Y-11084000D01*
X17471700Y-11084000D02*
X17471700Y-5812000D01*
X14005000Y-11350700D02*
X17205000Y-11350700D01*
X17205000Y-5545300D02*
G75*
G02X17471700Y-5812000I0J-266700D01*
G01*
X17471700Y-11084000D02*
G75*
G02X17205000Y-11350700I-266700J0D01*
G01*
X14005000Y-11350700D02*
G75*
G02X13738300Y-11084000I0J266700D01*
G01*
X13738300Y-5812000D02*
G75*
G02X14005000Y-5545300I266700J0D01*
G01*
X14165000Y-11084000D02*
G75*
G03X14165000Y-11084000I-160000J0D01*
G01*
X17365000Y-11084000D02*
G75*
G03X17365000Y-11084000I-160000J0D01*
G01*
X14165000Y-5812000D02*
G75*
G03X14165000Y-5812000I-160000J0D01*
G01*
X17365000Y-5812000D02*
G75*
G03X17365000Y-5812000I-160000J0D01*
G01*
D11*
X14260000Y-9680000D02*
X14300000Y-9720000D01*
X14300000Y-9680000D02*
X14260000Y-9720000D01*
X14546900Y-10576880D02*
X14586900Y-10616880D01*
X14586900Y-10576880D02*
X14546900Y-10616880D01*
X14737400Y-9169720D02*
X14777400Y-9209720D01*
X14777400Y-9169720D02*
X14737400Y-9209720D01*
X14767880Y-8773480D02*
X14807880Y-8813480D01*
X14807880Y-8773480D02*
X14767880Y-8813480D01*
X14966000Y-9748840D02*
X15006000Y-9788840D01*
X15006000Y-9748840D02*
X14966000Y-9788840D01*
X14981240Y-9195120D02*
X15021240Y-9235120D01*
X15021240Y-9195120D02*
X14981240Y-9235120D01*
X15204760Y-7864160D02*
X15244760Y-7904160D01*
X15244760Y-7864160D02*
X15204760Y-7904160D01*
X15291120Y-9748840D02*
X15331120Y-9788840D01*
X15331120Y-9748840D02*
X15291120Y-9788840D01*
X15301280Y-9301800D02*
X15341280Y-9341800D01*
X15341280Y-9301800D02*
X15301280Y-9341800D01*
X15316520Y-7960680D02*
X15356520Y-8000680D01*
X15356520Y-7960680D02*
X15316520Y-8000680D01*
X15555280Y-8809040D02*
X15595280Y-8849040D01*
X15595280Y-8809040D02*
X15555280Y-8849040D01*
X15585760Y-10338120D02*
X15625760Y-10378120D01*
X15625760Y-10338120D02*
X15585760Y-10378120D01*
X15636560Y-9372920D02*
X15676560Y-9412920D01*
X15676560Y-9372920D02*
X15636560Y-9412920D01*
X15646720Y-9748840D02*
X15686720Y-9788840D01*
X15686720Y-9748840D02*
X15646720Y-9788840D01*
X15656880Y-8123240D02*
X15696880Y-8163240D01*
X15696880Y-8123240D02*
X15656880Y-8163240D01*
X15687360Y-8880160D02*
X15727360Y-8920160D01*
X15727360Y-8880160D02*
X15687360Y-8920160D01*
X15778800Y-8453440D02*
X15818800Y-8493440D01*
X15818800Y-8453440D02*
X15778800Y-8493440D01*
X15874919Y-8503839D02*
X15914919Y-8543839D01*
X15914919Y-8503839D02*
X15874919Y-8543839D01*
X15938571Y-8857549D02*
X15978571Y-8897549D01*
X15978571Y-8857549D02*
X15938571Y-8897549D01*
X15992160Y-8026720D02*
X16032160Y-8066720D01*
X16032160Y-8026720D02*
X15992160Y-8066720D01*
X16116000Y-7640000D02*
X16156000Y-7680000D01*
X16156000Y-7640000D02*
X16116000Y-7680000D01*
X16399000Y-7159000D02*
X16439000Y-7199000D01*
X16439000Y-7159000D02*
X16399000Y-7199000D01*
X16486000Y-7571000D02*
X16526000Y-7611000D01*
X16526000Y-7571000D02*
X16486000Y-7611000D01*
X14258798Y-8793226D02*
G75*
G03X14258798Y-8793226I-39878J0D01*
G01*
X14258798Y-8993378D02*
G75*
G03X14258798Y-8993378I-39878J0D01*
G01*
X14258798Y-9193022D02*
G75*
G03X14258798Y-9193022I-39878J0D01*
G01*
X14258798Y-9393174D02*
G75*
G03X14258798Y-9393174I-39878J0D01*
G01*
X17073118Y-8793226D02*
G75*
G03X17073118Y-8793226I-39878J0D01*
G01*
X17073118Y-8993378D02*
G75*
G03X17073118Y-8993378I-39878J0D01*
G01*
X17073118Y-9193022D02*
G75*
G03X17073118Y-9193022I-39878J0D01*
G01*
X17073118Y-9393174D02*
G75*
G03X17073118Y-9393174I-39878J0D01*
G01*
X14965680Y-7401560D02*
X14965680Y-7503160D01*
X14914880Y-7452360D02*
X15016480Y-7452360D01*
X15219680Y-7401560D02*
X15219680Y-7503160D01*
X15168880Y-7452360D02*
X15270480Y-7452360D01*
X15473680Y-7401560D02*
X15473680Y-7503160D01*
X15422880Y-7452360D02*
X15524480Y-7452360D01*
X15727680Y-7401560D02*
X15727680Y-7503160D01*
X15676880Y-7452360D02*
X15778480Y-7452360D01*
X15981680Y-7401560D02*
X15981680Y-7503160D01*
X15930880Y-7452360D02*
X16032480Y-7452360D01*
X16235680Y-7401560D02*
X16235680Y-7503160D01*
X16184880Y-7452360D02*
X16286480Y-7452360D01*
X14965680Y-6182200D02*
X14965680Y-6283800D01*
X14914880Y-6233000D02*
X15016480Y-6233000D01*
X15219680Y-6182200D02*
X15219680Y-6283800D01*
X15168880Y-6233000D02*
X15270480Y-6233000D01*
X15473680Y-6182200D02*
X15473680Y-6283800D01*
X15422880Y-6233000D02*
X15524480Y-6233000D01*
X15727680Y-6182200D02*
X15727680Y-6283800D01*
X15676880Y-6233000D02*
X15778480Y-6233000D01*
X15981680Y-6182200D02*
X15981680Y-6283800D01*
X15930880Y-6233000D02*
X16032480Y-6233000D01*
X16235680Y-6182200D02*
X16235680Y-6283800D01*
X16184880Y-6233000D02*
X16286480Y-6233000D01*
X16266160Y-8067040D02*
X16266160Y-8168640D01*
X16215360Y-8117840D02*
X16316960Y-8117840D01*
X16266160Y-8321040D02*
X16266160Y-8422640D01*
X16215360Y-8371840D02*
X16316960Y-8371840D01*
X16266160Y-8575040D02*
X16266160Y-8676640D01*
X16215360Y-8625840D02*
X16316960Y-8625840D01*
X16266160Y-8829040D02*
X16266160Y-8930640D01*
X16215360Y-8879840D02*
X16316960Y-8879840D01*
X16266160Y-9083040D02*
X16266160Y-9184640D01*
X16215360Y-9133840D02*
X16316960Y-9133840D01*
X16266160Y-9337040D02*
X16266160Y-9438640D01*
X16215360Y-9387840D02*
X16316960Y-9387840D01*
X16266160Y-9591040D02*
X16266160Y-9692640D01*
X16215360Y-9641840D02*
X16316960Y-9641840D01*
X16266160Y-9845040D02*
X16266160Y-9946640D01*
X16215360Y-9895840D02*
X16316960Y-9895840D01*
X16266160Y-10099040D02*
X16266160Y-10200640D01*
X16215360Y-10149840D02*
X16316960Y-10149840D01*
X16266160Y-10353040D02*
X16266160Y-10454640D01*
X16215360Y-10403840D02*
X16316960Y-10403840D01*
X14296427Y-6674427D02*
X14296427Y-6589573D01*
X14211573Y-6589573D01*
X14211573Y-6674427D01*
X14296427Y-6674427D01*
X14296427Y-7024427D02*
X14296427Y-6939573D01*
X14211573Y-6939573D01*
X14211573Y-7024427D01*
X14296427Y-7024427D01*
X17001427Y-6674427D02*
X17001427Y-6589573D01*
X16916573Y-6589573D01*
X16916573Y-6674427D01*
X17001427Y-6674427D01*
X17001427Y-7024427D02*
X17001427Y-6939573D01*
X16916573Y-6939573D01*
X16916573Y-7024427D01*
X17001427Y-7024427D01*
X15021160Y-8217840D02*
X15121160Y-8117840D01*
X15021160Y-8017840D01*
X14921160Y-8117840D01*
X15021160Y-8217840D01*
X15021160Y-10503840D02*
X15121160Y-10403840D01*
X15021160Y-10303840D01*
X14921160Y-10403840D01*
X15021160Y-10503840D01*
D12*
X14022228Y-11818914D02*
X14022228Y-11518914D01*
X14093657Y-11518914D01*
X14136514Y-11533200D01*
X14165086Y-11561771D01*
X14179371Y-11590343D01*
X14193657Y-11647486D01*
X14193657Y-11690343D01*
X14179371Y-11747486D01*
X14165086Y-11776057D01*
X14136514Y-11804629D01*
X14093657Y-11818914D01*
X14022228Y-11818914D01*
X14322228Y-11818914D02*
X14322228Y-11618914D01*
X14322228Y-11676057D02*
X14336514Y-11647486D01*
X14350800Y-11633200D01*
X14379371Y-11618914D01*
X14407943Y-11618914D01*
X14507943Y-11818914D02*
X14507943Y-11618914D01*
X14507943Y-11518914D02*
X14493657Y-11533200D01*
X14507943Y-11547486D01*
X14522228Y-11533200D01*
X14507943Y-11518914D01*
X14507943Y-11547486D01*
X14693657Y-11818914D02*
X14665086Y-11804629D01*
X14650800Y-11776057D01*
X14650800Y-11518914D01*
X14850800Y-11818914D02*
X14822228Y-11804629D01*
X14807943Y-11776057D01*
X14807943Y-11518914D01*
X15193657Y-11818914D02*
X15193657Y-11518914D01*
X15293657Y-11733200D01*
X15393657Y-11518914D01*
X15393657Y-11818914D01*
X15665086Y-11818914D02*
X15665086Y-11661771D01*
X15650800Y-11633200D01*
X15622228Y-11618914D01*
X15565086Y-11618914D01*
X15536514Y-11633200D01*
X15665086Y-11804629D02*
X15636514Y-11818914D01*
X15565086Y-11818914D01*
X15536514Y-11804629D01*
X15522228Y-11776057D01*
X15522228Y-11747486D01*
X15536514Y-11718914D01*
X15565086Y-11704629D01*
X15636514Y-11704629D01*
X15665086Y-11690343D01*
X15807943Y-11618914D02*
X15807943Y-11918914D01*
X15807943Y-11633200D02*
X15836514Y-11618914D01*
X15893657Y-11618914D01*
X15922228Y-11633200D01*
X15936514Y-11647486D01*
X15950800Y-11676057D01*
X15950800Y-11761771D01*
X15936514Y-11790343D01*
X15922228Y-11804629D01*
X15893657Y-11818914D01*
X15836514Y-11818914D01*
X15807943Y-11804629D01*
X16079371Y-11790343D02*
X16093657Y-11804629D01*
X16079371Y-11818914D01*
X16065086Y-11804629D01*
X16079371Y-11790343D01*
X16079371Y-11818914D01*
X16079371Y-11633200D02*
X16093657Y-11647486D01*
X16079371Y-11661771D01*
X16065086Y-11647486D01*
X16079371Y-11633200D01*
X16079371Y-11661771D01*
X13695800Y-12293200D02*
X13735800Y-12333200D01*
X13735800Y-12293200D02*
X13695800Y-12333200D01*
X14079371Y-12148914D02*
X14107943Y-12148914D01*
X14136514Y-12163200D01*
X14150800Y-12177486D01*
X14165086Y-12206057D01*
X14179371Y-12263200D01*
X14179371Y-12334629D01*
X14165086Y-12391771D01*
X14150800Y-12420343D01*
X14136514Y-12434629D01*
X14107943Y-12448914D01*
X14079371Y-12448914D01*
X14050800Y-12434629D01*
X14036514Y-12420343D01*
X14022228Y-12391771D01*
X14007943Y-12334629D01*
X14007943Y-12263200D01*
X14022228Y-12206057D01*
X14036514Y-12177486D01*
X14050800Y-12163200D01*
X14079371Y-12148914D01*
X14307943Y-12420343D02*
X14322228Y-12434629D01*
X14307943Y-12448914D01*
X14293657Y-12434629D01*
X14307943Y-12420343D01*
X14307943Y-12448914D01*
X14579371Y-12248914D02*
X14579371Y-12448914D01*
X14507943Y-12134629D02*
X14436514Y-12348914D01*
X14622228Y-12348914D01*
X14793657Y-12148914D02*
X14822228Y-12148914D01*
X14850800Y-12163200D01*
X14865086Y-12177486D01*
X14879371Y-12206057D01*
X14893657Y-12263200D01*
X14893657Y-12334629D01*
X14879371Y-12391771D01*
X14865086Y-12420343D01*
X14850800Y-12434629D01*
X14822228Y-12448914D01*
X14793657Y-12448914D01*
X14765086Y-12434629D01*
X14750800Y-12420343D01*
X14736514Y-12391771D01*
X14722228Y-12334629D01*
X14722228Y-12263200D01*
X14736514Y-12206057D01*
X14750800Y-12177486D01*
X14765086Y-12163200D01*
X14793657Y-12148914D01*
X15022228Y-12448914D02*
X15022228Y-12248914D01*
X15022228Y-12277486D02*
X15036514Y-12263200D01*
X15065086Y-12248914D01*
X15107943Y-12248914D01*
X15136514Y-12263200D01*
X15150800Y-12291771D01*
X15150800Y-12448914D01*
X15150800Y-12291771D02*
X15165086Y-12263200D01*
X15193657Y-12248914D01*
X15236514Y-12248914D01*
X15265086Y-12263200D01*
X15279371Y-12291771D01*
X15279371Y-12448914D01*
X15422228Y-12448914D02*
X15422228Y-12248914D01*
X15422228Y-12277486D02*
X15436514Y-12263200D01*
X15465086Y-12248914D01*
X15507943Y-12248914D01*
X15536514Y-12263200D01*
X15550800Y-12291771D01*
X15550800Y-12448914D01*
X15550800Y-12291771D02*
X15565086Y-12263200D01*
X15593657Y-12248914D01*
X15636514Y-12248914D01*
X15665086Y-12263200D01*
X15679371Y-12291771D01*
X15679371Y-12448914D01*
X16265086Y-12134629D02*
X16007943Y-12520343D01*
X16650800Y-12148914D02*
X16679371Y-12148914D01*
X16707943Y-12163200D01*
X16722228Y-12177486D01*
X16736514Y-12206057D01*
X16750800Y-12263200D01*
X16750800Y-12334629D01*
X16736514Y-12391771D01*
X16722228Y-12420343D01*
X16707943Y-12434629D01*
X16679371Y-12448914D01*
X16650800Y-12448914D01*
X16622228Y-12434629D01*
X16607943Y-12420343D01*
X16593657Y-12391771D01*
X16579371Y-12334629D01*
X16579371Y-12263200D01*
X16593657Y-12206057D01*
X16607943Y-12177486D01*
X16622228Y-12163200D01*
X16650800Y-12148914D01*
X16879371Y-12420343D02*
X16893657Y-12434629D01*
X16879371Y-12448914D01*
X16865086Y-12434629D01*
X16879371Y-12420343D01*
X16879371Y-12448914D01*
X17079371Y-12148914D02*
X17107943Y-12148914D01*
X17136514Y-12163200D01*
X17150800Y-12177486D01*
X17165086Y-12206057D01*
X17179371Y-12263200D01*
X17179371Y-12334629D01*
X17165086Y-12391771D01*
X17150800Y-12420343D01*
X17136514Y-12434629D01*
X17107943Y-12448914D01*
X17079371Y-12448914D01*
X17050800Y-12434629D01*
X17036514Y-12420343D01*
X17022228Y-12391771D01*
X17007943Y-12334629D01*
X17007943Y-12263200D01*
X17022228Y-12206057D01*
X17036514Y-12177486D01*
X17050800Y-12163200D01*
X17079371Y-12148914D01*
X17465086Y-12448914D02*
X17293657Y-12448914D01*
X17379371Y-12448914D02*
X17379371Y-12148914D01*
X17350800Y-12191771D01*
X17322228Y-12220343D01*
X17293657Y-12234629D01*
X17722228Y-12148914D02*
X17665086Y-12148914D01*
X17636514Y-12163200D01*
X17622228Y-12177486D01*
X17593657Y-12220343D01*
X17579371Y-12277486D01*
X17579371Y-12391771D01*
X17593657Y-12420343D01*
X17607943Y-12434629D01*
X17636514Y-12448914D01*
X17693657Y-12448914D01*
X17722228Y-12434629D01*
X17736514Y-12420343D01*
X17750800Y-12391771D01*
X17750800Y-12320343D01*
X17736514Y-12291771D01*
X17722228Y-12277486D01*
X17693657Y-12263200D01*
X17636514Y-12263200D01*
X17607943Y-12277486D01*
X17593657Y-12291771D01*
X17579371Y-12320343D01*
X17865086Y-12148914D02*
X17865086Y-12206057D01*
X17979371Y-12148914D02*
X17979371Y-12206057D01*
X18422228Y-12563200D02*
X18407943Y-12548914D01*
X18379371Y-12506057D01*
X18365086Y-12477486D01*
X18350800Y-12434629D01*
X18336514Y-12363200D01*
X18336514Y-12306057D01*
X18350800Y-12234629D01*
X18365086Y-12191771D01*
X18379371Y-12163200D01*
X18407943Y-12120343D01*
X18422228Y-12106057D01*
X18522228Y-12177486D02*
X18536514Y-12163200D01*
X18565086Y-12148914D01*
X18636514Y-12148914D01*
X18665086Y-12163200D01*
X18679371Y-12177486D01*
X18693657Y-12206057D01*
X18693657Y-12234629D01*
X18679371Y-12277486D01*
X18507943Y-12448914D01*
X18693657Y-12448914D01*
X18793657Y-12148914D02*
X18979371Y-12148914D01*
X18879371Y-12263200D01*
X18922228Y-12263200D01*
X18950800Y-12277486D01*
X18965086Y-12291771D01*
X18979371Y-12320343D01*
X18979371Y-12391771D01*
X18965086Y-12420343D01*
X18950800Y-12434629D01*
X18922228Y-12448914D01*
X18836514Y-12448914D01*
X18807943Y-12434629D01*
X18793657Y-12420343D01*
X19336514Y-12448914D02*
X19336514Y-12148914D01*
X19465086Y-12448914D02*
X19465086Y-12291771D01*
X19450800Y-12263200D01*
X19422228Y-12248914D01*
X19379371Y-12248914D01*
X19350800Y-12263200D01*
X19336514Y-12277486D01*
X19650800Y-12448914D02*
X19622228Y-12434629D01*
X19607943Y-12420343D01*
X19593657Y-12391771D01*
X19593657Y-12306057D01*
X19607943Y-12277486D01*
X19622228Y-12263200D01*
X19650800Y-12248914D01*
X19693657Y-12248914D01*
X19722228Y-12263200D01*
X19736514Y-12277486D01*
X19750800Y-12306057D01*
X19750800Y-12391771D01*
X19736514Y-12420343D01*
X19722228Y-12434629D01*
X19693657Y-12448914D01*
X19650800Y-12448914D01*
X19922228Y-12448914D02*
X19893657Y-12434629D01*
X19879371Y-12406057D01*
X19879371Y-12148914D01*
X20150800Y-12434629D02*
X20122228Y-12448914D01*
X20065086Y-12448914D01*
X20036514Y-12434629D01*
X20022228Y-12406057D01*
X20022228Y-12291771D01*
X20036514Y-12263200D01*
X20065086Y-12248914D01*
X20122228Y-12248914D01*
X20150800Y-12263200D01*
X20165086Y-12291771D01*
X20165086Y-12320343D01*
X20022228Y-12348914D01*
X20279371Y-12434629D02*
X20307943Y-12448914D01*
X20365086Y-12448914D01*
X20393657Y-12434629D01*
X20407943Y-12406057D01*
X20407943Y-12391771D01*
X20393657Y-12363200D01*
X20365086Y-12348914D01*
X20322228Y-12348914D01*
X20293657Y-12334629D01*
X20279371Y-12306057D01*
X20279371Y-12291771D01*
X20293657Y-12263200D01*
X20322228Y-12248914D01*
X20365086Y-12248914D01*
X20393657Y-12263200D01*
X20507943Y-12563200D02*
X20522228Y-12548914D01*
X20550800Y-12506057D01*
X20565086Y-12477486D01*
X20579371Y-12434629D01*
X20593657Y-12363200D01*
X20593657Y-12306057D01*
X20579371Y-12234629D01*
X20565086Y-12191771D01*
X20550800Y-12163200D01*
X20522228Y-12120343D01*
X20507943Y-12106057D01*
X13735800Y-12709200D02*
G75*
G03X13735800Y-12709200I-39878J0D01*
G01*
X14079371Y-12544914D02*
X14107943Y-12544914D01*
X14136514Y-12559200D01*
X14150800Y-12573486D01*
X14165086Y-12602057D01*
X14179371Y-12659200D01*
X14179371Y-12730629D01*
X14165086Y-12787771D01*
X14150800Y-12816343D01*
X14136514Y-12830629D01*
X14107943Y-12844914D01*
X14079371Y-12844914D01*
X14050800Y-12830629D01*
X14036514Y-12816343D01*
X14022228Y-12787771D01*
X14007943Y-12730629D01*
X14007943Y-12659200D01*
X14022228Y-12602057D01*
X14036514Y-12573486D01*
X14050800Y-12559200D01*
X14079371Y-12544914D01*
X14307943Y-12816343D02*
X14322228Y-12830629D01*
X14307943Y-12844914D01*
X14293657Y-12830629D01*
X14307943Y-12816343D01*
X14307943Y-12844914D01*
X14493657Y-12673486D02*
X14465086Y-12659200D01*
X14450800Y-12644914D01*
X14436514Y-12616343D01*
X14436514Y-12602057D01*
X14450800Y-12573486D01*
X14465086Y-12559200D01*
X14493657Y-12544914D01*
X14550800Y-12544914D01*
X14579371Y-12559200D01*
X14593657Y-12573486D01*
X14607943Y-12602057D01*
X14607943Y-12616343D01*
X14593657Y-12644914D01*
X14579371Y-12659200D01*
X14550800Y-12673486D01*
X14493657Y-12673486D01*
X14465086Y-12687771D01*
X14450800Y-12702057D01*
X14436514Y-12730629D01*
X14436514Y-12787771D01*
X14450800Y-12816343D01*
X14465086Y-12830629D01*
X14493657Y-12844914D01*
X14550800Y-12844914D01*
X14579371Y-12830629D01*
X14593657Y-12816343D01*
X14607943Y-12787771D01*
X14607943Y-12730629D01*
X14593657Y-12702057D01*
X14579371Y-12687771D01*
X14550800Y-12673486D01*
X14793657Y-12544914D02*
X14822228Y-12544914D01*
X14850800Y-12559200D01*
X14865086Y-12573486D01*
X14879371Y-12602057D01*
X14893657Y-12659200D01*
X14893657Y-12730629D01*
X14879371Y-12787771D01*
X14865086Y-12816343D01*
X14850800Y-12830629D01*
X14822228Y-12844914D01*
X14793657Y-12844914D01*
X14765086Y-12830629D01*
X14750800Y-12816343D01*
X14736514Y-12787771D01*
X14722228Y-12730629D01*
X14722228Y-12659200D01*
X14736514Y-12602057D01*
X14750800Y-12573486D01*
X14765086Y-12559200D01*
X14793657Y-12544914D01*
X15022228Y-12844914D02*
X15022228Y-12644914D01*
X15022228Y-12673486D02*
X15036514Y-12659200D01*
X15065086Y-12644914D01*
X15107943Y-12644914D01*
X15136514Y-12659200D01*
X15150800Y-12687771D01*
X15150800Y-12844914D01*
X15150800Y-12687771D02*
X15165086Y-12659200D01*
X15193657Y-12644914D01*
X15236514Y-12644914D01*
X15265086Y-12659200D01*
X15279371Y-12687771D01*
X15279371Y-12844914D01*
X15422228Y-12844914D02*
X15422228Y-12644914D01*
X15422228Y-12673486D02*
X15436514Y-12659200D01*
X15465086Y-12644914D01*
X15507943Y-12644914D01*
X15536514Y-12659200D01*
X15550800Y-12687771D01*
X15550800Y-12844914D01*
X15550800Y-12687771D02*
X15565086Y-12659200D01*
X15593657Y-12644914D01*
X15636514Y-12644914D01*
X15665086Y-12659200D01*
X15679371Y-12687771D01*
X15679371Y-12844914D01*
X16265086Y-12530629D02*
X16007943Y-12916343D01*
X16650800Y-12544914D02*
X16679371Y-12544914D01*
X16707943Y-12559200D01*
X16722228Y-12573486D01*
X16736514Y-12602057D01*
X16750800Y-12659200D01*
X16750800Y-12730629D01*
X16736514Y-12787771D01*
X16722228Y-12816343D01*
X16707943Y-12830629D01*
X16679371Y-12844914D01*
X16650800Y-12844914D01*
X16622228Y-12830629D01*
X16607943Y-12816343D01*
X16593657Y-12787771D01*
X16579371Y-12730629D01*
X16579371Y-12659200D01*
X16593657Y-12602057D01*
X16607943Y-12573486D01*
X16622228Y-12559200D01*
X16650800Y-12544914D01*
X16879371Y-12816343D02*
X16893657Y-12830629D01*
X16879371Y-12844914D01*
X16865086Y-12830629D01*
X16879371Y-12816343D01*
X16879371Y-12844914D01*
X17079371Y-12544914D02*
X17107943Y-12544914D01*
X17136514Y-12559200D01*
X17150800Y-12573486D01*
X17165086Y-12602057D01*
X17179371Y-12659200D01*
X17179371Y-12730629D01*
X17165086Y-12787771D01*
X17150800Y-12816343D01*
X17136514Y-12830629D01*
X17107943Y-12844914D01*
X17079371Y-12844914D01*
X17050800Y-12830629D01*
X17036514Y-12816343D01*
X17022228Y-12787771D01*
X17007943Y-12730629D01*
X17007943Y-12659200D01*
X17022228Y-12602057D01*
X17036514Y-12573486D01*
X17050800Y-12559200D01*
X17079371Y-12544914D01*
X17279371Y-12544914D02*
X17465086Y-12544914D01*
X17365086Y-12659200D01*
X17407943Y-12659200D01*
X17436514Y-12673486D01*
X17450800Y-12687771D01*
X17465086Y-12716343D01*
X17465086Y-12787771D01*
X17450800Y-12816343D01*
X17436514Y-12830629D01*
X17407943Y-12844914D01*
X17322228Y-12844914D01*
X17293657Y-12830629D01*
X17279371Y-12816343D01*
X17750800Y-12844914D02*
X17579371Y-12844914D01*
X17665086Y-12844914D02*
X17665086Y-12544914D01*
X17636514Y-12587771D01*
X17607943Y-12616343D01*
X17579371Y-12630629D01*
X17865086Y-12544914D02*
X17865086Y-12602057D01*
X17979371Y-12544914D02*
X17979371Y-12602057D01*
X18422228Y-12959200D02*
X18407943Y-12944914D01*
X18379371Y-12902057D01*
X18365086Y-12873486D01*
X18350800Y-12830629D01*
X18336514Y-12759200D01*
X18336514Y-12702057D01*
X18350800Y-12630629D01*
X18365086Y-12587771D01*
X18379371Y-12559200D01*
X18407943Y-12516343D01*
X18422228Y-12502057D01*
X18579371Y-12673486D02*
X18550800Y-12659200D01*
X18536514Y-12644914D01*
X18522228Y-12616343D01*
X18522228Y-12602057D01*
X18536514Y-12573486D01*
X18550800Y-12559200D01*
X18579371Y-12544914D01*
X18636514Y-12544914D01*
X18665086Y-12559200D01*
X18679371Y-12573486D01*
X18693657Y-12602057D01*
X18693657Y-12616343D01*
X18679371Y-12644914D01*
X18665086Y-12659200D01*
X18636514Y-12673486D01*
X18579371Y-12673486D01*
X18550800Y-12687771D01*
X18536514Y-12702057D01*
X18522228Y-12730629D01*
X18522228Y-12787771D01*
X18536514Y-12816343D01*
X18550800Y-12830629D01*
X18579371Y-12844914D01*
X18636514Y-12844914D01*
X18665086Y-12830629D01*
X18679371Y-12816343D01*
X18693657Y-12787771D01*
X18693657Y-12730629D01*
X18679371Y-12702057D01*
X18665086Y-12687771D01*
X18636514Y-12673486D01*
X19050800Y-12844914D02*
X19050800Y-12544914D01*
X19179371Y-12844914D02*
X19179371Y-12687771D01*
X19165086Y-12659200D01*
X19136514Y-12644914D01*
X19093657Y-12644914D01*
X19065086Y-12659200D01*
X19050800Y-12673486D01*
X19365086Y-12844914D02*
X19336514Y-12830629D01*
X19322228Y-12816343D01*
X19307943Y-12787771D01*
X19307943Y-12702057D01*
X19322228Y-12673486D01*
X19336514Y-12659200D01*
X19365086Y-12644914D01*
X19407943Y-12644914D01*
X19436514Y-12659200D01*
X19450800Y-12673486D01*
X19465086Y-12702057D01*
X19465086Y-12787771D01*
X19450800Y-12816343D01*
X19436514Y-12830629D01*
X19407943Y-12844914D01*
X19365086Y-12844914D01*
X19636514Y-12844914D02*
X19607943Y-12830629D01*
X19593657Y-12802057D01*
X19593657Y-12544914D01*
X19865086Y-12830629D02*
X19836514Y-12844914D01*
X19779371Y-12844914D01*
X19750800Y-12830629D01*
X19736514Y-12802057D01*
X19736514Y-12687771D01*
X19750800Y-12659200D01*
X19779371Y-12644914D01*
X19836514Y-12644914D01*
X19865086Y-12659200D01*
X19879371Y-12687771D01*
X19879371Y-12716343D01*
X19736514Y-12744914D01*
X19993657Y-12830629D02*
X20022228Y-12844914D01*
X20079371Y-12844914D01*
X20107943Y-12830629D01*
X20122228Y-12802057D01*
X20122228Y-12787771D01*
X20107943Y-12759200D01*
X20079371Y-12744914D01*
X20036514Y-12744914D01*
X20007943Y-12730629D01*
X19993657Y-12702057D01*
X19993657Y-12687771D01*
X20007943Y-12659200D01*
X20036514Y-12644914D01*
X20079371Y-12644914D01*
X20107943Y-12659200D01*
X20222228Y-12959200D02*
X20236514Y-12944914D01*
X20265086Y-12902057D01*
X20279371Y-12873486D01*
X20293657Y-12830629D01*
X20307943Y-12759200D01*
X20307943Y-12702057D01*
X20293657Y-12630629D01*
X20279371Y-12587771D01*
X20265086Y-12559200D01*
X20236514Y-12516343D01*
X20222228Y-12502057D01*
X13685000Y-13054400D02*
X13685000Y-13156000D01*
X13634200Y-13105200D02*
X13735800Y-13105200D01*
X14179371Y-13240914D02*
X14007943Y-13240914D01*
X14093657Y-13240914D02*
X14093657Y-12940914D01*
X14065086Y-12983771D01*
X14036514Y-13012343D01*
X14007943Y-13026629D01*
X14307943Y-13212343D02*
X14322228Y-13226629D01*
X14307943Y-13240914D01*
X14293657Y-13226629D01*
X14307943Y-13212343D01*
X14307943Y-13240914D01*
X14507943Y-12940914D02*
X14536514Y-12940914D01*
X14565086Y-12955200D01*
X14579371Y-12969486D01*
X14593657Y-12998057D01*
X14607943Y-13055200D01*
X14607943Y-13126629D01*
X14593657Y-13183771D01*
X14579371Y-13212343D01*
X14565086Y-13226629D01*
X14536514Y-13240914D01*
X14507943Y-13240914D01*
X14479371Y-13226629D01*
X14465086Y-13212343D01*
X14450800Y-13183771D01*
X14436514Y-13126629D01*
X14436514Y-13055200D01*
X14450800Y-12998057D01*
X14465086Y-12969486D01*
X14479371Y-12955200D01*
X14507943Y-12940914D01*
X14722228Y-12969486D02*
X14736514Y-12955200D01*
X14765086Y-12940914D01*
X14836514Y-12940914D01*
X14865086Y-12955200D01*
X14879371Y-12969486D01*
X14893657Y-12998057D01*
X14893657Y-13026629D01*
X14879371Y-13069486D01*
X14707943Y-13240914D01*
X14893657Y-13240914D01*
X15022228Y-13240914D02*
X15022228Y-13040914D01*
X15022228Y-13069486D02*
X15036514Y-13055200D01*
X15065086Y-13040914D01*
X15107943Y-13040914D01*
X15136514Y-13055200D01*
X15150800Y-13083771D01*
X15150800Y-13240914D01*
X15150800Y-13083771D02*
X15165086Y-13055200D01*
X15193657Y-13040914D01*
X15236514Y-13040914D01*
X15265086Y-13055200D01*
X15279371Y-13083771D01*
X15279371Y-13240914D01*
X15422228Y-13240914D02*
X15422228Y-13040914D01*
X15422228Y-13069486D02*
X15436514Y-13055200D01*
X15465086Y-13040914D01*
X15507943Y-13040914D01*
X15536514Y-13055200D01*
X15550800Y-13083771D01*
X15550800Y-13240914D01*
X15550800Y-13083771D02*
X15565086Y-13055200D01*
X15593657Y-13040914D01*
X15636514Y-13040914D01*
X15665086Y-13055200D01*
X15679371Y-13083771D01*
X15679371Y-13240914D01*
X16265086Y-12926629D02*
X16007943Y-13312343D01*
X16650800Y-12940914D02*
X16679371Y-12940914D01*
X16707943Y-12955200D01*
X16722228Y-12969486D01*
X16736514Y-12998057D01*
X16750800Y-13055200D01*
X16750800Y-13126629D01*
X16736514Y-13183771D01*
X16722228Y-13212343D01*
X16707943Y-13226629D01*
X16679371Y-13240914D01*
X16650800Y-13240914D01*
X16622228Y-13226629D01*
X16607943Y-13212343D01*
X16593657Y-13183771D01*
X16579371Y-13126629D01*
X16579371Y-13055200D01*
X16593657Y-12998057D01*
X16607943Y-12969486D01*
X16622228Y-12955200D01*
X16650800Y-12940914D01*
X16879371Y-13212343D02*
X16893657Y-13226629D01*
X16879371Y-13240914D01*
X16865086Y-13226629D01*
X16879371Y-13212343D01*
X16879371Y-13240914D01*
X17079371Y-12940914D02*
X17107943Y-12940914D01*
X17136514Y-12955200D01*
X17150800Y-12969486D01*
X17165086Y-12998057D01*
X17179371Y-13055200D01*
X17179371Y-13126629D01*
X17165086Y-13183771D01*
X17150800Y-13212343D01*
X17136514Y-13226629D01*
X17107943Y-13240914D01*
X17079371Y-13240914D01*
X17050800Y-13226629D01*
X17036514Y-13212343D01*
X17022228Y-13183771D01*
X17007943Y-13126629D01*
X17007943Y-13055200D01*
X17022228Y-12998057D01*
X17036514Y-12969486D01*
X17050800Y-12955200D01*
X17079371Y-12940914D01*
X17436514Y-13040914D02*
X17436514Y-13240914D01*
X17365086Y-12926629D02*
X17293657Y-13140914D01*
X17479371Y-13140914D01*
X17650800Y-12940914D02*
X17679371Y-12940914D01*
X17707943Y-12955200D01*
X17722228Y-12969486D01*
X17736514Y-12998057D01*
X17750800Y-13055200D01*
X17750800Y-13126629D01*
X17736514Y-13183771D01*
X17722228Y-13212343D01*
X17707943Y-13226629D01*
X17679371Y-13240914D01*
X17650800Y-13240914D01*
X17622228Y-13226629D01*
X17607943Y-13212343D01*
X17593657Y-13183771D01*
X17579371Y-13126629D01*
X17579371Y-13055200D01*
X17593657Y-12998057D01*
X17607943Y-12969486D01*
X17622228Y-12955200D01*
X17650800Y-12940914D01*
X17865086Y-12940914D02*
X17865086Y-12998057D01*
X17979371Y-12940914D02*
X17979371Y-12998057D01*
X18422228Y-13355200D02*
X18407943Y-13340914D01*
X18379371Y-13298057D01*
X18365086Y-13269486D01*
X18350800Y-13226629D01*
X18336514Y-13155200D01*
X18336514Y-13098057D01*
X18350800Y-13026629D01*
X18365086Y-12983771D01*
X18379371Y-12955200D01*
X18407943Y-12912343D01*
X18422228Y-12898057D01*
X18522228Y-12969486D02*
X18536514Y-12955200D01*
X18565086Y-12940914D01*
X18636514Y-12940914D01*
X18665086Y-12955200D01*
X18679371Y-12969486D01*
X18693657Y-12998057D01*
X18693657Y-13026629D01*
X18679371Y-13069486D01*
X18507943Y-13240914D01*
X18693657Y-13240914D01*
X18807943Y-12969486D02*
X18822228Y-12955200D01*
X18850800Y-12940914D01*
X18922228Y-12940914D01*
X18950800Y-12955200D01*
X18965086Y-12969486D01*
X18979371Y-12998057D01*
X18979371Y-13026629D01*
X18965086Y-13069486D01*
X18793657Y-13240914D01*
X18979371Y-13240914D01*
X19336514Y-13240914D02*
X19336514Y-12940914D01*
X19465086Y-13240914D02*
X19465086Y-13083771D01*
X19450800Y-13055200D01*
X19422228Y-13040914D01*
X19379371Y-13040914D01*
X19350800Y-13055200D01*
X19336514Y-13069486D01*
X19650800Y-13240914D02*
X19622228Y-13226629D01*
X19607943Y-13212343D01*
X19593657Y-13183771D01*
X19593657Y-13098057D01*
X19607943Y-13069486D01*
X19622228Y-13055200D01*
X19650800Y-13040914D01*
X19693657Y-13040914D01*
X19722228Y-13055200D01*
X19736514Y-13069486D01*
X19750800Y-13098057D01*
X19750800Y-13183771D01*
X19736514Y-13212343D01*
X19722228Y-13226629D01*
X19693657Y-13240914D01*
X19650800Y-13240914D01*
X19922228Y-13240914D02*
X19893657Y-13226629D01*
X19879371Y-13198057D01*
X19879371Y-12940914D01*
X20150800Y-13226629D02*
X20122228Y-13240914D01*
X20065086Y-13240914D01*
X20036514Y-13226629D01*
X20022228Y-13198057D01*
X20022228Y-13083771D01*
X20036514Y-13055200D01*
X20065086Y-13040914D01*
X20122228Y-13040914D01*
X20150800Y-13055200D01*
X20165086Y-13083771D01*
X20165086Y-13112343D01*
X20022228Y-13140914D01*
X20279371Y-13226629D02*
X20307943Y-13240914D01*
X20365086Y-13240914D01*
X20393657Y-13226629D01*
X20407943Y-13198057D01*
X20407943Y-13183771D01*
X20393657Y-13155200D01*
X20365086Y-13140914D01*
X20322228Y-13140914D01*
X20293657Y-13126629D01*
X20279371Y-13098057D01*
X20279371Y-13083771D01*
X20293657Y-13055200D01*
X20322228Y-13040914D01*
X20365086Y-13040914D01*
X20393657Y-13055200D01*
X20507943Y-13355200D02*
X20522228Y-13340914D01*
X20550800Y-13298057D01*
X20565086Y-13269486D01*
X20579371Y-13226629D01*
X20593657Y-13155200D01*
X20593657Y-13098057D01*
X20579371Y-13026629D01*
X20565086Y-12983771D01*
X20550800Y-12955200D01*
X20522228Y-12912343D01*
X20507943Y-12898057D01*
X13718227Y-13543627D02*
X13718227Y-13458773D01*
X13633373Y-13458773D01*
X13633373Y-13543627D01*
X13718227Y-13543627D01*
X14179371Y-13636914D02*
X14007943Y-13636914D01*
X14093657Y-13636914D02*
X14093657Y-13336914D01*
X14065086Y-13379771D01*
X14036514Y-13408343D01*
X14007943Y-13422629D01*
X14307943Y-13608343D02*
X14322228Y-13622629D01*
X14307943Y-13636914D01*
X14293657Y-13622629D01*
X14307943Y-13608343D01*
X14307943Y-13636914D01*
X14436514Y-13365486D02*
X14450800Y-13351200D01*
X14479371Y-13336914D01*
X14550800Y-13336914D01*
X14579371Y-13351200D01*
X14593657Y-13365486D01*
X14607943Y-13394057D01*
X14607943Y-13422629D01*
X14593657Y-13465486D01*
X14422228Y-13636914D01*
X14607943Y-13636914D01*
X14793657Y-13336914D02*
X14822228Y-13336914D01*
X14850800Y-13351200D01*
X14865086Y-13365486D01*
X14879371Y-13394057D01*
X14893657Y-13451200D01*
X14893657Y-13522629D01*
X14879371Y-13579771D01*
X14865086Y-13608343D01*
X14850800Y-13622629D01*
X14822228Y-13636914D01*
X14793657Y-13636914D01*
X14765086Y-13622629D01*
X14750800Y-13608343D01*
X14736514Y-13579771D01*
X14722228Y-13522629D01*
X14722228Y-13451200D01*
X14736514Y-13394057D01*
X14750800Y-13365486D01*
X14765086Y-13351200D01*
X14793657Y-13336914D01*
X15022228Y-13636914D02*
X15022228Y-13436914D01*
X15022228Y-13465486D02*
X15036514Y-13451200D01*
X15065086Y-13436914D01*
X15107943Y-13436914D01*
X15136514Y-13451200D01*
X15150800Y-13479771D01*
X15150800Y-13636914D01*
X15150800Y-13479771D02*
X15165086Y-13451200D01*
X15193657Y-13436914D01*
X15236514Y-13436914D01*
X15265086Y-13451200D01*
X15279371Y-13479771D01*
X15279371Y-13636914D01*
X15422228Y-13636914D02*
X15422228Y-13436914D01*
X15422228Y-13465486D02*
X15436514Y-13451200D01*
X15465086Y-13436914D01*
X15507943Y-13436914D01*
X15536514Y-13451200D01*
X15550800Y-13479771D01*
X15550800Y-13636914D01*
X15550800Y-13479771D02*
X15565086Y-13451200D01*
X15593657Y-13436914D01*
X15636514Y-13436914D01*
X15665086Y-13451200D01*
X15679371Y-13479771D01*
X15679371Y-13636914D01*
X16265086Y-13322629D02*
X16007943Y-13708343D01*
X16650800Y-13336914D02*
X16679371Y-13336914D01*
X16707943Y-13351200D01*
X16722228Y-13365486D01*
X16736514Y-13394057D01*
X16750800Y-13451200D01*
X16750800Y-13522629D01*
X16736514Y-13579771D01*
X16722228Y-13608343D01*
X16707943Y-13622629D01*
X16679371Y-13636914D01*
X16650800Y-13636914D01*
X16622228Y-13622629D01*
X16607943Y-13608343D01*
X16593657Y-13579771D01*
X16579371Y-13522629D01*
X16579371Y-13451200D01*
X16593657Y-13394057D01*
X16607943Y-13365486D01*
X16622228Y-13351200D01*
X16650800Y-13336914D01*
X16879371Y-13608343D02*
X16893657Y-13622629D01*
X16879371Y-13636914D01*
X16865086Y-13622629D01*
X16879371Y-13608343D01*
X16879371Y-13636914D01*
X17079371Y-13336914D02*
X17107943Y-13336914D01*
X17136514Y-13351200D01*
X17150800Y-13365486D01*
X17165086Y-13394057D01*
X17179371Y-13451200D01*
X17179371Y-13522629D01*
X17165086Y-13579771D01*
X17150800Y-13608343D01*
X17136514Y-13622629D01*
X17107943Y-13636914D01*
X17079371Y-13636914D01*
X17050800Y-13622629D01*
X17036514Y-13608343D01*
X17022228Y-13579771D01*
X17007943Y-13522629D01*
X17007943Y-13451200D01*
X17022228Y-13394057D01*
X17036514Y-13365486D01*
X17050800Y-13351200D01*
X17079371Y-13336914D01*
X17436514Y-13436914D02*
X17436514Y-13636914D01*
X17365086Y-13322629D02*
X17293657Y-13536914D01*
X17479371Y-13536914D01*
X17565086Y-13336914D02*
X17765086Y-13336914D01*
X17636514Y-13636914D01*
X17865086Y-13336914D02*
X17865086Y-13394057D01*
X17979371Y-13336914D02*
X17979371Y-13394057D01*
X18422228Y-13751200D02*
X18407943Y-13736914D01*
X18379371Y-13694057D01*
X18365086Y-13665486D01*
X18350800Y-13622629D01*
X18336514Y-13551200D01*
X18336514Y-13494057D01*
X18350800Y-13422629D01*
X18365086Y-13379771D01*
X18379371Y-13351200D01*
X18407943Y-13308343D01*
X18422228Y-13294057D01*
X18665086Y-13436914D02*
X18665086Y-13636914D01*
X18593657Y-13322629D02*
X18522228Y-13536914D01*
X18707943Y-13536914D01*
X19050800Y-13636914D02*
X19050800Y-13336914D01*
X19179371Y-13636914D02*
X19179371Y-13479771D01*
X19165086Y-13451200D01*
X19136514Y-13436914D01*
X19093657Y-13436914D01*
X19065086Y-13451200D01*
X19050800Y-13465486D01*
X19365086Y-13636914D02*
X19336514Y-13622629D01*
X19322228Y-13608343D01*
X19307943Y-13579771D01*
X19307943Y-13494057D01*
X19322228Y-13465486D01*
X19336514Y-13451200D01*
X19365086Y-13436914D01*
X19407943Y-13436914D01*
X19436514Y-13451200D01*
X19450800Y-13465486D01*
X19465086Y-13494057D01*
X19465086Y-13579771D01*
X19450800Y-13608343D01*
X19436514Y-13622629D01*
X19407943Y-13636914D01*
X19365086Y-13636914D01*
X19636514Y-13636914D02*
X19607943Y-13622629D01*
X19593657Y-13594057D01*
X19593657Y-13336914D01*
X19865086Y-13622629D02*
X19836514Y-13636914D01*
X19779371Y-13636914D01*
X19750800Y-13622629D01*
X19736514Y-13594057D01*
X19736514Y-13479771D01*
X19750800Y-13451200D01*
X19779371Y-13436914D01*
X19836514Y-13436914D01*
X19865086Y-13451200D01*
X19879371Y-13479771D01*
X19879371Y-13508343D01*
X19736514Y-13536914D01*
X19993657Y-13622629D02*
X20022228Y-13636914D01*
X20079371Y-13636914D01*
X20107943Y-13622629D01*
X20122228Y-13594057D01*
X20122228Y-13579771D01*
X20107943Y-13551200D01*
X20079371Y-13536914D01*
X20036514Y-13536914D01*
X20007943Y-13522629D01*
X19993657Y-13494057D01*
X19993657Y-13479771D01*
X20007943Y-13451200D01*
X20036514Y-13436914D01*
X20079371Y-13436914D01*
X20107943Y-13451200D01*
X20222228Y-13751200D02*
X20236514Y-13736914D01*
X20265086Y-13694057D01*
X20279371Y-13665486D01*
X20293657Y-13622629D01*
X20307943Y-13551200D01*
X20307943Y-13494057D01*
X20293657Y-13422629D01*
X20279371Y-13379771D01*
X20265086Y-13351200D01*
X20236514Y-13308343D01*
X20222228Y-13294057D01*
X13635800Y-13997200D02*
X13735800Y-13897200D01*
X13635800Y-13797200D01*
X13535800Y-13897200D01*
X13635800Y-13997200D01*
X14007943Y-13761486D02*
X14022228Y-13747200D01*
X14050800Y-13732914D01*
X14122228Y-13732914D01*
X14150800Y-13747200D01*
X14165086Y-13761486D01*
X14179371Y-13790057D01*
X14179371Y-13818629D01*
X14165086Y-13861486D01*
X13993657Y-14032914D01*
X14179371Y-14032914D01*
X14307943Y-14004343D02*
X14322228Y-14018629D01*
X14307943Y-14032914D01*
X14293657Y-14018629D01*
X14307943Y-14004343D01*
X14307943Y-14032914D01*
X14507943Y-13732914D02*
X14536514Y-13732914D01*
X14565086Y-13747200D01*
X14579371Y-13761486D01*
X14593657Y-13790057D01*
X14607943Y-13847200D01*
X14607943Y-13918629D01*
X14593657Y-13975771D01*
X14579371Y-14004343D01*
X14565086Y-14018629D01*
X14536514Y-14032914D01*
X14507943Y-14032914D01*
X14479371Y-14018629D01*
X14465086Y-14004343D01*
X14450800Y-13975771D01*
X14436514Y-13918629D01*
X14436514Y-13847200D01*
X14450800Y-13790057D01*
X14465086Y-13761486D01*
X14479371Y-13747200D01*
X14507943Y-13732914D01*
X14793657Y-13732914D02*
X14822228Y-13732914D01*
X14850800Y-13747200D01*
X14865086Y-13761486D01*
X14879371Y-13790057D01*
X14893657Y-13847200D01*
X14893657Y-13918629D01*
X14879371Y-13975771D01*
X14865086Y-14004343D01*
X14850800Y-14018629D01*
X14822228Y-14032914D01*
X14793657Y-14032914D01*
X14765086Y-14018629D01*
X14750800Y-14004343D01*
X14736514Y-13975771D01*
X14722228Y-13918629D01*
X14722228Y-13847200D01*
X14736514Y-13790057D01*
X14750800Y-13761486D01*
X14765086Y-13747200D01*
X14793657Y-13732914D01*
X15022228Y-14032914D02*
X15022228Y-13832914D01*
X15022228Y-13861486D02*
X15036514Y-13847200D01*
X15065086Y-13832914D01*
X15107943Y-13832914D01*
X15136514Y-13847200D01*
X15150800Y-13875771D01*
X15150800Y-14032914D01*
X15150800Y-13875771D02*
X15165086Y-13847200D01*
X15193657Y-13832914D01*
X15236514Y-13832914D01*
X15265086Y-13847200D01*
X15279371Y-13875771D01*
X15279371Y-14032914D01*
X15422228Y-14032914D02*
X15422228Y-13832914D01*
X15422228Y-13861486D02*
X15436514Y-13847200D01*
X15465086Y-13832914D01*
X15507943Y-13832914D01*
X15536514Y-13847200D01*
X15550800Y-13875771D01*
X15550800Y-14032914D01*
X15550800Y-13875771D02*
X15565086Y-13847200D01*
X15593657Y-13832914D01*
X15636514Y-13832914D01*
X15665086Y-13847200D01*
X15679371Y-13875771D01*
X15679371Y-14032914D01*
X16265086Y-13718629D02*
X16007943Y-14104343D01*
X16650800Y-13732914D02*
X16679371Y-13732914D01*
X16707943Y-13747200D01*
X16722228Y-13761486D01*
X16736514Y-13790057D01*
X16750800Y-13847200D01*
X16750800Y-13918629D01*
X16736514Y-13975771D01*
X16722228Y-14004343D01*
X16707943Y-14018629D01*
X16679371Y-14032914D01*
X16650800Y-14032914D01*
X16622228Y-14018629D01*
X16607943Y-14004343D01*
X16593657Y-13975771D01*
X16579371Y-13918629D01*
X16579371Y-13847200D01*
X16593657Y-13790057D01*
X16607943Y-13761486D01*
X16622228Y-13747200D01*
X16650800Y-13732914D01*
X16879371Y-14004343D02*
X16893657Y-14018629D01*
X16879371Y-14032914D01*
X16865086Y-14018629D01*
X16879371Y-14004343D01*
X16879371Y-14032914D01*
X17079371Y-13732914D02*
X17107943Y-13732914D01*
X17136514Y-13747200D01*
X17150800Y-13761486D01*
X17165086Y-13790057D01*
X17179371Y-13847200D01*
X17179371Y-13918629D01*
X17165086Y-13975771D01*
X17150800Y-14004343D01*
X17136514Y-14018629D01*
X17107943Y-14032914D01*
X17079371Y-14032914D01*
X17050800Y-14018629D01*
X17036514Y-14004343D01*
X17022228Y-13975771D01*
X17007943Y-13918629D01*
X17007943Y-13847200D01*
X17022228Y-13790057D01*
X17036514Y-13761486D01*
X17050800Y-13747200D01*
X17079371Y-13732914D01*
X17279371Y-13732914D02*
X17479371Y-13732914D01*
X17350800Y-14032914D01*
X17607943Y-14032914D02*
X17665086Y-14032914D01*
X17693657Y-14018629D01*
X17707943Y-14004343D01*
X17736514Y-13961486D01*
X17750800Y-13904343D01*
X17750800Y-13790057D01*
X17736514Y-13761486D01*
X17722228Y-13747200D01*
X17693657Y-13732914D01*
X17636514Y-13732914D01*
X17607943Y-13747200D01*
X17593657Y-13761486D01*
X17579371Y-13790057D01*
X17579371Y-13861486D01*
X17593657Y-13890057D01*
X17607943Y-13904343D01*
X17636514Y-13918629D01*
X17693657Y-13918629D01*
X17722228Y-13904343D01*
X17736514Y-13890057D01*
X17750800Y-13861486D01*
X17865086Y-13732914D02*
X17865086Y-13790057D01*
X17979371Y-13732914D02*
X17979371Y-13790057D01*
X18422228Y-14147200D02*
X18407943Y-14132914D01*
X18379371Y-14090057D01*
X18365086Y-14061486D01*
X18350800Y-14018629D01*
X18336514Y-13947200D01*
X18336514Y-13890057D01*
X18350800Y-13818629D01*
X18365086Y-13775771D01*
X18379371Y-13747200D01*
X18407943Y-13704343D01*
X18422228Y-13690057D01*
X18522228Y-13761486D02*
X18536514Y-13747200D01*
X18565086Y-13732914D01*
X18636514Y-13732914D01*
X18665086Y-13747200D01*
X18679371Y-13761486D01*
X18693657Y-13790057D01*
X18693657Y-13818629D01*
X18679371Y-13861486D01*
X18507943Y-14032914D01*
X18693657Y-14032914D01*
X19050800Y-14032914D02*
X19050800Y-13732914D01*
X19179371Y-14032914D02*
X19179371Y-13875771D01*
X19165086Y-13847200D01*
X19136514Y-13832914D01*
X19093657Y-13832914D01*
X19065086Y-13847200D01*
X19050800Y-13861486D01*
X19365086Y-14032914D02*
X19336514Y-14018629D01*
X19322228Y-14004343D01*
X19307943Y-13975771D01*
X19307943Y-13890057D01*
X19322228Y-13861486D01*
X19336514Y-13847200D01*
X19365086Y-13832914D01*
X19407943Y-13832914D01*
X19436514Y-13847200D01*
X19450800Y-13861486D01*
X19465086Y-13890057D01*
X19465086Y-13975771D01*
X19450800Y-14004343D01*
X19436514Y-14018629D01*
X19407943Y-14032914D01*
X19365086Y-14032914D01*
X19636514Y-14032914D02*
X19607943Y-14018629D01*
X19593657Y-13990057D01*
X19593657Y-13732914D01*
X19865086Y-14018629D02*
X19836514Y-14032914D01*
X19779371Y-14032914D01*
X19750800Y-14018629D01*
X19736514Y-13990057D01*
X19736514Y-13875771D01*
X19750800Y-13847200D01*
X19779371Y-13832914D01*
X19836514Y-13832914D01*
X19865086Y-13847200D01*
X19879371Y-13875771D01*
X19879371Y-13904343D01*
X19736514Y-13932914D01*
X19993657Y-14018629D02*
X20022228Y-14032914D01*
X20079371Y-14032914D01*
X20107943Y-14018629D01*
X20122228Y-13990057D01*
X20122228Y-13975771D01*
X20107943Y-13947200D01*
X20079371Y-13932914D01*
X20036514Y-13932914D01*
X20007943Y-13918629D01*
X19993657Y-13890057D01*
X19993657Y-13875771D01*
X20007943Y-13847200D01*
X20036514Y-13832914D01*
X20079371Y-13832914D01*
X20107943Y-13847200D01*
X20222228Y-14147200D02*
X20236514Y-14132914D01*
X20265086Y-14090057D01*
X20279371Y-14061486D01*
X20293657Y-14018629D01*
X20307943Y-13947200D01*
X20307943Y-13890057D01*
X20293657Y-13818629D01*
X20279371Y-13775771D01*
X20265086Y-13747200D01*
X20236514Y-13704343D01*
X20222228Y-13690057D01*
M02*
