%FSLAX45Y45*%
G04 Gerber Fmt 4.5, Leading zero omitted, Abs format (unit mm)*
G04 Created by KiCad (PCBNEW (5.1.5-0-10_14)) date 2020-07-06 12:54:50*
%MOMM*%
%LPD*%
G04 APERTURE LIST*
%TA.AperFunction,Profile*%
%ADD10C,0.050000*%
%TD*%
%ADD11C,0.200000*%
%ADD12C,0.300000*%
G04 APERTURE END LIST*
D10*
X13738880Y-7020560D02*
X13738860Y-11461750D01*
X17195800Y-6753860D02*
X14005580Y-6753860D01*
X17462500Y-11460480D02*
X17462500Y-7020560D01*
X14005560Y-11728450D02*
X17195800Y-11727180D01*
X17195800Y-6753860D02*
G75*
G02X17462500Y-7020560I0J-266700D01*
G01*
X17462500Y-11460480D02*
G75*
G02X17195800Y-11727180I-266700J0D01*
G01*
X14005560Y-11728450D02*
G75*
G02X13738860Y-11461750I0J266700D01*
G01*
X13738880Y-7020560D02*
G75*
G02X14005580Y-6753860I266700J0D01*
G01*
X14165560Y-11461750D02*
G75*
G03X14165560Y-11461750I-160000J0D01*
G01*
X17355800Y-11460480D02*
G75*
G03X17355800Y-11460480I-160000J0D01*
G01*
X14165580Y-7020560D02*
G75*
G03X14165580Y-7020560I-160000J0D01*
G01*
X17355800Y-7020560D02*
G75*
G03X17355800Y-7020560I-160000J0D01*
G01*
D11*
D12*
X14022788Y-12196664D02*
X14022788Y-11896664D01*
X14094217Y-11896664D01*
X14137074Y-11910950D01*
X14165646Y-11939521D01*
X14179931Y-11968093D01*
X14194217Y-12025236D01*
X14194217Y-12068093D01*
X14179931Y-12125236D01*
X14165646Y-12153807D01*
X14137074Y-12182379D01*
X14094217Y-12196664D01*
X14022788Y-12196664D01*
X14322788Y-12196664D02*
X14322788Y-11996664D01*
X14322788Y-12053807D02*
X14337074Y-12025236D01*
X14351360Y-12010950D01*
X14379931Y-11996664D01*
X14408503Y-11996664D01*
X14508503Y-12196664D02*
X14508503Y-11996664D01*
X14508503Y-11896664D02*
X14494217Y-11910950D01*
X14508503Y-11925236D01*
X14522788Y-11910950D01*
X14508503Y-11896664D01*
X14508503Y-11925236D01*
X14694217Y-12196664D02*
X14665646Y-12182379D01*
X14651360Y-12153807D01*
X14651360Y-11896664D01*
X14851360Y-12196664D02*
X14822788Y-12182379D01*
X14808503Y-12153807D01*
X14808503Y-11896664D01*
X15194217Y-12196664D02*
X15194217Y-11896664D01*
X15294217Y-12110950D01*
X15394217Y-11896664D01*
X15394217Y-12196664D01*
X15665646Y-12196664D02*
X15665646Y-12039521D01*
X15651360Y-12010950D01*
X15622788Y-11996664D01*
X15565646Y-11996664D01*
X15537074Y-12010950D01*
X15665646Y-12182379D02*
X15637074Y-12196664D01*
X15565646Y-12196664D01*
X15537074Y-12182379D01*
X15522788Y-12153807D01*
X15522788Y-12125236D01*
X15537074Y-12096664D01*
X15565646Y-12082379D01*
X15637074Y-12082379D01*
X15665646Y-12068093D01*
X15808503Y-11996664D02*
X15808503Y-12296664D01*
X15808503Y-12010950D02*
X15837074Y-11996664D01*
X15894217Y-11996664D01*
X15922788Y-12010950D01*
X15937074Y-12025236D01*
X15951360Y-12053807D01*
X15951360Y-12139521D01*
X15937074Y-12168093D01*
X15922788Y-12182379D01*
X15894217Y-12196664D01*
X15837074Y-12196664D01*
X15808503Y-12182379D01*
X16079931Y-12168093D02*
X16094217Y-12182379D01*
X16079931Y-12196664D01*
X16065646Y-12182379D01*
X16079931Y-12168093D01*
X16079931Y-12196664D01*
X16079931Y-12010950D02*
X16094217Y-12025236D01*
X16079931Y-12039521D01*
X16065646Y-12025236D01*
X16079931Y-12010950D01*
X16079931Y-12039521D01*
M02*
