G04 #@! TF.GenerationSoftware,KiCad,Pcbnew,(5.1.5-0-10_14)*
G04 #@! TF.CreationDate,2020-07-07T18:08:04+02:00*
G04 #@! TF.ProjectId,smartcitizen-adc-4-ch,736d6172-7463-4697-9469-7a656e2d6164,rev?*
G04 #@! TF.SameCoordinates,Original*
G04 #@! TF.FileFunction,Legend,Bot*
G04 #@! TF.FilePolarity,Positive*
%FSLAX46Y46*%
G04 Gerber Fmt 4.6, Leading zero omitted, Abs format (unit mm)*
G04 Created by KiCad (PCBNEW (5.1.5-0-10_14)) date 2020-07-07 18:08:04*
%MOMM*%
%LPD*%
G04 APERTURE LIST*
%ADD10C,0.150000*%
%ADD11C,0.200000*%
%ADD12C,0.010000*%
%ADD13C,0.127000*%
%ADD14C,0.120000*%
G04 APERTURE END LIST*
D10*
X152659404Y-110993452D02*
X152780833Y-110952976D01*
X152983214Y-110952976D01*
X153064166Y-110993452D01*
X153104642Y-111033928D01*
X153145119Y-111114880D01*
X153145119Y-111195833D01*
X153104642Y-111276785D01*
X153064166Y-111317261D01*
X152983214Y-111357738D01*
X152821309Y-111398214D01*
X152740357Y-111438690D01*
X152699880Y-111479166D01*
X152659404Y-111560119D01*
X152659404Y-111641071D01*
X152699880Y-111722023D01*
X152740357Y-111762500D01*
X152821309Y-111802976D01*
X153023690Y-111802976D01*
X153145119Y-111762500D01*
X153509404Y-110952976D02*
X153509404Y-111519642D01*
X153509404Y-111438690D02*
X153549880Y-111479166D01*
X153630833Y-111519642D01*
X153752261Y-111519642D01*
X153833214Y-111479166D01*
X153873690Y-111398214D01*
X153873690Y-110952976D01*
X153873690Y-111398214D02*
X153914166Y-111479166D01*
X153995119Y-111519642D01*
X154116547Y-111519642D01*
X154197500Y-111479166D01*
X154237976Y-111398214D01*
X154237976Y-110952976D01*
X155007023Y-110952976D02*
X155007023Y-111398214D01*
X154966547Y-111479166D01*
X154885595Y-111519642D01*
X154723690Y-111519642D01*
X154642738Y-111479166D01*
X155007023Y-110993452D02*
X154926071Y-110952976D01*
X154723690Y-110952976D01*
X154642738Y-110993452D01*
X154602261Y-111074404D01*
X154602261Y-111155357D01*
X154642738Y-111236309D01*
X154723690Y-111276785D01*
X154926071Y-111276785D01*
X155007023Y-111317261D01*
X155411785Y-110952976D02*
X155411785Y-111519642D01*
X155411785Y-111357738D02*
X155452261Y-111438690D01*
X155492738Y-111479166D01*
X155573690Y-111519642D01*
X155654642Y-111519642D01*
X155816547Y-111519642D02*
X156140357Y-111519642D01*
X155937976Y-111802976D02*
X155937976Y-111074404D01*
X155978452Y-110993452D01*
X156059404Y-110952976D01*
X156140357Y-110952976D01*
X156909404Y-111033928D02*
X156868928Y-110993452D01*
X156747500Y-110952976D01*
X156666547Y-110952976D01*
X156545119Y-110993452D01*
X156464166Y-111074404D01*
X156423690Y-111155357D01*
X156383214Y-111317261D01*
X156383214Y-111438690D01*
X156423690Y-111600595D01*
X156464166Y-111681547D01*
X156545119Y-111762500D01*
X156666547Y-111802976D01*
X156747500Y-111802976D01*
X156868928Y-111762500D01*
X156909404Y-111722023D01*
X157273690Y-110952976D02*
X157273690Y-111519642D01*
X157273690Y-111802976D02*
X157233214Y-111762500D01*
X157273690Y-111722023D01*
X157314166Y-111762500D01*
X157273690Y-111802976D01*
X157273690Y-111722023D01*
X157557023Y-111519642D02*
X157880833Y-111519642D01*
X157678452Y-111802976D02*
X157678452Y-111074404D01*
X157718928Y-110993452D01*
X157799880Y-110952976D01*
X157880833Y-110952976D01*
X158164166Y-110952976D02*
X158164166Y-111519642D01*
X158164166Y-111802976D02*
X158123690Y-111762500D01*
X158164166Y-111722023D01*
X158204642Y-111762500D01*
X158164166Y-111802976D01*
X158164166Y-111722023D01*
X158487976Y-111519642D02*
X158933214Y-111519642D01*
X158487976Y-110952976D01*
X158933214Y-110952976D01*
X159580833Y-110993452D02*
X159499880Y-110952976D01*
X159337976Y-110952976D01*
X159257023Y-110993452D01*
X159216547Y-111074404D01*
X159216547Y-111398214D01*
X159257023Y-111479166D01*
X159337976Y-111519642D01*
X159499880Y-111519642D01*
X159580833Y-111479166D01*
X159621309Y-111398214D01*
X159621309Y-111317261D01*
X159216547Y-111236309D01*
X159985595Y-111519642D02*
X159985595Y-110952976D01*
X159985595Y-111438690D02*
X160026071Y-111479166D01*
X160107023Y-111519642D01*
X160228452Y-111519642D01*
X160309404Y-111479166D01*
X160349880Y-111398214D01*
X160349880Y-110952976D01*
X161361785Y-111195833D02*
X161766547Y-111195833D01*
X161280833Y-110952976D02*
X161564166Y-111802976D01*
X161847500Y-110952976D01*
X162090357Y-110993452D02*
X162211785Y-110952976D01*
X162414166Y-110952976D01*
X162495119Y-110993452D01*
X162535595Y-111033928D01*
X162576071Y-111114880D01*
X162576071Y-111195833D01*
X162535595Y-111276785D01*
X162495119Y-111317261D01*
X162414166Y-111357738D01*
X162252261Y-111398214D01*
X162171309Y-111438690D01*
X162130833Y-111479166D01*
X162090357Y-111560119D01*
X162090357Y-111641071D01*
X162130833Y-111722023D01*
X162171309Y-111762500D01*
X162252261Y-111802976D01*
X162454642Y-111802976D01*
X162576071Y-111762500D01*
X163223690Y-111398214D02*
X163345119Y-111357738D01*
X163385595Y-111317261D01*
X163426071Y-111236309D01*
X163426071Y-111114880D01*
X163385595Y-111033928D01*
X163345119Y-110993452D01*
X163264166Y-110952976D01*
X162940357Y-110952976D01*
X162940357Y-111802976D01*
X163223690Y-111802976D01*
X163304642Y-111762500D01*
X163345119Y-111722023D01*
X163385595Y-111641071D01*
X163385595Y-111560119D01*
X163345119Y-111479166D01*
X163304642Y-111438690D01*
X163223690Y-111398214D01*
X162940357Y-111398214D01*
X153064166Y-110094642D02*
X153064166Y-109527976D01*
X152861785Y-110418452D02*
X152659404Y-109811309D01*
X153185595Y-109811309D01*
X153509404Y-109851785D02*
X154157023Y-109851785D01*
X154926071Y-109568452D02*
X154845119Y-109527976D01*
X154683214Y-109527976D01*
X154602261Y-109568452D01*
X154561785Y-109608928D01*
X154521309Y-109689880D01*
X154521309Y-109932738D01*
X154561785Y-110013690D01*
X154602261Y-110054166D01*
X154683214Y-110094642D01*
X154845119Y-110094642D01*
X154926071Y-110054166D01*
X155290357Y-109527976D02*
X155290357Y-110377976D01*
X155654642Y-109527976D02*
X155654642Y-109973214D01*
X155614166Y-110054166D01*
X155533214Y-110094642D01*
X155411785Y-110094642D01*
X155330833Y-110054166D01*
X155290357Y-110013690D01*
X156707023Y-109527976D02*
X156707023Y-110377976D01*
X157071309Y-110297023D02*
X157111785Y-110337500D01*
X157192738Y-110377976D01*
X157395119Y-110377976D01*
X157476071Y-110337500D01*
X157516547Y-110297023D01*
X157557023Y-110216071D01*
X157557023Y-110135119D01*
X157516547Y-110013690D01*
X157030833Y-109527976D01*
X157557023Y-109527976D01*
X158407023Y-109608928D02*
X158366547Y-109568452D01*
X158245119Y-109527976D01*
X158164166Y-109527976D01*
X158042738Y-109568452D01*
X157961785Y-109649404D01*
X157921309Y-109730357D01*
X157880833Y-109892261D01*
X157880833Y-110013690D01*
X157921309Y-110175595D01*
X157961785Y-110256547D01*
X158042738Y-110337500D01*
X158164166Y-110377976D01*
X158245119Y-110377976D01*
X158366547Y-110337500D01*
X158407023Y-110297023D01*
X152699880Y-108102976D02*
X152699880Y-108952976D01*
X153064166Y-108872023D02*
X153104642Y-108912500D01*
X153185595Y-108952976D01*
X153387976Y-108952976D01*
X153468928Y-108912500D01*
X153509404Y-108872023D01*
X153549880Y-108791071D01*
X153549880Y-108710119D01*
X153509404Y-108588690D01*
X153023690Y-108102976D01*
X153549880Y-108102976D01*
X154399880Y-108183928D02*
X154359404Y-108143452D01*
X154237976Y-108102976D01*
X154157023Y-108102976D01*
X154035595Y-108143452D01*
X153954642Y-108224404D01*
X153914166Y-108305357D01*
X153873690Y-108467261D01*
X153873690Y-108588690D01*
X153914166Y-108750595D01*
X153954642Y-108831547D01*
X154035595Y-108912500D01*
X154157023Y-108952976D01*
X154237976Y-108952976D01*
X154359404Y-108912500D01*
X154399880Y-108872023D01*
X154764166Y-108183928D02*
X154804642Y-108143452D01*
X154764166Y-108102976D01*
X154723690Y-108143452D01*
X154764166Y-108183928D01*
X154764166Y-108102976D01*
X154764166Y-108629166D02*
X154804642Y-108588690D01*
X154764166Y-108548214D01*
X154723690Y-108588690D01*
X154764166Y-108629166D01*
X154764166Y-108548214D01*
X155735595Y-108952976D02*
X156261785Y-108952976D01*
X155978452Y-108629166D01*
X156099880Y-108629166D01*
X156180833Y-108588690D01*
X156221309Y-108548214D01*
X156261785Y-108467261D01*
X156261785Y-108264880D01*
X156221309Y-108183928D01*
X156180833Y-108143452D01*
X156099880Y-108102976D01*
X155857023Y-108102976D01*
X155776071Y-108143452D01*
X155735595Y-108183928D01*
X156626071Y-108183928D02*
X156666547Y-108143452D01*
X156626071Y-108102976D01*
X156585595Y-108143452D01*
X156626071Y-108183928D01*
X156626071Y-108102976D01*
X156949880Y-108952976D02*
X157476071Y-108952976D01*
X157192738Y-108629166D01*
X157314166Y-108629166D01*
X157395119Y-108588690D01*
X157435595Y-108548214D01*
X157476071Y-108467261D01*
X157476071Y-108264880D01*
X157435595Y-108183928D01*
X157395119Y-108143452D01*
X157314166Y-108102976D01*
X157071309Y-108102976D01*
X156990357Y-108143452D01*
X156949880Y-108183928D01*
X157718928Y-108952976D02*
X158002261Y-108102976D01*
X158285595Y-108952976D01*
X159095119Y-108669642D02*
X159418928Y-108669642D01*
X159216547Y-108952976D02*
X159216547Y-108224404D01*
X159257023Y-108143452D01*
X159337976Y-108102976D01*
X159418928Y-108102976D01*
X159823690Y-108102976D02*
X159742738Y-108143452D01*
X159702261Y-108183928D01*
X159661785Y-108264880D01*
X159661785Y-108507738D01*
X159702261Y-108588690D01*
X159742738Y-108629166D01*
X159823690Y-108669642D01*
X159945119Y-108669642D01*
X160026071Y-108629166D01*
X160066547Y-108588690D01*
X160107023Y-108507738D01*
X160107023Y-108264880D01*
X160066547Y-108183928D01*
X160026071Y-108143452D01*
X159945119Y-108102976D01*
X159823690Y-108102976D01*
X161118928Y-108548214D02*
X161402261Y-108548214D01*
X161523690Y-108102976D02*
X161118928Y-108102976D01*
X161118928Y-108952976D01*
X161523690Y-108952976D01*
X161807023Y-108952976D02*
X162373690Y-108102976D01*
X162373690Y-108952976D02*
X161807023Y-108102976D01*
X162576071Y-108952976D02*
X163061785Y-108952976D01*
X162818928Y-108102976D02*
X162818928Y-108952976D01*
X163345119Y-108426785D02*
X163992738Y-108426785D01*
X164276071Y-108952976D02*
X164559404Y-108102976D01*
X164842738Y-108952976D01*
X152699880Y-107123214D02*
X152983214Y-107123214D01*
X153104642Y-106677976D02*
X152699880Y-106677976D01*
X152699880Y-107527976D01*
X153104642Y-107527976D01*
X153387976Y-107527976D02*
X153954642Y-106677976D01*
X153954642Y-107527976D02*
X153387976Y-106677976D01*
X154157023Y-107527976D02*
X154642738Y-107527976D01*
X154399880Y-106677976D02*
X154399880Y-107527976D01*
X154926071Y-107001785D02*
X155573690Y-107001785D01*
X155857023Y-107527976D02*
X156140357Y-106677976D01*
X156423690Y-107527976D01*
X156707023Y-106758928D02*
X156747500Y-106718452D01*
X156707023Y-106677976D01*
X156666547Y-106718452D01*
X156707023Y-106758928D01*
X156707023Y-106677976D01*
X156707023Y-107204166D02*
X156747500Y-107163690D01*
X156707023Y-107123214D01*
X156666547Y-107163690D01*
X156707023Y-107204166D01*
X156707023Y-107123214D01*
X157759404Y-106677976D02*
X157759404Y-107527976D01*
X158123690Y-107447023D02*
X158164166Y-107487500D01*
X158245119Y-107527976D01*
X158447500Y-107527976D01*
X158528452Y-107487500D01*
X158568928Y-107447023D01*
X158609404Y-107366071D01*
X158609404Y-107285119D01*
X158568928Y-107163690D01*
X158083214Y-106677976D01*
X158609404Y-106677976D01*
X159459404Y-106758928D02*
X159418928Y-106718452D01*
X159297500Y-106677976D01*
X159216547Y-106677976D01*
X159095119Y-106718452D01*
X159014166Y-106799404D01*
X158973690Y-106880357D01*
X158933214Y-107042261D01*
X158933214Y-107163690D01*
X158973690Y-107325595D01*
X159014166Y-107406547D01*
X159095119Y-107487500D01*
X159216547Y-107527976D01*
X159297500Y-107527976D01*
X159418928Y-107487500D01*
X159459404Y-107447023D01*
X159823690Y-107001785D02*
X160471309Y-107001785D01*
X160754642Y-107527976D02*
X161037976Y-106677976D01*
X161321309Y-107527976D01*
X162130833Y-107244642D02*
X162454642Y-107244642D01*
X162252261Y-107527976D02*
X162252261Y-106799404D01*
X162292738Y-106718452D01*
X162373690Y-106677976D01*
X162454642Y-106677976D01*
X162859404Y-106677976D02*
X162778452Y-106718452D01*
X162737976Y-106758928D01*
X162697500Y-106839880D01*
X162697500Y-107082738D01*
X162737976Y-107163690D01*
X162778452Y-107204166D01*
X162859404Y-107244642D01*
X162980833Y-107244642D01*
X163061785Y-107204166D01*
X163102261Y-107163690D01*
X163142738Y-107082738D01*
X163142738Y-106839880D01*
X163102261Y-106758928D01*
X163061785Y-106718452D01*
X162980833Y-106677976D01*
X162859404Y-106677976D01*
X164559404Y-107527976D02*
X164154642Y-107527976D01*
X164114166Y-107123214D01*
X164154642Y-107163690D01*
X164235595Y-107204166D01*
X164437976Y-107204166D01*
X164518928Y-107163690D01*
X164559404Y-107123214D01*
X164599880Y-107042261D01*
X164599880Y-106839880D01*
X164559404Y-106758928D01*
X164518928Y-106718452D01*
X164437976Y-106677976D01*
X164235595Y-106677976D01*
X164154642Y-106718452D01*
X164114166Y-106758928D01*
X164964166Y-106758928D02*
X165004642Y-106718452D01*
X164964166Y-106677976D01*
X164923690Y-106718452D01*
X164964166Y-106758928D01*
X164964166Y-106677976D01*
X165773690Y-107527976D02*
X165368928Y-107527976D01*
X165328452Y-107123214D01*
X165368928Y-107163690D01*
X165449880Y-107204166D01*
X165652261Y-107204166D01*
X165733214Y-107163690D01*
X165773690Y-107123214D01*
X165814166Y-107042261D01*
X165814166Y-106839880D01*
X165773690Y-106758928D01*
X165733214Y-106718452D01*
X165652261Y-106677976D01*
X165449880Y-106677976D01*
X165368928Y-106718452D01*
X165328452Y-106758928D01*
X166057023Y-107527976D02*
X166340357Y-106677976D01*
X166623690Y-107527976D01*
D11*
X160052857Y-55991904D02*
X159976666Y-55991904D01*
X159900476Y-56030000D01*
X159862380Y-56068095D01*
X159824285Y-56144285D01*
X159786190Y-56296666D01*
X159786190Y-56487142D01*
X159824285Y-56639523D01*
X159862380Y-56715714D01*
X159900476Y-56753809D01*
X159976666Y-56791904D01*
X160052857Y-56791904D01*
X160129047Y-56753809D01*
X160167142Y-56715714D01*
X160205238Y-56639523D01*
X160243333Y-56487142D01*
X160243333Y-56296666D01*
X160205238Y-56144285D01*
X160167142Y-56068095D01*
X160129047Y-56030000D01*
X160052857Y-55991904D01*
X159100476Y-55991904D02*
X159252857Y-55991904D01*
X159329047Y-56030000D01*
X159367142Y-56068095D01*
X159443333Y-56182380D01*
X159481428Y-56334761D01*
X159481428Y-56639523D01*
X159443333Y-56715714D01*
X159405238Y-56753809D01*
X159329047Y-56791904D01*
X159176666Y-56791904D01*
X159100476Y-56753809D01*
X159062380Y-56715714D01*
X159024285Y-56639523D01*
X159024285Y-56449047D01*
X159062380Y-56372857D01*
X159100476Y-56334761D01*
X159176666Y-56296666D01*
X159329047Y-56296666D01*
X159405238Y-56334761D01*
X159443333Y-56372857D01*
X159481428Y-56449047D01*
X158110000Y-55953809D02*
X158795714Y-56982380D01*
X157690952Y-55991904D02*
X157614761Y-55991904D01*
X157538571Y-56030000D01*
X157500476Y-56068095D01*
X157462380Y-56144285D01*
X157424285Y-56296666D01*
X157424285Y-56487142D01*
X157462380Y-56639523D01*
X157500476Y-56715714D01*
X157538571Y-56753809D01*
X157614761Y-56791904D01*
X157690952Y-56791904D01*
X157767142Y-56753809D01*
X157805238Y-56715714D01*
X157843333Y-56639523D01*
X157881428Y-56487142D01*
X157881428Y-56296666D01*
X157843333Y-56144285D01*
X157805238Y-56068095D01*
X157767142Y-56030000D01*
X157690952Y-55991904D01*
X157157619Y-55991904D02*
X156624285Y-55991904D01*
X156967142Y-56791904D01*
X155748095Y-55953809D02*
X156433809Y-56982380D01*
X155519523Y-56068095D02*
X155481428Y-56030000D01*
X155405238Y-55991904D01*
X155214761Y-55991904D01*
X155138571Y-56030000D01*
X155100476Y-56068095D01*
X155062380Y-56144285D01*
X155062380Y-56220476D01*
X155100476Y-56334761D01*
X155557619Y-56791904D01*
X155062380Y-56791904D01*
X154567142Y-55991904D02*
X154490952Y-55991904D01*
X154414761Y-56030000D01*
X154376666Y-56068095D01*
X154338571Y-56144285D01*
X154300476Y-56296666D01*
X154300476Y-56487142D01*
X154338571Y-56639523D01*
X154376666Y-56715714D01*
X154414761Y-56753809D01*
X154490952Y-56791904D01*
X154567142Y-56791904D01*
X154643333Y-56753809D01*
X154681428Y-56715714D01*
X154719523Y-56639523D01*
X154757619Y-56487142D01*
X154757619Y-56296666D01*
X154719523Y-56144285D01*
X154681428Y-56068095D01*
X154643333Y-56030000D01*
X154567142Y-55991904D01*
X153995714Y-56068095D02*
X153957619Y-56030000D01*
X153881428Y-55991904D01*
X153690952Y-55991904D01*
X153614761Y-56030000D01*
X153576666Y-56068095D01*
X153538571Y-56144285D01*
X153538571Y-56220476D01*
X153576666Y-56334761D01*
X154033809Y-56791904D01*
X153538571Y-56791904D01*
X153043333Y-55991904D02*
X152967142Y-55991904D01*
X152890952Y-56030000D01*
X152852857Y-56068095D01*
X152814761Y-56144285D01*
X152776666Y-56296666D01*
X152776666Y-56487142D01*
X152814761Y-56639523D01*
X152852857Y-56715714D01*
X152890952Y-56753809D01*
X152967142Y-56791904D01*
X153043333Y-56791904D01*
X153119523Y-56753809D01*
X153157619Y-56715714D01*
X153195714Y-56639523D01*
X153233809Y-56487142D01*
X153233809Y-56296666D01*
X153195714Y-56144285D01*
X153157619Y-56068095D01*
X153119523Y-56030000D01*
X153043333Y-55991904D01*
D12*
G36*
X149027669Y-110173423D02*
G01*
X149062492Y-110171923D01*
X149093173Y-110169315D01*
X149116870Y-110165628D01*
X149117394Y-110165512D01*
X149189322Y-110144467D01*
X149256140Y-110114822D01*
X149317360Y-110076958D01*
X149372497Y-110031254D01*
X149421063Y-109978090D01*
X149462572Y-109917847D01*
X149483099Y-109880060D01*
X149495440Y-109854587D01*
X149505566Y-109831887D01*
X149513709Y-109810561D01*
X149520104Y-109789207D01*
X149524984Y-109766424D01*
X149528583Y-109740811D01*
X149531136Y-109710966D01*
X149532875Y-109675489D01*
X149534034Y-109632978D01*
X149534848Y-109582032D01*
X149535011Y-109568910D01*
X149537049Y-109400000D01*
X149180720Y-109400000D01*
X149180720Y-109547130D01*
X149180675Y-109590143D01*
X149180490Y-109624315D01*
X149180085Y-109650963D01*
X149179379Y-109671407D01*
X149178293Y-109686964D01*
X149176748Y-109698953D01*
X149174664Y-109708692D01*
X149171961Y-109717499D01*
X149170129Y-109722566D01*
X149154523Y-109752398D01*
X149131294Y-109781434D01*
X149102832Y-109807164D01*
X149071528Y-109827074D01*
X149069872Y-109827901D01*
X149052235Y-109836084D01*
X149037672Y-109841039D01*
X149022383Y-109843557D01*
X149002568Y-109844432D01*
X148990326Y-109844500D01*
X148966238Y-109844050D01*
X148948439Y-109842214D01*
X148933081Y-109838262D01*
X148916314Y-109831466D01*
X148912635Y-109829785D01*
X148882626Y-109811606D01*
X148853892Y-109786435D01*
X148829172Y-109757138D01*
X148811210Y-109726576D01*
X148809102Y-109721651D01*
X148797180Y-109692100D01*
X148797180Y-108421886D01*
X148813779Y-108388167D01*
X148835740Y-108352975D01*
X148863654Y-108323127D01*
X148895666Y-108300306D01*
X148924818Y-108287653D01*
X148969483Y-108278854D01*
X149013647Y-108279686D01*
X149055998Y-108289776D01*
X149095221Y-108308751D01*
X149130003Y-108336240D01*
X149142124Y-108349239D01*
X149151877Y-108361056D01*
X149159835Y-108372253D01*
X149166180Y-108383989D01*
X149171093Y-108397423D01*
X149174758Y-108413712D01*
X149177356Y-108434016D01*
X149179068Y-108459493D01*
X149180078Y-108491301D01*
X149180565Y-108530600D01*
X149180714Y-108578548D01*
X149180720Y-108595011D01*
X149180720Y-108765000D01*
X149536320Y-108765000D01*
X149536320Y-108582786D01*
X149536192Y-108526847D01*
X149535734Y-108479804D01*
X149534833Y-108440395D01*
X149533376Y-108407359D01*
X149531251Y-108379434D01*
X149528345Y-108355358D01*
X149524546Y-108333870D01*
X149519740Y-108313708D01*
X149513814Y-108293609D01*
X149509268Y-108279860D01*
X149482943Y-108217957D01*
X149447774Y-108159125D01*
X149404889Y-108104495D01*
X149355419Y-108055196D01*
X149300491Y-108012356D01*
X149241233Y-107977104D01*
X149180720Y-107951240D01*
X149135390Y-107938604D01*
X149083992Y-107929478D01*
X149030113Y-107924205D01*
X148977336Y-107923128D01*
X148929249Y-107926589D01*
X148926492Y-107926962D01*
X148856182Y-107941845D01*
X148788903Y-107966298D01*
X148725167Y-108000049D01*
X148665484Y-108042826D01*
X148610364Y-108094356D01*
X148608216Y-108096645D01*
X148567794Y-108145058D01*
X148535233Y-108195953D01*
X148509299Y-108251583D01*
X148488760Y-108314198D01*
X148488428Y-108315420D01*
X148486843Y-108321359D01*
X148485416Y-108327238D01*
X148484138Y-108333599D01*
X148482999Y-108340988D01*
X148481989Y-108349948D01*
X148481099Y-108361023D01*
X148480318Y-108374757D01*
X148479638Y-108391694D01*
X148479048Y-108412378D01*
X148478538Y-108437351D01*
X148478100Y-108467160D01*
X148477722Y-108502346D01*
X148477396Y-108543455D01*
X148477112Y-108591030D01*
X148476859Y-108645615D01*
X148476629Y-108707753D01*
X148476411Y-108777989D01*
X148476196Y-108856867D01*
X148475974Y-108944930D01*
X148475786Y-109021540D01*
X148475554Y-109131947D01*
X148475420Y-109232385D01*
X148475386Y-109323045D01*
X148475453Y-109404117D01*
X148475622Y-109475792D01*
X148475894Y-109538260D01*
X148476270Y-109591713D01*
X148476750Y-109636341D01*
X148477337Y-109672334D01*
X148478031Y-109699883D01*
X148478833Y-109719179D01*
X148479717Y-109730200D01*
X148493276Y-109796802D01*
X148516042Y-109860358D01*
X148547338Y-109920169D01*
X148586485Y-109975537D01*
X148632804Y-110025760D01*
X148685619Y-110070141D01*
X148744249Y-110107978D01*
X148808019Y-110138573D01*
X148876248Y-110161225D01*
X148903860Y-110167743D01*
X148926800Y-110170974D01*
X148956979Y-110172978D01*
X148991549Y-110173784D01*
X149027669Y-110173423D01*
G37*
X149027669Y-110173423D02*
X149062492Y-110171923D01*
X149093173Y-110169315D01*
X149116870Y-110165628D01*
X149117394Y-110165512D01*
X149189322Y-110144467D01*
X149256140Y-110114822D01*
X149317360Y-110076958D01*
X149372497Y-110031254D01*
X149421063Y-109978090D01*
X149462572Y-109917847D01*
X149483099Y-109880060D01*
X149495440Y-109854587D01*
X149505566Y-109831887D01*
X149513709Y-109810561D01*
X149520104Y-109789207D01*
X149524984Y-109766424D01*
X149528583Y-109740811D01*
X149531136Y-109710966D01*
X149532875Y-109675489D01*
X149534034Y-109632978D01*
X149534848Y-109582032D01*
X149535011Y-109568910D01*
X149537049Y-109400000D01*
X149180720Y-109400000D01*
X149180720Y-109547130D01*
X149180675Y-109590143D01*
X149180490Y-109624315D01*
X149180085Y-109650963D01*
X149179379Y-109671407D01*
X149178293Y-109686964D01*
X149176748Y-109698953D01*
X149174664Y-109708692D01*
X149171961Y-109717499D01*
X149170129Y-109722566D01*
X149154523Y-109752398D01*
X149131294Y-109781434D01*
X149102832Y-109807164D01*
X149071528Y-109827074D01*
X149069872Y-109827901D01*
X149052235Y-109836084D01*
X149037672Y-109841039D01*
X149022383Y-109843557D01*
X149002568Y-109844432D01*
X148990326Y-109844500D01*
X148966238Y-109844050D01*
X148948439Y-109842214D01*
X148933081Y-109838262D01*
X148916314Y-109831466D01*
X148912635Y-109829785D01*
X148882626Y-109811606D01*
X148853892Y-109786435D01*
X148829172Y-109757138D01*
X148811210Y-109726576D01*
X148809102Y-109721651D01*
X148797180Y-109692100D01*
X148797180Y-108421886D01*
X148813779Y-108388167D01*
X148835740Y-108352975D01*
X148863654Y-108323127D01*
X148895666Y-108300306D01*
X148924818Y-108287653D01*
X148969483Y-108278854D01*
X149013647Y-108279686D01*
X149055998Y-108289776D01*
X149095221Y-108308751D01*
X149130003Y-108336240D01*
X149142124Y-108349239D01*
X149151877Y-108361056D01*
X149159835Y-108372253D01*
X149166180Y-108383989D01*
X149171093Y-108397423D01*
X149174758Y-108413712D01*
X149177356Y-108434016D01*
X149179068Y-108459493D01*
X149180078Y-108491301D01*
X149180565Y-108530600D01*
X149180714Y-108578548D01*
X149180720Y-108595011D01*
X149180720Y-108765000D01*
X149536320Y-108765000D01*
X149536320Y-108582786D01*
X149536192Y-108526847D01*
X149535734Y-108479804D01*
X149534833Y-108440395D01*
X149533376Y-108407359D01*
X149531251Y-108379434D01*
X149528345Y-108355358D01*
X149524546Y-108333870D01*
X149519740Y-108313708D01*
X149513814Y-108293609D01*
X149509268Y-108279860D01*
X149482943Y-108217957D01*
X149447774Y-108159125D01*
X149404889Y-108104495D01*
X149355419Y-108055196D01*
X149300491Y-108012356D01*
X149241233Y-107977104D01*
X149180720Y-107951240D01*
X149135390Y-107938604D01*
X149083992Y-107929478D01*
X149030113Y-107924205D01*
X148977336Y-107923128D01*
X148929249Y-107926589D01*
X148926492Y-107926962D01*
X148856182Y-107941845D01*
X148788903Y-107966298D01*
X148725167Y-108000049D01*
X148665484Y-108042826D01*
X148610364Y-108094356D01*
X148608216Y-108096645D01*
X148567794Y-108145058D01*
X148535233Y-108195953D01*
X148509299Y-108251583D01*
X148488760Y-108314198D01*
X148488428Y-108315420D01*
X148486843Y-108321359D01*
X148485416Y-108327238D01*
X148484138Y-108333599D01*
X148482999Y-108340988D01*
X148481989Y-108349948D01*
X148481099Y-108361023D01*
X148480318Y-108374757D01*
X148479638Y-108391694D01*
X148479048Y-108412378D01*
X148478538Y-108437351D01*
X148478100Y-108467160D01*
X148477722Y-108502346D01*
X148477396Y-108543455D01*
X148477112Y-108591030D01*
X148476859Y-108645615D01*
X148476629Y-108707753D01*
X148476411Y-108777989D01*
X148476196Y-108856867D01*
X148475974Y-108944930D01*
X148475786Y-109021540D01*
X148475554Y-109131947D01*
X148475420Y-109232385D01*
X148475386Y-109323045D01*
X148475453Y-109404117D01*
X148475622Y-109475792D01*
X148475894Y-109538260D01*
X148476270Y-109591713D01*
X148476750Y-109636341D01*
X148477337Y-109672334D01*
X148478031Y-109699883D01*
X148478833Y-109719179D01*
X148479717Y-109730200D01*
X148493276Y-109796802D01*
X148516042Y-109860358D01*
X148547338Y-109920169D01*
X148586485Y-109975537D01*
X148632804Y-110025760D01*
X148685619Y-110070141D01*
X148744249Y-110107978D01*
X148808019Y-110138573D01*
X148876248Y-110161225D01*
X148903860Y-110167743D01*
X148926800Y-110170974D01*
X148956979Y-110172978D01*
X148991549Y-110173784D01*
X149027669Y-110173423D01*
G36*
X147761957Y-110198215D02*
G01*
X147830711Y-110187007D01*
X147896231Y-110168715D01*
X147932193Y-110154792D01*
X147970759Y-110136878D01*
X148002748Y-110118803D01*
X148031529Y-110098322D01*
X148060468Y-110073190D01*
X148073793Y-110060400D01*
X148119877Y-110009356D01*
X148157166Y-109954864D01*
X148186641Y-109895275D01*
X148207355Y-109835729D01*
X148212785Y-109815187D01*
X148218338Y-109791118D01*
X148223646Y-109765557D01*
X148228338Y-109740541D01*
X148232045Y-109718105D01*
X148234399Y-109700284D01*
X148235029Y-109689115D01*
X148234438Y-109686466D01*
X148228925Y-109684891D01*
X148214874Y-109681853D01*
X148193761Y-109677620D01*
X148167060Y-109672462D01*
X148136245Y-109666646D01*
X148102792Y-109660442D01*
X148068173Y-109654119D01*
X148033865Y-109647944D01*
X148001340Y-109642187D01*
X147972074Y-109637117D01*
X147947541Y-109633002D01*
X147929215Y-109630111D01*
X147918572Y-109628713D01*
X147917070Y-109628625D01*
X147908116Y-109631207D01*
X147905640Y-109640626D01*
X147905640Y-109640649D01*
X147903783Y-109657254D01*
X147898773Y-109680403D01*
X147891447Y-109707295D01*
X147882643Y-109735131D01*
X147873200Y-109761112D01*
X147863955Y-109782437D01*
X147862096Y-109786101D01*
X147836944Y-109825419D01*
X147807687Y-109855443D01*
X147774315Y-109876179D01*
X147736819Y-109887633D01*
X147695188Y-109889810D01*
X147671346Y-109887188D01*
X147638462Y-109879284D01*
X147611766Y-109866327D01*
X147587818Y-109846518D01*
X147581922Y-109840354D01*
X147558749Y-109810544D01*
X147541799Y-109777465D01*
X147530583Y-109739563D01*
X147524614Y-109695288D01*
X147523288Y-109654000D01*
X147526686Y-109599411D01*
X147536926Y-109547389D01*
X147554574Y-109496436D01*
X147580195Y-109445056D01*
X147614354Y-109391748D01*
X147630557Y-109369520D01*
X147654856Y-109338755D01*
X147680873Y-109309130D01*
X147710077Y-109279181D01*
X147743937Y-109247446D01*
X147783921Y-109212463D01*
X147811660Y-109189140D01*
X147847607Y-109159008D01*
X147877579Y-109133177D01*
X147903638Y-109109733D01*
X147927844Y-109086758D01*
X147952257Y-109062338D01*
X147978938Y-109034556D01*
X147986317Y-109026741D01*
X148048174Y-108957399D01*
X148100832Y-108890289D01*
X148144775Y-108824563D01*
X148180486Y-108759373D01*
X148208448Y-108693872D01*
X148229144Y-108627211D01*
X148238712Y-108584020D01*
X148242912Y-108551450D01*
X148244948Y-108512015D01*
X148244909Y-108468755D01*
X148242884Y-108424713D01*
X148238963Y-108382930D01*
X148233236Y-108346447D01*
X148231479Y-108338280D01*
X148212374Y-108272650D01*
X148186361Y-108210134D01*
X148154259Y-108151952D01*
X148116889Y-108099326D01*
X148075068Y-108053474D01*
X148029615Y-108015617D01*
X148003572Y-107998767D01*
X147941571Y-107968199D01*
X147873854Y-107945127D01*
X147801835Y-107929808D01*
X147726923Y-107922494D01*
X147650532Y-107923443D01*
X147609009Y-107927499D01*
X147535238Y-107941482D01*
X147467316Y-107963759D01*
X147405182Y-107994360D01*
X147348772Y-108033314D01*
X147301651Y-108076796D01*
X147253030Y-108135332D01*
X147211684Y-108200822D01*
X147177714Y-108273024D01*
X147151221Y-108351697D01*
X147132305Y-108436601D01*
X147123285Y-108502912D01*
X147121268Y-108524290D01*
X147119955Y-108541496D01*
X147119500Y-108552299D01*
X147119739Y-108554834D01*
X147124916Y-108555502D01*
X147138740Y-108556728D01*
X147159721Y-108558405D01*
X147186370Y-108560431D01*
X147217194Y-108562698D01*
X147250704Y-108565105D01*
X147285409Y-108567544D01*
X147319818Y-108569913D01*
X147352441Y-108572106D01*
X147381788Y-108574019D01*
X147406366Y-108575547D01*
X147424687Y-108576586D01*
X147435260Y-108577030D01*
X147436125Y-108577039D01*
X147441053Y-108576054D01*
X147444840Y-108571927D01*
X147448144Y-108562901D01*
X147451620Y-108547219D01*
X147455612Y-108524970D01*
X147464727Y-108481115D01*
X147476640Y-108437755D01*
X147490430Y-108397757D01*
X147505175Y-108363987D01*
X147510698Y-108353627D01*
X147529114Y-108326822D01*
X147553062Y-108299896D01*
X147579512Y-108275870D01*
X147605430Y-108257766D01*
X147608729Y-108255937D01*
X147646395Y-108241394D01*
X147686676Y-108235973D01*
X147727687Y-108239687D01*
X147767543Y-108252548D01*
X147772402Y-108254825D01*
X147795094Y-108268766D01*
X147819310Y-108288367D01*
X147842188Y-108310886D01*
X147860865Y-108333581D01*
X147870023Y-108348331D01*
X147881993Y-108379499D01*
X147890313Y-108417282D01*
X147894728Y-108458720D01*
X147894982Y-108500851D01*
X147890822Y-108540715D01*
X147887852Y-108555412D01*
X147872340Y-108603276D01*
X147848507Y-108652490D01*
X147817551Y-108700851D01*
X147789956Y-108735724D01*
X147782339Y-108743701D01*
X147768100Y-108757791D01*
X147748073Y-108777200D01*
X147723087Y-108801136D01*
X147693974Y-108828805D01*
X147661566Y-108859413D01*
X147626694Y-108892168D01*
X147593011Y-108923647D01*
X147555475Y-108958831D01*
X147518755Y-108993609D01*
X147483830Y-109027029D01*
X147451683Y-109058135D01*
X147423294Y-109085976D01*
X147399644Y-109109595D01*
X147381713Y-109128041D01*
X147372240Y-109138325D01*
X147323249Y-109196513D01*
X147282199Y-109250972D01*
X147248300Y-109303174D01*
X147220763Y-109354588D01*
X147198800Y-109406685D01*
X147181621Y-109460937D01*
X147168618Y-109517873D01*
X147164603Y-109540224D01*
X147161813Y-109560070D01*
X147160115Y-109579875D01*
X147159374Y-109602101D01*
X147159456Y-109629212D01*
X147160227Y-109663670D01*
X147160378Y-109669069D01*
X147162524Y-109719098D01*
X147166138Y-109761404D01*
X147171637Y-109798372D01*
X147179439Y-109832384D01*
X147189964Y-109865825D01*
X147199234Y-109890314D01*
X147228999Y-109952134D01*
X147266490Y-110009131D01*
X147310714Y-110060201D01*
X147360679Y-110104243D01*
X147415395Y-110140155D01*
X147431735Y-110148755D01*
X147490061Y-110172642D01*
X147554019Y-110189554D01*
X147621837Y-110199467D01*
X147691741Y-110202361D01*
X147761957Y-110198215D01*
G37*
X147761957Y-110198215D02*
X147830711Y-110187007D01*
X147896231Y-110168715D01*
X147932193Y-110154792D01*
X147970759Y-110136878D01*
X148002748Y-110118803D01*
X148031529Y-110098322D01*
X148060468Y-110073190D01*
X148073793Y-110060400D01*
X148119877Y-110009356D01*
X148157166Y-109954864D01*
X148186641Y-109895275D01*
X148207355Y-109835729D01*
X148212785Y-109815187D01*
X148218338Y-109791118D01*
X148223646Y-109765557D01*
X148228338Y-109740541D01*
X148232045Y-109718105D01*
X148234399Y-109700284D01*
X148235029Y-109689115D01*
X148234438Y-109686466D01*
X148228925Y-109684891D01*
X148214874Y-109681853D01*
X148193761Y-109677620D01*
X148167060Y-109672462D01*
X148136245Y-109666646D01*
X148102792Y-109660442D01*
X148068173Y-109654119D01*
X148033865Y-109647944D01*
X148001340Y-109642187D01*
X147972074Y-109637117D01*
X147947541Y-109633002D01*
X147929215Y-109630111D01*
X147918572Y-109628713D01*
X147917070Y-109628625D01*
X147908116Y-109631207D01*
X147905640Y-109640626D01*
X147905640Y-109640649D01*
X147903783Y-109657254D01*
X147898773Y-109680403D01*
X147891447Y-109707295D01*
X147882643Y-109735131D01*
X147873200Y-109761112D01*
X147863955Y-109782437D01*
X147862096Y-109786101D01*
X147836944Y-109825419D01*
X147807687Y-109855443D01*
X147774315Y-109876179D01*
X147736819Y-109887633D01*
X147695188Y-109889810D01*
X147671346Y-109887188D01*
X147638462Y-109879284D01*
X147611766Y-109866327D01*
X147587818Y-109846518D01*
X147581922Y-109840354D01*
X147558749Y-109810544D01*
X147541799Y-109777465D01*
X147530583Y-109739563D01*
X147524614Y-109695288D01*
X147523288Y-109654000D01*
X147526686Y-109599411D01*
X147536926Y-109547389D01*
X147554574Y-109496436D01*
X147580195Y-109445056D01*
X147614354Y-109391748D01*
X147630557Y-109369520D01*
X147654856Y-109338755D01*
X147680873Y-109309130D01*
X147710077Y-109279181D01*
X147743937Y-109247446D01*
X147783921Y-109212463D01*
X147811660Y-109189140D01*
X147847607Y-109159008D01*
X147877579Y-109133177D01*
X147903638Y-109109733D01*
X147927844Y-109086758D01*
X147952257Y-109062338D01*
X147978938Y-109034556D01*
X147986317Y-109026741D01*
X148048174Y-108957399D01*
X148100832Y-108890289D01*
X148144775Y-108824563D01*
X148180486Y-108759373D01*
X148208448Y-108693872D01*
X148229144Y-108627211D01*
X148238712Y-108584020D01*
X148242912Y-108551450D01*
X148244948Y-108512015D01*
X148244909Y-108468755D01*
X148242884Y-108424713D01*
X148238963Y-108382930D01*
X148233236Y-108346447D01*
X148231479Y-108338280D01*
X148212374Y-108272650D01*
X148186361Y-108210134D01*
X148154259Y-108151952D01*
X148116889Y-108099326D01*
X148075068Y-108053474D01*
X148029615Y-108015617D01*
X148003572Y-107998767D01*
X147941571Y-107968199D01*
X147873854Y-107945127D01*
X147801835Y-107929808D01*
X147726923Y-107922494D01*
X147650532Y-107923443D01*
X147609009Y-107927499D01*
X147535238Y-107941482D01*
X147467316Y-107963759D01*
X147405182Y-107994360D01*
X147348772Y-108033314D01*
X147301651Y-108076796D01*
X147253030Y-108135332D01*
X147211684Y-108200822D01*
X147177714Y-108273024D01*
X147151221Y-108351697D01*
X147132305Y-108436601D01*
X147123285Y-108502912D01*
X147121268Y-108524290D01*
X147119955Y-108541496D01*
X147119500Y-108552299D01*
X147119739Y-108554834D01*
X147124916Y-108555502D01*
X147138740Y-108556728D01*
X147159721Y-108558405D01*
X147186370Y-108560431D01*
X147217194Y-108562698D01*
X147250704Y-108565105D01*
X147285409Y-108567544D01*
X147319818Y-108569913D01*
X147352441Y-108572106D01*
X147381788Y-108574019D01*
X147406366Y-108575547D01*
X147424687Y-108576586D01*
X147435260Y-108577030D01*
X147436125Y-108577039D01*
X147441053Y-108576054D01*
X147444840Y-108571927D01*
X147448144Y-108562901D01*
X147451620Y-108547219D01*
X147455612Y-108524970D01*
X147464727Y-108481115D01*
X147476640Y-108437755D01*
X147490430Y-108397757D01*
X147505175Y-108363987D01*
X147510698Y-108353627D01*
X147529114Y-108326822D01*
X147553062Y-108299896D01*
X147579512Y-108275870D01*
X147605430Y-108257766D01*
X147608729Y-108255937D01*
X147646395Y-108241394D01*
X147686676Y-108235973D01*
X147727687Y-108239687D01*
X147767543Y-108252548D01*
X147772402Y-108254825D01*
X147795094Y-108268766D01*
X147819310Y-108288367D01*
X147842188Y-108310886D01*
X147860865Y-108333581D01*
X147870023Y-108348331D01*
X147881993Y-108379499D01*
X147890313Y-108417282D01*
X147894728Y-108458720D01*
X147894982Y-108500851D01*
X147890822Y-108540715D01*
X147887852Y-108555412D01*
X147872340Y-108603276D01*
X147848507Y-108652490D01*
X147817551Y-108700851D01*
X147789956Y-108735724D01*
X147782339Y-108743701D01*
X147768100Y-108757791D01*
X147748073Y-108777200D01*
X147723087Y-108801136D01*
X147693974Y-108828805D01*
X147661566Y-108859413D01*
X147626694Y-108892168D01*
X147593011Y-108923647D01*
X147555475Y-108958831D01*
X147518755Y-108993609D01*
X147483830Y-109027029D01*
X147451683Y-109058135D01*
X147423294Y-109085976D01*
X147399644Y-109109595D01*
X147381713Y-109128041D01*
X147372240Y-109138325D01*
X147323249Y-109196513D01*
X147282199Y-109250972D01*
X147248300Y-109303174D01*
X147220763Y-109354588D01*
X147198800Y-109406685D01*
X147181621Y-109460937D01*
X147168618Y-109517873D01*
X147164603Y-109540224D01*
X147161813Y-109560070D01*
X147160115Y-109579875D01*
X147159374Y-109602101D01*
X147159456Y-109629212D01*
X147160227Y-109663670D01*
X147160378Y-109669069D01*
X147162524Y-109719098D01*
X147166138Y-109761404D01*
X147171637Y-109798372D01*
X147179439Y-109832384D01*
X147189964Y-109865825D01*
X147199234Y-109890314D01*
X147228999Y-109952134D01*
X147266490Y-110009131D01*
X147310714Y-110060201D01*
X147360679Y-110104243D01*
X147415395Y-110140155D01*
X147431735Y-110148755D01*
X147490061Y-110172642D01*
X147554019Y-110189554D01*
X147621837Y-110199467D01*
X147691741Y-110202361D01*
X147761957Y-110198215D01*
G36*
X147456536Y-112660296D02*
G01*
X147457708Y-112660179D01*
X147465330Y-112658031D01*
X147481745Y-112652363D01*
X147506316Y-112643427D01*
X147538403Y-112631473D01*
X147577368Y-112616754D01*
X147622573Y-112599519D01*
X147673379Y-112580021D01*
X147729148Y-112558511D01*
X147789241Y-112535240D01*
X147853020Y-112510459D01*
X147919845Y-112484419D01*
X147989080Y-112457372D01*
X148060085Y-112429569D01*
X148132221Y-112401261D01*
X148204851Y-112372700D01*
X148277335Y-112344136D01*
X148349035Y-112315822D01*
X148419314Y-112288007D01*
X148487531Y-112260944D01*
X148553049Y-112234884D01*
X148615229Y-112210077D01*
X148673433Y-112186776D01*
X148727023Y-112165231D01*
X148775359Y-112145694D01*
X148817803Y-112128416D01*
X148853716Y-112113647D01*
X148882461Y-112101641D01*
X148903399Y-112092647D01*
X148915891Y-112086917D01*
X148919094Y-112085129D01*
X148936992Y-112065485D01*
X148948292Y-112040472D01*
X148952418Y-112012905D01*
X148948792Y-111985598D01*
X148942600Y-111970405D01*
X148938534Y-111964129D01*
X148929002Y-111950142D01*
X148914401Y-111929008D01*
X148895131Y-111901293D01*
X148871591Y-111867562D01*
X148844180Y-111828380D01*
X148813295Y-111784312D01*
X148779337Y-111735924D01*
X148742704Y-111683781D01*
X148703794Y-111628448D01*
X148663007Y-111570490D01*
X148620740Y-111510472D01*
X148577394Y-111448959D01*
X148533367Y-111386517D01*
X148489057Y-111323711D01*
X148444864Y-111261107D01*
X148401185Y-111199268D01*
X148358421Y-111138761D01*
X148316969Y-111080150D01*
X148277228Y-111024002D01*
X148239598Y-110970880D01*
X148204477Y-110921350D01*
X148172264Y-110875978D01*
X148143357Y-110835329D01*
X148118156Y-110799967D01*
X148097059Y-110770458D01*
X148080465Y-110747368D01*
X148068773Y-110731260D01*
X148062381Y-110722702D01*
X148061464Y-110721588D01*
X148043061Y-110706435D01*
X148022804Y-110697251D01*
X148010423Y-110695400D01*
X147996512Y-110699866D01*
X147982139Y-110711627D01*
X147969707Y-110728234D01*
X147962484Y-110744265D01*
X147959978Y-110752406D01*
X147954795Y-110769420D01*
X147947193Y-110794451D01*
X147937431Y-110826647D01*
X147925768Y-110865151D01*
X147912462Y-110909110D01*
X147897772Y-110957671D01*
X147881957Y-111009977D01*
X147865276Y-111065176D01*
X147856514Y-111094180D01*
X147839645Y-111149960D01*
X147823614Y-111202848D01*
X147808664Y-111252046D01*
X147795039Y-111296756D01*
X147782985Y-111336180D01*
X147772745Y-111369518D01*
X147764563Y-111395975D01*
X147758685Y-111414750D01*
X147755354Y-111425046D01*
X147754690Y-111426813D01*
X147748742Y-111426903D01*
X147734504Y-111424300D01*
X147713373Y-111419382D01*
X147686741Y-111412531D01*
X147656004Y-111404128D01*
X147622557Y-111394553D01*
X147587794Y-111384187D01*
X147553110Y-111373410D01*
X147522100Y-111363337D01*
X147373765Y-111308794D01*
X147230799Y-111245654D01*
X147092913Y-111173762D01*
X146959822Y-111092962D01*
X146831237Y-111003096D01*
X146765341Y-110952158D01*
X146647709Y-110851687D01*
X146537054Y-110744063D01*
X146433680Y-110629759D01*
X146337893Y-110509247D01*
X146249996Y-110382998D01*
X146170295Y-110251485D01*
X146099094Y-110115179D01*
X146036697Y-109974553D01*
X145983411Y-109830078D01*
X145939538Y-109682226D01*
X145935535Y-109666700D01*
X145901826Y-109513772D01*
X145878208Y-109360114D01*
X145864664Y-109206042D01*
X145861180Y-109051874D01*
X145867740Y-108897928D01*
X145884328Y-108744520D01*
X145910929Y-108591967D01*
X145947527Y-108440586D01*
X145994107Y-108290696D01*
X146004204Y-108262080D01*
X146061443Y-108117685D01*
X146127303Y-107978346D01*
X146201436Y-107844343D01*
X146283494Y-107715960D01*
X146373128Y-107593479D01*
X146469991Y-107477181D01*
X146573734Y-107367348D01*
X146684009Y-107264264D01*
X146800469Y-107168209D01*
X146922764Y-107079466D01*
X147050547Y-106998317D01*
X147183470Y-106925045D01*
X147321185Y-106859930D01*
X147463343Y-106803256D01*
X147609597Y-106755304D01*
X147759598Y-106716357D01*
X147912998Y-106686696D01*
X147956440Y-106680104D01*
X148096341Y-106664484D01*
X148239349Y-106656880D01*
X148382903Y-106657314D01*
X148524443Y-106665804D01*
X148609220Y-106675015D01*
X148763491Y-106699888D01*
X148916114Y-106734625D01*
X149066421Y-106778982D01*
X149213746Y-106832710D01*
X149357424Y-106895564D01*
X149496789Y-106967295D01*
X149631174Y-107047658D01*
X149652753Y-107061685D01*
X149775675Y-107148182D01*
X149893516Y-107242483D01*
X150005308Y-107343685D01*
X150110082Y-107450882D01*
X150206869Y-107563169D01*
X150253327Y-107622746D01*
X150343629Y-107750924D01*
X150425056Y-107883498D01*
X150497493Y-108020041D01*
X150560823Y-108160123D01*
X150614930Y-108303317D01*
X150659700Y-108449196D01*
X150695017Y-108597332D01*
X150720765Y-108747296D01*
X150736828Y-108898661D01*
X150743091Y-109050998D01*
X150739438Y-109203881D01*
X150725753Y-109356881D01*
X150724551Y-109366529D01*
X150699956Y-109520478D01*
X150665585Y-109672185D01*
X150621657Y-109821149D01*
X150568389Y-109966872D01*
X150506000Y-110108854D01*
X150434709Y-110246597D01*
X150354734Y-110379599D01*
X150266293Y-110507363D01*
X150174772Y-110623265D01*
X150160073Y-110641592D01*
X150149507Y-110656488D01*
X150144070Y-110666453D01*
X150143888Y-110669729D01*
X150151795Y-110676436D01*
X150166487Y-110688174D01*
X150187075Y-110704275D01*
X150212673Y-110724068D01*
X150242392Y-110746883D01*
X150275344Y-110772050D01*
X150310643Y-110798900D01*
X150347400Y-110826761D01*
X150384728Y-110854965D01*
X150421738Y-110882841D01*
X150457543Y-110909719D01*
X150491256Y-110934930D01*
X150521989Y-110957803D01*
X150548854Y-110977668D01*
X150570963Y-110993856D01*
X150587428Y-111005697D01*
X150597363Y-111012519D01*
X150599981Y-111013947D01*
X150606051Y-111009043D01*
X150617335Y-110997183D01*
X150632896Y-110979496D01*
X150651794Y-110957113D01*
X150673092Y-110931162D01*
X150695851Y-110902773D01*
X150719132Y-110873075D01*
X150741997Y-110843197D01*
X150743371Y-110841376D01*
X150843576Y-110700094D01*
X150935173Y-110553664D01*
X151017982Y-110402520D01*
X151091820Y-110247095D01*
X151156507Y-110087823D01*
X151211861Y-109925138D01*
X151257701Y-109759473D01*
X151293844Y-109591261D01*
X151311681Y-109483313D01*
X151322257Y-109404411D01*
X151330251Y-109329059D01*
X151335877Y-109254156D01*
X151339350Y-109176601D01*
X151340884Y-109093293D01*
X151341004Y-109059640D01*
X151337251Y-108901607D01*
X151325800Y-108748762D01*
X151306365Y-108599341D01*
X151278659Y-108451584D01*
X151242396Y-108303726D01*
X151197288Y-108154005D01*
X151190165Y-108132540D01*
X151130049Y-107969095D01*
X151061124Y-107810497D01*
X150983653Y-107657026D01*
X150897899Y-107508958D01*
X150804127Y-107366571D01*
X150702600Y-107230144D01*
X150593582Y-107099953D01*
X150477338Y-106976276D01*
X150354130Y-106859391D01*
X150224223Y-106749576D01*
X150087881Y-106647108D01*
X149945367Y-106552265D01*
X149796946Y-106465325D01*
X149642881Y-106386565D01*
X149483436Y-106316264D01*
X149452500Y-106303863D01*
X149291613Y-106245375D01*
X149129556Y-106196499D01*
X148965363Y-106157010D01*
X148798066Y-106126686D01*
X148626699Y-106105303D01*
X148573660Y-106100541D01*
X148547884Y-106098882D01*
X148514476Y-106097416D01*
X148475133Y-106096161D01*
X148431556Y-106095134D01*
X148385444Y-106094350D01*
X148338497Y-106093827D01*
X148292413Y-106093581D01*
X148248893Y-106093629D01*
X148209636Y-106093987D01*
X148176342Y-106094673D01*
X148150709Y-106095703D01*
X148141860Y-106096305D01*
X148046365Y-106104963D01*
X147958897Y-106114616D01*
X147877342Y-106125600D01*
X147799587Y-106138251D01*
X147723521Y-106152902D01*
X147647029Y-106169890D01*
X147590680Y-106183713D01*
X147420237Y-106232209D01*
X147253797Y-106290019D01*
X147091574Y-106357033D01*
X146933782Y-106433141D01*
X146780638Y-106518232D01*
X146632357Y-106612196D01*
X146489153Y-106714922D01*
X146371480Y-106809132D01*
X146340994Y-106835709D01*
X146305515Y-106868204D01*
X146266500Y-106905157D01*
X146225408Y-106945106D01*
X146183696Y-106986593D01*
X146142824Y-107028155D01*
X146104248Y-107068331D01*
X146069428Y-107105662D01*
X146039821Y-107138686D01*
X146024038Y-107157180D01*
X145913695Y-107297668D01*
X145812608Y-107442258D01*
X145720824Y-107590832D01*
X145638391Y-107743272D01*
X145565357Y-107899460D01*
X145501769Y-108059280D01*
X145447675Y-108222613D01*
X145403123Y-108389341D01*
X145368161Y-108559347D01*
X145342835Y-108732513D01*
X145329762Y-108870246D01*
X145327886Y-108904690D01*
X145326606Y-108946860D01*
X145325896Y-108994947D01*
X145325728Y-109047140D01*
X145326076Y-109101626D01*
X145326914Y-109156596D01*
X145328215Y-109210239D01*
X145329952Y-109260744D01*
X145332098Y-109306299D01*
X145334628Y-109345095D01*
X145337134Y-109372060D01*
X145357129Y-109521637D01*
X145382639Y-109664411D01*
X145414140Y-109802403D01*
X145452107Y-109937632D01*
X145497014Y-110072118D01*
X145510427Y-110108660D01*
X145576027Y-110269838D01*
X145650199Y-110425766D01*
X145732668Y-110576195D01*
X145823162Y-110720875D01*
X145921409Y-110859558D01*
X146027134Y-110991993D01*
X146140066Y-111117933D01*
X146259931Y-111237127D01*
X146386455Y-111349327D01*
X146519367Y-111454283D01*
X146658393Y-111551746D01*
X146803259Y-111641466D01*
X146953694Y-111723195D01*
X147109424Y-111796683D01*
X147270175Y-111861682D01*
X147435676Y-111917941D01*
X147519188Y-111942455D01*
X147545738Y-111950111D01*
X147568401Y-111957147D01*
X147585558Y-111963020D01*
X147595595Y-111967187D01*
X147597531Y-111968753D01*
X147595941Y-111974233D01*
X147591618Y-111988590D01*
X147584815Y-112010994D01*
X147575786Y-112040613D01*
X147564786Y-112076613D01*
X147552069Y-112118163D01*
X147537889Y-112164430D01*
X147522501Y-112214584D01*
X147506159Y-112267790D01*
X147502281Y-112280410D01*
X147481955Y-112346625D01*
X147464486Y-112403851D01*
X147449717Y-112452801D01*
X147437489Y-112494188D01*
X147427647Y-112528726D01*
X147420033Y-112557128D01*
X147414489Y-112580108D01*
X147410858Y-112598378D01*
X147408982Y-112612653D01*
X147408705Y-112623645D01*
X147409869Y-112632068D01*
X147412317Y-112638635D01*
X147415891Y-112644059D01*
X147420434Y-112649054D01*
X147420878Y-112649501D01*
X147430704Y-112657640D01*
X147441075Y-112660799D01*
X147456536Y-112660296D01*
G37*
X147456536Y-112660296D02*
X147457708Y-112660179D01*
X147465330Y-112658031D01*
X147481745Y-112652363D01*
X147506316Y-112643427D01*
X147538403Y-112631473D01*
X147577368Y-112616754D01*
X147622573Y-112599519D01*
X147673379Y-112580021D01*
X147729148Y-112558511D01*
X147789241Y-112535240D01*
X147853020Y-112510459D01*
X147919845Y-112484419D01*
X147989080Y-112457372D01*
X148060085Y-112429569D01*
X148132221Y-112401261D01*
X148204851Y-112372700D01*
X148277335Y-112344136D01*
X148349035Y-112315822D01*
X148419314Y-112288007D01*
X148487531Y-112260944D01*
X148553049Y-112234884D01*
X148615229Y-112210077D01*
X148673433Y-112186776D01*
X148727023Y-112165231D01*
X148775359Y-112145694D01*
X148817803Y-112128416D01*
X148853716Y-112113647D01*
X148882461Y-112101641D01*
X148903399Y-112092647D01*
X148915891Y-112086917D01*
X148919094Y-112085129D01*
X148936992Y-112065485D01*
X148948292Y-112040472D01*
X148952418Y-112012905D01*
X148948792Y-111985598D01*
X148942600Y-111970405D01*
X148938534Y-111964129D01*
X148929002Y-111950142D01*
X148914401Y-111929008D01*
X148895131Y-111901293D01*
X148871591Y-111867562D01*
X148844180Y-111828380D01*
X148813295Y-111784312D01*
X148779337Y-111735924D01*
X148742704Y-111683781D01*
X148703794Y-111628448D01*
X148663007Y-111570490D01*
X148620740Y-111510472D01*
X148577394Y-111448959D01*
X148533367Y-111386517D01*
X148489057Y-111323711D01*
X148444864Y-111261107D01*
X148401185Y-111199268D01*
X148358421Y-111138761D01*
X148316969Y-111080150D01*
X148277228Y-111024002D01*
X148239598Y-110970880D01*
X148204477Y-110921350D01*
X148172264Y-110875978D01*
X148143357Y-110835329D01*
X148118156Y-110799967D01*
X148097059Y-110770458D01*
X148080465Y-110747368D01*
X148068773Y-110731260D01*
X148062381Y-110722702D01*
X148061464Y-110721588D01*
X148043061Y-110706435D01*
X148022804Y-110697251D01*
X148010423Y-110695400D01*
X147996512Y-110699866D01*
X147982139Y-110711627D01*
X147969707Y-110728234D01*
X147962484Y-110744265D01*
X147959978Y-110752406D01*
X147954795Y-110769420D01*
X147947193Y-110794451D01*
X147937431Y-110826647D01*
X147925768Y-110865151D01*
X147912462Y-110909110D01*
X147897772Y-110957671D01*
X147881957Y-111009977D01*
X147865276Y-111065176D01*
X147856514Y-111094180D01*
X147839645Y-111149960D01*
X147823614Y-111202848D01*
X147808664Y-111252046D01*
X147795039Y-111296756D01*
X147782985Y-111336180D01*
X147772745Y-111369518D01*
X147764563Y-111395975D01*
X147758685Y-111414750D01*
X147755354Y-111425046D01*
X147754690Y-111426813D01*
X147748742Y-111426903D01*
X147734504Y-111424300D01*
X147713373Y-111419382D01*
X147686741Y-111412531D01*
X147656004Y-111404128D01*
X147622557Y-111394553D01*
X147587794Y-111384187D01*
X147553110Y-111373410D01*
X147522100Y-111363337D01*
X147373765Y-111308794D01*
X147230799Y-111245654D01*
X147092913Y-111173762D01*
X146959822Y-111092962D01*
X146831237Y-111003096D01*
X146765341Y-110952158D01*
X146647709Y-110851687D01*
X146537054Y-110744063D01*
X146433680Y-110629759D01*
X146337893Y-110509247D01*
X146249996Y-110382998D01*
X146170295Y-110251485D01*
X146099094Y-110115179D01*
X146036697Y-109974553D01*
X145983411Y-109830078D01*
X145939538Y-109682226D01*
X145935535Y-109666700D01*
X145901826Y-109513772D01*
X145878208Y-109360114D01*
X145864664Y-109206042D01*
X145861180Y-109051874D01*
X145867740Y-108897928D01*
X145884328Y-108744520D01*
X145910929Y-108591967D01*
X145947527Y-108440586D01*
X145994107Y-108290696D01*
X146004204Y-108262080D01*
X146061443Y-108117685D01*
X146127303Y-107978346D01*
X146201436Y-107844343D01*
X146283494Y-107715960D01*
X146373128Y-107593479D01*
X146469991Y-107477181D01*
X146573734Y-107367348D01*
X146684009Y-107264264D01*
X146800469Y-107168209D01*
X146922764Y-107079466D01*
X147050547Y-106998317D01*
X147183470Y-106925045D01*
X147321185Y-106859930D01*
X147463343Y-106803256D01*
X147609597Y-106755304D01*
X147759598Y-106716357D01*
X147912998Y-106686696D01*
X147956440Y-106680104D01*
X148096341Y-106664484D01*
X148239349Y-106656880D01*
X148382903Y-106657314D01*
X148524443Y-106665804D01*
X148609220Y-106675015D01*
X148763491Y-106699888D01*
X148916114Y-106734625D01*
X149066421Y-106778982D01*
X149213746Y-106832710D01*
X149357424Y-106895564D01*
X149496789Y-106967295D01*
X149631174Y-107047658D01*
X149652753Y-107061685D01*
X149775675Y-107148182D01*
X149893516Y-107242483D01*
X150005308Y-107343685D01*
X150110082Y-107450882D01*
X150206869Y-107563169D01*
X150253327Y-107622746D01*
X150343629Y-107750924D01*
X150425056Y-107883498D01*
X150497493Y-108020041D01*
X150560823Y-108160123D01*
X150614930Y-108303317D01*
X150659700Y-108449196D01*
X150695017Y-108597332D01*
X150720765Y-108747296D01*
X150736828Y-108898661D01*
X150743091Y-109050998D01*
X150739438Y-109203881D01*
X150725753Y-109356881D01*
X150724551Y-109366529D01*
X150699956Y-109520478D01*
X150665585Y-109672185D01*
X150621657Y-109821149D01*
X150568389Y-109966872D01*
X150506000Y-110108854D01*
X150434709Y-110246597D01*
X150354734Y-110379599D01*
X150266293Y-110507363D01*
X150174772Y-110623265D01*
X150160073Y-110641592D01*
X150149507Y-110656488D01*
X150144070Y-110666453D01*
X150143888Y-110669729D01*
X150151795Y-110676436D01*
X150166487Y-110688174D01*
X150187075Y-110704275D01*
X150212673Y-110724068D01*
X150242392Y-110746883D01*
X150275344Y-110772050D01*
X150310643Y-110798900D01*
X150347400Y-110826761D01*
X150384728Y-110854965D01*
X150421738Y-110882841D01*
X150457543Y-110909719D01*
X150491256Y-110934930D01*
X150521989Y-110957803D01*
X150548854Y-110977668D01*
X150570963Y-110993856D01*
X150587428Y-111005697D01*
X150597363Y-111012519D01*
X150599981Y-111013947D01*
X150606051Y-111009043D01*
X150617335Y-110997183D01*
X150632896Y-110979496D01*
X150651794Y-110957113D01*
X150673092Y-110931162D01*
X150695851Y-110902773D01*
X150719132Y-110873075D01*
X150741997Y-110843197D01*
X150743371Y-110841376D01*
X150843576Y-110700094D01*
X150935173Y-110553664D01*
X151017982Y-110402520D01*
X151091820Y-110247095D01*
X151156507Y-110087823D01*
X151211861Y-109925138D01*
X151257701Y-109759473D01*
X151293844Y-109591261D01*
X151311681Y-109483313D01*
X151322257Y-109404411D01*
X151330251Y-109329059D01*
X151335877Y-109254156D01*
X151339350Y-109176601D01*
X151340884Y-109093293D01*
X151341004Y-109059640D01*
X151337251Y-108901607D01*
X151325800Y-108748762D01*
X151306365Y-108599341D01*
X151278659Y-108451584D01*
X151242396Y-108303726D01*
X151197288Y-108154005D01*
X151190165Y-108132540D01*
X151130049Y-107969095D01*
X151061124Y-107810497D01*
X150983653Y-107657026D01*
X150897899Y-107508958D01*
X150804127Y-107366571D01*
X150702600Y-107230144D01*
X150593582Y-107099953D01*
X150477338Y-106976276D01*
X150354130Y-106859391D01*
X150224223Y-106749576D01*
X150087881Y-106647108D01*
X149945367Y-106552265D01*
X149796946Y-106465325D01*
X149642881Y-106386565D01*
X149483436Y-106316264D01*
X149452500Y-106303863D01*
X149291613Y-106245375D01*
X149129556Y-106196499D01*
X148965363Y-106157010D01*
X148798066Y-106126686D01*
X148626699Y-106105303D01*
X148573660Y-106100541D01*
X148547884Y-106098882D01*
X148514476Y-106097416D01*
X148475133Y-106096161D01*
X148431556Y-106095134D01*
X148385444Y-106094350D01*
X148338497Y-106093827D01*
X148292413Y-106093581D01*
X148248893Y-106093629D01*
X148209636Y-106093987D01*
X148176342Y-106094673D01*
X148150709Y-106095703D01*
X148141860Y-106096305D01*
X148046365Y-106104963D01*
X147958897Y-106114616D01*
X147877342Y-106125600D01*
X147799587Y-106138251D01*
X147723521Y-106152902D01*
X147647029Y-106169890D01*
X147590680Y-106183713D01*
X147420237Y-106232209D01*
X147253797Y-106290019D01*
X147091574Y-106357033D01*
X146933782Y-106433141D01*
X146780638Y-106518232D01*
X146632357Y-106612196D01*
X146489153Y-106714922D01*
X146371480Y-106809132D01*
X146340994Y-106835709D01*
X146305515Y-106868204D01*
X146266500Y-106905157D01*
X146225408Y-106945106D01*
X146183696Y-106986593D01*
X146142824Y-107028155D01*
X146104248Y-107068331D01*
X146069428Y-107105662D01*
X146039821Y-107138686D01*
X146024038Y-107157180D01*
X145913695Y-107297668D01*
X145812608Y-107442258D01*
X145720824Y-107590832D01*
X145638391Y-107743272D01*
X145565357Y-107899460D01*
X145501769Y-108059280D01*
X145447675Y-108222613D01*
X145403123Y-108389341D01*
X145368161Y-108559347D01*
X145342835Y-108732513D01*
X145329762Y-108870246D01*
X145327886Y-108904690D01*
X145326606Y-108946860D01*
X145325896Y-108994947D01*
X145325728Y-109047140D01*
X145326076Y-109101626D01*
X145326914Y-109156596D01*
X145328215Y-109210239D01*
X145329952Y-109260744D01*
X145332098Y-109306299D01*
X145334628Y-109345095D01*
X145337134Y-109372060D01*
X145357129Y-109521637D01*
X145382639Y-109664411D01*
X145414140Y-109802403D01*
X145452107Y-109937632D01*
X145497014Y-110072118D01*
X145510427Y-110108660D01*
X145576027Y-110269838D01*
X145650199Y-110425766D01*
X145732668Y-110576195D01*
X145823162Y-110720875D01*
X145921409Y-110859558D01*
X146027134Y-110991993D01*
X146140066Y-111117933D01*
X146259931Y-111237127D01*
X146386455Y-111349327D01*
X146519367Y-111454283D01*
X146658393Y-111551746D01*
X146803259Y-111641466D01*
X146953694Y-111723195D01*
X147109424Y-111796683D01*
X147270175Y-111861682D01*
X147435676Y-111917941D01*
X147519188Y-111942455D01*
X147545738Y-111950111D01*
X147568401Y-111957147D01*
X147585558Y-111963020D01*
X147595595Y-111967187D01*
X147597531Y-111968753D01*
X147595941Y-111974233D01*
X147591618Y-111988590D01*
X147584815Y-112010994D01*
X147575786Y-112040613D01*
X147564786Y-112076613D01*
X147552069Y-112118163D01*
X147537889Y-112164430D01*
X147522501Y-112214584D01*
X147506159Y-112267790D01*
X147502281Y-112280410D01*
X147481955Y-112346625D01*
X147464486Y-112403851D01*
X147449717Y-112452801D01*
X147437489Y-112494188D01*
X147427647Y-112528726D01*
X147420033Y-112557128D01*
X147414489Y-112580108D01*
X147410858Y-112598378D01*
X147408982Y-112612653D01*
X147408705Y-112623645D01*
X147409869Y-112632068D01*
X147412317Y-112638635D01*
X147415891Y-112644059D01*
X147420434Y-112649054D01*
X147420878Y-112649501D01*
X147430704Y-112657640D01*
X147441075Y-112660799D01*
X147456536Y-112660296D01*
D13*
X153060400Y-87223600D02*
X155092400Y-87223600D01*
X153060400Y-83159600D02*
X153060400Y-87223600D01*
X155092400Y-83159600D02*
X153060400Y-83159600D01*
X155092400Y-87223600D02*
X155092400Y-83159600D01*
X154508200Y-92913200D02*
X154508200Y-94945200D01*
X158572200Y-92913200D02*
X154508200Y-92913200D01*
X158572200Y-94945200D02*
X158572200Y-92913200D01*
X154508200Y-94945200D02*
X158572200Y-94945200D01*
X158750000Y-81026000D02*
X158750000Y-78994000D01*
X154686000Y-81026000D02*
X158750000Y-81026000D01*
X154686000Y-78994000D02*
X154686000Y-81026000D01*
X158750000Y-78994000D02*
X154686000Y-78994000D01*
D10*
X156944400Y-83414200D02*
X156944400Y-82339200D01*
X160019400Y-83414200D02*
X160019400Y-86664200D01*
X156769400Y-83414200D02*
X156769400Y-86664200D01*
X160019400Y-83414200D02*
X159744400Y-83414200D01*
X160019400Y-86664200D02*
X159744400Y-86664200D01*
X156769400Y-86664200D02*
X157044400Y-86664200D01*
X156769400Y-83414200D02*
X156944400Y-83414200D01*
D13*
X154533600Y-96672400D02*
X154533600Y-98704400D01*
X158597600Y-96672400D02*
X154533600Y-96672400D01*
X158597600Y-98704400D02*
X158597600Y-96672400D01*
X154533600Y-98704400D02*
X158597600Y-98704400D01*
X154635200Y-91592400D02*
X158699200Y-91592400D01*
X158699200Y-91592400D02*
X158699200Y-89560400D01*
X158699200Y-89560400D02*
X154635200Y-89560400D01*
X154635200Y-89560400D02*
X154635200Y-91592400D01*
D14*
X152711114Y-83601733D02*
X152749209Y-83568400D01*
X152787304Y-83468400D01*
X152787304Y-83401733D01*
X152749209Y-83301733D01*
X152673019Y-83235066D01*
X152596828Y-83201733D01*
X152444447Y-83168400D01*
X152330161Y-83168400D01*
X152177780Y-83201733D01*
X152101590Y-83235066D01*
X152025400Y-83301733D01*
X151987304Y-83401733D01*
X151987304Y-83468400D01*
X152025400Y-83568400D01*
X152063495Y-83601733D01*
X152253971Y-84201733D02*
X152787304Y-84201733D01*
X151949209Y-84035066D02*
X152520638Y-83868400D01*
X152520638Y-84301733D01*
X152685704Y-86222733D02*
X152685704Y-85822733D01*
X152685704Y-86022733D02*
X151885704Y-86022733D01*
X151999990Y-85956066D01*
X152076180Y-85889400D01*
X152114276Y-85822733D01*
X152152371Y-86822733D02*
X152685704Y-86822733D01*
X152152371Y-86522733D02*
X152571419Y-86522733D01*
X152647609Y-86556066D01*
X152685704Y-86622733D01*
X152685704Y-86722733D01*
X152647609Y-86789400D01*
X152609514Y-86822733D01*
X152266657Y-87389400D02*
X152266657Y-87156066D01*
X152685704Y-87156066D02*
X151885704Y-87156066D01*
X151885704Y-87489400D01*
X159658057Y-93396666D02*
X159658057Y-93163333D01*
X160077104Y-93163333D02*
X159277104Y-93163333D01*
X159277104Y-93496666D01*
X159658057Y-93996666D02*
X159696152Y-94096666D01*
X159734247Y-94130000D01*
X159810438Y-94163333D01*
X159924723Y-94163333D01*
X160000914Y-94130000D01*
X160039009Y-94096666D01*
X160077104Y-94030000D01*
X160077104Y-93763333D01*
X159277104Y-93763333D01*
X159277104Y-93996666D01*
X159315200Y-94063333D01*
X159353295Y-94096666D01*
X159429485Y-94130000D01*
X159505676Y-94130000D01*
X159581866Y-94096666D01*
X159619961Y-94063333D01*
X159658057Y-93996666D01*
X159658057Y-93763333D01*
X160077104Y-94830000D02*
X160077104Y-94430000D01*
X160077104Y-94630000D02*
X159277104Y-94630000D01*
X159391390Y-94563333D01*
X159467580Y-94496666D01*
X159505676Y-94430000D01*
X153803304Y-92653800D02*
X153803304Y-92253800D01*
X153803304Y-92453800D02*
X153003304Y-92453800D01*
X153117590Y-92387133D01*
X153193780Y-92320466D01*
X153231876Y-92253800D01*
X153727114Y-92953800D02*
X153765209Y-92987133D01*
X153803304Y-92953800D01*
X153765209Y-92920466D01*
X153727114Y-92953800D01*
X153803304Y-92953800D01*
X153003304Y-93620466D02*
X153003304Y-93287133D01*
X153384257Y-93253800D01*
X153346161Y-93287133D01*
X153308066Y-93353800D01*
X153308066Y-93520466D01*
X153346161Y-93587133D01*
X153384257Y-93620466D01*
X153460447Y-93653800D01*
X153650923Y-93653800D01*
X153727114Y-93620466D01*
X153765209Y-93587133D01*
X153803304Y-93520466D01*
X153803304Y-93353800D01*
X153765209Y-93287133D01*
X153727114Y-93253800D01*
X153803304Y-94487133D02*
X153003304Y-94487133D01*
X153498542Y-94553800D02*
X153803304Y-94753800D01*
X153269971Y-94753800D02*
X153574733Y-94487133D01*
X153803304Y-95020466D02*
X153803304Y-95187133D01*
X153650923Y-95187133D01*
X153612828Y-95120466D01*
X153536638Y-95053800D01*
X153422352Y-95020466D01*
X153231876Y-95020466D01*
X153117590Y-95053800D01*
X153041400Y-95120466D01*
X153003304Y-95220466D01*
X153003304Y-95353800D01*
X153041400Y-95453800D01*
X153117590Y-95520466D01*
X153231876Y-95553800D01*
X153422352Y-95553800D01*
X153536638Y-95520466D01*
X153612828Y-95453800D01*
X153650923Y-95387133D01*
X153803304Y-95387133D01*
X153803304Y-95553800D01*
X158444333Y-78149457D02*
X158677666Y-78149457D01*
X158677666Y-78568504D02*
X158677666Y-77768504D01*
X158344333Y-77768504D01*
X157844333Y-78149457D02*
X157744333Y-78187552D01*
X157711000Y-78225647D01*
X157677666Y-78301838D01*
X157677666Y-78416123D01*
X157711000Y-78492314D01*
X157744333Y-78530409D01*
X157811000Y-78568504D01*
X158077666Y-78568504D01*
X158077666Y-77768504D01*
X157844333Y-77768504D01*
X157777666Y-77806600D01*
X157744333Y-77844695D01*
X157711000Y-77920885D01*
X157711000Y-77997076D01*
X157744333Y-78073266D01*
X157777666Y-78111361D01*
X157844333Y-78149457D01*
X158077666Y-78149457D01*
X157411000Y-77844695D02*
X157377666Y-77806600D01*
X157311000Y-77768504D01*
X157144333Y-77768504D01*
X157077666Y-77806600D01*
X157044333Y-77844695D01*
X157011000Y-77920885D01*
X157011000Y-77997076D01*
X157044333Y-78111361D01*
X157444333Y-78568504D01*
X157011000Y-78568504D01*
X153981104Y-78709200D02*
X153981104Y-78309200D01*
X153981104Y-78509200D02*
X153181104Y-78509200D01*
X153295390Y-78442533D01*
X153371580Y-78375866D01*
X153409676Y-78309200D01*
X153904914Y-79009200D02*
X153943009Y-79042533D01*
X153981104Y-79009200D01*
X153943009Y-78975866D01*
X153904914Y-79009200D01*
X153981104Y-79009200D01*
X153181104Y-79675866D02*
X153181104Y-79342533D01*
X153562057Y-79309200D01*
X153523961Y-79342533D01*
X153485866Y-79409200D01*
X153485866Y-79575866D01*
X153523961Y-79642533D01*
X153562057Y-79675866D01*
X153638247Y-79709200D01*
X153828723Y-79709200D01*
X153904914Y-79675866D01*
X153943009Y-79642533D01*
X153981104Y-79575866D01*
X153981104Y-79409200D01*
X153943009Y-79342533D01*
X153904914Y-79309200D01*
X153981104Y-80542533D02*
X153181104Y-80542533D01*
X153676342Y-80609200D02*
X153981104Y-80809200D01*
X153447771Y-80809200D02*
X153752533Y-80542533D01*
X153981104Y-81075866D02*
X153981104Y-81242533D01*
X153828723Y-81242533D01*
X153790628Y-81175866D01*
X153714438Y-81109200D01*
X153600152Y-81075866D01*
X153409676Y-81075866D01*
X153295390Y-81109200D01*
X153219200Y-81175866D01*
X153181104Y-81275866D01*
X153181104Y-81409200D01*
X153219200Y-81509200D01*
X153295390Y-81575866D01*
X153409676Y-81609200D01*
X153600152Y-81609200D01*
X153714438Y-81575866D01*
X153790628Y-81509200D01*
X153828723Y-81442533D01*
X153981104Y-81442533D01*
X153981104Y-81609200D01*
X159988304Y-81483266D02*
X160635923Y-81483266D01*
X160712114Y-81516600D01*
X160750209Y-81549933D01*
X160788304Y-81616600D01*
X160788304Y-81749933D01*
X160750209Y-81816600D01*
X160712114Y-81849933D01*
X160635923Y-81883266D01*
X159988304Y-81883266D01*
X160788304Y-82583266D02*
X160788304Y-82183266D01*
X160788304Y-82383266D02*
X159988304Y-82383266D01*
X160102590Y-82316600D01*
X160178780Y-82249933D01*
X160216876Y-82183266D01*
X160077104Y-97571733D02*
X159696152Y-97338400D01*
X160077104Y-97171733D02*
X159277104Y-97171733D01*
X159277104Y-97438400D01*
X159315200Y-97505066D01*
X159353295Y-97538400D01*
X159429485Y-97571733D01*
X159543771Y-97571733D01*
X159619961Y-97538400D01*
X159658057Y-97505066D01*
X159696152Y-97438400D01*
X159696152Y-97171733D01*
X159277104Y-98205066D02*
X159277104Y-97871733D01*
X159658057Y-97838400D01*
X159619961Y-97871733D01*
X159581866Y-97938400D01*
X159581866Y-98105066D01*
X159619961Y-98171733D01*
X159658057Y-98205066D01*
X159734247Y-98238400D01*
X159924723Y-98238400D01*
X160000914Y-98205066D01*
X160039009Y-98171733D01*
X160077104Y-98105066D01*
X160077104Y-97938400D01*
X160039009Y-97871733D01*
X160000914Y-97838400D01*
X153803304Y-97195533D02*
X153803304Y-96795533D01*
X153803304Y-96995533D02*
X153003304Y-96995533D01*
X153117590Y-96928866D01*
X153193780Y-96862200D01*
X153231876Y-96795533D01*
X153003304Y-97628866D02*
X153003304Y-97695533D01*
X153041400Y-97762200D01*
X153079495Y-97795533D01*
X153155685Y-97828866D01*
X153308066Y-97862200D01*
X153498542Y-97862200D01*
X153650923Y-97828866D01*
X153727114Y-97795533D01*
X153765209Y-97762200D01*
X153803304Y-97695533D01*
X153803304Y-97628866D01*
X153765209Y-97562200D01*
X153727114Y-97528866D01*
X153650923Y-97495533D01*
X153498542Y-97462200D01*
X153308066Y-97462200D01*
X153155685Y-97495533D01*
X153079495Y-97528866D01*
X153041400Y-97562200D01*
X153003304Y-97628866D01*
X153803304Y-98162200D02*
X153003304Y-98162200D01*
X153498542Y-98228866D02*
X153803304Y-98428866D01*
X153269971Y-98428866D02*
X153574733Y-98162200D01*
X160077104Y-90485133D02*
X159696152Y-90251800D01*
X160077104Y-90085133D02*
X159277104Y-90085133D01*
X159277104Y-90351800D01*
X159315200Y-90418466D01*
X159353295Y-90451800D01*
X159429485Y-90485133D01*
X159543771Y-90485133D01*
X159619961Y-90451800D01*
X159658057Y-90418466D01*
X159696152Y-90351800D01*
X159696152Y-90085133D01*
X159277104Y-91085133D02*
X159277104Y-90951800D01*
X159315200Y-90885133D01*
X159353295Y-90851800D01*
X159467580Y-90785133D01*
X159619961Y-90751800D01*
X159924723Y-90751800D01*
X160000914Y-90785133D01*
X160039009Y-90818466D01*
X160077104Y-90885133D01*
X160077104Y-91018466D01*
X160039009Y-91085133D01*
X160000914Y-91118466D01*
X159924723Y-91151800D01*
X159734247Y-91151800D01*
X159658057Y-91118466D01*
X159619961Y-91085133D01*
X159581866Y-91018466D01*
X159581866Y-90885133D01*
X159619961Y-90818466D01*
X159658057Y-90785133D01*
X159734247Y-90751800D01*
X153803304Y-90185133D02*
X153803304Y-89785133D01*
X153803304Y-89985133D02*
X153003304Y-89985133D01*
X153117590Y-89918466D01*
X153193780Y-89851800D01*
X153231876Y-89785133D01*
X153003304Y-90618466D02*
X153003304Y-90685133D01*
X153041400Y-90751800D01*
X153079495Y-90785133D01*
X153155685Y-90818466D01*
X153308066Y-90851800D01*
X153498542Y-90851800D01*
X153650923Y-90818466D01*
X153727114Y-90785133D01*
X153765209Y-90751800D01*
X153803304Y-90685133D01*
X153803304Y-90618466D01*
X153765209Y-90551800D01*
X153727114Y-90518466D01*
X153650923Y-90485133D01*
X153498542Y-90451800D01*
X153308066Y-90451800D01*
X153155685Y-90485133D01*
X153079495Y-90518466D01*
X153041400Y-90551800D01*
X153003304Y-90618466D01*
X153803304Y-91151800D02*
X153003304Y-91151800D01*
X153498542Y-91218466D02*
X153803304Y-91418466D01*
X153269971Y-91418466D02*
X153574733Y-91151800D01*
M02*
