%FSLAX45Y45*%
G04 Gerber Fmt 4.5, Leading zero omitted, Abs format (unit mm)*
G04 Created by KiCad (PCBNEW (5.1.5-0-10_14)) date 2020-07-07 18:08:07*
%MOMM*%
%LPD*%
G04 APERTURE LIST*
%TA.AperFunction,Profile*%
%ADD10C,0.050000*%
%TD*%
%ADD11C,0.200000*%
%ADD12C,0.300000*%
G04 APERTURE END LIST*
D10*
X17567004Y-11079339D02*
G75*
G02X17210000Y-11446000I-362004J-4661D01*
G01*
X14009661Y-11446004D02*
G75*
G02X13643000Y-11089000I-4661J362004D01*
G01*
X17200339Y-5449996D02*
G75*
G02X17567000Y-5807000I4661J-362004D01*
G01*
X13642996Y-5816661D02*
G75*
G02X14000000Y-5450000I362004J4661D01*
G01*
X13643000Y-11089000D02*
X13642996Y-5816661D01*
X17567004Y-11079339D02*
X17567000Y-5807000D01*
X17200339Y-5449996D02*
X14000000Y-5450000D01*
X17365000Y-7884000D02*
G75*
G03X17365000Y-7884000I-160000J0D01*
G01*
X14165000Y-7884000D02*
G75*
G03X14165000Y-7884000I-160000J0D01*
G01*
X14009661Y-11446004D02*
X17210000Y-11446000D01*
X14165000Y-11084000D02*
G75*
G03X14165000Y-11084000I-160000J0D01*
G01*
X17365000Y-11084000D02*
G75*
G03X17365000Y-11084000I-160000J0D01*
G01*
X14165000Y-5812000D02*
G75*
G03X14165000Y-5812000I-160000J0D01*
G01*
X17365000Y-5812000D02*
G75*
G03X17365000Y-5812000I-160000J0D01*
G01*
D11*
X14145000Y-7415000D02*
X14185000Y-7455000D01*
X14185000Y-7415000D02*
X14145000Y-7455000D01*
X14600000Y-9400000D02*
X14640000Y-9440000D01*
X14640000Y-9400000D02*
X14600000Y-9440000D01*
X14750000Y-7484284D02*
X14790000Y-7524284D01*
X14790000Y-7484284D02*
X14750000Y-7524284D01*
X14767880Y-8773480D02*
X14807880Y-8813480D01*
X14807880Y-8773480D02*
X14767880Y-8813480D01*
X14782604Y-7662396D02*
X14822604Y-7702396D01*
X14822604Y-7662396D02*
X14782604Y-7702396D01*
X14966000Y-9748840D02*
X15006000Y-9788840D01*
X15006000Y-9748840D02*
X14966000Y-9788840D01*
X14981240Y-9195120D02*
X15021240Y-9235120D01*
X15021240Y-9195120D02*
X14981240Y-9235120D01*
X15204760Y-7864160D02*
X15244760Y-7904160D01*
X15244760Y-7864160D02*
X15204760Y-7904160D01*
X15291120Y-9748840D02*
X15331120Y-9788840D01*
X15331120Y-9748840D02*
X15291120Y-9788840D01*
X15301280Y-9301800D02*
X15341280Y-9341800D01*
X15341280Y-9301800D02*
X15301280Y-9341800D01*
X15316520Y-7960680D02*
X15356520Y-8000680D01*
X15356520Y-7960680D02*
X15316520Y-8000680D01*
X15555280Y-8809040D02*
X15595280Y-8849040D01*
X15595280Y-8809040D02*
X15555280Y-8849040D01*
X15585760Y-10338120D02*
X15625760Y-10378120D01*
X15625760Y-10338120D02*
X15585760Y-10378120D01*
X15636560Y-9372920D02*
X15676560Y-9412920D01*
X15676560Y-9372920D02*
X15636560Y-9412920D01*
X15646720Y-9748840D02*
X15686720Y-9788840D01*
X15686720Y-9748840D02*
X15646720Y-9788840D01*
X15656880Y-8123240D02*
X15696880Y-8163240D01*
X15696880Y-8123240D02*
X15656880Y-8163240D01*
X15687360Y-8880160D02*
X15727360Y-8920160D01*
X15727360Y-8880160D02*
X15687360Y-8920160D01*
X15778800Y-8453440D02*
X15818800Y-8493440D01*
X15818800Y-8453440D02*
X15778800Y-8493440D01*
X15874919Y-8503839D02*
X15914919Y-8543839D01*
X15914919Y-8503839D02*
X15874919Y-8543839D01*
X15938571Y-8857549D02*
X15978571Y-8897549D01*
X15978571Y-8857549D02*
X15938571Y-8897549D01*
X15992160Y-8026720D02*
X16032160Y-8066720D01*
X16032160Y-8026720D02*
X15992160Y-8066720D01*
X16116000Y-7640000D02*
X16156000Y-7680000D01*
X16156000Y-7640000D02*
X16116000Y-7680000D01*
X16319896Y-7110104D02*
X16359896Y-7150104D01*
X16359896Y-7110104D02*
X16319896Y-7150104D01*
X16486000Y-7571000D02*
X16526000Y-7611000D01*
X16526000Y-7571000D02*
X16486000Y-7611000D01*
X16735000Y-7330000D02*
X16775000Y-7370000D01*
X16775000Y-7330000D02*
X16735000Y-7370000D01*
X15016480Y-6233000D02*
G75*
G03X15016480Y-6233000I-50800J0D01*
G01*
X15270480Y-6233000D02*
G75*
G03X15270480Y-6233000I-50800J0D01*
G01*
X15524480Y-6233000D02*
G75*
G03X15524480Y-6233000I-50800J0D01*
G01*
X15778480Y-6233000D02*
G75*
G03X15778480Y-6233000I-50800J0D01*
G01*
X16032480Y-6233000D02*
G75*
G03X16032480Y-6233000I-50800J0D01*
G01*
X16286480Y-6233000D02*
G75*
G03X16286480Y-6233000I-50800J0D01*
G01*
X16316960Y-8117840D02*
G75*
G03X16316960Y-8117840I-50800J0D01*
G01*
X16316960Y-8371840D02*
G75*
G03X16316960Y-8371840I-50800J0D01*
G01*
X16316960Y-8625840D02*
G75*
G03X16316960Y-8625840I-50800J0D01*
G01*
X16316960Y-8879840D02*
G75*
G03X16316960Y-8879840I-50800J0D01*
G01*
X16316960Y-9133840D02*
G75*
G03X16316960Y-9133840I-50800J0D01*
G01*
X16316960Y-9387840D02*
G75*
G03X16316960Y-9387840I-50800J0D01*
G01*
X16316960Y-9641840D02*
G75*
G03X16316960Y-9641840I-50800J0D01*
G01*
X16316960Y-9895840D02*
G75*
G03X16316960Y-9895840I-50800J0D01*
G01*
X16316960Y-10149840D02*
G75*
G03X16316960Y-10149840I-50800J0D01*
G01*
X16316960Y-10403840D02*
G75*
G03X16316960Y-10403840I-50800J0D01*
G01*
X15016480Y-7452360D02*
G75*
G03X15016480Y-7452360I-50800J0D01*
G01*
X15270480Y-7452360D02*
G75*
G03X15270480Y-7452360I-50800J0D01*
G01*
X15524480Y-7452360D02*
G75*
G03X15524480Y-7452360I-50800J0D01*
G01*
X15778480Y-7452360D02*
G75*
G03X15778480Y-7452360I-50800J0D01*
G01*
X16032480Y-7452360D02*
G75*
G03X16032480Y-7452360I-50800J0D01*
G01*
X16286480Y-7452360D02*
G75*
G03X16286480Y-7452360I-50800J0D01*
G01*
X14280000Y-8590000D02*
X14280000Y-8710000D01*
X14220000Y-8650000D02*
X14340000Y-8650000D01*
X14280000Y-8940000D02*
X14280000Y-9060000D01*
X14220000Y-9000000D02*
X14340000Y-9000000D01*
X16990000Y-8570000D02*
X16990000Y-8690000D01*
X16930000Y-8630000D02*
X17050000Y-8630000D01*
X16990000Y-8920000D02*
X16990000Y-9040000D01*
X16930000Y-8980000D02*
X17050000Y-8980000D01*
X15091871Y-8188551D02*
X15091871Y-8047129D01*
X14950449Y-8047129D01*
X14950449Y-8188551D01*
X15091871Y-8188551D01*
X15091871Y-10474551D02*
X15091871Y-10333129D01*
X14950449Y-10333129D01*
X14950449Y-10474551D01*
X15091871Y-10474551D01*
D12*
X13926894Y-11914249D02*
X13926894Y-11614249D01*
X13998323Y-11614249D01*
X14041180Y-11628534D01*
X14069751Y-11657106D01*
X14084037Y-11685677D01*
X14098323Y-11742820D01*
X14098323Y-11785677D01*
X14084037Y-11842820D01*
X14069751Y-11871392D01*
X14041180Y-11899963D01*
X13998323Y-11914249D01*
X13926894Y-11914249D01*
X14226894Y-11914249D02*
X14226894Y-11714249D01*
X14226894Y-11771392D02*
X14241180Y-11742820D01*
X14255465Y-11728534D01*
X14284037Y-11714249D01*
X14312608Y-11714249D01*
X14412608Y-11914249D02*
X14412608Y-11714249D01*
X14412608Y-11614249D02*
X14398323Y-11628534D01*
X14412608Y-11642820D01*
X14426894Y-11628534D01*
X14412608Y-11614249D01*
X14412608Y-11642820D01*
X14598323Y-11914249D02*
X14569751Y-11899963D01*
X14555465Y-11871392D01*
X14555465Y-11614249D01*
X14755465Y-11914249D02*
X14726894Y-11899963D01*
X14712608Y-11871392D01*
X14712608Y-11614249D01*
X15098323Y-11914249D02*
X15098323Y-11614249D01*
X15198323Y-11828534D01*
X15298323Y-11614249D01*
X15298323Y-11914249D01*
X15569751Y-11914249D02*
X15569751Y-11757106D01*
X15555465Y-11728534D01*
X15526894Y-11714249D01*
X15469751Y-11714249D01*
X15441180Y-11728534D01*
X15569751Y-11899963D02*
X15541180Y-11914249D01*
X15469751Y-11914249D01*
X15441180Y-11899963D01*
X15426894Y-11871392D01*
X15426894Y-11842820D01*
X15441180Y-11814249D01*
X15469751Y-11799963D01*
X15541180Y-11799963D01*
X15569751Y-11785677D01*
X15712608Y-11714249D02*
X15712608Y-12014249D01*
X15712608Y-11728534D02*
X15741180Y-11714249D01*
X15798323Y-11714249D01*
X15826894Y-11728534D01*
X15841180Y-11742820D01*
X15855465Y-11771392D01*
X15855465Y-11857106D01*
X15841180Y-11885677D01*
X15826894Y-11899963D01*
X15798323Y-11914249D01*
X15741180Y-11914249D01*
X15712608Y-11899963D01*
X15984037Y-11885677D02*
X15998323Y-11899963D01*
X15984037Y-11914249D01*
X15969751Y-11899963D01*
X15984037Y-11885677D01*
X15984037Y-11914249D01*
X15984037Y-11728534D02*
X15998323Y-11742820D01*
X15984037Y-11757106D01*
X15969751Y-11742820D01*
X15984037Y-11728534D01*
X15984037Y-11757106D01*
X13600465Y-12388534D02*
X13640465Y-12428534D01*
X13640465Y-12388534D02*
X13600465Y-12428534D01*
X13984037Y-12244249D02*
X14012608Y-12244249D01*
X14041180Y-12258534D01*
X14055465Y-12272820D01*
X14069751Y-12301392D01*
X14084037Y-12358534D01*
X14084037Y-12429963D01*
X14069751Y-12487106D01*
X14055465Y-12515677D01*
X14041180Y-12529963D01*
X14012608Y-12544249D01*
X13984037Y-12544249D01*
X13955465Y-12529963D01*
X13941180Y-12515677D01*
X13926894Y-12487106D01*
X13912608Y-12429963D01*
X13912608Y-12358534D01*
X13926894Y-12301392D01*
X13941180Y-12272820D01*
X13955465Y-12258534D01*
X13984037Y-12244249D01*
X14212608Y-12515677D02*
X14226894Y-12529963D01*
X14212608Y-12544249D01*
X14198323Y-12529963D01*
X14212608Y-12515677D01*
X14212608Y-12544249D01*
X14484037Y-12344249D02*
X14484037Y-12544249D01*
X14412608Y-12229963D02*
X14341180Y-12444249D01*
X14526894Y-12444249D01*
X14698323Y-12244249D02*
X14726894Y-12244249D01*
X14755465Y-12258534D01*
X14769751Y-12272820D01*
X14784037Y-12301392D01*
X14798323Y-12358534D01*
X14798323Y-12429963D01*
X14784037Y-12487106D01*
X14769751Y-12515677D01*
X14755465Y-12529963D01*
X14726894Y-12544249D01*
X14698323Y-12544249D01*
X14669751Y-12529963D01*
X14655465Y-12515677D01*
X14641180Y-12487106D01*
X14626894Y-12429963D01*
X14626894Y-12358534D01*
X14641180Y-12301392D01*
X14655465Y-12272820D01*
X14669751Y-12258534D01*
X14698323Y-12244249D01*
X14926894Y-12544249D02*
X14926894Y-12344249D01*
X14926894Y-12372820D02*
X14941180Y-12358534D01*
X14969751Y-12344249D01*
X15012608Y-12344249D01*
X15041180Y-12358534D01*
X15055465Y-12387106D01*
X15055465Y-12544249D01*
X15055465Y-12387106D02*
X15069751Y-12358534D01*
X15098323Y-12344249D01*
X15141180Y-12344249D01*
X15169751Y-12358534D01*
X15184037Y-12387106D01*
X15184037Y-12544249D01*
X15326894Y-12544249D02*
X15326894Y-12344249D01*
X15326894Y-12372820D02*
X15341180Y-12358534D01*
X15369751Y-12344249D01*
X15412608Y-12344249D01*
X15441180Y-12358534D01*
X15455465Y-12387106D01*
X15455465Y-12544249D01*
X15455465Y-12387106D02*
X15469751Y-12358534D01*
X15498323Y-12344249D01*
X15541180Y-12344249D01*
X15569751Y-12358534D01*
X15584037Y-12387106D01*
X15584037Y-12544249D01*
X16169751Y-12229963D02*
X15912608Y-12615677D01*
X16555465Y-12244249D02*
X16584037Y-12244249D01*
X16612608Y-12258534D01*
X16626894Y-12272820D01*
X16641180Y-12301392D01*
X16655465Y-12358534D01*
X16655465Y-12429963D01*
X16641180Y-12487106D01*
X16626894Y-12515677D01*
X16612608Y-12529963D01*
X16584037Y-12544249D01*
X16555465Y-12544249D01*
X16526894Y-12529963D01*
X16512608Y-12515677D01*
X16498323Y-12487106D01*
X16484037Y-12429963D01*
X16484037Y-12358534D01*
X16498323Y-12301392D01*
X16512608Y-12272820D01*
X16526894Y-12258534D01*
X16555465Y-12244249D01*
X16784037Y-12515677D02*
X16798323Y-12529963D01*
X16784037Y-12544249D01*
X16769751Y-12529963D01*
X16784037Y-12515677D01*
X16784037Y-12544249D01*
X16984037Y-12244249D02*
X17012608Y-12244249D01*
X17041180Y-12258534D01*
X17055466Y-12272820D01*
X17069751Y-12301392D01*
X17084037Y-12358534D01*
X17084037Y-12429963D01*
X17069751Y-12487106D01*
X17055466Y-12515677D01*
X17041180Y-12529963D01*
X17012608Y-12544249D01*
X16984037Y-12544249D01*
X16955466Y-12529963D01*
X16941180Y-12515677D01*
X16926894Y-12487106D01*
X16912608Y-12429963D01*
X16912608Y-12358534D01*
X16926894Y-12301392D01*
X16941180Y-12272820D01*
X16955466Y-12258534D01*
X16984037Y-12244249D01*
X17369751Y-12544249D02*
X17198323Y-12544249D01*
X17284037Y-12544249D02*
X17284037Y-12244249D01*
X17255466Y-12287106D01*
X17226894Y-12315677D01*
X17198323Y-12329963D01*
X17626894Y-12244249D02*
X17569751Y-12244249D01*
X17541180Y-12258534D01*
X17526894Y-12272820D01*
X17498323Y-12315677D01*
X17484037Y-12372820D01*
X17484037Y-12487106D01*
X17498323Y-12515677D01*
X17512608Y-12529963D01*
X17541180Y-12544249D01*
X17598323Y-12544249D01*
X17626894Y-12529963D01*
X17641180Y-12515677D01*
X17655466Y-12487106D01*
X17655466Y-12415677D01*
X17641180Y-12387106D01*
X17626894Y-12372820D01*
X17598323Y-12358534D01*
X17541180Y-12358534D01*
X17512608Y-12372820D01*
X17498323Y-12387106D01*
X17484037Y-12415677D01*
X17769751Y-12244249D02*
X17769751Y-12301392D01*
X17884037Y-12244249D02*
X17884037Y-12301392D01*
X18326894Y-12658534D02*
X18312608Y-12644249D01*
X18284037Y-12601392D01*
X18269751Y-12572820D01*
X18255466Y-12529963D01*
X18241180Y-12458534D01*
X18241180Y-12401392D01*
X18255466Y-12329963D01*
X18269751Y-12287106D01*
X18284037Y-12258534D01*
X18312608Y-12215677D01*
X18326894Y-12201392D01*
X18426894Y-12272820D02*
X18441180Y-12258534D01*
X18469751Y-12244249D01*
X18541180Y-12244249D01*
X18569751Y-12258534D01*
X18584037Y-12272820D01*
X18598323Y-12301392D01*
X18598323Y-12329963D01*
X18584037Y-12372820D01*
X18412608Y-12544249D01*
X18598323Y-12544249D01*
X18869751Y-12244249D02*
X18726894Y-12244249D01*
X18712608Y-12387106D01*
X18726894Y-12372820D01*
X18755466Y-12358534D01*
X18826894Y-12358534D01*
X18855466Y-12372820D01*
X18869751Y-12387106D01*
X18884037Y-12415677D01*
X18884037Y-12487106D01*
X18869751Y-12515677D01*
X18855466Y-12529963D01*
X18826894Y-12544249D01*
X18755466Y-12544249D01*
X18726894Y-12529963D01*
X18712608Y-12515677D01*
X19241180Y-12544249D02*
X19241180Y-12244249D01*
X19369751Y-12544249D02*
X19369751Y-12387106D01*
X19355466Y-12358534D01*
X19326894Y-12344249D01*
X19284037Y-12344249D01*
X19255466Y-12358534D01*
X19241180Y-12372820D01*
X19555466Y-12544249D02*
X19526894Y-12529963D01*
X19512608Y-12515677D01*
X19498323Y-12487106D01*
X19498323Y-12401392D01*
X19512608Y-12372820D01*
X19526894Y-12358534D01*
X19555466Y-12344249D01*
X19598323Y-12344249D01*
X19626894Y-12358534D01*
X19641180Y-12372820D01*
X19655466Y-12401392D01*
X19655466Y-12487106D01*
X19641180Y-12515677D01*
X19626894Y-12529963D01*
X19598323Y-12544249D01*
X19555466Y-12544249D01*
X19826894Y-12544249D02*
X19798323Y-12529963D01*
X19784037Y-12501392D01*
X19784037Y-12244249D01*
X20055466Y-12529963D02*
X20026894Y-12544249D01*
X19969751Y-12544249D01*
X19941180Y-12529963D01*
X19926894Y-12501392D01*
X19926894Y-12387106D01*
X19941180Y-12358534D01*
X19969751Y-12344249D01*
X20026894Y-12344249D01*
X20055466Y-12358534D01*
X20069751Y-12387106D01*
X20069751Y-12415677D01*
X19926894Y-12444249D01*
X20184037Y-12529963D02*
X20212608Y-12544249D01*
X20269751Y-12544249D01*
X20298323Y-12529963D01*
X20312608Y-12501392D01*
X20312608Y-12487106D01*
X20298323Y-12458534D01*
X20269751Y-12444249D01*
X20226894Y-12444249D01*
X20198323Y-12429963D01*
X20184037Y-12401392D01*
X20184037Y-12387106D01*
X20198323Y-12358534D01*
X20226894Y-12344249D01*
X20269751Y-12344249D01*
X20298323Y-12358534D01*
X20412608Y-12658534D02*
X20426894Y-12644249D01*
X20455466Y-12601392D01*
X20469751Y-12572820D01*
X20484037Y-12529963D01*
X20498323Y-12458534D01*
X20498323Y-12401392D01*
X20484037Y-12329963D01*
X20469751Y-12287106D01*
X20455466Y-12258534D01*
X20426894Y-12215677D01*
X20412608Y-12201392D01*
X13640465Y-12804534D02*
G75*
G03X13640465Y-12804534I-50800J0D01*
G01*
X14084037Y-12940249D02*
X13912608Y-12940249D01*
X13998323Y-12940249D02*
X13998323Y-12640249D01*
X13969751Y-12683106D01*
X13941180Y-12711677D01*
X13912608Y-12725963D01*
X14212608Y-12911677D02*
X14226894Y-12925963D01*
X14212608Y-12940249D01*
X14198323Y-12925963D01*
X14212608Y-12911677D01*
X14212608Y-12940249D01*
X14412608Y-12640249D02*
X14441180Y-12640249D01*
X14469751Y-12654534D01*
X14484037Y-12668820D01*
X14498323Y-12697392D01*
X14512608Y-12754534D01*
X14512608Y-12825963D01*
X14498323Y-12883106D01*
X14484037Y-12911677D01*
X14469751Y-12925963D01*
X14441180Y-12940249D01*
X14412608Y-12940249D01*
X14384037Y-12925963D01*
X14369751Y-12911677D01*
X14355465Y-12883106D01*
X14341180Y-12825963D01*
X14341180Y-12754534D01*
X14355465Y-12697392D01*
X14369751Y-12668820D01*
X14384037Y-12654534D01*
X14412608Y-12640249D01*
X14626894Y-12668820D02*
X14641180Y-12654534D01*
X14669751Y-12640249D01*
X14741180Y-12640249D01*
X14769751Y-12654534D01*
X14784037Y-12668820D01*
X14798323Y-12697392D01*
X14798323Y-12725963D01*
X14784037Y-12768820D01*
X14612608Y-12940249D01*
X14798323Y-12940249D01*
X14926894Y-12940249D02*
X14926894Y-12740249D01*
X14926894Y-12768820D02*
X14941180Y-12754534D01*
X14969751Y-12740249D01*
X15012608Y-12740249D01*
X15041180Y-12754534D01*
X15055465Y-12783106D01*
X15055465Y-12940249D01*
X15055465Y-12783106D02*
X15069751Y-12754534D01*
X15098323Y-12740249D01*
X15141180Y-12740249D01*
X15169751Y-12754534D01*
X15184037Y-12783106D01*
X15184037Y-12940249D01*
X15326894Y-12940249D02*
X15326894Y-12740249D01*
X15326894Y-12768820D02*
X15341180Y-12754534D01*
X15369751Y-12740249D01*
X15412608Y-12740249D01*
X15441180Y-12754534D01*
X15455465Y-12783106D01*
X15455465Y-12940249D01*
X15455465Y-12783106D02*
X15469751Y-12754534D01*
X15498323Y-12740249D01*
X15541180Y-12740249D01*
X15569751Y-12754534D01*
X15584037Y-12783106D01*
X15584037Y-12940249D01*
X16169751Y-12625963D02*
X15912608Y-13011677D01*
X16555465Y-12640249D02*
X16584037Y-12640249D01*
X16612608Y-12654534D01*
X16626894Y-12668820D01*
X16641180Y-12697392D01*
X16655465Y-12754534D01*
X16655465Y-12825963D01*
X16641180Y-12883106D01*
X16626894Y-12911677D01*
X16612608Y-12925963D01*
X16584037Y-12940249D01*
X16555465Y-12940249D01*
X16526894Y-12925963D01*
X16512608Y-12911677D01*
X16498323Y-12883106D01*
X16484037Y-12825963D01*
X16484037Y-12754534D01*
X16498323Y-12697392D01*
X16512608Y-12668820D01*
X16526894Y-12654534D01*
X16555465Y-12640249D01*
X16784037Y-12911677D02*
X16798323Y-12925963D01*
X16784037Y-12940249D01*
X16769751Y-12925963D01*
X16784037Y-12911677D01*
X16784037Y-12940249D01*
X16984037Y-12640249D02*
X17012608Y-12640249D01*
X17041180Y-12654534D01*
X17055466Y-12668820D01*
X17069751Y-12697392D01*
X17084037Y-12754534D01*
X17084037Y-12825963D01*
X17069751Y-12883106D01*
X17055466Y-12911677D01*
X17041180Y-12925963D01*
X17012608Y-12940249D01*
X16984037Y-12940249D01*
X16955466Y-12925963D01*
X16941180Y-12911677D01*
X16926894Y-12883106D01*
X16912608Y-12825963D01*
X16912608Y-12754534D01*
X16926894Y-12697392D01*
X16941180Y-12668820D01*
X16955466Y-12654534D01*
X16984037Y-12640249D01*
X17341180Y-12740249D02*
X17341180Y-12940249D01*
X17269751Y-12625963D02*
X17198323Y-12840249D01*
X17384037Y-12840249D01*
X17555466Y-12640249D02*
X17584037Y-12640249D01*
X17612608Y-12654534D01*
X17626894Y-12668820D01*
X17641180Y-12697392D01*
X17655466Y-12754534D01*
X17655466Y-12825963D01*
X17641180Y-12883106D01*
X17626894Y-12911677D01*
X17612608Y-12925963D01*
X17584037Y-12940249D01*
X17555466Y-12940249D01*
X17526894Y-12925963D01*
X17512608Y-12911677D01*
X17498323Y-12883106D01*
X17484037Y-12825963D01*
X17484037Y-12754534D01*
X17498323Y-12697392D01*
X17512608Y-12668820D01*
X17526894Y-12654534D01*
X17555466Y-12640249D01*
X17769751Y-12640249D02*
X17769751Y-12697392D01*
X17884037Y-12640249D02*
X17884037Y-12697392D01*
X18326894Y-13054534D02*
X18312608Y-13040249D01*
X18284037Y-12997392D01*
X18269751Y-12968820D01*
X18255466Y-12925963D01*
X18241180Y-12854534D01*
X18241180Y-12797392D01*
X18255466Y-12725963D01*
X18269751Y-12683106D01*
X18284037Y-12654534D01*
X18312608Y-12611677D01*
X18326894Y-12597392D01*
X18426894Y-12668820D02*
X18441180Y-12654534D01*
X18469751Y-12640249D01*
X18541180Y-12640249D01*
X18569751Y-12654534D01*
X18584037Y-12668820D01*
X18598323Y-12697392D01*
X18598323Y-12725963D01*
X18584037Y-12768820D01*
X18412608Y-12940249D01*
X18598323Y-12940249D01*
X18712608Y-12668820D02*
X18726894Y-12654534D01*
X18755466Y-12640249D01*
X18826894Y-12640249D01*
X18855466Y-12654534D01*
X18869751Y-12668820D01*
X18884037Y-12697392D01*
X18884037Y-12725963D01*
X18869751Y-12768820D01*
X18698323Y-12940249D01*
X18884037Y-12940249D01*
X19241180Y-12940249D02*
X19241180Y-12640249D01*
X19369751Y-12940249D02*
X19369751Y-12783106D01*
X19355466Y-12754534D01*
X19326894Y-12740249D01*
X19284037Y-12740249D01*
X19255466Y-12754534D01*
X19241180Y-12768820D01*
X19555466Y-12940249D02*
X19526894Y-12925963D01*
X19512608Y-12911677D01*
X19498323Y-12883106D01*
X19498323Y-12797392D01*
X19512608Y-12768820D01*
X19526894Y-12754534D01*
X19555466Y-12740249D01*
X19598323Y-12740249D01*
X19626894Y-12754534D01*
X19641180Y-12768820D01*
X19655466Y-12797392D01*
X19655466Y-12883106D01*
X19641180Y-12911677D01*
X19626894Y-12925963D01*
X19598323Y-12940249D01*
X19555466Y-12940249D01*
X19826894Y-12940249D02*
X19798323Y-12925963D01*
X19784037Y-12897392D01*
X19784037Y-12640249D01*
X20055466Y-12925963D02*
X20026894Y-12940249D01*
X19969751Y-12940249D01*
X19941180Y-12925963D01*
X19926894Y-12897392D01*
X19926894Y-12783106D01*
X19941180Y-12754534D01*
X19969751Y-12740249D01*
X20026894Y-12740249D01*
X20055466Y-12754534D01*
X20069751Y-12783106D01*
X20069751Y-12811677D01*
X19926894Y-12840249D01*
X20184037Y-12925963D02*
X20212608Y-12940249D01*
X20269751Y-12940249D01*
X20298323Y-12925963D01*
X20312608Y-12897392D01*
X20312608Y-12883106D01*
X20298323Y-12854534D01*
X20269751Y-12840249D01*
X20226894Y-12840249D01*
X20198323Y-12825963D01*
X20184037Y-12797392D01*
X20184037Y-12783106D01*
X20198323Y-12754534D01*
X20226894Y-12740249D01*
X20269751Y-12740249D01*
X20298323Y-12754534D01*
X20412608Y-13054534D02*
X20426894Y-13040249D01*
X20455466Y-12997392D01*
X20469751Y-12968820D01*
X20484037Y-12925963D01*
X20498323Y-12854534D01*
X20498323Y-12797392D01*
X20484037Y-12725963D01*
X20469751Y-12683106D01*
X20455466Y-12654534D01*
X20426894Y-12611677D01*
X20412608Y-12597392D01*
X13580465Y-13140534D02*
X13580465Y-13260534D01*
X13520465Y-13200534D02*
X13640465Y-13200534D01*
X14084037Y-13336249D02*
X13912608Y-13336249D01*
X13998323Y-13336249D02*
X13998323Y-13036249D01*
X13969751Y-13079106D01*
X13941180Y-13107677D01*
X13912608Y-13121963D01*
X14212608Y-13307677D02*
X14226894Y-13321963D01*
X14212608Y-13336249D01*
X14198323Y-13321963D01*
X14212608Y-13307677D01*
X14212608Y-13336249D01*
X14341180Y-13064820D02*
X14355465Y-13050534D01*
X14384037Y-13036249D01*
X14455465Y-13036249D01*
X14484037Y-13050534D01*
X14498323Y-13064820D01*
X14512608Y-13093392D01*
X14512608Y-13121963D01*
X14498323Y-13164820D01*
X14326894Y-13336249D01*
X14512608Y-13336249D01*
X14698323Y-13036249D02*
X14726894Y-13036249D01*
X14755465Y-13050534D01*
X14769751Y-13064820D01*
X14784037Y-13093392D01*
X14798323Y-13150534D01*
X14798323Y-13221963D01*
X14784037Y-13279106D01*
X14769751Y-13307677D01*
X14755465Y-13321963D01*
X14726894Y-13336249D01*
X14698323Y-13336249D01*
X14669751Y-13321963D01*
X14655465Y-13307677D01*
X14641180Y-13279106D01*
X14626894Y-13221963D01*
X14626894Y-13150534D01*
X14641180Y-13093392D01*
X14655465Y-13064820D01*
X14669751Y-13050534D01*
X14698323Y-13036249D01*
X14926894Y-13336249D02*
X14926894Y-13136249D01*
X14926894Y-13164820D02*
X14941180Y-13150534D01*
X14969751Y-13136249D01*
X15012608Y-13136249D01*
X15041180Y-13150534D01*
X15055465Y-13179106D01*
X15055465Y-13336249D01*
X15055465Y-13179106D02*
X15069751Y-13150534D01*
X15098323Y-13136249D01*
X15141180Y-13136249D01*
X15169751Y-13150534D01*
X15184037Y-13179106D01*
X15184037Y-13336249D01*
X15326894Y-13336249D02*
X15326894Y-13136249D01*
X15326894Y-13164820D02*
X15341180Y-13150534D01*
X15369751Y-13136249D01*
X15412608Y-13136249D01*
X15441180Y-13150534D01*
X15455465Y-13179106D01*
X15455465Y-13336249D01*
X15455465Y-13179106D02*
X15469751Y-13150534D01*
X15498323Y-13136249D01*
X15541180Y-13136249D01*
X15569751Y-13150534D01*
X15584037Y-13179106D01*
X15584037Y-13336249D01*
X16169751Y-13021963D02*
X15912608Y-13407677D01*
X16555465Y-13036249D02*
X16584037Y-13036249D01*
X16612608Y-13050534D01*
X16626894Y-13064820D01*
X16641180Y-13093392D01*
X16655465Y-13150534D01*
X16655465Y-13221963D01*
X16641180Y-13279106D01*
X16626894Y-13307677D01*
X16612608Y-13321963D01*
X16584037Y-13336249D01*
X16555465Y-13336249D01*
X16526894Y-13321963D01*
X16512608Y-13307677D01*
X16498323Y-13279106D01*
X16484037Y-13221963D01*
X16484037Y-13150534D01*
X16498323Y-13093392D01*
X16512608Y-13064820D01*
X16526894Y-13050534D01*
X16555465Y-13036249D01*
X16784037Y-13307677D02*
X16798323Y-13321963D01*
X16784037Y-13336249D01*
X16769751Y-13321963D01*
X16784037Y-13307677D01*
X16784037Y-13336249D01*
X16984037Y-13036249D02*
X17012608Y-13036249D01*
X17041180Y-13050534D01*
X17055466Y-13064820D01*
X17069751Y-13093392D01*
X17084037Y-13150534D01*
X17084037Y-13221963D01*
X17069751Y-13279106D01*
X17055466Y-13307677D01*
X17041180Y-13321963D01*
X17012608Y-13336249D01*
X16984037Y-13336249D01*
X16955466Y-13321963D01*
X16941180Y-13307677D01*
X16926894Y-13279106D01*
X16912608Y-13221963D01*
X16912608Y-13150534D01*
X16926894Y-13093392D01*
X16941180Y-13064820D01*
X16955466Y-13050534D01*
X16984037Y-13036249D01*
X17341180Y-13136249D02*
X17341180Y-13336249D01*
X17269751Y-13021963D02*
X17198323Y-13236249D01*
X17384037Y-13236249D01*
X17469751Y-13036249D02*
X17669751Y-13036249D01*
X17541180Y-13336249D01*
X17769751Y-13036249D02*
X17769751Y-13093392D01*
X17884037Y-13036249D02*
X17884037Y-13093392D01*
X18326894Y-13450534D02*
X18312608Y-13436249D01*
X18284037Y-13393392D01*
X18269751Y-13364820D01*
X18255466Y-13321963D01*
X18241180Y-13250534D01*
X18241180Y-13193392D01*
X18255466Y-13121963D01*
X18269751Y-13079106D01*
X18284037Y-13050534D01*
X18312608Y-13007677D01*
X18326894Y-12993392D01*
X18569751Y-13136249D02*
X18569751Y-13336249D01*
X18498323Y-13021963D02*
X18426894Y-13236249D01*
X18612608Y-13236249D01*
X18955466Y-13336249D02*
X18955466Y-13036249D01*
X19084037Y-13336249D02*
X19084037Y-13179106D01*
X19069751Y-13150534D01*
X19041180Y-13136249D01*
X18998323Y-13136249D01*
X18969751Y-13150534D01*
X18955466Y-13164820D01*
X19269751Y-13336249D02*
X19241180Y-13321963D01*
X19226894Y-13307677D01*
X19212608Y-13279106D01*
X19212608Y-13193392D01*
X19226894Y-13164820D01*
X19241180Y-13150534D01*
X19269751Y-13136249D01*
X19312608Y-13136249D01*
X19341180Y-13150534D01*
X19355466Y-13164820D01*
X19369751Y-13193392D01*
X19369751Y-13279106D01*
X19355466Y-13307677D01*
X19341180Y-13321963D01*
X19312608Y-13336249D01*
X19269751Y-13336249D01*
X19541180Y-13336249D02*
X19512608Y-13321963D01*
X19498323Y-13293392D01*
X19498323Y-13036249D01*
X19769751Y-13321963D02*
X19741180Y-13336249D01*
X19684037Y-13336249D01*
X19655466Y-13321963D01*
X19641180Y-13293392D01*
X19641180Y-13179106D01*
X19655466Y-13150534D01*
X19684037Y-13136249D01*
X19741180Y-13136249D01*
X19769751Y-13150534D01*
X19784037Y-13179106D01*
X19784037Y-13207677D01*
X19641180Y-13236249D01*
X19898323Y-13321963D02*
X19926894Y-13336249D01*
X19984037Y-13336249D01*
X20012608Y-13321963D01*
X20026894Y-13293392D01*
X20026894Y-13279106D01*
X20012608Y-13250534D01*
X19984037Y-13236249D01*
X19941180Y-13236249D01*
X19912608Y-13221963D01*
X19898323Y-13193392D01*
X19898323Y-13179106D01*
X19912608Y-13150534D01*
X19941180Y-13136249D01*
X19984037Y-13136249D01*
X20012608Y-13150534D01*
X20126894Y-13450534D02*
X20141180Y-13436249D01*
X20169751Y-13393392D01*
X20184037Y-13364820D01*
X20198323Y-13321963D01*
X20212608Y-13250534D01*
X20212608Y-13193392D01*
X20198323Y-13121963D01*
X20184037Y-13079106D01*
X20169751Y-13050534D01*
X20141180Y-13007677D01*
X20126894Y-12993392D01*
X13611177Y-13667246D02*
X13611177Y-13525823D01*
X13469754Y-13525823D01*
X13469754Y-13667246D01*
X13611177Y-13667246D01*
X13912608Y-13460820D02*
X13926894Y-13446534D01*
X13955465Y-13432249D01*
X14026894Y-13432249D01*
X14055465Y-13446534D01*
X14069751Y-13460820D01*
X14084037Y-13489392D01*
X14084037Y-13517963D01*
X14069751Y-13560820D01*
X13898323Y-13732249D01*
X14084037Y-13732249D01*
X14212608Y-13703677D02*
X14226894Y-13717963D01*
X14212608Y-13732249D01*
X14198323Y-13717963D01*
X14212608Y-13703677D01*
X14212608Y-13732249D01*
X14412608Y-13432249D02*
X14441180Y-13432249D01*
X14469751Y-13446534D01*
X14484037Y-13460820D01*
X14498323Y-13489392D01*
X14512608Y-13546534D01*
X14512608Y-13617963D01*
X14498323Y-13675106D01*
X14484037Y-13703677D01*
X14469751Y-13717963D01*
X14441180Y-13732249D01*
X14412608Y-13732249D01*
X14384037Y-13717963D01*
X14369751Y-13703677D01*
X14355465Y-13675106D01*
X14341180Y-13617963D01*
X14341180Y-13546534D01*
X14355465Y-13489392D01*
X14369751Y-13460820D01*
X14384037Y-13446534D01*
X14412608Y-13432249D01*
X14698323Y-13432249D02*
X14726894Y-13432249D01*
X14755465Y-13446534D01*
X14769751Y-13460820D01*
X14784037Y-13489392D01*
X14798323Y-13546534D01*
X14798323Y-13617963D01*
X14784037Y-13675106D01*
X14769751Y-13703677D01*
X14755465Y-13717963D01*
X14726894Y-13732249D01*
X14698323Y-13732249D01*
X14669751Y-13717963D01*
X14655465Y-13703677D01*
X14641180Y-13675106D01*
X14626894Y-13617963D01*
X14626894Y-13546534D01*
X14641180Y-13489392D01*
X14655465Y-13460820D01*
X14669751Y-13446534D01*
X14698323Y-13432249D01*
X14926894Y-13732249D02*
X14926894Y-13532249D01*
X14926894Y-13560820D02*
X14941180Y-13546534D01*
X14969751Y-13532249D01*
X15012608Y-13532249D01*
X15041180Y-13546534D01*
X15055465Y-13575106D01*
X15055465Y-13732249D01*
X15055465Y-13575106D02*
X15069751Y-13546534D01*
X15098323Y-13532249D01*
X15141180Y-13532249D01*
X15169751Y-13546534D01*
X15184037Y-13575106D01*
X15184037Y-13732249D01*
X15326894Y-13732249D02*
X15326894Y-13532249D01*
X15326894Y-13560820D02*
X15341180Y-13546534D01*
X15369751Y-13532249D01*
X15412608Y-13532249D01*
X15441180Y-13546534D01*
X15455465Y-13575106D01*
X15455465Y-13732249D01*
X15455465Y-13575106D02*
X15469751Y-13546534D01*
X15498323Y-13532249D01*
X15541180Y-13532249D01*
X15569751Y-13546534D01*
X15584037Y-13575106D01*
X15584037Y-13732249D01*
X16169751Y-13417963D02*
X15912608Y-13803677D01*
X16555465Y-13432249D02*
X16584037Y-13432249D01*
X16612608Y-13446534D01*
X16626894Y-13460820D01*
X16641180Y-13489392D01*
X16655465Y-13546534D01*
X16655465Y-13617963D01*
X16641180Y-13675106D01*
X16626894Y-13703677D01*
X16612608Y-13717963D01*
X16584037Y-13732249D01*
X16555465Y-13732249D01*
X16526894Y-13717963D01*
X16512608Y-13703677D01*
X16498323Y-13675106D01*
X16484037Y-13617963D01*
X16484037Y-13546534D01*
X16498323Y-13489392D01*
X16512608Y-13460820D01*
X16526894Y-13446534D01*
X16555465Y-13432249D01*
X16784037Y-13703677D02*
X16798323Y-13717963D01*
X16784037Y-13732249D01*
X16769751Y-13717963D01*
X16784037Y-13703677D01*
X16784037Y-13732249D01*
X16984037Y-13432249D02*
X17012608Y-13432249D01*
X17041180Y-13446534D01*
X17055466Y-13460820D01*
X17069751Y-13489392D01*
X17084037Y-13546534D01*
X17084037Y-13617963D01*
X17069751Y-13675106D01*
X17055466Y-13703677D01*
X17041180Y-13717963D01*
X17012608Y-13732249D01*
X16984037Y-13732249D01*
X16955466Y-13717963D01*
X16941180Y-13703677D01*
X16926894Y-13675106D01*
X16912608Y-13617963D01*
X16912608Y-13546534D01*
X16926894Y-13489392D01*
X16941180Y-13460820D01*
X16955466Y-13446534D01*
X16984037Y-13432249D01*
X17184037Y-13432249D02*
X17384037Y-13432249D01*
X17255466Y-13732249D01*
X17512608Y-13732249D02*
X17569751Y-13732249D01*
X17598323Y-13717963D01*
X17612608Y-13703677D01*
X17641180Y-13660820D01*
X17655466Y-13603677D01*
X17655466Y-13489392D01*
X17641180Y-13460820D01*
X17626894Y-13446534D01*
X17598323Y-13432249D01*
X17541180Y-13432249D01*
X17512608Y-13446534D01*
X17498323Y-13460820D01*
X17484037Y-13489392D01*
X17484037Y-13560820D01*
X17498323Y-13589392D01*
X17512608Y-13603677D01*
X17541180Y-13617963D01*
X17598323Y-13617963D01*
X17626894Y-13603677D01*
X17641180Y-13589392D01*
X17655466Y-13560820D01*
X17769751Y-13432249D02*
X17769751Y-13489392D01*
X17884037Y-13432249D02*
X17884037Y-13489392D01*
X18326894Y-13846534D02*
X18312608Y-13832249D01*
X18284037Y-13789392D01*
X18269751Y-13760820D01*
X18255466Y-13717963D01*
X18241180Y-13646534D01*
X18241180Y-13589392D01*
X18255466Y-13517963D01*
X18269751Y-13475106D01*
X18284037Y-13446534D01*
X18312608Y-13403677D01*
X18326894Y-13389392D01*
X18426894Y-13460820D02*
X18441180Y-13446534D01*
X18469751Y-13432249D01*
X18541180Y-13432249D01*
X18569751Y-13446534D01*
X18584037Y-13460820D01*
X18598323Y-13489392D01*
X18598323Y-13517963D01*
X18584037Y-13560820D01*
X18412608Y-13732249D01*
X18598323Y-13732249D01*
X18955466Y-13732249D02*
X18955466Y-13432249D01*
X19084037Y-13732249D02*
X19084037Y-13575106D01*
X19069751Y-13546534D01*
X19041180Y-13532249D01*
X18998323Y-13532249D01*
X18969751Y-13546534D01*
X18955466Y-13560820D01*
X19269751Y-13732249D02*
X19241180Y-13717963D01*
X19226894Y-13703677D01*
X19212608Y-13675106D01*
X19212608Y-13589392D01*
X19226894Y-13560820D01*
X19241180Y-13546534D01*
X19269751Y-13532249D01*
X19312608Y-13532249D01*
X19341180Y-13546534D01*
X19355466Y-13560820D01*
X19369751Y-13589392D01*
X19369751Y-13675106D01*
X19355466Y-13703677D01*
X19341180Y-13717963D01*
X19312608Y-13732249D01*
X19269751Y-13732249D01*
X19541180Y-13732249D02*
X19512608Y-13717963D01*
X19498323Y-13689392D01*
X19498323Y-13432249D01*
X19769751Y-13717963D02*
X19741180Y-13732249D01*
X19684037Y-13732249D01*
X19655466Y-13717963D01*
X19641180Y-13689392D01*
X19641180Y-13575106D01*
X19655466Y-13546534D01*
X19684037Y-13532249D01*
X19741180Y-13532249D01*
X19769751Y-13546534D01*
X19784037Y-13575106D01*
X19784037Y-13603677D01*
X19641180Y-13632249D01*
X19898323Y-13717963D02*
X19926894Y-13732249D01*
X19984037Y-13732249D01*
X20012608Y-13717963D01*
X20026894Y-13689392D01*
X20026894Y-13675106D01*
X20012608Y-13646534D01*
X19984037Y-13632249D01*
X19941180Y-13632249D01*
X19912608Y-13617963D01*
X19898323Y-13589392D01*
X19898323Y-13575106D01*
X19912608Y-13546534D01*
X19941180Y-13532249D01*
X19984037Y-13532249D01*
X20012608Y-13546534D01*
X20126894Y-13846534D02*
X20141180Y-13832249D01*
X20169751Y-13789392D01*
X20184037Y-13760820D01*
X20198323Y-13717963D01*
X20212608Y-13646534D01*
X20212608Y-13589392D01*
X20198323Y-13517963D01*
X20184037Y-13475106D01*
X20169751Y-13446534D01*
X20141180Y-13403677D01*
X20126894Y-13389392D01*
M02*
