G04 #@! TF.GenerationSoftware,KiCad,Pcbnew,(5.1.5-0-10_14)*
G04 #@! TF.CreationDate,2020-07-07T09:51:05+02:00*
G04 #@! TF.ProjectId,smartcitizen-adc-4-ch,736d6172-7463-4697-9469-7a656e2d6164,rev?*
G04 #@! TF.SameCoordinates,Original*
G04 #@! TF.FileFunction,Soldermask,Bot*
G04 #@! TF.FilePolarity,Negative*
%FSLAX46Y46*%
G04 Gerber Fmt 4.6, Leading zero omitted, Abs format (unit mm)*
G04 Created by KiCad (PCBNEW (5.1.5-0-10_14)) date 2020-07-07 09:51:05*
%MOMM*%
%LPD*%
G04 APERTURE LIST*
%ADD10C,0.100000*%
G04 APERTURE END LIST*
D10*
G36*
X150518867Y-102493663D02*
G01*
X150671011Y-102523926D01*
X150789737Y-102573104D01*
X150957641Y-102642652D01*
X150957642Y-102642653D01*
X151215604Y-102815017D01*
X151434983Y-103034396D01*
X151550153Y-103206761D01*
X151607348Y-103292359D01*
X151676896Y-103460263D01*
X151726074Y-103578989D01*
X151786600Y-103883276D01*
X151786600Y-104193524D01*
X151727178Y-104492263D01*
X151726074Y-104497810D01*
X151607348Y-104784441D01*
X151607347Y-104784442D01*
X151434983Y-105042404D01*
X151215604Y-105261783D01*
X151043239Y-105376953D01*
X150957641Y-105434148D01*
X150789737Y-105503696D01*
X150671011Y-105552874D01*
X150518867Y-105583137D01*
X150366725Y-105613400D01*
X150056475Y-105613400D01*
X149904333Y-105583137D01*
X149752189Y-105552874D01*
X149633463Y-105503696D01*
X149465559Y-105434148D01*
X149379961Y-105376953D01*
X149207596Y-105261783D01*
X148988217Y-105042404D01*
X148815853Y-104784442D01*
X148815852Y-104784441D01*
X148697126Y-104497810D01*
X148696023Y-104492263D01*
X148636600Y-104193524D01*
X148636600Y-103883276D01*
X148697126Y-103578989D01*
X148746304Y-103460263D01*
X148815852Y-103292359D01*
X148873047Y-103206761D01*
X148988217Y-103034396D01*
X149207596Y-102815017D01*
X149465558Y-102642653D01*
X149465559Y-102642652D01*
X149633463Y-102573104D01*
X149752189Y-102523926D01*
X149904333Y-102493663D01*
X150056475Y-102463400D01*
X150366725Y-102463400D01*
X150518867Y-102493663D01*
G37*
G36*
X163503347Y-103229321D02*
G01*
X163582976Y-103237164D01*
X163736227Y-103283652D01*
X163736230Y-103283653D01*
X163877463Y-103359144D01*
X164001259Y-103460741D01*
X164102856Y-103584537D01*
X164178347Y-103725770D01*
X164178348Y-103725773D01*
X164224836Y-103879024D01*
X164240533Y-104038400D01*
X164224836Y-104197776D01*
X164178348Y-104351027D01*
X164178347Y-104351030D01*
X164102856Y-104492263D01*
X164001259Y-104616059D01*
X163877463Y-104717656D01*
X163736230Y-104793147D01*
X163736227Y-104793148D01*
X163582976Y-104839636D01*
X163503347Y-104847479D01*
X163463534Y-104851400D01*
X161859666Y-104851400D01*
X161819853Y-104847479D01*
X161740224Y-104839636D01*
X161586973Y-104793148D01*
X161586970Y-104793147D01*
X161445737Y-104717656D01*
X161321941Y-104616059D01*
X161220344Y-104492263D01*
X161144853Y-104351030D01*
X161144852Y-104351027D01*
X161098364Y-104197776D01*
X161082667Y-104038400D01*
X161098364Y-103879024D01*
X161144852Y-103725773D01*
X161144853Y-103725770D01*
X161220344Y-103584537D01*
X161321941Y-103460741D01*
X161445737Y-103359144D01*
X161586970Y-103283653D01*
X161586973Y-103283652D01*
X161740224Y-103237164D01*
X161819853Y-103229321D01*
X161859666Y-103225400D01*
X163463534Y-103225400D01*
X163503347Y-103229321D01*
G37*
G36*
X163503347Y-100689321D02*
G01*
X163582976Y-100697164D01*
X163736227Y-100743652D01*
X163736230Y-100743653D01*
X163877463Y-100819144D01*
X164001259Y-100920741D01*
X164102856Y-101044537D01*
X164178347Y-101185770D01*
X164178348Y-101185773D01*
X164224836Y-101339024D01*
X164240533Y-101498400D01*
X164224836Y-101657776D01*
X164178348Y-101811027D01*
X164178347Y-101811030D01*
X164102856Y-101952263D01*
X164001259Y-102076059D01*
X163877463Y-102177656D01*
X163736230Y-102253147D01*
X163736227Y-102253148D01*
X163582976Y-102299636D01*
X163503347Y-102307479D01*
X163463534Y-102311400D01*
X161859666Y-102311400D01*
X161819853Y-102307479D01*
X161740224Y-102299636D01*
X161586973Y-102253148D01*
X161586970Y-102253147D01*
X161445737Y-102177656D01*
X161321941Y-102076059D01*
X161220344Y-101952263D01*
X161144853Y-101811030D01*
X161144852Y-101811027D01*
X161098364Y-101657776D01*
X161082667Y-101498400D01*
X161098364Y-101339024D01*
X161144852Y-101185773D01*
X161144853Y-101185770D01*
X161220344Y-101044537D01*
X161321941Y-100920741D01*
X161445737Y-100819144D01*
X161586970Y-100743653D01*
X161586973Y-100743652D01*
X161740224Y-100697164D01*
X161819853Y-100689321D01*
X161859666Y-100685400D01*
X163463534Y-100685400D01*
X163503347Y-100689321D01*
G37*
G36*
X163503347Y-98149321D02*
G01*
X163582976Y-98157164D01*
X163736227Y-98203652D01*
X163736230Y-98203653D01*
X163877463Y-98279144D01*
X164001259Y-98380741D01*
X164102856Y-98504537D01*
X164178347Y-98645770D01*
X164178348Y-98645773D01*
X164224836Y-98799024D01*
X164240533Y-98958400D01*
X164224836Y-99117776D01*
X164178348Y-99271027D01*
X164178347Y-99271030D01*
X164102856Y-99412263D01*
X164001259Y-99536059D01*
X163877463Y-99637656D01*
X163736230Y-99713147D01*
X163736227Y-99713148D01*
X163582976Y-99759636D01*
X163503347Y-99767479D01*
X163463534Y-99771400D01*
X161859666Y-99771400D01*
X161819853Y-99767479D01*
X161740224Y-99759636D01*
X161586973Y-99713148D01*
X161586970Y-99713147D01*
X161445737Y-99637656D01*
X161321941Y-99536059D01*
X161220344Y-99412263D01*
X161144853Y-99271030D01*
X161144852Y-99271027D01*
X161098364Y-99117776D01*
X161082667Y-98958400D01*
X161098364Y-98799024D01*
X161144852Y-98645773D01*
X161144853Y-98645770D01*
X161220344Y-98504537D01*
X161321941Y-98380741D01*
X161445737Y-98279144D01*
X161586970Y-98203653D01*
X161586973Y-98203652D01*
X161740224Y-98157164D01*
X161819853Y-98149321D01*
X161859666Y-98145400D01*
X163463534Y-98145400D01*
X163503347Y-98149321D01*
G37*
G36*
X158902600Y-98691900D02*
G01*
X157530600Y-98691900D01*
X157530600Y-96684900D01*
X158902600Y-96684900D01*
X158902600Y-98691900D01*
G37*
G36*
X155600600Y-98691900D02*
G01*
X154228600Y-98691900D01*
X154228600Y-96684900D01*
X155600600Y-96684900D01*
X155600600Y-98691900D01*
G37*
G36*
X163503347Y-95609321D02*
G01*
X163582976Y-95617164D01*
X163736227Y-95663652D01*
X163736230Y-95663653D01*
X163877463Y-95739144D01*
X164001259Y-95840741D01*
X164102856Y-95964537D01*
X164178347Y-96105770D01*
X164178348Y-96105773D01*
X164224836Y-96259024D01*
X164240533Y-96418400D01*
X164224836Y-96577776D01*
X164192340Y-96684900D01*
X164178347Y-96731030D01*
X164102856Y-96872263D01*
X164001259Y-96996059D01*
X163877463Y-97097656D01*
X163736230Y-97173147D01*
X163736227Y-97173148D01*
X163582976Y-97219636D01*
X163503347Y-97227479D01*
X163463534Y-97231400D01*
X161859666Y-97231400D01*
X161819853Y-97227479D01*
X161740224Y-97219636D01*
X161586973Y-97173148D01*
X161586970Y-97173147D01*
X161445737Y-97097656D01*
X161321941Y-96996059D01*
X161220344Y-96872263D01*
X161144853Y-96731030D01*
X161130860Y-96684900D01*
X161098364Y-96577776D01*
X161082667Y-96418400D01*
X161098364Y-96259024D01*
X161144852Y-96105773D01*
X161144853Y-96105770D01*
X161220344Y-95964537D01*
X161321941Y-95840741D01*
X161445737Y-95739144D01*
X161586970Y-95663653D01*
X161586973Y-95663652D01*
X161740224Y-95617164D01*
X161819853Y-95609321D01*
X161859666Y-95605400D01*
X163463534Y-95605400D01*
X163503347Y-95609321D01*
G37*
G36*
X158877200Y-94932700D02*
G01*
X157505200Y-94932700D01*
X157505200Y-92925700D01*
X158877200Y-92925700D01*
X158877200Y-94932700D01*
G37*
G36*
X155575200Y-94932700D02*
G01*
X154203200Y-94932700D01*
X154203200Y-92925700D01*
X155575200Y-92925700D01*
X155575200Y-94932700D01*
G37*
G36*
X163503347Y-93069321D02*
G01*
X163582976Y-93077164D01*
X163736227Y-93123652D01*
X163736230Y-93123653D01*
X163877463Y-93199144D01*
X164001259Y-93300741D01*
X164102856Y-93424537D01*
X164178347Y-93565770D01*
X164178348Y-93565773D01*
X164224836Y-93719024D01*
X164240533Y-93878400D01*
X164224836Y-94037776D01*
X164196302Y-94131839D01*
X164178347Y-94191030D01*
X164102856Y-94332263D01*
X164001259Y-94456059D01*
X163877463Y-94557656D01*
X163736230Y-94633147D01*
X163736227Y-94633148D01*
X163582976Y-94679636D01*
X163503347Y-94687479D01*
X163463534Y-94691400D01*
X161859666Y-94691400D01*
X161819853Y-94687479D01*
X161740224Y-94679636D01*
X161586973Y-94633148D01*
X161586970Y-94633147D01*
X161445737Y-94557656D01*
X161321941Y-94456059D01*
X161220344Y-94332263D01*
X161144853Y-94191030D01*
X161126898Y-94131839D01*
X161098364Y-94037776D01*
X161082667Y-93878400D01*
X161098364Y-93719024D01*
X161144852Y-93565773D01*
X161144853Y-93565770D01*
X161220344Y-93424537D01*
X161321941Y-93300741D01*
X161445737Y-93199144D01*
X161586970Y-93123653D01*
X161586973Y-93123652D01*
X161740224Y-93077164D01*
X161819853Y-93069321D01*
X161859666Y-93065400D01*
X163463534Y-93065400D01*
X163503347Y-93069321D01*
G37*
G36*
X171018400Y-94617740D02*
G01*
X169646400Y-94617740D01*
X169646400Y-93245740D01*
X171018400Y-93245740D01*
X171018400Y-94617740D01*
G37*
G36*
X142389298Y-93272102D02*
G01*
X142514141Y-93323814D01*
X142514143Y-93323815D01*
X142626499Y-93398889D01*
X142722051Y-93494441D01*
X142769714Y-93565773D01*
X142797126Y-93606799D01*
X142848838Y-93731642D01*
X142875200Y-93864174D01*
X142875200Y-93999306D01*
X142848838Y-94131838D01*
X142797126Y-94256681D01*
X142797125Y-94256683D01*
X142722051Y-94369039D01*
X142626499Y-94464591D01*
X142514143Y-94539665D01*
X142514142Y-94539666D01*
X142514141Y-94539666D01*
X142389298Y-94591378D01*
X142256766Y-94617740D01*
X142121634Y-94617740D01*
X141989102Y-94591378D01*
X141864259Y-94539666D01*
X141864258Y-94539666D01*
X141864257Y-94539665D01*
X141751901Y-94464591D01*
X141656349Y-94369039D01*
X141581275Y-94256683D01*
X141581274Y-94256681D01*
X141529562Y-94131838D01*
X141503200Y-93999306D01*
X141503200Y-93864174D01*
X141529562Y-93731642D01*
X141581274Y-93606799D01*
X141608687Y-93565773D01*
X141656349Y-93494441D01*
X141751901Y-93398889D01*
X141864257Y-93323815D01*
X141864259Y-93323814D01*
X141989102Y-93272102D01*
X142121634Y-93245740D01*
X142256766Y-93245740D01*
X142389298Y-93272102D01*
G37*
G36*
X170532498Y-91270582D02*
G01*
X170657341Y-91322294D01*
X170657343Y-91322295D01*
X170769699Y-91397369D01*
X170865251Y-91492921D01*
X170923369Y-91579900D01*
X170940326Y-91605279D01*
X170992038Y-91730122D01*
X171018400Y-91862654D01*
X171018400Y-91997786D01*
X170992038Y-92130318D01*
X170988178Y-92139636D01*
X170940325Y-92255163D01*
X170865251Y-92367519D01*
X170769699Y-92463071D01*
X170657343Y-92538145D01*
X170657342Y-92538146D01*
X170657341Y-92538146D01*
X170532498Y-92589858D01*
X170399966Y-92616220D01*
X170264834Y-92616220D01*
X170132302Y-92589858D01*
X170007459Y-92538146D01*
X170007458Y-92538146D01*
X170007457Y-92538145D01*
X169895101Y-92463071D01*
X169799549Y-92367519D01*
X169724475Y-92255163D01*
X169676622Y-92139636D01*
X169672762Y-92130318D01*
X169646400Y-91997786D01*
X169646400Y-91862654D01*
X169672762Y-91730122D01*
X169724474Y-91605279D01*
X169741432Y-91579900D01*
X169799549Y-91492921D01*
X169895101Y-91397369D01*
X170007457Y-91322295D01*
X170007459Y-91322294D01*
X170132302Y-91270582D01*
X170264834Y-91244220D01*
X170399966Y-91244220D01*
X170532498Y-91270582D01*
G37*
G36*
X142389298Y-91270582D02*
G01*
X142514141Y-91322294D01*
X142514143Y-91322295D01*
X142626499Y-91397369D01*
X142722051Y-91492921D01*
X142780169Y-91579900D01*
X142797126Y-91605279D01*
X142848838Y-91730122D01*
X142875200Y-91862654D01*
X142875200Y-91997786D01*
X142848838Y-92130318D01*
X142844978Y-92139636D01*
X142797125Y-92255163D01*
X142722051Y-92367519D01*
X142626499Y-92463071D01*
X142514143Y-92538145D01*
X142514142Y-92538146D01*
X142514141Y-92538146D01*
X142389298Y-92589858D01*
X142256766Y-92616220D01*
X142121634Y-92616220D01*
X141989102Y-92589858D01*
X141864259Y-92538146D01*
X141864258Y-92538146D01*
X141864257Y-92538145D01*
X141751901Y-92463071D01*
X141656349Y-92367519D01*
X141581275Y-92255163D01*
X141533422Y-92139636D01*
X141529562Y-92130318D01*
X141503200Y-91997786D01*
X141503200Y-91862654D01*
X141529562Y-91730122D01*
X141581274Y-91605279D01*
X141598232Y-91579900D01*
X141656349Y-91492921D01*
X141751901Y-91397369D01*
X141864257Y-91322295D01*
X141864259Y-91322294D01*
X141989102Y-91270582D01*
X142121634Y-91244220D01*
X142256766Y-91244220D01*
X142389298Y-91270582D01*
G37*
G36*
X163503347Y-90529321D02*
G01*
X163582976Y-90537164D01*
X163736227Y-90583652D01*
X163736230Y-90583653D01*
X163877463Y-90659144D01*
X164001259Y-90760741D01*
X164102856Y-90884537D01*
X164178347Y-91025770D01*
X164178348Y-91025773D01*
X164224836Y-91179024D01*
X164240533Y-91338400D01*
X164224836Y-91497776D01*
X164199924Y-91579900D01*
X164178347Y-91651030D01*
X164102856Y-91792263D01*
X164001259Y-91916059D01*
X163877463Y-92017656D01*
X163736230Y-92093147D01*
X163736227Y-92093148D01*
X163582976Y-92139636D01*
X163503347Y-92147479D01*
X163463534Y-92151400D01*
X161859666Y-92151400D01*
X161819853Y-92147479D01*
X161740224Y-92139636D01*
X161586973Y-92093148D01*
X161586970Y-92093147D01*
X161445737Y-92017656D01*
X161321941Y-91916059D01*
X161220344Y-91792263D01*
X161144853Y-91651030D01*
X161123276Y-91579900D01*
X161098364Y-91497776D01*
X161082667Y-91338400D01*
X161098364Y-91179024D01*
X161144852Y-91025773D01*
X161144853Y-91025770D01*
X161220344Y-90884537D01*
X161321941Y-90760741D01*
X161445737Y-90659144D01*
X161586970Y-90583653D01*
X161586973Y-90583652D01*
X161740224Y-90537164D01*
X161819853Y-90529321D01*
X161859666Y-90525400D01*
X163463534Y-90525400D01*
X163503347Y-90529321D01*
G37*
G36*
X159004200Y-91579900D02*
G01*
X157632200Y-91579900D01*
X157632200Y-89572900D01*
X159004200Y-89572900D01*
X159004200Y-91579900D01*
G37*
G36*
X155702200Y-91579900D02*
G01*
X154330200Y-91579900D01*
X154330200Y-89572900D01*
X155702200Y-89572900D01*
X155702200Y-91579900D01*
G37*
G36*
X170532498Y-89274142D02*
G01*
X170657341Y-89325854D01*
X170657343Y-89325855D01*
X170769699Y-89400929D01*
X170865251Y-89496481D01*
X170916313Y-89572900D01*
X170940326Y-89608839D01*
X170992038Y-89733682D01*
X171018400Y-89866214D01*
X171018400Y-90001346D01*
X170992038Y-90133878D01*
X170940326Y-90258721D01*
X170940325Y-90258723D01*
X170865251Y-90371079D01*
X170769699Y-90466631D01*
X170657343Y-90541705D01*
X170657342Y-90541706D01*
X170657341Y-90541706D01*
X170532498Y-90593418D01*
X170399966Y-90619780D01*
X170264834Y-90619780D01*
X170132302Y-90593418D01*
X170007459Y-90541706D01*
X170007458Y-90541706D01*
X170007457Y-90541705D01*
X169895101Y-90466631D01*
X169799549Y-90371079D01*
X169724475Y-90258723D01*
X169724474Y-90258721D01*
X169672762Y-90133878D01*
X169646400Y-90001346D01*
X169646400Y-89866214D01*
X169672762Y-89733682D01*
X169724474Y-89608839D01*
X169748488Y-89572900D01*
X169799549Y-89496481D01*
X169895101Y-89400929D01*
X170007457Y-89325855D01*
X170007459Y-89325854D01*
X170132302Y-89274142D01*
X170264834Y-89247780D01*
X170399966Y-89247780D01*
X170532498Y-89274142D01*
G37*
G36*
X142389298Y-89274142D02*
G01*
X142514141Y-89325854D01*
X142514143Y-89325855D01*
X142626499Y-89400929D01*
X142722051Y-89496481D01*
X142773113Y-89572900D01*
X142797126Y-89608839D01*
X142848838Y-89733682D01*
X142875200Y-89866214D01*
X142875200Y-90001346D01*
X142848838Y-90133878D01*
X142797126Y-90258721D01*
X142797125Y-90258723D01*
X142722051Y-90371079D01*
X142626499Y-90466631D01*
X142514143Y-90541705D01*
X142514142Y-90541706D01*
X142514141Y-90541706D01*
X142389298Y-90593418D01*
X142256766Y-90619780D01*
X142121634Y-90619780D01*
X141989102Y-90593418D01*
X141864259Y-90541706D01*
X141864258Y-90541706D01*
X141864257Y-90541705D01*
X141751901Y-90466631D01*
X141656349Y-90371079D01*
X141581275Y-90258723D01*
X141581274Y-90258721D01*
X141529562Y-90133878D01*
X141503200Y-90001346D01*
X141503200Y-89866214D01*
X141529562Y-89733682D01*
X141581274Y-89608839D01*
X141605288Y-89572900D01*
X141656349Y-89496481D01*
X141751901Y-89400929D01*
X141864257Y-89325855D01*
X141864259Y-89325854D01*
X141989102Y-89274142D01*
X142121634Y-89247780D01*
X142256766Y-89247780D01*
X142389298Y-89274142D01*
G37*
G36*
X163503347Y-87989321D02*
G01*
X163582976Y-87997164D01*
X163736227Y-88043652D01*
X163736230Y-88043653D01*
X163877463Y-88119144D01*
X164001259Y-88220741D01*
X164102856Y-88344537D01*
X164178347Y-88485770D01*
X164178348Y-88485773D01*
X164224836Y-88639024D01*
X164240533Y-88798400D01*
X164224836Y-88957776D01*
X164178348Y-89111027D01*
X164178347Y-89111030D01*
X164102856Y-89252263D01*
X164001259Y-89376059D01*
X163877463Y-89477656D01*
X163736230Y-89553147D01*
X163736227Y-89553148D01*
X163582976Y-89599636D01*
X163503347Y-89607479D01*
X163463534Y-89611400D01*
X161859666Y-89611400D01*
X161819853Y-89607479D01*
X161740224Y-89599636D01*
X161586973Y-89553148D01*
X161586970Y-89553147D01*
X161445737Y-89477656D01*
X161321941Y-89376059D01*
X161220344Y-89252263D01*
X161144853Y-89111030D01*
X161144852Y-89111027D01*
X161098364Y-88957776D01*
X161082667Y-88798400D01*
X161098364Y-88639024D01*
X161144852Y-88485773D01*
X161144853Y-88485770D01*
X161220344Y-88344537D01*
X161321941Y-88220741D01*
X161445737Y-88119144D01*
X161586970Y-88043653D01*
X161586973Y-88043652D01*
X161740224Y-87997164D01*
X161819853Y-87989321D01*
X161859666Y-87985400D01*
X163463534Y-87985400D01*
X163503347Y-87989321D01*
G37*
G36*
X142875200Y-88618260D02*
G01*
X141503200Y-88618260D01*
X141503200Y-87246260D01*
X142875200Y-87246260D01*
X142875200Y-88618260D01*
G37*
G36*
X170532498Y-87272622D02*
G01*
X170657341Y-87324334D01*
X170657343Y-87324335D01*
X170769699Y-87399409D01*
X170865251Y-87494961D01*
X170940326Y-87607319D01*
X170992038Y-87732162D01*
X171018400Y-87864694D01*
X171018400Y-87999826D01*
X170992038Y-88132358D01*
X170955428Y-88220741D01*
X170940325Y-88257203D01*
X170865251Y-88369559D01*
X170769699Y-88465111D01*
X170657343Y-88540185D01*
X170657342Y-88540186D01*
X170657341Y-88540186D01*
X170532498Y-88591898D01*
X170399966Y-88618260D01*
X170264834Y-88618260D01*
X170132302Y-88591898D01*
X170007459Y-88540186D01*
X170007458Y-88540186D01*
X170007457Y-88540185D01*
X169895101Y-88465111D01*
X169799549Y-88369559D01*
X169724475Y-88257203D01*
X169709372Y-88220741D01*
X169672762Y-88132358D01*
X169646400Y-87999826D01*
X169646400Y-87864694D01*
X169672762Y-87732162D01*
X169724474Y-87607319D01*
X169799549Y-87494961D01*
X169895101Y-87399409D01*
X170007457Y-87324335D01*
X170007459Y-87324334D01*
X170132302Y-87272622D01*
X170264834Y-87246260D01*
X170399966Y-87246260D01*
X170532498Y-87272622D01*
G37*
G36*
X159570400Y-87790200D02*
G01*
X157218400Y-87790200D01*
X157218400Y-86588200D01*
X159570400Y-86588200D01*
X159570400Y-87790200D01*
G37*
G36*
X155079900Y-87528600D02*
G01*
X153072900Y-87528600D01*
X153072900Y-86156600D01*
X155079900Y-86156600D01*
X155079900Y-87528600D01*
G37*
G36*
X163503347Y-85449321D02*
G01*
X163582976Y-85457164D01*
X163736227Y-85503652D01*
X163736230Y-85503653D01*
X163877463Y-85579144D01*
X164001259Y-85680741D01*
X164102856Y-85804537D01*
X164178347Y-85945770D01*
X164178348Y-85945773D01*
X164224836Y-86099024D01*
X164240533Y-86258400D01*
X164224836Y-86417776D01*
X164178348Y-86571027D01*
X164178347Y-86571030D01*
X164102856Y-86712263D01*
X164001259Y-86836059D01*
X163877463Y-86937656D01*
X163736230Y-87013147D01*
X163736227Y-87013148D01*
X163582976Y-87059636D01*
X163503347Y-87067479D01*
X163463534Y-87071400D01*
X161859666Y-87071400D01*
X161819853Y-87067479D01*
X161740224Y-87059636D01*
X161586973Y-87013148D01*
X161586970Y-87013147D01*
X161445737Y-86937656D01*
X161321941Y-86836059D01*
X161220344Y-86712263D01*
X161144853Y-86571030D01*
X161144852Y-86571027D01*
X161098364Y-86417776D01*
X161082667Y-86258400D01*
X161098364Y-86099024D01*
X161144852Y-85945773D01*
X161144853Y-85945770D01*
X161220344Y-85804537D01*
X161321941Y-85680741D01*
X161445737Y-85579144D01*
X161586970Y-85503653D01*
X161586973Y-85503652D01*
X161740224Y-85457164D01*
X161819853Y-85449321D01*
X161859666Y-85445400D01*
X163463534Y-85445400D01*
X163503347Y-85449321D01*
G37*
G36*
X163503347Y-82909321D02*
G01*
X163582976Y-82917164D01*
X163736227Y-82963652D01*
X163736230Y-82963653D01*
X163877463Y-83039144D01*
X164001259Y-83140741D01*
X164102856Y-83264537D01*
X164178347Y-83405770D01*
X164178348Y-83405773D01*
X164224836Y-83559024D01*
X164240533Y-83718400D01*
X164224836Y-83877776D01*
X164178348Y-84031027D01*
X164178347Y-84031030D01*
X164102856Y-84172263D01*
X164001259Y-84296059D01*
X163877463Y-84397656D01*
X163736230Y-84473147D01*
X163736227Y-84473148D01*
X163582976Y-84519636D01*
X163503347Y-84527479D01*
X163463534Y-84531400D01*
X161859666Y-84531400D01*
X161819853Y-84527479D01*
X161740224Y-84519636D01*
X161586973Y-84473148D01*
X161586970Y-84473147D01*
X161445737Y-84397656D01*
X161321941Y-84296059D01*
X161220344Y-84172263D01*
X161144853Y-84031030D01*
X161144852Y-84031027D01*
X161098364Y-83877776D01*
X161082667Y-83718400D01*
X161098364Y-83559024D01*
X161144852Y-83405773D01*
X161144853Y-83405770D01*
X161220344Y-83264537D01*
X161321941Y-83140741D01*
X161445737Y-83039144D01*
X161586970Y-82963653D01*
X161586973Y-82963652D01*
X161740224Y-82917164D01*
X161819853Y-82909321D01*
X161859666Y-82905400D01*
X163463534Y-82905400D01*
X163503347Y-82909321D01*
G37*
G36*
X155079900Y-84226600D02*
G01*
X153072900Y-84226600D01*
X153072900Y-82854600D01*
X155079900Y-82854600D01*
X155079900Y-84226600D01*
G37*
G36*
X159570400Y-83490200D02*
G01*
X157218400Y-83490200D01*
X157218400Y-82288200D01*
X159570400Y-82288200D01*
X159570400Y-83490200D01*
G37*
G36*
X150518867Y-79633663D02*
G01*
X150671011Y-79663926D01*
X150789737Y-79713104D01*
X150957641Y-79782652D01*
X150957642Y-79782653D01*
X151215604Y-79955017D01*
X151434983Y-80174396D01*
X151550153Y-80346761D01*
X151607348Y-80432359D01*
X151676896Y-80600263D01*
X151726074Y-80718989D01*
X151755270Y-80865770D01*
X151784656Y-81013500D01*
X151786600Y-81023276D01*
X151786600Y-81333524D01*
X151727178Y-81632263D01*
X151726074Y-81637810D01*
X151607348Y-81924441D01*
X151607347Y-81924442D01*
X151434983Y-82182404D01*
X151215604Y-82401783D01*
X151043239Y-82516953D01*
X150957641Y-82574148D01*
X150789737Y-82643696D01*
X150671011Y-82692874D01*
X150518867Y-82723137D01*
X150366725Y-82753400D01*
X150056475Y-82753400D01*
X149904333Y-82723137D01*
X149752189Y-82692874D01*
X149633463Y-82643696D01*
X149465559Y-82574148D01*
X149379961Y-82516953D01*
X149207596Y-82401783D01*
X148988217Y-82182404D01*
X148815853Y-81924442D01*
X148815852Y-81924441D01*
X148697126Y-81637810D01*
X148696023Y-81632263D01*
X148636600Y-81333524D01*
X148636600Y-81023276D01*
X148638545Y-81013500D01*
X148667930Y-80865770D01*
X148697126Y-80718989D01*
X148746304Y-80600263D01*
X148815852Y-80432359D01*
X148873047Y-80346761D01*
X148988217Y-80174396D01*
X149207596Y-79955017D01*
X149465558Y-79782653D01*
X149465559Y-79782652D01*
X149633463Y-79713104D01*
X149752189Y-79663926D01*
X150056475Y-79603400D01*
X150366725Y-79603400D01*
X150518867Y-79633663D01*
G37*
G36*
X163503347Y-80369321D02*
G01*
X163582976Y-80377164D01*
X163736227Y-80423652D01*
X163736230Y-80423653D01*
X163877463Y-80499144D01*
X164001259Y-80600741D01*
X164102856Y-80724537D01*
X164178347Y-80865770D01*
X164178348Y-80865773D01*
X164224836Y-81019024D01*
X164240533Y-81178400D01*
X164224836Y-81337776D01*
X164178348Y-81491027D01*
X164178347Y-81491030D01*
X164102856Y-81632263D01*
X164001259Y-81756059D01*
X163877463Y-81857656D01*
X163736230Y-81933147D01*
X163736227Y-81933148D01*
X163582976Y-81979636D01*
X163503347Y-81987479D01*
X163463534Y-81991400D01*
X161859666Y-81991400D01*
X161819853Y-81987479D01*
X161740224Y-81979636D01*
X161586973Y-81933148D01*
X161586970Y-81933147D01*
X161445737Y-81857656D01*
X161321941Y-81756059D01*
X161220344Y-81632263D01*
X161144853Y-81491030D01*
X161144852Y-81491027D01*
X161098364Y-81337776D01*
X161082667Y-81178400D01*
X161098364Y-81019024D01*
X161144852Y-80865773D01*
X161144853Y-80865770D01*
X161220344Y-80724537D01*
X161321941Y-80600741D01*
X161445737Y-80499144D01*
X161586970Y-80423653D01*
X161586973Y-80423652D01*
X161740224Y-80377164D01*
X161819853Y-80369321D01*
X161859666Y-80365400D01*
X163463534Y-80365400D01*
X163503347Y-80369321D01*
G37*
G36*
X155753000Y-81013500D02*
G01*
X154381000Y-81013500D01*
X154381000Y-79006500D01*
X155753000Y-79006500D01*
X155753000Y-81013500D01*
G37*
G36*
X159055000Y-81013500D02*
G01*
X157683000Y-81013500D01*
X157683000Y-79006500D01*
X159055000Y-79006500D01*
X159055000Y-81013500D01*
G37*
G36*
X149826095Y-72910496D02*
G01*
X149988884Y-72959878D01*
X149988887Y-72959879D01*
X150138907Y-73040066D01*
X150138908Y-73040067D01*
X150138912Y-73040069D01*
X150270412Y-73147988D01*
X150378331Y-73279488D01*
X150378333Y-73279492D01*
X150378334Y-73279493D01*
X150458521Y-73429513D01*
X150458522Y-73429516D01*
X150507904Y-73592305D01*
X150520400Y-73719180D01*
X150520400Y-75328020D01*
X150507904Y-75454895D01*
X150458522Y-75617683D01*
X150458521Y-75617687D01*
X150378334Y-75767707D01*
X150378331Y-75767712D01*
X150270412Y-75899212D01*
X150138911Y-76007131D01*
X150138907Y-76007134D01*
X149988887Y-76087321D01*
X149946526Y-76100171D01*
X149826094Y-76136704D01*
X149656800Y-76153378D01*
X149487505Y-76136704D01*
X149324716Y-76087322D01*
X149324713Y-76087321D01*
X149174693Y-76007134D01*
X149174692Y-76007133D01*
X149174688Y-76007131D01*
X149043188Y-75899212D01*
X148935269Y-75767711D01*
X148935268Y-75767710D01*
X148935266Y-75767707D01*
X148855079Y-75617687D01*
X148842229Y-75575326D01*
X148805696Y-75454894D01*
X148793200Y-75328019D01*
X148793201Y-73719180D01*
X148805697Y-73592305D01*
X148855079Y-73429516D01*
X148855080Y-73429513D01*
X148935267Y-73279493D01*
X148935268Y-73279492D01*
X148935270Y-73279488D01*
X149043189Y-73147988D01*
X149174689Y-73040069D01*
X149174693Y-73040067D01*
X149174694Y-73040066D01*
X149324714Y-72959879D01*
X149324717Y-72959878D01*
X149487506Y-72910496D01*
X149656800Y-72893822D01*
X149826095Y-72910496D01*
G37*
G36*
X152366095Y-72910496D02*
G01*
X152528884Y-72959878D01*
X152528887Y-72959879D01*
X152678907Y-73040066D01*
X152678908Y-73040067D01*
X152678912Y-73040069D01*
X152810412Y-73147988D01*
X152918331Y-73279488D01*
X152918333Y-73279492D01*
X152918334Y-73279493D01*
X152998521Y-73429513D01*
X152998522Y-73429516D01*
X153047904Y-73592305D01*
X153060400Y-73719180D01*
X153060400Y-75328020D01*
X153047904Y-75454895D01*
X152998522Y-75617683D01*
X152998521Y-75617687D01*
X152918334Y-75767707D01*
X152918331Y-75767712D01*
X152810412Y-75899212D01*
X152678911Y-76007131D01*
X152678907Y-76007134D01*
X152528887Y-76087321D01*
X152486526Y-76100171D01*
X152366094Y-76136704D01*
X152196800Y-76153378D01*
X152027505Y-76136704D01*
X151864716Y-76087322D01*
X151864713Y-76087321D01*
X151714693Y-76007134D01*
X151714692Y-76007133D01*
X151714688Y-76007131D01*
X151583188Y-75899212D01*
X151475269Y-75767711D01*
X151475268Y-75767710D01*
X151475266Y-75767707D01*
X151395079Y-75617687D01*
X151382229Y-75575326D01*
X151345696Y-75454894D01*
X151333200Y-75328019D01*
X151333201Y-73719180D01*
X151345697Y-73592305D01*
X151395079Y-73429516D01*
X151395080Y-73429513D01*
X151475267Y-73279493D01*
X151475268Y-73279492D01*
X151475270Y-73279488D01*
X151583189Y-73147988D01*
X151714689Y-73040069D01*
X151714693Y-73040067D01*
X151714694Y-73040066D01*
X151864714Y-72959879D01*
X151864717Y-72959878D01*
X152027506Y-72910496D01*
X152196800Y-72893822D01*
X152366095Y-72910496D01*
G37*
G36*
X154906095Y-72910496D02*
G01*
X155068884Y-72959878D01*
X155068887Y-72959879D01*
X155218907Y-73040066D01*
X155218908Y-73040067D01*
X155218912Y-73040069D01*
X155350412Y-73147988D01*
X155458331Y-73279488D01*
X155458333Y-73279492D01*
X155458334Y-73279493D01*
X155538521Y-73429513D01*
X155538522Y-73429516D01*
X155587904Y-73592305D01*
X155600400Y-73719180D01*
X155600400Y-75328020D01*
X155587904Y-75454895D01*
X155538522Y-75617683D01*
X155538521Y-75617687D01*
X155458334Y-75767707D01*
X155458331Y-75767712D01*
X155350412Y-75899212D01*
X155218911Y-76007131D01*
X155218907Y-76007134D01*
X155068887Y-76087321D01*
X155026526Y-76100171D01*
X154906094Y-76136704D01*
X154736800Y-76153378D01*
X154567505Y-76136704D01*
X154404716Y-76087322D01*
X154404713Y-76087321D01*
X154254693Y-76007134D01*
X154254692Y-76007133D01*
X154254688Y-76007131D01*
X154123188Y-75899212D01*
X154015269Y-75767711D01*
X154015268Y-75767710D01*
X154015266Y-75767707D01*
X153935079Y-75617687D01*
X153922229Y-75575326D01*
X153885696Y-75454894D01*
X153873200Y-75328019D01*
X153873201Y-73719180D01*
X153885697Y-73592305D01*
X153935079Y-73429516D01*
X153935080Y-73429513D01*
X154015267Y-73279493D01*
X154015268Y-73279492D01*
X154015270Y-73279488D01*
X154123189Y-73147988D01*
X154254689Y-73040069D01*
X154254693Y-73040067D01*
X154254694Y-73040066D01*
X154404714Y-72959879D01*
X154404717Y-72959878D01*
X154567506Y-72910496D01*
X154736800Y-72893822D01*
X154906095Y-72910496D01*
G37*
G36*
X157446095Y-72910496D02*
G01*
X157608884Y-72959878D01*
X157608887Y-72959879D01*
X157758907Y-73040066D01*
X157758908Y-73040067D01*
X157758912Y-73040069D01*
X157890412Y-73147988D01*
X157998331Y-73279488D01*
X157998333Y-73279492D01*
X157998334Y-73279493D01*
X158078521Y-73429513D01*
X158078522Y-73429516D01*
X158127904Y-73592305D01*
X158140400Y-73719180D01*
X158140400Y-75328020D01*
X158127904Y-75454895D01*
X158078522Y-75617683D01*
X158078521Y-75617687D01*
X157998334Y-75767707D01*
X157998331Y-75767712D01*
X157890412Y-75899212D01*
X157758911Y-76007131D01*
X157758907Y-76007134D01*
X157608887Y-76087321D01*
X157566526Y-76100171D01*
X157446094Y-76136704D01*
X157276800Y-76153378D01*
X157107505Y-76136704D01*
X156944716Y-76087322D01*
X156944713Y-76087321D01*
X156794693Y-76007134D01*
X156794692Y-76007133D01*
X156794688Y-76007131D01*
X156663188Y-75899212D01*
X156555269Y-75767711D01*
X156555268Y-75767710D01*
X156555266Y-75767707D01*
X156475079Y-75617687D01*
X156462229Y-75575326D01*
X156425696Y-75454894D01*
X156413200Y-75328019D01*
X156413201Y-73719180D01*
X156425697Y-73592305D01*
X156475079Y-73429516D01*
X156475080Y-73429513D01*
X156555267Y-73279493D01*
X156555268Y-73279492D01*
X156555270Y-73279488D01*
X156663189Y-73147988D01*
X156794689Y-73040069D01*
X156794693Y-73040067D01*
X156794694Y-73040066D01*
X156944714Y-72959879D01*
X156944717Y-72959878D01*
X157107506Y-72910496D01*
X157276800Y-72893822D01*
X157446095Y-72910496D01*
G37*
G36*
X159986095Y-72910496D02*
G01*
X160148884Y-72959878D01*
X160148887Y-72959879D01*
X160298907Y-73040066D01*
X160298908Y-73040067D01*
X160298912Y-73040069D01*
X160430412Y-73147988D01*
X160538331Y-73279488D01*
X160538333Y-73279492D01*
X160538334Y-73279493D01*
X160618521Y-73429513D01*
X160618522Y-73429516D01*
X160667904Y-73592305D01*
X160680400Y-73719180D01*
X160680400Y-75328020D01*
X160667904Y-75454895D01*
X160618522Y-75617683D01*
X160618521Y-75617687D01*
X160538334Y-75767707D01*
X160538331Y-75767712D01*
X160430412Y-75899212D01*
X160298911Y-76007131D01*
X160298907Y-76007134D01*
X160148887Y-76087321D01*
X160106526Y-76100171D01*
X159986094Y-76136704D01*
X159816800Y-76153378D01*
X159647505Y-76136704D01*
X159484716Y-76087322D01*
X159484713Y-76087321D01*
X159334693Y-76007134D01*
X159334692Y-76007133D01*
X159334688Y-76007131D01*
X159203188Y-75899212D01*
X159095269Y-75767711D01*
X159095268Y-75767710D01*
X159095266Y-75767707D01*
X159015079Y-75617687D01*
X159002229Y-75575326D01*
X158965696Y-75454894D01*
X158953200Y-75328019D01*
X158953201Y-73719180D01*
X158965697Y-73592305D01*
X159015079Y-73429516D01*
X159015080Y-73429513D01*
X159095267Y-73279493D01*
X159095268Y-73279492D01*
X159095270Y-73279488D01*
X159203189Y-73147988D01*
X159334689Y-73040069D01*
X159334693Y-73040067D01*
X159334694Y-73040066D01*
X159484714Y-72959879D01*
X159484717Y-72959878D01*
X159647506Y-72910496D01*
X159816800Y-72893822D01*
X159986095Y-72910496D01*
G37*
G36*
X162526095Y-72910496D02*
G01*
X162688884Y-72959878D01*
X162688887Y-72959879D01*
X162838907Y-73040066D01*
X162838908Y-73040067D01*
X162838912Y-73040069D01*
X162970412Y-73147988D01*
X163078331Y-73279488D01*
X163078333Y-73279492D01*
X163078334Y-73279493D01*
X163158521Y-73429513D01*
X163158522Y-73429516D01*
X163207904Y-73592305D01*
X163220400Y-73719180D01*
X163220400Y-75328020D01*
X163207904Y-75454895D01*
X163158522Y-75617683D01*
X163158521Y-75617687D01*
X163078334Y-75767707D01*
X163078331Y-75767712D01*
X162970412Y-75899212D01*
X162838911Y-76007131D01*
X162838907Y-76007134D01*
X162688887Y-76087321D01*
X162646526Y-76100171D01*
X162526094Y-76136704D01*
X162356800Y-76153378D01*
X162187505Y-76136704D01*
X162024716Y-76087322D01*
X162024713Y-76087321D01*
X161874693Y-76007134D01*
X161874692Y-76007133D01*
X161874688Y-76007131D01*
X161743188Y-75899212D01*
X161635269Y-75767711D01*
X161635268Y-75767710D01*
X161635266Y-75767707D01*
X161555079Y-75617687D01*
X161542229Y-75575326D01*
X161505696Y-75454894D01*
X161493200Y-75328019D01*
X161493201Y-73719180D01*
X161505697Y-73592305D01*
X161555079Y-73429516D01*
X161555080Y-73429513D01*
X161635267Y-73279493D01*
X161635268Y-73279492D01*
X161635270Y-73279488D01*
X161743189Y-73147988D01*
X161874689Y-73040069D01*
X161874693Y-73040067D01*
X161874694Y-73040066D01*
X162024714Y-72959879D01*
X162024717Y-72959878D01*
X162187506Y-72910496D01*
X162356800Y-72893822D01*
X162526095Y-72910496D01*
G37*
G36*
X142904903Y-68617075D02*
G01*
X143132571Y-68711378D01*
X143337466Y-68848285D01*
X143511715Y-69022534D01*
X143648622Y-69227429D01*
X143742925Y-69455097D01*
X143791000Y-69696787D01*
X143791000Y-69943213D01*
X143742925Y-70184903D01*
X143648622Y-70412571D01*
X143511715Y-70617466D01*
X143337466Y-70791715D01*
X143132571Y-70928622D01*
X143132570Y-70928623D01*
X143132569Y-70928623D01*
X142904903Y-71022925D01*
X142663214Y-71071000D01*
X142416786Y-71071000D01*
X142175097Y-71022925D01*
X141947431Y-70928623D01*
X141947430Y-70928623D01*
X141947429Y-70928622D01*
X141742534Y-70791715D01*
X141568285Y-70617466D01*
X141431378Y-70412571D01*
X141337075Y-70184903D01*
X141289000Y-69943213D01*
X141289000Y-69696787D01*
X141337075Y-69455097D01*
X141431378Y-69227429D01*
X141568285Y-69022534D01*
X141742534Y-68848285D01*
X141947429Y-68711378D01*
X142175097Y-68617075D01*
X142416786Y-68569000D01*
X142663214Y-68569000D01*
X142904903Y-68617075D01*
G37*
G36*
X170841000Y-71071000D02*
G01*
X168339000Y-71071000D01*
X168339000Y-68569000D01*
X170841000Y-68569000D01*
X170841000Y-71071000D01*
G37*
G36*
X169954903Y-65117075D02*
G01*
X170182571Y-65211378D01*
X170387466Y-65348285D01*
X170561715Y-65522534D01*
X170698622Y-65727429D01*
X170792925Y-65955097D01*
X170841000Y-66196787D01*
X170841000Y-66443213D01*
X170792925Y-66684903D01*
X170698622Y-66912571D01*
X170561715Y-67117466D01*
X170387466Y-67291715D01*
X170182571Y-67428622D01*
X170182570Y-67428623D01*
X170182569Y-67428623D01*
X169954903Y-67522925D01*
X169713214Y-67571000D01*
X169466786Y-67571000D01*
X169225097Y-67522925D01*
X168997431Y-67428623D01*
X168997430Y-67428623D01*
X168997429Y-67428622D01*
X168792534Y-67291715D01*
X168618285Y-67117466D01*
X168481378Y-66912571D01*
X168387075Y-66684903D01*
X168339000Y-66443213D01*
X168339000Y-66196787D01*
X168387075Y-65955097D01*
X168481378Y-65727429D01*
X168618285Y-65522534D01*
X168792534Y-65348285D01*
X168997429Y-65211378D01*
X169225097Y-65117075D01*
X169466786Y-65069000D01*
X169713214Y-65069000D01*
X169954903Y-65117075D01*
G37*
G36*
X143791000Y-67571000D02*
G01*
X141289000Y-67571000D01*
X141289000Y-65069000D01*
X143791000Y-65069000D01*
X143791000Y-67571000D01*
G37*
G36*
X149826094Y-60716896D02*
G01*
X149946526Y-60753429D01*
X149988887Y-60766279D01*
X150138907Y-60846466D01*
X150138910Y-60846468D01*
X150138911Y-60846469D01*
X150270412Y-60954388D01*
X150378331Y-61085888D01*
X150378333Y-61085892D01*
X150378334Y-61085893D01*
X150458521Y-61235913D01*
X150458522Y-61235916D01*
X150507904Y-61398705D01*
X150520400Y-61525580D01*
X150520400Y-63134420D01*
X150507904Y-63261295D01*
X150458522Y-63424084D01*
X150458521Y-63424087D01*
X150378334Y-63574107D01*
X150378331Y-63574112D01*
X150270412Y-63705612D01*
X150138912Y-63813531D01*
X150138908Y-63813533D01*
X150138907Y-63813534D01*
X149988887Y-63893721D01*
X149988884Y-63893722D01*
X149826095Y-63943104D01*
X149656800Y-63959778D01*
X149487506Y-63943104D01*
X149324717Y-63893722D01*
X149324714Y-63893721D01*
X149174694Y-63813534D01*
X149174693Y-63813533D01*
X149174689Y-63813531D01*
X149043189Y-63705612D01*
X148935270Y-63574112D01*
X148935267Y-63574107D01*
X148855080Y-63424087D01*
X148855079Y-63424084D01*
X148805697Y-63261295D01*
X148793201Y-63134420D01*
X148793200Y-61525581D01*
X148805696Y-61398706D01*
X148855078Y-61235917D01*
X148855079Y-61235913D01*
X148935266Y-61085893D01*
X148935270Y-61085888D01*
X149043188Y-60954388D01*
X149174688Y-60846469D01*
X149174692Y-60846467D01*
X149174693Y-60846466D01*
X149324713Y-60766279D01*
X149324716Y-60766278D01*
X149487505Y-60716896D01*
X149656800Y-60700222D01*
X149826094Y-60716896D01*
G37*
G36*
X152366094Y-60716896D02*
G01*
X152486526Y-60753429D01*
X152528887Y-60766279D01*
X152678907Y-60846466D01*
X152678910Y-60846468D01*
X152678911Y-60846469D01*
X152810412Y-60954388D01*
X152918331Y-61085888D01*
X152918333Y-61085892D01*
X152918334Y-61085893D01*
X152998521Y-61235913D01*
X152998522Y-61235916D01*
X153047904Y-61398705D01*
X153060400Y-61525580D01*
X153060400Y-63134420D01*
X153047904Y-63261295D01*
X152998522Y-63424084D01*
X152998521Y-63424087D01*
X152918334Y-63574107D01*
X152918331Y-63574112D01*
X152810412Y-63705612D01*
X152678912Y-63813531D01*
X152678908Y-63813533D01*
X152678907Y-63813534D01*
X152528887Y-63893721D01*
X152528884Y-63893722D01*
X152366095Y-63943104D01*
X152196800Y-63959778D01*
X152027506Y-63943104D01*
X151864717Y-63893722D01*
X151864714Y-63893721D01*
X151714694Y-63813534D01*
X151714693Y-63813533D01*
X151714689Y-63813531D01*
X151583189Y-63705612D01*
X151475270Y-63574112D01*
X151475267Y-63574107D01*
X151395080Y-63424087D01*
X151395079Y-63424084D01*
X151345697Y-63261295D01*
X151333201Y-63134420D01*
X151333200Y-61525581D01*
X151345696Y-61398706D01*
X151395078Y-61235917D01*
X151395079Y-61235913D01*
X151475266Y-61085893D01*
X151475270Y-61085888D01*
X151583188Y-60954388D01*
X151714688Y-60846469D01*
X151714692Y-60846467D01*
X151714693Y-60846466D01*
X151864713Y-60766279D01*
X151864716Y-60766278D01*
X152027505Y-60716896D01*
X152196800Y-60700222D01*
X152366094Y-60716896D01*
G37*
G36*
X154906094Y-60716896D02*
G01*
X155026526Y-60753429D01*
X155068887Y-60766279D01*
X155218907Y-60846466D01*
X155218910Y-60846468D01*
X155218911Y-60846469D01*
X155350412Y-60954388D01*
X155458331Y-61085888D01*
X155458333Y-61085892D01*
X155458334Y-61085893D01*
X155538521Y-61235913D01*
X155538522Y-61235916D01*
X155587904Y-61398705D01*
X155600400Y-61525580D01*
X155600400Y-63134420D01*
X155587904Y-63261295D01*
X155538522Y-63424084D01*
X155538521Y-63424087D01*
X155458334Y-63574107D01*
X155458331Y-63574112D01*
X155350412Y-63705612D01*
X155218912Y-63813531D01*
X155218908Y-63813533D01*
X155218907Y-63813534D01*
X155068887Y-63893721D01*
X155068884Y-63893722D01*
X154906095Y-63943104D01*
X154736800Y-63959778D01*
X154567506Y-63943104D01*
X154404717Y-63893722D01*
X154404714Y-63893721D01*
X154254694Y-63813534D01*
X154254693Y-63813533D01*
X154254689Y-63813531D01*
X154123189Y-63705612D01*
X154015270Y-63574112D01*
X154015267Y-63574107D01*
X153935080Y-63424087D01*
X153935079Y-63424084D01*
X153885697Y-63261295D01*
X153873201Y-63134420D01*
X153873200Y-61525581D01*
X153885696Y-61398706D01*
X153935078Y-61235917D01*
X153935079Y-61235913D01*
X154015266Y-61085893D01*
X154015270Y-61085888D01*
X154123188Y-60954388D01*
X154254688Y-60846469D01*
X154254692Y-60846467D01*
X154254693Y-60846466D01*
X154404713Y-60766279D01*
X154404716Y-60766278D01*
X154567505Y-60716896D01*
X154736800Y-60700222D01*
X154906094Y-60716896D01*
G37*
G36*
X157446094Y-60716896D02*
G01*
X157566526Y-60753429D01*
X157608887Y-60766279D01*
X157758907Y-60846466D01*
X157758910Y-60846468D01*
X157758911Y-60846469D01*
X157890412Y-60954388D01*
X157998331Y-61085888D01*
X157998333Y-61085892D01*
X157998334Y-61085893D01*
X158078521Y-61235913D01*
X158078522Y-61235916D01*
X158127904Y-61398705D01*
X158140400Y-61525580D01*
X158140400Y-63134420D01*
X158127904Y-63261295D01*
X158078522Y-63424084D01*
X158078521Y-63424087D01*
X157998334Y-63574107D01*
X157998331Y-63574112D01*
X157890412Y-63705612D01*
X157758912Y-63813531D01*
X157758908Y-63813533D01*
X157758907Y-63813534D01*
X157608887Y-63893721D01*
X157608884Y-63893722D01*
X157446095Y-63943104D01*
X157276800Y-63959778D01*
X157107506Y-63943104D01*
X156944717Y-63893722D01*
X156944714Y-63893721D01*
X156794694Y-63813534D01*
X156794693Y-63813533D01*
X156794689Y-63813531D01*
X156663189Y-63705612D01*
X156555270Y-63574112D01*
X156555267Y-63574107D01*
X156475080Y-63424087D01*
X156475079Y-63424084D01*
X156425697Y-63261295D01*
X156413201Y-63134420D01*
X156413200Y-61525581D01*
X156425696Y-61398706D01*
X156475078Y-61235917D01*
X156475079Y-61235913D01*
X156555266Y-61085893D01*
X156555270Y-61085888D01*
X156663188Y-60954388D01*
X156794688Y-60846469D01*
X156794692Y-60846467D01*
X156794693Y-60846466D01*
X156944713Y-60766279D01*
X156944716Y-60766278D01*
X157107505Y-60716896D01*
X157276800Y-60700222D01*
X157446094Y-60716896D01*
G37*
G36*
X159986094Y-60716896D02*
G01*
X160106526Y-60753429D01*
X160148887Y-60766279D01*
X160298907Y-60846466D01*
X160298910Y-60846468D01*
X160298911Y-60846469D01*
X160430412Y-60954388D01*
X160538331Y-61085888D01*
X160538333Y-61085892D01*
X160538334Y-61085893D01*
X160618521Y-61235913D01*
X160618522Y-61235916D01*
X160667904Y-61398705D01*
X160680400Y-61525580D01*
X160680400Y-63134420D01*
X160667904Y-63261295D01*
X160618522Y-63424084D01*
X160618521Y-63424087D01*
X160538334Y-63574107D01*
X160538331Y-63574112D01*
X160430412Y-63705612D01*
X160298912Y-63813531D01*
X160298908Y-63813533D01*
X160298907Y-63813534D01*
X160148887Y-63893721D01*
X160148884Y-63893722D01*
X159986095Y-63943104D01*
X159816800Y-63959778D01*
X159647506Y-63943104D01*
X159484717Y-63893722D01*
X159484714Y-63893721D01*
X159334694Y-63813534D01*
X159334693Y-63813533D01*
X159334689Y-63813531D01*
X159203189Y-63705612D01*
X159095270Y-63574112D01*
X159095267Y-63574107D01*
X159015080Y-63424087D01*
X159015079Y-63424084D01*
X158965697Y-63261295D01*
X158953201Y-63134420D01*
X158953200Y-61525581D01*
X158965696Y-61398706D01*
X159015078Y-61235917D01*
X159015079Y-61235913D01*
X159095266Y-61085893D01*
X159095270Y-61085888D01*
X159203188Y-60954388D01*
X159334688Y-60846469D01*
X159334692Y-60846467D01*
X159334693Y-60846466D01*
X159484713Y-60766279D01*
X159484716Y-60766278D01*
X159647505Y-60716896D01*
X159816800Y-60700222D01*
X159986094Y-60716896D01*
G37*
G36*
X162526094Y-60716896D02*
G01*
X162646526Y-60753429D01*
X162688887Y-60766279D01*
X162838907Y-60846466D01*
X162838910Y-60846468D01*
X162838911Y-60846469D01*
X162970412Y-60954388D01*
X163078331Y-61085888D01*
X163078333Y-61085892D01*
X163078334Y-61085893D01*
X163158521Y-61235913D01*
X163158522Y-61235916D01*
X163207904Y-61398705D01*
X163220400Y-61525580D01*
X163220400Y-63134420D01*
X163207904Y-63261295D01*
X163158522Y-63424084D01*
X163158521Y-63424087D01*
X163078334Y-63574107D01*
X163078331Y-63574112D01*
X162970412Y-63705612D01*
X162838912Y-63813531D01*
X162838908Y-63813533D01*
X162838907Y-63813534D01*
X162688887Y-63893721D01*
X162688884Y-63893722D01*
X162526095Y-63943104D01*
X162356800Y-63959778D01*
X162187506Y-63943104D01*
X162024717Y-63893722D01*
X162024714Y-63893721D01*
X161874694Y-63813534D01*
X161874693Y-63813533D01*
X161874689Y-63813531D01*
X161743189Y-63705612D01*
X161635270Y-63574112D01*
X161635267Y-63574107D01*
X161555080Y-63424087D01*
X161555079Y-63424084D01*
X161505697Y-63261295D01*
X161493201Y-63134420D01*
X161493200Y-61525581D01*
X161505696Y-61398706D01*
X161555078Y-61235917D01*
X161555079Y-61235913D01*
X161635266Y-61085893D01*
X161635270Y-61085888D01*
X161743188Y-60954388D01*
X161874688Y-60846469D01*
X161874692Y-60846467D01*
X161874693Y-60846466D01*
X162024713Y-60766279D01*
X162024716Y-60766278D01*
X162187505Y-60716896D01*
X162356800Y-60700222D01*
X162526094Y-60716896D01*
G37*
M02*
