M48
; DRILL file {KiCad (5.1.5-0-10_14)} date 2020 July 07, Tuesday 18:08:06
; FORMAT={3:3/ absolute / metric / keep zeros}
; #@! TF.CreationDate,2020-07-07T18:08:06+02:00
; #@! TF.GenerationSoftware,Kicad,Pcbnew,(5.1.5-0-10_14)
; #@! TF.FileFunction,Plated,1,2,PTH
FMAT,2
METRIC
T1C0.400
T2C1.016
T3C1.200
T4C2.000
%
G90
G05
T1
X141650Y074350
X146200Y094200
X147700Y075043
X147879Y087935
X148026Y076824
X149860Y097688
X150012Y092151
X152248Y078842
X153111Y097688
X153213Y093218
X153365Y079807
X155753Y088290
X156058Y103581
X156566Y093929
X156667Y097688
X156769Y081432
X157074Y089002
X157988Y084734
X158949Y085238
X159586Y088775
X160122Y080467
X161360Y076600
X163399Y071301
X165060Y075910
X167550Y073500
T2
X149657Y062330
X152197Y062330
X154737Y062330
X157277Y062330
X159817Y062330
X162357Y062330
X162662Y081178
X162662Y083718
X162662Y086258
X162662Y088798
X162662Y091338
X162662Y093878
X162662Y096418
X162662Y098958
X162662Y101498
X162662Y104038
X149657Y074524
X152197Y074524
X154737Y074524
X157277Y074524
X159817Y074524
X162357Y074524
T3
X142800Y086500
X142800Y090000
X169900Y086300
X169900Y089800
T4
X150212Y081178
X150212Y104038
T0
M30
