G04 #@! TF.GenerationSoftware,KiCad,Pcbnew,(5.1.5-0-10_14)*
G04 #@! TF.CreationDate,2020-07-07T09:51:05+02:00*
G04 #@! TF.ProjectId,smartcitizen-adc-4-ch,736d6172-7463-4697-9469-7a656e2d6164,rev?*
G04 #@! TF.SameCoordinates,Original*
G04 #@! TF.FileFunction,Legend,Bot*
G04 #@! TF.FilePolarity,Positive*
%FSLAX46Y46*%
G04 Gerber Fmt 4.6, Leading zero omitted, Abs format (unit mm)*
G04 Created by KiCad (PCBNEW (5.1.5-0-10_14)) date 2020-07-07 09:51:05*
%MOMM*%
%LPD*%
G04 APERTURE LIST*
%ADD10C,0.150000*%
%ADD11C,0.200000*%
%ADD12C,0.127000*%
%ADD13C,0.120000*%
G04 APERTURE END LIST*
D10*
X153382004Y-110864852D02*
X153503433Y-110824376D01*
X153705814Y-110824376D01*
X153786766Y-110864852D01*
X153827242Y-110905328D01*
X153867719Y-110986280D01*
X153867719Y-111067233D01*
X153827242Y-111148185D01*
X153786766Y-111188661D01*
X153705814Y-111229138D01*
X153543909Y-111269614D01*
X153462957Y-111310090D01*
X153422480Y-111350566D01*
X153382004Y-111431519D01*
X153382004Y-111512471D01*
X153422480Y-111593423D01*
X153462957Y-111633900D01*
X153543909Y-111674376D01*
X153746290Y-111674376D01*
X153867719Y-111633900D01*
X154232004Y-110824376D02*
X154232004Y-111391042D01*
X154232004Y-111310090D02*
X154272480Y-111350566D01*
X154353433Y-111391042D01*
X154474861Y-111391042D01*
X154555814Y-111350566D01*
X154596290Y-111269614D01*
X154596290Y-110824376D01*
X154596290Y-111269614D02*
X154636766Y-111350566D01*
X154717719Y-111391042D01*
X154839147Y-111391042D01*
X154920100Y-111350566D01*
X154960576Y-111269614D01*
X154960576Y-110824376D01*
X155729623Y-110824376D02*
X155729623Y-111269614D01*
X155689147Y-111350566D01*
X155608195Y-111391042D01*
X155446290Y-111391042D01*
X155365338Y-111350566D01*
X155729623Y-110864852D02*
X155648671Y-110824376D01*
X155446290Y-110824376D01*
X155365338Y-110864852D01*
X155324861Y-110945804D01*
X155324861Y-111026757D01*
X155365338Y-111107709D01*
X155446290Y-111148185D01*
X155648671Y-111148185D01*
X155729623Y-111188661D01*
X156134385Y-110824376D02*
X156134385Y-111391042D01*
X156134385Y-111229138D02*
X156174861Y-111310090D01*
X156215338Y-111350566D01*
X156296290Y-111391042D01*
X156377242Y-111391042D01*
X156539147Y-111391042D02*
X156862957Y-111391042D01*
X156660576Y-111674376D02*
X156660576Y-110945804D01*
X156701052Y-110864852D01*
X156782004Y-110824376D01*
X156862957Y-110824376D01*
X157632004Y-110905328D02*
X157591528Y-110864852D01*
X157470100Y-110824376D01*
X157389147Y-110824376D01*
X157267719Y-110864852D01*
X157186766Y-110945804D01*
X157146290Y-111026757D01*
X157105814Y-111188661D01*
X157105814Y-111310090D01*
X157146290Y-111471995D01*
X157186766Y-111552947D01*
X157267719Y-111633900D01*
X157389147Y-111674376D01*
X157470100Y-111674376D01*
X157591528Y-111633900D01*
X157632004Y-111593423D01*
X157996290Y-110824376D02*
X157996290Y-111391042D01*
X157996290Y-111674376D02*
X157955814Y-111633900D01*
X157996290Y-111593423D01*
X158036766Y-111633900D01*
X157996290Y-111674376D01*
X157996290Y-111593423D01*
X158279623Y-111391042D02*
X158603433Y-111391042D01*
X158401052Y-111674376D02*
X158401052Y-110945804D01*
X158441528Y-110864852D01*
X158522480Y-110824376D01*
X158603433Y-110824376D01*
X158886766Y-110824376D02*
X158886766Y-111391042D01*
X158886766Y-111674376D02*
X158846290Y-111633900D01*
X158886766Y-111593423D01*
X158927242Y-111633900D01*
X158886766Y-111674376D01*
X158886766Y-111593423D01*
X159210576Y-111391042D02*
X159655814Y-111391042D01*
X159210576Y-110824376D01*
X159655814Y-110824376D01*
X160303433Y-110864852D02*
X160222480Y-110824376D01*
X160060576Y-110824376D01*
X159979623Y-110864852D01*
X159939147Y-110945804D01*
X159939147Y-111269614D01*
X159979623Y-111350566D01*
X160060576Y-111391042D01*
X160222480Y-111391042D01*
X160303433Y-111350566D01*
X160343909Y-111269614D01*
X160343909Y-111188661D01*
X159939147Y-111107709D01*
X160708195Y-111391042D02*
X160708195Y-110824376D01*
X160708195Y-111310090D02*
X160748671Y-111350566D01*
X160829623Y-111391042D01*
X160951052Y-111391042D01*
X161032004Y-111350566D01*
X161072480Y-111269614D01*
X161072480Y-110824376D01*
X162084385Y-111067233D02*
X162489147Y-111067233D01*
X162003433Y-110824376D02*
X162286766Y-111674376D01*
X162570100Y-110824376D01*
X162812957Y-110864852D02*
X162934385Y-110824376D01*
X163136766Y-110824376D01*
X163217719Y-110864852D01*
X163258195Y-110905328D01*
X163298671Y-110986280D01*
X163298671Y-111067233D01*
X163258195Y-111148185D01*
X163217719Y-111188661D01*
X163136766Y-111229138D01*
X162974861Y-111269614D01*
X162893909Y-111310090D01*
X162853433Y-111350566D01*
X162812957Y-111431519D01*
X162812957Y-111512471D01*
X162853433Y-111593423D01*
X162893909Y-111633900D01*
X162974861Y-111674376D01*
X163177242Y-111674376D01*
X163298671Y-111633900D01*
X163946290Y-111269614D02*
X164067719Y-111229138D01*
X164108195Y-111188661D01*
X164148671Y-111107709D01*
X164148671Y-110986280D01*
X164108195Y-110905328D01*
X164067719Y-110864852D01*
X163986766Y-110824376D01*
X163662957Y-110824376D01*
X163662957Y-111674376D01*
X163946290Y-111674376D01*
X164027242Y-111633900D01*
X164067719Y-111593423D01*
X164108195Y-111512471D01*
X164108195Y-111431519D01*
X164067719Y-111350566D01*
X164027242Y-111310090D01*
X163946290Y-111269614D01*
X163662957Y-111269614D01*
X153786766Y-109966042D02*
X153786766Y-109399376D01*
X153584385Y-110289852D02*
X153382004Y-109682709D01*
X153908195Y-109682709D01*
X154232004Y-109723185D02*
X154879623Y-109723185D01*
X155648671Y-109439852D02*
X155567719Y-109399376D01*
X155405814Y-109399376D01*
X155324861Y-109439852D01*
X155284385Y-109480328D01*
X155243909Y-109561280D01*
X155243909Y-109804138D01*
X155284385Y-109885090D01*
X155324861Y-109925566D01*
X155405814Y-109966042D01*
X155567719Y-109966042D01*
X155648671Y-109925566D01*
X156012957Y-109399376D02*
X156012957Y-110249376D01*
X156377242Y-109399376D02*
X156377242Y-109844614D01*
X156336766Y-109925566D01*
X156255814Y-109966042D01*
X156134385Y-109966042D01*
X156053433Y-109925566D01*
X156012957Y-109885090D01*
X157429623Y-109399376D02*
X157429623Y-110249376D01*
X157793909Y-110168423D02*
X157834385Y-110208900D01*
X157915338Y-110249376D01*
X158117719Y-110249376D01*
X158198671Y-110208900D01*
X158239147Y-110168423D01*
X158279623Y-110087471D01*
X158279623Y-110006519D01*
X158239147Y-109885090D01*
X157753433Y-109399376D01*
X158279623Y-109399376D01*
X159129623Y-109480328D02*
X159089147Y-109439852D01*
X158967719Y-109399376D01*
X158886766Y-109399376D01*
X158765338Y-109439852D01*
X158684385Y-109520804D01*
X158643909Y-109601757D01*
X158603433Y-109763661D01*
X158603433Y-109885090D01*
X158643909Y-110046995D01*
X158684385Y-110127947D01*
X158765338Y-110208900D01*
X158886766Y-110249376D01*
X158967719Y-110249376D01*
X159089147Y-110208900D01*
X159129623Y-110168423D01*
X153422480Y-107974376D02*
X153422480Y-108824376D01*
X153786766Y-108743423D02*
X153827242Y-108783900D01*
X153908195Y-108824376D01*
X154110576Y-108824376D01*
X154191528Y-108783900D01*
X154232004Y-108743423D01*
X154272480Y-108662471D01*
X154272480Y-108581519D01*
X154232004Y-108460090D01*
X153746290Y-107974376D01*
X154272480Y-107974376D01*
X155122480Y-108055328D02*
X155082004Y-108014852D01*
X154960576Y-107974376D01*
X154879623Y-107974376D01*
X154758195Y-108014852D01*
X154677242Y-108095804D01*
X154636766Y-108176757D01*
X154596290Y-108338661D01*
X154596290Y-108460090D01*
X154636766Y-108621995D01*
X154677242Y-108702947D01*
X154758195Y-108783900D01*
X154879623Y-108824376D01*
X154960576Y-108824376D01*
X155082004Y-108783900D01*
X155122480Y-108743423D01*
X155486766Y-108055328D02*
X155527242Y-108014852D01*
X155486766Y-107974376D01*
X155446290Y-108014852D01*
X155486766Y-108055328D01*
X155486766Y-107974376D01*
X155486766Y-108500566D02*
X155527242Y-108460090D01*
X155486766Y-108419614D01*
X155446290Y-108460090D01*
X155486766Y-108500566D01*
X155486766Y-108419614D01*
X156458195Y-108824376D02*
X156984385Y-108824376D01*
X156701052Y-108500566D01*
X156822480Y-108500566D01*
X156903433Y-108460090D01*
X156943909Y-108419614D01*
X156984385Y-108338661D01*
X156984385Y-108136280D01*
X156943909Y-108055328D01*
X156903433Y-108014852D01*
X156822480Y-107974376D01*
X156579623Y-107974376D01*
X156498671Y-108014852D01*
X156458195Y-108055328D01*
X157348671Y-108055328D02*
X157389147Y-108014852D01*
X157348671Y-107974376D01*
X157308195Y-108014852D01*
X157348671Y-108055328D01*
X157348671Y-107974376D01*
X157672480Y-108824376D02*
X158198671Y-108824376D01*
X157915338Y-108500566D01*
X158036766Y-108500566D01*
X158117719Y-108460090D01*
X158158195Y-108419614D01*
X158198671Y-108338661D01*
X158198671Y-108136280D01*
X158158195Y-108055328D01*
X158117719Y-108014852D01*
X158036766Y-107974376D01*
X157793909Y-107974376D01*
X157712957Y-108014852D01*
X157672480Y-108055328D01*
X158441528Y-108824376D02*
X158724861Y-107974376D01*
X159008195Y-108824376D01*
X159817719Y-108541042D02*
X160141528Y-108541042D01*
X159939147Y-108824376D02*
X159939147Y-108095804D01*
X159979623Y-108014852D01*
X160060576Y-107974376D01*
X160141528Y-107974376D01*
X160546290Y-107974376D02*
X160465338Y-108014852D01*
X160424861Y-108055328D01*
X160384385Y-108136280D01*
X160384385Y-108379138D01*
X160424861Y-108460090D01*
X160465338Y-108500566D01*
X160546290Y-108541042D01*
X160667719Y-108541042D01*
X160748671Y-108500566D01*
X160789147Y-108460090D01*
X160829623Y-108379138D01*
X160829623Y-108136280D01*
X160789147Y-108055328D01*
X160748671Y-108014852D01*
X160667719Y-107974376D01*
X160546290Y-107974376D01*
X161841528Y-108419614D02*
X162124861Y-108419614D01*
X162246290Y-107974376D02*
X161841528Y-107974376D01*
X161841528Y-108824376D01*
X162246290Y-108824376D01*
X162529623Y-108824376D02*
X163096290Y-107974376D01*
X163096290Y-108824376D02*
X162529623Y-107974376D01*
X163298671Y-108824376D02*
X163784385Y-108824376D01*
X163541528Y-107974376D02*
X163541528Y-108824376D01*
X164067719Y-108298185D02*
X164715338Y-108298185D01*
X164998671Y-108824376D02*
X165282004Y-107974376D01*
X165565338Y-108824376D01*
X153422480Y-106994614D02*
X153705814Y-106994614D01*
X153827242Y-106549376D02*
X153422480Y-106549376D01*
X153422480Y-107399376D01*
X153827242Y-107399376D01*
X154110576Y-107399376D02*
X154677242Y-106549376D01*
X154677242Y-107399376D02*
X154110576Y-106549376D01*
X154879623Y-107399376D02*
X155365338Y-107399376D01*
X155122480Y-106549376D02*
X155122480Y-107399376D01*
X155648671Y-106873185D02*
X156296290Y-106873185D01*
X156579623Y-107399376D02*
X156862957Y-106549376D01*
X157146290Y-107399376D01*
X157429623Y-106630328D02*
X157470100Y-106589852D01*
X157429623Y-106549376D01*
X157389147Y-106589852D01*
X157429623Y-106630328D01*
X157429623Y-106549376D01*
X157429623Y-107075566D02*
X157470100Y-107035090D01*
X157429623Y-106994614D01*
X157389147Y-107035090D01*
X157429623Y-107075566D01*
X157429623Y-106994614D01*
X158482004Y-106549376D02*
X158482004Y-107399376D01*
X158846290Y-107318423D02*
X158886766Y-107358900D01*
X158967719Y-107399376D01*
X159170100Y-107399376D01*
X159251052Y-107358900D01*
X159291528Y-107318423D01*
X159332004Y-107237471D01*
X159332004Y-107156519D01*
X159291528Y-107035090D01*
X158805814Y-106549376D01*
X159332004Y-106549376D01*
X160182004Y-106630328D02*
X160141528Y-106589852D01*
X160020100Y-106549376D01*
X159939147Y-106549376D01*
X159817719Y-106589852D01*
X159736766Y-106670804D01*
X159696290Y-106751757D01*
X159655814Y-106913661D01*
X159655814Y-107035090D01*
X159696290Y-107196995D01*
X159736766Y-107277947D01*
X159817719Y-107358900D01*
X159939147Y-107399376D01*
X160020100Y-107399376D01*
X160141528Y-107358900D01*
X160182004Y-107318423D01*
X160546290Y-106873185D02*
X161193909Y-106873185D01*
X161477242Y-107399376D02*
X161760576Y-106549376D01*
X162043909Y-107399376D01*
X162853433Y-107116042D02*
X163177242Y-107116042D01*
X162974861Y-107399376D02*
X162974861Y-106670804D01*
X163015338Y-106589852D01*
X163096290Y-106549376D01*
X163177242Y-106549376D01*
X163582004Y-106549376D02*
X163501052Y-106589852D01*
X163460576Y-106630328D01*
X163420100Y-106711280D01*
X163420100Y-106954138D01*
X163460576Y-107035090D01*
X163501052Y-107075566D01*
X163582004Y-107116042D01*
X163703433Y-107116042D01*
X163784385Y-107075566D01*
X163824861Y-107035090D01*
X163865338Y-106954138D01*
X163865338Y-106711280D01*
X163824861Y-106630328D01*
X163784385Y-106589852D01*
X163703433Y-106549376D01*
X163582004Y-106549376D01*
X165282004Y-107399376D02*
X164877242Y-107399376D01*
X164836766Y-106994614D01*
X164877242Y-107035090D01*
X164958195Y-107075566D01*
X165160576Y-107075566D01*
X165241528Y-107035090D01*
X165282004Y-106994614D01*
X165322480Y-106913661D01*
X165322480Y-106711280D01*
X165282004Y-106630328D01*
X165241528Y-106589852D01*
X165160576Y-106549376D01*
X164958195Y-106549376D01*
X164877242Y-106589852D01*
X164836766Y-106630328D01*
X165686766Y-106630328D02*
X165727242Y-106589852D01*
X165686766Y-106549376D01*
X165646290Y-106589852D01*
X165686766Y-106630328D01*
X165686766Y-106549376D01*
X166496290Y-107399376D02*
X166091528Y-107399376D01*
X166051052Y-106994614D01*
X166091528Y-107035090D01*
X166172480Y-107075566D01*
X166374861Y-107075566D01*
X166455814Y-107035090D01*
X166496290Y-106994614D01*
X166536766Y-106913661D01*
X166536766Y-106711280D01*
X166496290Y-106630328D01*
X166455814Y-106589852D01*
X166374861Y-106549376D01*
X166172480Y-106549376D01*
X166091528Y-106589852D01*
X166051052Y-106630328D01*
X166779623Y-107399376D02*
X167062957Y-106549376D01*
X167346290Y-107399376D01*
D11*
X160052857Y-55991904D02*
X159976666Y-55991904D01*
X159900476Y-56030000D01*
X159862380Y-56068095D01*
X159824285Y-56144285D01*
X159786190Y-56296666D01*
X159786190Y-56487142D01*
X159824285Y-56639523D01*
X159862380Y-56715714D01*
X159900476Y-56753809D01*
X159976666Y-56791904D01*
X160052857Y-56791904D01*
X160129047Y-56753809D01*
X160167142Y-56715714D01*
X160205238Y-56639523D01*
X160243333Y-56487142D01*
X160243333Y-56296666D01*
X160205238Y-56144285D01*
X160167142Y-56068095D01*
X160129047Y-56030000D01*
X160052857Y-55991904D01*
X159100476Y-55991904D02*
X159252857Y-55991904D01*
X159329047Y-56030000D01*
X159367142Y-56068095D01*
X159443333Y-56182380D01*
X159481428Y-56334761D01*
X159481428Y-56639523D01*
X159443333Y-56715714D01*
X159405238Y-56753809D01*
X159329047Y-56791904D01*
X159176666Y-56791904D01*
X159100476Y-56753809D01*
X159062380Y-56715714D01*
X159024285Y-56639523D01*
X159024285Y-56449047D01*
X159062380Y-56372857D01*
X159100476Y-56334761D01*
X159176666Y-56296666D01*
X159329047Y-56296666D01*
X159405238Y-56334761D01*
X159443333Y-56372857D01*
X159481428Y-56449047D01*
X158110000Y-55953809D02*
X158795714Y-56982380D01*
X157690952Y-55991904D02*
X157614761Y-55991904D01*
X157538571Y-56030000D01*
X157500476Y-56068095D01*
X157462380Y-56144285D01*
X157424285Y-56296666D01*
X157424285Y-56487142D01*
X157462380Y-56639523D01*
X157500476Y-56715714D01*
X157538571Y-56753809D01*
X157614761Y-56791904D01*
X157690952Y-56791904D01*
X157767142Y-56753809D01*
X157805238Y-56715714D01*
X157843333Y-56639523D01*
X157881428Y-56487142D01*
X157881428Y-56296666D01*
X157843333Y-56144285D01*
X157805238Y-56068095D01*
X157767142Y-56030000D01*
X157690952Y-55991904D01*
X157157619Y-55991904D02*
X156624285Y-55991904D01*
X156967142Y-56791904D01*
X155748095Y-55953809D02*
X156433809Y-56982380D01*
X155519523Y-56068095D02*
X155481428Y-56030000D01*
X155405238Y-55991904D01*
X155214761Y-55991904D01*
X155138571Y-56030000D01*
X155100476Y-56068095D01*
X155062380Y-56144285D01*
X155062380Y-56220476D01*
X155100476Y-56334761D01*
X155557619Y-56791904D01*
X155062380Y-56791904D01*
X154567142Y-55991904D02*
X154490952Y-55991904D01*
X154414761Y-56030000D01*
X154376666Y-56068095D01*
X154338571Y-56144285D01*
X154300476Y-56296666D01*
X154300476Y-56487142D01*
X154338571Y-56639523D01*
X154376666Y-56715714D01*
X154414761Y-56753809D01*
X154490952Y-56791904D01*
X154567142Y-56791904D01*
X154643333Y-56753809D01*
X154681428Y-56715714D01*
X154719523Y-56639523D01*
X154757619Y-56487142D01*
X154757619Y-56296666D01*
X154719523Y-56144285D01*
X154681428Y-56068095D01*
X154643333Y-56030000D01*
X154567142Y-55991904D01*
X153995714Y-56068095D02*
X153957619Y-56030000D01*
X153881428Y-55991904D01*
X153690952Y-55991904D01*
X153614761Y-56030000D01*
X153576666Y-56068095D01*
X153538571Y-56144285D01*
X153538571Y-56220476D01*
X153576666Y-56334761D01*
X154033809Y-56791904D01*
X153538571Y-56791904D01*
X153043333Y-55991904D02*
X152967142Y-55991904D01*
X152890952Y-56030000D01*
X152852857Y-56068095D01*
X152814761Y-56144285D01*
X152776666Y-56296666D01*
X152776666Y-56487142D01*
X152814761Y-56639523D01*
X152852857Y-56715714D01*
X152890952Y-56753809D01*
X152967142Y-56791904D01*
X153043333Y-56791904D01*
X153119523Y-56753809D01*
X153157619Y-56715714D01*
X153195714Y-56639523D01*
X153233809Y-56487142D01*
X153233809Y-56296666D01*
X153195714Y-56144285D01*
X153157619Y-56068095D01*
X153119523Y-56030000D01*
X153043333Y-55991904D01*
D12*
X153060400Y-87223600D02*
X155092400Y-87223600D01*
X153060400Y-83159600D02*
X153060400Y-87223600D01*
X155092400Y-83159600D02*
X153060400Y-83159600D01*
X155092400Y-87223600D02*
X155092400Y-83159600D01*
X154508200Y-92913200D02*
X154508200Y-94945200D01*
X158572200Y-92913200D02*
X154508200Y-92913200D01*
X158572200Y-94945200D02*
X158572200Y-92913200D01*
X154508200Y-94945200D02*
X158572200Y-94945200D01*
X158750000Y-81026000D02*
X158750000Y-78994000D01*
X154686000Y-81026000D02*
X158750000Y-81026000D01*
X154686000Y-78994000D02*
X154686000Y-81026000D01*
X158750000Y-78994000D02*
X154686000Y-78994000D01*
D10*
X156944400Y-83414200D02*
X156944400Y-82339200D01*
X160019400Y-83414200D02*
X160019400Y-86664200D01*
X156769400Y-83414200D02*
X156769400Y-86664200D01*
X160019400Y-83414200D02*
X159744400Y-83414200D01*
X160019400Y-86664200D02*
X159744400Y-86664200D01*
X156769400Y-86664200D02*
X157044400Y-86664200D01*
X156769400Y-83414200D02*
X156944400Y-83414200D01*
D12*
X154533600Y-96672400D02*
X154533600Y-98704400D01*
X158597600Y-96672400D02*
X154533600Y-96672400D01*
X158597600Y-98704400D02*
X158597600Y-96672400D01*
X154533600Y-98704400D02*
X158597600Y-98704400D01*
X154635200Y-91592400D02*
X158699200Y-91592400D01*
X158699200Y-91592400D02*
X158699200Y-89560400D01*
X158699200Y-89560400D02*
X154635200Y-89560400D01*
X154635200Y-89560400D02*
X154635200Y-91592400D01*
D13*
X152711114Y-83601733D02*
X152749209Y-83568400D01*
X152787304Y-83468400D01*
X152787304Y-83401733D01*
X152749209Y-83301733D01*
X152673019Y-83235066D01*
X152596828Y-83201733D01*
X152444447Y-83168400D01*
X152330161Y-83168400D01*
X152177780Y-83201733D01*
X152101590Y-83235066D01*
X152025400Y-83301733D01*
X151987304Y-83401733D01*
X151987304Y-83468400D01*
X152025400Y-83568400D01*
X152063495Y-83601733D01*
X152253971Y-84201733D02*
X152787304Y-84201733D01*
X151949209Y-84035066D02*
X152520638Y-83868400D01*
X152520638Y-84301733D01*
X152685704Y-86222733D02*
X152685704Y-85822733D01*
X152685704Y-86022733D02*
X151885704Y-86022733D01*
X151999990Y-85956066D01*
X152076180Y-85889400D01*
X152114276Y-85822733D01*
X152152371Y-86822733D02*
X152685704Y-86822733D01*
X152152371Y-86522733D02*
X152571419Y-86522733D01*
X152647609Y-86556066D01*
X152685704Y-86622733D01*
X152685704Y-86722733D01*
X152647609Y-86789400D01*
X152609514Y-86822733D01*
X152266657Y-87389400D02*
X152266657Y-87156066D01*
X152685704Y-87156066D02*
X151885704Y-87156066D01*
X151885704Y-87489400D01*
X159658057Y-93396666D02*
X159658057Y-93163333D01*
X160077104Y-93163333D02*
X159277104Y-93163333D01*
X159277104Y-93496666D01*
X159658057Y-93996666D02*
X159696152Y-94096666D01*
X159734247Y-94130000D01*
X159810438Y-94163333D01*
X159924723Y-94163333D01*
X160000914Y-94130000D01*
X160039009Y-94096666D01*
X160077104Y-94030000D01*
X160077104Y-93763333D01*
X159277104Y-93763333D01*
X159277104Y-93996666D01*
X159315200Y-94063333D01*
X159353295Y-94096666D01*
X159429485Y-94130000D01*
X159505676Y-94130000D01*
X159581866Y-94096666D01*
X159619961Y-94063333D01*
X159658057Y-93996666D01*
X159658057Y-93763333D01*
X160077104Y-94830000D02*
X160077104Y-94430000D01*
X160077104Y-94630000D02*
X159277104Y-94630000D01*
X159391390Y-94563333D01*
X159467580Y-94496666D01*
X159505676Y-94430000D01*
X153803304Y-92653800D02*
X153803304Y-92253800D01*
X153803304Y-92453800D02*
X153003304Y-92453800D01*
X153117590Y-92387133D01*
X153193780Y-92320466D01*
X153231876Y-92253800D01*
X153727114Y-92953800D02*
X153765209Y-92987133D01*
X153803304Y-92953800D01*
X153765209Y-92920466D01*
X153727114Y-92953800D01*
X153803304Y-92953800D01*
X153003304Y-93620466D02*
X153003304Y-93287133D01*
X153384257Y-93253800D01*
X153346161Y-93287133D01*
X153308066Y-93353800D01*
X153308066Y-93520466D01*
X153346161Y-93587133D01*
X153384257Y-93620466D01*
X153460447Y-93653800D01*
X153650923Y-93653800D01*
X153727114Y-93620466D01*
X153765209Y-93587133D01*
X153803304Y-93520466D01*
X153803304Y-93353800D01*
X153765209Y-93287133D01*
X153727114Y-93253800D01*
X153803304Y-94487133D02*
X153003304Y-94487133D01*
X153498542Y-94553800D02*
X153803304Y-94753800D01*
X153269971Y-94753800D02*
X153574733Y-94487133D01*
X153803304Y-95020466D02*
X153803304Y-95187133D01*
X153650923Y-95187133D01*
X153612828Y-95120466D01*
X153536638Y-95053800D01*
X153422352Y-95020466D01*
X153231876Y-95020466D01*
X153117590Y-95053800D01*
X153041400Y-95120466D01*
X153003304Y-95220466D01*
X153003304Y-95353800D01*
X153041400Y-95453800D01*
X153117590Y-95520466D01*
X153231876Y-95553800D01*
X153422352Y-95553800D01*
X153536638Y-95520466D01*
X153612828Y-95453800D01*
X153650923Y-95387133D01*
X153803304Y-95387133D01*
X153803304Y-95553800D01*
X158444333Y-78149457D02*
X158677666Y-78149457D01*
X158677666Y-78568504D02*
X158677666Y-77768504D01*
X158344333Y-77768504D01*
X157844333Y-78149457D02*
X157744333Y-78187552D01*
X157711000Y-78225647D01*
X157677666Y-78301838D01*
X157677666Y-78416123D01*
X157711000Y-78492314D01*
X157744333Y-78530409D01*
X157811000Y-78568504D01*
X158077666Y-78568504D01*
X158077666Y-77768504D01*
X157844333Y-77768504D01*
X157777666Y-77806600D01*
X157744333Y-77844695D01*
X157711000Y-77920885D01*
X157711000Y-77997076D01*
X157744333Y-78073266D01*
X157777666Y-78111361D01*
X157844333Y-78149457D01*
X158077666Y-78149457D01*
X157411000Y-77844695D02*
X157377666Y-77806600D01*
X157311000Y-77768504D01*
X157144333Y-77768504D01*
X157077666Y-77806600D01*
X157044333Y-77844695D01*
X157011000Y-77920885D01*
X157011000Y-77997076D01*
X157044333Y-78111361D01*
X157444333Y-78568504D01*
X157011000Y-78568504D01*
X153981104Y-78709200D02*
X153981104Y-78309200D01*
X153981104Y-78509200D02*
X153181104Y-78509200D01*
X153295390Y-78442533D01*
X153371580Y-78375866D01*
X153409676Y-78309200D01*
X153904914Y-79009200D02*
X153943009Y-79042533D01*
X153981104Y-79009200D01*
X153943009Y-78975866D01*
X153904914Y-79009200D01*
X153981104Y-79009200D01*
X153181104Y-79675866D02*
X153181104Y-79342533D01*
X153562057Y-79309200D01*
X153523961Y-79342533D01*
X153485866Y-79409200D01*
X153485866Y-79575866D01*
X153523961Y-79642533D01*
X153562057Y-79675866D01*
X153638247Y-79709200D01*
X153828723Y-79709200D01*
X153904914Y-79675866D01*
X153943009Y-79642533D01*
X153981104Y-79575866D01*
X153981104Y-79409200D01*
X153943009Y-79342533D01*
X153904914Y-79309200D01*
X153981104Y-80542533D02*
X153181104Y-80542533D01*
X153676342Y-80609200D02*
X153981104Y-80809200D01*
X153447771Y-80809200D02*
X153752533Y-80542533D01*
X153981104Y-81075866D02*
X153981104Y-81242533D01*
X153828723Y-81242533D01*
X153790628Y-81175866D01*
X153714438Y-81109200D01*
X153600152Y-81075866D01*
X153409676Y-81075866D01*
X153295390Y-81109200D01*
X153219200Y-81175866D01*
X153181104Y-81275866D01*
X153181104Y-81409200D01*
X153219200Y-81509200D01*
X153295390Y-81575866D01*
X153409676Y-81609200D01*
X153600152Y-81609200D01*
X153714438Y-81575866D01*
X153790628Y-81509200D01*
X153828723Y-81442533D01*
X153981104Y-81442533D01*
X153981104Y-81609200D01*
X159988304Y-81483266D02*
X160635923Y-81483266D01*
X160712114Y-81516600D01*
X160750209Y-81549933D01*
X160788304Y-81616600D01*
X160788304Y-81749933D01*
X160750209Y-81816600D01*
X160712114Y-81849933D01*
X160635923Y-81883266D01*
X159988304Y-81883266D01*
X160788304Y-82583266D02*
X160788304Y-82183266D01*
X160788304Y-82383266D02*
X159988304Y-82383266D01*
X160102590Y-82316600D01*
X160178780Y-82249933D01*
X160216876Y-82183266D01*
X160077104Y-97571733D02*
X159696152Y-97338400D01*
X160077104Y-97171733D02*
X159277104Y-97171733D01*
X159277104Y-97438400D01*
X159315200Y-97505066D01*
X159353295Y-97538400D01*
X159429485Y-97571733D01*
X159543771Y-97571733D01*
X159619961Y-97538400D01*
X159658057Y-97505066D01*
X159696152Y-97438400D01*
X159696152Y-97171733D01*
X159277104Y-98205066D02*
X159277104Y-97871733D01*
X159658057Y-97838400D01*
X159619961Y-97871733D01*
X159581866Y-97938400D01*
X159581866Y-98105066D01*
X159619961Y-98171733D01*
X159658057Y-98205066D01*
X159734247Y-98238400D01*
X159924723Y-98238400D01*
X160000914Y-98205066D01*
X160039009Y-98171733D01*
X160077104Y-98105066D01*
X160077104Y-97938400D01*
X160039009Y-97871733D01*
X160000914Y-97838400D01*
X153803304Y-97195533D02*
X153803304Y-96795533D01*
X153803304Y-96995533D02*
X153003304Y-96995533D01*
X153117590Y-96928866D01*
X153193780Y-96862200D01*
X153231876Y-96795533D01*
X153003304Y-97628866D02*
X153003304Y-97695533D01*
X153041400Y-97762200D01*
X153079495Y-97795533D01*
X153155685Y-97828866D01*
X153308066Y-97862200D01*
X153498542Y-97862200D01*
X153650923Y-97828866D01*
X153727114Y-97795533D01*
X153765209Y-97762200D01*
X153803304Y-97695533D01*
X153803304Y-97628866D01*
X153765209Y-97562200D01*
X153727114Y-97528866D01*
X153650923Y-97495533D01*
X153498542Y-97462200D01*
X153308066Y-97462200D01*
X153155685Y-97495533D01*
X153079495Y-97528866D01*
X153041400Y-97562200D01*
X153003304Y-97628866D01*
X153803304Y-98162200D02*
X153003304Y-98162200D01*
X153498542Y-98228866D02*
X153803304Y-98428866D01*
X153269971Y-98428866D02*
X153574733Y-98162200D01*
X160077104Y-90485133D02*
X159696152Y-90251800D01*
X160077104Y-90085133D02*
X159277104Y-90085133D01*
X159277104Y-90351800D01*
X159315200Y-90418466D01*
X159353295Y-90451800D01*
X159429485Y-90485133D01*
X159543771Y-90485133D01*
X159619961Y-90451800D01*
X159658057Y-90418466D01*
X159696152Y-90351800D01*
X159696152Y-90085133D01*
X159277104Y-91085133D02*
X159277104Y-90951800D01*
X159315200Y-90885133D01*
X159353295Y-90851800D01*
X159467580Y-90785133D01*
X159619961Y-90751800D01*
X159924723Y-90751800D01*
X160000914Y-90785133D01*
X160039009Y-90818466D01*
X160077104Y-90885133D01*
X160077104Y-91018466D01*
X160039009Y-91085133D01*
X160000914Y-91118466D01*
X159924723Y-91151800D01*
X159734247Y-91151800D01*
X159658057Y-91118466D01*
X159619961Y-91085133D01*
X159581866Y-91018466D01*
X159581866Y-90885133D01*
X159619961Y-90818466D01*
X159658057Y-90785133D01*
X159734247Y-90751800D01*
X153803304Y-90185133D02*
X153803304Y-89785133D01*
X153803304Y-89985133D02*
X153003304Y-89985133D01*
X153117590Y-89918466D01*
X153193780Y-89851800D01*
X153231876Y-89785133D01*
X153003304Y-90618466D02*
X153003304Y-90685133D01*
X153041400Y-90751800D01*
X153079495Y-90785133D01*
X153155685Y-90818466D01*
X153308066Y-90851800D01*
X153498542Y-90851800D01*
X153650923Y-90818466D01*
X153727114Y-90785133D01*
X153765209Y-90751800D01*
X153803304Y-90685133D01*
X153803304Y-90618466D01*
X153765209Y-90551800D01*
X153727114Y-90518466D01*
X153650923Y-90485133D01*
X153498542Y-90451800D01*
X153308066Y-90451800D01*
X153155685Y-90485133D01*
X153079495Y-90518466D01*
X153041400Y-90551800D01*
X153003304Y-90618466D01*
X153803304Y-91151800D02*
X153003304Y-91151800D01*
X153498542Y-91218466D02*
X153803304Y-91418466D01*
X153269971Y-91418466D02*
X153574733Y-91151800D01*
M02*
