%FSLAX45Y45*%
G04 Gerber Fmt 4.5, Leading zero omitted, Abs format (unit mm)*
G04 Created by KiCad (PCBNEW (5.1.5-0-10_14)) date 2020-07-07 09:51:08*
%MOMM*%
%LPD*%
G04 APERTURE LIST*
%TA.AperFunction,Profile*%
%ADD10C,0.050000*%
%TD*%
%ADD11C,0.200000*%
%ADD12C,0.300000*%
G04 APERTURE END LIST*
D10*
X17205000Y-5545300D02*
X14005000Y-5545300D01*
X17365000Y-7884000D02*
G75*
G03X17365000Y-7884000I-160000J0D01*
G01*
X14165000Y-7884000D02*
G75*
G03X14165000Y-7884000I-160000J0D01*
G01*
X13738300Y-5812000D02*
X13738300Y-11084000D01*
X17471700Y-11084000D02*
X17471700Y-5812000D01*
X14005000Y-11350700D02*
X17205000Y-11350700D01*
X17205000Y-5545300D02*
G75*
G02X17471700Y-5812000I0J-266700D01*
G01*
X17471700Y-11084000D02*
G75*
G02X17205000Y-11350700I-266700J0D01*
G01*
X14005000Y-11350700D02*
G75*
G02X13738300Y-11084000I0J266700D01*
G01*
X13738300Y-5812000D02*
G75*
G02X14005000Y-5545300I266700J0D01*
G01*
X14165000Y-11084000D02*
G75*
G03X14165000Y-11084000I-160000J0D01*
G01*
X17365000Y-11084000D02*
G75*
G03X17365000Y-11084000I-160000J0D01*
G01*
X14165000Y-5812000D02*
G75*
G03X14165000Y-5812000I-160000J0D01*
G01*
X17365000Y-5812000D02*
G75*
G03X17365000Y-5812000I-160000J0D01*
G01*
D11*
D12*
X14022228Y-11818914D02*
X14022228Y-11518914D01*
X14093657Y-11518914D01*
X14136514Y-11533200D01*
X14165086Y-11561771D01*
X14179371Y-11590343D01*
X14193657Y-11647486D01*
X14193657Y-11690343D01*
X14179371Y-11747486D01*
X14165086Y-11776057D01*
X14136514Y-11804629D01*
X14093657Y-11818914D01*
X14022228Y-11818914D01*
X14322228Y-11818914D02*
X14322228Y-11618914D01*
X14322228Y-11676057D02*
X14336514Y-11647486D01*
X14350800Y-11633200D01*
X14379371Y-11618914D01*
X14407943Y-11618914D01*
X14507943Y-11818914D02*
X14507943Y-11618914D01*
X14507943Y-11518914D02*
X14493657Y-11533200D01*
X14507943Y-11547486D01*
X14522228Y-11533200D01*
X14507943Y-11518914D01*
X14507943Y-11547486D01*
X14693657Y-11818914D02*
X14665086Y-11804629D01*
X14650800Y-11776057D01*
X14650800Y-11518914D01*
X14850800Y-11818914D02*
X14822228Y-11804629D01*
X14807943Y-11776057D01*
X14807943Y-11518914D01*
X15193657Y-11818914D02*
X15193657Y-11518914D01*
X15293657Y-11733200D01*
X15393657Y-11518914D01*
X15393657Y-11818914D01*
X15665086Y-11818914D02*
X15665086Y-11661771D01*
X15650800Y-11633200D01*
X15622228Y-11618914D01*
X15565086Y-11618914D01*
X15536514Y-11633200D01*
X15665086Y-11804629D02*
X15636514Y-11818914D01*
X15565086Y-11818914D01*
X15536514Y-11804629D01*
X15522228Y-11776057D01*
X15522228Y-11747486D01*
X15536514Y-11718914D01*
X15565086Y-11704629D01*
X15636514Y-11704629D01*
X15665086Y-11690343D01*
X15807943Y-11618914D02*
X15807943Y-11918914D01*
X15807943Y-11633200D02*
X15836514Y-11618914D01*
X15893657Y-11618914D01*
X15922228Y-11633200D01*
X15936514Y-11647486D01*
X15950800Y-11676057D01*
X15950800Y-11761771D01*
X15936514Y-11790343D01*
X15922228Y-11804629D01*
X15893657Y-11818914D01*
X15836514Y-11818914D01*
X15807943Y-11804629D01*
X16079371Y-11790343D02*
X16093657Y-11804629D01*
X16079371Y-11818914D01*
X16065086Y-11804629D01*
X16079371Y-11790343D01*
X16079371Y-11818914D01*
X16079371Y-11633200D02*
X16093657Y-11647486D01*
X16079371Y-11661771D01*
X16065086Y-11647486D01*
X16079371Y-11633200D01*
X16079371Y-11661771D01*
M02*
