G04 #@! TF.GenerationSoftware,KiCad,Pcbnew,(5.1.5-0-10_14)*
G04 #@! TF.CreationDate,2020-07-06T13:04:49+02:00*
G04 #@! TF.ProjectId,smartcitizen-adc-4-ch,736d6172-7463-4697-9469-7a656e2d6164,rev?*
G04 #@! TF.SameCoordinates,Original*
G04 #@! TF.FileFunction,Copper,L1,Top*
G04 #@! TF.FilePolarity,Positive*
%FSLAX46Y46*%
G04 Gerber Fmt 4.6, Leading zero omitted, Abs format (unit mm)*
G04 Created by KiCad (PCBNEW (5.1.5-0-10_14)) date 2020-07-06 13:04:49*
%MOMM*%
%LPD*%
G04 APERTURE LIST*
%ADD10C,0.100000*%
%ADD11C,2.400000*%
%ADD12R,2.400000X2.400000*%
%ADD13R,1.500000X1.000000*%
%ADD14O,1.524000X3.048000*%
%ADD15R,1.905000X1.270000*%
%ADD16C,1.270000*%
%ADD17R,1.270000X1.270000*%
%ADD18R,0.889000X0.787400*%
%ADD19O,3.048000X1.524000*%
%ADD20C,3.048000*%
%ADD21C,0.800000*%
%ADD22C,0.400000*%
%ADD23C,0.250000*%
%ADD24C,0.254000*%
G04 APERTURE END LIST*
D10*
G36*
X144673600Y-108066000D02*
G01*
X144673600Y-108566000D01*
X144073600Y-108566000D01*
X144073600Y-108066000D01*
X144673600Y-108066000D01*
G37*
D11*
X169341800Y-78016100D03*
D12*
X169341800Y-81516100D03*
D11*
X142938500Y-81516100D03*
D12*
X142938500Y-78016100D03*
G04 #@! TA.AperFunction,SMDPad,CuDef*
D10*
G36*
X143623600Y-108216000D02*
G01*
X143623600Y-107666000D01*
X143624202Y-107666000D01*
X143624202Y-107641466D01*
X143629012Y-107592635D01*
X143638584Y-107544510D01*
X143652828Y-107497555D01*
X143671605Y-107452222D01*
X143694736Y-107408949D01*
X143721996Y-107368150D01*
X143753124Y-107330221D01*
X143787821Y-107295524D01*
X143825750Y-107264396D01*
X143866549Y-107237136D01*
X143909822Y-107214005D01*
X143955155Y-107195228D01*
X144002110Y-107180984D01*
X144050235Y-107171412D01*
X144099066Y-107166602D01*
X144123600Y-107166602D01*
X144123600Y-107166000D01*
X144623600Y-107166000D01*
X144623600Y-107166602D01*
X144648134Y-107166602D01*
X144696965Y-107171412D01*
X144745090Y-107180984D01*
X144792045Y-107195228D01*
X144837378Y-107214005D01*
X144880651Y-107237136D01*
X144921450Y-107264396D01*
X144959379Y-107295524D01*
X144994076Y-107330221D01*
X145025204Y-107368150D01*
X145052464Y-107408949D01*
X145075595Y-107452222D01*
X145094372Y-107497555D01*
X145108616Y-107544510D01*
X145118188Y-107592635D01*
X145122998Y-107641466D01*
X145122998Y-107666000D01*
X145123600Y-107666000D01*
X145123600Y-108216000D01*
X143623600Y-108216000D01*
G37*
G04 #@! TD.AperFunction*
D13*
X144373600Y-108966000D03*
G04 #@! TA.AperFunction,SMDPad,CuDef*
D10*
G36*
X145122998Y-110266000D02*
G01*
X145122998Y-110290534D01*
X145118188Y-110339365D01*
X145108616Y-110387490D01*
X145094372Y-110434445D01*
X145075595Y-110479778D01*
X145052464Y-110523051D01*
X145025204Y-110563850D01*
X144994076Y-110601779D01*
X144959379Y-110636476D01*
X144921450Y-110667604D01*
X144880651Y-110694864D01*
X144837378Y-110717995D01*
X144792045Y-110736772D01*
X144745090Y-110751016D01*
X144696965Y-110760588D01*
X144648134Y-110765398D01*
X144623600Y-110765398D01*
X144623600Y-110766000D01*
X144123600Y-110766000D01*
X144123600Y-110765398D01*
X144099066Y-110765398D01*
X144050235Y-110760588D01*
X144002110Y-110751016D01*
X143955155Y-110736772D01*
X143909822Y-110717995D01*
X143866549Y-110694864D01*
X143825750Y-110667604D01*
X143787821Y-110636476D01*
X143753124Y-110601779D01*
X143721996Y-110563850D01*
X143694736Y-110523051D01*
X143671605Y-110479778D01*
X143652828Y-110434445D01*
X143638584Y-110387490D01*
X143629012Y-110339365D01*
X143624202Y-110290534D01*
X143624202Y-110266000D01*
X143623600Y-110266000D01*
X143623600Y-109716000D01*
X145123600Y-109716000D01*
X145123600Y-110266000D01*
X145122998Y-110266000D01*
G37*
G04 #@! TD.AperFunction*
D14*
X143764000Y-104190800D03*
X141224000Y-104190800D03*
X143764000Y-100228400D03*
X141224000Y-100228400D03*
D15*
X157988000Y-96291400D03*
X157988000Y-99593400D03*
X150012400Y-96291400D03*
X150012400Y-99593400D03*
X154025600Y-96291400D03*
X154025600Y-99593400D03*
D16*
X170332400Y-87932260D03*
X170332400Y-89933780D03*
X170332400Y-91930220D03*
D17*
X170332400Y-93931740D03*
D16*
X142189200Y-93931740D03*
X142189200Y-91930220D03*
X142189200Y-89933780D03*
D17*
X142189200Y-87932260D03*
D14*
X162356800Y-110337600D03*
X159816800Y-110337600D03*
X157276800Y-110337600D03*
X154736800Y-110337600D03*
X152196800Y-110337600D03*
X149656800Y-110337600D03*
X149656800Y-74523600D03*
X152196800Y-74523600D03*
X154736800Y-74523600D03*
X157276800Y-74523600D03*
X159816800Y-74523600D03*
X162356800Y-74523600D03*
G04 #@! TA.AperFunction,SMDPad,CuDef*
D10*
G36*
X168945800Y-106070498D02*
G01*
X168921266Y-106070498D01*
X168872435Y-106065688D01*
X168824310Y-106056116D01*
X168777355Y-106041872D01*
X168732022Y-106023095D01*
X168688749Y-105999964D01*
X168647950Y-105972704D01*
X168610021Y-105941576D01*
X168575324Y-105906879D01*
X168544196Y-105868950D01*
X168516936Y-105828151D01*
X168493805Y-105784878D01*
X168475028Y-105739545D01*
X168460784Y-105692590D01*
X168451212Y-105644465D01*
X168446402Y-105595634D01*
X168446402Y-105571100D01*
X168445800Y-105571100D01*
X168445800Y-105071100D01*
X168446402Y-105071100D01*
X168446402Y-105046566D01*
X168451212Y-104997735D01*
X168460784Y-104949610D01*
X168475028Y-104902655D01*
X168493805Y-104857322D01*
X168516936Y-104814049D01*
X168544196Y-104773250D01*
X168575324Y-104735321D01*
X168610021Y-104700624D01*
X168647950Y-104669496D01*
X168688749Y-104642236D01*
X168732022Y-104619105D01*
X168777355Y-104600328D01*
X168824310Y-104586084D01*
X168872435Y-104576512D01*
X168921266Y-104571702D01*
X168945800Y-104571702D01*
X168945800Y-104571100D01*
X169445800Y-104571100D01*
X169445800Y-106071100D01*
X168945800Y-106071100D01*
X168945800Y-106070498D01*
G37*
G04 #@! TD.AperFunction*
G04 #@! TA.AperFunction,SMDPad,CuDef*
G36*
X169745800Y-104571100D02*
G01*
X170245800Y-104571100D01*
X170245800Y-104571702D01*
X170270334Y-104571702D01*
X170319165Y-104576512D01*
X170367290Y-104586084D01*
X170414245Y-104600328D01*
X170459578Y-104619105D01*
X170502851Y-104642236D01*
X170543650Y-104669496D01*
X170581579Y-104700624D01*
X170616276Y-104735321D01*
X170647404Y-104773250D01*
X170674664Y-104814049D01*
X170697795Y-104857322D01*
X170716572Y-104902655D01*
X170730816Y-104949610D01*
X170740388Y-104997735D01*
X170745198Y-105046566D01*
X170745198Y-105071100D01*
X170745800Y-105071100D01*
X170745800Y-105571100D01*
X170745198Y-105571100D01*
X170745198Y-105595634D01*
X170740388Y-105644465D01*
X170730816Y-105692590D01*
X170716572Y-105739545D01*
X170697795Y-105784878D01*
X170674664Y-105828151D01*
X170647404Y-105868950D01*
X170616276Y-105906879D01*
X170581579Y-105941576D01*
X170543650Y-105972704D01*
X170502851Y-105999964D01*
X170459578Y-106023095D01*
X170414245Y-106041872D01*
X170367290Y-106056116D01*
X170319165Y-106065688D01*
X170270334Y-106070498D01*
X170245800Y-106070498D01*
X170245800Y-106071100D01*
X169745800Y-106071100D01*
X169745800Y-104571100D01*
G37*
G04 #@! TD.AperFunction*
G04 #@! TA.AperFunction,SMDPad,CuDef*
G36*
X168920400Y-102908198D02*
G01*
X168895866Y-102908198D01*
X168847035Y-102903388D01*
X168798910Y-102893816D01*
X168751955Y-102879572D01*
X168706622Y-102860795D01*
X168663349Y-102837664D01*
X168622550Y-102810404D01*
X168584621Y-102779276D01*
X168549924Y-102744579D01*
X168518796Y-102706650D01*
X168491536Y-102665851D01*
X168468405Y-102622578D01*
X168449628Y-102577245D01*
X168435384Y-102530290D01*
X168425812Y-102482165D01*
X168421002Y-102433334D01*
X168421002Y-102408800D01*
X168420400Y-102408800D01*
X168420400Y-101908800D01*
X168421002Y-101908800D01*
X168421002Y-101884266D01*
X168425812Y-101835435D01*
X168435384Y-101787310D01*
X168449628Y-101740355D01*
X168468405Y-101695022D01*
X168491536Y-101651749D01*
X168518796Y-101610950D01*
X168549924Y-101573021D01*
X168584621Y-101538324D01*
X168622550Y-101507196D01*
X168663349Y-101479936D01*
X168706622Y-101456805D01*
X168751955Y-101438028D01*
X168798910Y-101423784D01*
X168847035Y-101414212D01*
X168895866Y-101409402D01*
X168920400Y-101409402D01*
X168920400Y-101408800D01*
X169420400Y-101408800D01*
X169420400Y-102908800D01*
X168920400Y-102908800D01*
X168920400Y-102908198D01*
G37*
G04 #@! TD.AperFunction*
G04 #@! TA.AperFunction,SMDPad,CuDef*
G36*
X169720400Y-101408800D02*
G01*
X170220400Y-101408800D01*
X170220400Y-101409402D01*
X170244934Y-101409402D01*
X170293765Y-101414212D01*
X170341890Y-101423784D01*
X170388845Y-101438028D01*
X170434178Y-101456805D01*
X170477451Y-101479936D01*
X170518250Y-101507196D01*
X170556179Y-101538324D01*
X170590876Y-101573021D01*
X170622004Y-101610950D01*
X170649264Y-101651749D01*
X170672395Y-101695022D01*
X170691172Y-101740355D01*
X170705416Y-101787310D01*
X170714988Y-101835435D01*
X170719798Y-101884266D01*
X170719798Y-101908800D01*
X170720400Y-101908800D01*
X170720400Y-102408800D01*
X170719798Y-102408800D01*
X170719798Y-102433334D01*
X170714988Y-102482165D01*
X170705416Y-102530290D01*
X170691172Y-102577245D01*
X170672395Y-102622578D01*
X170649264Y-102665851D01*
X170622004Y-102706650D01*
X170590876Y-102744579D01*
X170556179Y-102779276D01*
X170518250Y-102810404D01*
X170477451Y-102837664D01*
X170434178Y-102860795D01*
X170388845Y-102879572D01*
X170341890Y-102893816D01*
X170293765Y-102903388D01*
X170244934Y-102908198D01*
X170220400Y-102908198D01*
X170220400Y-102908800D01*
X169720400Y-102908800D01*
X169720400Y-101408800D01*
G37*
G04 #@! TD.AperFunction*
G04 #@! TA.AperFunction,SMDPad,CuDef*
G36*
X168920400Y-99758598D02*
G01*
X168895866Y-99758598D01*
X168847035Y-99753788D01*
X168798910Y-99744216D01*
X168751955Y-99729972D01*
X168706622Y-99711195D01*
X168663349Y-99688064D01*
X168622550Y-99660804D01*
X168584621Y-99629676D01*
X168549924Y-99594979D01*
X168518796Y-99557050D01*
X168491536Y-99516251D01*
X168468405Y-99472978D01*
X168449628Y-99427645D01*
X168435384Y-99380690D01*
X168425812Y-99332565D01*
X168421002Y-99283734D01*
X168421002Y-99259200D01*
X168420400Y-99259200D01*
X168420400Y-98759200D01*
X168421002Y-98759200D01*
X168421002Y-98734666D01*
X168425812Y-98685835D01*
X168435384Y-98637710D01*
X168449628Y-98590755D01*
X168468405Y-98545422D01*
X168491536Y-98502149D01*
X168518796Y-98461350D01*
X168549924Y-98423421D01*
X168584621Y-98388724D01*
X168622550Y-98357596D01*
X168663349Y-98330336D01*
X168706622Y-98307205D01*
X168751955Y-98288428D01*
X168798910Y-98274184D01*
X168847035Y-98264612D01*
X168895866Y-98259802D01*
X168920400Y-98259802D01*
X168920400Y-98259200D01*
X169420400Y-98259200D01*
X169420400Y-99759200D01*
X168920400Y-99759200D01*
X168920400Y-99758598D01*
G37*
G04 #@! TD.AperFunction*
G04 #@! TA.AperFunction,SMDPad,CuDef*
G36*
X169720400Y-98259200D02*
G01*
X170220400Y-98259200D01*
X170220400Y-98259802D01*
X170244934Y-98259802D01*
X170293765Y-98264612D01*
X170341890Y-98274184D01*
X170388845Y-98288428D01*
X170434178Y-98307205D01*
X170477451Y-98330336D01*
X170518250Y-98357596D01*
X170556179Y-98388724D01*
X170590876Y-98423421D01*
X170622004Y-98461350D01*
X170649264Y-98502149D01*
X170672395Y-98545422D01*
X170691172Y-98590755D01*
X170705416Y-98637710D01*
X170714988Y-98685835D01*
X170719798Y-98734666D01*
X170719798Y-98759200D01*
X170720400Y-98759200D01*
X170720400Y-99259200D01*
X170719798Y-99259200D01*
X170719798Y-99283734D01*
X170714988Y-99332565D01*
X170705416Y-99380690D01*
X170691172Y-99427645D01*
X170672395Y-99472978D01*
X170649264Y-99516251D01*
X170622004Y-99557050D01*
X170590876Y-99594979D01*
X170556179Y-99629676D01*
X170518250Y-99660804D01*
X170477451Y-99688064D01*
X170434178Y-99711195D01*
X170388845Y-99729972D01*
X170341890Y-99744216D01*
X170293765Y-99753788D01*
X170244934Y-99758598D01*
X170220400Y-99758598D01*
X170220400Y-99759200D01*
X169720400Y-99759200D01*
X169720400Y-98259200D01*
G37*
G04 #@! TD.AperFunction*
D15*
X150012400Y-87909400D03*
X150012400Y-84607400D03*
X150012400Y-93853000D03*
X150012400Y-90551000D03*
X154279600Y-103555800D03*
X154279600Y-106857800D03*
X158140400Y-103555800D03*
X158140400Y-106857800D03*
D18*
X153365200Y-82829400D03*
X153365200Y-84759800D03*
X155397200Y-83794600D03*
X153314400Y-88823800D03*
X153314400Y-90754200D03*
X155346400Y-89789000D03*
D19*
X162661600Y-104038400D03*
X162661600Y-101498400D03*
X162661600Y-98958400D03*
X162661600Y-96418400D03*
X162661600Y-93878400D03*
X162661600Y-91338400D03*
X162661600Y-88798400D03*
X162661600Y-86258400D03*
X162661600Y-83718400D03*
X162661600Y-81178400D03*
D20*
X150211600Y-104038400D03*
X150211600Y-81178400D03*
D21*
X148522813Y-78977613D03*
X165455600Y-75692000D03*
X167176399Y-103765299D03*
X147574000Y-91897200D03*
X145669000Y-105968800D03*
X153365200Y-79806800D03*
X150012400Y-92151200D03*
X147878800Y-87934800D03*
X152247600Y-78841600D03*
X156667200Y-97688400D03*
X158949192Y-85238392D03*
X157988000Y-84734400D03*
X160121600Y-80467200D03*
X155752800Y-88290400D03*
X153212800Y-93218000D03*
X156057600Y-103581200D03*
X159585713Y-88775487D03*
X149860000Y-97688400D03*
X153111200Y-97688400D03*
X157073600Y-89001600D03*
X156768800Y-81432400D03*
X156565600Y-93929200D03*
D22*
X143700500Y-104267000D02*
X143700500Y-100203000D01*
X143984500Y-104551000D02*
X143700500Y-104267000D01*
X144335500Y-104902000D02*
X143700500Y-104267000D01*
X143764000Y-106114800D02*
X142214600Y-107664200D01*
X143764000Y-104190800D02*
X143764000Y-106114800D01*
X143626008Y-110266000D02*
X144373600Y-110266000D01*
X142214600Y-108854592D02*
X143626008Y-110266000D01*
X142214600Y-107664200D02*
X142214600Y-108854592D01*
X148522813Y-78977613D02*
X145908126Y-81592300D01*
X167226100Y-78016100D02*
X169341800Y-78016100D01*
X166172000Y-76962000D02*
X167226100Y-78016100D01*
X150255595Y-76962000D02*
X166172000Y-76962000D01*
X148522813Y-78694782D02*
X150255595Y-76962000D01*
X148522813Y-78977613D02*
X148522813Y-78694782D01*
X145831926Y-81516100D02*
X142938500Y-81516100D01*
X145908126Y-81592300D02*
X145831926Y-81516100D01*
X164562000Y-103949500D02*
X162623500Y-103949500D01*
X162306000Y-104267000D02*
X162623500Y-103949500D01*
X156787900Y-106857800D02*
X158140400Y-106857800D01*
X149555200Y-108413600D02*
X151111000Y-106857800D01*
X151111000Y-106857800D02*
X156787900Y-106857800D01*
X149555200Y-110337600D02*
X149555200Y-108413600D01*
X161004200Y-106857800D02*
X159492900Y-106857800D01*
X159492900Y-106857800D02*
X158140400Y-106857800D01*
X162661600Y-105200400D02*
X161004200Y-106857800D01*
X162661600Y-104038400D02*
X162661600Y-105200400D01*
X163525200Y-75692000D02*
X162356800Y-74523600D01*
X165455600Y-75692000D02*
X163525200Y-75692000D01*
X165933600Y-105321100D02*
X164562000Y-103949500D01*
X168945800Y-105321100D02*
X165933600Y-105321100D01*
X168732200Y-105321100D02*
X167176399Y-103765299D01*
X168945800Y-105321100D02*
X168732200Y-105321100D01*
X152520700Y-83623100D02*
X153314400Y-82829400D01*
X151587200Y-84607400D02*
X152520700Y-83673900D01*
X153314400Y-82829400D02*
X153365200Y-82829400D01*
X152520700Y-83673900D02*
X152520700Y-83623100D01*
X150012400Y-84607400D02*
X151587200Y-84607400D01*
X152469900Y-89617500D02*
X153263600Y-88823800D01*
X152469900Y-89668300D02*
X152469900Y-89617500D01*
X151587200Y-90551000D02*
X152469900Y-89668300D01*
X153263600Y-88823800D02*
X153314400Y-88823800D01*
X150012400Y-90551000D02*
X151587200Y-90551000D01*
X147028799Y-88919899D02*
X148659900Y-90551000D01*
X147028799Y-86238501D02*
X147028799Y-88919899D01*
X148659900Y-90551000D02*
X150012400Y-90551000D01*
X148659900Y-84607400D02*
X147028799Y-86238501D01*
X150012400Y-84607400D02*
X148659900Y-84607400D01*
X148666200Y-91897200D02*
X150012400Y-90551000D01*
X147574000Y-91897200D02*
X148666200Y-91897200D01*
X144373600Y-107264200D02*
X145669000Y-105968800D01*
X144373600Y-107666000D02*
X144373600Y-107264200D01*
X167195500Y-86702900D02*
X170332400Y-89933780D01*
X165658800Y-77876400D02*
X167170100Y-80175100D01*
X151954798Y-77876400D02*
X165658800Y-77876400D01*
X151282400Y-78548798D02*
X151954798Y-77876400D01*
X153365200Y-81217202D02*
X151282400Y-79134402D01*
X151282400Y-79134402D02*
X151282400Y-78548798D01*
X167170100Y-80175100D02*
X167195500Y-86702900D01*
X153365200Y-82829400D02*
X153365200Y-81217202D01*
X143224200Y-87932260D02*
X145846800Y-90554860D01*
X142189200Y-87932260D02*
X143224200Y-87932260D01*
X145846800Y-90554860D02*
X145846800Y-91846400D01*
X147853400Y-93853000D02*
X150012400Y-93853000D01*
X145846800Y-91846400D02*
X147853400Y-93853000D01*
X153314400Y-91903500D02*
X153314400Y-91547900D01*
X151364900Y-93853000D02*
X153314400Y-91903500D01*
X153314400Y-91547900D02*
X153314400Y-90754200D01*
X150012400Y-93853000D02*
X151364900Y-93853000D01*
X150012400Y-93853000D02*
X150012400Y-92151200D01*
X153554801Y-79617199D02*
X153365200Y-79806800D01*
X164707199Y-79617199D02*
X153554801Y-79617199D01*
X165493700Y-80429100D02*
X164707199Y-79617199D01*
X165493700Y-90335100D02*
X165493700Y-80429100D01*
X169297400Y-93931740D02*
X165493700Y-90335100D01*
X170332400Y-93931740D02*
X169297400Y-93931740D01*
X153365200Y-85553500D02*
X153365200Y-84759800D01*
X153365200Y-85909100D02*
X153365200Y-85553500D01*
X151364900Y-87909400D02*
X153365200Y-85909100D01*
X150012400Y-87909400D02*
X151364900Y-87909400D01*
X149987000Y-87934800D02*
X150012400Y-87909400D01*
X147878800Y-87934800D02*
X149987000Y-87934800D01*
X169697401Y-91295221D02*
X170332400Y-91930220D01*
X166281100Y-88506300D02*
X169697401Y-91295221D01*
X166293800Y-80276700D02*
X166281100Y-88506300D01*
X165303200Y-78841600D02*
X166293800Y-80276700D01*
X152247600Y-78841600D02*
X165303200Y-78841600D01*
X141160500Y-104267000D02*
X141160500Y-100203000D01*
X141160500Y-95138240D02*
X142367000Y-93931740D01*
X141160500Y-100203000D02*
X141160500Y-95138240D01*
X149669500Y-72498000D02*
X149919510Y-72247990D01*
X154499490Y-72247990D02*
X154749500Y-72498000D01*
X149919510Y-72247990D02*
X154499490Y-72247990D01*
X149669500Y-74422000D02*
X149669500Y-72498000D01*
X159579490Y-72247990D02*
X159829500Y-72498000D01*
X154999510Y-72247990D02*
X159579490Y-72247990D01*
X154749500Y-72498000D02*
X154999510Y-72247990D01*
X154749500Y-74422000D02*
X154749500Y-72498000D01*
X159829500Y-74422000D02*
X159829500Y-72498000D01*
X156975990Y-112600510D02*
X157226000Y-112350500D01*
X152396010Y-112600510D02*
X156975990Y-112600510D01*
X162306000Y-112350500D02*
X162306000Y-110426500D01*
X162055990Y-112600510D02*
X162306000Y-112350500D01*
X157476010Y-112600510D02*
X162055990Y-112600510D01*
X157226000Y-112350500D02*
X157476010Y-112600510D01*
X157226000Y-110426500D02*
X157226000Y-112350500D01*
X144548860Y-96291400D02*
X142189200Y-93931740D01*
X150012400Y-96291400D02*
X144548860Y-96291400D01*
X150012400Y-96291400D02*
X151364900Y-96291400D01*
X156267201Y-97288401D02*
X156267201Y-96526401D01*
X156667200Y-97688400D02*
X156267201Y-97288401D01*
X156057600Y-96316800D02*
X157988000Y-96291400D01*
X156267201Y-96526401D02*
X156057600Y-96316800D01*
X151364900Y-96291400D02*
X156057600Y-96316800D01*
X152146000Y-112350500D02*
X152396010Y-112600510D01*
X152146000Y-110426500D02*
X152146000Y-112350500D01*
X149656800Y-74523600D02*
X145389600Y-74523600D01*
X140062000Y-97142400D02*
X141224000Y-98304400D01*
X141224000Y-98304400D02*
X141224000Y-100228400D01*
X172021500Y-80436400D02*
X170941800Y-81516100D01*
X172021500Y-76352400D02*
X172021500Y-80436400D01*
X170903900Y-75234800D02*
X172021500Y-76352400D01*
X169002502Y-75234800D02*
X170903900Y-75234800D01*
X160079510Y-72247990D02*
X166015692Y-72247990D01*
X166015692Y-72247990D02*
X169002502Y-75234800D01*
X170941800Y-81516100D02*
X169341800Y-81516100D01*
X159829500Y-72498000D02*
X160079510Y-72247990D01*
X169341800Y-86941660D02*
X170332400Y-87932260D01*
X169341800Y-81516100D02*
X169341800Y-86941660D01*
X148494800Y-74523600D02*
X149656800Y-74523600D01*
X144831000Y-74523600D02*
X148494800Y-74523600D01*
X142938500Y-76416100D02*
X144831000Y-74523600D01*
X142938500Y-78016100D02*
X142938500Y-76416100D01*
X140062000Y-79292600D02*
X140062000Y-97142400D01*
X141338500Y-78016100D02*
X140062000Y-79292600D01*
X142938500Y-78016100D02*
X141338500Y-78016100D01*
D23*
X162661600Y-86258400D02*
X160887600Y-86258400D01*
X160887600Y-86258400D02*
X159867592Y-85238392D01*
X159867592Y-85238392D02*
X158949192Y-85238392D01*
X161362198Y-88798400D02*
X157988000Y-85424202D01*
X162661600Y-88798400D02*
X161362198Y-88798400D01*
X157988000Y-85424202D02*
X157988000Y-84734400D01*
D22*
X160737600Y-83718400D02*
X160121600Y-83102400D01*
X162661600Y-83718400D02*
X160737600Y-83718400D01*
X160121600Y-83102400D02*
X160121600Y-80467200D01*
X165120334Y-98869500D02*
X162623500Y-98869500D01*
X168380000Y-102129166D02*
X165120334Y-98869500D01*
X168880000Y-102129166D02*
X168380000Y-102129166D01*
D23*
X155752800Y-89382600D02*
X155346400Y-89789000D01*
X155752800Y-88290400D02*
X155752800Y-89382600D01*
D22*
X153212800Y-93218000D02*
X153924000Y-92506800D01*
X153924000Y-92506800D02*
X155448000Y-92506800D01*
X155448000Y-92506800D02*
X156616400Y-91338400D01*
X156616400Y-90214500D02*
X156190900Y-89789000D01*
X156190900Y-89789000D02*
X155346400Y-89789000D01*
X156616400Y-91338400D02*
X156616400Y-90214500D01*
X158115000Y-103581200D02*
X158140400Y-103555800D01*
X156057600Y-103581200D02*
X158115000Y-103581200D01*
X158457900Y-103555800D02*
X158140400Y-103555800D01*
X159492900Y-101365100D02*
X159492900Y-102520800D01*
X159492900Y-102520800D02*
X158457900Y-103555800D01*
X161899600Y-98958400D02*
X159492900Y-101365100D01*
X162661600Y-98958400D02*
X161899600Y-98958400D01*
X165649500Y-96329500D02*
X162623500Y-96329500D01*
X168380000Y-99060000D02*
X165649500Y-96329500D01*
X168880000Y-99060000D02*
X168380000Y-99060000D01*
X160687590Y-96368390D02*
X160737600Y-96418400D01*
X160687590Y-89878690D02*
X160687590Y-96368390D01*
X155397200Y-83794600D02*
X155397200Y-84588300D01*
X155448000Y-84632800D02*
X159585713Y-88775487D01*
D23*
X156972000Y-86156800D02*
X155448000Y-84632800D01*
D22*
X155397200Y-84588300D02*
X155448000Y-84632800D01*
X160737600Y-96418400D02*
X162661600Y-96418400D01*
X157948352Y-101904800D02*
X160687590Y-99165562D01*
X160687590Y-99165562D02*
X160687590Y-96468410D01*
X156248100Y-101904800D02*
X157948352Y-101904800D01*
X160687590Y-96468410D02*
X160737600Y-96418400D01*
X154597100Y-103555800D02*
X156248100Y-101904800D01*
X154279600Y-103555800D02*
X154597100Y-103555800D01*
X159585713Y-88775487D02*
X160687590Y-89878690D01*
D23*
X149860000Y-97688400D02*
X153111200Y-97688400D01*
D22*
X170180000Y-98190744D02*
X165778756Y-93789500D01*
X165778756Y-93789500D02*
X162623500Y-93789500D01*
X170180000Y-99060000D02*
X170180000Y-98190744D01*
X170245800Y-105321100D02*
X170180000Y-99060000D01*
D23*
X157073600Y-88435915D02*
X154533600Y-85895915D01*
X157073600Y-89001600D02*
X157073600Y-88435915D01*
X154533600Y-83144998D02*
X156246198Y-81432400D01*
X154533600Y-85895915D02*
X154533600Y-83144998D01*
X156246198Y-81432400D02*
X156768800Y-81432400D01*
D22*
X157988000Y-99593400D02*
X150012400Y-99593400D01*
X145523600Y-108966000D02*
X147574000Y-106915600D01*
X144373600Y-108966000D02*
X145523600Y-108966000D01*
X148659900Y-99593400D02*
X150012400Y-99593400D01*
X147574000Y-100679300D02*
X148659900Y-99593400D01*
X147574000Y-106915600D02*
X147574000Y-100679300D01*
X159390501Y-99543399D02*
X159340500Y-99593400D01*
X159390501Y-95296399D02*
X159390501Y-99543399D01*
X159340500Y-99593400D02*
X157988000Y-99593400D01*
X158023302Y-93929200D02*
X159390501Y-95296399D01*
X156565600Y-93929200D02*
X158023302Y-93929200D01*
D24*
G36*
X170511583Y-68443136D02*
G01*
X170195536Y-68759183D01*
X169947220Y-69130815D01*
X169776176Y-69543751D01*
X169688979Y-69982121D01*
X169688979Y-70429079D01*
X169776176Y-70867449D01*
X169947220Y-71280385D01*
X170195536Y-71652017D01*
X170511583Y-71968064D01*
X170883215Y-72216380D01*
X171296151Y-72387424D01*
X171734521Y-72474621D01*
X172181479Y-72474621D01*
X172619849Y-72387424D01*
X173032785Y-72216380D01*
X173404417Y-71968064D01*
X173720464Y-71652017D01*
X173965001Y-71286041D01*
X173965000Y-113524358D01*
X173720464Y-113158383D01*
X173404417Y-112842336D01*
X173032785Y-112594020D01*
X172619849Y-112422976D01*
X172181479Y-112335779D01*
X171734521Y-112335779D01*
X171296151Y-112422976D01*
X170883215Y-112594020D01*
X170511583Y-112842336D01*
X170195536Y-113158383D01*
X169947220Y-113530015D01*
X169776176Y-113942951D01*
X169688979Y-114381321D01*
X169688979Y-114828279D01*
X169776176Y-115266649D01*
X169947220Y-115679585D01*
X170195536Y-116051217D01*
X170511583Y-116367264D01*
X170878202Y-116612231D01*
X141136686Y-116624070D01*
X141502017Y-116379964D01*
X141818064Y-116063917D01*
X142066380Y-115692285D01*
X142237424Y-115279349D01*
X142324621Y-114840979D01*
X142324621Y-114394021D01*
X142237424Y-113955651D01*
X142066380Y-113542715D01*
X141818064Y-113171083D01*
X141502017Y-112855036D01*
X141130385Y-112606720D01*
X140717449Y-112435676D01*
X140279079Y-112348479D01*
X139832121Y-112348479D01*
X139393751Y-112435676D01*
X138980815Y-112606720D01*
X138609183Y-112855036D01*
X138293136Y-113171083D01*
X138048604Y-113537052D01*
X138048645Y-104317800D01*
X139827000Y-104317800D01*
X139827000Y-105079800D01*
X139878619Y-105349901D01*
X139981941Y-105604742D01*
X140132994Y-105834529D01*
X140325974Y-106030432D01*
X140553465Y-106184922D01*
X140806724Y-106292062D01*
X140880930Y-106307020D01*
X141097000Y-106184520D01*
X141097000Y-104317800D01*
X139827000Y-104317800D01*
X138048645Y-104317800D01*
X138048662Y-100355400D01*
X139827000Y-100355400D01*
X139827000Y-101117400D01*
X139878619Y-101387501D01*
X139981941Y-101642342D01*
X140132994Y-101872129D01*
X140325974Y-102068032D01*
X140534437Y-102209600D01*
X140325974Y-102351168D01*
X140132994Y-102547071D01*
X139981941Y-102776858D01*
X139878619Y-103031699D01*
X139827000Y-103301800D01*
X139827000Y-104063800D01*
X141097000Y-104063800D01*
X141097000Y-100355400D01*
X139827000Y-100355400D01*
X138048662Y-100355400D01*
X138048666Y-99339400D01*
X139827000Y-99339400D01*
X139827000Y-100101400D01*
X141097000Y-100101400D01*
X141097000Y-98234680D01*
X140880930Y-98112180D01*
X140806724Y-98127138D01*
X140553465Y-98234278D01*
X140325974Y-98388768D01*
X140132994Y-98584671D01*
X139981941Y-98814458D01*
X139878619Y-99069299D01*
X139827000Y-99339400D01*
X138048666Y-99339400D01*
X138048686Y-94806540D01*
X141494005Y-94806540D01*
X141545569Y-95033686D01*
X141772916Y-95138079D01*
X142016259Y-95196113D01*
X142266249Y-95205558D01*
X142513278Y-95166050D01*
X142747853Y-95079109D01*
X142832831Y-95033686D01*
X142884395Y-94806540D01*
X142189200Y-94111345D01*
X141494005Y-94806540D01*
X138048686Y-94806540D01*
X138048690Y-94008789D01*
X140915382Y-94008789D01*
X140954890Y-94255818D01*
X141041831Y-94490393D01*
X141087254Y-94575371D01*
X141314400Y-94626935D01*
X142009595Y-93931740D01*
X142368805Y-93931740D01*
X143064000Y-94626935D01*
X143291146Y-94575371D01*
X143395539Y-94348024D01*
X143453573Y-94104681D01*
X143463018Y-93854691D01*
X143423510Y-93607662D01*
X143336569Y-93373087D01*
X143291146Y-93288109D01*
X143064000Y-93236545D01*
X142368805Y-93931740D01*
X142009595Y-93931740D01*
X141314400Y-93236545D01*
X141087254Y-93288109D01*
X140982861Y-93515456D01*
X140924827Y-93758799D01*
X140915382Y-94008789D01*
X138048690Y-94008789D01*
X138048721Y-87297260D01*
X140916128Y-87297260D01*
X140916128Y-88567260D01*
X140928388Y-88691742D01*
X140964698Y-88811440D01*
X141023663Y-88921754D01*
X141103015Y-89018445D01*
X141199706Y-89097797D01*
X141218882Y-89108047D01*
X141202727Y-89124202D01*
X141063741Y-89332209D01*
X140968005Y-89563335D01*
X140919200Y-89808696D01*
X140919200Y-90058864D01*
X140968005Y-90304225D01*
X141063741Y-90535351D01*
X141202727Y-90743358D01*
X141379622Y-90920253D01*
X141397203Y-90932000D01*
X141379622Y-90943747D01*
X141202727Y-91120642D01*
X141063741Y-91328649D01*
X140968005Y-91559775D01*
X140919200Y-91805136D01*
X140919200Y-92055304D01*
X140968005Y-92300665D01*
X141063741Y-92531791D01*
X141202727Y-92739798D01*
X141379622Y-92916693D01*
X141506584Y-93001527D01*
X141494005Y-93056940D01*
X142189200Y-93752135D01*
X142884395Y-93056940D01*
X142871816Y-93001527D01*
X142998778Y-92916693D01*
X143175673Y-92739798D01*
X143314659Y-92531791D01*
X143410395Y-92300665D01*
X143459200Y-92055304D01*
X143459200Y-91805136D01*
X143410395Y-91559775D01*
X143314659Y-91328649D01*
X143175673Y-91120642D01*
X142998778Y-90943747D01*
X142981197Y-90932000D01*
X142998778Y-90920253D01*
X143175673Y-90743358D01*
X143314659Y-90535351D01*
X143410395Y-90304225D01*
X143459200Y-90058864D01*
X143459200Y-89808696D01*
X143410395Y-89563335D01*
X143314659Y-89332209D01*
X143175673Y-89124202D01*
X143159518Y-89108047D01*
X143178694Y-89097797D01*
X143195268Y-89084195D01*
X145011800Y-90900728D01*
X145011801Y-91805372D01*
X145007760Y-91846400D01*
X145023882Y-92010088D01*
X145071628Y-92167486D01*
X145149164Y-92312545D01*
X145149165Y-92312546D01*
X145253510Y-92439691D01*
X145285374Y-92465841D01*
X147233963Y-94414432D01*
X147260109Y-94446291D01*
X147291968Y-94472437D01*
X147291970Y-94472439D01*
X147387254Y-94550636D01*
X147532313Y-94628172D01*
X147689711Y-94675918D01*
X147853400Y-94692040D01*
X147894418Y-94688000D01*
X148456996Y-94688000D01*
X148470398Y-94732180D01*
X148529363Y-94842494D01*
X148608715Y-94939185D01*
X148705406Y-95018537D01*
X148805801Y-95072200D01*
X148705406Y-95125863D01*
X148608715Y-95205215D01*
X148529363Y-95301906D01*
X148470398Y-95412220D01*
X148434088Y-95531918D01*
X148421828Y-95656400D01*
X148424900Y-96005650D01*
X148583650Y-96164400D01*
X149885400Y-96164400D01*
X149885400Y-96144400D01*
X150139400Y-96144400D01*
X150139400Y-96164400D01*
X151441150Y-96164400D01*
X151599900Y-96005650D01*
X151602972Y-95656400D01*
X152435028Y-95656400D01*
X152438100Y-96005650D01*
X152596850Y-96164400D01*
X153898600Y-96164400D01*
X153898600Y-95180150D01*
X154152600Y-95180150D01*
X154152600Y-96164400D01*
X155454350Y-96164400D01*
X155613100Y-96005650D01*
X155616172Y-95656400D01*
X155603912Y-95531918D01*
X155567602Y-95412220D01*
X155508637Y-95301906D01*
X155429285Y-95205215D01*
X155332594Y-95125863D01*
X155222280Y-95066898D01*
X155102582Y-95030588D01*
X154978100Y-95018328D01*
X154311350Y-95021400D01*
X154152600Y-95180150D01*
X153898600Y-95180150D01*
X153739850Y-95021400D01*
X153073100Y-95018328D01*
X152948618Y-95030588D01*
X152828920Y-95066898D01*
X152718606Y-95125863D01*
X152621915Y-95205215D01*
X152542563Y-95301906D01*
X152483598Y-95412220D01*
X152447288Y-95531918D01*
X152435028Y-95656400D01*
X151602972Y-95656400D01*
X151590712Y-95531918D01*
X151554402Y-95412220D01*
X151495437Y-95301906D01*
X151416085Y-95205215D01*
X151319394Y-95125863D01*
X151218999Y-95072200D01*
X151319394Y-95018537D01*
X151416085Y-94939185D01*
X151495437Y-94842494D01*
X151554402Y-94732180D01*
X151575815Y-94661592D01*
X151685987Y-94628172D01*
X151831046Y-94550636D01*
X151958191Y-94446291D01*
X151984346Y-94414421D01*
X152464928Y-93933839D01*
X152553026Y-94021937D01*
X152722544Y-94135205D01*
X152910902Y-94213226D01*
X153110861Y-94253000D01*
X153314739Y-94253000D01*
X153514698Y-94213226D01*
X153703056Y-94135205D01*
X153872574Y-94021937D01*
X154016737Y-93877774D01*
X154130005Y-93708256D01*
X154208026Y-93519898D01*
X154236892Y-93374776D01*
X154269868Y-93341800D01*
X155406982Y-93341800D01*
X155448000Y-93345840D01*
X155489018Y-93341800D01*
X155489019Y-93341800D01*
X155611689Y-93329718D01*
X155749262Y-93287986D01*
X155648395Y-93438944D01*
X155570374Y-93627302D01*
X155530600Y-93827261D01*
X155530600Y-94031139D01*
X155570374Y-94231098D01*
X155648395Y-94419456D01*
X155761663Y-94588974D01*
X155905826Y-94733137D01*
X156075344Y-94846405D01*
X156263702Y-94924426D01*
X156463661Y-94964200D01*
X156667539Y-94964200D01*
X156867498Y-94924426D01*
X157055856Y-94846405D01*
X157178885Y-94764200D01*
X157677435Y-94764200D01*
X157934635Y-95021400D01*
X157860998Y-95021400D01*
X157860998Y-95180148D01*
X157702250Y-95021400D01*
X157035500Y-95018328D01*
X156911018Y-95030588D01*
X156791320Y-95066898D01*
X156681006Y-95125863D01*
X156584315Y-95205215D01*
X156504963Y-95301906D01*
X156445998Y-95412220D01*
X156409688Y-95531918D01*
X156397428Y-95656400D01*
X156400500Y-96005650D01*
X156559250Y-96164400D01*
X157861000Y-96164400D01*
X157861000Y-96144400D01*
X158115000Y-96144400D01*
X158115000Y-96164400D01*
X158135000Y-96164400D01*
X158135000Y-96418400D01*
X158115000Y-96418400D01*
X158115000Y-97402650D01*
X158273750Y-97561400D01*
X158555502Y-97562698D01*
X158555502Y-98320328D01*
X157035500Y-98320328D01*
X156911018Y-98332588D01*
X156791320Y-98368898D01*
X156681006Y-98427863D01*
X156584315Y-98507215D01*
X156504963Y-98603906D01*
X156445998Y-98714220D01*
X156432596Y-98758400D01*
X155581004Y-98758400D01*
X155567602Y-98714220D01*
X155508637Y-98603906D01*
X155429285Y-98507215D01*
X155332594Y-98427863D01*
X155222280Y-98368898D01*
X155102582Y-98332588D01*
X154978100Y-98320328D01*
X153933743Y-98320328D01*
X154028405Y-98178656D01*
X154106426Y-97990298D01*
X154146200Y-97790339D01*
X154146200Y-97586461D01*
X154141215Y-97561400D01*
X154152602Y-97561400D01*
X154152602Y-97402652D01*
X154311350Y-97561400D01*
X154978100Y-97564472D01*
X155102582Y-97552212D01*
X155222280Y-97515902D01*
X155332594Y-97456937D01*
X155429285Y-97377585D01*
X155508637Y-97280894D01*
X155567602Y-97170580D01*
X155603912Y-97050882D01*
X155616172Y-96926400D01*
X156397428Y-96926400D01*
X156409688Y-97050882D01*
X156445998Y-97170580D01*
X156504963Y-97280894D01*
X156584315Y-97377585D01*
X156681006Y-97456937D01*
X156791320Y-97515902D01*
X156911018Y-97552212D01*
X157035500Y-97564472D01*
X157702250Y-97561400D01*
X157861000Y-97402650D01*
X157861000Y-96418400D01*
X156559250Y-96418400D01*
X156400500Y-96577150D01*
X156397428Y-96926400D01*
X155616172Y-96926400D01*
X155613100Y-96577150D01*
X155454350Y-96418400D01*
X154152600Y-96418400D01*
X154152600Y-96438400D01*
X153898600Y-96438400D01*
X153898600Y-96418400D01*
X152596850Y-96418400D01*
X152438100Y-96577150D01*
X152435255Y-96900634D01*
X152407489Y-96928400D01*
X151602775Y-96928400D01*
X151602972Y-96926400D01*
X151599900Y-96577150D01*
X151441150Y-96418400D01*
X150139400Y-96418400D01*
X150139400Y-96438400D01*
X149885400Y-96438400D01*
X149885400Y-96418400D01*
X148583650Y-96418400D01*
X148424900Y-96577150D01*
X148421828Y-96926400D01*
X148434088Y-97050882D01*
X148470398Y-97170580D01*
X148529363Y-97280894D01*
X148608715Y-97377585D01*
X148705406Y-97456937D01*
X148815720Y-97515902D01*
X148837708Y-97522572D01*
X148825000Y-97586461D01*
X148825000Y-97790339D01*
X148864774Y-97990298D01*
X148942795Y-98178656D01*
X149038843Y-98322402D01*
X148935418Y-98332588D01*
X148815720Y-98368898D01*
X148705406Y-98427863D01*
X148608715Y-98507215D01*
X148529363Y-98603906D01*
X148470398Y-98714220D01*
X148448985Y-98784808D01*
X148338813Y-98818228D01*
X148193754Y-98895764D01*
X148159396Y-98923961D01*
X148117432Y-98958400D01*
X148066609Y-99000109D01*
X148040463Y-99031968D01*
X147012574Y-100059859D01*
X146980710Y-100086009D01*
X146924230Y-100154830D01*
X146876364Y-100213155D01*
X146798828Y-100358214D01*
X146751082Y-100515612D01*
X146734960Y-100679300D01*
X146739001Y-100720328D01*
X146739000Y-106569732D01*
X145753210Y-107555523D01*
X145747004Y-107492510D01*
X145727882Y-107396377D01*
X145691573Y-107276681D01*
X145654064Y-107186125D01*
X145646567Y-107172100D01*
X145825775Y-106992892D01*
X145970898Y-106964026D01*
X146159256Y-106886005D01*
X146328774Y-106772737D01*
X146472937Y-106628574D01*
X146586205Y-106459056D01*
X146664226Y-106270698D01*
X146704000Y-106070739D01*
X146704000Y-105866861D01*
X146664226Y-105666902D01*
X146586205Y-105478544D01*
X146472937Y-105309026D01*
X146328774Y-105164863D01*
X146159256Y-105051595D01*
X145970898Y-104973574D01*
X145770939Y-104933800D01*
X145567061Y-104933800D01*
X145367102Y-104973574D01*
X145178744Y-105051595D01*
X145158472Y-105065140D01*
X145174540Y-104902000D01*
X145161000Y-104764527D01*
X145161000Y-103360175D01*
X145140786Y-103154940D01*
X145060904Y-102891605D01*
X144931183Y-102648913D01*
X144756607Y-102436192D01*
X144543886Y-102261617D01*
X144535500Y-102257135D01*
X144535500Y-102162066D01*
X144543887Y-102157583D01*
X144756608Y-101983008D01*
X144931183Y-101770287D01*
X145060904Y-101527595D01*
X145140786Y-101264260D01*
X145161000Y-101059025D01*
X145161000Y-99397775D01*
X145140786Y-99192540D01*
X145060904Y-98929205D01*
X144931183Y-98686513D01*
X144756607Y-98473792D01*
X144543886Y-98299217D01*
X144301194Y-98169496D01*
X144037859Y-98089614D01*
X143764000Y-98062641D01*
X143490140Y-98089614D01*
X143226805Y-98169496D01*
X142984113Y-98299217D01*
X142771392Y-98473793D01*
X142596817Y-98686514D01*
X142492962Y-98880814D01*
X142466059Y-98814458D01*
X142315006Y-98584671D01*
X142122026Y-98388768D01*
X141894535Y-98234278D01*
X141641276Y-98127138D01*
X141567070Y-98112180D01*
X141351000Y-98234680D01*
X141351000Y-100101400D01*
X141371000Y-100101400D01*
X141371000Y-100355400D01*
X141351000Y-100355400D01*
X141351000Y-104063800D01*
X141371000Y-104063800D01*
X141371000Y-104317800D01*
X141351000Y-104317800D01*
X141351000Y-106184520D01*
X141567070Y-106307020D01*
X141641276Y-106292062D01*
X141894535Y-106184922D01*
X142122026Y-106030432D01*
X142315006Y-105834529D01*
X142466059Y-105604742D01*
X142492962Y-105538386D01*
X142596818Y-105732687D01*
X142762888Y-105935044D01*
X141653179Y-107044754D01*
X141621309Y-107070909D01*
X141532695Y-107178887D01*
X141516964Y-107198055D01*
X141439428Y-107343114D01*
X141391682Y-107500512D01*
X141375560Y-107664200D01*
X141379600Y-107705219D01*
X141379601Y-108813564D01*
X141375560Y-108854592D01*
X141391682Y-109018280D01*
X141439428Y-109175678D01*
X141516964Y-109320737D01*
X141516965Y-109320738D01*
X141621310Y-109447883D01*
X141653174Y-109474033D01*
X143006566Y-110827426D01*
X143032717Y-110859291D01*
X143159862Y-110963636D01*
X143280981Y-111028376D01*
X143285910Y-111034382D01*
X143355218Y-111103690D01*
X143451909Y-111183042D01*
X143533408Y-111237498D01*
X143643725Y-111296464D01*
X143734281Y-111333973D01*
X143853977Y-111370282D01*
X143950110Y-111389404D01*
X144074591Y-111401664D01*
X144099150Y-111401664D01*
X144123600Y-111404072D01*
X144623600Y-111404072D01*
X144648050Y-111401664D01*
X144672609Y-111401664D01*
X144797090Y-111389404D01*
X144893223Y-111370282D01*
X145012919Y-111333973D01*
X145103475Y-111296464D01*
X145213792Y-111237498D01*
X145295291Y-111183042D01*
X145391982Y-111103690D01*
X145461290Y-111034382D01*
X145540642Y-110937691D01*
X145595098Y-110856192D01*
X145654064Y-110745875D01*
X145691573Y-110655319D01*
X145727882Y-110535623D01*
X145747004Y-110439490D01*
X145759264Y-110315009D01*
X145759264Y-110290450D01*
X145761672Y-110266000D01*
X145761672Y-109766354D01*
X145844687Y-109741172D01*
X145989746Y-109663636D01*
X146116891Y-109559291D01*
X146143046Y-109527421D01*
X148135428Y-107535040D01*
X148167291Y-107508891D01*
X148271636Y-107381746D01*
X148349172Y-107236687D01*
X148396918Y-107079289D01*
X148409000Y-106956619D01*
X148409000Y-106956609D01*
X148413039Y-106915601D01*
X148409000Y-106874593D01*
X148409000Y-105226715D01*
X148534596Y-105414682D01*
X148835318Y-105715404D01*
X149188930Y-105951681D01*
X149581843Y-106114430D01*
X149998957Y-106197400D01*
X150424243Y-106197400D01*
X150664660Y-106149578D01*
X150644854Y-106160164D01*
X150517709Y-106264509D01*
X150491561Y-106296371D01*
X148993774Y-107794159D01*
X148961910Y-107820309D01*
X148881107Y-107918768D01*
X148857564Y-107947455D01*
X148780028Y-108092514D01*
X148732282Y-108249912D01*
X148716160Y-108413600D01*
X148720201Y-108454628D01*
X148720201Y-108537028D01*
X148664192Y-108582993D01*
X148489617Y-108795714D01*
X148359896Y-109038406D01*
X148280014Y-109301741D01*
X148259800Y-109506976D01*
X148259800Y-111168225D01*
X148280014Y-111373460D01*
X148359897Y-111636795D01*
X148489618Y-111879487D01*
X148664193Y-112092208D01*
X148876914Y-112266783D01*
X149119606Y-112396504D01*
X149382941Y-112476386D01*
X149656800Y-112503359D01*
X149930660Y-112476386D01*
X150193995Y-112396504D01*
X150436687Y-112266783D01*
X150649408Y-112092208D01*
X150823983Y-111879487D01*
X150927838Y-111685187D01*
X150954741Y-111751542D01*
X151105794Y-111981329D01*
X151298774Y-112177232D01*
X151526265Y-112331722D01*
X151779524Y-112438862D01*
X151853730Y-112453820D01*
X152069800Y-112331320D01*
X152069800Y-110464600D01*
X152049800Y-110464600D01*
X152049800Y-110210600D01*
X152069800Y-110210600D01*
X152069800Y-108343880D01*
X152323800Y-108343880D01*
X152323800Y-110210600D01*
X152343800Y-110210600D01*
X152343800Y-110464600D01*
X152323800Y-110464600D01*
X152323800Y-112331320D01*
X152539870Y-112453820D01*
X152614076Y-112438862D01*
X152867335Y-112331722D01*
X153094826Y-112177232D01*
X153287806Y-111981329D01*
X153438859Y-111751542D01*
X153465762Y-111685186D01*
X153569618Y-111879487D01*
X153744193Y-112092208D01*
X153956914Y-112266783D01*
X154199606Y-112396504D01*
X154462941Y-112476386D01*
X154736800Y-112503359D01*
X155010660Y-112476386D01*
X155273995Y-112396504D01*
X155516687Y-112266783D01*
X155729408Y-112092208D01*
X155903983Y-111879487D01*
X156007838Y-111685187D01*
X156034741Y-111751542D01*
X156185794Y-111981329D01*
X156378774Y-112177232D01*
X156606265Y-112331722D01*
X156859524Y-112438862D01*
X156933730Y-112453820D01*
X157149800Y-112331320D01*
X157149800Y-110464600D01*
X157129800Y-110464600D01*
X157129800Y-110210600D01*
X157149800Y-110210600D01*
X157149800Y-108343880D01*
X157403800Y-108343880D01*
X157403800Y-110210600D01*
X157423800Y-110210600D01*
X157423800Y-110464600D01*
X157403800Y-110464600D01*
X157403800Y-112331320D01*
X157619870Y-112453820D01*
X157694076Y-112438862D01*
X157947335Y-112331722D01*
X158174826Y-112177232D01*
X158367806Y-111981329D01*
X158518859Y-111751542D01*
X158545762Y-111685186D01*
X158649618Y-111879487D01*
X158824193Y-112092208D01*
X159036914Y-112266783D01*
X159279606Y-112396504D01*
X159542941Y-112476386D01*
X159816800Y-112503359D01*
X160090660Y-112476386D01*
X160353995Y-112396504D01*
X160596687Y-112266783D01*
X160809408Y-112092208D01*
X160983983Y-111879487D01*
X161087838Y-111685187D01*
X161114741Y-111751542D01*
X161265794Y-111981329D01*
X161458774Y-112177232D01*
X161686265Y-112331722D01*
X161939524Y-112438862D01*
X162013730Y-112453820D01*
X162229800Y-112331320D01*
X162229800Y-110464600D01*
X162483800Y-110464600D01*
X162483800Y-112331320D01*
X162699870Y-112453820D01*
X162774076Y-112438862D01*
X163027335Y-112331722D01*
X163254826Y-112177232D01*
X163447806Y-111981329D01*
X163598859Y-111751542D01*
X163702181Y-111496701D01*
X163753800Y-111226600D01*
X163753800Y-110464600D01*
X162483800Y-110464600D01*
X162229800Y-110464600D01*
X162209800Y-110464600D01*
X162209800Y-110210600D01*
X162229800Y-110210600D01*
X162229800Y-108343880D01*
X162483800Y-108343880D01*
X162483800Y-110210600D01*
X163753800Y-110210600D01*
X163753800Y-109448600D01*
X163702181Y-109178499D01*
X163598859Y-108923658D01*
X163447806Y-108693871D01*
X163254826Y-108497968D01*
X163027335Y-108343478D01*
X162774076Y-108236338D01*
X162699870Y-108221380D01*
X162483800Y-108343880D01*
X162229800Y-108343880D01*
X162013730Y-108221380D01*
X161939524Y-108236338D01*
X161686265Y-108343478D01*
X161458774Y-108497968D01*
X161265794Y-108693871D01*
X161114741Y-108923658D01*
X161087838Y-108990013D01*
X160983983Y-108795713D01*
X160809407Y-108582992D01*
X160596686Y-108408417D01*
X160353994Y-108278696D01*
X160090659Y-108198814D01*
X159816800Y-108171841D01*
X159542940Y-108198814D01*
X159279605Y-108278696D01*
X159036913Y-108408417D01*
X158824192Y-108582993D01*
X158649617Y-108795714D01*
X158545762Y-108990014D01*
X158518859Y-108923658D01*
X158367806Y-108693871D01*
X158174826Y-108497968D01*
X157947335Y-108343478D01*
X157694076Y-108236338D01*
X157619870Y-108221380D01*
X157403800Y-108343880D01*
X157149800Y-108343880D01*
X156933730Y-108221380D01*
X156859524Y-108236338D01*
X156606265Y-108343478D01*
X156378774Y-108497968D01*
X156185794Y-108693871D01*
X156034741Y-108923658D01*
X156007838Y-108990013D01*
X155903983Y-108795713D01*
X155729407Y-108582992D01*
X155516686Y-108408417D01*
X155273994Y-108278696D01*
X155010659Y-108198814D01*
X154736800Y-108171841D01*
X154462940Y-108198814D01*
X154199605Y-108278696D01*
X153956913Y-108408417D01*
X153744192Y-108582993D01*
X153569617Y-108795714D01*
X153465762Y-108990014D01*
X153438859Y-108923658D01*
X153287806Y-108693871D01*
X153094826Y-108497968D01*
X152867335Y-108343478D01*
X152614076Y-108236338D01*
X152539870Y-108221380D01*
X152323800Y-108343880D01*
X152069800Y-108343880D01*
X151853730Y-108221380D01*
X151779524Y-108236338D01*
X151526265Y-108343478D01*
X151298774Y-108497968D01*
X151105794Y-108693871D01*
X150954741Y-108923658D01*
X150927838Y-108990013D01*
X150823983Y-108795713D01*
X150649407Y-108582992D01*
X150603967Y-108545700D01*
X151456868Y-107692800D01*
X152724196Y-107692800D01*
X152737598Y-107736980D01*
X152796563Y-107847294D01*
X152875915Y-107943985D01*
X152972606Y-108023337D01*
X153082920Y-108082302D01*
X153202618Y-108118612D01*
X153327100Y-108130872D01*
X155232100Y-108130872D01*
X155356582Y-108118612D01*
X155476280Y-108082302D01*
X155586594Y-108023337D01*
X155683285Y-107943985D01*
X155762637Y-107847294D01*
X155821602Y-107736980D01*
X155835004Y-107692800D01*
X156584996Y-107692800D01*
X156598398Y-107736980D01*
X156657363Y-107847294D01*
X156736715Y-107943985D01*
X156833406Y-108023337D01*
X156943720Y-108082302D01*
X157063418Y-108118612D01*
X157187900Y-108130872D01*
X159092900Y-108130872D01*
X159217382Y-108118612D01*
X159337080Y-108082302D01*
X159447394Y-108023337D01*
X159544085Y-107943985D01*
X159623437Y-107847294D01*
X159682402Y-107736980D01*
X159695804Y-107692800D01*
X160963182Y-107692800D01*
X161004200Y-107696840D01*
X161045218Y-107692800D01*
X161045219Y-107692800D01*
X161167889Y-107680718D01*
X161325287Y-107632972D01*
X161470346Y-107555436D01*
X161597491Y-107451091D01*
X161623646Y-107419221D01*
X163223032Y-105819837D01*
X163254891Y-105793691D01*
X163298101Y-105741040D01*
X163319139Y-105715404D01*
X163359236Y-105666546D01*
X163436772Y-105521487D01*
X163462886Y-105435400D01*
X163492225Y-105435400D01*
X163697460Y-105415186D01*
X163960795Y-105335304D01*
X164203487Y-105205583D01*
X164416208Y-105031008D01*
X164437138Y-105005505D01*
X165314158Y-105882526D01*
X165340309Y-105914391D01*
X165467454Y-106018736D01*
X165612513Y-106096272D01*
X165769911Y-106144018D01*
X165892581Y-106156100D01*
X165892591Y-106156100D01*
X165933599Y-106160139D01*
X165974607Y-106156100D01*
X167971527Y-106156100D01*
X167974302Y-106161292D01*
X168028758Y-106242791D01*
X168108110Y-106339482D01*
X168177418Y-106408790D01*
X168274109Y-106488142D01*
X168355608Y-106542598D01*
X168465925Y-106601564D01*
X168556481Y-106639073D01*
X168676177Y-106675382D01*
X168772310Y-106694504D01*
X168896791Y-106706764D01*
X168921350Y-106706764D01*
X168945800Y-106709172D01*
X169445800Y-106709172D01*
X169570282Y-106696912D01*
X169595800Y-106689171D01*
X169621318Y-106696912D01*
X169745800Y-106709172D01*
X170245800Y-106709172D01*
X170270250Y-106706764D01*
X170294809Y-106706764D01*
X170419290Y-106694504D01*
X170515423Y-106675382D01*
X170635119Y-106639073D01*
X170725675Y-106601564D01*
X170835992Y-106542598D01*
X170917491Y-106488142D01*
X171014182Y-106408790D01*
X171083490Y-106339482D01*
X171162842Y-106242791D01*
X171217298Y-106161292D01*
X171276264Y-106050975D01*
X171313773Y-105960419D01*
X171350082Y-105840723D01*
X171369204Y-105744590D01*
X171381464Y-105620109D01*
X171381464Y-105595550D01*
X171383872Y-105571100D01*
X171383872Y-105071100D01*
X171381464Y-105046650D01*
X171381464Y-105022091D01*
X171369204Y-104897610D01*
X171350082Y-104801477D01*
X171313773Y-104681781D01*
X171276264Y-104591225D01*
X171217298Y-104480908D01*
X171162842Y-104399409D01*
X171083490Y-104302718D01*
X171070001Y-104289229D01*
X171058311Y-103176912D01*
X171137442Y-103080491D01*
X171191898Y-102998992D01*
X171250864Y-102888675D01*
X171288373Y-102798119D01*
X171324682Y-102678423D01*
X171343804Y-102582290D01*
X171356064Y-102457809D01*
X171356064Y-102433250D01*
X171358472Y-102408800D01*
X171358472Y-101908800D01*
X171356064Y-101884350D01*
X171356064Y-101859791D01*
X171343804Y-101735310D01*
X171324682Y-101639177D01*
X171288373Y-101519481D01*
X171250864Y-101428925D01*
X171191898Y-101318608D01*
X171137442Y-101237109D01*
X171058090Y-101140418D01*
X171036684Y-101119012D01*
X171025556Y-100060116D01*
X171058090Y-100027582D01*
X171137442Y-99930891D01*
X171191898Y-99849392D01*
X171250864Y-99739075D01*
X171288373Y-99648519D01*
X171324682Y-99528823D01*
X171343804Y-99432690D01*
X171356064Y-99308209D01*
X171356064Y-99283650D01*
X171358472Y-99259200D01*
X171358472Y-98759200D01*
X171356064Y-98734750D01*
X171356064Y-98710191D01*
X171343804Y-98585710D01*
X171324682Y-98489577D01*
X171288373Y-98369881D01*
X171250864Y-98279325D01*
X171191898Y-98169008D01*
X171137442Y-98087509D01*
X171058090Y-97990818D01*
X170988782Y-97921510D01*
X170964975Y-97901972D01*
X170955172Y-97869657D01*
X170877636Y-97724598D01*
X170799439Y-97629314D01*
X170799437Y-97629312D01*
X170773291Y-97597453D01*
X170741432Y-97571307D01*
X166398202Y-93228079D01*
X166372047Y-93196209D01*
X166244902Y-93091864D01*
X166099843Y-93014328D01*
X165942445Y-92966582D01*
X165819775Y-92954500D01*
X165819774Y-92954500D01*
X165778756Y-92950460D01*
X165737738Y-92954500D01*
X164472595Y-92954500D01*
X164416208Y-92885792D01*
X164203487Y-92711217D01*
X164011129Y-92608400D01*
X164203487Y-92505583D01*
X164416208Y-92331008D01*
X164590783Y-92118287D01*
X164720504Y-91875595D01*
X164800386Y-91612260D01*
X164827359Y-91338400D01*
X164800386Y-91064540D01*
X164720504Y-90801205D01*
X164590783Y-90558513D01*
X164416208Y-90345792D01*
X164203487Y-90171217D01*
X164011129Y-90068400D01*
X164203487Y-89965583D01*
X164416208Y-89791008D01*
X164590783Y-89578287D01*
X164658700Y-89451222D01*
X164658700Y-90305790D01*
X164654989Y-90358566D01*
X164663864Y-90428552D01*
X164670782Y-90498788D01*
X164674200Y-90510057D01*
X164675682Y-90521740D01*
X164698044Y-90588660D01*
X164718528Y-90656186D01*
X164724080Y-90666573D01*
X164727812Y-90677741D01*
X164762803Y-90739019D01*
X164796064Y-90801245D01*
X164803533Y-90810346D01*
X164809374Y-90820575D01*
X164855642Y-90873841D01*
X164900409Y-90928391D01*
X164941321Y-90961967D01*
X168685392Y-94502225D01*
X168704109Y-94525031D01*
X168745014Y-94558601D01*
X168753515Y-94566639D01*
X168776708Y-94584611D01*
X168831254Y-94629376D01*
X168841640Y-94634928D01*
X168850949Y-94642141D01*
X168914077Y-94673646D01*
X168976313Y-94706912D01*
X168987585Y-94710331D01*
X168998120Y-94715589D01*
X169066175Y-94734171D01*
X169086485Y-94740332D01*
X169107898Y-94810920D01*
X169166863Y-94921234D01*
X169246215Y-95017925D01*
X169342906Y-95097277D01*
X169453220Y-95156242D01*
X169572918Y-95192552D01*
X169697400Y-95204812D01*
X170967400Y-95204812D01*
X171091882Y-95192552D01*
X171211580Y-95156242D01*
X171321894Y-95097277D01*
X171418585Y-95017925D01*
X171497937Y-94921234D01*
X171556902Y-94810920D01*
X171593212Y-94691222D01*
X171605472Y-94566740D01*
X171605472Y-93296740D01*
X171593212Y-93172258D01*
X171556902Y-93052560D01*
X171497937Y-92942246D01*
X171418585Y-92845555D01*
X171321894Y-92766203D01*
X171302718Y-92755953D01*
X171318873Y-92739798D01*
X171457859Y-92531791D01*
X171553595Y-92300665D01*
X171602400Y-92055304D01*
X171602400Y-91805136D01*
X171553595Y-91559775D01*
X171457859Y-91328649D01*
X171318873Y-91120642D01*
X171141978Y-90943747D01*
X171124397Y-90932000D01*
X171141978Y-90920253D01*
X171318873Y-90743358D01*
X171457859Y-90535351D01*
X171553595Y-90304225D01*
X171602400Y-90058864D01*
X171602400Y-89808696D01*
X171553595Y-89563335D01*
X171457859Y-89332209D01*
X171318873Y-89124202D01*
X171141978Y-88947307D01*
X171015016Y-88862473D01*
X171027595Y-88807060D01*
X170332400Y-88111865D01*
X170318258Y-88126008D01*
X170138653Y-87946403D01*
X170152795Y-87932260D01*
X170512005Y-87932260D01*
X171207200Y-88627455D01*
X171434346Y-88575891D01*
X171538739Y-88348544D01*
X171596773Y-88105201D01*
X171606218Y-87855211D01*
X171566710Y-87608182D01*
X171479769Y-87373607D01*
X171434346Y-87288629D01*
X171207200Y-87237065D01*
X170512005Y-87932260D01*
X170152795Y-87932260D01*
X169457600Y-87237065D01*
X169230454Y-87288629D01*
X169133344Y-87500114D01*
X168703566Y-87057460D01*
X169637205Y-87057460D01*
X170332400Y-87752655D01*
X171027595Y-87057460D01*
X170976031Y-86830314D01*
X170748684Y-86725921D01*
X170505341Y-86667887D01*
X170255351Y-86658442D01*
X170008322Y-86697950D01*
X169773747Y-86784891D01*
X169688769Y-86830314D01*
X169637205Y-87057460D01*
X168703566Y-87057460D01*
X168029183Y-86362873D01*
X168017428Y-83341923D01*
X168141800Y-83354172D01*
X169056050Y-83351100D01*
X169214800Y-83192350D01*
X169214800Y-81643100D01*
X169468800Y-81643100D01*
X169468800Y-83192350D01*
X169627550Y-83351100D01*
X170541800Y-83354172D01*
X170666282Y-83341912D01*
X170785980Y-83305602D01*
X170896294Y-83246637D01*
X170992985Y-83167285D01*
X171072337Y-83070594D01*
X171131302Y-82960280D01*
X171167612Y-82840582D01*
X171179872Y-82716100D01*
X171176800Y-81801850D01*
X171018050Y-81643100D01*
X169468800Y-81643100D01*
X169214800Y-81643100D01*
X169194800Y-81643100D01*
X169194800Y-81389100D01*
X169214800Y-81389100D01*
X169214800Y-81369100D01*
X169468800Y-81369100D01*
X169468800Y-81389100D01*
X171018050Y-81389100D01*
X171176800Y-81230350D01*
X171179872Y-80316100D01*
X171167612Y-80191618D01*
X171131302Y-80071920D01*
X171072337Y-79961606D01*
X170992985Y-79864915D01*
X170896294Y-79785563D01*
X170785980Y-79726598D01*
X170666282Y-79690288D01*
X170541800Y-79678028D01*
X170121226Y-79679441D01*
X170210999Y-79642256D01*
X170511544Y-79441438D01*
X170767138Y-79185844D01*
X170967956Y-78885299D01*
X171106282Y-78551350D01*
X171176800Y-78196832D01*
X171176800Y-77835368D01*
X171106282Y-77480850D01*
X170967956Y-77146901D01*
X170767138Y-76846356D01*
X170511544Y-76590762D01*
X170210999Y-76389944D01*
X169877050Y-76251618D01*
X169522532Y-76181100D01*
X169161068Y-76181100D01*
X168806550Y-76251618D01*
X168472601Y-76389944D01*
X168172056Y-76590762D01*
X167916462Y-76846356D01*
X167715644Y-77146901D01*
X167701478Y-77181100D01*
X167571969Y-77181100D01*
X166791445Y-76400578D01*
X166765291Y-76368709D01*
X166638146Y-76264364D01*
X166493087Y-76186828D01*
X166384549Y-76153903D01*
X166450826Y-75993898D01*
X166490600Y-75793939D01*
X166490600Y-75590061D01*
X166450826Y-75390102D01*
X166372805Y-75201744D01*
X166259537Y-75032226D01*
X166115374Y-74888063D01*
X165945856Y-74774795D01*
X165757498Y-74696774D01*
X165557539Y-74657000D01*
X165353661Y-74657000D01*
X165153702Y-74696774D01*
X164965344Y-74774795D01*
X164842315Y-74857000D01*
X163871068Y-74857000D01*
X163753800Y-74739732D01*
X163753800Y-73692975D01*
X163733586Y-73487740D01*
X163653704Y-73224405D01*
X163523983Y-72981713D01*
X163349408Y-72768992D01*
X163136687Y-72594417D01*
X162893995Y-72464696D01*
X162630660Y-72384814D01*
X162356800Y-72357841D01*
X162082941Y-72384814D01*
X161819606Y-72464696D01*
X161576914Y-72594417D01*
X161364193Y-72768992D01*
X161189618Y-72981713D01*
X161085762Y-73176014D01*
X161058859Y-73109658D01*
X160907806Y-72879871D01*
X160714826Y-72683968D01*
X160487335Y-72529478D01*
X160234076Y-72422338D01*
X160159870Y-72407380D01*
X159943800Y-72529880D01*
X159943800Y-74396600D01*
X159963800Y-74396600D01*
X159963800Y-74650600D01*
X159943800Y-74650600D01*
X159943800Y-74670600D01*
X159689800Y-74670600D01*
X159689800Y-74650600D01*
X159669800Y-74650600D01*
X159669800Y-74396600D01*
X159689800Y-74396600D01*
X159689800Y-72529880D01*
X159473730Y-72407380D01*
X159399524Y-72422338D01*
X159146265Y-72529478D01*
X158918774Y-72683968D01*
X158725794Y-72879871D01*
X158574741Y-73109658D01*
X158547838Y-73176013D01*
X158443983Y-72981713D01*
X158269408Y-72768992D01*
X158056687Y-72594417D01*
X157813995Y-72464696D01*
X157550660Y-72384814D01*
X157276800Y-72357841D01*
X157002941Y-72384814D01*
X156739606Y-72464696D01*
X156496914Y-72594417D01*
X156284193Y-72768992D01*
X156109618Y-72981713D01*
X156005762Y-73176014D01*
X155978859Y-73109658D01*
X155827806Y-72879871D01*
X155634826Y-72683968D01*
X155407335Y-72529478D01*
X155154076Y-72422338D01*
X155079870Y-72407380D01*
X154863800Y-72529880D01*
X154863800Y-74396600D01*
X154883800Y-74396600D01*
X154883800Y-74650600D01*
X154863800Y-74650600D01*
X154863800Y-74670600D01*
X154609800Y-74670600D01*
X154609800Y-74650600D01*
X154589800Y-74650600D01*
X154589800Y-74396600D01*
X154609800Y-74396600D01*
X154609800Y-72529880D01*
X154393730Y-72407380D01*
X154319524Y-72422338D01*
X154066265Y-72529478D01*
X153838774Y-72683968D01*
X153645794Y-72879871D01*
X153494741Y-73109658D01*
X153467838Y-73176013D01*
X153363983Y-72981713D01*
X153189408Y-72768992D01*
X152976687Y-72594417D01*
X152733995Y-72464696D01*
X152470660Y-72384814D01*
X152196800Y-72357841D01*
X151922941Y-72384814D01*
X151659606Y-72464696D01*
X151416914Y-72594417D01*
X151204193Y-72768992D01*
X151029618Y-72981713D01*
X150925762Y-73176014D01*
X150898859Y-73109658D01*
X150747806Y-72879871D01*
X150554826Y-72683968D01*
X150327335Y-72529478D01*
X150074076Y-72422338D01*
X149999870Y-72407380D01*
X149783800Y-72529880D01*
X149783800Y-74396600D01*
X149803800Y-74396600D01*
X149803800Y-74650600D01*
X149783800Y-74650600D01*
X149783800Y-74670600D01*
X149529800Y-74670600D01*
X149529800Y-74650600D01*
X148259800Y-74650600D01*
X148259800Y-75412600D01*
X148311419Y-75682701D01*
X148414741Y-75937542D01*
X148565794Y-76167329D01*
X148758774Y-76363232D01*
X148986265Y-76517722D01*
X149239524Y-76624862D01*
X149313730Y-76639820D01*
X149505799Y-76530927D01*
X147961390Y-78075338D01*
X147929522Y-78101491D01*
X147879075Y-78162961D01*
X147863039Y-78173676D01*
X147718876Y-78317839D01*
X147605608Y-78487357D01*
X147527587Y-78675715D01*
X147498721Y-78820837D01*
X145638459Y-80681100D01*
X144578822Y-80681100D01*
X144564656Y-80646901D01*
X144363838Y-80346356D01*
X144108244Y-80090762D01*
X143807699Y-79889944D01*
X143717926Y-79852759D01*
X144138500Y-79854172D01*
X144262982Y-79841912D01*
X144382680Y-79805602D01*
X144492994Y-79746637D01*
X144589685Y-79667285D01*
X144669037Y-79570594D01*
X144728002Y-79460280D01*
X144764312Y-79340582D01*
X144776572Y-79216100D01*
X144773500Y-78301850D01*
X144614750Y-78143100D01*
X143065500Y-78143100D01*
X143065500Y-78163100D01*
X142811500Y-78163100D01*
X142811500Y-78143100D01*
X141262250Y-78143100D01*
X141103500Y-78301850D01*
X141100428Y-79216100D01*
X141112688Y-79340582D01*
X141148998Y-79460280D01*
X141207963Y-79570594D01*
X141287315Y-79667285D01*
X141384006Y-79746637D01*
X141494320Y-79805602D01*
X141614018Y-79841912D01*
X141738500Y-79854172D01*
X142159074Y-79852759D01*
X142069301Y-79889944D01*
X141768756Y-80090762D01*
X141513162Y-80346356D01*
X141312344Y-80646901D01*
X141174018Y-80980850D01*
X141103500Y-81335368D01*
X141103500Y-81696832D01*
X141174018Y-82051350D01*
X141312344Y-82385299D01*
X141513162Y-82685844D01*
X141768756Y-82941438D01*
X142069301Y-83142256D01*
X142403250Y-83280582D01*
X142757768Y-83351100D01*
X143119232Y-83351100D01*
X143473750Y-83280582D01*
X143807699Y-83142256D01*
X144108244Y-82941438D01*
X144363838Y-82685844D01*
X144564656Y-82385299D01*
X144578822Y-82351100D01*
X145556410Y-82351100D01*
X145587040Y-82367472D01*
X145744438Y-82415218D01*
X145908125Y-82431340D01*
X145908126Y-82431340D01*
X146071814Y-82415218D01*
X146229212Y-82367472D01*
X146374271Y-82289936D01*
X146469555Y-82211738D01*
X146469556Y-82211737D01*
X146501416Y-82185590D01*
X146527563Y-82153730D01*
X148137634Y-80543660D01*
X148135570Y-80548643D01*
X148052600Y-80965757D01*
X148052600Y-81391043D01*
X148135570Y-81808157D01*
X148298319Y-82201070D01*
X148534596Y-82554682D01*
X148835318Y-82855404D01*
X149188930Y-83091681D01*
X149581843Y-83254430D01*
X149983513Y-83334328D01*
X149059900Y-83334328D01*
X148935418Y-83346588D01*
X148815720Y-83382898D01*
X148705406Y-83441863D01*
X148608715Y-83521215D01*
X148529363Y-83617906D01*
X148470398Y-83728220D01*
X148448985Y-83798808D01*
X148338813Y-83832228D01*
X148193754Y-83909764D01*
X148066609Y-84014109D01*
X148040461Y-84045971D01*
X146467378Y-85619055D01*
X146435508Y-85645210D01*
X146333589Y-85769400D01*
X146331163Y-85772356D01*
X146253627Y-85917415D01*
X146205881Y-86074813D01*
X146189759Y-86238501D01*
X146193799Y-86279520D01*
X146193800Y-88878871D01*
X146189759Y-88919899D01*
X146205881Y-89083587D01*
X146253627Y-89240985D01*
X146331163Y-89386044D01*
X146331164Y-89386045D01*
X146435509Y-89513190D01*
X146467373Y-89539340D01*
X147818611Y-90890579D01*
X147675939Y-90862200D01*
X147472061Y-90862200D01*
X147272102Y-90901974D01*
X147083744Y-90979995D01*
X146914226Y-91093263D01*
X146770063Y-91237426D01*
X146681800Y-91369521D01*
X146681800Y-90595867D01*
X146685839Y-90554859D01*
X146681800Y-90513851D01*
X146681800Y-90513841D01*
X146669718Y-90391171D01*
X146621972Y-90233773D01*
X146544436Y-90088714D01*
X146440091Y-89961569D01*
X146408228Y-89935420D01*
X143843646Y-87370839D01*
X143817491Y-87338969D01*
X143690346Y-87234624D01*
X143545287Y-87157088D01*
X143435115Y-87123668D01*
X143413702Y-87053080D01*
X143354737Y-86942766D01*
X143275385Y-86846075D01*
X143178694Y-86766723D01*
X143068380Y-86707758D01*
X142948682Y-86671448D01*
X142824200Y-86659188D01*
X141554200Y-86659188D01*
X141429718Y-86671448D01*
X141310020Y-86707758D01*
X141199706Y-86766723D01*
X141103015Y-86846075D01*
X141023663Y-86942766D01*
X140964698Y-87053080D01*
X140928388Y-87172778D01*
X140916128Y-87297260D01*
X138048721Y-87297260D01*
X138048769Y-76816100D01*
X141100428Y-76816100D01*
X141103500Y-77730350D01*
X141262250Y-77889100D01*
X142811500Y-77889100D01*
X142811500Y-76339850D01*
X143065500Y-76339850D01*
X143065500Y-77889100D01*
X144614750Y-77889100D01*
X144773500Y-77730350D01*
X144776572Y-76816100D01*
X144764312Y-76691618D01*
X144728002Y-76571920D01*
X144669037Y-76461606D01*
X144589685Y-76364915D01*
X144492994Y-76285563D01*
X144382680Y-76226598D01*
X144262982Y-76190288D01*
X144138500Y-76178028D01*
X143224250Y-76181100D01*
X143065500Y-76339850D01*
X142811500Y-76339850D01*
X142652750Y-76181100D01*
X141738500Y-76178028D01*
X141614018Y-76190288D01*
X141494320Y-76226598D01*
X141384006Y-76285563D01*
X141287315Y-76364915D01*
X141207963Y-76461606D01*
X141148998Y-76571920D01*
X141112688Y-76691618D01*
X141100428Y-76816100D01*
X138048769Y-76816100D01*
X138048783Y-73634600D01*
X148259800Y-73634600D01*
X148259800Y-74396600D01*
X149529800Y-74396600D01*
X149529800Y-72529880D01*
X149313730Y-72407380D01*
X149239524Y-72422338D01*
X148986265Y-72529478D01*
X148758774Y-72683968D01*
X148565794Y-72879871D01*
X148414741Y-73109658D01*
X148311419Y-73364499D01*
X148259800Y-73634600D01*
X138048783Y-73634600D01*
X138048795Y-71286035D01*
X138293336Y-71652017D01*
X138609383Y-71968064D01*
X138981015Y-72216380D01*
X139393951Y-72387424D01*
X139832321Y-72474621D01*
X140279279Y-72474621D01*
X140717649Y-72387424D01*
X141130585Y-72216380D01*
X141502217Y-71968064D01*
X141818264Y-71652017D01*
X142066580Y-71280385D01*
X142237624Y-70867449D01*
X142324821Y-70429079D01*
X142324821Y-69982121D01*
X142237624Y-69543751D01*
X142066580Y-69130815D01*
X141818264Y-68759183D01*
X141502217Y-68443136D01*
X141136242Y-68198600D01*
X170877558Y-68198600D01*
X170511583Y-68443136D01*
G37*
X170511583Y-68443136D02*
X170195536Y-68759183D01*
X169947220Y-69130815D01*
X169776176Y-69543751D01*
X169688979Y-69982121D01*
X169688979Y-70429079D01*
X169776176Y-70867449D01*
X169947220Y-71280385D01*
X170195536Y-71652017D01*
X170511583Y-71968064D01*
X170883215Y-72216380D01*
X171296151Y-72387424D01*
X171734521Y-72474621D01*
X172181479Y-72474621D01*
X172619849Y-72387424D01*
X173032785Y-72216380D01*
X173404417Y-71968064D01*
X173720464Y-71652017D01*
X173965001Y-71286041D01*
X173965000Y-113524358D01*
X173720464Y-113158383D01*
X173404417Y-112842336D01*
X173032785Y-112594020D01*
X172619849Y-112422976D01*
X172181479Y-112335779D01*
X171734521Y-112335779D01*
X171296151Y-112422976D01*
X170883215Y-112594020D01*
X170511583Y-112842336D01*
X170195536Y-113158383D01*
X169947220Y-113530015D01*
X169776176Y-113942951D01*
X169688979Y-114381321D01*
X169688979Y-114828279D01*
X169776176Y-115266649D01*
X169947220Y-115679585D01*
X170195536Y-116051217D01*
X170511583Y-116367264D01*
X170878202Y-116612231D01*
X141136686Y-116624070D01*
X141502017Y-116379964D01*
X141818064Y-116063917D01*
X142066380Y-115692285D01*
X142237424Y-115279349D01*
X142324621Y-114840979D01*
X142324621Y-114394021D01*
X142237424Y-113955651D01*
X142066380Y-113542715D01*
X141818064Y-113171083D01*
X141502017Y-112855036D01*
X141130385Y-112606720D01*
X140717449Y-112435676D01*
X140279079Y-112348479D01*
X139832121Y-112348479D01*
X139393751Y-112435676D01*
X138980815Y-112606720D01*
X138609183Y-112855036D01*
X138293136Y-113171083D01*
X138048604Y-113537052D01*
X138048645Y-104317800D01*
X139827000Y-104317800D01*
X139827000Y-105079800D01*
X139878619Y-105349901D01*
X139981941Y-105604742D01*
X140132994Y-105834529D01*
X140325974Y-106030432D01*
X140553465Y-106184922D01*
X140806724Y-106292062D01*
X140880930Y-106307020D01*
X141097000Y-106184520D01*
X141097000Y-104317800D01*
X139827000Y-104317800D01*
X138048645Y-104317800D01*
X138048662Y-100355400D01*
X139827000Y-100355400D01*
X139827000Y-101117400D01*
X139878619Y-101387501D01*
X139981941Y-101642342D01*
X140132994Y-101872129D01*
X140325974Y-102068032D01*
X140534437Y-102209600D01*
X140325974Y-102351168D01*
X140132994Y-102547071D01*
X139981941Y-102776858D01*
X139878619Y-103031699D01*
X139827000Y-103301800D01*
X139827000Y-104063800D01*
X141097000Y-104063800D01*
X141097000Y-100355400D01*
X139827000Y-100355400D01*
X138048662Y-100355400D01*
X138048666Y-99339400D01*
X139827000Y-99339400D01*
X139827000Y-100101400D01*
X141097000Y-100101400D01*
X141097000Y-98234680D01*
X140880930Y-98112180D01*
X140806724Y-98127138D01*
X140553465Y-98234278D01*
X140325974Y-98388768D01*
X140132994Y-98584671D01*
X139981941Y-98814458D01*
X139878619Y-99069299D01*
X139827000Y-99339400D01*
X138048666Y-99339400D01*
X138048686Y-94806540D01*
X141494005Y-94806540D01*
X141545569Y-95033686D01*
X141772916Y-95138079D01*
X142016259Y-95196113D01*
X142266249Y-95205558D01*
X142513278Y-95166050D01*
X142747853Y-95079109D01*
X142832831Y-95033686D01*
X142884395Y-94806540D01*
X142189200Y-94111345D01*
X141494005Y-94806540D01*
X138048686Y-94806540D01*
X138048690Y-94008789D01*
X140915382Y-94008789D01*
X140954890Y-94255818D01*
X141041831Y-94490393D01*
X141087254Y-94575371D01*
X141314400Y-94626935D01*
X142009595Y-93931740D01*
X142368805Y-93931740D01*
X143064000Y-94626935D01*
X143291146Y-94575371D01*
X143395539Y-94348024D01*
X143453573Y-94104681D01*
X143463018Y-93854691D01*
X143423510Y-93607662D01*
X143336569Y-93373087D01*
X143291146Y-93288109D01*
X143064000Y-93236545D01*
X142368805Y-93931740D01*
X142009595Y-93931740D01*
X141314400Y-93236545D01*
X141087254Y-93288109D01*
X140982861Y-93515456D01*
X140924827Y-93758799D01*
X140915382Y-94008789D01*
X138048690Y-94008789D01*
X138048721Y-87297260D01*
X140916128Y-87297260D01*
X140916128Y-88567260D01*
X140928388Y-88691742D01*
X140964698Y-88811440D01*
X141023663Y-88921754D01*
X141103015Y-89018445D01*
X141199706Y-89097797D01*
X141218882Y-89108047D01*
X141202727Y-89124202D01*
X141063741Y-89332209D01*
X140968005Y-89563335D01*
X140919200Y-89808696D01*
X140919200Y-90058864D01*
X140968005Y-90304225D01*
X141063741Y-90535351D01*
X141202727Y-90743358D01*
X141379622Y-90920253D01*
X141397203Y-90932000D01*
X141379622Y-90943747D01*
X141202727Y-91120642D01*
X141063741Y-91328649D01*
X140968005Y-91559775D01*
X140919200Y-91805136D01*
X140919200Y-92055304D01*
X140968005Y-92300665D01*
X141063741Y-92531791D01*
X141202727Y-92739798D01*
X141379622Y-92916693D01*
X141506584Y-93001527D01*
X141494005Y-93056940D01*
X142189200Y-93752135D01*
X142884395Y-93056940D01*
X142871816Y-93001527D01*
X142998778Y-92916693D01*
X143175673Y-92739798D01*
X143314659Y-92531791D01*
X143410395Y-92300665D01*
X143459200Y-92055304D01*
X143459200Y-91805136D01*
X143410395Y-91559775D01*
X143314659Y-91328649D01*
X143175673Y-91120642D01*
X142998778Y-90943747D01*
X142981197Y-90932000D01*
X142998778Y-90920253D01*
X143175673Y-90743358D01*
X143314659Y-90535351D01*
X143410395Y-90304225D01*
X143459200Y-90058864D01*
X143459200Y-89808696D01*
X143410395Y-89563335D01*
X143314659Y-89332209D01*
X143175673Y-89124202D01*
X143159518Y-89108047D01*
X143178694Y-89097797D01*
X143195268Y-89084195D01*
X145011800Y-90900728D01*
X145011801Y-91805372D01*
X145007760Y-91846400D01*
X145023882Y-92010088D01*
X145071628Y-92167486D01*
X145149164Y-92312545D01*
X145149165Y-92312546D01*
X145253510Y-92439691D01*
X145285374Y-92465841D01*
X147233963Y-94414432D01*
X147260109Y-94446291D01*
X147291968Y-94472437D01*
X147291970Y-94472439D01*
X147387254Y-94550636D01*
X147532313Y-94628172D01*
X147689711Y-94675918D01*
X147853400Y-94692040D01*
X147894418Y-94688000D01*
X148456996Y-94688000D01*
X148470398Y-94732180D01*
X148529363Y-94842494D01*
X148608715Y-94939185D01*
X148705406Y-95018537D01*
X148805801Y-95072200D01*
X148705406Y-95125863D01*
X148608715Y-95205215D01*
X148529363Y-95301906D01*
X148470398Y-95412220D01*
X148434088Y-95531918D01*
X148421828Y-95656400D01*
X148424900Y-96005650D01*
X148583650Y-96164400D01*
X149885400Y-96164400D01*
X149885400Y-96144400D01*
X150139400Y-96144400D01*
X150139400Y-96164400D01*
X151441150Y-96164400D01*
X151599900Y-96005650D01*
X151602972Y-95656400D01*
X152435028Y-95656400D01*
X152438100Y-96005650D01*
X152596850Y-96164400D01*
X153898600Y-96164400D01*
X153898600Y-95180150D01*
X154152600Y-95180150D01*
X154152600Y-96164400D01*
X155454350Y-96164400D01*
X155613100Y-96005650D01*
X155616172Y-95656400D01*
X155603912Y-95531918D01*
X155567602Y-95412220D01*
X155508637Y-95301906D01*
X155429285Y-95205215D01*
X155332594Y-95125863D01*
X155222280Y-95066898D01*
X155102582Y-95030588D01*
X154978100Y-95018328D01*
X154311350Y-95021400D01*
X154152600Y-95180150D01*
X153898600Y-95180150D01*
X153739850Y-95021400D01*
X153073100Y-95018328D01*
X152948618Y-95030588D01*
X152828920Y-95066898D01*
X152718606Y-95125863D01*
X152621915Y-95205215D01*
X152542563Y-95301906D01*
X152483598Y-95412220D01*
X152447288Y-95531918D01*
X152435028Y-95656400D01*
X151602972Y-95656400D01*
X151590712Y-95531918D01*
X151554402Y-95412220D01*
X151495437Y-95301906D01*
X151416085Y-95205215D01*
X151319394Y-95125863D01*
X151218999Y-95072200D01*
X151319394Y-95018537D01*
X151416085Y-94939185D01*
X151495437Y-94842494D01*
X151554402Y-94732180D01*
X151575815Y-94661592D01*
X151685987Y-94628172D01*
X151831046Y-94550636D01*
X151958191Y-94446291D01*
X151984346Y-94414421D01*
X152464928Y-93933839D01*
X152553026Y-94021937D01*
X152722544Y-94135205D01*
X152910902Y-94213226D01*
X153110861Y-94253000D01*
X153314739Y-94253000D01*
X153514698Y-94213226D01*
X153703056Y-94135205D01*
X153872574Y-94021937D01*
X154016737Y-93877774D01*
X154130005Y-93708256D01*
X154208026Y-93519898D01*
X154236892Y-93374776D01*
X154269868Y-93341800D01*
X155406982Y-93341800D01*
X155448000Y-93345840D01*
X155489018Y-93341800D01*
X155489019Y-93341800D01*
X155611689Y-93329718D01*
X155749262Y-93287986D01*
X155648395Y-93438944D01*
X155570374Y-93627302D01*
X155530600Y-93827261D01*
X155530600Y-94031139D01*
X155570374Y-94231098D01*
X155648395Y-94419456D01*
X155761663Y-94588974D01*
X155905826Y-94733137D01*
X156075344Y-94846405D01*
X156263702Y-94924426D01*
X156463661Y-94964200D01*
X156667539Y-94964200D01*
X156867498Y-94924426D01*
X157055856Y-94846405D01*
X157178885Y-94764200D01*
X157677435Y-94764200D01*
X157934635Y-95021400D01*
X157860998Y-95021400D01*
X157860998Y-95180148D01*
X157702250Y-95021400D01*
X157035500Y-95018328D01*
X156911018Y-95030588D01*
X156791320Y-95066898D01*
X156681006Y-95125863D01*
X156584315Y-95205215D01*
X156504963Y-95301906D01*
X156445998Y-95412220D01*
X156409688Y-95531918D01*
X156397428Y-95656400D01*
X156400500Y-96005650D01*
X156559250Y-96164400D01*
X157861000Y-96164400D01*
X157861000Y-96144400D01*
X158115000Y-96144400D01*
X158115000Y-96164400D01*
X158135000Y-96164400D01*
X158135000Y-96418400D01*
X158115000Y-96418400D01*
X158115000Y-97402650D01*
X158273750Y-97561400D01*
X158555502Y-97562698D01*
X158555502Y-98320328D01*
X157035500Y-98320328D01*
X156911018Y-98332588D01*
X156791320Y-98368898D01*
X156681006Y-98427863D01*
X156584315Y-98507215D01*
X156504963Y-98603906D01*
X156445998Y-98714220D01*
X156432596Y-98758400D01*
X155581004Y-98758400D01*
X155567602Y-98714220D01*
X155508637Y-98603906D01*
X155429285Y-98507215D01*
X155332594Y-98427863D01*
X155222280Y-98368898D01*
X155102582Y-98332588D01*
X154978100Y-98320328D01*
X153933743Y-98320328D01*
X154028405Y-98178656D01*
X154106426Y-97990298D01*
X154146200Y-97790339D01*
X154146200Y-97586461D01*
X154141215Y-97561400D01*
X154152602Y-97561400D01*
X154152602Y-97402652D01*
X154311350Y-97561400D01*
X154978100Y-97564472D01*
X155102582Y-97552212D01*
X155222280Y-97515902D01*
X155332594Y-97456937D01*
X155429285Y-97377585D01*
X155508637Y-97280894D01*
X155567602Y-97170580D01*
X155603912Y-97050882D01*
X155616172Y-96926400D01*
X156397428Y-96926400D01*
X156409688Y-97050882D01*
X156445998Y-97170580D01*
X156504963Y-97280894D01*
X156584315Y-97377585D01*
X156681006Y-97456937D01*
X156791320Y-97515902D01*
X156911018Y-97552212D01*
X157035500Y-97564472D01*
X157702250Y-97561400D01*
X157861000Y-97402650D01*
X157861000Y-96418400D01*
X156559250Y-96418400D01*
X156400500Y-96577150D01*
X156397428Y-96926400D01*
X155616172Y-96926400D01*
X155613100Y-96577150D01*
X155454350Y-96418400D01*
X154152600Y-96418400D01*
X154152600Y-96438400D01*
X153898600Y-96438400D01*
X153898600Y-96418400D01*
X152596850Y-96418400D01*
X152438100Y-96577150D01*
X152435255Y-96900634D01*
X152407489Y-96928400D01*
X151602775Y-96928400D01*
X151602972Y-96926400D01*
X151599900Y-96577150D01*
X151441150Y-96418400D01*
X150139400Y-96418400D01*
X150139400Y-96438400D01*
X149885400Y-96438400D01*
X149885400Y-96418400D01*
X148583650Y-96418400D01*
X148424900Y-96577150D01*
X148421828Y-96926400D01*
X148434088Y-97050882D01*
X148470398Y-97170580D01*
X148529363Y-97280894D01*
X148608715Y-97377585D01*
X148705406Y-97456937D01*
X148815720Y-97515902D01*
X148837708Y-97522572D01*
X148825000Y-97586461D01*
X148825000Y-97790339D01*
X148864774Y-97990298D01*
X148942795Y-98178656D01*
X149038843Y-98322402D01*
X148935418Y-98332588D01*
X148815720Y-98368898D01*
X148705406Y-98427863D01*
X148608715Y-98507215D01*
X148529363Y-98603906D01*
X148470398Y-98714220D01*
X148448985Y-98784808D01*
X148338813Y-98818228D01*
X148193754Y-98895764D01*
X148159396Y-98923961D01*
X148117432Y-98958400D01*
X148066609Y-99000109D01*
X148040463Y-99031968D01*
X147012574Y-100059859D01*
X146980710Y-100086009D01*
X146924230Y-100154830D01*
X146876364Y-100213155D01*
X146798828Y-100358214D01*
X146751082Y-100515612D01*
X146734960Y-100679300D01*
X146739001Y-100720328D01*
X146739000Y-106569732D01*
X145753210Y-107555523D01*
X145747004Y-107492510D01*
X145727882Y-107396377D01*
X145691573Y-107276681D01*
X145654064Y-107186125D01*
X145646567Y-107172100D01*
X145825775Y-106992892D01*
X145970898Y-106964026D01*
X146159256Y-106886005D01*
X146328774Y-106772737D01*
X146472937Y-106628574D01*
X146586205Y-106459056D01*
X146664226Y-106270698D01*
X146704000Y-106070739D01*
X146704000Y-105866861D01*
X146664226Y-105666902D01*
X146586205Y-105478544D01*
X146472937Y-105309026D01*
X146328774Y-105164863D01*
X146159256Y-105051595D01*
X145970898Y-104973574D01*
X145770939Y-104933800D01*
X145567061Y-104933800D01*
X145367102Y-104973574D01*
X145178744Y-105051595D01*
X145158472Y-105065140D01*
X145174540Y-104902000D01*
X145161000Y-104764527D01*
X145161000Y-103360175D01*
X145140786Y-103154940D01*
X145060904Y-102891605D01*
X144931183Y-102648913D01*
X144756607Y-102436192D01*
X144543886Y-102261617D01*
X144535500Y-102257135D01*
X144535500Y-102162066D01*
X144543887Y-102157583D01*
X144756608Y-101983008D01*
X144931183Y-101770287D01*
X145060904Y-101527595D01*
X145140786Y-101264260D01*
X145161000Y-101059025D01*
X145161000Y-99397775D01*
X145140786Y-99192540D01*
X145060904Y-98929205D01*
X144931183Y-98686513D01*
X144756607Y-98473792D01*
X144543886Y-98299217D01*
X144301194Y-98169496D01*
X144037859Y-98089614D01*
X143764000Y-98062641D01*
X143490140Y-98089614D01*
X143226805Y-98169496D01*
X142984113Y-98299217D01*
X142771392Y-98473793D01*
X142596817Y-98686514D01*
X142492962Y-98880814D01*
X142466059Y-98814458D01*
X142315006Y-98584671D01*
X142122026Y-98388768D01*
X141894535Y-98234278D01*
X141641276Y-98127138D01*
X141567070Y-98112180D01*
X141351000Y-98234680D01*
X141351000Y-100101400D01*
X141371000Y-100101400D01*
X141371000Y-100355400D01*
X141351000Y-100355400D01*
X141351000Y-104063800D01*
X141371000Y-104063800D01*
X141371000Y-104317800D01*
X141351000Y-104317800D01*
X141351000Y-106184520D01*
X141567070Y-106307020D01*
X141641276Y-106292062D01*
X141894535Y-106184922D01*
X142122026Y-106030432D01*
X142315006Y-105834529D01*
X142466059Y-105604742D01*
X142492962Y-105538386D01*
X142596818Y-105732687D01*
X142762888Y-105935044D01*
X141653179Y-107044754D01*
X141621309Y-107070909D01*
X141532695Y-107178887D01*
X141516964Y-107198055D01*
X141439428Y-107343114D01*
X141391682Y-107500512D01*
X141375560Y-107664200D01*
X141379600Y-107705219D01*
X141379601Y-108813564D01*
X141375560Y-108854592D01*
X141391682Y-109018280D01*
X141439428Y-109175678D01*
X141516964Y-109320737D01*
X141516965Y-109320738D01*
X141621310Y-109447883D01*
X141653174Y-109474033D01*
X143006566Y-110827426D01*
X143032717Y-110859291D01*
X143159862Y-110963636D01*
X143280981Y-111028376D01*
X143285910Y-111034382D01*
X143355218Y-111103690D01*
X143451909Y-111183042D01*
X143533408Y-111237498D01*
X143643725Y-111296464D01*
X143734281Y-111333973D01*
X143853977Y-111370282D01*
X143950110Y-111389404D01*
X144074591Y-111401664D01*
X144099150Y-111401664D01*
X144123600Y-111404072D01*
X144623600Y-111404072D01*
X144648050Y-111401664D01*
X144672609Y-111401664D01*
X144797090Y-111389404D01*
X144893223Y-111370282D01*
X145012919Y-111333973D01*
X145103475Y-111296464D01*
X145213792Y-111237498D01*
X145295291Y-111183042D01*
X145391982Y-111103690D01*
X145461290Y-111034382D01*
X145540642Y-110937691D01*
X145595098Y-110856192D01*
X145654064Y-110745875D01*
X145691573Y-110655319D01*
X145727882Y-110535623D01*
X145747004Y-110439490D01*
X145759264Y-110315009D01*
X145759264Y-110290450D01*
X145761672Y-110266000D01*
X145761672Y-109766354D01*
X145844687Y-109741172D01*
X145989746Y-109663636D01*
X146116891Y-109559291D01*
X146143046Y-109527421D01*
X148135428Y-107535040D01*
X148167291Y-107508891D01*
X148271636Y-107381746D01*
X148349172Y-107236687D01*
X148396918Y-107079289D01*
X148409000Y-106956619D01*
X148409000Y-106956609D01*
X148413039Y-106915601D01*
X148409000Y-106874593D01*
X148409000Y-105226715D01*
X148534596Y-105414682D01*
X148835318Y-105715404D01*
X149188930Y-105951681D01*
X149581843Y-106114430D01*
X149998957Y-106197400D01*
X150424243Y-106197400D01*
X150664660Y-106149578D01*
X150644854Y-106160164D01*
X150517709Y-106264509D01*
X150491561Y-106296371D01*
X148993774Y-107794159D01*
X148961910Y-107820309D01*
X148881107Y-107918768D01*
X148857564Y-107947455D01*
X148780028Y-108092514D01*
X148732282Y-108249912D01*
X148716160Y-108413600D01*
X148720201Y-108454628D01*
X148720201Y-108537028D01*
X148664192Y-108582993D01*
X148489617Y-108795714D01*
X148359896Y-109038406D01*
X148280014Y-109301741D01*
X148259800Y-109506976D01*
X148259800Y-111168225D01*
X148280014Y-111373460D01*
X148359897Y-111636795D01*
X148489618Y-111879487D01*
X148664193Y-112092208D01*
X148876914Y-112266783D01*
X149119606Y-112396504D01*
X149382941Y-112476386D01*
X149656800Y-112503359D01*
X149930660Y-112476386D01*
X150193995Y-112396504D01*
X150436687Y-112266783D01*
X150649408Y-112092208D01*
X150823983Y-111879487D01*
X150927838Y-111685187D01*
X150954741Y-111751542D01*
X151105794Y-111981329D01*
X151298774Y-112177232D01*
X151526265Y-112331722D01*
X151779524Y-112438862D01*
X151853730Y-112453820D01*
X152069800Y-112331320D01*
X152069800Y-110464600D01*
X152049800Y-110464600D01*
X152049800Y-110210600D01*
X152069800Y-110210600D01*
X152069800Y-108343880D01*
X152323800Y-108343880D01*
X152323800Y-110210600D01*
X152343800Y-110210600D01*
X152343800Y-110464600D01*
X152323800Y-110464600D01*
X152323800Y-112331320D01*
X152539870Y-112453820D01*
X152614076Y-112438862D01*
X152867335Y-112331722D01*
X153094826Y-112177232D01*
X153287806Y-111981329D01*
X153438859Y-111751542D01*
X153465762Y-111685186D01*
X153569618Y-111879487D01*
X153744193Y-112092208D01*
X153956914Y-112266783D01*
X154199606Y-112396504D01*
X154462941Y-112476386D01*
X154736800Y-112503359D01*
X155010660Y-112476386D01*
X155273995Y-112396504D01*
X155516687Y-112266783D01*
X155729408Y-112092208D01*
X155903983Y-111879487D01*
X156007838Y-111685187D01*
X156034741Y-111751542D01*
X156185794Y-111981329D01*
X156378774Y-112177232D01*
X156606265Y-112331722D01*
X156859524Y-112438862D01*
X156933730Y-112453820D01*
X157149800Y-112331320D01*
X157149800Y-110464600D01*
X157129800Y-110464600D01*
X157129800Y-110210600D01*
X157149800Y-110210600D01*
X157149800Y-108343880D01*
X157403800Y-108343880D01*
X157403800Y-110210600D01*
X157423800Y-110210600D01*
X157423800Y-110464600D01*
X157403800Y-110464600D01*
X157403800Y-112331320D01*
X157619870Y-112453820D01*
X157694076Y-112438862D01*
X157947335Y-112331722D01*
X158174826Y-112177232D01*
X158367806Y-111981329D01*
X158518859Y-111751542D01*
X158545762Y-111685186D01*
X158649618Y-111879487D01*
X158824193Y-112092208D01*
X159036914Y-112266783D01*
X159279606Y-112396504D01*
X159542941Y-112476386D01*
X159816800Y-112503359D01*
X160090660Y-112476386D01*
X160353995Y-112396504D01*
X160596687Y-112266783D01*
X160809408Y-112092208D01*
X160983983Y-111879487D01*
X161087838Y-111685187D01*
X161114741Y-111751542D01*
X161265794Y-111981329D01*
X161458774Y-112177232D01*
X161686265Y-112331722D01*
X161939524Y-112438862D01*
X162013730Y-112453820D01*
X162229800Y-112331320D01*
X162229800Y-110464600D01*
X162483800Y-110464600D01*
X162483800Y-112331320D01*
X162699870Y-112453820D01*
X162774076Y-112438862D01*
X163027335Y-112331722D01*
X163254826Y-112177232D01*
X163447806Y-111981329D01*
X163598859Y-111751542D01*
X163702181Y-111496701D01*
X163753800Y-111226600D01*
X163753800Y-110464600D01*
X162483800Y-110464600D01*
X162229800Y-110464600D01*
X162209800Y-110464600D01*
X162209800Y-110210600D01*
X162229800Y-110210600D01*
X162229800Y-108343880D01*
X162483800Y-108343880D01*
X162483800Y-110210600D01*
X163753800Y-110210600D01*
X163753800Y-109448600D01*
X163702181Y-109178499D01*
X163598859Y-108923658D01*
X163447806Y-108693871D01*
X163254826Y-108497968D01*
X163027335Y-108343478D01*
X162774076Y-108236338D01*
X162699870Y-108221380D01*
X162483800Y-108343880D01*
X162229800Y-108343880D01*
X162013730Y-108221380D01*
X161939524Y-108236338D01*
X161686265Y-108343478D01*
X161458774Y-108497968D01*
X161265794Y-108693871D01*
X161114741Y-108923658D01*
X161087838Y-108990013D01*
X160983983Y-108795713D01*
X160809407Y-108582992D01*
X160596686Y-108408417D01*
X160353994Y-108278696D01*
X160090659Y-108198814D01*
X159816800Y-108171841D01*
X159542940Y-108198814D01*
X159279605Y-108278696D01*
X159036913Y-108408417D01*
X158824192Y-108582993D01*
X158649617Y-108795714D01*
X158545762Y-108990014D01*
X158518859Y-108923658D01*
X158367806Y-108693871D01*
X158174826Y-108497968D01*
X157947335Y-108343478D01*
X157694076Y-108236338D01*
X157619870Y-108221380D01*
X157403800Y-108343880D01*
X157149800Y-108343880D01*
X156933730Y-108221380D01*
X156859524Y-108236338D01*
X156606265Y-108343478D01*
X156378774Y-108497968D01*
X156185794Y-108693871D01*
X156034741Y-108923658D01*
X156007838Y-108990013D01*
X155903983Y-108795713D01*
X155729407Y-108582992D01*
X155516686Y-108408417D01*
X155273994Y-108278696D01*
X155010659Y-108198814D01*
X154736800Y-108171841D01*
X154462940Y-108198814D01*
X154199605Y-108278696D01*
X153956913Y-108408417D01*
X153744192Y-108582993D01*
X153569617Y-108795714D01*
X153465762Y-108990014D01*
X153438859Y-108923658D01*
X153287806Y-108693871D01*
X153094826Y-108497968D01*
X152867335Y-108343478D01*
X152614076Y-108236338D01*
X152539870Y-108221380D01*
X152323800Y-108343880D01*
X152069800Y-108343880D01*
X151853730Y-108221380D01*
X151779524Y-108236338D01*
X151526265Y-108343478D01*
X151298774Y-108497968D01*
X151105794Y-108693871D01*
X150954741Y-108923658D01*
X150927838Y-108990013D01*
X150823983Y-108795713D01*
X150649407Y-108582992D01*
X150603967Y-108545700D01*
X151456868Y-107692800D01*
X152724196Y-107692800D01*
X152737598Y-107736980D01*
X152796563Y-107847294D01*
X152875915Y-107943985D01*
X152972606Y-108023337D01*
X153082920Y-108082302D01*
X153202618Y-108118612D01*
X153327100Y-108130872D01*
X155232100Y-108130872D01*
X155356582Y-108118612D01*
X155476280Y-108082302D01*
X155586594Y-108023337D01*
X155683285Y-107943985D01*
X155762637Y-107847294D01*
X155821602Y-107736980D01*
X155835004Y-107692800D01*
X156584996Y-107692800D01*
X156598398Y-107736980D01*
X156657363Y-107847294D01*
X156736715Y-107943985D01*
X156833406Y-108023337D01*
X156943720Y-108082302D01*
X157063418Y-108118612D01*
X157187900Y-108130872D01*
X159092900Y-108130872D01*
X159217382Y-108118612D01*
X159337080Y-108082302D01*
X159447394Y-108023337D01*
X159544085Y-107943985D01*
X159623437Y-107847294D01*
X159682402Y-107736980D01*
X159695804Y-107692800D01*
X160963182Y-107692800D01*
X161004200Y-107696840D01*
X161045218Y-107692800D01*
X161045219Y-107692800D01*
X161167889Y-107680718D01*
X161325287Y-107632972D01*
X161470346Y-107555436D01*
X161597491Y-107451091D01*
X161623646Y-107419221D01*
X163223032Y-105819837D01*
X163254891Y-105793691D01*
X163298101Y-105741040D01*
X163319139Y-105715404D01*
X163359236Y-105666546D01*
X163436772Y-105521487D01*
X163462886Y-105435400D01*
X163492225Y-105435400D01*
X163697460Y-105415186D01*
X163960795Y-105335304D01*
X164203487Y-105205583D01*
X164416208Y-105031008D01*
X164437138Y-105005505D01*
X165314158Y-105882526D01*
X165340309Y-105914391D01*
X165467454Y-106018736D01*
X165612513Y-106096272D01*
X165769911Y-106144018D01*
X165892581Y-106156100D01*
X165892591Y-106156100D01*
X165933599Y-106160139D01*
X165974607Y-106156100D01*
X167971527Y-106156100D01*
X167974302Y-106161292D01*
X168028758Y-106242791D01*
X168108110Y-106339482D01*
X168177418Y-106408790D01*
X168274109Y-106488142D01*
X168355608Y-106542598D01*
X168465925Y-106601564D01*
X168556481Y-106639073D01*
X168676177Y-106675382D01*
X168772310Y-106694504D01*
X168896791Y-106706764D01*
X168921350Y-106706764D01*
X168945800Y-106709172D01*
X169445800Y-106709172D01*
X169570282Y-106696912D01*
X169595800Y-106689171D01*
X169621318Y-106696912D01*
X169745800Y-106709172D01*
X170245800Y-106709172D01*
X170270250Y-106706764D01*
X170294809Y-106706764D01*
X170419290Y-106694504D01*
X170515423Y-106675382D01*
X170635119Y-106639073D01*
X170725675Y-106601564D01*
X170835992Y-106542598D01*
X170917491Y-106488142D01*
X171014182Y-106408790D01*
X171083490Y-106339482D01*
X171162842Y-106242791D01*
X171217298Y-106161292D01*
X171276264Y-106050975D01*
X171313773Y-105960419D01*
X171350082Y-105840723D01*
X171369204Y-105744590D01*
X171381464Y-105620109D01*
X171381464Y-105595550D01*
X171383872Y-105571100D01*
X171383872Y-105071100D01*
X171381464Y-105046650D01*
X171381464Y-105022091D01*
X171369204Y-104897610D01*
X171350082Y-104801477D01*
X171313773Y-104681781D01*
X171276264Y-104591225D01*
X171217298Y-104480908D01*
X171162842Y-104399409D01*
X171083490Y-104302718D01*
X171070001Y-104289229D01*
X171058311Y-103176912D01*
X171137442Y-103080491D01*
X171191898Y-102998992D01*
X171250864Y-102888675D01*
X171288373Y-102798119D01*
X171324682Y-102678423D01*
X171343804Y-102582290D01*
X171356064Y-102457809D01*
X171356064Y-102433250D01*
X171358472Y-102408800D01*
X171358472Y-101908800D01*
X171356064Y-101884350D01*
X171356064Y-101859791D01*
X171343804Y-101735310D01*
X171324682Y-101639177D01*
X171288373Y-101519481D01*
X171250864Y-101428925D01*
X171191898Y-101318608D01*
X171137442Y-101237109D01*
X171058090Y-101140418D01*
X171036684Y-101119012D01*
X171025556Y-100060116D01*
X171058090Y-100027582D01*
X171137442Y-99930891D01*
X171191898Y-99849392D01*
X171250864Y-99739075D01*
X171288373Y-99648519D01*
X171324682Y-99528823D01*
X171343804Y-99432690D01*
X171356064Y-99308209D01*
X171356064Y-99283650D01*
X171358472Y-99259200D01*
X171358472Y-98759200D01*
X171356064Y-98734750D01*
X171356064Y-98710191D01*
X171343804Y-98585710D01*
X171324682Y-98489577D01*
X171288373Y-98369881D01*
X171250864Y-98279325D01*
X171191898Y-98169008D01*
X171137442Y-98087509D01*
X171058090Y-97990818D01*
X170988782Y-97921510D01*
X170964975Y-97901972D01*
X170955172Y-97869657D01*
X170877636Y-97724598D01*
X170799439Y-97629314D01*
X170799437Y-97629312D01*
X170773291Y-97597453D01*
X170741432Y-97571307D01*
X166398202Y-93228079D01*
X166372047Y-93196209D01*
X166244902Y-93091864D01*
X166099843Y-93014328D01*
X165942445Y-92966582D01*
X165819775Y-92954500D01*
X165819774Y-92954500D01*
X165778756Y-92950460D01*
X165737738Y-92954500D01*
X164472595Y-92954500D01*
X164416208Y-92885792D01*
X164203487Y-92711217D01*
X164011129Y-92608400D01*
X164203487Y-92505583D01*
X164416208Y-92331008D01*
X164590783Y-92118287D01*
X164720504Y-91875595D01*
X164800386Y-91612260D01*
X164827359Y-91338400D01*
X164800386Y-91064540D01*
X164720504Y-90801205D01*
X164590783Y-90558513D01*
X164416208Y-90345792D01*
X164203487Y-90171217D01*
X164011129Y-90068400D01*
X164203487Y-89965583D01*
X164416208Y-89791008D01*
X164590783Y-89578287D01*
X164658700Y-89451222D01*
X164658700Y-90305790D01*
X164654989Y-90358566D01*
X164663864Y-90428552D01*
X164670782Y-90498788D01*
X164674200Y-90510057D01*
X164675682Y-90521740D01*
X164698044Y-90588660D01*
X164718528Y-90656186D01*
X164724080Y-90666573D01*
X164727812Y-90677741D01*
X164762803Y-90739019D01*
X164796064Y-90801245D01*
X164803533Y-90810346D01*
X164809374Y-90820575D01*
X164855642Y-90873841D01*
X164900409Y-90928391D01*
X164941321Y-90961967D01*
X168685392Y-94502225D01*
X168704109Y-94525031D01*
X168745014Y-94558601D01*
X168753515Y-94566639D01*
X168776708Y-94584611D01*
X168831254Y-94629376D01*
X168841640Y-94634928D01*
X168850949Y-94642141D01*
X168914077Y-94673646D01*
X168976313Y-94706912D01*
X168987585Y-94710331D01*
X168998120Y-94715589D01*
X169066175Y-94734171D01*
X169086485Y-94740332D01*
X169107898Y-94810920D01*
X169166863Y-94921234D01*
X169246215Y-95017925D01*
X169342906Y-95097277D01*
X169453220Y-95156242D01*
X169572918Y-95192552D01*
X169697400Y-95204812D01*
X170967400Y-95204812D01*
X171091882Y-95192552D01*
X171211580Y-95156242D01*
X171321894Y-95097277D01*
X171418585Y-95017925D01*
X171497937Y-94921234D01*
X171556902Y-94810920D01*
X171593212Y-94691222D01*
X171605472Y-94566740D01*
X171605472Y-93296740D01*
X171593212Y-93172258D01*
X171556902Y-93052560D01*
X171497937Y-92942246D01*
X171418585Y-92845555D01*
X171321894Y-92766203D01*
X171302718Y-92755953D01*
X171318873Y-92739798D01*
X171457859Y-92531791D01*
X171553595Y-92300665D01*
X171602400Y-92055304D01*
X171602400Y-91805136D01*
X171553595Y-91559775D01*
X171457859Y-91328649D01*
X171318873Y-91120642D01*
X171141978Y-90943747D01*
X171124397Y-90932000D01*
X171141978Y-90920253D01*
X171318873Y-90743358D01*
X171457859Y-90535351D01*
X171553595Y-90304225D01*
X171602400Y-90058864D01*
X171602400Y-89808696D01*
X171553595Y-89563335D01*
X171457859Y-89332209D01*
X171318873Y-89124202D01*
X171141978Y-88947307D01*
X171015016Y-88862473D01*
X171027595Y-88807060D01*
X170332400Y-88111865D01*
X170318258Y-88126008D01*
X170138653Y-87946403D01*
X170152795Y-87932260D01*
X170512005Y-87932260D01*
X171207200Y-88627455D01*
X171434346Y-88575891D01*
X171538739Y-88348544D01*
X171596773Y-88105201D01*
X171606218Y-87855211D01*
X171566710Y-87608182D01*
X171479769Y-87373607D01*
X171434346Y-87288629D01*
X171207200Y-87237065D01*
X170512005Y-87932260D01*
X170152795Y-87932260D01*
X169457600Y-87237065D01*
X169230454Y-87288629D01*
X169133344Y-87500114D01*
X168703566Y-87057460D01*
X169637205Y-87057460D01*
X170332400Y-87752655D01*
X171027595Y-87057460D01*
X170976031Y-86830314D01*
X170748684Y-86725921D01*
X170505341Y-86667887D01*
X170255351Y-86658442D01*
X170008322Y-86697950D01*
X169773747Y-86784891D01*
X169688769Y-86830314D01*
X169637205Y-87057460D01*
X168703566Y-87057460D01*
X168029183Y-86362873D01*
X168017428Y-83341923D01*
X168141800Y-83354172D01*
X169056050Y-83351100D01*
X169214800Y-83192350D01*
X169214800Y-81643100D01*
X169468800Y-81643100D01*
X169468800Y-83192350D01*
X169627550Y-83351100D01*
X170541800Y-83354172D01*
X170666282Y-83341912D01*
X170785980Y-83305602D01*
X170896294Y-83246637D01*
X170992985Y-83167285D01*
X171072337Y-83070594D01*
X171131302Y-82960280D01*
X171167612Y-82840582D01*
X171179872Y-82716100D01*
X171176800Y-81801850D01*
X171018050Y-81643100D01*
X169468800Y-81643100D01*
X169214800Y-81643100D01*
X169194800Y-81643100D01*
X169194800Y-81389100D01*
X169214800Y-81389100D01*
X169214800Y-81369100D01*
X169468800Y-81369100D01*
X169468800Y-81389100D01*
X171018050Y-81389100D01*
X171176800Y-81230350D01*
X171179872Y-80316100D01*
X171167612Y-80191618D01*
X171131302Y-80071920D01*
X171072337Y-79961606D01*
X170992985Y-79864915D01*
X170896294Y-79785563D01*
X170785980Y-79726598D01*
X170666282Y-79690288D01*
X170541800Y-79678028D01*
X170121226Y-79679441D01*
X170210999Y-79642256D01*
X170511544Y-79441438D01*
X170767138Y-79185844D01*
X170967956Y-78885299D01*
X171106282Y-78551350D01*
X171176800Y-78196832D01*
X171176800Y-77835368D01*
X171106282Y-77480850D01*
X170967956Y-77146901D01*
X170767138Y-76846356D01*
X170511544Y-76590762D01*
X170210999Y-76389944D01*
X169877050Y-76251618D01*
X169522532Y-76181100D01*
X169161068Y-76181100D01*
X168806550Y-76251618D01*
X168472601Y-76389944D01*
X168172056Y-76590762D01*
X167916462Y-76846356D01*
X167715644Y-77146901D01*
X167701478Y-77181100D01*
X167571969Y-77181100D01*
X166791445Y-76400578D01*
X166765291Y-76368709D01*
X166638146Y-76264364D01*
X166493087Y-76186828D01*
X166384549Y-76153903D01*
X166450826Y-75993898D01*
X166490600Y-75793939D01*
X166490600Y-75590061D01*
X166450826Y-75390102D01*
X166372805Y-75201744D01*
X166259537Y-75032226D01*
X166115374Y-74888063D01*
X165945856Y-74774795D01*
X165757498Y-74696774D01*
X165557539Y-74657000D01*
X165353661Y-74657000D01*
X165153702Y-74696774D01*
X164965344Y-74774795D01*
X164842315Y-74857000D01*
X163871068Y-74857000D01*
X163753800Y-74739732D01*
X163753800Y-73692975D01*
X163733586Y-73487740D01*
X163653704Y-73224405D01*
X163523983Y-72981713D01*
X163349408Y-72768992D01*
X163136687Y-72594417D01*
X162893995Y-72464696D01*
X162630660Y-72384814D01*
X162356800Y-72357841D01*
X162082941Y-72384814D01*
X161819606Y-72464696D01*
X161576914Y-72594417D01*
X161364193Y-72768992D01*
X161189618Y-72981713D01*
X161085762Y-73176014D01*
X161058859Y-73109658D01*
X160907806Y-72879871D01*
X160714826Y-72683968D01*
X160487335Y-72529478D01*
X160234076Y-72422338D01*
X160159870Y-72407380D01*
X159943800Y-72529880D01*
X159943800Y-74396600D01*
X159963800Y-74396600D01*
X159963800Y-74650600D01*
X159943800Y-74650600D01*
X159943800Y-74670600D01*
X159689800Y-74670600D01*
X159689800Y-74650600D01*
X159669800Y-74650600D01*
X159669800Y-74396600D01*
X159689800Y-74396600D01*
X159689800Y-72529880D01*
X159473730Y-72407380D01*
X159399524Y-72422338D01*
X159146265Y-72529478D01*
X158918774Y-72683968D01*
X158725794Y-72879871D01*
X158574741Y-73109658D01*
X158547838Y-73176013D01*
X158443983Y-72981713D01*
X158269408Y-72768992D01*
X158056687Y-72594417D01*
X157813995Y-72464696D01*
X157550660Y-72384814D01*
X157276800Y-72357841D01*
X157002941Y-72384814D01*
X156739606Y-72464696D01*
X156496914Y-72594417D01*
X156284193Y-72768992D01*
X156109618Y-72981713D01*
X156005762Y-73176014D01*
X155978859Y-73109658D01*
X155827806Y-72879871D01*
X155634826Y-72683968D01*
X155407335Y-72529478D01*
X155154076Y-72422338D01*
X155079870Y-72407380D01*
X154863800Y-72529880D01*
X154863800Y-74396600D01*
X154883800Y-74396600D01*
X154883800Y-74650600D01*
X154863800Y-74650600D01*
X154863800Y-74670600D01*
X154609800Y-74670600D01*
X154609800Y-74650600D01*
X154589800Y-74650600D01*
X154589800Y-74396600D01*
X154609800Y-74396600D01*
X154609800Y-72529880D01*
X154393730Y-72407380D01*
X154319524Y-72422338D01*
X154066265Y-72529478D01*
X153838774Y-72683968D01*
X153645794Y-72879871D01*
X153494741Y-73109658D01*
X153467838Y-73176013D01*
X153363983Y-72981713D01*
X153189408Y-72768992D01*
X152976687Y-72594417D01*
X152733995Y-72464696D01*
X152470660Y-72384814D01*
X152196800Y-72357841D01*
X151922941Y-72384814D01*
X151659606Y-72464696D01*
X151416914Y-72594417D01*
X151204193Y-72768992D01*
X151029618Y-72981713D01*
X150925762Y-73176014D01*
X150898859Y-73109658D01*
X150747806Y-72879871D01*
X150554826Y-72683968D01*
X150327335Y-72529478D01*
X150074076Y-72422338D01*
X149999870Y-72407380D01*
X149783800Y-72529880D01*
X149783800Y-74396600D01*
X149803800Y-74396600D01*
X149803800Y-74650600D01*
X149783800Y-74650600D01*
X149783800Y-74670600D01*
X149529800Y-74670600D01*
X149529800Y-74650600D01*
X148259800Y-74650600D01*
X148259800Y-75412600D01*
X148311419Y-75682701D01*
X148414741Y-75937542D01*
X148565794Y-76167329D01*
X148758774Y-76363232D01*
X148986265Y-76517722D01*
X149239524Y-76624862D01*
X149313730Y-76639820D01*
X149505799Y-76530927D01*
X147961390Y-78075338D01*
X147929522Y-78101491D01*
X147879075Y-78162961D01*
X147863039Y-78173676D01*
X147718876Y-78317839D01*
X147605608Y-78487357D01*
X147527587Y-78675715D01*
X147498721Y-78820837D01*
X145638459Y-80681100D01*
X144578822Y-80681100D01*
X144564656Y-80646901D01*
X144363838Y-80346356D01*
X144108244Y-80090762D01*
X143807699Y-79889944D01*
X143717926Y-79852759D01*
X144138500Y-79854172D01*
X144262982Y-79841912D01*
X144382680Y-79805602D01*
X144492994Y-79746637D01*
X144589685Y-79667285D01*
X144669037Y-79570594D01*
X144728002Y-79460280D01*
X144764312Y-79340582D01*
X144776572Y-79216100D01*
X144773500Y-78301850D01*
X144614750Y-78143100D01*
X143065500Y-78143100D01*
X143065500Y-78163100D01*
X142811500Y-78163100D01*
X142811500Y-78143100D01*
X141262250Y-78143100D01*
X141103500Y-78301850D01*
X141100428Y-79216100D01*
X141112688Y-79340582D01*
X141148998Y-79460280D01*
X141207963Y-79570594D01*
X141287315Y-79667285D01*
X141384006Y-79746637D01*
X141494320Y-79805602D01*
X141614018Y-79841912D01*
X141738500Y-79854172D01*
X142159074Y-79852759D01*
X142069301Y-79889944D01*
X141768756Y-80090762D01*
X141513162Y-80346356D01*
X141312344Y-80646901D01*
X141174018Y-80980850D01*
X141103500Y-81335368D01*
X141103500Y-81696832D01*
X141174018Y-82051350D01*
X141312344Y-82385299D01*
X141513162Y-82685844D01*
X141768756Y-82941438D01*
X142069301Y-83142256D01*
X142403250Y-83280582D01*
X142757768Y-83351100D01*
X143119232Y-83351100D01*
X143473750Y-83280582D01*
X143807699Y-83142256D01*
X144108244Y-82941438D01*
X144363838Y-82685844D01*
X144564656Y-82385299D01*
X144578822Y-82351100D01*
X145556410Y-82351100D01*
X145587040Y-82367472D01*
X145744438Y-82415218D01*
X145908125Y-82431340D01*
X145908126Y-82431340D01*
X146071814Y-82415218D01*
X146229212Y-82367472D01*
X146374271Y-82289936D01*
X146469555Y-82211738D01*
X146469556Y-82211737D01*
X146501416Y-82185590D01*
X146527563Y-82153730D01*
X148137634Y-80543660D01*
X148135570Y-80548643D01*
X148052600Y-80965757D01*
X148052600Y-81391043D01*
X148135570Y-81808157D01*
X148298319Y-82201070D01*
X148534596Y-82554682D01*
X148835318Y-82855404D01*
X149188930Y-83091681D01*
X149581843Y-83254430D01*
X149983513Y-83334328D01*
X149059900Y-83334328D01*
X148935418Y-83346588D01*
X148815720Y-83382898D01*
X148705406Y-83441863D01*
X148608715Y-83521215D01*
X148529363Y-83617906D01*
X148470398Y-83728220D01*
X148448985Y-83798808D01*
X148338813Y-83832228D01*
X148193754Y-83909764D01*
X148066609Y-84014109D01*
X148040461Y-84045971D01*
X146467378Y-85619055D01*
X146435508Y-85645210D01*
X146333589Y-85769400D01*
X146331163Y-85772356D01*
X146253627Y-85917415D01*
X146205881Y-86074813D01*
X146189759Y-86238501D01*
X146193799Y-86279520D01*
X146193800Y-88878871D01*
X146189759Y-88919899D01*
X146205881Y-89083587D01*
X146253627Y-89240985D01*
X146331163Y-89386044D01*
X146331164Y-89386045D01*
X146435509Y-89513190D01*
X146467373Y-89539340D01*
X147818611Y-90890579D01*
X147675939Y-90862200D01*
X147472061Y-90862200D01*
X147272102Y-90901974D01*
X147083744Y-90979995D01*
X146914226Y-91093263D01*
X146770063Y-91237426D01*
X146681800Y-91369521D01*
X146681800Y-90595867D01*
X146685839Y-90554859D01*
X146681800Y-90513851D01*
X146681800Y-90513841D01*
X146669718Y-90391171D01*
X146621972Y-90233773D01*
X146544436Y-90088714D01*
X146440091Y-89961569D01*
X146408228Y-89935420D01*
X143843646Y-87370839D01*
X143817491Y-87338969D01*
X143690346Y-87234624D01*
X143545287Y-87157088D01*
X143435115Y-87123668D01*
X143413702Y-87053080D01*
X143354737Y-86942766D01*
X143275385Y-86846075D01*
X143178694Y-86766723D01*
X143068380Y-86707758D01*
X142948682Y-86671448D01*
X142824200Y-86659188D01*
X141554200Y-86659188D01*
X141429718Y-86671448D01*
X141310020Y-86707758D01*
X141199706Y-86766723D01*
X141103015Y-86846075D01*
X141023663Y-86942766D01*
X140964698Y-87053080D01*
X140928388Y-87172778D01*
X140916128Y-87297260D01*
X138048721Y-87297260D01*
X138048769Y-76816100D01*
X141100428Y-76816100D01*
X141103500Y-77730350D01*
X141262250Y-77889100D01*
X142811500Y-77889100D01*
X142811500Y-76339850D01*
X143065500Y-76339850D01*
X143065500Y-77889100D01*
X144614750Y-77889100D01*
X144773500Y-77730350D01*
X144776572Y-76816100D01*
X144764312Y-76691618D01*
X144728002Y-76571920D01*
X144669037Y-76461606D01*
X144589685Y-76364915D01*
X144492994Y-76285563D01*
X144382680Y-76226598D01*
X144262982Y-76190288D01*
X144138500Y-76178028D01*
X143224250Y-76181100D01*
X143065500Y-76339850D01*
X142811500Y-76339850D01*
X142652750Y-76181100D01*
X141738500Y-76178028D01*
X141614018Y-76190288D01*
X141494320Y-76226598D01*
X141384006Y-76285563D01*
X141287315Y-76364915D01*
X141207963Y-76461606D01*
X141148998Y-76571920D01*
X141112688Y-76691618D01*
X141100428Y-76816100D01*
X138048769Y-76816100D01*
X138048783Y-73634600D01*
X148259800Y-73634600D01*
X148259800Y-74396600D01*
X149529800Y-74396600D01*
X149529800Y-72529880D01*
X149313730Y-72407380D01*
X149239524Y-72422338D01*
X148986265Y-72529478D01*
X148758774Y-72683968D01*
X148565794Y-72879871D01*
X148414741Y-73109658D01*
X148311419Y-73364499D01*
X148259800Y-73634600D01*
X138048783Y-73634600D01*
X138048795Y-71286035D01*
X138293336Y-71652017D01*
X138609383Y-71968064D01*
X138981015Y-72216380D01*
X139393951Y-72387424D01*
X139832321Y-72474621D01*
X140279279Y-72474621D01*
X140717649Y-72387424D01*
X141130585Y-72216380D01*
X141502217Y-71968064D01*
X141818264Y-71652017D01*
X142066580Y-71280385D01*
X142237624Y-70867449D01*
X142324821Y-70429079D01*
X142324821Y-69982121D01*
X142237624Y-69543751D01*
X142066580Y-69130815D01*
X141818264Y-68759183D01*
X141502217Y-68443136D01*
X141136242Y-68198600D01*
X170877558Y-68198600D01*
X170511583Y-68443136D01*
G36*
X167760563Y-102690598D02*
G01*
X167786709Y-102722457D01*
X167818568Y-102748603D01*
X167818570Y-102748605D01*
X167843651Y-102769188D01*
X167852427Y-102798119D01*
X167889936Y-102888675D01*
X167948902Y-102998992D01*
X168003358Y-103080491D01*
X168082710Y-103177182D01*
X168152018Y-103246490D01*
X168248709Y-103325842D01*
X168330208Y-103380298D01*
X168440525Y-103439264D01*
X168531081Y-103476773D01*
X168650777Y-103513082D01*
X168746910Y-103532204D01*
X168871391Y-103544464D01*
X168895950Y-103544464D01*
X168920400Y-103546872D01*
X169392109Y-103546872D01*
X169396167Y-103933028D01*
X168945800Y-103933028D01*
X168921350Y-103935436D01*
X168896791Y-103935436D01*
X168772310Y-103947696D01*
X168676177Y-103966818D01*
X168586108Y-103994140D01*
X168200492Y-103608524D01*
X168171625Y-103463401D01*
X168093604Y-103275043D01*
X167980336Y-103105525D01*
X167836173Y-102961362D01*
X167666655Y-102848094D01*
X167478297Y-102770073D01*
X167278338Y-102730299D01*
X167074460Y-102730299D01*
X166874501Y-102770073D01*
X166686143Y-102848094D01*
X166516625Y-102961362D01*
X166372462Y-103105525D01*
X166259194Y-103275043D01*
X166181173Y-103463401D01*
X166141399Y-103663360D01*
X166141399Y-103867238D01*
X166181173Y-104067197D01*
X166259194Y-104255555D01*
X166372462Y-104425073D01*
X166433489Y-104486100D01*
X166279468Y-104486100D01*
X165181446Y-103388079D01*
X165155291Y-103356209D01*
X165028146Y-103251864D01*
X164883087Y-103174328D01*
X164725689Y-103126582D01*
X164603019Y-103114500D01*
X164603018Y-103114500D01*
X164562000Y-103110460D01*
X164520982Y-103114500D01*
X164472595Y-103114500D01*
X164416208Y-103045792D01*
X164203487Y-102871217D01*
X164009187Y-102767362D01*
X164075542Y-102740459D01*
X164305329Y-102589406D01*
X164501232Y-102396426D01*
X164655722Y-102168935D01*
X164762862Y-101915676D01*
X164777820Y-101841470D01*
X164655320Y-101625400D01*
X162788600Y-101625400D01*
X162788600Y-101645400D01*
X162534600Y-101645400D01*
X162534600Y-101625400D01*
X162514600Y-101625400D01*
X162514600Y-101371400D01*
X162534600Y-101371400D01*
X162534600Y-101351400D01*
X162788600Y-101351400D01*
X162788600Y-101371400D01*
X164655320Y-101371400D01*
X164777820Y-101155330D01*
X164762862Y-101081124D01*
X164655722Y-100827865D01*
X164501232Y-100600374D01*
X164305329Y-100407394D01*
X164075542Y-100256341D01*
X164009187Y-100229438D01*
X164203487Y-100125583D01*
X164416208Y-99951008D01*
X164590783Y-99738287D01*
X164608842Y-99704500D01*
X164774467Y-99704500D01*
X167760563Y-102690598D01*
G37*
X167760563Y-102690598D02*
X167786709Y-102722457D01*
X167818568Y-102748603D01*
X167818570Y-102748605D01*
X167843651Y-102769188D01*
X167852427Y-102798119D01*
X167889936Y-102888675D01*
X167948902Y-102998992D01*
X168003358Y-103080491D01*
X168082710Y-103177182D01*
X168152018Y-103246490D01*
X168248709Y-103325842D01*
X168330208Y-103380298D01*
X168440525Y-103439264D01*
X168531081Y-103476773D01*
X168650777Y-103513082D01*
X168746910Y-103532204D01*
X168871391Y-103544464D01*
X168895950Y-103544464D01*
X168920400Y-103546872D01*
X169392109Y-103546872D01*
X169396167Y-103933028D01*
X168945800Y-103933028D01*
X168921350Y-103935436D01*
X168896791Y-103935436D01*
X168772310Y-103947696D01*
X168676177Y-103966818D01*
X168586108Y-103994140D01*
X168200492Y-103608524D01*
X168171625Y-103463401D01*
X168093604Y-103275043D01*
X167980336Y-103105525D01*
X167836173Y-102961362D01*
X167666655Y-102848094D01*
X167478297Y-102770073D01*
X167278338Y-102730299D01*
X167074460Y-102730299D01*
X166874501Y-102770073D01*
X166686143Y-102848094D01*
X166516625Y-102961362D01*
X166372462Y-103105525D01*
X166259194Y-103275043D01*
X166181173Y-103463401D01*
X166141399Y-103663360D01*
X166141399Y-103867238D01*
X166181173Y-104067197D01*
X166259194Y-104255555D01*
X166372462Y-104425073D01*
X166433489Y-104486100D01*
X166279468Y-104486100D01*
X165181446Y-103388079D01*
X165155291Y-103356209D01*
X165028146Y-103251864D01*
X164883087Y-103174328D01*
X164725689Y-103126582D01*
X164603019Y-103114500D01*
X164603018Y-103114500D01*
X164562000Y-103110460D01*
X164520982Y-103114500D01*
X164472595Y-103114500D01*
X164416208Y-103045792D01*
X164203487Y-102871217D01*
X164009187Y-102767362D01*
X164075542Y-102740459D01*
X164305329Y-102589406D01*
X164501232Y-102396426D01*
X164655722Y-102168935D01*
X164762862Y-101915676D01*
X164777820Y-101841470D01*
X164655320Y-101625400D01*
X162788600Y-101625400D01*
X162788600Y-101645400D01*
X162534600Y-101645400D01*
X162534600Y-101625400D01*
X162514600Y-101625400D01*
X162514600Y-101371400D01*
X162534600Y-101371400D01*
X162534600Y-101351400D01*
X162788600Y-101351400D01*
X162788600Y-101371400D01*
X164655320Y-101371400D01*
X164777820Y-101155330D01*
X164762862Y-101081124D01*
X164655722Y-100827865D01*
X164501232Y-100600374D01*
X164305329Y-100407394D01*
X164075542Y-100256341D01*
X164009187Y-100229438D01*
X164203487Y-100125583D01*
X164416208Y-99951008D01*
X164590783Y-99738287D01*
X164608842Y-99704500D01*
X164774467Y-99704500D01*
X167760563Y-102690598D01*
M02*
