G04 #@! TF.GenerationSoftware,KiCad,Pcbnew,(5.1.5-0-10_14)*
G04 #@! TF.CreationDate,2020-07-07T18:08:04+02:00*
G04 #@! TF.ProjectId,smartcitizen-adc-4-ch,736d6172-7463-4697-9469-7a656e2d6164,rev?*
G04 #@! TF.SameCoordinates,Original*
G04 #@! TF.FileFunction,Copper,L1,Top*
G04 #@! TF.FilePolarity,Positive*
%FSLAX46Y46*%
G04 Gerber Fmt 4.6, Leading zero omitted, Abs format (unit mm)*
G04 Created by KiCad (PCBNEW (5.1.5-0-10_14)) date 2020-07-07 18:08:04*
%MOMM*%
%LPD*%
G04 APERTURE LIST*
%ADD10C,0.100000*%
%ADD11R,2.999740X1.500000*%
%ADD12R,2.738120X1.008380*%
%ADD13C,2.400000*%
%ADD14R,2.400000X2.400000*%
%ADD15R,1.500000X1.000000*%
%ADD16R,1.905000X1.270000*%
%ADD17O,1.524000X3.048000*%
%ADD18O,3.048000X1.524000*%
%ADD19C,3.048000*%
%ADD20R,1.270000X2.540000*%
%ADD21R,0.889000X0.787400*%
%ADD22C,0.800000*%
%ADD23C,0.800000*%
%ADD24C,0.400000*%
%ADD25C,0.250000*%
%ADD26C,0.254000*%
G04 APERTURE END LIST*
D10*
G36*
X142800000Y-94500000D02*
G01*
X142800000Y-95000000D01*
X142200000Y-95000000D01*
X142200000Y-94500000D01*
X142800000Y-94500000D01*
G37*
D11*
X138901620Y-63302500D03*
X138901620Y-74097500D03*
D12*
X146399700Y-65700260D03*
X146399700Y-67701780D03*
X146399700Y-69698220D03*
X146399700Y-71699740D03*
D13*
X169900000Y-86300000D03*
D14*
X169900000Y-89800000D03*
D13*
X142800000Y-90000000D03*
D14*
X142800000Y-86500000D03*
G04 #@! TA.AperFunction,SMDPad,CuDef*
D10*
G36*
X141750000Y-94650000D02*
G01*
X141750000Y-94100000D01*
X141750602Y-94100000D01*
X141750602Y-94075466D01*
X141755412Y-94026635D01*
X141764984Y-93978510D01*
X141779228Y-93931555D01*
X141798005Y-93886222D01*
X141821136Y-93842949D01*
X141848396Y-93802150D01*
X141879524Y-93764221D01*
X141914221Y-93729524D01*
X141952150Y-93698396D01*
X141992949Y-93671136D01*
X142036222Y-93648005D01*
X142081555Y-93629228D01*
X142128510Y-93614984D01*
X142176635Y-93605412D01*
X142225466Y-93600602D01*
X142250000Y-93600602D01*
X142250000Y-93600000D01*
X142750000Y-93600000D01*
X142750000Y-93600602D01*
X142774534Y-93600602D01*
X142823365Y-93605412D01*
X142871490Y-93614984D01*
X142918445Y-93629228D01*
X142963778Y-93648005D01*
X143007051Y-93671136D01*
X143047850Y-93698396D01*
X143085779Y-93729524D01*
X143120476Y-93764221D01*
X143151604Y-93802150D01*
X143178864Y-93842949D01*
X143201995Y-93886222D01*
X143220772Y-93931555D01*
X143235016Y-93978510D01*
X143244588Y-94026635D01*
X143249398Y-94075466D01*
X143249398Y-94100000D01*
X143250000Y-94100000D01*
X143250000Y-94650000D01*
X141750000Y-94650000D01*
G37*
G04 #@! TD.AperFunction*
D15*
X142500000Y-95400000D03*
G04 #@! TA.AperFunction,SMDPad,CuDef*
D10*
G36*
X143249398Y-96700000D02*
G01*
X143249398Y-96724534D01*
X143244588Y-96773365D01*
X143235016Y-96821490D01*
X143220772Y-96868445D01*
X143201995Y-96913778D01*
X143178864Y-96957051D01*
X143151604Y-96997850D01*
X143120476Y-97035779D01*
X143085779Y-97070476D01*
X143047850Y-97101604D01*
X143007051Y-97128864D01*
X142963778Y-97151995D01*
X142918445Y-97170772D01*
X142871490Y-97185016D01*
X142823365Y-97194588D01*
X142774534Y-97199398D01*
X142750000Y-97199398D01*
X142750000Y-97200000D01*
X142250000Y-97200000D01*
X142250000Y-97199398D01*
X142225466Y-97199398D01*
X142176635Y-97194588D01*
X142128510Y-97185016D01*
X142081555Y-97170772D01*
X142036222Y-97151995D01*
X141992949Y-97128864D01*
X141952150Y-97101604D01*
X141914221Y-97070476D01*
X141879524Y-97035779D01*
X141848396Y-96997850D01*
X141821136Y-96957051D01*
X141798005Y-96913778D01*
X141779228Y-96868445D01*
X141764984Y-96821490D01*
X141755412Y-96773365D01*
X141750602Y-96724534D01*
X141750602Y-96700000D01*
X141750000Y-96700000D01*
X141750000Y-96150000D01*
X143250000Y-96150000D01*
X143250000Y-96700000D01*
X143249398Y-96700000D01*
G37*
G04 #@! TD.AperFunction*
D16*
X157988000Y-96291400D03*
X157988000Y-99593400D03*
X150012400Y-96291400D03*
X150012400Y-99593400D03*
X154025600Y-96291400D03*
X154025600Y-99593400D03*
D17*
X162356800Y-62330000D03*
X159816800Y-62330000D03*
X157276800Y-62330000D03*
X154736800Y-62330000D03*
X152196800Y-62330000D03*
X149656800Y-62330000D03*
X149656800Y-74523600D03*
X152196800Y-74523600D03*
X154736800Y-74523600D03*
X157276800Y-74523600D03*
X159816800Y-74523600D03*
X162356800Y-74523600D03*
G04 #@! TA.AperFunction,SMDPad,CuDef*
D10*
G36*
X168945800Y-106070498D02*
G01*
X168921266Y-106070498D01*
X168872435Y-106065688D01*
X168824310Y-106056116D01*
X168777355Y-106041872D01*
X168732022Y-106023095D01*
X168688749Y-105999964D01*
X168647950Y-105972704D01*
X168610021Y-105941576D01*
X168575324Y-105906879D01*
X168544196Y-105868950D01*
X168516936Y-105828151D01*
X168493805Y-105784878D01*
X168475028Y-105739545D01*
X168460784Y-105692590D01*
X168451212Y-105644465D01*
X168446402Y-105595634D01*
X168446402Y-105571100D01*
X168445800Y-105571100D01*
X168445800Y-105071100D01*
X168446402Y-105071100D01*
X168446402Y-105046566D01*
X168451212Y-104997735D01*
X168460784Y-104949610D01*
X168475028Y-104902655D01*
X168493805Y-104857322D01*
X168516936Y-104814049D01*
X168544196Y-104773250D01*
X168575324Y-104735321D01*
X168610021Y-104700624D01*
X168647950Y-104669496D01*
X168688749Y-104642236D01*
X168732022Y-104619105D01*
X168777355Y-104600328D01*
X168824310Y-104586084D01*
X168872435Y-104576512D01*
X168921266Y-104571702D01*
X168945800Y-104571702D01*
X168945800Y-104571100D01*
X169445800Y-104571100D01*
X169445800Y-106071100D01*
X168945800Y-106071100D01*
X168945800Y-106070498D01*
G37*
G04 #@! TD.AperFunction*
G04 #@! TA.AperFunction,SMDPad,CuDef*
G36*
X169745800Y-104571100D02*
G01*
X170245800Y-104571100D01*
X170245800Y-104571702D01*
X170270334Y-104571702D01*
X170319165Y-104576512D01*
X170367290Y-104586084D01*
X170414245Y-104600328D01*
X170459578Y-104619105D01*
X170502851Y-104642236D01*
X170543650Y-104669496D01*
X170581579Y-104700624D01*
X170616276Y-104735321D01*
X170647404Y-104773250D01*
X170674664Y-104814049D01*
X170697795Y-104857322D01*
X170716572Y-104902655D01*
X170730816Y-104949610D01*
X170740388Y-104997735D01*
X170745198Y-105046566D01*
X170745198Y-105071100D01*
X170745800Y-105071100D01*
X170745800Y-105571100D01*
X170745198Y-105571100D01*
X170745198Y-105595634D01*
X170740388Y-105644465D01*
X170730816Y-105692590D01*
X170716572Y-105739545D01*
X170697795Y-105784878D01*
X170674664Y-105828151D01*
X170647404Y-105868950D01*
X170616276Y-105906879D01*
X170581579Y-105941576D01*
X170543650Y-105972704D01*
X170502851Y-105999964D01*
X170459578Y-106023095D01*
X170414245Y-106041872D01*
X170367290Y-106056116D01*
X170319165Y-106065688D01*
X170270334Y-106070498D01*
X170245800Y-106070498D01*
X170245800Y-106071100D01*
X169745800Y-106071100D01*
X169745800Y-104571100D01*
G37*
G04 #@! TD.AperFunction*
G04 #@! TA.AperFunction,SMDPad,CuDef*
G36*
X168920400Y-102908198D02*
G01*
X168895866Y-102908198D01*
X168847035Y-102903388D01*
X168798910Y-102893816D01*
X168751955Y-102879572D01*
X168706622Y-102860795D01*
X168663349Y-102837664D01*
X168622550Y-102810404D01*
X168584621Y-102779276D01*
X168549924Y-102744579D01*
X168518796Y-102706650D01*
X168491536Y-102665851D01*
X168468405Y-102622578D01*
X168449628Y-102577245D01*
X168435384Y-102530290D01*
X168425812Y-102482165D01*
X168421002Y-102433334D01*
X168421002Y-102408800D01*
X168420400Y-102408800D01*
X168420400Y-101908800D01*
X168421002Y-101908800D01*
X168421002Y-101884266D01*
X168425812Y-101835435D01*
X168435384Y-101787310D01*
X168449628Y-101740355D01*
X168468405Y-101695022D01*
X168491536Y-101651749D01*
X168518796Y-101610950D01*
X168549924Y-101573021D01*
X168584621Y-101538324D01*
X168622550Y-101507196D01*
X168663349Y-101479936D01*
X168706622Y-101456805D01*
X168751955Y-101438028D01*
X168798910Y-101423784D01*
X168847035Y-101414212D01*
X168895866Y-101409402D01*
X168920400Y-101409402D01*
X168920400Y-101408800D01*
X169420400Y-101408800D01*
X169420400Y-102908800D01*
X168920400Y-102908800D01*
X168920400Y-102908198D01*
G37*
G04 #@! TD.AperFunction*
G04 #@! TA.AperFunction,SMDPad,CuDef*
G36*
X169720400Y-101408800D02*
G01*
X170220400Y-101408800D01*
X170220400Y-101409402D01*
X170244934Y-101409402D01*
X170293765Y-101414212D01*
X170341890Y-101423784D01*
X170388845Y-101438028D01*
X170434178Y-101456805D01*
X170477451Y-101479936D01*
X170518250Y-101507196D01*
X170556179Y-101538324D01*
X170590876Y-101573021D01*
X170622004Y-101610950D01*
X170649264Y-101651749D01*
X170672395Y-101695022D01*
X170691172Y-101740355D01*
X170705416Y-101787310D01*
X170714988Y-101835435D01*
X170719798Y-101884266D01*
X170719798Y-101908800D01*
X170720400Y-101908800D01*
X170720400Y-102408800D01*
X170719798Y-102408800D01*
X170719798Y-102433334D01*
X170714988Y-102482165D01*
X170705416Y-102530290D01*
X170691172Y-102577245D01*
X170672395Y-102622578D01*
X170649264Y-102665851D01*
X170622004Y-102706650D01*
X170590876Y-102744579D01*
X170556179Y-102779276D01*
X170518250Y-102810404D01*
X170477451Y-102837664D01*
X170434178Y-102860795D01*
X170388845Y-102879572D01*
X170341890Y-102893816D01*
X170293765Y-102903388D01*
X170244934Y-102908198D01*
X170220400Y-102908198D01*
X170220400Y-102908800D01*
X169720400Y-102908800D01*
X169720400Y-101408800D01*
G37*
G04 #@! TD.AperFunction*
G04 #@! TA.AperFunction,SMDPad,CuDef*
G36*
X168920400Y-99758598D02*
G01*
X168895866Y-99758598D01*
X168847035Y-99753788D01*
X168798910Y-99744216D01*
X168751955Y-99729972D01*
X168706622Y-99711195D01*
X168663349Y-99688064D01*
X168622550Y-99660804D01*
X168584621Y-99629676D01*
X168549924Y-99594979D01*
X168518796Y-99557050D01*
X168491536Y-99516251D01*
X168468405Y-99472978D01*
X168449628Y-99427645D01*
X168435384Y-99380690D01*
X168425812Y-99332565D01*
X168421002Y-99283734D01*
X168421002Y-99259200D01*
X168420400Y-99259200D01*
X168420400Y-98759200D01*
X168421002Y-98759200D01*
X168421002Y-98734666D01*
X168425812Y-98685835D01*
X168435384Y-98637710D01*
X168449628Y-98590755D01*
X168468405Y-98545422D01*
X168491536Y-98502149D01*
X168518796Y-98461350D01*
X168549924Y-98423421D01*
X168584621Y-98388724D01*
X168622550Y-98357596D01*
X168663349Y-98330336D01*
X168706622Y-98307205D01*
X168751955Y-98288428D01*
X168798910Y-98274184D01*
X168847035Y-98264612D01*
X168895866Y-98259802D01*
X168920400Y-98259802D01*
X168920400Y-98259200D01*
X169420400Y-98259200D01*
X169420400Y-99759200D01*
X168920400Y-99759200D01*
X168920400Y-99758598D01*
G37*
G04 #@! TD.AperFunction*
G04 #@! TA.AperFunction,SMDPad,CuDef*
G36*
X169720400Y-98259200D02*
G01*
X170220400Y-98259200D01*
X170220400Y-98259802D01*
X170244934Y-98259802D01*
X170293765Y-98264612D01*
X170341890Y-98274184D01*
X170388845Y-98288428D01*
X170434178Y-98307205D01*
X170477451Y-98330336D01*
X170518250Y-98357596D01*
X170556179Y-98388724D01*
X170590876Y-98423421D01*
X170622004Y-98461350D01*
X170649264Y-98502149D01*
X170672395Y-98545422D01*
X170691172Y-98590755D01*
X170705416Y-98637710D01*
X170714988Y-98685835D01*
X170719798Y-98734666D01*
X170719798Y-98759200D01*
X170720400Y-98759200D01*
X170720400Y-99259200D01*
X170719798Y-99259200D01*
X170719798Y-99283734D01*
X170714988Y-99332565D01*
X170705416Y-99380690D01*
X170691172Y-99427645D01*
X170672395Y-99472978D01*
X170649264Y-99516251D01*
X170622004Y-99557050D01*
X170590876Y-99594979D01*
X170556179Y-99629676D01*
X170518250Y-99660804D01*
X170477451Y-99688064D01*
X170434178Y-99711195D01*
X170388845Y-99729972D01*
X170341890Y-99744216D01*
X170293765Y-99753788D01*
X170244934Y-99758598D01*
X170220400Y-99758598D01*
X170220400Y-99759200D01*
X169720400Y-99759200D01*
X169720400Y-98259200D01*
G37*
G04 #@! TD.AperFunction*
D18*
X162661600Y-104038400D03*
X162661600Y-101498400D03*
X162661600Y-98958400D03*
X162661600Y-96418400D03*
X162661600Y-93878400D03*
X162661600Y-91338400D03*
X162661600Y-88798400D03*
X162661600Y-86258400D03*
X162661600Y-83718400D03*
X162661600Y-81178400D03*
D19*
X150211600Y-104038400D03*
X150211600Y-81178400D03*
D20*
X141330000Y-105340000D03*
X141330000Y-99881540D03*
X143870000Y-105340000D03*
X143870000Y-99881540D03*
D16*
X150012400Y-84607400D03*
X150012400Y-87909400D03*
X150012400Y-93853000D03*
X150012400Y-90551000D03*
X154279600Y-103555800D03*
X154279600Y-106857800D03*
X158140400Y-106857800D03*
X158140400Y-103555800D03*
D21*
X155397200Y-83794600D03*
X153365200Y-84759800D03*
X153365200Y-82829400D03*
X153314400Y-88823800D03*
X153314400Y-90754200D03*
X155346400Y-89789000D03*
D12*
X166100300Y-65700260D03*
X166100300Y-67701780D03*
X166100300Y-69698220D03*
X166100300Y-71699740D03*
D11*
X173598380Y-63302500D03*
X173598380Y-74097500D03*
D22*
X163398959Y-71301041D03*
X153365200Y-79806800D03*
X150012400Y-92151200D03*
X147700000Y-75042840D03*
X147878800Y-87934800D03*
X152247600Y-78841600D03*
X148026041Y-76823959D03*
X156667200Y-97688400D03*
X146200000Y-94200000D03*
X167550000Y-73500000D03*
X141650000Y-74350000D03*
X158949192Y-85238392D03*
X165060000Y-75910000D03*
X157988000Y-84734400D03*
X160121600Y-80467200D03*
X161360000Y-76600000D03*
X155752800Y-88290400D03*
X153212800Y-93218000D03*
X156057600Y-103581200D03*
X159585713Y-88775487D03*
X149860000Y-97688400D03*
X153111200Y-97688400D03*
X157073600Y-89001600D03*
X156768800Y-81432400D03*
X156565600Y-93929200D03*
D23*
X143870000Y-105340000D02*
X143870000Y-99881540D01*
X142800000Y-90000000D02*
X140000000Y-92800000D01*
X141379998Y-96700000D02*
X142500000Y-96700000D01*
X140000000Y-95320002D02*
X141379998Y-96700000D01*
X140000000Y-92800000D02*
X140000000Y-95320002D01*
X143870000Y-98070000D02*
X142500000Y-96700000D01*
X143870000Y-99881540D02*
X143870000Y-98070000D01*
X140044999Y-92755001D02*
X142800000Y-90000000D01*
X140044999Y-107592189D02*
X140044999Y-92755001D01*
X173650010Y-90050010D02*
X173650010Y-106634928D01*
X141032679Y-108579869D02*
X140044999Y-107592189D01*
X171705069Y-108579869D02*
X141032679Y-108579869D01*
X173650010Y-106634928D02*
X171705069Y-108579869D01*
X169900000Y-86300000D02*
X173650010Y-90050010D01*
D24*
X164562000Y-103949500D02*
X162623500Y-103949500D01*
X162306000Y-104267000D02*
X162623500Y-103949500D01*
X161004200Y-106857800D02*
X158140400Y-106857800D01*
X162661600Y-105200400D02*
X161004200Y-106857800D01*
X162661600Y-104038400D02*
X162661600Y-105200400D01*
X165933600Y-105321100D02*
X164562000Y-103949500D01*
X168945800Y-105321100D02*
X165933600Y-105321100D01*
X158140400Y-106857800D02*
X154279600Y-106857800D01*
X162356800Y-72599600D02*
X162356800Y-74523600D01*
D23*
X162356800Y-72199600D02*
X157557200Y-67400000D01*
X162356800Y-74523600D02*
X162356800Y-72199600D01*
X149656800Y-64654000D02*
X149656800Y-62330000D01*
X152402800Y-67400000D02*
X149656800Y-64654000D01*
X157557200Y-67400000D02*
X152402800Y-67400000D01*
X162756400Y-71800000D02*
X162356800Y-72199600D01*
X162900000Y-71800000D02*
X163398959Y-71301041D01*
X162756400Y-71800000D02*
X162900000Y-71800000D01*
D24*
X152520700Y-83623100D02*
X153314400Y-82829400D01*
X151587200Y-84607400D02*
X152520700Y-83673900D01*
X153314400Y-82829400D02*
X153365200Y-82829400D01*
X152520700Y-83673900D02*
X152520700Y-83623100D01*
X150012400Y-84607400D02*
X151587200Y-84607400D01*
X153263600Y-88823800D02*
X153314400Y-88823800D01*
X147028799Y-88919899D02*
X148659900Y-90551000D01*
X147028799Y-86238501D02*
X147028799Y-88919899D01*
X148659900Y-84607400D02*
X147028799Y-86238501D01*
X150012400Y-84607400D02*
X148659900Y-84607400D01*
X148659900Y-90551000D02*
X150012400Y-90551000D01*
X151587200Y-90551000D02*
X153314400Y-88823800D01*
X150012400Y-90551000D02*
X151587200Y-90551000D01*
D23*
X146049000Y-90551000D02*
X150012400Y-90551000D01*
X142500000Y-94100000D02*
X146049000Y-90551000D01*
D24*
X165208401Y-77991599D02*
X168800000Y-74400000D01*
X151839599Y-77991599D02*
X165208401Y-77991599D01*
X151282400Y-79134402D02*
X151282400Y-78548798D01*
X151282400Y-78548798D02*
X151839599Y-77991599D01*
X153365200Y-82829400D02*
X153365200Y-81217202D01*
X153365200Y-81217202D02*
X151282400Y-79134402D01*
X167869360Y-69698220D02*
X166100300Y-69698220D01*
X168800000Y-70628860D02*
X167869360Y-69698220D01*
X168800000Y-74400000D02*
X168800000Y-70628860D01*
X151431198Y-78400000D02*
X151839599Y-77991599D01*
X148400000Y-78400000D02*
X151431198Y-78400000D01*
X143000000Y-73000000D02*
X148400000Y-78400000D01*
X146399700Y-67701780D02*
X144048220Y-67701780D01*
X143000000Y-68750000D02*
X143000000Y-73000000D01*
X144048220Y-67701780D02*
X143000000Y-68750000D01*
X153314400Y-91903500D02*
X153314400Y-90754200D01*
X151364900Y-93853000D02*
X153314400Y-91903500D01*
X150012400Y-93853000D02*
X151364900Y-93853000D01*
X150012400Y-93853000D02*
X150012400Y-92151200D01*
X153554801Y-79617199D02*
X153365200Y-79806800D01*
X164707199Y-79617199D02*
X153554801Y-79617199D01*
X164764388Y-79550010D02*
X165488494Y-79550010D01*
X165488494Y-79550010D02*
X170100020Y-74938484D01*
X164707199Y-79607199D02*
X164764388Y-79550010D01*
X164707199Y-79617199D02*
X164707199Y-79607199D01*
X167869360Y-65700260D02*
X170100000Y-67930900D01*
X170100000Y-67930900D02*
X170100000Y-68550000D01*
X166100300Y-65700260D02*
X167869360Y-65700260D01*
X170100020Y-74938484D02*
X170100000Y-68550000D01*
X146399700Y-71699740D02*
X146399700Y-71799700D01*
X146399700Y-71699740D02*
X146399700Y-73742540D01*
X146399700Y-73742540D02*
X147700000Y-75042840D01*
X153365200Y-85909100D02*
X153365200Y-84759800D01*
X151364900Y-87909400D02*
X153365200Y-85909100D01*
X150012400Y-87909400D02*
X151364900Y-87909400D01*
X149987000Y-87934800D02*
X150012400Y-87909400D01*
X147878800Y-87934800D02*
X149987000Y-87934800D01*
X165219252Y-78900000D02*
X164400000Y-78900000D01*
X152247600Y-78841600D02*
X164400000Y-78900000D01*
X169450010Y-74669242D02*
X165219252Y-78900000D01*
X169450000Y-69282420D02*
X169450000Y-70150000D01*
X167869360Y-67701780D02*
X169450000Y-69282420D01*
X166100300Y-67701780D02*
X167869360Y-67701780D01*
X169450000Y-70150000D02*
X169450010Y-74669242D01*
X144630640Y-69698220D02*
X143800000Y-70528860D01*
X146399700Y-69698220D02*
X144630640Y-69698220D01*
X143800000Y-72597918D02*
X148026041Y-76823959D01*
X143800000Y-70528860D02*
X143800000Y-72597918D01*
X150012400Y-96291400D02*
X151364900Y-96291400D01*
X156267201Y-97288401D02*
X156267201Y-96526401D01*
X156667200Y-97688400D02*
X156267201Y-97288401D01*
X156057600Y-96316800D02*
X157988000Y-96291400D01*
X156267201Y-96526401D02*
X156057600Y-96316800D01*
X151364900Y-96291400D02*
X156057600Y-96316800D01*
D23*
X141330000Y-99881540D02*
X141330000Y-105340000D01*
X162356800Y-60006000D02*
X162250800Y-59900000D01*
X162356800Y-62330000D02*
X162356800Y-60006000D01*
X157382800Y-59900000D02*
X157276800Y-60006000D01*
X162250800Y-59900000D02*
X157382800Y-59900000D01*
X157276800Y-60006000D02*
X157276800Y-62330000D01*
X157170800Y-59900000D02*
X157276800Y-60006000D01*
X152200000Y-59900000D02*
X157170800Y-59900000D01*
X159816800Y-72199600D02*
X159317200Y-71700000D01*
X159816800Y-74523600D02*
X159816800Y-72199600D01*
X154736800Y-72199600D02*
X154736800Y-74523600D01*
X155236400Y-71700000D02*
X154736800Y-72199600D01*
X159317200Y-71700000D02*
X155236400Y-71700000D01*
X149656800Y-72199600D02*
X149656800Y-74523600D01*
X150156400Y-71700000D02*
X149656800Y-72199600D01*
X155236400Y-71700000D02*
X150156400Y-71700000D01*
X148259900Y-96291400D02*
X146800000Y-94831500D01*
X150012400Y-96291400D02*
X148259900Y-96291400D01*
X146800000Y-94831500D02*
X146800000Y-94800000D01*
X146800000Y-94800000D02*
X146200000Y-94200000D01*
X173598380Y-74097500D02*
X173598380Y-63302500D01*
X172625880Y-62330000D02*
X173598380Y-63302500D01*
X162356800Y-62330000D02*
X172625880Y-62330000D01*
X167550000Y-73149440D02*
X166100300Y-71699740D01*
X167550000Y-73500000D02*
X167550000Y-73149440D01*
X139154120Y-74350000D02*
X138901620Y-74097500D01*
X141650000Y-74350000D02*
X139154120Y-74350000D01*
X138901620Y-74097500D02*
X138901620Y-63302500D01*
X145306130Y-63302500D02*
X138901620Y-63302500D01*
X146399700Y-64396070D02*
X145306130Y-63302500D01*
X146399700Y-65700260D02*
X146399700Y-64396070D01*
X152196800Y-59903200D02*
X152200000Y-59900000D01*
X152196800Y-62330000D02*
X152196800Y-59903200D01*
X139651490Y-63302500D02*
X138901620Y-63302500D01*
X143050790Y-59903200D02*
X139651490Y-63302500D01*
X152196800Y-59903200D02*
X143050790Y-59903200D01*
X172848510Y-74097500D02*
X166550000Y-80396010D01*
X173598380Y-74097500D02*
X172848510Y-74097500D01*
X167900000Y-89800000D02*
X169900000Y-89800000D01*
X166550000Y-88450000D02*
X167900000Y-89800000D01*
X166550000Y-80396010D02*
X166550000Y-88450000D01*
X141330000Y-106980000D02*
X141330000Y-105340000D01*
X150420140Y-107529860D02*
X141879860Y-107529860D01*
X152700000Y-105250000D02*
X150420140Y-107529860D01*
X160050000Y-103348000D02*
X160050000Y-104800000D01*
X159600000Y-105250000D02*
X152700000Y-105250000D01*
X160050000Y-104800000D02*
X159600000Y-105250000D01*
X141879860Y-107529860D02*
X141330000Y-106980000D01*
X161899600Y-101498400D02*
X160050000Y-103348000D01*
X162661600Y-101498400D02*
X161899600Y-101498400D01*
D25*
X162661600Y-86258400D02*
X160887600Y-86258400D01*
X160887600Y-86258400D02*
X159867592Y-85238392D01*
X159867592Y-85238392D02*
X158949192Y-85238392D01*
D24*
X165060000Y-74010000D02*
X165060000Y-75910000D01*
X164281239Y-73231239D02*
X165060000Y-74010000D01*
X164281239Y-70981239D02*
X164281239Y-73231239D01*
X159816800Y-66516800D02*
X164281239Y-70981239D01*
X159816800Y-62330000D02*
X159816800Y-66516800D01*
D25*
X161362198Y-88798400D02*
X157988000Y-85424202D01*
X162661600Y-88798400D02*
X161362198Y-88798400D01*
X157988000Y-85424202D02*
X157988000Y-84734400D01*
D24*
X160737600Y-83718400D02*
X160121600Y-83102400D01*
X162661600Y-83718400D02*
X160737600Y-83718400D01*
X160121600Y-83102400D02*
X160121600Y-80467200D01*
X161336380Y-76576380D02*
X161360000Y-76600000D01*
X152325580Y-76576380D02*
X161336380Y-76576380D01*
X152196800Y-76447600D02*
X152325580Y-76576380D01*
X152196800Y-74523600D02*
X152196800Y-76447600D01*
X165120334Y-98869500D02*
X162623500Y-98869500D01*
X168380000Y-102129166D02*
X165120334Y-98869500D01*
X168880000Y-102129166D02*
X168380000Y-102129166D01*
D25*
X155752800Y-89382600D02*
X155346400Y-89789000D01*
X155752800Y-88290400D02*
X155752800Y-89382600D01*
D24*
X153212800Y-93218000D02*
X153924000Y-92506800D01*
X153924000Y-92506800D02*
X155448000Y-92506800D01*
X155448000Y-92506800D02*
X156616400Y-91338400D01*
X156616400Y-90214500D02*
X156190900Y-89789000D01*
X156190900Y-89789000D02*
X155346400Y-89789000D01*
X156616400Y-91338400D02*
X156616400Y-90214500D01*
X158115000Y-103581200D02*
X158140400Y-103555800D01*
X156057600Y-103581200D02*
X158115000Y-103581200D01*
X158457900Y-103555800D02*
X158140400Y-103555800D01*
X159492900Y-101365100D02*
X159492900Y-102520800D01*
X159492900Y-102520800D02*
X158457900Y-103555800D01*
X161899600Y-98958400D02*
X159492900Y-101365100D01*
X162661600Y-98958400D02*
X161899600Y-98958400D01*
X165649500Y-96329500D02*
X162623500Y-96329500D01*
X168380000Y-99060000D02*
X165649500Y-96329500D01*
X168880000Y-99060000D02*
X168380000Y-99060000D01*
X160687590Y-96368390D02*
X160737600Y-96418400D01*
X160687590Y-89878690D02*
X160687590Y-96368390D01*
X155397200Y-83794600D02*
X155397200Y-84588300D01*
X155448000Y-84632800D02*
X159585713Y-88775487D01*
D25*
X156972000Y-86156800D02*
X155448000Y-84632800D01*
D24*
X155397200Y-84588300D02*
X155448000Y-84632800D01*
X160737600Y-96418400D02*
X162661600Y-96418400D01*
X157948352Y-101904800D02*
X160687590Y-99165562D01*
X160687590Y-99165562D02*
X160687590Y-96468410D01*
X156248100Y-101904800D02*
X157948352Y-101904800D01*
X160687590Y-96468410D02*
X160737600Y-96418400D01*
X154597100Y-103555800D02*
X156248100Y-101904800D01*
X154279600Y-103555800D02*
X154597100Y-103555800D01*
X159585713Y-88775487D02*
X160687590Y-89878690D01*
D25*
X149860000Y-97688400D02*
X153111200Y-97688400D01*
D24*
X170180000Y-98190744D02*
X165778756Y-93789500D01*
X165778756Y-93789500D02*
X162623500Y-93789500D01*
X170180000Y-99060000D02*
X170180000Y-98190744D01*
X170245800Y-105321100D02*
X170180000Y-99060000D01*
D25*
X157073600Y-88435915D02*
X154533600Y-85895915D01*
X157073600Y-89001600D02*
X157073600Y-88435915D01*
X154533600Y-83144998D02*
X156246198Y-81432400D01*
X154533600Y-85895915D02*
X154533600Y-83144998D01*
X156246198Y-81432400D02*
X156768800Y-81432400D01*
D24*
X157988000Y-99593400D02*
X150012400Y-99593400D01*
X159390501Y-99543399D02*
X159340500Y-99593400D01*
X159390501Y-95296399D02*
X159390501Y-99543399D01*
X159340500Y-99593400D02*
X157988000Y-99593400D01*
X158023302Y-93929200D02*
X159390501Y-95296399D01*
X156565600Y-93929200D02*
X158023302Y-93929200D01*
D23*
X144050000Y-95400000D02*
X148243400Y-99593400D01*
X148243400Y-99593400D02*
X150012400Y-99593400D01*
X142500000Y-95400000D02*
X144050000Y-95400000D01*
D26*
G36*
X172586991Y-55211985D02*
G01*
X173141596Y-55371668D01*
X173654628Y-55636036D01*
X174106541Y-55995019D01*
X174480120Y-56434940D01*
X174761133Y-56939040D01*
X174938884Y-57488130D01*
X175009999Y-58090092D01*
X175010002Y-61914651D01*
X173884130Y-61917500D01*
X173725380Y-62076250D01*
X173725380Y-63175500D01*
X173745380Y-63175500D01*
X173745380Y-63429500D01*
X173725380Y-63429500D01*
X173725380Y-64528750D01*
X173884130Y-64687500D01*
X175010005Y-64690349D01*
X175010012Y-72709651D01*
X173884130Y-72712500D01*
X173725380Y-72871250D01*
X173725380Y-73970500D01*
X173745380Y-73970500D01*
X173745380Y-74224500D01*
X173725380Y-74224500D01*
X173725380Y-75323750D01*
X173884130Y-75482500D01*
X175010014Y-75485349D01*
X175010045Y-110765353D01*
X174958015Y-111376988D01*
X174798331Y-111931596D01*
X174533962Y-112444631D01*
X174174982Y-112896541D01*
X173735061Y-113270119D01*
X173230960Y-113551133D01*
X172681870Y-113728884D01*
X172079908Y-113799999D01*
X140124646Y-113800045D01*
X139513012Y-113748015D01*
X138958404Y-113588331D01*
X138445369Y-113323962D01*
X137993459Y-112964982D01*
X137619881Y-112525061D01*
X137338867Y-112020960D01*
X137161116Y-111471870D01*
X137090001Y-110869908D01*
X137090001Y-110616521D01*
X137780979Y-110616521D01*
X137780979Y-111063479D01*
X137868176Y-111501849D01*
X138039220Y-111914785D01*
X138287536Y-112286417D01*
X138603583Y-112602464D01*
X138975215Y-112850780D01*
X139388151Y-113021824D01*
X139826521Y-113109021D01*
X140273479Y-113109021D01*
X140711849Y-113021824D01*
X141124785Y-112850780D01*
X141496417Y-112602464D01*
X141812464Y-112286417D01*
X142060780Y-111914785D01*
X142231824Y-111501849D01*
X142319021Y-111063479D01*
X142319021Y-110616521D01*
X142231824Y-110178151D01*
X142060780Y-109765215D01*
X141960322Y-109614869D01*
X170139678Y-109614869D01*
X170039220Y-109765215D01*
X169868176Y-110178151D01*
X169780979Y-110616521D01*
X169780979Y-111063479D01*
X169868176Y-111501849D01*
X170039220Y-111914785D01*
X170287536Y-112286417D01*
X170603583Y-112602464D01*
X170975215Y-112850780D01*
X171388151Y-113021824D01*
X171826521Y-113109021D01*
X172273479Y-113109021D01*
X172711849Y-113021824D01*
X173124785Y-112850780D01*
X173496417Y-112602464D01*
X173812464Y-112286417D01*
X174060780Y-111914785D01*
X174231824Y-111501849D01*
X174319021Y-111063479D01*
X174319021Y-110616521D01*
X174231824Y-110178151D01*
X174060780Y-109765215D01*
X173812464Y-109393583D01*
X173496417Y-109077536D01*
X173124785Y-108829220D01*
X172979576Y-108769072D01*
X174345918Y-107402731D01*
X174385406Y-107370324D01*
X174417813Y-107330836D01*
X174514744Y-107212726D01*
X174582346Y-107086250D01*
X174610851Y-107032921D01*
X174670034Y-106837823D01*
X174685010Y-106685766D01*
X174685010Y-106685764D01*
X174690017Y-106634928D01*
X174685010Y-106584093D01*
X174685010Y-90100837D01*
X174690016Y-90050009D01*
X174685010Y-89999181D01*
X174685010Y-89999172D01*
X174670034Y-89847115D01*
X174610851Y-89652017D01*
X174546480Y-89531587D01*
X174514744Y-89472212D01*
X174417813Y-89354102D01*
X174385406Y-89314614D01*
X174345918Y-89282207D01*
X171703384Y-86639674D01*
X171735000Y-86480732D01*
X171735000Y-86119268D01*
X171664482Y-85764750D01*
X171526156Y-85430801D01*
X171325338Y-85130256D01*
X171069744Y-84874662D01*
X170769199Y-84673844D01*
X170435250Y-84535518D01*
X170080732Y-84465000D01*
X169719268Y-84465000D01*
X169364750Y-84535518D01*
X169030801Y-84673844D01*
X168730256Y-84874662D01*
X168474662Y-85130256D01*
X168273844Y-85430801D01*
X168135518Y-85764750D01*
X168065000Y-86119268D01*
X168065000Y-86480732D01*
X168135518Y-86835250D01*
X168273844Y-87169199D01*
X168474662Y-87469744D01*
X168730256Y-87725338D01*
X169030801Y-87926156D01*
X169120574Y-87963341D01*
X168700000Y-87961928D01*
X168575518Y-87974188D01*
X168455820Y-88010498D01*
X168345506Y-88069463D01*
X168248815Y-88148815D01*
X168169463Y-88245506D01*
X168110498Y-88355820D01*
X168074188Y-88475518D01*
X168061928Y-88600000D01*
X168065000Y-89514250D01*
X168223750Y-89673000D01*
X169773000Y-89673000D01*
X169773000Y-89653000D01*
X170027000Y-89653000D01*
X170027000Y-89673000D01*
X171576250Y-89673000D01*
X171692770Y-89556480D01*
X172615010Y-90478721D01*
X172615011Y-106206216D01*
X171276359Y-107544869D01*
X161483222Y-107544869D01*
X161597491Y-107451091D01*
X161623646Y-107419221D01*
X163223032Y-105819837D01*
X163254891Y-105793691D01*
X163359236Y-105666546D01*
X163436772Y-105521487D01*
X163462886Y-105435400D01*
X163492225Y-105435400D01*
X163697460Y-105415186D01*
X163960795Y-105335304D01*
X164203487Y-105205583D01*
X164416208Y-105031008D01*
X164437138Y-105005505D01*
X165314158Y-105882526D01*
X165340309Y-105914391D01*
X165467454Y-106018736D01*
X165612513Y-106096272D01*
X165769911Y-106144018D01*
X165892581Y-106156100D01*
X165892591Y-106156100D01*
X165933599Y-106160139D01*
X165974607Y-106156100D01*
X167971527Y-106156100D01*
X167974302Y-106161292D01*
X168028758Y-106242791D01*
X168108110Y-106339482D01*
X168177418Y-106408790D01*
X168274109Y-106488142D01*
X168355608Y-106542598D01*
X168465925Y-106601564D01*
X168556481Y-106639073D01*
X168676177Y-106675382D01*
X168772310Y-106694504D01*
X168896791Y-106706764D01*
X168921350Y-106706764D01*
X168945800Y-106709172D01*
X169445800Y-106709172D01*
X169570282Y-106696912D01*
X169595800Y-106689171D01*
X169621318Y-106696912D01*
X169745800Y-106709172D01*
X170245800Y-106709172D01*
X170270250Y-106706764D01*
X170294809Y-106706764D01*
X170419290Y-106694504D01*
X170515423Y-106675382D01*
X170635119Y-106639073D01*
X170725675Y-106601564D01*
X170835992Y-106542598D01*
X170917491Y-106488142D01*
X171014182Y-106408790D01*
X171083490Y-106339482D01*
X171162842Y-106242791D01*
X171217298Y-106161292D01*
X171276264Y-106050975D01*
X171313773Y-105960419D01*
X171350082Y-105840723D01*
X171369204Y-105744590D01*
X171381464Y-105620109D01*
X171381464Y-105595550D01*
X171383872Y-105571100D01*
X171383872Y-105071100D01*
X171381464Y-105046650D01*
X171381464Y-105022091D01*
X171369204Y-104897610D01*
X171350082Y-104801477D01*
X171313773Y-104681781D01*
X171276264Y-104591225D01*
X171217298Y-104480908D01*
X171162842Y-104399409D01*
X171083490Y-104302718D01*
X171070001Y-104289229D01*
X171058311Y-103176912D01*
X171137442Y-103080491D01*
X171191898Y-102998992D01*
X171250864Y-102888675D01*
X171288373Y-102798119D01*
X171324682Y-102678423D01*
X171343804Y-102582290D01*
X171356064Y-102457809D01*
X171356064Y-102433250D01*
X171358472Y-102408800D01*
X171358472Y-101908800D01*
X171356064Y-101884350D01*
X171356064Y-101859791D01*
X171343804Y-101735310D01*
X171324682Y-101639177D01*
X171288373Y-101519481D01*
X171250864Y-101428925D01*
X171191898Y-101318608D01*
X171137442Y-101237109D01*
X171058090Y-101140418D01*
X171036684Y-101119012D01*
X171025556Y-100060116D01*
X171058090Y-100027582D01*
X171137442Y-99930891D01*
X171191898Y-99849392D01*
X171250864Y-99739075D01*
X171288373Y-99648519D01*
X171324682Y-99528823D01*
X171343804Y-99432690D01*
X171356064Y-99308209D01*
X171356064Y-99283650D01*
X171358472Y-99259200D01*
X171358472Y-98759200D01*
X171356064Y-98734750D01*
X171356064Y-98710191D01*
X171343804Y-98585710D01*
X171324682Y-98489577D01*
X171288373Y-98369881D01*
X171250864Y-98279325D01*
X171191898Y-98169008D01*
X171137442Y-98087509D01*
X171058090Y-97990818D01*
X170988782Y-97921510D01*
X170964975Y-97901972D01*
X170955172Y-97869657D01*
X170877636Y-97724598D01*
X170799439Y-97629314D01*
X170799437Y-97629312D01*
X170773291Y-97597453D01*
X170741432Y-97571307D01*
X166398202Y-93228079D01*
X166372047Y-93196209D01*
X166244902Y-93091864D01*
X166099843Y-93014328D01*
X165942445Y-92966582D01*
X165819775Y-92954500D01*
X165819774Y-92954500D01*
X165778756Y-92950460D01*
X165737738Y-92954500D01*
X164472595Y-92954500D01*
X164416208Y-92885792D01*
X164203487Y-92711217D01*
X164011129Y-92608400D01*
X164203487Y-92505583D01*
X164416208Y-92331008D01*
X164590783Y-92118287D01*
X164720504Y-91875595D01*
X164800386Y-91612260D01*
X164827359Y-91338400D01*
X164800386Y-91064540D01*
X164780808Y-91000000D01*
X168061928Y-91000000D01*
X168074188Y-91124482D01*
X168110498Y-91244180D01*
X168169463Y-91354494D01*
X168248815Y-91451185D01*
X168345506Y-91530537D01*
X168455820Y-91589502D01*
X168575518Y-91625812D01*
X168700000Y-91638072D01*
X169614250Y-91635000D01*
X169773000Y-91476250D01*
X169773000Y-89927000D01*
X170027000Y-89927000D01*
X170027000Y-91476250D01*
X170185750Y-91635000D01*
X171100000Y-91638072D01*
X171224482Y-91625812D01*
X171344180Y-91589502D01*
X171454494Y-91530537D01*
X171551185Y-91451185D01*
X171630537Y-91354494D01*
X171689502Y-91244180D01*
X171725812Y-91124482D01*
X171738072Y-91000000D01*
X171735000Y-90085750D01*
X171576250Y-89927000D01*
X170027000Y-89927000D01*
X169773000Y-89927000D01*
X168223750Y-89927000D01*
X168065000Y-90085750D01*
X168061928Y-91000000D01*
X164780808Y-91000000D01*
X164720504Y-90801205D01*
X164590783Y-90558513D01*
X164416208Y-90345792D01*
X164203487Y-90171217D01*
X164011129Y-90068400D01*
X164203487Y-89965583D01*
X164416208Y-89791008D01*
X164590783Y-89578287D01*
X164720504Y-89335595D01*
X164800386Y-89072260D01*
X164827359Y-88798400D01*
X164800386Y-88524540D01*
X164720504Y-88261205D01*
X164590783Y-88018513D01*
X164416208Y-87805792D01*
X164203487Y-87631217D01*
X164011129Y-87528400D01*
X164203487Y-87425583D01*
X164416208Y-87251008D01*
X164590783Y-87038287D01*
X164720504Y-86795595D01*
X164800386Y-86532260D01*
X164827359Y-86258400D01*
X164800386Y-85984540D01*
X164720504Y-85721205D01*
X164590783Y-85478513D01*
X164416208Y-85265792D01*
X164203487Y-85091217D01*
X164011129Y-84988400D01*
X164203487Y-84885583D01*
X164416208Y-84711008D01*
X164590783Y-84498287D01*
X164720504Y-84255595D01*
X164800386Y-83992260D01*
X164827359Y-83718400D01*
X164800386Y-83444540D01*
X164720504Y-83181205D01*
X164590783Y-82938513D01*
X164416208Y-82725792D01*
X164203487Y-82551217D01*
X164011129Y-82448400D01*
X164203487Y-82345583D01*
X164416208Y-82171008D01*
X164590783Y-81958287D01*
X164720504Y-81715595D01*
X164800386Y-81452260D01*
X164827359Y-81178400D01*
X164800386Y-80904540D01*
X164720504Y-80641205D01*
X164619479Y-80452199D01*
X164666180Y-80452199D01*
X164707199Y-80456239D01*
X164748217Y-80452199D01*
X164748218Y-80452199D01*
X164870888Y-80440117D01*
X165028286Y-80392371D01*
X165042057Y-80385010D01*
X165447476Y-80385010D01*
X165488494Y-80389050D01*
X165529512Y-80385010D01*
X165529513Y-80385010D01*
X165652183Y-80372928D01*
X165809581Y-80325182D01*
X165954640Y-80247646D01*
X166081785Y-80143301D01*
X166107940Y-80111431D01*
X167602850Y-78616521D01*
X169780979Y-78616521D01*
X169780979Y-79063479D01*
X169868176Y-79501849D01*
X170039220Y-79914785D01*
X170287536Y-80286417D01*
X170603583Y-80602464D01*
X170975215Y-80850780D01*
X171388151Y-81021824D01*
X171826521Y-81109021D01*
X172273479Y-81109021D01*
X172711849Y-81021824D01*
X173124785Y-80850780D01*
X173496417Y-80602464D01*
X173812464Y-80286417D01*
X174060780Y-79914785D01*
X174231824Y-79501849D01*
X174319021Y-79063479D01*
X174319021Y-78616521D01*
X174231824Y-78178151D01*
X174060780Y-77765215D01*
X173812464Y-77393583D01*
X173496417Y-77077536D01*
X173124785Y-76829220D01*
X172711849Y-76658176D01*
X172273479Y-76570979D01*
X171826521Y-76570979D01*
X171388151Y-76658176D01*
X170975215Y-76829220D01*
X170603583Y-77077536D01*
X170287536Y-77393583D01*
X170039220Y-77765215D01*
X169868176Y-78178151D01*
X169780979Y-78616521D01*
X167602850Y-78616521D01*
X170661458Y-75557915D01*
X170693312Y-75531773D01*
X170719452Y-75499921D01*
X170719459Y-75499914D01*
X170797656Y-75404630D01*
X170875192Y-75259571D01*
X170875367Y-75258996D01*
X170891282Y-75206528D01*
X170922938Y-75102172D01*
X170939060Y-74938484D01*
X170935020Y-74897463D01*
X170935020Y-74847500D01*
X171460438Y-74847500D01*
X171472698Y-74971982D01*
X171509008Y-75091680D01*
X171567973Y-75201994D01*
X171647325Y-75298685D01*
X171744016Y-75378037D01*
X171854330Y-75437002D01*
X171974028Y-75473312D01*
X172098510Y-75485572D01*
X173312630Y-75482500D01*
X173471380Y-75323750D01*
X173471380Y-74224500D01*
X171622260Y-74224500D01*
X171463510Y-74383250D01*
X171460438Y-74847500D01*
X170935020Y-74847500D01*
X170935015Y-73347500D01*
X171460438Y-73347500D01*
X171463510Y-73811750D01*
X171622260Y-73970500D01*
X173471380Y-73970500D01*
X173471380Y-72871250D01*
X173312630Y-72712500D01*
X172098510Y-72709428D01*
X171974028Y-72721688D01*
X171854330Y-72757998D01*
X171744016Y-72816963D01*
X171647325Y-72896315D01*
X171567973Y-72993006D01*
X171509008Y-73103320D01*
X171472698Y-73223018D01*
X171460438Y-73347500D01*
X170935015Y-73347500D01*
X170934999Y-68591026D01*
X170935000Y-68591019D01*
X170935000Y-67971907D01*
X170939039Y-67930899D01*
X170935000Y-67889891D01*
X170935000Y-67889881D01*
X170922918Y-67767211D01*
X170875172Y-67609813D01*
X170797636Y-67464754D01*
X170693291Y-67337609D01*
X170661428Y-67311460D01*
X168488806Y-65138839D01*
X168462651Y-65106969D01*
X168335506Y-65002624D01*
X168190447Y-64925088D01*
X168033049Y-64877342D01*
X168018235Y-64875883D01*
X167999897Y-64841576D01*
X167920545Y-64744885D01*
X167823854Y-64665533D01*
X167713540Y-64606568D01*
X167593842Y-64570258D01*
X167469360Y-64557998D01*
X164731240Y-64557998D01*
X164606758Y-64570258D01*
X164487060Y-64606568D01*
X164376746Y-64665533D01*
X164280055Y-64744885D01*
X164200703Y-64841576D01*
X164141738Y-64951890D01*
X164105428Y-65071588D01*
X164093168Y-65196070D01*
X164093168Y-66204450D01*
X164105428Y-66328932D01*
X164141738Y-66448630D01*
X164200703Y-66558944D01*
X164280055Y-66655635D01*
X164335357Y-66701020D01*
X164280055Y-66746405D01*
X164200703Y-66843096D01*
X164141738Y-66953410D01*
X164105428Y-67073108D01*
X164093168Y-67197590D01*
X164093168Y-68205970D01*
X164105428Y-68330452D01*
X164141738Y-68450150D01*
X164200703Y-68560464D01*
X164280055Y-68657155D01*
X164332262Y-68700000D01*
X164280055Y-68742845D01*
X164200703Y-68839536D01*
X164141738Y-68949850D01*
X164105428Y-69069548D01*
X164093168Y-69194030D01*
X164093168Y-69612300D01*
X160651800Y-66170933D01*
X160651800Y-64213953D01*
X160809408Y-64084608D01*
X160983983Y-63871887D01*
X161087838Y-63677587D01*
X161114741Y-63743942D01*
X161265794Y-63973729D01*
X161458774Y-64169632D01*
X161686265Y-64324122D01*
X161939524Y-64431262D01*
X162013730Y-64446220D01*
X162229800Y-64323720D01*
X162229800Y-62457000D01*
X162483800Y-62457000D01*
X162483800Y-64323720D01*
X162699870Y-64446220D01*
X162774076Y-64431262D01*
X163027335Y-64324122D01*
X163254826Y-64169632D01*
X163370210Y-64052500D01*
X171460438Y-64052500D01*
X171472698Y-64176982D01*
X171509008Y-64296680D01*
X171567973Y-64406994D01*
X171647325Y-64503685D01*
X171744016Y-64583037D01*
X171854330Y-64642002D01*
X171974028Y-64678312D01*
X172098510Y-64690572D01*
X173312630Y-64687500D01*
X173471380Y-64528750D01*
X173471380Y-63429500D01*
X171622260Y-63429500D01*
X171463510Y-63588250D01*
X171460438Y-64052500D01*
X163370210Y-64052500D01*
X163447806Y-63973729D01*
X163598859Y-63743942D01*
X163702181Y-63489101D01*
X163753800Y-63219000D01*
X163753800Y-62552500D01*
X171460438Y-62552500D01*
X171463510Y-63016750D01*
X171622260Y-63175500D01*
X173471380Y-63175500D01*
X173471380Y-62076250D01*
X173312630Y-61917500D01*
X172098510Y-61914428D01*
X171974028Y-61926688D01*
X171854330Y-61962998D01*
X171744016Y-62021963D01*
X171647325Y-62101315D01*
X171567973Y-62198006D01*
X171509008Y-62308320D01*
X171472698Y-62428018D01*
X171460438Y-62552500D01*
X163753800Y-62552500D01*
X163753800Y-62457000D01*
X162483800Y-62457000D01*
X162229800Y-62457000D01*
X162209800Y-62457000D01*
X162209800Y-62203000D01*
X162229800Y-62203000D01*
X162229800Y-60336280D01*
X162483800Y-60336280D01*
X162483800Y-62203000D01*
X163753800Y-62203000D01*
X163753800Y-61441000D01*
X163702181Y-61170899D01*
X163598859Y-60916058D01*
X163447806Y-60686271D01*
X163254826Y-60490368D01*
X163027335Y-60335878D01*
X162774076Y-60228738D01*
X162699870Y-60213780D01*
X162483800Y-60336280D01*
X162229800Y-60336280D01*
X162013730Y-60213780D01*
X161939524Y-60228738D01*
X161686265Y-60335878D01*
X161458774Y-60490368D01*
X161265794Y-60686271D01*
X161114741Y-60916058D01*
X161087838Y-60982413D01*
X160983983Y-60788113D01*
X160809407Y-60575392D01*
X160596686Y-60400817D01*
X160353994Y-60271096D01*
X160090659Y-60191214D01*
X159816800Y-60164241D01*
X159542940Y-60191214D01*
X159279605Y-60271096D01*
X159036913Y-60400817D01*
X158824192Y-60575393D01*
X158649617Y-60788114D01*
X158545762Y-60982414D01*
X158518859Y-60916058D01*
X158367806Y-60686271D01*
X158174826Y-60490368D01*
X157947335Y-60335878D01*
X157694076Y-60228738D01*
X157619870Y-60213780D01*
X157403800Y-60336280D01*
X157403800Y-62203000D01*
X157423800Y-62203000D01*
X157423800Y-62457000D01*
X157403800Y-62457000D01*
X157403800Y-64323720D01*
X157619870Y-64446220D01*
X157694076Y-64431262D01*
X157947335Y-64324122D01*
X158174826Y-64169632D01*
X158367806Y-63973729D01*
X158518859Y-63743942D01*
X158545762Y-63677586D01*
X158649618Y-63871887D01*
X158824193Y-64084608D01*
X158981800Y-64213953D01*
X158981801Y-66475772D01*
X158977760Y-66516800D01*
X158993882Y-66680488D01*
X159041628Y-66837886D01*
X159119164Y-66982945D01*
X159119165Y-66982946D01*
X159223510Y-67110091D01*
X159255374Y-67136241D01*
X162677711Y-70558578D01*
X162595022Y-70641267D01*
X162595020Y-70641270D01*
X162428600Y-70807690D01*
X158325007Y-66704097D01*
X158292596Y-66664604D01*
X158134997Y-66535266D01*
X157955193Y-66439159D01*
X157760095Y-66379976D01*
X157608038Y-66365000D01*
X157608028Y-66365000D01*
X157557200Y-66359994D01*
X157506372Y-66365000D01*
X152831511Y-66365000D01*
X150691800Y-64225290D01*
X150691800Y-64032953D01*
X150823983Y-63871887D01*
X150927838Y-63677587D01*
X150954741Y-63743942D01*
X151105794Y-63973729D01*
X151298774Y-64169632D01*
X151526265Y-64324122D01*
X151779524Y-64431262D01*
X151853730Y-64446220D01*
X152069800Y-64323720D01*
X152069800Y-62457000D01*
X152049800Y-62457000D01*
X152049800Y-62203000D01*
X152069800Y-62203000D01*
X152069800Y-60336280D01*
X152323800Y-60336280D01*
X152323800Y-62203000D01*
X152343800Y-62203000D01*
X152343800Y-62457000D01*
X152323800Y-62457000D01*
X152323800Y-64323720D01*
X152539870Y-64446220D01*
X152614076Y-64431262D01*
X152867335Y-64324122D01*
X153094826Y-64169632D01*
X153287806Y-63973729D01*
X153438859Y-63743942D01*
X153465762Y-63677586D01*
X153569618Y-63871887D01*
X153744193Y-64084608D01*
X153956914Y-64259183D01*
X154199606Y-64388904D01*
X154462941Y-64468786D01*
X154736800Y-64495759D01*
X155010660Y-64468786D01*
X155273995Y-64388904D01*
X155516687Y-64259183D01*
X155729408Y-64084608D01*
X155903983Y-63871887D01*
X156007838Y-63677587D01*
X156034741Y-63743942D01*
X156185794Y-63973729D01*
X156378774Y-64169632D01*
X156606265Y-64324122D01*
X156859524Y-64431262D01*
X156933730Y-64446220D01*
X157149800Y-64323720D01*
X157149800Y-62457000D01*
X157129800Y-62457000D01*
X157129800Y-62203000D01*
X157149800Y-62203000D01*
X157149800Y-60336280D01*
X156933730Y-60213780D01*
X156859524Y-60228738D01*
X156606265Y-60335878D01*
X156378774Y-60490368D01*
X156185794Y-60686271D01*
X156034741Y-60916058D01*
X156007838Y-60982413D01*
X155903983Y-60788113D01*
X155729407Y-60575392D01*
X155516686Y-60400817D01*
X155273994Y-60271096D01*
X155010659Y-60191214D01*
X154736800Y-60164241D01*
X154462940Y-60191214D01*
X154199605Y-60271096D01*
X153956913Y-60400817D01*
X153744192Y-60575393D01*
X153569617Y-60788114D01*
X153465762Y-60982414D01*
X153438859Y-60916058D01*
X153287806Y-60686271D01*
X153094826Y-60490368D01*
X152867335Y-60335878D01*
X152614076Y-60228738D01*
X152539870Y-60213780D01*
X152323800Y-60336280D01*
X152069800Y-60336280D01*
X151853730Y-60213780D01*
X151779524Y-60228738D01*
X151526265Y-60335878D01*
X151298774Y-60490368D01*
X151105794Y-60686271D01*
X150954741Y-60916058D01*
X150927838Y-60982413D01*
X150823983Y-60788113D01*
X150649407Y-60575392D01*
X150436686Y-60400817D01*
X150193994Y-60271096D01*
X149930659Y-60191214D01*
X149656800Y-60164241D01*
X149382940Y-60191214D01*
X149119605Y-60271096D01*
X148876913Y-60400817D01*
X148664192Y-60575393D01*
X148489617Y-60788114D01*
X148359896Y-61030806D01*
X148280014Y-61294141D01*
X148259800Y-61499376D01*
X148259800Y-63160625D01*
X148280014Y-63365860D01*
X148359897Y-63629195D01*
X148489618Y-63871887D01*
X148621800Y-64032952D01*
X148621800Y-64603172D01*
X148616794Y-64654000D01*
X148621800Y-64704828D01*
X148621800Y-64704837D01*
X148636776Y-64856894D01*
X148695959Y-65051992D01*
X148792066Y-65231797D01*
X148921404Y-65389396D01*
X148960897Y-65421807D01*
X151634996Y-68095907D01*
X151667404Y-68135396D01*
X151706892Y-68167803D01*
X151825002Y-68264734D01*
X151921109Y-68316104D01*
X152004807Y-68360841D01*
X152199905Y-68420024D01*
X152351962Y-68435000D01*
X152351971Y-68435000D01*
X152402799Y-68440006D01*
X152453627Y-68435000D01*
X157128490Y-68435000D01*
X161321801Y-72628312D01*
X161321801Y-72820647D01*
X161189618Y-72981713D01*
X161085762Y-73176014D01*
X161058859Y-73109658D01*
X160907806Y-72879871D01*
X160714826Y-72683968D01*
X160487335Y-72529478D01*
X160234076Y-72422338D01*
X160159870Y-72407380D01*
X159943800Y-72529880D01*
X159943800Y-74396600D01*
X159963800Y-74396600D01*
X159963800Y-74650600D01*
X159943800Y-74650600D01*
X159943800Y-74670600D01*
X159689800Y-74670600D01*
X159689800Y-74650600D01*
X159669800Y-74650600D01*
X159669800Y-74396600D01*
X159689800Y-74396600D01*
X159689800Y-72529880D01*
X159473730Y-72407380D01*
X159399524Y-72422338D01*
X159146265Y-72529478D01*
X158918774Y-72683968D01*
X158725794Y-72879871D01*
X158574741Y-73109658D01*
X158547838Y-73176013D01*
X158443983Y-72981713D01*
X158269408Y-72768992D01*
X158056687Y-72594417D01*
X157813995Y-72464696D01*
X157550660Y-72384814D01*
X157276800Y-72357841D01*
X157002941Y-72384814D01*
X156739606Y-72464696D01*
X156496914Y-72594417D01*
X156284193Y-72768992D01*
X156109618Y-72981713D01*
X156005762Y-73176014D01*
X155978859Y-73109658D01*
X155827806Y-72879871D01*
X155634826Y-72683968D01*
X155407335Y-72529478D01*
X155154076Y-72422338D01*
X155079870Y-72407380D01*
X154863800Y-72529880D01*
X154863800Y-74396600D01*
X154883800Y-74396600D01*
X154883800Y-74650600D01*
X154863800Y-74650600D01*
X154863800Y-74670600D01*
X154609800Y-74670600D01*
X154609800Y-74650600D01*
X154589800Y-74650600D01*
X154589800Y-74396600D01*
X154609800Y-74396600D01*
X154609800Y-72529880D01*
X154393730Y-72407380D01*
X154319524Y-72422338D01*
X154066265Y-72529478D01*
X153838774Y-72683968D01*
X153645794Y-72879871D01*
X153494741Y-73109658D01*
X153467838Y-73176013D01*
X153363983Y-72981713D01*
X153189408Y-72768992D01*
X152976687Y-72594417D01*
X152733995Y-72464696D01*
X152470660Y-72384814D01*
X152196800Y-72357841D01*
X151922941Y-72384814D01*
X151659606Y-72464696D01*
X151416914Y-72594417D01*
X151204193Y-72768992D01*
X151029618Y-72981713D01*
X150925762Y-73176014D01*
X150898859Y-73109658D01*
X150747806Y-72879871D01*
X150554826Y-72683968D01*
X150327335Y-72529478D01*
X150074076Y-72422338D01*
X149999870Y-72407380D01*
X149783800Y-72529880D01*
X149783800Y-74396600D01*
X149803800Y-74396600D01*
X149803800Y-74650600D01*
X149783800Y-74650600D01*
X149783800Y-76517320D01*
X149999870Y-76639820D01*
X150074076Y-76624862D01*
X150327335Y-76517722D01*
X150554826Y-76363232D01*
X150747806Y-76167329D01*
X150898859Y-75937542D01*
X150925762Y-75871186D01*
X151029617Y-76065486D01*
X151204192Y-76278207D01*
X151361711Y-76407480D01*
X151357760Y-76447600D01*
X151373882Y-76611288D01*
X151421628Y-76768686D01*
X151499164Y-76913745D01*
X151499165Y-76913746D01*
X151603510Y-77040891D01*
X151635374Y-77067041D01*
X151706134Y-77137801D01*
X151727321Y-77163617D01*
X151675910Y-77168681D01*
X151518512Y-77216427D01*
X151373453Y-77293963D01*
X151246308Y-77398308D01*
X151220153Y-77430178D01*
X151085331Y-77565000D01*
X148748711Y-77565000D01*
X148829978Y-77483733D01*
X148943246Y-77314215D01*
X149021267Y-77125857D01*
X149061041Y-76925898D01*
X149061041Y-76722020D01*
X149023541Y-76533491D01*
X149239524Y-76624862D01*
X149313730Y-76639820D01*
X149529800Y-76517320D01*
X149529800Y-74650600D01*
X149509800Y-74650600D01*
X149509800Y-74396600D01*
X149529800Y-74396600D01*
X149529800Y-72529880D01*
X149313730Y-72407380D01*
X149239524Y-72422338D01*
X148986265Y-72529478D01*
X148758774Y-72683968D01*
X148565794Y-72879871D01*
X148414741Y-73109658D01*
X148311419Y-73364499D01*
X148259800Y-73634600D01*
X148259800Y-74172103D01*
X148190256Y-74125635D01*
X148001898Y-74047614D01*
X147856776Y-74018748D01*
X147234700Y-73396673D01*
X147234700Y-72842002D01*
X147768760Y-72842002D01*
X147893242Y-72829742D01*
X148012940Y-72793432D01*
X148123254Y-72734467D01*
X148219945Y-72655115D01*
X148299297Y-72558424D01*
X148358262Y-72448110D01*
X148394572Y-72328412D01*
X148406832Y-72203930D01*
X148406832Y-71195550D01*
X148394572Y-71071068D01*
X148358262Y-70951370D01*
X148299297Y-70841056D01*
X148219945Y-70744365D01*
X148164643Y-70698980D01*
X148219945Y-70653595D01*
X148299297Y-70556904D01*
X148358262Y-70446590D01*
X148394572Y-70326892D01*
X148406832Y-70202410D01*
X148406832Y-69194030D01*
X148394572Y-69069548D01*
X148358262Y-68949850D01*
X148299297Y-68839536D01*
X148219945Y-68742845D01*
X148167738Y-68700000D01*
X148219945Y-68657155D01*
X148299297Y-68560464D01*
X148358262Y-68450150D01*
X148394572Y-68330452D01*
X148406832Y-68205970D01*
X148406832Y-67197590D01*
X148394572Y-67073108D01*
X148358262Y-66953410D01*
X148299297Y-66843096D01*
X148219945Y-66746405D01*
X148164643Y-66701020D01*
X148219945Y-66655635D01*
X148299297Y-66558944D01*
X148358262Y-66448630D01*
X148394572Y-66328932D01*
X148406832Y-66204450D01*
X148403760Y-65986010D01*
X148245010Y-65827260D01*
X146526700Y-65827260D01*
X146526700Y-65847260D01*
X146272700Y-65847260D01*
X146272700Y-65827260D01*
X144554390Y-65827260D01*
X144395640Y-65986010D01*
X144392568Y-66204450D01*
X144404828Y-66328932D01*
X144441138Y-66448630D01*
X144500103Y-66558944D01*
X144579455Y-66655635D01*
X144634757Y-66701020D01*
X144579455Y-66746405D01*
X144500103Y-66843096D01*
X144487443Y-66866780D01*
X144089238Y-66866780D01*
X144048220Y-66862740D01*
X144007201Y-66866780D01*
X143884531Y-66878862D01*
X143727133Y-66926608D01*
X143582074Y-67004144D01*
X143454929Y-67108489D01*
X143428783Y-67140348D01*
X142438578Y-68130555D01*
X142406709Y-68156709D01*
X142328518Y-68251986D01*
X142302364Y-68283855D01*
X142224828Y-68428914D01*
X142177082Y-68586312D01*
X142160960Y-68750000D01*
X142165000Y-68791019D01*
X142165001Y-72958972D01*
X142160960Y-73000000D01*
X142177082Y-73163688D01*
X142224828Y-73321086D01*
X142292970Y-73448570D01*
X142302365Y-73466146D01*
X142406710Y-73593291D01*
X142438574Y-73619441D01*
X147780559Y-78961427D01*
X147806709Y-78993291D01*
X147933854Y-79097636D01*
X148078913Y-79175172D01*
X148236311Y-79222918D01*
X148358981Y-79235000D01*
X148358983Y-79235000D01*
X148399999Y-79239040D01*
X148441015Y-79235000D01*
X149261644Y-79235000D01*
X149188930Y-79265119D01*
X148835318Y-79501396D01*
X148534596Y-79802118D01*
X148298319Y-80155730D01*
X148135570Y-80548643D01*
X148052600Y-80965757D01*
X148052600Y-81391043D01*
X148135570Y-81808157D01*
X148298319Y-82201070D01*
X148534596Y-82554682D01*
X148835318Y-82855404D01*
X149188930Y-83091681D01*
X149581843Y-83254430D01*
X149983513Y-83334328D01*
X149059900Y-83334328D01*
X148935418Y-83346588D01*
X148815720Y-83382898D01*
X148705406Y-83441863D01*
X148608715Y-83521215D01*
X148529363Y-83617906D01*
X148470398Y-83728220D01*
X148448985Y-83798808D01*
X148338813Y-83832228D01*
X148193754Y-83909764D01*
X148066609Y-84014109D01*
X148040461Y-84045971D01*
X146467378Y-85619055D01*
X146435508Y-85645210D01*
X146337405Y-85764750D01*
X146331163Y-85772356D01*
X146253627Y-85917415D01*
X146205881Y-86074813D01*
X146189759Y-86238501D01*
X146193799Y-86279520D01*
X146193800Y-88878871D01*
X146189759Y-88919899D01*
X146205881Y-89083587D01*
X146253627Y-89240985D01*
X146331163Y-89386044D01*
X146331164Y-89386045D01*
X146435509Y-89513190D01*
X146438933Y-89516000D01*
X146099835Y-89516000D01*
X146049000Y-89510993D01*
X145998164Y-89516000D01*
X145998162Y-89516000D01*
X145846105Y-89530976D01*
X145651007Y-89590159D01*
X145585242Y-89625311D01*
X145471202Y-89686266D01*
X145362071Y-89775828D01*
X145313604Y-89815604D01*
X145281197Y-89855092D01*
X144538632Y-90597657D01*
X144564482Y-90535250D01*
X144635000Y-90180732D01*
X144635000Y-89819268D01*
X144564482Y-89464750D01*
X144426156Y-89130801D01*
X144225338Y-88830256D01*
X143969744Y-88574662D01*
X143669199Y-88373844D01*
X143579426Y-88336659D01*
X144000000Y-88338072D01*
X144124482Y-88325812D01*
X144244180Y-88289502D01*
X144354494Y-88230537D01*
X144451185Y-88151185D01*
X144530537Y-88054494D01*
X144589502Y-87944180D01*
X144625812Y-87824482D01*
X144638072Y-87700000D01*
X144635000Y-86785750D01*
X144476250Y-86627000D01*
X142927000Y-86627000D01*
X142927000Y-86647000D01*
X142673000Y-86647000D01*
X142673000Y-86627000D01*
X141123750Y-86627000D01*
X140965000Y-86785750D01*
X140961928Y-87700000D01*
X140974188Y-87824482D01*
X141010498Y-87944180D01*
X141069463Y-88054494D01*
X141148815Y-88151185D01*
X141245506Y-88230537D01*
X141355820Y-88289502D01*
X141475518Y-88325812D01*
X141600000Y-88338072D01*
X142020574Y-88336659D01*
X141930801Y-88373844D01*
X141630256Y-88574662D01*
X141374662Y-88830256D01*
X141173844Y-89130801D01*
X141035518Y-89464750D01*
X140965000Y-89819268D01*
X140965000Y-90180732D01*
X140996616Y-90339674D01*
X139349091Y-91987199D01*
X139309604Y-92019605D01*
X139289323Y-92044318D01*
X139264604Y-92064604D01*
X139135266Y-92222203D01*
X139039159Y-92402008D01*
X138979976Y-92597106D01*
X138965000Y-92749163D01*
X138965000Y-92749172D01*
X138959994Y-92800000D01*
X138965000Y-92850828D01*
X138965001Y-95269164D01*
X138959994Y-95320002D01*
X138979977Y-95522897D01*
X139010000Y-95621868D01*
X139009999Y-107541361D01*
X139004993Y-107592189D01*
X139009999Y-107643017D01*
X139009999Y-107643026D01*
X139024975Y-107795083D01*
X139084158Y-107990181D01*
X139180265Y-108169986D01*
X139309603Y-108327585D01*
X139349096Y-108359996D01*
X139604284Y-108615185D01*
X139388151Y-108658176D01*
X138975215Y-108829220D01*
X138603583Y-109077536D01*
X138287536Y-109393583D01*
X138039220Y-109765215D01*
X137868176Y-110178151D01*
X137780979Y-110616521D01*
X137090001Y-110616521D01*
X137089979Y-85300000D01*
X140961928Y-85300000D01*
X140965000Y-86214250D01*
X141123750Y-86373000D01*
X142673000Y-86373000D01*
X142673000Y-84823750D01*
X142927000Y-84823750D01*
X142927000Y-86373000D01*
X144476250Y-86373000D01*
X144635000Y-86214250D01*
X144638072Y-85300000D01*
X144625812Y-85175518D01*
X144589502Y-85055820D01*
X144530537Y-84945506D01*
X144451185Y-84848815D01*
X144354494Y-84769463D01*
X144244180Y-84710498D01*
X144124482Y-84674188D01*
X144000000Y-84661928D01*
X143085750Y-84665000D01*
X142927000Y-84823750D01*
X142673000Y-84823750D01*
X142514250Y-84665000D01*
X141600000Y-84661928D01*
X141475518Y-84674188D01*
X141355820Y-84710498D01*
X141245506Y-84769463D01*
X141148815Y-84848815D01*
X141069463Y-84945506D01*
X141010498Y-85055820D01*
X140974188Y-85175518D01*
X140961928Y-85300000D01*
X137089979Y-85300000D01*
X137089973Y-78616521D01*
X137780979Y-78616521D01*
X137780979Y-79063479D01*
X137868176Y-79501849D01*
X138039220Y-79914785D01*
X138287536Y-80286417D01*
X138603583Y-80602464D01*
X138975215Y-80850780D01*
X139388151Y-81021824D01*
X139826521Y-81109021D01*
X140273479Y-81109021D01*
X140711849Y-81021824D01*
X141124785Y-80850780D01*
X141496417Y-80602464D01*
X141812464Y-80286417D01*
X142060780Y-79914785D01*
X142231824Y-79501849D01*
X142319021Y-79063479D01*
X142319021Y-78616521D01*
X142231824Y-78178151D01*
X142060780Y-77765215D01*
X141812464Y-77393583D01*
X141496417Y-77077536D01*
X141124785Y-76829220D01*
X140711849Y-76658176D01*
X140273479Y-76570979D01*
X139826521Y-76570979D01*
X139388151Y-76658176D01*
X138975215Y-76829220D01*
X138603583Y-77077536D01*
X138287536Y-77393583D01*
X138039220Y-77765215D01*
X137868176Y-78178151D01*
X137780979Y-78616521D01*
X137089973Y-78616521D01*
X137089970Y-75400868D01*
X137157570Y-75437002D01*
X137277268Y-75473312D01*
X137401750Y-75485572D01*
X138615870Y-75482500D01*
X138774620Y-75323750D01*
X138774620Y-74224500D01*
X139028620Y-74224500D01*
X139028620Y-75323750D01*
X139187370Y-75482500D01*
X140401490Y-75485572D01*
X140525972Y-75473312D01*
X140645670Y-75437002D01*
X140755984Y-75378037D01*
X140852675Y-75298685D01*
X140932027Y-75201994D01*
X140990992Y-75091680D01*
X141027302Y-74971982D01*
X141039562Y-74847500D01*
X141036490Y-74383250D01*
X140877740Y-74224500D01*
X139028620Y-74224500D01*
X138774620Y-74224500D01*
X138754620Y-74224500D01*
X138754620Y-73970500D01*
X138774620Y-73970500D01*
X138774620Y-72871250D01*
X139028620Y-72871250D01*
X139028620Y-73970500D01*
X140877740Y-73970500D01*
X141036490Y-73811750D01*
X141039562Y-73347500D01*
X141027302Y-73223018D01*
X140990992Y-73103320D01*
X140932027Y-72993006D01*
X140852675Y-72896315D01*
X140755984Y-72816963D01*
X140645670Y-72757998D01*
X140525972Y-72721688D01*
X140401490Y-72709428D01*
X139187370Y-72712500D01*
X139028620Y-72871250D01*
X138774620Y-72871250D01*
X138615870Y-72712500D01*
X137401750Y-72709428D01*
X137277268Y-72721688D01*
X137157570Y-72757998D01*
X137089968Y-72794133D01*
X137089962Y-65196070D01*
X144392568Y-65196070D01*
X144395640Y-65414510D01*
X144554390Y-65573260D01*
X146272700Y-65573260D01*
X146272700Y-64719820D01*
X146526700Y-64719820D01*
X146526700Y-65573260D01*
X148245010Y-65573260D01*
X148403760Y-65414510D01*
X148406832Y-65196070D01*
X148394572Y-65071588D01*
X148358262Y-64951890D01*
X148299297Y-64841576D01*
X148219945Y-64744885D01*
X148123254Y-64665533D01*
X148012940Y-64606568D01*
X147893242Y-64570258D01*
X147768760Y-64557998D01*
X146685450Y-64561070D01*
X146526700Y-64719820D01*
X146272700Y-64719820D01*
X146113950Y-64561070D01*
X145030640Y-64557998D01*
X144906158Y-64570258D01*
X144786460Y-64606568D01*
X144676146Y-64665533D01*
X144579455Y-64744885D01*
X144500103Y-64841576D01*
X144441138Y-64951890D01*
X144404828Y-65071588D01*
X144392568Y-65196070D01*
X137089962Y-65196070D01*
X137089961Y-64605863D01*
X137157570Y-64642002D01*
X137277268Y-64678312D01*
X137401750Y-64690572D01*
X138615870Y-64687500D01*
X138774620Y-64528750D01*
X138774620Y-63429500D01*
X139028620Y-63429500D01*
X139028620Y-64528750D01*
X139187370Y-64687500D01*
X140401490Y-64690572D01*
X140525972Y-64678312D01*
X140645670Y-64642002D01*
X140755984Y-64583037D01*
X140852675Y-64503685D01*
X140932027Y-64406994D01*
X140990992Y-64296680D01*
X141027302Y-64176982D01*
X141039562Y-64052500D01*
X141036490Y-63588250D01*
X140877740Y-63429500D01*
X139028620Y-63429500D01*
X138774620Y-63429500D01*
X138754620Y-63429500D01*
X138754620Y-63175500D01*
X138774620Y-63175500D01*
X138774620Y-62076250D01*
X139028620Y-62076250D01*
X139028620Y-63175500D01*
X140877740Y-63175500D01*
X141036490Y-63016750D01*
X141039562Y-62552500D01*
X141027302Y-62428018D01*
X140990992Y-62308320D01*
X140932027Y-62198006D01*
X140852675Y-62101315D01*
X140755984Y-62021963D01*
X140645670Y-61962998D01*
X140525972Y-61926688D01*
X140401490Y-61914428D01*
X139187370Y-61917500D01*
X139028620Y-62076250D01*
X138774620Y-62076250D01*
X138615870Y-61917500D01*
X137401750Y-61914428D01*
X137277268Y-61926688D01*
X137157570Y-61962998D01*
X137089958Y-61999138D01*
X137089955Y-58194647D01*
X137115315Y-57896521D01*
X137780979Y-57896521D01*
X137780979Y-58343479D01*
X137868176Y-58781849D01*
X138039220Y-59194785D01*
X138287536Y-59566417D01*
X138603583Y-59882464D01*
X138975215Y-60130780D01*
X139388151Y-60301824D01*
X139826521Y-60389021D01*
X140273479Y-60389021D01*
X140711849Y-60301824D01*
X141124785Y-60130780D01*
X141496417Y-59882464D01*
X141812464Y-59566417D01*
X142060780Y-59194785D01*
X142231824Y-58781849D01*
X142319021Y-58343479D01*
X142319021Y-57896521D01*
X169780979Y-57896521D01*
X169780979Y-58343479D01*
X169868176Y-58781849D01*
X170039220Y-59194785D01*
X170287536Y-59566417D01*
X170603583Y-59882464D01*
X170975215Y-60130780D01*
X171388151Y-60301824D01*
X171826521Y-60389021D01*
X172273479Y-60389021D01*
X172711849Y-60301824D01*
X173124785Y-60130780D01*
X173496417Y-59882464D01*
X173812464Y-59566417D01*
X174060780Y-59194785D01*
X174231824Y-58781849D01*
X174319021Y-58343479D01*
X174319021Y-57896521D01*
X174231824Y-57458151D01*
X174060780Y-57045215D01*
X173812464Y-56673583D01*
X173496417Y-56357536D01*
X173124785Y-56109220D01*
X172711849Y-55938176D01*
X172273479Y-55850979D01*
X171826521Y-55850979D01*
X171388151Y-55938176D01*
X170975215Y-56109220D01*
X170603583Y-56357536D01*
X170287536Y-56673583D01*
X170039220Y-57045215D01*
X169868176Y-57458151D01*
X169780979Y-57896521D01*
X142319021Y-57896521D01*
X142231824Y-57458151D01*
X142060780Y-57045215D01*
X141812464Y-56673583D01*
X141496417Y-56357536D01*
X141124785Y-56109220D01*
X140711849Y-55938176D01*
X140273479Y-55850979D01*
X139826521Y-55850979D01*
X139388151Y-55938176D01*
X138975215Y-56109220D01*
X138603583Y-56357536D01*
X138287536Y-56673583D01*
X138039220Y-57045215D01*
X137868176Y-57458151D01*
X137780979Y-57896521D01*
X137115315Y-57896521D01*
X137141985Y-57583009D01*
X137301668Y-57028404D01*
X137566036Y-56515372D01*
X137925019Y-56063459D01*
X138364940Y-55689880D01*
X138869040Y-55408867D01*
X139418130Y-55231116D01*
X140020093Y-55160001D01*
X171975354Y-55159955D01*
X172586991Y-55211985D01*
G37*
X172586991Y-55211985D02*
X173141596Y-55371668D01*
X173654628Y-55636036D01*
X174106541Y-55995019D01*
X174480120Y-56434940D01*
X174761133Y-56939040D01*
X174938884Y-57488130D01*
X175009999Y-58090092D01*
X175010002Y-61914651D01*
X173884130Y-61917500D01*
X173725380Y-62076250D01*
X173725380Y-63175500D01*
X173745380Y-63175500D01*
X173745380Y-63429500D01*
X173725380Y-63429500D01*
X173725380Y-64528750D01*
X173884130Y-64687500D01*
X175010005Y-64690349D01*
X175010012Y-72709651D01*
X173884130Y-72712500D01*
X173725380Y-72871250D01*
X173725380Y-73970500D01*
X173745380Y-73970500D01*
X173745380Y-74224500D01*
X173725380Y-74224500D01*
X173725380Y-75323750D01*
X173884130Y-75482500D01*
X175010014Y-75485349D01*
X175010045Y-110765353D01*
X174958015Y-111376988D01*
X174798331Y-111931596D01*
X174533962Y-112444631D01*
X174174982Y-112896541D01*
X173735061Y-113270119D01*
X173230960Y-113551133D01*
X172681870Y-113728884D01*
X172079908Y-113799999D01*
X140124646Y-113800045D01*
X139513012Y-113748015D01*
X138958404Y-113588331D01*
X138445369Y-113323962D01*
X137993459Y-112964982D01*
X137619881Y-112525061D01*
X137338867Y-112020960D01*
X137161116Y-111471870D01*
X137090001Y-110869908D01*
X137090001Y-110616521D01*
X137780979Y-110616521D01*
X137780979Y-111063479D01*
X137868176Y-111501849D01*
X138039220Y-111914785D01*
X138287536Y-112286417D01*
X138603583Y-112602464D01*
X138975215Y-112850780D01*
X139388151Y-113021824D01*
X139826521Y-113109021D01*
X140273479Y-113109021D01*
X140711849Y-113021824D01*
X141124785Y-112850780D01*
X141496417Y-112602464D01*
X141812464Y-112286417D01*
X142060780Y-111914785D01*
X142231824Y-111501849D01*
X142319021Y-111063479D01*
X142319021Y-110616521D01*
X142231824Y-110178151D01*
X142060780Y-109765215D01*
X141960322Y-109614869D01*
X170139678Y-109614869D01*
X170039220Y-109765215D01*
X169868176Y-110178151D01*
X169780979Y-110616521D01*
X169780979Y-111063479D01*
X169868176Y-111501849D01*
X170039220Y-111914785D01*
X170287536Y-112286417D01*
X170603583Y-112602464D01*
X170975215Y-112850780D01*
X171388151Y-113021824D01*
X171826521Y-113109021D01*
X172273479Y-113109021D01*
X172711849Y-113021824D01*
X173124785Y-112850780D01*
X173496417Y-112602464D01*
X173812464Y-112286417D01*
X174060780Y-111914785D01*
X174231824Y-111501849D01*
X174319021Y-111063479D01*
X174319021Y-110616521D01*
X174231824Y-110178151D01*
X174060780Y-109765215D01*
X173812464Y-109393583D01*
X173496417Y-109077536D01*
X173124785Y-108829220D01*
X172979576Y-108769072D01*
X174345918Y-107402731D01*
X174385406Y-107370324D01*
X174417813Y-107330836D01*
X174514744Y-107212726D01*
X174582346Y-107086250D01*
X174610851Y-107032921D01*
X174670034Y-106837823D01*
X174685010Y-106685766D01*
X174685010Y-106685764D01*
X174690017Y-106634928D01*
X174685010Y-106584093D01*
X174685010Y-90100837D01*
X174690016Y-90050009D01*
X174685010Y-89999181D01*
X174685010Y-89999172D01*
X174670034Y-89847115D01*
X174610851Y-89652017D01*
X174546480Y-89531587D01*
X174514744Y-89472212D01*
X174417813Y-89354102D01*
X174385406Y-89314614D01*
X174345918Y-89282207D01*
X171703384Y-86639674D01*
X171735000Y-86480732D01*
X171735000Y-86119268D01*
X171664482Y-85764750D01*
X171526156Y-85430801D01*
X171325338Y-85130256D01*
X171069744Y-84874662D01*
X170769199Y-84673844D01*
X170435250Y-84535518D01*
X170080732Y-84465000D01*
X169719268Y-84465000D01*
X169364750Y-84535518D01*
X169030801Y-84673844D01*
X168730256Y-84874662D01*
X168474662Y-85130256D01*
X168273844Y-85430801D01*
X168135518Y-85764750D01*
X168065000Y-86119268D01*
X168065000Y-86480732D01*
X168135518Y-86835250D01*
X168273844Y-87169199D01*
X168474662Y-87469744D01*
X168730256Y-87725338D01*
X169030801Y-87926156D01*
X169120574Y-87963341D01*
X168700000Y-87961928D01*
X168575518Y-87974188D01*
X168455820Y-88010498D01*
X168345506Y-88069463D01*
X168248815Y-88148815D01*
X168169463Y-88245506D01*
X168110498Y-88355820D01*
X168074188Y-88475518D01*
X168061928Y-88600000D01*
X168065000Y-89514250D01*
X168223750Y-89673000D01*
X169773000Y-89673000D01*
X169773000Y-89653000D01*
X170027000Y-89653000D01*
X170027000Y-89673000D01*
X171576250Y-89673000D01*
X171692770Y-89556480D01*
X172615010Y-90478721D01*
X172615011Y-106206216D01*
X171276359Y-107544869D01*
X161483222Y-107544869D01*
X161597491Y-107451091D01*
X161623646Y-107419221D01*
X163223032Y-105819837D01*
X163254891Y-105793691D01*
X163359236Y-105666546D01*
X163436772Y-105521487D01*
X163462886Y-105435400D01*
X163492225Y-105435400D01*
X163697460Y-105415186D01*
X163960795Y-105335304D01*
X164203487Y-105205583D01*
X164416208Y-105031008D01*
X164437138Y-105005505D01*
X165314158Y-105882526D01*
X165340309Y-105914391D01*
X165467454Y-106018736D01*
X165612513Y-106096272D01*
X165769911Y-106144018D01*
X165892581Y-106156100D01*
X165892591Y-106156100D01*
X165933599Y-106160139D01*
X165974607Y-106156100D01*
X167971527Y-106156100D01*
X167974302Y-106161292D01*
X168028758Y-106242791D01*
X168108110Y-106339482D01*
X168177418Y-106408790D01*
X168274109Y-106488142D01*
X168355608Y-106542598D01*
X168465925Y-106601564D01*
X168556481Y-106639073D01*
X168676177Y-106675382D01*
X168772310Y-106694504D01*
X168896791Y-106706764D01*
X168921350Y-106706764D01*
X168945800Y-106709172D01*
X169445800Y-106709172D01*
X169570282Y-106696912D01*
X169595800Y-106689171D01*
X169621318Y-106696912D01*
X169745800Y-106709172D01*
X170245800Y-106709172D01*
X170270250Y-106706764D01*
X170294809Y-106706764D01*
X170419290Y-106694504D01*
X170515423Y-106675382D01*
X170635119Y-106639073D01*
X170725675Y-106601564D01*
X170835992Y-106542598D01*
X170917491Y-106488142D01*
X171014182Y-106408790D01*
X171083490Y-106339482D01*
X171162842Y-106242791D01*
X171217298Y-106161292D01*
X171276264Y-106050975D01*
X171313773Y-105960419D01*
X171350082Y-105840723D01*
X171369204Y-105744590D01*
X171381464Y-105620109D01*
X171381464Y-105595550D01*
X171383872Y-105571100D01*
X171383872Y-105071100D01*
X171381464Y-105046650D01*
X171381464Y-105022091D01*
X171369204Y-104897610D01*
X171350082Y-104801477D01*
X171313773Y-104681781D01*
X171276264Y-104591225D01*
X171217298Y-104480908D01*
X171162842Y-104399409D01*
X171083490Y-104302718D01*
X171070001Y-104289229D01*
X171058311Y-103176912D01*
X171137442Y-103080491D01*
X171191898Y-102998992D01*
X171250864Y-102888675D01*
X171288373Y-102798119D01*
X171324682Y-102678423D01*
X171343804Y-102582290D01*
X171356064Y-102457809D01*
X171356064Y-102433250D01*
X171358472Y-102408800D01*
X171358472Y-101908800D01*
X171356064Y-101884350D01*
X171356064Y-101859791D01*
X171343804Y-101735310D01*
X171324682Y-101639177D01*
X171288373Y-101519481D01*
X171250864Y-101428925D01*
X171191898Y-101318608D01*
X171137442Y-101237109D01*
X171058090Y-101140418D01*
X171036684Y-101119012D01*
X171025556Y-100060116D01*
X171058090Y-100027582D01*
X171137442Y-99930891D01*
X171191898Y-99849392D01*
X171250864Y-99739075D01*
X171288373Y-99648519D01*
X171324682Y-99528823D01*
X171343804Y-99432690D01*
X171356064Y-99308209D01*
X171356064Y-99283650D01*
X171358472Y-99259200D01*
X171358472Y-98759200D01*
X171356064Y-98734750D01*
X171356064Y-98710191D01*
X171343804Y-98585710D01*
X171324682Y-98489577D01*
X171288373Y-98369881D01*
X171250864Y-98279325D01*
X171191898Y-98169008D01*
X171137442Y-98087509D01*
X171058090Y-97990818D01*
X170988782Y-97921510D01*
X170964975Y-97901972D01*
X170955172Y-97869657D01*
X170877636Y-97724598D01*
X170799439Y-97629314D01*
X170799437Y-97629312D01*
X170773291Y-97597453D01*
X170741432Y-97571307D01*
X166398202Y-93228079D01*
X166372047Y-93196209D01*
X166244902Y-93091864D01*
X166099843Y-93014328D01*
X165942445Y-92966582D01*
X165819775Y-92954500D01*
X165819774Y-92954500D01*
X165778756Y-92950460D01*
X165737738Y-92954500D01*
X164472595Y-92954500D01*
X164416208Y-92885792D01*
X164203487Y-92711217D01*
X164011129Y-92608400D01*
X164203487Y-92505583D01*
X164416208Y-92331008D01*
X164590783Y-92118287D01*
X164720504Y-91875595D01*
X164800386Y-91612260D01*
X164827359Y-91338400D01*
X164800386Y-91064540D01*
X164780808Y-91000000D01*
X168061928Y-91000000D01*
X168074188Y-91124482D01*
X168110498Y-91244180D01*
X168169463Y-91354494D01*
X168248815Y-91451185D01*
X168345506Y-91530537D01*
X168455820Y-91589502D01*
X168575518Y-91625812D01*
X168700000Y-91638072D01*
X169614250Y-91635000D01*
X169773000Y-91476250D01*
X169773000Y-89927000D01*
X170027000Y-89927000D01*
X170027000Y-91476250D01*
X170185750Y-91635000D01*
X171100000Y-91638072D01*
X171224482Y-91625812D01*
X171344180Y-91589502D01*
X171454494Y-91530537D01*
X171551185Y-91451185D01*
X171630537Y-91354494D01*
X171689502Y-91244180D01*
X171725812Y-91124482D01*
X171738072Y-91000000D01*
X171735000Y-90085750D01*
X171576250Y-89927000D01*
X170027000Y-89927000D01*
X169773000Y-89927000D01*
X168223750Y-89927000D01*
X168065000Y-90085750D01*
X168061928Y-91000000D01*
X164780808Y-91000000D01*
X164720504Y-90801205D01*
X164590783Y-90558513D01*
X164416208Y-90345792D01*
X164203487Y-90171217D01*
X164011129Y-90068400D01*
X164203487Y-89965583D01*
X164416208Y-89791008D01*
X164590783Y-89578287D01*
X164720504Y-89335595D01*
X164800386Y-89072260D01*
X164827359Y-88798400D01*
X164800386Y-88524540D01*
X164720504Y-88261205D01*
X164590783Y-88018513D01*
X164416208Y-87805792D01*
X164203487Y-87631217D01*
X164011129Y-87528400D01*
X164203487Y-87425583D01*
X164416208Y-87251008D01*
X164590783Y-87038287D01*
X164720504Y-86795595D01*
X164800386Y-86532260D01*
X164827359Y-86258400D01*
X164800386Y-85984540D01*
X164720504Y-85721205D01*
X164590783Y-85478513D01*
X164416208Y-85265792D01*
X164203487Y-85091217D01*
X164011129Y-84988400D01*
X164203487Y-84885583D01*
X164416208Y-84711008D01*
X164590783Y-84498287D01*
X164720504Y-84255595D01*
X164800386Y-83992260D01*
X164827359Y-83718400D01*
X164800386Y-83444540D01*
X164720504Y-83181205D01*
X164590783Y-82938513D01*
X164416208Y-82725792D01*
X164203487Y-82551217D01*
X164011129Y-82448400D01*
X164203487Y-82345583D01*
X164416208Y-82171008D01*
X164590783Y-81958287D01*
X164720504Y-81715595D01*
X164800386Y-81452260D01*
X164827359Y-81178400D01*
X164800386Y-80904540D01*
X164720504Y-80641205D01*
X164619479Y-80452199D01*
X164666180Y-80452199D01*
X164707199Y-80456239D01*
X164748217Y-80452199D01*
X164748218Y-80452199D01*
X164870888Y-80440117D01*
X165028286Y-80392371D01*
X165042057Y-80385010D01*
X165447476Y-80385010D01*
X165488494Y-80389050D01*
X165529512Y-80385010D01*
X165529513Y-80385010D01*
X165652183Y-80372928D01*
X165809581Y-80325182D01*
X165954640Y-80247646D01*
X166081785Y-80143301D01*
X166107940Y-80111431D01*
X167602850Y-78616521D01*
X169780979Y-78616521D01*
X169780979Y-79063479D01*
X169868176Y-79501849D01*
X170039220Y-79914785D01*
X170287536Y-80286417D01*
X170603583Y-80602464D01*
X170975215Y-80850780D01*
X171388151Y-81021824D01*
X171826521Y-81109021D01*
X172273479Y-81109021D01*
X172711849Y-81021824D01*
X173124785Y-80850780D01*
X173496417Y-80602464D01*
X173812464Y-80286417D01*
X174060780Y-79914785D01*
X174231824Y-79501849D01*
X174319021Y-79063479D01*
X174319021Y-78616521D01*
X174231824Y-78178151D01*
X174060780Y-77765215D01*
X173812464Y-77393583D01*
X173496417Y-77077536D01*
X173124785Y-76829220D01*
X172711849Y-76658176D01*
X172273479Y-76570979D01*
X171826521Y-76570979D01*
X171388151Y-76658176D01*
X170975215Y-76829220D01*
X170603583Y-77077536D01*
X170287536Y-77393583D01*
X170039220Y-77765215D01*
X169868176Y-78178151D01*
X169780979Y-78616521D01*
X167602850Y-78616521D01*
X170661458Y-75557915D01*
X170693312Y-75531773D01*
X170719452Y-75499921D01*
X170719459Y-75499914D01*
X170797656Y-75404630D01*
X170875192Y-75259571D01*
X170875367Y-75258996D01*
X170891282Y-75206528D01*
X170922938Y-75102172D01*
X170939060Y-74938484D01*
X170935020Y-74897463D01*
X170935020Y-74847500D01*
X171460438Y-74847500D01*
X171472698Y-74971982D01*
X171509008Y-75091680D01*
X171567973Y-75201994D01*
X171647325Y-75298685D01*
X171744016Y-75378037D01*
X171854330Y-75437002D01*
X171974028Y-75473312D01*
X172098510Y-75485572D01*
X173312630Y-75482500D01*
X173471380Y-75323750D01*
X173471380Y-74224500D01*
X171622260Y-74224500D01*
X171463510Y-74383250D01*
X171460438Y-74847500D01*
X170935020Y-74847500D01*
X170935015Y-73347500D01*
X171460438Y-73347500D01*
X171463510Y-73811750D01*
X171622260Y-73970500D01*
X173471380Y-73970500D01*
X173471380Y-72871250D01*
X173312630Y-72712500D01*
X172098510Y-72709428D01*
X171974028Y-72721688D01*
X171854330Y-72757998D01*
X171744016Y-72816963D01*
X171647325Y-72896315D01*
X171567973Y-72993006D01*
X171509008Y-73103320D01*
X171472698Y-73223018D01*
X171460438Y-73347500D01*
X170935015Y-73347500D01*
X170934999Y-68591026D01*
X170935000Y-68591019D01*
X170935000Y-67971907D01*
X170939039Y-67930899D01*
X170935000Y-67889891D01*
X170935000Y-67889881D01*
X170922918Y-67767211D01*
X170875172Y-67609813D01*
X170797636Y-67464754D01*
X170693291Y-67337609D01*
X170661428Y-67311460D01*
X168488806Y-65138839D01*
X168462651Y-65106969D01*
X168335506Y-65002624D01*
X168190447Y-64925088D01*
X168033049Y-64877342D01*
X168018235Y-64875883D01*
X167999897Y-64841576D01*
X167920545Y-64744885D01*
X167823854Y-64665533D01*
X167713540Y-64606568D01*
X167593842Y-64570258D01*
X167469360Y-64557998D01*
X164731240Y-64557998D01*
X164606758Y-64570258D01*
X164487060Y-64606568D01*
X164376746Y-64665533D01*
X164280055Y-64744885D01*
X164200703Y-64841576D01*
X164141738Y-64951890D01*
X164105428Y-65071588D01*
X164093168Y-65196070D01*
X164093168Y-66204450D01*
X164105428Y-66328932D01*
X164141738Y-66448630D01*
X164200703Y-66558944D01*
X164280055Y-66655635D01*
X164335357Y-66701020D01*
X164280055Y-66746405D01*
X164200703Y-66843096D01*
X164141738Y-66953410D01*
X164105428Y-67073108D01*
X164093168Y-67197590D01*
X164093168Y-68205970D01*
X164105428Y-68330452D01*
X164141738Y-68450150D01*
X164200703Y-68560464D01*
X164280055Y-68657155D01*
X164332262Y-68700000D01*
X164280055Y-68742845D01*
X164200703Y-68839536D01*
X164141738Y-68949850D01*
X164105428Y-69069548D01*
X164093168Y-69194030D01*
X164093168Y-69612300D01*
X160651800Y-66170933D01*
X160651800Y-64213953D01*
X160809408Y-64084608D01*
X160983983Y-63871887D01*
X161087838Y-63677587D01*
X161114741Y-63743942D01*
X161265794Y-63973729D01*
X161458774Y-64169632D01*
X161686265Y-64324122D01*
X161939524Y-64431262D01*
X162013730Y-64446220D01*
X162229800Y-64323720D01*
X162229800Y-62457000D01*
X162483800Y-62457000D01*
X162483800Y-64323720D01*
X162699870Y-64446220D01*
X162774076Y-64431262D01*
X163027335Y-64324122D01*
X163254826Y-64169632D01*
X163370210Y-64052500D01*
X171460438Y-64052500D01*
X171472698Y-64176982D01*
X171509008Y-64296680D01*
X171567973Y-64406994D01*
X171647325Y-64503685D01*
X171744016Y-64583037D01*
X171854330Y-64642002D01*
X171974028Y-64678312D01*
X172098510Y-64690572D01*
X173312630Y-64687500D01*
X173471380Y-64528750D01*
X173471380Y-63429500D01*
X171622260Y-63429500D01*
X171463510Y-63588250D01*
X171460438Y-64052500D01*
X163370210Y-64052500D01*
X163447806Y-63973729D01*
X163598859Y-63743942D01*
X163702181Y-63489101D01*
X163753800Y-63219000D01*
X163753800Y-62552500D01*
X171460438Y-62552500D01*
X171463510Y-63016750D01*
X171622260Y-63175500D01*
X173471380Y-63175500D01*
X173471380Y-62076250D01*
X173312630Y-61917500D01*
X172098510Y-61914428D01*
X171974028Y-61926688D01*
X171854330Y-61962998D01*
X171744016Y-62021963D01*
X171647325Y-62101315D01*
X171567973Y-62198006D01*
X171509008Y-62308320D01*
X171472698Y-62428018D01*
X171460438Y-62552500D01*
X163753800Y-62552500D01*
X163753800Y-62457000D01*
X162483800Y-62457000D01*
X162229800Y-62457000D01*
X162209800Y-62457000D01*
X162209800Y-62203000D01*
X162229800Y-62203000D01*
X162229800Y-60336280D01*
X162483800Y-60336280D01*
X162483800Y-62203000D01*
X163753800Y-62203000D01*
X163753800Y-61441000D01*
X163702181Y-61170899D01*
X163598859Y-60916058D01*
X163447806Y-60686271D01*
X163254826Y-60490368D01*
X163027335Y-60335878D01*
X162774076Y-60228738D01*
X162699870Y-60213780D01*
X162483800Y-60336280D01*
X162229800Y-60336280D01*
X162013730Y-60213780D01*
X161939524Y-60228738D01*
X161686265Y-60335878D01*
X161458774Y-60490368D01*
X161265794Y-60686271D01*
X161114741Y-60916058D01*
X161087838Y-60982413D01*
X160983983Y-60788113D01*
X160809407Y-60575392D01*
X160596686Y-60400817D01*
X160353994Y-60271096D01*
X160090659Y-60191214D01*
X159816800Y-60164241D01*
X159542940Y-60191214D01*
X159279605Y-60271096D01*
X159036913Y-60400817D01*
X158824192Y-60575393D01*
X158649617Y-60788114D01*
X158545762Y-60982414D01*
X158518859Y-60916058D01*
X158367806Y-60686271D01*
X158174826Y-60490368D01*
X157947335Y-60335878D01*
X157694076Y-60228738D01*
X157619870Y-60213780D01*
X157403800Y-60336280D01*
X157403800Y-62203000D01*
X157423800Y-62203000D01*
X157423800Y-62457000D01*
X157403800Y-62457000D01*
X157403800Y-64323720D01*
X157619870Y-64446220D01*
X157694076Y-64431262D01*
X157947335Y-64324122D01*
X158174826Y-64169632D01*
X158367806Y-63973729D01*
X158518859Y-63743942D01*
X158545762Y-63677586D01*
X158649618Y-63871887D01*
X158824193Y-64084608D01*
X158981800Y-64213953D01*
X158981801Y-66475772D01*
X158977760Y-66516800D01*
X158993882Y-66680488D01*
X159041628Y-66837886D01*
X159119164Y-66982945D01*
X159119165Y-66982946D01*
X159223510Y-67110091D01*
X159255374Y-67136241D01*
X162677711Y-70558578D01*
X162595022Y-70641267D01*
X162595020Y-70641270D01*
X162428600Y-70807690D01*
X158325007Y-66704097D01*
X158292596Y-66664604D01*
X158134997Y-66535266D01*
X157955193Y-66439159D01*
X157760095Y-66379976D01*
X157608038Y-66365000D01*
X157608028Y-66365000D01*
X157557200Y-66359994D01*
X157506372Y-66365000D01*
X152831511Y-66365000D01*
X150691800Y-64225290D01*
X150691800Y-64032953D01*
X150823983Y-63871887D01*
X150927838Y-63677587D01*
X150954741Y-63743942D01*
X151105794Y-63973729D01*
X151298774Y-64169632D01*
X151526265Y-64324122D01*
X151779524Y-64431262D01*
X151853730Y-64446220D01*
X152069800Y-64323720D01*
X152069800Y-62457000D01*
X152049800Y-62457000D01*
X152049800Y-62203000D01*
X152069800Y-62203000D01*
X152069800Y-60336280D01*
X152323800Y-60336280D01*
X152323800Y-62203000D01*
X152343800Y-62203000D01*
X152343800Y-62457000D01*
X152323800Y-62457000D01*
X152323800Y-64323720D01*
X152539870Y-64446220D01*
X152614076Y-64431262D01*
X152867335Y-64324122D01*
X153094826Y-64169632D01*
X153287806Y-63973729D01*
X153438859Y-63743942D01*
X153465762Y-63677586D01*
X153569618Y-63871887D01*
X153744193Y-64084608D01*
X153956914Y-64259183D01*
X154199606Y-64388904D01*
X154462941Y-64468786D01*
X154736800Y-64495759D01*
X155010660Y-64468786D01*
X155273995Y-64388904D01*
X155516687Y-64259183D01*
X155729408Y-64084608D01*
X155903983Y-63871887D01*
X156007838Y-63677587D01*
X156034741Y-63743942D01*
X156185794Y-63973729D01*
X156378774Y-64169632D01*
X156606265Y-64324122D01*
X156859524Y-64431262D01*
X156933730Y-64446220D01*
X157149800Y-64323720D01*
X157149800Y-62457000D01*
X157129800Y-62457000D01*
X157129800Y-62203000D01*
X157149800Y-62203000D01*
X157149800Y-60336280D01*
X156933730Y-60213780D01*
X156859524Y-60228738D01*
X156606265Y-60335878D01*
X156378774Y-60490368D01*
X156185794Y-60686271D01*
X156034741Y-60916058D01*
X156007838Y-60982413D01*
X155903983Y-60788113D01*
X155729407Y-60575392D01*
X155516686Y-60400817D01*
X155273994Y-60271096D01*
X155010659Y-60191214D01*
X154736800Y-60164241D01*
X154462940Y-60191214D01*
X154199605Y-60271096D01*
X153956913Y-60400817D01*
X153744192Y-60575393D01*
X153569617Y-60788114D01*
X153465762Y-60982414D01*
X153438859Y-60916058D01*
X153287806Y-60686271D01*
X153094826Y-60490368D01*
X152867335Y-60335878D01*
X152614076Y-60228738D01*
X152539870Y-60213780D01*
X152323800Y-60336280D01*
X152069800Y-60336280D01*
X151853730Y-60213780D01*
X151779524Y-60228738D01*
X151526265Y-60335878D01*
X151298774Y-60490368D01*
X151105794Y-60686271D01*
X150954741Y-60916058D01*
X150927838Y-60982413D01*
X150823983Y-60788113D01*
X150649407Y-60575392D01*
X150436686Y-60400817D01*
X150193994Y-60271096D01*
X149930659Y-60191214D01*
X149656800Y-60164241D01*
X149382940Y-60191214D01*
X149119605Y-60271096D01*
X148876913Y-60400817D01*
X148664192Y-60575393D01*
X148489617Y-60788114D01*
X148359896Y-61030806D01*
X148280014Y-61294141D01*
X148259800Y-61499376D01*
X148259800Y-63160625D01*
X148280014Y-63365860D01*
X148359897Y-63629195D01*
X148489618Y-63871887D01*
X148621800Y-64032952D01*
X148621800Y-64603172D01*
X148616794Y-64654000D01*
X148621800Y-64704828D01*
X148621800Y-64704837D01*
X148636776Y-64856894D01*
X148695959Y-65051992D01*
X148792066Y-65231797D01*
X148921404Y-65389396D01*
X148960897Y-65421807D01*
X151634996Y-68095907D01*
X151667404Y-68135396D01*
X151706892Y-68167803D01*
X151825002Y-68264734D01*
X151921109Y-68316104D01*
X152004807Y-68360841D01*
X152199905Y-68420024D01*
X152351962Y-68435000D01*
X152351971Y-68435000D01*
X152402799Y-68440006D01*
X152453627Y-68435000D01*
X157128490Y-68435000D01*
X161321801Y-72628312D01*
X161321801Y-72820647D01*
X161189618Y-72981713D01*
X161085762Y-73176014D01*
X161058859Y-73109658D01*
X160907806Y-72879871D01*
X160714826Y-72683968D01*
X160487335Y-72529478D01*
X160234076Y-72422338D01*
X160159870Y-72407380D01*
X159943800Y-72529880D01*
X159943800Y-74396600D01*
X159963800Y-74396600D01*
X159963800Y-74650600D01*
X159943800Y-74650600D01*
X159943800Y-74670600D01*
X159689800Y-74670600D01*
X159689800Y-74650600D01*
X159669800Y-74650600D01*
X159669800Y-74396600D01*
X159689800Y-74396600D01*
X159689800Y-72529880D01*
X159473730Y-72407380D01*
X159399524Y-72422338D01*
X159146265Y-72529478D01*
X158918774Y-72683968D01*
X158725794Y-72879871D01*
X158574741Y-73109658D01*
X158547838Y-73176013D01*
X158443983Y-72981713D01*
X158269408Y-72768992D01*
X158056687Y-72594417D01*
X157813995Y-72464696D01*
X157550660Y-72384814D01*
X157276800Y-72357841D01*
X157002941Y-72384814D01*
X156739606Y-72464696D01*
X156496914Y-72594417D01*
X156284193Y-72768992D01*
X156109618Y-72981713D01*
X156005762Y-73176014D01*
X155978859Y-73109658D01*
X155827806Y-72879871D01*
X155634826Y-72683968D01*
X155407335Y-72529478D01*
X155154076Y-72422338D01*
X155079870Y-72407380D01*
X154863800Y-72529880D01*
X154863800Y-74396600D01*
X154883800Y-74396600D01*
X154883800Y-74650600D01*
X154863800Y-74650600D01*
X154863800Y-74670600D01*
X154609800Y-74670600D01*
X154609800Y-74650600D01*
X154589800Y-74650600D01*
X154589800Y-74396600D01*
X154609800Y-74396600D01*
X154609800Y-72529880D01*
X154393730Y-72407380D01*
X154319524Y-72422338D01*
X154066265Y-72529478D01*
X153838774Y-72683968D01*
X153645794Y-72879871D01*
X153494741Y-73109658D01*
X153467838Y-73176013D01*
X153363983Y-72981713D01*
X153189408Y-72768992D01*
X152976687Y-72594417D01*
X152733995Y-72464696D01*
X152470660Y-72384814D01*
X152196800Y-72357841D01*
X151922941Y-72384814D01*
X151659606Y-72464696D01*
X151416914Y-72594417D01*
X151204193Y-72768992D01*
X151029618Y-72981713D01*
X150925762Y-73176014D01*
X150898859Y-73109658D01*
X150747806Y-72879871D01*
X150554826Y-72683968D01*
X150327335Y-72529478D01*
X150074076Y-72422338D01*
X149999870Y-72407380D01*
X149783800Y-72529880D01*
X149783800Y-74396600D01*
X149803800Y-74396600D01*
X149803800Y-74650600D01*
X149783800Y-74650600D01*
X149783800Y-76517320D01*
X149999870Y-76639820D01*
X150074076Y-76624862D01*
X150327335Y-76517722D01*
X150554826Y-76363232D01*
X150747806Y-76167329D01*
X150898859Y-75937542D01*
X150925762Y-75871186D01*
X151029617Y-76065486D01*
X151204192Y-76278207D01*
X151361711Y-76407480D01*
X151357760Y-76447600D01*
X151373882Y-76611288D01*
X151421628Y-76768686D01*
X151499164Y-76913745D01*
X151499165Y-76913746D01*
X151603510Y-77040891D01*
X151635374Y-77067041D01*
X151706134Y-77137801D01*
X151727321Y-77163617D01*
X151675910Y-77168681D01*
X151518512Y-77216427D01*
X151373453Y-77293963D01*
X151246308Y-77398308D01*
X151220153Y-77430178D01*
X151085331Y-77565000D01*
X148748711Y-77565000D01*
X148829978Y-77483733D01*
X148943246Y-77314215D01*
X149021267Y-77125857D01*
X149061041Y-76925898D01*
X149061041Y-76722020D01*
X149023541Y-76533491D01*
X149239524Y-76624862D01*
X149313730Y-76639820D01*
X149529800Y-76517320D01*
X149529800Y-74650600D01*
X149509800Y-74650600D01*
X149509800Y-74396600D01*
X149529800Y-74396600D01*
X149529800Y-72529880D01*
X149313730Y-72407380D01*
X149239524Y-72422338D01*
X148986265Y-72529478D01*
X148758774Y-72683968D01*
X148565794Y-72879871D01*
X148414741Y-73109658D01*
X148311419Y-73364499D01*
X148259800Y-73634600D01*
X148259800Y-74172103D01*
X148190256Y-74125635D01*
X148001898Y-74047614D01*
X147856776Y-74018748D01*
X147234700Y-73396673D01*
X147234700Y-72842002D01*
X147768760Y-72842002D01*
X147893242Y-72829742D01*
X148012940Y-72793432D01*
X148123254Y-72734467D01*
X148219945Y-72655115D01*
X148299297Y-72558424D01*
X148358262Y-72448110D01*
X148394572Y-72328412D01*
X148406832Y-72203930D01*
X148406832Y-71195550D01*
X148394572Y-71071068D01*
X148358262Y-70951370D01*
X148299297Y-70841056D01*
X148219945Y-70744365D01*
X148164643Y-70698980D01*
X148219945Y-70653595D01*
X148299297Y-70556904D01*
X148358262Y-70446590D01*
X148394572Y-70326892D01*
X148406832Y-70202410D01*
X148406832Y-69194030D01*
X148394572Y-69069548D01*
X148358262Y-68949850D01*
X148299297Y-68839536D01*
X148219945Y-68742845D01*
X148167738Y-68700000D01*
X148219945Y-68657155D01*
X148299297Y-68560464D01*
X148358262Y-68450150D01*
X148394572Y-68330452D01*
X148406832Y-68205970D01*
X148406832Y-67197590D01*
X148394572Y-67073108D01*
X148358262Y-66953410D01*
X148299297Y-66843096D01*
X148219945Y-66746405D01*
X148164643Y-66701020D01*
X148219945Y-66655635D01*
X148299297Y-66558944D01*
X148358262Y-66448630D01*
X148394572Y-66328932D01*
X148406832Y-66204450D01*
X148403760Y-65986010D01*
X148245010Y-65827260D01*
X146526700Y-65827260D01*
X146526700Y-65847260D01*
X146272700Y-65847260D01*
X146272700Y-65827260D01*
X144554390Y-65827260D01*
X144395640Y-65986010D01*
X144392568Y-66204450D01*
X144404828Y-66328932D01*
X144441138Y-66448630D01*
X144500103Y-66558944D01*
X144579455Y-66655635D01*
X144634757Y-66701020D01*
X144579455Y-66746405D01*
X144500103Y-66843096D01*
X144487443Y-66866780D01*
X144089238Y-66866780D01*
X144048220Y-66862740D01*
X144007201Y-66866780D01*
X143884531Y-66878862D01*
X143727133Y-66926608D01*
X143582074Y-67004144D01*
X143454929Y-67108489D01*
X143428783Y-67140348D01*
X142438578Y-68130555D01*
X142406709Y-68156709D01*
X142328518Y-68251986D01*
X142302364Y-68283855D01*
X142224828Y-68428914D01*
X142177082Y-68586312D01*
X142160960Y-68750000D01*
X142165000Y-68791019D01*
X142165001Y-72958972D01*
X142160960Y-73000000D01*
X142177082Y-73163688D01*
X142224828Y-73321086D01*
X142292970Y-73448570D01*
X142302365Y-73466146D01*
X142406710Y-73593291D01*
X142438574Y-73619441D01*
X147780559Y-78961427D01*
X147806709Y-78993291D01*
X147933854Y-79097636D01*
X148078913Y-79175172D01*
X148236311Y-79222918D01*
X148358981Y-79235000D01*
X148358983Y-79235000D01*
X148399999Y-79239040D01*
X148441015Y-79235000D01*
X149261644Y-79235000D01*
X149188930Y-79265119D01*
X148835318Y-79501396D01*
X148534596Y-79802118D01*
X148298319Y-80155730D01*
X148135570Y-80548643D01*
X148052600Y-80965757D01*
X148052600Y-81391043D01*
X148135570Y-81808157D01*
X148298319Y-82201070D01*
X148534596Y-82554682D01*
X148835318Y-82855404D01*
X149188930Y-83091681D01*
X149581843Y-83254430D01*
X149983513Y-83334328D01*
X149059900Y-83334328D01*
X148935418Y-83346588D01*
X148815720Y-83382898D01*
X148705406Y-83441863D01*
X148608715Y-83521215D01*
X148529363Y-83617906D01*
X148470398Y-83728220D01*
X148448985Y-83798808D01*
X148338813Y-83832228D01*
X148193754Y-83909764D01*
X148066609Y-84014109D01*
X148040461Y-84045971D01*
X146467378Y-85619055D01*
X146435508Y-85645210D01*
X146337405Y-85764750D01*
X146331163Y-85772356D01*
X146253627Y-85917415D01*
X146205881Y-86074813D01*
X146189759Y-86238501D01*
X146193799Y-86279520D01*
X146193800Y-88878871D01*
X146189759Y-88919899D01*
X146205881Y-89083587D01*
X146253627Y-89240985D01*
X146331163Y-89386044D01*
X146331164Y-89386045D01*
X146435509Y-89513190D01*
X146438933Y-89516000D01*
X146099835Y-89516000D01*
X146049000Y-89510993D01*
X145998164Y-89516000D01*
X145998162Y-89516000D01*
X145846105Y-89530976D01*
X145651007Y-89590159D01*
X145585242Y-89625311D01*
X145471202Y-89686266D01*
X145362071Y-89775828D01*
X145313604Y-89815604D01*
X145281197Y-89855092D01*
X144538632Y-90597657D01*
X144564482Y-90535250D01*
X144635000Y-90180732D01*
X144635000Y-89819268D01*
X144564482Y-89464750D01*
X144426156Y-89130801D01*
X144225338Y-88830256D01*
X143969744Y-88574662D01*
X143669199Y-88373844D01*
X143579426Y-88336659D01*
X144000000Y-88338072D01*
X144124482Y-88325812D01*
X144244180Y-88289502D01*
X144354494Y-88230537D01*
X144451185Y-88151185D01*
X144530537Y-88054494D01*
X144589502Y-87944180D01*
X144625812Y-87824482D01*
X144638072Y-87700000D01*
X144635000Y-86785750D01*
X144476250Y-86627000D01*
X142927000Y-86627000D01*
X142927000Y-86647000D01*
X142673000Y-86647000D01*
X142673000Y-86627000D01*
X141123750Y-86627000D01*
X140965000Y-86785750D01*
X140961928Y-87700000D01*
X140974188Y-87824482D01*
X141010498Y-87944180D01*
X141069463Y-88054494D01*
X141148815Y-88151185D01*
X141245506Y-88230537D01*
X141355820Y-88289502D01*
X141475518Y-88325812D01*
X141600000Y-88338072D01*
X142020574Y-88336659D01*
X141930801Y-88373844D01*
X141630256Y-88574662D01*
X141374662Y-88830256D01*
X141173844Y-89130801D01*
X141035518Y-89464750D01*
X140965000Y-89819268D01*
X140965000Y-90180732D01*
X140996616Y-90339674D01*
X139349091Y-91987199D01*
X139309604Y-92019605D01*
X139289323Y-92044318D01*
X139264604Y-92064604D01*
X139135266Y-92222203D01*
X139039159Y-92402008D01*
X138979976Y-92597106D01*
X138965000Y-92749163D01*
X138965000Y-92749172D01*
X138959994Y-92800000D01*
X138965000Y-92850828D01*
X138965001Y-95269164D01*
X138959994Y-95320002D01*
X138979977Y-95522897D01*
X139010000Y-95621868D01*
X139009999Y-107541361D01*
X139004993Y-107592189D01*
X139009999Y-107643017D01*
X139009999Y-107643026D01*
X139024975Y-107795083D01*
X139084158Y-107990181D01*
X139180265Y-108169986D01*
X139309603Y-108327585D01*
X139349096Y-108359996D01*
X139604284Y-108615185D01*
X139388151Y-108658176D01*
X138975215Y-108829220D01*
X138603583Y-109077536D01*
X138287536Y-109393583D01*
X138039220Y-109765215D01*
X137868176Y-110178151D01*
X137780979Y-110616521D01*
X137090001Y-110616521D01*
X137089979Y-85300000D01*
X140961928Y-85300000D01*
X140965000Y-86214250D01*
X141123750Y-86373000D01*
X142673000Y-86373000D01*
X142673000Y-84823750D01*
X142927000Y-84823750D01*
X142927000Y-86373000D01*
X144476250Y-86373000D01*
X144635000Y-86214250D01*
X144638072Y-85300000D01*
X144625812Y-85175518D01*
X144589502Y-85055820D01*
X144530537Y-84945506D01*
X144451185Y-84848815D01*
X144354494Y-84769463D01*
X144244180Y-84710498D01*
X144124482Y-84674188D01*
X144000000Y-84661928D01*
X143085750Y-84665000D01*
X142927000Y-84823750D01*
X142673000Y-84823750D01*
X142514250Y-84665000D01*
X141600000Y-84661928D01*
X141475518Y-84674188D01*
X141355820Y-84710498D01*
X141245506Y-84769463D01*
X141148815Y-84848815D01*
X141069463Y-84945506D01*
X141010498Y-85055820D01*
X140974188Y-85175518D01*
X140961928Y-85300000D01*
X137089979Y-85300000D01*
X137089973Y-78616521D01*
X137780979Y-78616521D01*
X137780979Y-79063479D01*
X137868176Y-79501849D01*
X138039220Y-79914785D01*
X138287536Y-80286417D01*
X138603583Y-80602464D01*
X138975215Y-80850780D01*
X139388151Y-81021824D01*
X139826521Y-81109021D01*
X140273479Y-81109021D01*
X140711849Y-81021824D01*
X141124785Y-80850780D01*
X141496417Y-80602464D01*
X141812464Y-80286417D01*
X142060780Y-79914785D01*
X142231824Y-79501849D01*
X142319021Y-79063479D01*
X142319021Y-78616521D01*
X142231824Y-78178151D01*
X142060780Y-77765215D01*
X141812464Y-77393583D01*
X141496417Y-77077536D01*
X141124785Y-76829220D01*
X140711849Y-76658176D01*
X140273479Y-76570979D01*
X139826521Y-76570979D01*
X139388151Y-76658176D01*
X138975215Y-76829220D01*
X138603583Y-77077536D01*
X138287536Y-77393583D01*
X138039220Y-77765215D01*
X137868176Y-78178151D01*
X137780979Y-78616521D01*
X137089973Y-78616521D01*
X137089970Y-75400868D01*
X137157570Y-75437002D01*
X137277268Y-75473312D01*
X137401750Y-75485572D01*
X138615870Y-75482500D01*
X138774620Y-75323750D01*
X138774620Y-74224500D01*
X139028620Y-74224500D01*
X139028620Y-75323750D01*
X139187370Y-75482500D01*
X140401490Y-75485572D01*
X140525972Y-75473312D01*
X140645670Y-75437002D01*
X140755984Y-75378037D01*
X140852675Y-75298685D01*
X140932027Y-75201994D01*
X140990992Y-75091680D01*
X141027302Y-74971982D01*
X141039562Y-74847500D01*
X141036490Y-74383250D01*
X140877740Y-74224500D01*
X139028620Y-74224500D01*
X138774620Y-74224500D01*
X138754620Y-74224500D01*
X138754620Y-73970500D01*
X138774620Y-73970500D01*
X138774620Y-72871250D01*
X139028620Y-72871250D01*
X139028620Y-73970500D01*
X140877740Y-73970500D01*
X141036490Y-73811750D01*
X141039562Y-73347500D01*
X141027302Y-73223018D01*
X140990992Y-73103320D01*
X140932027Y-72993006D01*
X140852675Y-72896315D01*
X140755984Y-72816963D01*
X140645670Y-72757998D01*
X140525972Y-72721688D01*
X140401490Y-72709428D01*
X139187370Y-72712500D01*
X139028620Y-72871250D01*
X138774620Y-72871250D01*
X138615870Y-72712500D01*
X137401750Y-72709428D01*
X137277268Y-72721688D01*
X137157570Y-72757998D01*
X137089968Y-72794133D01*
X137089962Y-65196070D01*
X144392568Y-65196070D01*
X144395640Y-65414510D01*
X144554390Y-65573260D01*
X146272700Y-65573260D01*
X146272700Y-64719820D01*
X146526700Y-64719820D01*
X146526700Y-65573260D01*
X148245010Y-65573260D01*
X148403760Y-65414510D01*
X148406832Y-65196070D01*
X148394572Y-65071588D01*
X148358262Y-64951890D01*
X148299297Y-64841576D01*
X148219945Y-64744885D01*
X148123254Y-64665533D01*
X148012940Y-64606568D01*
X147893242Y-64570258D01*
X147768760Y-64557998D01*
X146685450Y-64561070D01*
X146526700Y-64719820D01*
X146272700Y-64719820D01*
X146113950Y-64561070D01*
X145030640Y-64557998D01*
X144906158Y-64570258D01*
X144786460Y-64606568D01*
X144676146Y-64665533D01*
X144579455Y-64744885D01*
X144500103Y-64841576D01*
X144441138Y-64951890D01*
X144404828Y-65071588D01*
X144392568Y-65196070D01*
X137089962Y-65196070D01*
X137089961Y-64605863D01*
X137157570Y-64642002D01*
X137277268Y-64678312D01*
X137401750Y-64690572D01*
X138615870Y-64687500D01*
X138774620Y-64528750D01*
X138774620Y-63429500D01*
X139028620Y-63429500D01*
X139028620Y-64528750D01*
X139187370Y-64687500D01*
X140401490Y-64690572D01*
X140525972Y-64678312D01*
X140645670Y-64642002D01*
X140755984Y-64583037D01*
X140852675Y-64503685D01*
X140932027Y-64406994D01*
X140990992Y-64296680D01*
X141027302Y-64176982D01*
X141039562Y-64052500D01*
X141036490Y-63588250D01*
X140877740Y-63429500D01*
X139028620Y-63429500D01*
X138774620Y-63429500D01*
X138754620Y-63429500D01*
X138754620Y-63175500D01*
X138774620Y-63175500D01*
X138774620Y-62076250D01*
X139028620Y-62076250D01*
X139028620Y-63175500D01*
X140877740Y-63175500D01*
X141036490Y-63016750D01*
X141039562Y-62552500D01*
X141027302Y-62428018D01*
X140990992Y-62308320D01*
X140932027Y-62198006D01*
X140852675Y-62101315D01*
X140755984Y-62021963D01*
X140645670Y-61962998D01*
X140525972Y-61926688D01*
X140401490Y-61914428D01*
X139187370Y-61917500D01*
X139028620Y-62076250D01*
X138774620Y-62076250D01*
X138615870Y-61917500D01*
X137401750Y-61914428D01*
X137277268Y-61926688D01*
X137157570Y-61962998D01*
X137089958Y-61999138D01*
X137089955Y-58194647D01*
X137115315Y-57896521D01*
X137780979Y-57896521D01*
X137780979Y-58343479D01*
X137868176Y-58781849D01*
X138039220Y-59194785D01*
X138287536Y-59566417D01*
X138603583Y-59882464D01*
X138975215Y-60130780D01*
X139388151Y-60301824D01*
X139826521Y-60389021D01*
X140273479Y-60389021D01*
X140711849Y-60301824D01*
X141124785Y-60130780D01*
X141496417Y-59882464D01*
X141812464Y-59566417D01*
X142060780Y-59194785D01*
X142231824Y-58781849D01*
X142319021Y-58343479D01*
X142319021Y-57896521D01*
X169780979Y-57896521D01*
X169780979Y-58343479D01*
X169868176Y-58781849D01*
X170039220Y-59194785D01*
X170287536Y-59566417D01*
X170603583Y-59882464D01*
X170975215Y-60130780D01*
X171388151Y-60301824D01*
X171826521Y-60389021D01*
X172273479Y-60389021D01*
X172711849Y-60301824D01*
X173124785Y-60130780D01*
X173496417Y-59882464D01*
X173812464Y-59566417D01*
X174060780Y-59194785D01*
X174231824Y-58781849D01*
X174319021Y-58343479D01*
X174319021Y-57896521D01*
X174231824Y-57458151D01*
X174060780Y-57045215D01*
X173812464Y-56673583D01*
X173496417Y-56357536D01*
X173124785Y-56109220D01*
X172711849Y-55938176D01*
X172273479Y-55850979D01*
X171826521Y-55850979D01*
X171388151Y-55938176D01*
X170975215Y-56109220D01*
X170603583Y-56357536D01*
X170287536Y-56673583D01*
X170039220Y-57045215D01*
X169868176Y-57458151D01*
X169780979Y-57896521D01*
X142319021Y-57896521D01*
X142231824Y-57458151D01*
X142060780Y-57045215D01*
X141812464Y-56673583D01*
X141496417Y-56357536D01*
X141124785Y-56109220D01*
X140711849Y-55938176D01*
X140273479Y-55850979D01*
X139826521Y-55850979D01*
X139388151Y-55938176D01*
X138975215Y-56109220D01*
X138603583Y-56357536D01*
X138287536Y-56673583D01*
X138039220Y-57045215D01*
X137868176Y-57458151D01*
X137780979Y-57896521D01*
X137115315Y-57896521D01*
X137141985Y-57583009D01*
X137301668Y-57028404D01*
X137566036Y-56515372D01*
X137925019Y-56063459D01*
X138364940Y-55689880D01*
X138869040Y-55408867D01*
X139418130Y-55231116D01*
X140020093Y-55160001D01*
X171975354Y-55159955D01*
X172586991Y-55211985D01*
G36*
X147475597Y-100289308D02*
G01*
X147508004Y-100328796D01*
X147547492Y-100361203D01*
X147665602Y-100458134D01*
X147761709Y-100509504D01*
X147845407Y-100554241D01*
X148040505Y-100613424D01*
X148192562Y-100628400D01*
X148192571Y-100628400D01*
X148243399Y-100633406D01*
X148294227Y-100628400D01*
X148566709Y-100628400D01*
X148608715Y-100679585D01*
X148705406Y-100758937D01*
X148815720Y-100817902D01*
X148935418Y-100854212D01*
X149059900Y-100866472D01*
X150964900Y-100866472D01*
X151089382Y-100854212D01*
X151209080Y-100817902D01*
X151319394Y-100758937D01*
X151416085Y-100679585D01*
X151495437Y-100582894D01*
X151554402Y-100472580D01*
X151567804Y-100428400D01*
X152470196Y-100428400D01*
X152483598Y-100472580D01*
X152542563Y-100582894D01*
X152621915Y-100679585D01*
X152718606Y-100758937D01*
X152828920Y-100817902D01*
X152948618Y-100854212D01*
X153073100Y-100866472D01*
X154978100Y-100866472D01*
X155102582Y-100854212D01*
X155222280Y-100817902D01*
X155332594Y-100758937D01*
X155429285Y-100679585D01*
X155508637Y-100582894D01*
X155567602Y-100472580D01*
X155581004Y-100428400D01*
X156432596Y-100428400D01*
X156445998Y-100472580D01*
X156504963Y-100582894D01*
X156584315Y-100679585D01*
X156681006Y-100758937D01*
X156791320Y-100817902D01*
X156911018Y-100854212D01*
X157035500Y-100866472D01*
X157805813Y-100866472D01*
X157602485Y-101069800D01*
X156289118Y-101069800D01*
X156248100Y-101065760D01*
X156207082Y-101069800D01*
X156207081Y-101069800D01*
X156084411Y-101081882D01*
X155927013Y-101129628D01*
X155781954Y-101207164D01*
X155654809Y-101311509D01*
X155628663Y-101343368D01*
X154689304Y-102282728D01*
X153327100Y-102282728D01*
X153202618Y-102294988D01*
X153082920Y-102331298D01*
X152972606Y-102390263D01*
X152875915Y-102469615D01*
X152796563Y-102566306D01*
X152737598Y-102676620D01*
X152701288Y-102796318D01*
X152689028Y-102920800D01*
X152689028Y-104190800D01*
X152701288Y-104315282D01*
X152737598Y-104434980D01*
X152796563Y-104545294D01*
X152875915Y-104641985D01*
X152972606Y-104721337D01*
X153082920Y-104780302D01*
X153202618Y-104816612D01*
X153327100Y-104828872D01*
X155232100Y-104828872D01*
X155356582Y-104816612D01*
X155476280Y-104780302D01*
X155586594Y-104721337D01*
X155683285Y-104641985D01*
X155741810Y-104570672D01*
X155755702Y-104576426D01*
X155955661Y-104616200D01*
X156159539Y-104616200D01*
X156359498Y-104576426D01*
X156547856Y-104498405D01*
X156610077Y-104456830D01*
X156657363Y-104545294D01*
X156736715Y-104641985D01*
X156833406Y-104721337D01*
X156943720Y-104780302D01*
X157063418Y-104816612D01*
X157187900Y-104828872D01*
X159092900Y-104828872D01*
X159217382Y-104816612D01*
X159337080Y-104780302D01*
X159447394Y-104721337D01*
X159544085Y-104641985D01*
X159623437Y-104545294D01*
X159682402Y-104434980D01*
X159718712Y-104315282D01*
X159730972Y-104190800D01*
X159730972Y-103463596D01*
X160054326Y-103140242D01*
X160086191Y-103114091D01*
X160190536Y-102986946D01*
X160268072Y-102841887D01*
X160315818Y-102684489D01*
X160316593Y-102676620D01*
X160331940Y-102520801D01*
X160327900Y-102479782D01*
X160327900Y-101710967D01*
X160502600Y-101536268D01*
X160502600Y-101625402D01*
X160667879Y-101625402D01*
X160545380Y-101841470D01*
X160560338Y-101915676D01*
X160667478Y-102168935D01*
X160821968Y-102396426D01*
X161017871Y-102589406D01*
X161247658Y-102740459D01*
X161314013Y-102767362D01*
X161119713Y-102871217D01*
X160906992Y-103045792D01*
X160732417Y-103258513D01*
X160602696Y-103501205D01*
X160522814Y-103764540D01*
X160495841Y-104038400D01*
X160522814Y-104312260D01*
X160602696Y-104575595D01*
X160732417Y-104818287D01*
X160906992Y-105031008D01*
X161119713Y-105205583D01*
X161351602Y-105329530D01*
X160658333Y-106022800D01*
X159695804Y-106022800D01*
X159682402Y-105978620D01*
X159623437Y-105868306D01*
X159544085Y-105771615D01*
X159447394Y-105692263D01*
X159337080Y-105633298D01*
X159217382Y-105596988D01*
X159092900Y-105584728D01*
X157187900Y-105584728D01*
X157063418Y-105596988D01*
X156943720Y-105633298D01*
X156833406Y-105692263D01*
X156736715Y-105771615D01*
X156657363Y-105868306D01*
X156598398Y-105978620D01*
X156584996Y-106022800D01*
X155835004Y-106022800D01*
X155821602Y-105978620D01*
X155762637Y-105868306D01*
X155683285Y-105771615D01*
X155586594Y-105692263D01*
X155476280Y-105633298D01*
X155356582Y-105596988D01*
X155232100Y-105584728D01*
X153327100Y-105584728D01*
X153202618Y-105596988D01*
X153082920Y-105633298D01*
X152972606Y-105692263D01*
X152875915Y-105771615D01*
X152796563Y-105868306D01*
X152737598Y-105978620D01*
X152701288Y-106098318D01*
X152689028Y-106222800D01*
X152689028Y-107492800D01*
X152694156Y-107544869D01*
X141461390Y-107544869D01*
X141102885Y-107186365D01*
X141203000Y-107086250D01*
X141203000Y-105467000D01*
X141183000Y-105467000D01*
X141183000Y-105213000D01*
X141203000Y-105213000D01*
X141203000Y-103593750D01*
X141079999Y-103470749D01*
X141079999Y-101750791D01*
X141203000Y-101627790D01*
X141203000Y-100008540D01*
X141183000Y-100008540D01*
X141183000Y-99754540D01*
X141203000Y-99754540D01*
X141203000Y-98135290D01*
X141079999Y-98012289D01*
X141079999Y-97690567D01*
X141177103Y-97720024D01*
X141329160Y-97735000D01*
X141329162Y-97735000D01*
X141379998Y-97740007D01*
X141430833Y-97735000D01*
X141781076Y-97735000D01*
X141860681Y-97767973D01*
X141980377Y-97804282D01*
X142076510Y-97823404D01*
X142168781Y-97832492D01*
X142665754Y-98329465D01*
X142645498Y-98367360D01*
X142609188Y-98487058D01*
X142600000Y-98580348D01*
X142590812Y-98487058D01*
X142554502Y-98367360D01*
X142495537Y-98257046D01*
X142416185Y-98160355D01*
X142319494Y-98081003D01*
X142209180Y-98022038D01*
X142089482Y-97985728D01*
X141965000Y-97973468D01*
X141615750Y-97976540D01*
X141457000Y-98135290D01*
X141457000Y-99754540D01*
X141477000Y-99754540D01*
X141477000Y-100008540D01*
X141457000Y-100008540D01*
X141457000Y-101627790D01*
X141615750Y-101786540D01*
X141965000Y-101789612D01*
X142089482Y-101777352D01*
X142209180Y-101741042D01*
X142319494Y-101682077D01*
X142416185Y-101602725D01*
X142495537Y-101506034D01*
X142554502Y-101395720D01*
X142590812Y-101276022D01*
X142600000Y-101182732D01*
X142609188Y-101276022D01*
X142645498Y-101395720D01*
X142704463Y-101506034D01*
X142783815Y-101602725D01*
X142835001Y-101644732D01*
X142835000Y-103576808D01*
X142783815Y-103618815D01*
X142704463Y-103715506D01*
X142645498Y-103825820D01*
X142609188Y-103945518D01*
X142600000Y-104038808D01*
X142590812Y-103945518D01*
X142554502Y-103825820D01*
X142495537Y-103715506D01*
X142416185Y-103618815D01*
X142319494Y-103539463D01*
X142209180Y-103480498D01*
X142089482Y-103444188D01*
X141965000Y-103431928D01*
X141615750Y-103435000D01*
X141457000Y-103593750D01*
X141457000Y-105213000D01*
X141477000Y-105213000D01*
X141477000Y-105467000D01*
X141457000Y-105467000D01*
X141457000Y-107086250D01*
X141615750Y-107245000D01*
X141965000Y-107248072D01*
X142089482Y-107235812D01*
X142209180Y-107199502D01*
X142319494Y-107140537D01*
X142416185Y-107061185D01*
X142495537Y-106964494D01*
X142554502Y-106854180D01*
X142590812Y-106734482D01*
X142600000Y-106641192D01*
X142609188Y-106734482D01*
X142645498Y-106854180D01*
X142704463Y-106964494D01*
X142783815Y-107061185D01*
X142880506Y-107140537D01*
X142990820Y-107199502D01*
X143110518Y-107235812D01*
X143235000Y-107248072D01*
X144505000Y-107248072D01*
X144629482Y-107235812D01*
X144749180Y-107199502D01*
X144859494Y-107140537D01*
X144956185Y-107061185D01*
X145035537Y-106964494D01*
X145094502Y-106854180D01*
X145130812Y-106734482D01*
X145143072Y-106610000D01*
X145143072Y-104070000D01*
X145130812Y-103945518D01*
X145094502Y-103825820D01*
X145094469Y-103825757D01*
X148052600Y-103825757D01*
X148052600Y-104251043D01*
X148135570Y-104668157D01*
X148298319Y-105061070D01*
X148534596Y-105414682D01*
X148835318Y-105715404D01*
X149188930Y-105951681D01*
X149581843Y-106114430D01*
X149998957Y-106197400D01*
X150424243Y-106197400D01*
X150841357Y-106114430D01*
X151234270Y-105951681D01*
X151587882Y-105715404D01*
X151888604Y-105414682D01*
X152124881Y-105061070D01*
X152287630Y-104668157D01*
X152370600Y-104251043D01*
X152370600Y-103825757D01*
X152287630Y-103408643D01*
X152124881Y-103015730D01*
X151888604Y-102662118D01*
X151587882Y-102361396D01*
X151234270Y-102125119D01*
X150841357Y-101962370D01*
X150424243Y-101879400D01*
X149998957Y-101879400D01*
X149581843Y-101962370D01*
X149188930Y-102125119D01*
X148835318Y-102361396D01*
X148534596Y-102662118D01*
X148298319Y-103015730D01*
X148135570Y-103408643D01*
X148052600Y-103825757D01*
X145094469Y-103825757D01*
X145035537Y-103715506D01*
X144956185Y-103618815D01*
X144905000Y-103576809D01*
X144905000Y-101644731D01*
X144956185Y-101602725D01*
X145035537Y-101506034D01*
X145094502Y-101395720D01*
X145130812Y-101276022D01*
X145143072Y-101151540D01*
X145143072Y-98611540D01*
X145130812Y-98487058D01*
X145094502Y-98367360D01*
X145035537Y-98257046D01*
X144956185Y-98160355D01*
X144905227Y-98118535D01*
X144910007Y-98070000D01*
X144901707Y-97985728D01*
X144890024Y-97867105D01*
X144843975Y-97715304D01*
X144830841Y-97672006D01*
X144799316Y-97613026D01*
X147475597Y-100289308D01*
G37*
X147475597Y-100289308D02*
X147508004Y-100328796D01*
X147547492Y-100361203D01*
X147665602Y-100458134D01*
X147761709Y-100509504D01*
X147845407Y-100554241D01*
X148040505Y-100613424D01*
X148192562Y-100628400D01*
X148192571Y-100628400D01*
X148243399Y-100633406D01*
X148294227Y-100628400D01*
X148566709Y-100628400D01*
X148608715Y-100679585D01*
X148705406Y-100758937D01*
X148815720Y-100817902D01*
X148935418Y-100854212D01*
X149059900Y-100866472D01*
X150964900Y-100866472D01*
X151089382Y-100854212D01*
X151209080Y-100817902D01*
X151319394Y-100758937D01*
X151416085Y-100679585D01*
X151495437Y-100582894D01*
X151554402Y-100472580D01*
X151567804Y-100428400D01*
X152470196Y-100428400D01*
X152483598Y-100472580D01*
X152542563Y-100582894D01*
X152621915Y-100679585D01*
X152718606Y-100758937D01*
X152828920Y-100817902D01*
X152948618Y-100854212D01*
X153073100Y-100866472D01*
X154978100Y-100866472D01*
X155102582Y-100854212D01*
X155222280Y-100817902D01*
X155332594Y-100758937D01*
X155429285Y-100679585D01*
X155508637Y-100582894D01*
X155567602Y-100472580D01*
X155581004Y-100428400D01*
X156432596Y-100428400D01*
X156445998Y-100472580D01*
X156504963Y-100582894D01*
X156584315Y-100679585D01*
X156681006Y-100758937D01*
X156791320Y-100817902D01*
X156911018Y-100854212D01*
X157035500Y-100866472D01*
X157805813Y-100866472D01*
X157602485Y-101069800D01*
X156289118Y-101069800D01*
X156248100Y-101065760D01*
X156207082Y-101069800D01*
X156207081Y-101069800D01*
X156084411Y-101081882D01*
X155927013Y-101129628D01*
X155781954Y-101207164D01*
X155654809Y-101311509D01*
X155628663Y-101343368D01*
X154689304Y-102282728D01*
X153327100Y-102282728D01*
X153202618Y-102294988D01*
X153082920Y-102331298D01*
X152972606Y-102390263D01*
X152875915Y-102469615D01*
X152796563Y-102566306D01*
X152737598Y-102676620D01*
X152701288Y-102796318D01*
X152689028Y-102920800D01*
X152689028Y-104190800D01*
X152701288Y-104315282D01*
X152737598Y-104434980D01*
X152796563Y-104545294D01*
X152875915Y-104641985D01*
X152972606Y-104721337D01*
X153082920Y-104780302D01*
X153202618Y-104816612D01*
X153327100Y-104828872D01*
X155232100Y-104828872D01*
X155356582Y-104816612D01*
X155476280Y-104780302D01*
X155586594Y-104721337D01*
X155683285Y-104641985D01*
X155741810Y-104570672D01*
X155755702Y-104576426D01*
X155955661Y-104616200D01*
X156159539Y-104616200D01*
X156359498Y-104576426D01*
X156547856Y-104498405D01*
X156610077Y-104456830D01*
X156657363Y-104545294D01*
X156736715Y-104641985D01*
X156833406Y-104721337D01*
X156943720Y-104780302D01*
X157063418Y-104816612D01*
X157187900Y-104828872D01*
X159092900Y-104828872D01*
X159217382Y-104816612D01*
X159337080Y-104780302D01*
X159447394Y-104721337D01*
X159544085Y-104641985D01*
X159623437Y-104545294D01*
X159682402Y-104434980D01*
X159718712Y-104315282D01*
X159730972Y-104190800D01*
X159730972Y-103463596D01*
X160054326Y-103140242D01*
X160086191Y-103114091D01*
X160190536Y-102986946D01*
X160268072Y-102841887D01*
X160315818Y-102684489D01*
X160316593Y-102676620D01*
X160331940Y-102520801D01*
X160327900Y-102479782D01*
X160327900Y-101710967D01*
X160502600Y-101536268D01*
X160502600Y-101625402D01*
X160667879Y-101625402D01*
X160545380Y-101841470D01*
X160560338Y-101915676D01*
X160667478Y-102168935D01*
X160821968Y-102396426D01*
X161017871Y-102589406D01*
X161247658Y-102740459D01*
X161314013Y-102767362D01*
X161119713Y-102871217D01*
X160906992Y-103045792D01*
X160732417Y-103258513D01*
X160602696Y-103501205D01*
X160522814Y-103764540D01*
X160495841Y-104038400D01*
X160522814Y-104312260D01*
X160602696Y-104575595D01*
X160732417Y-104818287D01*
X160906992Y-105031008D01*
X161119713Y-105205583D01*
X161351602Y-105329530D01*
X160658333Y-106022800D01*
X159695804Y-106022800D01*
X159682402Y-105978620D01*
X159623437Y-105868306D01*
X159544085Y-105771615D01*
X159447394Y-105692263D01*
X159337080Y-105633298D01*
X159217382Y-105596988D01*
X159092900Y-105584728D01*
X157187900Y-105584728D01*
X157063418Y-105596988D01*
X156943720Y-105633298D01*
X156833406Y-105692263D01*
X156736715Y-105771615D01*
X156657363Y-105868306D01*
X156598398Y-105978620D01*
X156584996Y-106022800D01*
X155835004Y-106022800D01*
X155821602Y-105978620D01*
X155762637Y-105868306D01*
X155683285Y-105771615D01*
X155586594Y-105692263D01*
X155476280Y-105633298D01*
X155356582Y-105596988D01*
X155232100Y-105584728D01*
X153327100Y-105584728D01*
X153202618Y-105596988D01*
X153082920Y-105633298D01*
X152972606Y-105692263D01*
X152875915Y-105771615D01*
X152796563Y-105868306D01*
X152737598Y-105978620D01*
X152701288Y-106098318D01*
X152689028Y-106222800D01*
X152689028Y-107492800D01*
X152694156Y-107544869D01*
X141461390Y-107544869D01*
X141102885Y-107186365D01*
X141203000Y-107086250D01*
X141203000Y-105467000D01*
X141183000Y-105467000D01*
X141183000Y-105213000D01*
X141203000Y-105213000D01*
X141203000Y-103593750D01*
X141079999Y-103470749D01*
X141079999Y-101750791D01*
X141203000Y-101627790D01*
X141203000Y-100008540D01*
X141183000Y-100008540D01*
X141183000Y-99754540D01*
X141203000Y-99754540D01*
X141203000Y-98135290D01*
X141079999Y-98012289D01*
X141079999Y-97690567D01*
X141177103Y-97720024D01*
X141329160Y-97735000D01*
X141329162Y-97735000D01*
X141379998Y-97740007D01*
X141430833Y-97735000D01*
X141781076Y-97735000D01*
X141860681Y-97767973D01*
X141980377Y-97804282D01*
X142076510Y-97823404D01*
X142168781Y-97832492D01*
X142665754Y-98329465D01*
X142645498Y-98367360D01*
X142609188Y-98487058D01*
X142600000Y-98580348D01*
X142590812Y-98487058D01*
X142554502Y-98367360D01*
X142495537Y-98257046D01*
X142416185Y-98160355D01*
X142319494Y-98081003D01*
X142209180Y-98022038D01*
X142089482Y-97985728D01*
X141965000Y-97973468D01*
X141615750Y-97976540D01*
X141457000Y-98135290D01*
X141457000Y-99754540D01*
X141477000Y-99754540D01*
X141477000Y-100008540D01*
X141457000Y-100008540D01*
X141457000Y-101627790D01*
X141615750Y-101786540D01*
X141965000Y-101789612D01*
X142089482Y-101777352D01*
X142209180Y-101741042D01*
X142319494Y-101682077D01*
X142416185Y-101602725D01*
X142495537Y-101506034D01*
X142554502Y-101395720D01*
X142590812Y-101276022D01*
X142600000Y-101182732D01*
X142609188Y-101276022D01*
X142645498Y-101395720D01*
X142704463Y-101506034D01*
X142783815Y-101602725D01*
X142835001Y-101644732D01*
X142835000Y-103576808D01*
X142783815Y-103618815D01*
X142704463Y-103715506D01*
X142645498Y-103825820D01*
X142609188Y-103945518D01*
X142600000Y-104038808D01*
X142590812Y-103945518D01*
X142554502Y-103825820D01*
X142495537Y-103715506D01*
X142416185Y-103618815D01*
X142319494Y-103539463D01*
X142209180Y-103480498D01*
X142089482Y-103444188D01*
X141965000Y-103431928D01*
X141615750Y-103435000D01*
X141457000Y-103593750D01*
X141457000Y-105213000D01*
X141477000Y-105213000D01*
X141477000Y-105467000D01*
X141457000Y-105467000D01*
X141457000Y-107086250D01*
X141615750Y-107245000D01*
X141965000Y-107248072D01*
X142089482Y-107235812D01*
X142209180Y-107199502D01*
X142319494Y-107140537D01*
X142416185Y-107061185D01*
X142495537Y-106964494D01*
X142554502Y-106854180D01*
X142590812Y-106734482D01*
X142600000Y-106641192D01*
X142609188Y-106734482D01*
X142645498Y-106854180D01*
X142704463Y-106964494D01*
X142783815Y-107061185D01*
X142880506Y-107140537D01*
X142990820Y-107199502D01*
X143110518Y-107235812D01*
X143235000Y-107248072D01*
X144505000Y-107248072D01*
X144629482Y-107235812D01*
X144749180Y-107199502D01*
X144859494Y-107140537D01*
X144956185Y-107061185D01*
X145035537Y-106964494D01*
X145094502Y-106854180D01*
X145130812Y-106734482D01*
X145143072Y-106610000D01*
X145143072Y-104070000D01*
X145130812Y-103945518D01*
X145094502Y-103825820D01*
X145094469Y-103825757D01*
X148052600Y-103825757D01*
X148052600Y-104251043D01*
X148135570Y-104668157D01*
X148298319Y-105061070D01*
X148534596Y-105414682D01*
X148835318Y-105715404D01*
X149188930Y-105951681D01*
X149581843Y-106114430D01*
X149998957Y-106197400D01*
X150424243Y-106197400D01*
X150841357Y-106114430D01*
X151234270Y-105951681D01*
X151587882Y-105715404D01*
X151888604Y-105414682D01*
X152124881Y-105061070D01*
X152287630Y-104668157D01*
X152370600Y-104251043D01*
X152370600Y-103825757D01*
X152287630Y-103408643D01*
X152124881Y-103015730D01*
X151888604Y-102662118D01*
X151587882Y-102361396D01*
X151234270Y-102125119D01*
X150841357Y-101962370D01*
X150424243Y-101879400D01*
X149998957Y-101879400D01*
X149581843Y-101962370D01*
X149188930Y-102125119D01*
X148835318Y-102361396D01*
X148534596Y-102662118D01*
X148298319Y-103015730D01*
X148135570Y-103408643D01*
X148052600Y-103825757D01*
X145094469Y-103825757D01*
X145035537Y-103715506D01*
X144956185Y-103618815D01*
X144905000Y-103576809D01*
X144905000Y-101644731D01*
X144956185Y-101602725D01*
X145035537Y-101506034D01*
X145094502Y-101395720D01*
X145130812Y-101276022D01*
X145143072Y-101151540D01*
X145143072Y-98611540D01*
X145130812Y-98487058D01*
X145094502Y-98367360D01*
X145035537Y-98257046D01*
X144956185Y-98160355D01*
X144905227Y-98118535D01*
X144910007Y-98070000D01*
X144901707Y-97985728D01*
X144890024Y-97867105D01*
X144843975Y-97715304D01*
X144830841Y-97672006D01*
X144799316Y-97613026D01*
X147475597Y-100289308D01*
G36*
X167760563Y-102690598D02*
G01*
X167786709Y-102722457D01*
X167818568Y-102748603D01*
X167818570Y-102748605D01*
X167843651Y-102769188D01*
X167852427Y-102798119D01*
X167889936Y-102888675D01*
X167948902Y-102998992D01*
X168003358Y-103080491D01*
X168082710Y-103177182D01*
X168152018Y-103246490D01*
X168248709Y-103325842D01*
X168330208Y-103380298D01*
X168440525Y-103439264D01*
X168531081Y-103476773D01*
X168650777Y-103513082D01*
X168746910Y-103532204D01*
X168871391Y-103544464D01*
X168895950Y-103544464D01*
X168920400Y-103546872D01*
X169392109Y-103546872D01*
X169396167Y-103933028D01*
X168945800Y-103933028D01*
X168921350Y-103935436D01*
X168896791Y-103935436D01*
X168772310Y-103947696D01*
X168676177Y-103966818D01*
X168556481Y-104003127D01*
X168465925Y-104040636D01*
X168355608Y-104099602D01*
X168274109Y-104154058D01*
X168177418Y-104233410D01*
X168108110Y-104302718D01*
X168028758Y-104399409D01*
X167974302Y-104480908D01*
X167971527Y-104486100D01*
X166279468Y-104486100D01*
X165181446Y-103388079D01*
X165155291Y-103356209D01*
X165028146Y-103251864D01*
X164883087Y-103174328D01*
X164725689Y-103126582D01*
X164603019Y-103114500D01*
X164603018Y-103114500D01*
X164562000Y-103110460D01*
X164520982Y-103114500D01*
X164472595Y-103114500D01*
X164416208Y-103045792D01*
X164203487Y-102871217D01*
X164009187Y-102767362D01*
X164075542Y-102740459D01*
X164305329Y-102589406D01*
X164501232Y-102396426D01*
X164655722Y-102168935D01*
X164762862Y-101915676D01*
X164777820Y-101841470D01*
X164655320Y-101625400D01*
X162788600Y-101625400D01*
X162788600Y-101645400D01*
X162534600Y-101645400D01*
X162534600Y-101625400D01*
X162514600Y-101625400D01*
X162514600Y-101371400D01*
X162534600Y-101371400D01*
X162534600Y-101351400D01*
X162788600Y-101351400D01*
X162788600Y-101371400D01*
X164655320Y-101371400D01*
X164777820Y-101155330D01*
X164762862Y-101081124D01*
X164655722Y-100827865D01*
X164501232Y-100600374D01*
X164305329Y-100407394D01*
X164075542Y-100256341D01*
X164009187Y-100229438D01*
X164203487Y-100125583D01*
X164416208Y-99951008D01*
X164590783Y-99738287D01*
X164608842Y-99704500D01*
X164774467Y-99704500D01*
X167760563Y-102690598D01*
G37*
X167760563Y-102690598D02*
X167786709Y-102722457D01*
X167818568Y-102748603D01*
X167818570Y-102748605D01*
X167843651Y-102769188D01*
X167852427Y-102798119D01*
X167889936Y-102888675D01*
X167948902Y-102998992D01*
X168003358Y-103080491D01*
X168082710Y-103177182D01*
X168152018Y-103246490D01*
X168248709Y-103325842D01*
X168330208Y-103380298D01*
X168440525Y-103439264D01*
X168531081Y-103476773D01*
X168650777Y-103513082D01*
X168746910Y-103532204D01*
X168871391Y-103544464D01*
X168895950Y-103544464D01*
X168920400Y-103546872D01*
X169392109Y-103546872D01*
X169396167Y-103933028D01*
X168945800Y-103933028D01*
X168921350Y-103935436D01*
X168896791Y-103935436D01*
X168772310Y-103947696D01*
X168676177Y-103966818D01*
X168556481Y-104003127D01*
X168465925Y-104040636D01*
X168355608Y-104099602D01*
X168274109Y-104154058D01*
X168177418Y-104233410D01*
X168108110Y-104302718D01*
X168028758Y-104399409D01*
X167974302Y-104480908D01*
X167971527Y-104486100D01*
X166279468Y-104486100D01*
X165181446Y-103388079D01*
X165155291Y-103356209D01*
X165028146Y-103251864D01*
X164883087Y-103174328D01*
X164725689Y-103126582D01*
X164603019Y-103114500D01*
X164603018Y-103114500D01*
X164562000Y-103110460D01*
X164520982Y-103114500D01*
X164472595Y-103114500D01*
X164416208Y-103045792D01*
X164203487Y-102871217D01*
X164009187Y-102767362D01*
X164075542Y-102740459D01*
X164305329Y-102589406D01*
X164501232Y-102396426D01*
X164655722Y-102168935D01*
X164762862Y-101915676D01*
X164777820Y-101841470D01*
X164655320Y-101625400D01*
X162788600Y-101625400D01*
X162788600Y-101645400D01*
X162534600Y-101645400D01*
X162534600Y-101625400D01*
X162514600Y-101625400D01*
X162514600Y-101371400D01*
X162534600Y-101371400D01*
X162534600Y-101351400D01*
X162788600Y-101351400D01*
X162788600Y-101371400D01*
X164655320Y-101371400D01*
X164777820Y-101155330D01*
X164762862Y-101081124D01*
X164655722Y-100827865D01*
X164501232Y-100600374D01*
X164305329Y-100407394D01*
X164075542Y-100256341D01*
X164009187Y-100229438D01*
X164203487Y-100125583D01*
X164416208Y-99951008D01*
X164590783Y-99738287D01*
X164608842Y-99704500D01*
X164774467Y-99704500D01*
X167760563Y-102690598D01*
G36*
X148608715Y-91637185D02*
G01*
X148705406Y-91716537D01*
X148815720Y-91775502D01*
X148935418Y-91811812D01*
X149028890Y-91821018D01*
X149017174Y-91849302D01*
X148977400Y-92049261D01*
X148977400Y-92253139D01*
X149017174Y-92453098D01*
X149069709Y-92579928D01*
X149059900Y-92579928D01*
X148935418Y-92592188D01*
X148815720Y-92628498D01*
X148705406Y-92687463D01*
X148608715Y-92766815D01*
X148529363Y-92863506D01*
X148470398Y-92973820D01*
X148434088Y-93093518D01*
X148421828Y-93218000D01*
X148421828Y-94488000D01*
X148434088Y-94612482D01*
X148470398Y-94732180D01*
X148529363Y-94842494D01*
X148608715Y-94939185D01*
X148705406Y-95018537D01*
X148805801Y-95072200D01*
X148705406Y-95125863D01*
X148608715Y-95205215D01*
X148529363Y-95301906D01*
X148470398Y-95412220D01*
X148434088Y-95531918D01*
X148421828Y-95656400D01*
X148424900Y-96005650D01*
X148583650Y-96164400D01*
X149885400Y-96164400D01*
X149885400Y-96144400D01*
X150139400Y-96144400D01*
X150139400Y-96164400D01*
X151441150Y-96164400D01*
X151599900Y-96005650D01*
X151602972Y-95656400D01*
X152435028Y-95656400D01*
X152438100Y-96005650D01*
X152596850Y-96164400D01*
X153898600Y-96164400D01*
X153898600Y-95180150D01*
X154152600Y-95180150D01*
X154152600Y-96164400D01*
X155454350Y-96164400D01*
X155613100Y-96005650D01*
X155616172Y-95656400D01*
X155603912Y-95531918D01*
X155567602Y-95412220D01*
X155508637Y-95301906D01*
X155429285Y-95205215D01*
X155332594Y-95125863D01*
X155222280Y-95066898D01*
X155102582Y-95030588D01*
X154978100Y-95018328D01*
X154311350Y-95021400D01*
X154152600Y-95180150D01*
X153898600Y-95180150D01*
X153739850Y-95021400D01*
X153073100Y-95018328D01*
X152948618Y-95030588D01*
X152828920Y-95066898D01*
X152718606Y-95125863D01*
X152621915Y-95205215D01*
X152542563Y-95301906D01*
X152483598Y-95412220D01*
X152447288Y-95531918D01*
X152435028Y-95656400D01*
X151602972Y-95656400D01*
X151590712Y-95531918D01*
X151554402Y-95412220D01*
X151495437Y-95301906D01*
X151416085Y-95205215D01*
X151319394Y-95125863D01*
X151218999Y-95072200D01*
X151319394Y-95018537D01*
X151416085Y-94939185D01*
X151495437Y-94842494D01*
X151554402Y-94732180D01*
X151575815Y-94661592D01*
X151685987Y-94628172D01*
X151831046Y-94550636D01*
X151958191Y-94446291D01*
X151984346Y-94414421D01*
X152464928Y-93933839D01*
X152553026Y-94021937D01*
X152722544Y-94135205D01*
X152910902Y-94213226D01*
X153110861Y-94253000D01*
X153314739Y-94253000D01*
X153514698Y-94213226D01*
X153703056Y-94135205D01*
X153872574Y-94021937D01*
X154016737Y-93877774D01*
X154130005Y-93708256D01*
X154208026Y-93519898D01*
X154236892Y-93374776D01*
X154269868Y-93341800D01*
X155406982Y-93341800D01*
X155448000Y-93345840D01*
X155489018Y-93341800D01*
X155489019Y-93341800D01*
X155611689Y-93329718D01*
X155749262Y-93287986D01*
X155648395Y-93438944D01*
X155570374Y-93627302D01*
X155530600Y-93827261D01*
X155530600Y-94031139D01*
X155570374Y-94231098D01*
X155648395Y-94419456D01*
X155761663Y-94588974D01*
X155905826Y-94733137D01*
X156075344Y-94846405D01*
X156263702Y-94924426D01*
X156463661Y-94964200D01*
X156667539Y-94964200D01*
X156867498Y-94924426D01*
X157055856Y-94846405D01*
X157178885Y-94764200D01*
X157677435Y-94764200D01*
X157934635Y-95021400D01*
X157860998Y-95021400D01*
X157860998Y-95180148D01*
X157702250Y-95021400D01*
X157035500Y-95018328D01*
X156911018Y-95030588D01*
X156791320Y-95066898D01*
X156681006Y-95125863D01*
X156584315Y-95205215D01*
X156504963Y-95301906D01*
X156445998Y-95412220D01*
X156409688Y-95531918D01*
X156397428Y-95656400D01*
X156400500Y-96005650D01*
X156559250Y-96164400D01*
X157861000Y-96164400D01*
X157861000Y-96144400D01*
X158115000Y-96144400D01*
X158115000Y-96164400D01*
X158135000Y-96164400D01*
X158135000Y-96418400D01*
X158115000Y-96418400D01*
X158115000Y-97402650D01*
X158273750Y-97561400D01*
X158555502Y-97562698D01*
X158555502Y-98320328D01*
X157035500Y-98320328D01*
X156911018Y-98332588D01*
X156791320Y-98368898D01*
X156681006Y-98427863D01*
X156584315Y-98507215D01*
X156504963Y-98603906D01*
X156445998Y-98714220D01*
X156432596Y-98758400D01*
X155581004Y-98758400D01*
X155567602Y-98714220D01*
X155508637Y-98603906D01*
X155429285Y-98507215D01*
X155332594Y-98427863D01*
X155222280Y-98368898D01*
X155102582Y-98332588D01*
X154978100Y-98320328D01*
X153933743Y-98320328D01*
X154028405Y-98178656D01*
X154106426Y-97990298D01*
X154146200Y-97790339D01*
X154146200Y-97586461D01*
X154141215Y-97561400D01*
X154152602Y-97561400D01*
X154152602Y-97402652D01*
X154311350Y-97561400D01*
X154978100Y-97564472D01*
X155102582Y-97552212D01*
X155222280Y-97515902D01*
X155332594Y-97456937D01*
X155429285Y-97377585D01*
X155508637Y-97280894D01*
X155567602Y-97170580D01*
X155603912Y-97050882D01*
X155616172Y-96926400D01*
X156397428Y-96926400D01*
X156409688Y-97050882D01*
X156445998Y-97170580D01*
X156504963Y-97280894D01*
X156584315Y-97377585D01*
X156681006Y-97456937D01*
X156791320Y-97515902D01*
X156911018Y-97552212D01*
X157035500Y-97564472D01*
X157702250Y-97561400D01*
X157861000Y-97402650D01*
X157861000Y-96418400D01*
X156559250Y-96418400D01*
X156400500Y-96577150D01*
X156397428Y-96926400D01*
X155616172Y-96926400D01*
X155613100Y-96577150D01*
X155454350Y-96418400D01*
X154152600Y-96418400D01*
X154152600Y-96438400D01*
X153898600Y-96438400D01*
X153898600Y-96418400D01*
X152596850Y-96418400D01*
X152438100Y-96577150D01*
X152435255Y-96900634D01*
X152407489Y-96928400D01*
X151602775Y-96928400D01*
X151602972Y-96926400D01*
X151599900Y-96577150D01*
X151441150Y-96418400D01*
X150139400Y-96418400D01*
X150139400Y-96438400D01*
X149885400Y-96438400D01*
X149885400Y-96418400D01*
X148583650Y-96418400D01*
X148424900Y-96577150D01*
X148421828Y-96926400D01*
X148434088Y-97050882D01*
X148470398Y-97170580D01*
X148529363Y-97280894D01*
X148608715Y-97377585D01*
X148705406Y-97456937D01*
X148815720Y-97515902D01*
X148837708Y-97522572D01*
X148825000Y-97586461D01*
X148825000Y-97790339D01*
X148864774Y-97990298D01*
X148942795Y-98178656D01*
X149038843Y-98322402D01*
X148935418Y-98332588D01*
X148815720Y-98368898D01*
X148705406Y-98427863D01*
X148615422Y-98501711D01*
X144817807Y-94704097D01*
X144785396Y-94664604D01*
X144627797Y-94535266D01*
X144447993Y-94439159D01*
X144252895Y-94379976D01*
X144100838Y-94365000D01*
X144100828Y-94365000D01*
X144050000Y-94359994D01*
X143999172Y-94365000D01*
X143888072Y-94365000D01*
X143888072Y-94175638D01*
X146477711Y-91586000D01*
X148566709Y-91586000D01*
X148608715Y-91637185D01*
G37*
X148608715Y-91637185D02*
X148705406Y-91716537D01*
X148815720Y-91775502D01*
X148935418Y-91811812D01*
X149028890Y-91821018D01*
X149017174Y-91849302D01*
X148977400Y-92049261D01*
X148977400Y-92253139D01*
X149017174Y-92453098D01*
X149069709Y-92579928D01*
X149059900Y-92579928D01*
X148935418Y-92592188D01*
X148815720Y-92628498D01*
X148705406Y-92687463D01*
X148608715Y-92766815D01*
X148529363Y-92863506D01*
X148470398Y-92973820D01*
X148434088Y-93093518D01*
X148421828Y-93218000D01*
X148421828Y-94488000D01*
X148434088Y-94612482D01*
X148470398Y-94732180D01*
X148529363Y-94842494D01*
X148608715Y-94939185D01*
X148705406Y-95018537D01*
X148805801Y-95072200D01*
X148705406Y-95125863D01*
X148608715Y-95205215D01*
X148529363Y-95301906D01*
X148470398Y-95412220D01*
X148434088Y-95531918D01*
X148421828Y-95656400D01*
X148424900Y-96005650D01*
X148583650Y-96164400D01*
X149885400Y-96164400D01*
X149885400Y-96144400D01*
X150139400Y-96144400D01*
X150139400Y-96164400D01*
X151441150Y-96164400D01*
X151599900Y-96005650D01*
X151602972Y-95656400D01*
X152435028Y-95656400D01*
X152438100Y-96005650D01*
X152596850Y-96164400D01*
X153898600Y-96164400D01*
X153898600Y-95180150D01*
X154152600Y-95180150D01*
X154152600Y-96164400D01*
X155454350Y-96164400D01*
X155613100Y-96005650D01*
X155616172Y-95656400D01*
X155603912Y-95531918D01*
X155567602Y-95412220D01*
X155508637Y-95301906D01*
X155429285Y-95205215D01*
X155332594Y-95125863D01*
X155222280Y-95066898D01*
X155102582Y-95030588D01*
X154978100Y-95018328D01*
X154311350Y-95021400D01*
X154152600Y-95180150D01*
X153898600Y-95180150D01*
X153739850Y-95021400D01*
X153073100Y-95018328D01*
X152948618Y-95030588D01*
X152828920Y-95066898D01*
X152718606Y-95125863D01*
X152621915Y-95205215D01*
X152542563Y-95301906D01*
X152483598Y-95412220D01*
X152447288Y-95531918D01*
X152435028Y-95656400D01*
X151602972Y-95656400D01*
X151590712Y-95531918D01*
X151554402Y-95412220D01*
X151495437Y-95301906D01*
X151416085Y-95205215D01*
X151319394Y-95125863D01*
X151218999Y-95072200D01*
X151319394Y-95018537D01*
X151416085Y-94939185D01*
X151495437Y-94842494D01*
X151554402Y-94732180D01*
X151575815Y-94661592D01*
X151685987Y-94628172D01*
X151831046Y-94550636D01*
X151958191Y-94446291D01*
X151984346Y-94414421D01*
X152464928Y-93933839D01*
X152553026Y-94021937D01*
X152722544Y-94135205D01*
X152910902Y-94213226D01*
X153110861Y-94253000D01*
X153314739Y-94253000D01*
X153514698Y-94213226D01*
X153703056Y-94135205D01*
X153872574Y-94021937D01*
X154016737Y-93877774D01*
X154130005Y-93708256D01*
X154208026Y-93519898D01*
X154236892Y-93374776D01*
X154269868Y-93341800D01*
X155406982Y-93341800D01*
X155448000Y-93345840D01*
X155489018Y-93341800D01*
X155489019Y-93341800D01*
X155611689Y-93329718D01*
X155749262Y-93287986D01*
X155648395Y-93438944D01*
X155570374Y-93627302D01*
X155530600Y-93827261D01*
X155530600Y-94031139D01*
X155570374Y-94231098D01*
X155648395Y-94419456D01*
X155761663Y-94588974D01*
X155905826Y-94733137D01*
X156075344Y-94846405D01*
X156263702Y-94924426D01*
X156463661Y-94964200D01*
X156667539Y-94964200D01*
X156867498Y-94924426D01*
X157055856Y-94846405D01*
X157178885Y-94764200D01*
X157677435Y-94764200D01*
X157934635Y-95021400D01*
X157860998Y-95021400D01*
X157860998Y-95180148D01*
X157702250Y-95021400D01*
X157035500Y-95018328D01*
X156911018Y-95030588D01*
X156791320Y-95066898D01*
X156681006Y-95125863D01*
X156584315Y-95205215D01*
X156504963Y-95301906D01*
X156445998Y-95412220D01*
X156409688Y-95531918D01*
X156397428Y-95656400D01*
X156400500Y-96005650D01*
X156559250Y-96164400D01*
X157861000Y-96164400D01*
X157861000Y-96144400D01*
X158115000Y-96144400D01*
X158115000Y-96164400D01*
X158135000Y-96164400D01*
X158135000Y-96418400D01*
X158115000Y-96418400D01*
X158115000Y-97402650D01*
X158273750Y-97561400D01*
X158555502Y-97562698D01*
X158555502Y-98320328D01*
X157035500Y-98320328D01*
X156911018Y-98332588D01*
X156791320Y-98368898D01*
X156681006Y-98427863D01*
X156584315Y-98507215D01*
X156504963Y-98603906D01*
X156445998Y-98714220D01*
X156432596Y-98758400D01*
X155581004Y-98758400D01*
X155567602Y-98714220D01*
X155508637Y-98603906D01*
X155429285Y-98507215D01*
X155332594Y-98427863D01*
X155222280Y-98368898D01*
X155102582Y-98332588D01*
X154978100Y-98320328D01*
X153933743Y-98320328D01*
X154028405Y-98178656D01*
X154106426Y-97990298D01*
X154146200Y-97790339D01*
X154146200Y-97586461D01*
X154141215Y-97561400D01*
X154152602Y-97561400D01*
X154152602Y-97402652D01*
X154311350Y-97561400D01*
X154978100Y-97564472D01*
X155102582Y-97552212D01*
X155222280Y-97515902D01*
X155332594Y-97456937D01*
X155429285Y-97377585D01*
X155508637Y-97280894D01*
X155567602Y-97170580D01*
X155603912Y-97050882D01*
X155616172Y-96926400D01*
X156397428Y-96926400D01*
X156409688Y-97050882D01*
X156445998Y-97170580D01*
X156504963Y-97280894D01*
X156584315Y-97377585D01*
X156681006Y-97456937D01*
X156791320Y-97515902D01*
X156911018Y-97552212D01*
X157035500Y-97564472D01*
X157702250Y-97561400D01*
X157861000Y-97402650D01*
X157861000Y-96418400D01*
X156559250Y-96418400D01*
X156400500Y-96577150D01*
X156397428Y-96926400D01*
X155616172Y-96926400D01*
X155613100Y-96577150D01*
X155454350Y-96418400D01*
X154152600Y-96418400D01*
X154152600Y-96438400D01*
X153898600Y-96438400D01*
X153898600Y-96418400D01*
X152596850Y-96418400D01*
X152438100Y-96577150D01*
X152435255Y-96900634D01*
X152407489Y-96928400D01*
X151602775Y-96928400D01*
X151602972Y-96926400D01*
X151599900Y-96577150D01*
X151441150Y-96418400D01*
X150139400Y-96418400D01*
X150139400Y-96438400D01*
X149885400Y-96438400D01*
X149885400Y-96418400D01*
X148583650Y-96418400D01*
X148424900Y-96577150D01*
X148421828Y-96926400D01*
X148434088Y-97050882D01*
X148470398Y-97170580D01*
X148529363Y-97280894D01*
X148608715Y-97377585D01*
X148705406Y-97456937D01*
X148815720Y-97515902D01*
X148837708Y-97522572D01*
X148825000Y-97586461D01*
X148825000Y-97790339D01*
X148864774Y-97990298D01*
X148942795Y-98178656D01*
X149038843Y-98322402D01*
X148935418Y-98332588D01*
X148815720Y-98368898D01*
X148705406Y-98427863D01*
X148615422Y-98501711D01*
X144817807Y-94704097D01*
X144785396Y-94664604D01*
X144627797Y-94535266D01*
X144447993Y-94439159D01*
X144252895Y-94379976D01*
X144100838Y-94365000D01*
X144100828Y-94365000D01*
X144050000Y-94359994D01*
X143999172Y-94365000D01*
X143888072Y-94365000D01*
X143888072Y-94175638D01*
X146477711Y-91586000D01*
X148566709Y-91586000D01*
X148608715Y-91637185D01*
G36*
X166227300Y-71572740D02*
G01*
X166247300Y-71572740D01*
X166247300Y-71826740D01*
X166227300Y-71826740D01*
X166227300Y-72680180D01*
X166386050Y-72838930D01*
X167469360Y-72842002D01*
X167593842Y-72829742D01*
X167713540Y-72793432D01*
X167823854Y-72734467D01*
X167920545Y-72655115D01*
X167965000Y-72600946D01*
X167965000Y-74054132D01*
X166095000Y-75924133D01*
X166095000Y-75808061D01*
X166055226Y-75608102D01*
X165977205Y-75419744D01*
X165895000Y-75296715D01*
X165895000Y-74051007D01*
X165899039Y-74009999D01*
X165895000Y-73968991D01*
X165895000Y-73968981D01*
X165882918Y-73846311D01*
X165835172Y-73688913D01*
X165757636Y-73543854D01*
X165653291Y-73416709D01*
X165621427Y-73390560D01*
X165116239Y-72885372D01*
X165116239Y-72840910D01*
X165814550Y-72838930D01*
X165973300Y-72680180D01*
X165973300Y-71826740D01*
X165953300Y-71826740D01*
X165953300Y-71572740D01*
X165973300Y-71572740D01*
X165973300Y-71552740D01*
X166227300Y-71552740D01*
X166227300Y-71572740D01*
G37*
X166227300Y-71572740D02*
X166247300Y-71572740D01*
X166247300Y-71826740D01*
X166227300Y-71826740D01*
X166227300Y-72680180D01*
X166386050Y-72838930D01*
X167469360Y-72842002D01*
X167593842Y-72829742D01*
X167713540Y-72793432D01*
X167823854Y-72734467D01*
X167920545Y-72655115D01*
X167965000Y-72600946D01*
X167965000Y-74054132D01*
X166095000Y-75924133D01*
X166095000Y-75808061D01*
X166055226Y-75608102D01*
X165977205Y-75419744D01*
X165895000Y-75296715D01*
X165895000Y-74051007D01*
X165899039Y-74009999D01*
X165895000Y-73968991D01*
X165895000Y-73968981D01*
X165882918Y-73846311D01*
X165835172Y-73688913D01*
X165757636Y-73543854D01*
X165653291Y-73416709D01*
X165621427Y-73390560D01*
X165116239Y-72885372D01*
X165116239Y-72840910D01*
X165814550Y-72838930D01*
X165973300Y-72680180D01*
X165973300Y-71826740D01*
X165953300Y-71826740D01*
X165953300Y-71572740D01*
X165973300Y-71572740D01*
X165973300Y-71552740D01*
X166227300Y-71552740D01*
X166227300Y-71572740D01*
M02*
